<svg width="66" height="66" viewBox="0 0 66 66" fill="none" xmlns="http://www.w3.org/2000/svg">
<path d="M55.4405 15.808C56.2758 14.9762 55.5234 12.8783 53.7599 11.1222C51.9964 9.36609 49.8896 8.61683 49.0543 9.44866C48.2189 10.2805 48.9714 12.3784 50.7349 14.1345C52.4984 15.8906 54.6052 16.6399 55.4405 15.808Z" stroke="#00A19A" stroke-width="2" stroke-miterlimit="10"/>
<path d="M52.2356 9.12101L58.6528 2.13913C58.6528 2.13913 67.4467 -2.476 64.0004 6.87261L55.563 13.9728" stroke="#00A19A" stroke-width="2" stroke-miterlimit="10"/>
<path d="M48.9081 12.6711L41.778 20.718C41.778 20.718 39.1636 25.5698 44.7489 23.6764L52.1167 15.7479" stroke="#00A19A" stroke-width="2" stroke-miterlimit="10"/>
<path d="M17.5354 50.3022L18.3673 49.4739" stroke="#00A19A" stroke-width="2" stroke-miterlimit="10"/>
<path d="M19.9121 47.6989L38.4506 27.4633" stroke="#00A19A" stroke-width="2" stroke-miterlimit="10" stroke-dasharray="2.01 2.01"/>
<path d="M39.2825 26.6349L39.9956 25.8065L38.926 26.1615" stroke="#00A19A" stroke-width="2" stroke-miterlimit="10"/>
<path d="M37.0246 26.9899L22.4077 32.9067" stroke="#00A19A" stroke-width="2" stroke-miterlimit="10" stroke-dasharray="1.77 1.77"/>
<path d="M21.457 33.2617L20.3875 33.7351" stroke="#00A19A" stroke-width="2" stroke-miterlimit="10"/>
<path d="M32.8652 48.1722L33.2217 46.9888" stroke="#00A19A" stroke-width="2" stroke-miterlimit="10"/>
<path d="M34.0537 44.7404L40.3521 27.3449" stroke="#00A19A" stroke-width="2" stroke-miterlimit="10" stroke-dasharray="2.08 2.08"/>
<path d="M40.8271 26.1615L41.1837 25.0965" stroke="#00A19A" stroke-width="2" stroke-miterlimit="10"/>
<path d="M26.8045 22.9664L25.4973 19.8896" stroke="#00A19A" stroke-width="2" stroke-miterlimit="10"/>
<path d="M24.5468 17.5229L21.2193 12.5528C20.6251 13.0261 15.8717 18.233 15.2775 18.943C12.0689 22.9664 9.45452 28.1733 8.86034 33.3801C8.62266 35.3918 8.7415 42.137 8.86034 43.7937C8.86034 43.7937 3.8692 35.0368 3.39386 34.2084C2.79968 35.6285 1.84898 38.5869 1.49247 39.7703C0.66062 43.3204 0.898293 46.0421 2.08666 49.0005C5.65175 58.3492 12.3066 64.621 22.883 64.621C33.9348 64.621 41.3027 50.1839 41.3027 41.5453" stroke="#00A19A" stroke-width="2" stroke-miterlimit="10"/>
</svg>
