<?xml version="1.0" encoding="UTF-8" standalone="no"?>
<!DOCTYPE svg  PUBLIC '-//W3C//DTD SVG 1.1//EN'  'http://www.w3.org/Graphics/SVG/1.1/DTD/svg11.dtd'>
<svg xmlns="http://www.w3.org/2000/svg">
<defs>
<font id="MyriadHebrew-It" horiz-adv-x="500">
<font-face slope="-11" underline-position="-50" font-weight="400" descent="-200" panose-1="1 1 1 1 1 1 1 1 1 1" units-per-em="1000" unicode-range="U+0020-25CA" bbox="-185 -250 1122 875" x-height="483" underline-thickness="50" font-family="MyriadHebrew" ascent="800" font-style="italic" cap-height="674"/>
<missing-glyph horiz-adv-x="1000"/>
<glyph glyph-name=".notdef" horiz-adv-x="1000"/>
<glyph glyph-name=".null" horiz-adv-x="0"/>
<glyph glyph-name="nonmarkingreturn" horiz-adv-x="333"/>
<glyph glyph-name="space" horiz-adv-x="213" unicode=" "/>
<glyph glyph-name="exclam" horiz-adv-x="306" unicode="!" d="M108 113q23 -1 37 -16t14 -38q0 -28 -18.5 -48.5t-50.5 -20.5q-23 0 -37 14.5t-14 37.5q0 30 19 50t50 21zM97 189q45 249 51 278l20 84h94l-19 -80q-13 -57 -40.5 -155.5t-37.5 -126.5h-68z"/>
<glyph glyph-name="quotedbl" horiz-adv-x="415" unicode='&quot;' d="M119 377l47 232l87 11l-66 -231zM293 377l48 232l86 11l-65 -231z"/>
<glyph glyph-name="numbersign" horiz-adv-x="513" unicode="#" d="M303 240l45 122h-108l-45 -122h108zM504 362h-93l-45 -122h71l-10 -77h-89l-61 -166h-63l61 166h-109l-62 -166h-62l62 166h-75l10 77h93l46 122h-76l10 75h94l55 149h63l-56 -149h108l55 150h63l-55 -150h75z"/>
<glyph glyph-name="dollar" d="M208 -91h-63l23 96q-80 9 -143 64l37 70q70 -66 162 -66q51 0 86 20.5t35 68.5q0 32 -24 55t-73 48q-70 35 -101.5 71.5t-30.5 85.5q0 74 56 119t134 45l21 90h63l-21 -93q69 -8 113 -46l-37 -66q-56 46 -140 46q-44 0 -74.5 -20t-30.5 -61q-1 -28 21 -48.5t77 -49.5 q71 -35 101.5 -72.5t30.5 -95.5q0 -74 -58 -119.5t-142 -47.5z" unicode="$"/>
<glyph glyph-name="percent" horiz-adv-x="817" unicode="%" d="M600 53q38 0 67 32.5t37 82.5q3 15 3 30q0 38 -18.5 60t-52.5 22q-35 0 -64.5 -31.5t-38.5 -83.5q-2 -10 -2 -28q0 -37 17.5 -60.5t51.5 -23.5zM588 -9q-62 0 -93.5 37.5t-31.5 97.5q0 20 3 39q14 80 66.5 129t114.5 49q61 0 93 -37.5t32 -98.5q0 -19 -3 -40 q-11 -70 -60.5 -123t-120.5 -53zM156 -8l448 599h69l-448 -599h-69zM204 304q38 0 67 32.5t37 82.5q3 15 3 30q0 38 -18.5 60t-52.5 22q-35 0 -65 -31.5t-38 -83.5q-3 -15 -3 -29q0 -37 18 -60t52 -23zM192 242q-62 0 -93.5 37.5t-31.5 97.5q0 19 3 39q13 80 65.5 129 t114.5 49q61 0 93.5 -38t32.5 -99q0 -19 -3 -39q-11 -70 -60.5 -123t-120.5 -53z"/>
<glyph glyph-name="ampersand" horiz-adv-x="605" unicode="&amp;" d="M258 349q109 52 109 113q0 28 -17 48t-48 20q-35 0 -57.5 -25t-22.5 -65q0 -46 36 -91zM212 273q-45 -25 -68.5 -50.5t-23.5 -65.5q0 -42 29.5 -69t79.5 -27q63 0 119 45q-106 127 -136 167zM36 140q0 63 37 102t109 77q-37 56 -35 109q0 70 46 117.5t120 47.5 q59 0 94 -36t35 -86q0 -60 -39.5 -96.5t-112.5 -70.5q34 -46 120 -145q46 53 89 168h78q-45 -133 -127 -216q19 -24 94 -111h-105q-14 14 -52 56q-77 -66 -181 -66q-80 1 -125 45t-45 105z"/>
<glyph glyph-name="quotesingle" horiz-adv-x="240" unicode="&apos;" d="M115 375l50 230l87 11l-67 -230z"/>
<glyph glyph-name="parenleft" horiz-adv-x="353" unicode="(" d="M127 -123q-26 45 -45 124t-19 161v10q3 146 63 267t171 205h92q-121 -102 -180.5 -204.5t-65.5 -246.5v-25q0 -164 69 -291h-85z"/>
<glyph glyph-name="parenright" horiz-adv-x="354" unicode=")" d="M246 644q63 -111 63 -277v-16q-8 -294 -234 -475h-92q117 103 178.5 209.5t67.5 250.5v23q0 156 -69 285h86z"/>
<glyph glyph-name="asterisk" horiz-adv-x="351" unicode="*" d="M105 276l-38 51l114 80l-109 54l38 61l94 -78l24 133l70 -16l-47 -127l123 23l4 -65l-126 -1l71 -117l-60 -33l-54 131z"/>
<glyph glyph-name="plus" horiz-adv-x="596" unicode="+" d="M274 532h61v-236h220v-58h-220v-238h-61v238h-219v58h219v236z"/>
<glyph glyph-name="comma" horiz-adv-x="211" unicode="," d="M21 -117l-64 -6q66 128 98 239l99 10q-26 -61 -66 -133t-67 -110z"/>
<glyph glyph-name="hyphen" horiz-adv-x="322" unicode="-" d="M60 317h247l-18 -80h-247z"/>
<glyph glyph-name="period" horiz-adv-x="211" unicode="." d="M76 -11q-25 0 -40 17t-15 42q0 28 17.5 48t44.5 20q25 0 41 -17.5t16 -43.5q0 -27 -18.5 -46.5t-45.5 -19.5z"/>
<glyph glyph-name="slash" horiz-adv-x="327" unicode="/" d="M13 -40h-67l402 725h68z"/>
<glyph glyph-name="zero" d="M40 189q0 69 18 138.5t51 130t88 98.5t122 38q79 0 120.5 -54.5t41.5 -143.5q0 -70 -17.5 -139.5t-50.5 -130t-88.5 -98.5t-124.5 -38q-78 0 -119 55t-41 144zM307 523q-46 0 -83 -33.5t-58 -85.5t-32 -108t-11 -108q0 -127 94 -127q46 0 82.5 35.5t57 89.5t31 108 t10.5 99q0 130 -91 130z" unicode="0"/>
<glyph glyph-name="one" d="M267 71h120l-16 -71h-334l15 71h135l94 430q-45 -21 -122 -46l5 66q95 31 160 68h56z" unicode="1"/>
<glyph glyph-name="two" d="M-1 0l11 49l69 46q60 41 101.5 72.5t88.5 75.5t71.5 89.5t24.5 90.5q-1 46 -27 70.5t-73 24.5q-73 0 -146 -54l-22 64q85 66 187 66q83 0 124 -46.5t41 -113.5q0 -34 -11.5 -67.5t-26 -60.5t-43.5 -58t-49.5 -50.5t-59.5 -49t-56.5 -42t-57.5 -39.5q84 4 146 4h124 l-15 -71h-401z" unicode="2"/>
<glyph glyph-name="three" d="M8 52l34 71q62 -59 160 -59q60 0 101 27.5t42 83.5q0 41 -32 67t-97 26h-52l17 73h48q57 1 100 25.5t43 76.5q0 33 -23 55.5t-74 22.5q-73 0 -143 -45l-16 67q80 51 175 51q79 0 121.5 -41.5t42.5 -97.5t-34 -93.5t-91 -54.5v-1q40 -13 69 -46.5t28 -82.5q0 -86 -66 -136 t-165 -50h-3q-122 1 -185 61z" unicode="3"/>
<glyph glyph-name="four" d="M128 228h185l21 98q24 114 42 175h-2q-24 -26 -129.5 -143t-116.5 -130zM26 158l12 54q298 329 347 377h79l-77 -361h85l-16 -70h-84l-33 -158h-74l33 158h-272z" unicode="4"/>
<glyph glyph-name="five" d="M13 46l32 70q64 -54 156 -54q66 0 110.5 32.5t45.5 97.5q0 47 -38.5 80.5t-123.5 33.5q-54 0 -106 -11l95 289h294l-20 -73h-229l-46 -140q27 4 51 4q98 0 153 -49t55 -123q0 -95 -70 -153.5t-181 -58.5q-116 0 -178 55z" unicode="5"/>
<glyph glyph-name="six" d="M47 199q0 163 113 278.5t284 115.5q19 0 29 -3l-12 -72q-18 2 -29 2q-100 0 -177 -53.5t-110 -149.5q66 68 161 68q74 0 115.5 -47.5t41.5 -118.5q0 -97 -65 -163t-166 -66q-85 0 -135.5 57.5t-49.5 151.5zM130 238q-4 -26 -4 -44q2 -61 33.5 -97t84.5 -36h2 q60 1 97.5 42t37.5 104q0 46 -26 77.5t-78 31.5q-43 0 -83 -21.5t-64 -56.5z" unicode="6"/>
<glyph glyph-name="seven" d="M46 0q76 107 209 302t143 209h-304l16 73h396l-12 -56q-25 -37 -101.5 -152t-143.5 -214.5t-111 -161.5h-92z" unicode="7"/>
<glyph glyph-name="eight" d="M34 139q0 60 41.5 99.5t117.5 68.5q-80 46 -80 128q0 66 54.5 112.5t141.5 46.5q80 0 124.5 -42.5t44.5 -99.5q0 -99 -135 -150q103 -54 103 -145q0 -69 -60 -118t-161 -49q-89 0 -139.5 44.5t-51.5 104.5zM252 272q-67 -21 -100.5 -50t-33.5 -72q1 -38 33 -65t85 -27 q55 0 91.5 25t36.5 68q0 38 -26.5 66.5t-85.5 54.5zM289 335q111 36 111 107q0 35 -26.5 59.5t-73.5 24.5t-78.5 -24t-31.5 -63q0 -33 26.5 -60t72.5 -44z" unicode="8"/>
<glyph glyph-name="nine" d="M51 -8l8 72q12 -2 30 -2q102 0 179 54.5t110 143.5q-64 -63 -153 -63q-73 0 -116 46.5t-43 122.5q0 95 66 161.5t164 66.5q84 0 133 -57.5t49 -151.5q-2 -169 -112.5 -282t-282.5 -113q-20 0 -32 2zM254 267q82 0 138 71q5 24 5 53q0 62 -29 97.5t-84 35.5 q-60 0 -98.5 -44.5t-38.5 -103.5q0 -45 26 -77t81 -32z" unicode="9"/>
<glyph glyph-name="colon" horiz-adv-x="283" unicode=":" d="M112 -11q-24 0 -39.5 16.5t-15.5 41.5q0 28 18 47.5t45 19.5q25 0 40.5 -17t15.5 -43q0 -27 -18.5 -46t-45.5 -19zM179 342q-24 0 -39.5 17t-15.5 41q0 28 18 47.5t45 19.5q25 0 40.5 -16.5t15.5 -42.5q0 -28 -18 -47t-46 -19z"/>
<glyph glyph-name="semicolon" horiz-adv-x="283" unicode=";" d="M184 342q-24 0 -39.5 17t-15.5 41q0 28 18 47.5t45 19.5q25 0 40.5 -16.5t15.5 -42.5q0 -28 -18 -47t-46 -19zM56 -117l-63 -6q66 128 98 239l99 10q-27 -63 -67 -135t-67 -108z"/>
<glyph glyph-name="less" horiz-adv-x="596" unicode="&lt;" d="M79 239v54l448 239v-68l-375 -197v-2l375 -197v-68z"/>
<glyph glyph-name="equal" horiz-adv-x="596" unicode="=" d="M556 339h-500v59h500v-59zM556 141h-500v58h500v-58z"/>
<glyph glyph-name="greater" horiz-adv-x="596" unicode="&gt;" d="M541 294v-56l-449 -238v68l379 197v2l-379 197v68z"/>
<glyph glyph-name="question" horiz-adv-x="438" unicode="?" d="M158 113q23 -1 37 -16t14 -38q0 -28 -18.5 -48.5t-50.5 -20.5q-23 0 -37 14.5t-14 37.5q0 30 19 50t50 21zM140 182q-7 15 -7 37q0 30 18 55t44 42t52 32.5t44 35.5t18 43t-21 37t-59 14q-58 0 -127 -32l-2 75q74 40 153 40q69 0 106 -33t37 -85q0 -39 -19 -69.5 t-46 -49.5t-53.5 -35.5t-45.5 -35.5t-19 -40q0 -20 5 -31h-78z"/>
<glyph glyph-name="at" horiz-adv-x="809" unicode="@" d="M470 585q130 0 212 -76.5t82 -201.5q0 -72 -24.5 -138.5t-76 -113t-118.5 -46.5q-37 0 -58.5 19t-21.5 54v10q-62 -83 -149 -83q-44 0 -72.5 33t-28.5 91q0 107 77 188t189 81q72 0 116 -24l-59 -211q-8 -30 -8 -46q0 -34 33 -36q63 1 97.5 68t34.5 142q0 97 -65.5 155.5 t-176.5 58.5q-148 0 -241 -105t-93 -257q0 -113 67.5 -179.5t168.5 -66.5q92 0 158 33l14 -70q-77 -42 -190 -42q-123 0 -206 87t-83 227q0 90 29 171t82 143t133.5 98.5t177.5 36.5zM454 329q-70 0 -118.5 -52.5t-48.5 -127.5q0 -29 14.5 -46.5t42.5 -17.5q45 0 87 41.5 t58 100.5l26 92q-22 10 -61 10z"/>
<glyph glyph-name="A" horiz-adv-x="568" unicode="A" d="M198 279h196l-26 195q-1 14 -5.5 58t-6.5 66h-2q-3 -6 -23 -52.5t-32 -70.5zM400 213h-232l-107 -213h-88l349 674h97l94 -674h-85z"/>
<glyph glyph-name="B" horiz-adv-x="518" unicode="B" d="M174 325l-48 -258q33 -5 68 -5q81 0 135.5 36.5t54.5 112.5q0 56 -40.5 85t-101.5 29h-68zM229 607l-42 -219h62q74 0 122.5 36t48.5 96q0 93 -123 93q-42 0 -68 -6zM32 5l125 660q67 13 145 13q103 0 155 -46q48 -39 48 -105q0 -61 -42 -106.5t-103 -61.5v-3 q49 -14 80 -52.5t31 -96.5q0 -95 -81 -156q-74 -56 -218 -56q-87 0 -140 10z"/>
<glyph glyph-name="C" horiz-adv-x="555" unicode="C" d="M486 89l11 -67q-74 -33 -175 -33q-127 0 -200.5 75.5t-73.5 204.5q0 96 37.5 182t106.5 143q107 90 255 90q51 0 90.5 -10t54.5 -22l-26 -67q-47 28 -133 28q-112 0 -193 -76q-48 -45 -75.5 -112.5t-27.5 -143.5q0 -99 49.5 -159.5t155.5 -60.5q86 0 144 28z"/>
<glyph glyph-name="D" horiz-adv-x="647" unicode="D" d="M230 604l-103 -535q39 -5 87 -5q156 0 241 90q93 95 93 249q0 96 -54 152t-173 56q-59 0 -91 -7zM33 5l125 660q74 13 167 13q170 0 248 -89q63 -67 63 -183q0 -93 -35.5 -177.5t-99.5 -139.5q-113 -94 -305 -94q-91 0 -163 10z"/>
<glyph glyph-name="E" horiz-adv-x="470" unicode="E" d="M432 387l-13 -70h-245l-47 -246h276l-13 -71h-359l128 674h344l-14 -71h-260l-42 -216h245z"/>
<glyph glyph-name="F" horiz-adv-x="465" unicode="F" d="M31 0l128 674h342l-13 -71h-259l-44 -227h239l-14 -71h-239l-57 -305h-83z"/>
<glyph glyph-name="G" horiz-adv-x="623" unicode="G" d="M588 352l-61 -323q-90 -36 -190 -36q-145 0 -220 84q-68 75 -68 197q0 86 34 168t97 139q116 100 278 100q105 0 159 -31l-28 -70q-58 29 -141 29q-121 0 -209 -82q-47 -43 -74 -110.5t-27 -136.5q0 -101 53 -158.5t162 -57.5q61 0 102 19l39 201h-137l13 68h218z"/>
<glyph glyph-name="H" horiz-adv-x="627" unicode="H" d="M159 674h83l-54 -285h310l55 285h82l-128 -674h-83l60 316h-310l-60 -316h-83z"/>
<glyph glyph-name="I" horiz-adv-x="233" unicode="I" d="M158 674h83l-128 -674h-83z"/>
<glyph glyph-name="J" horiz-adv-x="364" unicode="J" d="M209 219l87 455h83l-88 -464q-22 -118 -74.5 -169.5t-147.5 -51.5q-64 0 -100 17l18 71q34 -14 85 -14q56 0 89 35t48 121z"/>
<glyph glyph-name="K" horiz-adv-x="515" unicode="K" d="M31 0l128 674h82l-62 -328h5q1 1 66 76l237 252h104l-284 -290l173 -384h-90l-147 331l-81 -75l-49 -256h-82z"/>
<glyph glyph-name="L" horiz-adv-x="442" unicode="L" d="M31 0l128 674h83l-114 -602h271l-14 -72h-354z"/>
<glyph glyph-name="M" horiz-adv-x="780" unicode="M" d="M676 0h-80l48 364q19 138 36 228h-3q-53 -120 -105 -217l-201 -371h-63l-50 363q-13 102 -22 225h-2q-2 -11 -22 -101t-29 -128l-92 -363h-77l174 674h106l53 -387q15 -142 16 -169h4q29 72 78 167l208 389h109z"/>
<glyph glyph-name="N" horiz-adv-x="632" unicode="N" d="M109 0h-78l128 674h91l154 -381q32 -83 60 -188h2q6 88 28 211l68 358h78l-128 -674h-81l-154 381q-43 108 -63 195l-3 -2q-9 -82 -35 -222z"/>
<glyph glyph-name="O" horiz-adv-x="668" unicode="O" d="M392 615q-85 0 -155 -68q-47 -47 -74.5 -125.5t-27.5 -151.5q0 -91 44 -151t137 -60q87 0 154 67q46 46 73 125.5t27 153.5q0 40 -7.5 74t-26 66.5t-55.5 51t-89 18.5zM403 685q66 0 116 -22.5t79.5 -61.5t44 -87.5t14.5 -104.5q0 -90 -32 -179t-90 -147 q-96 -94 -231 -94q-124 0 -190 79t-66 195q0 91 34 181.5t94 148.5q94 92 227 92z"/>
<glyph glyph-name="P" horiz-adv-x="507" unicode="P" d="M228 604l-51 -264q32 -7 63 -7q94 0 144 48t50 118q0 112 -139 112q-41 0 -67 -7zM31 0l127 664q59 14 143 14q114 0 169 -52q48 -46 48 -121q0 -53 -23 -99.5t-59 -77.5q-76 -63 -208 -63q-38 0 -64 5l-51 -270h-82z"/>
<glyph glyph-name="Q" horiz-adv-x="668" unicode="Q" d="M392 615q-89 0 -153 -66q-48 -48 -76 -127.5t-28 -153.5q0 -90 42.5 -150t134.5 -60q88 0 156 66q47 47 74.5 128t27.5 155q0 37 -7.5 70t-25.5 66t-55 52.5t-90 19.5zM589 -25l-32 -69q-165 39 -234 70q-39 14 -46 14q-99 5 -164 78.5t-65 195.5q0 88 33 177t91 148 q45 45 106 70.5t125 25.5q66 0 116.5 -23t79.5 -63t43.5 -88t14.5 -102q0 -86 -31.5 -174.5t-87.5 -144.5q-57 -59 -128 -78v-3q141 -29 179 -34z"/>
<glyph glyph-name="R" horiz-adv-x="522" unicode="R" d="M229 605l-47 -247h74q77 0 125 43.5t48 105.5q0 52 -35.5 78.5t-94.5 26.5q-44 0 -70 -7zM31 0l127 664q64 14 147 14q106 0 161 -49q49 -41 49 -111t-46.5 -123t-113.5 -71v-3q65 -22 75 -136q12 -157 21 -185h-86q-7 25 -16 163q-4 69 -29.5 100t-76.5 31h-74l-55 -294 h-83z"/>
<glyph glyph-name="S" horiz-adv-x="465" unicode="S" d="M12 36l29 68q64 -43 144 -43q60 0 103 34t43 93q0 71 -99 126q-134 73 -134 172q0 89 65.5 143.5t161.5 54.5q88 0 138 -35l-29 -67q-56 32 -117 32q-60 0 -96.5 -33.5t-36.5 -77.5q0 -39 24.5 -66.5t79.5 -58.5q65 -35 97 -78t32 -102q0 -90 -66 -149.5t-177 -59.5 q-49 1 -94.5 14.5t-67.5 32.5z"/>
<glyph glyph-name="T" horiz-adv-x="474" unicode="T" d="M148 0l114 602h-197l15 72h476l-14 -72h-197l-114 -602h-83z"/>
<glyph glyph-name="U" horiz-adv-x="620" unicode="U" d="M158 674h83l-76 -400q-8 -36 -8 -84q0 -63 33.5 -96.5t91.5 -33.5q148 0 189 213l76 401h83l-77 -403q-55 -282 -282 -282q-88 0 -142.5 49.5t-54.5 149.5q0 40 10 93z"/>
<glyph glyph-name="V" horiz-adv-x="539" unicode="V" d="M258 0h-92l-83 674h85l49 -432q12 -102 13 -152h2q34 85 74 162l215 422h92z"/>
<glyph glyph-name="W" horiz-adv-x="829" unicode="W" d="M219 0h-89l-33 674h84l14 -404q1 -37 1 -91q0 -60 -1 -84h3q24 70 69 170l186 409h89l14 -388q3 -82 3 -135q0 -11 -0.5 -29.5t-0.5 -25.5h2q31 94 65 173l182 405h87l-313 -674h-88l-17 383q-2 62 -2 79q0 21 4 115h-2q-55 -146 -69 -177z"/>
<glyph glyph-name="X" horiz-adv-x="521" unicode="X" d="M466 0h-88l-64 167q-28 69 -43 118h-3q-48 -73 -79 -116l-120 -169h-99l263 343l-126 331h87l64 -173q22 -59 34 -103h3q41 66 68 103l129 173h99l-261 -330z"/>
<glyph glyph-name="Y" horiz-adv-x="517" unicode="Y" d="M243 0h-82l53 280l-130 394h88l66 -218q20 -69 28 -113h2q19 33 72 116l146 215h97l-287 -394z"/>
<glyph glyph-name="Z" horiz-adv-x="523" unicode="Z" d="M-19 0l9 51l457 548v4h-321l14 71h432l-10 -54l-454 -545v-4h354l-13 -71h-468z"/>
<glyph glyph-name="bracketleft" horiz-adv-x="354" unicode="[" d="M4 -123l175 767h211l-16 -72h-136l-142 -623h137l-17 -72h-212z"/>
<glyph glyph-name="backslash" horiz-adv-x="329" unicode="\" d="M310 -40h-66l-183 725h64z"/>
<glyph glyph-name="bracketright" horiz-adv-x="354" unicode="]" d="M-2 -52h136l143 622h-138l18 74h212l-176 -767h-211z"/>
<glyph glyph-name="asciicircum" horiz-adv-x="596" unicode="^" d="M534 189h-68l-163 388h-3l-163 -388h-68l203 461l60 -1z"/>
<glyph glyph-name="underscore" d="M-59 -75h500l-10 -50h-500z" unicode="_"/>
<glyph glyph-name="grave" horiz-adv-x="383" unicode="`" d="M144 686h94l66 -143h-59z"/>
<glyph glyph-name="a" horiz-adv-x="522" unicode="a" d="M374 276l29 146q-21 7 -58 7q-92 0 -160 -81.5t-68 -184.5q0 -106 83 -106q54 0 105 62.5t69 156.5zM426 0h-77v7q0 34 11 118h-3q-71 -136 -186 -136q-64 0 -102 44t-38 115q0 87 38.5 164.5t117 129.5t179.5 52q76 0 130 -18l-49 -252q-21 -113 -21 -205v-19z"/>
<glyph glyph-name="b" horiz-adv-x="525" unicode="b" d="M148 238l-12 -51q-5 -37 -5 -53v-8q0 -72 78 -72q87 0 144 83t57 173q0 50 -22.5 83t-69.5 33q-55 0 -104 -52t-66 -136zM158 710h83l-64 -314h2q66 98 170 98q75 0 111 -50.5t36 -122.5q0 -78 -33.5 -152t-104.5 -127t-163 -53q-68 0 -108.5 30.5t-40.5 94.5q0 29 8 75z "/>
<glyph glyph-name="c" horiz-adv-x="423" unicode="c" d="M353 85l8 -66q-63 -30 -140 -30q-90 0 -138 53t-48 134q0 128 84.5 223t211.5 95q62 0 101 -21l-24 -67q-36 19 -82 19q-90 0 -147.5 -73.5t-57.5 -164.5q0 -60 31 -94.5t89 -34.5q56 0 112 27z"/>
<glyph glyph-name="d" horiz-adv-x="525" unicode="d" d="M371 238l33 170q-32 21 -80 21q-85 0 -145.5 -77t-60.5 -176q0 -51 21 -85t70 -34q50 0 98.5 51.5t63.5 129.5zM460 710h82l-105 -557q-17 -82 -21 -153h-76l13 96h-2q-68 -107 -174 -107q-68 0 -106.5 49.5t-38.5 126.5q0 132 87 230.5t213 98.5q51 0 85 -16z"/>
<glyph glyph-name="e" horiz-adv-x="452" unicode="e" d="M359 368q0 29 -20 45.5t-54 16.5q-56 0 -99 -45.5t-59 -107.5h10q105 0 163.5 20t58.5 71zM365 89l12 -62q-70 -38 -160 -38q-91 0 -137.5 54.5t-46.5 140.5q0 116 76.5 213t187.5 97q67 0 104.5 -34.5t37.5 -88.5q0 -158 -301 -158h-21q-2 -12 -2 -22q0 -42 12 -69 q28 -66 108 -66q68 0 130 33z"/>
<glyph glyph-name="f" horiz-adv-x="283" unicode="f" d="M122 0h-82l79 418h-64l12 65h65l5 26q19 116 79 169q46 43 114 43q45 0 67 -13l-18 -66q-19 9 -49 9q-87 0 -112 -144l-4 -24h108l-13 -65h-108z"/>
<glyph glyph-name="g" horiz-adv-x="524" unicode="g" d="M373 251l32 160q-34 17 -81 17q-87 0 -146 -76.5t-59 -170.5q0 -48 21 -81.5t72 -33.5q52 0 99.5 56t61.5 129zM10 -175l23 65q47 -32 128 -32q66 0 109.5 39.5t64.5 133.5l16 72h-3q-63 -103 -168 -103q-69 0 -108 49t-40 118q0 130 86.5 228.5t221.5 98.5q87 0 155 -34 l-74 -399q-31 -160 -98 -216q-62 -54 -169 -54q-97 0 -144 34z"/>
<glyph glyph-name="h" horiz-adv-x="534" unicode="h" d="M111 0h-83l135 710h83l-60 -311l2 -1q67 96 173 96q48 0 84 -31.5t36 -97.5q0 -32 -8 -82l-54 -283h-82l52 279q7 31 7 67q0 79 -75 79q-50 0 -100 -52t-65 -131z"/>
<glyph glyph-name="i" horiz-adv-x="228" unicode="i" d="M184 567q-22 0 -35.5 14.5t-12.5 37.5q0 23 16 39.5t38 16.5t36 -14.5t14 -37.5q-1 -25 -17 -40.5t-39 -15.5zM111 0h-83l93 483h83z"/>
<glyph glyph-name="j" horiz-adv-x="227" unicode="j" d="M184 567q-22 0 -35 14.5t-12 37.5q0 23 16 39.5t38 16.5t35.5 -14.5t13.5 -37.5q0 -25 -16 -40.5t-40 -15.5zM125 483h83l-92 -481q-22 -120 -61 -164q-41 -47 -112 -47q-35 0 -54 6l10 65q16 -4 38 -4q34 0 57.5 27.5t36.5 98.5z"/>
<glyph glyph-name="k" horiz-adv-x="456" unicode="k" d="M111 0h-83l135 710h82l-84 -445h2q8 9 24 26t21 23l171 169h102l-211 -198l144 -285h-90l-117 239l-61 -55z"/>
<glyph glyph-name="l" horiz-adv-x="228" unicode="l" d="M111 0h-83l136 710h83z"/>
<glyph glyph-name="m" horiz-adv-x="807" unicode="m" d="M109 0h-81l65 343q13 67 22 140h73l-13 -90h3q68 101 170 101q53 0 81.5 -29.5t31.5 -77.5q66 105 178 107q48 0 82.5 -31.5t34.5 -94.5q0 -39 -8 -82l-54 -286h-81l52 278q7 35 7 64q0 84 -73 84q-47 0 -92.5 -50t-59.5 -128l-46 -248h-80l53 284q7 38 7 59q0 83 -72 83 q-46 0 -93.5 -54t-61.5 -129z"/>
<glyph glyph-name="n" horiz-adv-x="534" unicode="n" d="M111 0h-83l65 343q6 27 23 140h75l-13 -95h2q66 106 180 106q50 0 85.5 -32t35.5 -102q0 -26 -8 -78l-54 -282h-82l53 280q6 36 6 61q0 84 -76 84q-48 0 -99 -52.5t-66 -137.5z"/>
<glyph glyph-name="o" horiz-adv-x="522" unicode="o" d="M294 429q-74 0 -123.5 -74t-49.5 -162q0 -61 30.5 -100t83.5 -39q71 0 121.5 75.5t50.5 164.5q0 52 -27 93.5t-86 41.5zM303 494q92 0 140.5 -58.5t48.5 -142.5q0 -118 -75.5 -211t-193.5 -93q-88 0 -138 56.5t-50 141.5q0 124 76.5 215.5t191.5 91.5z"/>
<glyph glyph-name="p" horiz-adv-x="525" unicode="p" d="M145 216l-24 -135q33 -27 92 -27q78 0 137 81.5t59 178.5q0 45 -22 78.5t-70 33.5q-53 0 -103.5 -56.5t-68.5 -153.5zM67 -198h-82l97 510q9 49 27 173h76l-14 -92h2q71 101 174 101q74 0 111.5 -50.5t37.5 -123.5q0 -131 -82.5 -231t-200.5 -100q-65 0 -105 21h-2z"/>
<glyph glyph-name="q" horiz-adv-x="525" unicode="q" d="M372 244l31 167q-28 17 -80 17q-82 0 -143.5 -76.5t-61.5 -177.5q0 -56 22.5 -86.5t61.5 -30.5q58 0 106.5 55.5t63.5 131.5zM370 -198h-82l57 286h-2q-29 -47 -74.5 -73t-92.5 -26q-64 0 -104 46.5t-40 129.5q0 82 37 156.5t109 123.5t162 49q87 0 155 -31z"/>
<glyph glyph-name="r" horiz-adv-x="319" unicode="r" d="M111 0h-83l59 311q14 74 25 172h73q-10 -79 -13 -105h2q25 53 63.5 84.5t85.5 31.5q17 0 24 -1l-17 -82q-12 2 -23 2q-53 0 -96.5 -57t-59.5 -142z"/>
<glyph glyph-name="s" horiz-adv-x="372" unicode="s" d="M8 22l24 62q49 -30 104 -30q42 0 67 23t25 56q0 28 -15 48t-52 41q-87 48 -87 124q0 63 49.5 105.5t125.5 42.5q67 0 101 -23l-24 -63q-35 22 -83 22q-38 0 -62.5 -21t-24.5 -51q0 -45 67 -82q91 -52 91 -127q0 -74 -53 -117t-132 -43q-78 2 -121 33z"/>
<glyph glyph-name="t" horiz-adv-x="313" unicode="t" d="M159 593l86 21l-25 -131h115l-13 -64h-115l-45 -235q-9 -49 -9 -78q0 -46 45 -46q29 0 40 3l-5 -65q-21 -9 -64 -9q-51 0 -76 27t-25 67q0 41 10 91l48 245h-69l12 64h69z"/>
<glyph glyph-name="u" horiz-adv-x="526" unicode="u" d="M417 483h83l-65 -343q-12 -57 -22 -140h-74l12 91h-2q-32 -48 -77.5 -75t-93.5 -27q-54 0 -90.5 32t-36.5 108q0 40 9 81l52 273h83l-51 -269q-8 -43 -8 -71q0 -84 76 -84q48 0 96 50t62 127z"/>
<glyph glyph-name="v" horiz-adv-x="454" unicode="v" d="M51 483h85l42 -275q3 -28 8.5 -67t6.5 -52h3q16 42 51 113l148 281h91l-270 -483h-81z"/>
<glyph glyph-name="w" horiz-adv-x="707" unicode="w" d="M61 483h82l17 -272q3 -55 3 -88q0 -7 -0.5 -20.5t-0.5 -21.5h2q21 56 54 122l144 280h72l30 -275q8 -86 8 -108q0 -3 -0.5 -9.5t-0.5 -9.5h3q18 55 46 123l130 279h85l-239 -483h-77l-32 263q-7 79 -7 128h-2q-46 -106 -56 -125l-139 -266h-77z"/>
<glyph glyph-name="x" horiz-adv-x="440" unicode="x" d="M63 483h90l47 -105q4 -9 15 -36.5t17 -40.5h3q35 50 53 73l89 109h96l-204 -235l114 -248h-90l-48 109q-17 37 -36 86h-2q-35 -54 -50 -73l-98 -122h-96l212 249z"/>
<glyph glyph-name="y" horiz-adv-x="441" unicode="y" d="M47 483h87l48 -260q18 -102 22 -127h2q45 104 52 119l123 268h88l-181 -367q-88 -177 -167 -255q-67 -67 -141 -83l-20 71q51 17 89 47q58 45 93 111q5 9 3 22z"/>
<glyph glyph-name="z" horiz-adv-x="415" unicode="z" d="M-22 0l10 51l235 261q32 35 100 101l1 2h-248l13 68h348l-11 -54l-232 -258q-53 -59 -100 -100v-4h268l-14 -67h-370z"/>
<glyph glyph-name="braceleft" horiz-adv-x="414" unicode="{" d="M124 48l20 85q6 23 6 41q0 30 -21 43.5t-73 13.5l17 72q63 0 92 23.5t41 75.5q4 16 10 44.5t9 39.5q16 72 64.5 118.5t157.5 47.5l-12 -71q-67 -2 -96 -30t-41 -78q-4 -15 -9 -38t-8 -36q-22 -110 -121 -130l-1 -2q67 -18 67 -85q0 -23 -6 -47l-19 -84q-5 -18 -5 -38 q0 -34 23.5 -51.5t71.5 -24.5l-21 -72q-152 14 -152 131q0 23 6 52z"/>
<glyph glyph-name="bar" horiz-adv-x="216" unicode="|" d="M95 750h62v-1000h-62v1000z"/>
<glyph glyph-name="braceright" horiz-adv-x="413" unicode="}" d="M-2 -63q116 9 138 116q4 16 10.5 45.5t8.5 36.5q24 107 122 130l1 2q-69 13 -69 82q0 19 5 44l18 73q5 23 5 38q0 67 -95 76l21 72q154 -3 154 -116q0 -27 -7 -55l-19 -81q-5 -23 -5 -38q0 -30 21 -44.5t73 -14.5l-17 -72q-62 0 -91.5 -23.5t-41.5 -75.5 q-4 -15 -11.5 -51t-10.5 -49q-15 -65 -68.5 -114t-154.5 -52z"/>
<glyph glyph-name="asciitilde" horiz-adv-x="596" unicode="~" d="M123 212h-60v8q0 67 33.5 103t84.5 36t134 -42q84 -43 123 -43q54 0 54 83h60v-13q0 -71 -32.5 -103t-82.5 -32q-55 0 -140 44q-82 41 -117 41q-25 0 -40.5 -22t-16.5 -60z"/>
<glyph glyph-name="uni00A0" horiz-adv-x="182" unicode=" "/>
<glyph glyph-name="exclamdown" horiz-adv-x="307" unicode="¡" d="M233 417q-23 0 -37.5 15.5t-14.5 37.5q0 29 18.5 49.5t50.5 20.5q23 0 37 -14.5t14 -37.5q0 -30 -18.5 -50t-49.5 -21zM243 341q-20 -143 -51 -278l-20 -85h-93l18 81q24 102 78 282h68z"/>
<glyph glyph-name="cent" d="M499 490l-34 -75q-42 28 -109 28q-80 0 -135.5 -48.5t-55.5 -129.5q0 -58 35.5 -94t95.5 -36t119 24l4 -73q-46 -26 -120 -29l-22 -98h-66l22 100q-71 13 -111 63t-40 125q0 108 71 184t185 87l23 97h66l-22 -97q57 -3 94 -28z" unicode="¢"/>
<glyph glyph-name="sterling" d="M433 0h-414l12 47q112 50 132 164q6 30 7 52h-96l17 63h83q1 9 3.5 33t4.5 41q15 93 65.5 142.5t132.5 49.5q73 0 106 -27l-27 -69q-32 24 -86 24q-53 0 -76.5 -30.5t-32.5 -89.5q-4 -20 -8 -74h151l-17 -63h-140q-13 -137 -97 -193h297z" unicode="£"/>
<glyph glyph-name="currency" horiz-adv-x="493" unicode="¤" d="M256 405q-53 0 -85 -40t-32 -100q0 -61 33 -93.5t74 -32.5q47 0 83 35t36 105q0 52 -29 89t-80 37zM261 469q68 0 109 -39l72 72l41 -44l-78 -67q30 -46 30 -109q0 -75 -38 -126l69 -70l-43 -43l-64 74q-45 -41 -114 -41q-70 0 -110 38l-67 -71l-39 43l71 68 q-32 45 -32 110q0 71 43 127l-71 66l44 45l64 -73q45 40 113 40z"/>
<glyph glyph-name="yen" d="M53 156l12 51h129l16 69h-129l12 52h109l-104 251h94l50 -144q17 -52 26 -88h1q4 6 68 91l110 140h102l-222 -250h111l-12 -52h-134l-16 -69h134l-12 -51h-134l-35 -156h-82l35 156h-129z" unicode="¥"/>
<glyph glyph-name="brokenbar" horiz-adv-x="216" unicode="¦" d="M95 484h62v-120v-230v-120h-62v120v230v120z"/>
<glyph glyph-name="section" horiz-adv-x="464" unicode="§" d="M34 -9q21 -19 58.5 -35.5t75.5 -16.5q42 0 70 17.5t29 56.5q0 26 -21.5 47.5t-74.5 47.5q-64 29 -93.5 60.5t-29.5 76.5q0 43 27.5 77.5t72.5 56.5q-20 24 -20 64q0 69 53.5 109.5t131.5 40.5q91 0 140 -41l-34 -63q-54 39 -121 39q-38 0 -67 -17t-29 -53 q0 -18 14.5 -33.5t30 -24.5t52.5 -28q60 -29 89 -59t29 -77q0 -88 -90 -142q19 -26 19 -63q0 -75 -55.5 -117t-135.5 -42q-49 0 -91.5 16t-66.5 38zM207 179q61 -31 85 -50q52 32 52 83q0 30 -19.5 50t-70.5 45q-48 24 -72 41q-61 -29 -61 -79q-1 -26 17 -45t69 -45z"/>
<glyph glyph-name="dieresis" horiz-adv-x="383" unicode="¨" d="M354 570q-20 0 -33 14t-13 35q0 22 15 37.5t37 15.5q21 0 33.5 -14t12.5 -35q0 -22 -14.5 -37.5t-37.5 -15.5zM171 570q-20 0 -33.5 14t-13.5 35q0 22 15.5 37.5t37.5 15.5q21 0 34 -14t13 -35q0 -22 -15 -37.5t-38 -15.5z"/>
<glyph glyph-name="copyright" horiz-adv-x="729" unicode="©" d="M214 259q0 81 55 131t132 50q72 0 103 -24l-20 -53q-37 20 -86 20q-59 0 -92 -33t-33 -86q0 -50 31.5 -81.5t86.5 -31.5q50 0 89 21l14 -50q-45 -29 -113 -29q-77 0 -122 47t-45 119zM120 257q0 -107 69 -176t174 -69q112 0 185.5 72.5t73.5 191.5q0 107 -68.5 176.5 t-172.5 69.5q-114 0 -187.5 -72.5t-73.5 -192.5zM71 256q0 135 88.5 228t223.5 93q124 0 205.5 -85.5t81.5 -213.5q0 -134 -88.5 -227.5t-219.5 -93.5q-126 0 -208.5 83t-82.5 216z"/>
<glyph glyph-name="ordfeminine" horiz-adv-x="350" unicode="ª" d="M280 422l20 112q-15 7 -45 7q-53 0 -91.5 -45t-39.5 -109q0 -73 56 -73q32 0 62 32t38 76zM325 267h-59q0 33 4 64l-2 -1q-43 -69 -115 -69q-43 0 -68.5 31.5t-25.5 83.5q0 87 56.5 151t155.5 64q56 0 98 -16l-36 -207q-8 -51 -8 -101z"/>
<glyph glyph-name="guillemotleft" horiz-adv-x="645" unicode="«" d="M341 238l15 63l262 175l-20 -87l-183 -123l126 -125l-19 -81zM91 238l14 63l263 175l-20 -87l-183 -123l126 -125l-19 -81z"/>
<glyph glyph-name="logicalnot" horiz-adv-x="596" unicode="¬" d="M40 398h516v-278h-63v220h-453v58z"/>
<glyph glyph-name="uni00AD" horiz-adv-x="322" unicode="­" d="M10 317h247l-18 -80h-247z"/>
<glyph glyph-name="registered" horiz-adv-x="425" unicode="®" d="M234 254q55 0 92 39t37 95q0 54 -34 90.5t-87 36.5q-55 0 -93.5 -39t-38.5 -95q0 -54 35 -90.5t89 -36.5zM231 214q-67 0 -112.5 48t-45.5 118q0 72 50 123t120 51q67 0 112 -47.5t45 -116.5q0 -73 -49 -124.5t-120 -51.5zM211 392h19q39 0 39 24q0 23 -34 23 q-6 0 -13 -0.5t-9 -0.5zM169 299l6 164q38 5 64 5q38 0 57 -12q15 -12 15 -34q0 -30 -35 -40v-2q21 -8 27 -41q6 -31 11 -40h-41q-6 7 -11 40q-4 25 -33 25h-19l-2 -65h-39z"/>
<glyph glyph-name="macron" horiz-adv-x="383" unicode="¯" d="M162 644h220l-10 -58h-221z"/>
<glyph glyph-name="degree" horiz-adv-x="333" unicode="°" d="M215 504q-34 0 -56 -28t-22 -61q0 -34 20.5 -56t50.5 -22q34 0 57 25.5t23 62.5q0 31 -18 55t-55 24zM219 550q56 0 90 -36t34 -86q0 -59 -42.5 -98.5t-95.5 -39.5q-54 0 -88.5 35.5t-34.5 86.5q0 57 41 97.5t96 40.5z"/>
<glyph glyph-name="plusminus" horiz-adv-x="596" unicode="±" d="M40 60h516v-60h-516v60zM266 572h64v-194h226v-61h-226v-200h-64v200h-226v61h226v194z"/>
<glyph glyph-name="twosuperior" horiz-adv-x="322" unicode="²" d="M31 229l9 43q46 27 69.5 42t61.5 43.5t56 56.5t18 57q0 25 -15 41.5t-45 16.5q-40 0 -88 -30l-15 53q57 40 124 40q53 0 83 -31t30 -77q0 -105 -167 -199q51 3 155 5l-14 -61h-262z"/>
<glyph glyph-name="threesuperior" horiz-adv-x="331" unicode="³" d="M35 259l26 56q48 -35 106 -35q73 0 73 53q0 50 -82 50h-33l13 58h30q33 0 58.5 11t25.5 36q0 44 -60 44q-51 0 -88 -23l-14 51q50 30 119 30q55 0 85 -26.5t30 -63.5q0 -62 -74 -86q26 -8 44 -28t18 -51q0 -55 -44 -84t-108 -29q-77 0 -125 37z"/>
<glyph glyph-name="acute" horiz-adv-x="383" unicode="´" d="M300 686h100l-133 -143h-65z"/>
<glyph glyph-name="uni00B5" horiz-adv-x="525" unicode="µ" d="M195 483l-53 -286q-5 -28 -5 -47q0 -92 86 -92q35 0 68.5 30.5t55.5 71.5q16 33 21 61l50 262h83l-65 -343q-5 -30 -5 -44q0 -21 8 -30t25 -10l-18 -63q-20 -4 -26 -4q-65 0 -65 89v11h-2q-25 -42 -63 -70t-83 -28q-73 0 -98 58l-12 -65q-20 -120 -20 -169v-13h-75 q-2 14 -2 28q0 53 18 151l95 502h82z"/>
<glyph glyph-name="paragraph" horiz-adv-x="528" unicode="¶" d="M224 147q-60 12 -106 57t-46 123q0 118 87 183.5t229 65.5q82 0 125 -9l-160 -699h-62l146 636h-69l-146 -636h-61z"/>
<glyph glyph-name="periodcentered" horiz-adv-x="236" unicode="·" d="M142 348q23 0 37.5 -15.5t14.5 -37.5q0 -29 -19 -49.5t-51 -20.5q-22 0 -36.5 14.5t-14.5 37.5q0 30 19 50.5t50 20.5z"/>
<glyph glyph-name="cedilla" horiz-adv-x="383" unicode="¸" d="M133 2h53l-39 -53q24 -5 39 -22.5t15 -41.5q0 -40 -32.5 -63t-77.5 -23q-43 0 -65 17l18 43q25 -15 52 -15q18 0 31 10t13 27q0 31 -66 39z"/>
<glyph glyph-name="onesuperior" horiz-adv-x="236" unicode="¹" d="M87 228l66 286l-81 -35l-7 56l112 49h62l-82 -356h-70z"/>
<glyph glyph-name="ordmasculine" horiz-adv-x="345" unicode="º" d="M224 542q-44 0 -74.5 -44t-30.5 -103q0 -40 20 -62.5t53 -22.5q42 0 74.5 43t32.5 106q0 83 -75 83zM230 591q66 0 101.5 -38.5t35.5 -96.5q0 -83 -52 -139t-129 -56q-62 0 -98 39.5t-36 93.5q0 84 52.5 140.5t125.5 56.5z"/>
<glyph glyph-name="guillemotright" horiz-adv-x="645" unicode="»" d="M50 60l20 87l183 124l-126 125l19 80l181 -178l-15 -63zM301 60l19 87l183 124l-125 125l18 80l182 -178l-16 -63z"/>
<glyph glyph-name="onequarter" horiz-adv-x="756" unicode="¼" d="M463 146h110l11 50q16 71 25 100zM377 86l12 51l218 219h79l-48 -210h50l-14 -60h-50l-19 -86h-66l20 86h-182zM106 228l66 286l-81 -35l-7 56l112 49h62l-82 -356h-70zM79 -8l490 599h70l-490 -600z"/>
<glyph glyph-name="onehalf" horiz-adv-x="766" unicode="½" d="M66 -8l490 599h70l-490 -600zM94 228l66 286l-81 -35l-7 56l112 49h62l-82 -356h-70zM421 0l10 43q34 20 53.5 31.5t52.5 34.5t51 41.5t32.5 43t14.5 47.5q0 26 -15 42.5t-45 16.5q-38 0 -86 -29l-17 52q56 40 124 40q53 0 83 -31t30 -77q0 -107 -167 -199q72 4 155 4 l-14 -60h-262z"/>
<glyph glyph-name="threequarters" horiz-adv-x="816" unicode="¾" d="M537 146h110l11 50q16 71 25 100zM451 86l12 51l218 219h79l-48 -210h50l-14 -60h-50l-19 -86h-65l19 86h-182zM164 -8l490 599h70l-490 -599h-70zM45 259l26 56q48 -35 106 -35q73 0 73 53q0 50 -82 50h-33l14 58h29q33 0 58.5 11t25.5 36q0 44 -60 44q-51 0 -88 -23 l-13 51q48 30 118 30q55 0 85 -26.5t30 -63.5q0 -62 -74 -86q26 -8 44 -28t18 -51q0 -55 -44 -84t-108 -29q-77 0 -125 37z"/>
<glyph glyph-name="questiondown" horiz-adv-x="439" unicode="¿" d="M310 439q-23 0 -37.5 15.5t-14.5 37.5q0 29 19 49t51 20q22 0 36 -14.5t14 -37.5q0 -29 -18.5 -49.5t-49.5 -20.5zM327 369q8 -15 8 -37q0 -36 -27.5 -66t-61 -47t-61 -42t-27.5 -53q0 -22 21.5 -36.5t58.5 -14.5q60 0 128 33l1 -76q-74 -40 -152 -40q-69 0 -106 33 t-37 85q0 39 18.5 69.5t45.5 49.5t54 35.5t45.5 35.5t18.5 40q0 20 -5 31h78z"/>
<glyph glyph-name="Agrave" horiz-adv-x="568" unicode="À" d="M233 827h103l75 -116h-68zM198 279h196l-26 195q-1 14 -5.5 58t-6.5 66h-2q-3 -6 -23 -52.5t-32 -70.5zM400 213h-232l-107 -213h-88l349 674h97l94 -674h-85z"/>
<glyph glyph-name="Aacute" horiz-adv-x="568" unicode="Á" d="M423 827h109l-136 -117h-75zM198 279h196l-26 195q-1 14 -5.5 58t-6.5 66h-2q-3 -6 -23 -52.5t-32 -70.5zM400 213h-232l-107 -213h-88l349 674h97l94 -674h-85z"/>
<glyph glyph-name="Acircumflex" horiz-adv-x="568" unicode="Â" d="M357 827h65l80 -117h-68l-49 72h-2l-72 -72h-74zM198 279h196l-26 195q-1 14 -5.5 58t-6.5 66h-2q-3 -6 -23 -52.5t-32 -70.5zM400 213h-232l-107 -213h-88l349 674h97l94 -674h-85z"/>
<glyph glyph-name="Atilde" horiz-adv-x="568" unicode="Ã" d="M289 715h-49q8 47 31 75.5t54 28.5q29 0 62 -21q29 -19 45 -19q23 0 35 41h48q-17 -99 -85 -99q-30 0 -62 19q-30 19 -42 19h-2q-24 -1 -35 -44zM198 279h196l-26 195q-1 14 -5.5 58t-6.5 66h-2q-3 -6 -23 -52.5t-32 -70.5zM400 213h-232l-107 -213h-88l349 674h97 l94 -674h-85z"/>
<glyph glyph-name="Adieresis" horiz-adv-x="568" unicode="Ä" d="M468 721q-19 0 -32.5 14t-13.5 34q0 21 15 36.5t37 15.5q21 0 33.5 -14t12.5 -34q0 -22 -15 -37t-37 -15zM284 721q-20 0 -33.5 14t-13.5 34q0 21 15 36.5t37 15.5q21 0 34 -14t13 -34q0 -22 -15 -37t-37 -15zM198 279h196l-26 195q-1 14 -5.5 58t-6.5 66h-2 q-3 -6 -23 -52.5t-32 -70.5zM400 213h-232l-107 -213h-88l349 674h97l94 -674h-85z"/>
<glyph glyph-name="Aring" horiz-adv-x="568" unicode="Å" d="M383 837q-22 0 -35.5 -16t-13.5 -40q0 -21 13 -35.5t33 -14.5q21 0 34.5 15.5t13.5 38.5q0 22 -12.5 37t-32.5 15zM385 873q42 0 68.5 -24t26.5 -63q0 -41 -29.5 -66t-72.5 -25q-41 0 -67.5 23.5t-27.5 60.5q0 41 28.5 67.5t73.5 26.5zM198 279h196l-26 195 q-1 14 -5.5 58t-6.5 66h-2q-3 -6 -23 -52.5t-32 -70.5zM400 213h-232l-107 -213h-88l349 674h97l94 -674h-85z"/>
<glyph glyph-name="AE" horiz-adv-x="773" unicode="Æ" d="M237 307h166l21 195q7 76 12 109h-4q-22 -40 -64 -106zM37 0h-88l448 674h380l-14 -71h-251l-24 -218h239l-13 -71h-230l-26 -243h257l-14 -71h-329l24 238h-201z"/>
<glyph glyph-name="Ccedilla" horiz-adv-x="555" unicode="Ç" d="M592 652l-26 -67q-47 28 -133 28q-112 0 -193 -76q-48 -45 -75.5 -112.5t-27.5 -143.5q0 -99 49.5 -159.5t155.5 -60.5q86 0 144 28l11 -67q-66 -29 -153 -33l-30 -40q25 -5 39.5 -22.5t14.5 -41.5q0 -41 -32.5 -63.5t-75.5 -22.5q-44 0 -67 18l18 43q23 -15 51 -15 q18 0 31 9.5t13 25.5q0 32 -65 40l51 70q-114 9 -179 83.5t-65 195.5q0 96 37.5 182t106.5 143q107 90 255 90q51 0 90.5 -10t54.5 -22z"/>
<glyph glyph-name="Egrave" horiz-adv-x="470" unicode="È" d="M213 827h103l75 -116h-68zM432 387l-13 -70h-245l-47 -246h276l-13 -71h-359l128 674h344l-14 -71h-260l-42 -216h245z"/>
<glyph glyph-name="Eacute" horiz-adv-x="470" unicode="É" d="M387 827h109l-136 -117h-75zM432 387l-13 -70h-245l-47 -246h276l-13 -71h-359l128 674h344l-14 -71h-260l-42 -216h245z"/>
<glyph glyph-name="Ecircumflex" horiz-adv-x="470" unicode="Ê" d="M323 827h65l80 -117h-69l-48 72h-2l-73 -72h-74zM432 387l-13 -70h-245l-47 -246h276l-13 -71h-359l128 674h344l-14 -71h-260l-42 -216h245z"/>
<glyph glyph-name="Edieresis" horiz-adv-x="470" unicode="Ë" d="M437 721q-20 0 -33.5 14t-13.5 34q0 21 15.5 36.5t37.5 15.5q20 0 33 -14t13 -34q0 -22 -15 -37t-37 -15zM252 721q-19 0 -33 14t-14 34q0 21 15.5 36.5t37.5 15.5q21 0 34 -14t13 -34q0 -22 -15.5 -37t-37.5 -15zM432 387l-13 -70h-245l-47 -246h276l-13 -71h-359 l128 674h344l-14 -71h-260l-42 -216h245z"/>
<glyph glyph-name="Igrave" horiz-adv-x="233" unicode="Ì" d="M80 827h103l75 -116h-68zM158 674h83l-128 -674h-83z"/>
<glyph glyph-name="Iacute" horiz-adv-x="233" unicode="Í" d="M253 827h108l-136 -117h-74zM158 674h83l-128 -674h-83z"/>
<glyph glyph-name="Icircumflex" horiz-adv-x="233" unicode="Î" d="M186 827h65l80 -117h-68l-49 72h-2l-72 -72h-74zM158 674h83l-128 -674h-83z"/>
<glyph glyph-name="Idieresis" horiz-adv-x="233" unicode="Ï" d="M305 721q-19 0 -33 14t-14 34q0 21 15.5 36.5t37.5 15.5q20 0 33 -14t13 -34q0 -22 -15 -37t-37 -15zM120 721q-19 0 -32.5 14t-13.5 34q0 21 15 36.5t37 15.5q21 0 34 -14t13 -34q0 -22 -15.5 -37t-37.5 -15zM158 674h83l-128 -674h-83z"/>
<glyph glyph-name="Eth" horiz-adv-x="653" unicode="Ð" d="M361 387l-14 -70h-166l-47 -247q38 -5 91 -5q144 0 234 90q45 45 70.5 111.5t25.5 136.5q0 208 -226 208q-58 0 -93 -6l-41 -218h166zM14 317l14 70h83l53 278q81 13 171 13q168 0 244 -88q63 -64 64 -183q0 -91 -37 -176.5t-103 -139.5q-112 -94 -301 -94q-94 0 -163 8 l59 312h-84z"/>
<glyph glyph-name="Ntilde" horiz-adv-x="632" unicode="Ñ" d="M329 716h-49q8 47 30.5 75.5t54.5 28.5q29 0 62 -21q26 -19 45 -19q23 0 35 41h48q-17 -100 -86 -100q-28 0 -61 20q-30 19 -42 19h-2q-24 -1 -35 -44zM109 0h-78l128 674h91l154 -381q32 -83 60 -188h2q6 88 28 211l68 358h78l-128 -674h-81l-154 381q-43 108 -63 195 l-3 -2q-9 -82 -35 -222z"/>
<glyph glyph-name="Ograve" horiz-adv-x="668" unicode="Ò" d="M287 827h102l76 -116h-69zM392 615q-85 0 -155 -68q-47 -47 -74.5 -125.5t-27.5 -151.5q0 -91 44 -151t137 -60q87 0 154 67q46 46 73 125.5t27 153.5q0 40 -7.5 74t-26 66.5t-55.5 51t-89 18.5zM403 685q66 0 116 -22.5t79.5 -61.5t44 -87.5t14.5 -104.5q0 -90 -32 -179 t-90 -147q-96 -94 -231 -94q-124 0 -190 79t-66 195q0 91 34 181.5t94 148.5q94 92 227 92z"/>
<glyph glyph-name="Oacute" horiz-adv-x="668" unicode="Ó" d="M469 828h109l-136 -117h-75zM392 615q-85 0 -155 -68q-47 -47 -74.5 -125.5t-27.5 -151.5q0 -91 44 -151t137 -60q87 0 154 67q46 46 73 125.5t27 153.5q0 40 -7.5 74t-26 66.5t-55.5 51t-89 18.5zM403 685q66 0 116 -22.5t79.5 -61.5t44 -87.5t14.5 -104.5 q0 -90 -32 -179t-90 -147q-96 -94 -231 -94q-124 0 -190 79t-66 195q0 91 34 181.5t94 148.5q94 92 227 92z"/>
<glyph glyph-name="Ocircumflex" horiz-adv-x="668" unicode="Ô" d="M402 827h65l80 -117h-68l-49 72h-2l-72 -72h-74zM392 615q-85 0 -155 -68q-47 -47 -74.5 -125.5t-27.5 -151.5q0 -91 44 -151t137 -60q87 0 154 67q46 46 73 125.5t27 153.5q0 40 -7.5 74t-26 66.5t-55.5 51t-89 18.5zM403 685q66 0 116 -22.5t79.5 -61.5t44 -87.5 t14.5 -104.5q0 -90 -32 -179t-90 -147q-96 -94 -231 -94q-124 0 -190 79t-66 195q0 91 34 181.5t94 148.5q94 92 227 92z"/>
<glyph glyph-name="Otilde" horiz-adv-x="668" unicode="Õ" d="M341 716h-49q8 47 30.5 75.5t54.5 28.5q29 0 62 -21q26 -19 45 -19q23 0 35 41h48q-17 -100 -85 -100q-29 0 -62 20q-30 19 -42 19h-2q-24 -1 -35 -44zM392 615q-85 0 -155 -68q-47 -47 -74.5 -125.5t-27.5 -151.5q0 -91 44 -151t137 -60q87 0 154 67q46 46 73 125.5 t27 153.5q0 40 -7.5 74t-26 66.5t-55.5 51t-89 18.5zM403 685q66 0 116 -22.5t79.5 -61.5t44 -87.5t14.5 -104.5q0 -90 -32 -179t-90 -147q-96 -94 -231 -94q-124 0 -190 79t-66 195q0 91 34 181.5t94 148.5q94 92 227 92z"/>
<glyph glyph-name="Odieresis" horiz-adv-x="668" unicode="Ö" d="M519 721q-19 0 -32.5 14t-13.5 34q0 21 15 36.5t37 15.5q21 0 33.5 -14t12.5 -34q0 -22 -15 -37t-37 -15zM335 721q-20 0 -33.5 14t-13.5 34q0 21 15 36.5t37 15.5q21 0 34 -14t13 -34q0 -22 -15 -37t-37 -15zM392 615q-85 0 -155 -68q-47 -47 -74.5 -125.5t-27.5 -151.5 q0 -91 44 -151t137 -60q87 0 154 67q46 46 73 125.5t27 153.5q0 40 -7.5 74t-26 66.5t-55.5 51t-89 18.5zM403 685q66 0 116 -22.5t79.5 -61.5t44 -87.5t14.5 -104.5q0 -90 -32 -179t-90 -147q-96 -94 -231 -94q-124 0 -190 79t-66 195q0 91 34 181.5t94 148.5q94 92 227 92 z"/>
<glyph glyph-name="multiply" horiz-adv-x="596" unicode="×" d="M63 482l44 44l203 -222l206 222l42 -43l-206 -220l206 -219l-43 -44l-206 222l-205 -222l-40 45l204 218z"/>
<glyph glyph-name="Oslash" horiz-adv-x="667" unicode="Ø" d="M546 512l-353 -407q45 -47 125 -47q75 0 138.5 58t93.5 150q21 63 21 128q0 66 -22 118h-3zM159 155l358 412q-44 49 -125 49q-82 0 -147.5 -62t-93.5 -157q-18 -57 -18 -117q0 -70 24 -125h2zM63 -42l-41 39l77 88q-52 76 -52 183q0 89 32 173.5t89 143.5 q47 47 108 73.5t125 26.5q105 0 166 -57l76 85l45 -36l-80 -91q47 -68 49 -176q0 -89 -32 -176.5t-88 -145.5q-44 -47 -105 -73t-125 -26q-102 0 -165 57z"/>
<glyph glyph-name="Ugrave" horiz-adv-x="620" unicode="Ù" d="M272 827h103l75 -116h-68zM158 674h83l-76 -400q-8 -36 -8 -84q0 -63 33.5 -96.5t91.5 -33.5q148 0 189 213l76 401h83l-77 -403q-55 -282 -282 -282q-88 0 -142.5 49.5t-54.5 149.5q0 40 10 93z"/>
<glyph glyph-name="Uacute" horiz-adv-x="620" unicode="Ú" d="M437 827h109l-136 -117h-75zM158 674h83l-76 -400q-8 -36 -8 -84q0 -63 33.5 -96.5t91.5 -33.5q148 0 189 213l76 401h83l-77 -403q-55 -282 -282 -282q-88 0 -142.5 49.5t-54.5 149.5q0 40 10 93z"/>
<glyph glyph-name="Ucircumflex" horiz-adv-x="620" unicode="Û" d="M391 827h64l80 -117h-68l-49 72h-2l-72 -72h-74zM158 674h83l-76 -400q-8 -36 -8 -84q0 -63 33.5 -96.5t91.5 -33.5q148 0 189 213l76 401h83l-77 -403q-55 -282 -282 -282q-88 0 -142.5 49.5t-54.5 149.5q0 40 10 93z"/>
<glyph glyph-name="Udieresis" horiz-adv-x="620" unicode="Ü" d="M496 721q-20 0 -33.5 14t-13.5 34q0 21 15.5 36.5t37.5 15.5q20 0 33 -14t13 -34q0 -22 -15 -37t-37 -15zM311 721q-19 0 -32.5 14t-13.5 34q0 21 15 36.5t37 15.5q21 0 34 -14t13 -34q0 -22 -15.5 -37t-37.5 -15zM158 674h83l-76 -400q-8 -36 -8 -84q0 -63 33.5 -96.5 t91.5 -33.5q148 0 189 213l76 401h83l-77 -403q-55 -282 -282 -282q-88 0 -142.5 49.5t-54.5 149.5q0 40 10 93z"/>
<glyph glyph-name="Yacute" horiz-adv-x="517" unicode="Ý" d="M386 827h108l-136 -117h-74zM243 0h-82l53 280l-130 394h88l66 -218q20 -69 28 -113h2q19 33 72 116l146 215h97l-287 -394z"/>
<glyph glyph-name="Thorn" horiz-adv-x="507" unicode="Þ" d="M202 474l-47 -248q28 -6 70 -6q76 0 130.5 43t54.5 111q0 54 -36 81t-98 27q-46 0 -74 -8zM31 0l128 674h82l-26 -132q37 8 80 8q102 0 154 -52q44 -44 44 -113q0 -110 -80.5 -172t-195.5 -62q-40 0 -75 5l-30 -156h-81z"/>
<glyph glyph-name="germandbls" horiz-adv-x="539" unicode="ß" d="M111 0h-83l88 461q49 260 246 260q71 0 114 -40.5t43 -101.5q0 -31 -12.5 -61t-28.5 -47q-86 -30 -86 -93q0 -36 36 -83q50 -67 50 -130q0 -81 -56 -128.5t-141 -47.5q-62 0 -98 23l21 63q37 -20 78 -20q49 0 80.5 28t31.5 75q0 42 -37 91q-51 66 -51 112q0 48 30 84 t78 57q22 22 22 69q0 34 -21.5 58t-64.5 24q-55 0 -93.5 -45.5t-55.5 -134.5z"/>
<glyph glyph-name="agrave" horiz-adv-x="522" unicode="à" d="M226 686h94l66 -143h-59zM374 276l29 146q-21 7 -58 7q-92 0 -160 -81.5t-68 -184.5q0 -106 83 -106q54 0 105 62.5t69 156.5zM426 0h-77v7q0 34 11 118h-3q-71 -136 -186 -136q-64 0 -102 44t-38 115q0 87 38.5 164.5t117 129.5t179.5 52q76 0 130 -18l-49 -252 q-21 -113 -21 -205v-19z"/>
<glyph glyph-name="aacute" horiz-adv-x="522" unicode="á" d="M395 686h100l-133 -143h-65zM374 276l29 146q-21 7 -58 7q-92 0 -160 -81.5t-68 -184.5q0 -106 83 -106q54 0 105 62.5t69 156.5zM426 0h-77v7q0 34 11 118h-3q-71 -136 -186 -136q-64 0 -102 44t-38 115q0 87 38.5 164.5t117 129.5t179.5 52q76 0 130 -18l-49 -252 q-21 -113 -21 -205v-19z"/>
<glyph glyph-name="acircumflex" horiz-adv-x="522" unicode="â" d="M328 686h60l69 -143h-62l-43 91h-2l-70 -91h-67zM374 276l29 146q-21 7 -58 7q-92 0 -160 -81.5t-68 -184.5q0 -106 83 -106q54 0 105 62.5t69 156.5zM426 0h-77v7q0 34 11 118h-3q-71 -136 -186 -136q-64 0 -102 44t-38 115q0 87 38.5 164.5t117 129.5t179.5 52 q76 0 130 -18l-49 -252q-21 -113 -21 -205v-19z"/>
<glyph glyph-name="atilde" horiz-adv-x="522" unicode="ã" d="M257 568h-50q5 47 26 75.5t54 28.5q24 0 63 -23q28 -17 42 -17q12 0 19 9t11 34h49q-13 -100 -79 -100q-34 0 -62 21q-28 18 -43 18q-21 0 -30 -46zM374 276l29 146q-21 7 -58 7q-92 0 -160 -81.5t-68 -184.5q0 -106 83 -106q54 0 105 62.5t69 156.5zM426 0h-77v7 q0 34 11 118h-3q-71 -136 -186 -136q-64 0 -102 44t-38 115q0 87 38.5 164.5t117 129.5t179.5 52q76 0 130 -18l-49 -252q-21 -113 -21 -205v-19z"/>
<glyph glyph-name="adieresis" horiz-adv-x="522" unicode="ä" d="M427 570q-20 0 -33 14t-13 35q0 22 15 37.5t37 15.5q21 0 33.5 -14t12.5 -35q0 -22 -14.5 -37.5t-37.5 -15.5zM244 570q-20 0 -33.5 14t-13.5 35q0 22 15.5 37.5t37.5 15.5q21 0 34 -14t13 -35q0 -22 -15 -37.5t-38 -15.5zM374 276l29 146q-21 7 -58 7q-92 0 -160 -81.5 t-68 -184.5q0 -106 83 -106q54 0 105 62.5t69 156.5zM426 0h-77v7q0 34 11 118h-3q-71 -136 -186 -136q-64 0 -102 44t-38 115q0 87 38.5 164.5t117 129.5t179.5 52q76 0 130 -18l-49 -252q-21 -113 -21 -205v-19z"/>
<glyph glyph-name="aring" horiz-adv-x="522" unicode="å" d="M340 683q-22 0 -36.5 -16.5t-14.5 -42.5q0 -21 13.5 -36.5t34.5 -15.5q22 0 36.5 16.5t14.5 42.5q0 22 -13 37t-35 15zM344 720q41 0 68 -25t27 -66q-1 -42 -31.5 -68.5t-72.5 -26.5q-41 0 -68.5 25.5t-27.5 64.5q0 42 30 69t75 27zM374 276l29 146q-21 7 -58 7 q-92 0 -160 -81.5t-68 -184.5q0 -106 83 -106q54 0 105 62.5t69 156.5zM426 0h-77v7q0 34 11 118h-3q-71 -136 -186 -136q-64 0 -102 44t-38 115q0 87 38.5 164.5t117 129.5t179.5 52q76 0 130 -18l-49 -252q-21 -113 -21 -205v-19z"/>
<glyph glyph-name="ae" horiz-adv-x="718" unicode="æ" d="M623 372q0 24 -19 41.5t-52 17.5q-59 0 -101.5 -43.5t-55.5 -93.5q8 0 22.5 -0.5t21.5 -0.5q41 0 71.5 3t57.5 11.5t41 24.5t14 40zM301 189l10 54h-21q-35 0 -67.5 -5.5t-64 -18t-50 -37.5t-18.5 -59q0 -31 19.5 -49.5t51.5 -18.5q48 0 88 35.5t52 98.5zM631 89l10 -60 q-69 -40 -159 -40q-58 0 -100 28t-57 79h-3q-29 -50 -77 -78.5t-106 -28.5q-63 0 -98 35.5t-35 88.5q0 90 80 139.5t209 49.5h25l4 19q2 12 2 20q0 37 -22.5 64t-71.5 27q-64 0 -126 -40l-17 56q70 46 153 46q119 0 138 -101h2q30 49 79.5 75t104.5 26q67 0 103 -34t36 -81 q0 -44 -20.5 -74t-59 -45.5t-83 -21.5t-104.5 -6q-36 0 -54 1q-5 -30 -5 -53q0 -35 10 -59q27 -65 110 -65q62 0 132 33z"/>
<glyph glyph-name="ccedilla" horiz-adv-x="423" unicode="ç" d="M432 473l-24 -67q-36 19 -82 19q-90 0 -147.5 -73.5t-57.5 -164.5q0 -60 31 -94.5t89 -34.5q56 0 112 27l8 -66q-49 -23 -107 -28l-31 -42q24 -5 39 -22.5t15 -41.5q0 -40 -32.5 -63t-77.5 -23q-43 0 -65 17l18 43q25 -15 52 -15q18 0 31 10t13 27q0 31 -66 39l50 70 q-80 6 -122.5 58t-42.5 128q0 128 84.5 223t211.5 95q62 0 101 -21z"/>
<glyph glyph-name="egrave" horiz-adv-x="452" unicode="è" d="M190 686h94l66 -143h-59zM359 368q0 29 -20 45.5t-54 16.5q-56 0 -99 -45.5t-59 -107.5h10q105 0 163.5 20t58.5 71zM365 89l12 -62q-70 -38 -160 -38q-91 0 -137.5 54.5t-46.5 140.5q0 116 76.5 213t187.5 97q67 0 104.5 -34.5t37.5 -88.5q0 -158 -301 -158h-21 q-2 -12 -2 -22q0 -42 12 -69q28 -66 108 -66q68 0 130 33z"/>
<glyph glyph-name="eacute" horiz-adv-x="452" unicode="é" d="M350 686h100l-133 -143h-65zM359 368q0 29 -20 45.5t-54 16.5q-56 0 -99 -45.5t-59 -107.5h10q105 0 163.5 20t58.5 71zM365 89l12 -62q-70 -38 -160 -38q-91 0 -137.5 54.5t-46.5 140.5q0 116 76.5 213t187.5 97q67 0 104.5 -34.5t37.5 -88.5q0 -158 -301 -158h-21 q-2 -12 -2 -22q0 -42 12 -69q28 -66 108 -66q68 0 130 33z"/>
<glyph glyph-name="ecircumflex" horiz-adv-x="452" unicode="ê" d="M295 686h60l69 -143h-62l-43 91h-2l-70 -91h-67zM359 368q0 29 -20 45.5t-54 16.5q-56 0 -99 -45.5t-59 -107.5h10q105 0 163.5 20t58.5 71zM365 89l12 -62q-70 -38 -160 -38q-91 0 -137.5 54.5t-46.5 140.5q0 116 76.5 213t187.5 97q67 0 104.5 -34.5t37.5 -88.5 q0 -158 -301 -158h-21q-2 -12 -2 -22q0 -42 12 -69q28 -66 108 -66q68 0 130 33z"/>
<glyph glyph-name="edieresis" horiz-adv-x="452" unicode="ë" d="M403 570q-20 0 -33 14t-13 35q0 22 15 37.5t37 15.5q21 0 33.5 -14t12.5 -35q0 -22 -14.5 -37.5t-37.5 -15.5zM221 570q-20 0 -33.5 14t-13.5 35q0 22 15 37.5t37 15.5q21 0 34 -14t13 -35q0 -22 -14.5 -37.5t-37.5 -15.5zM359 368q0 29 -20 45.5t-54 16.5 q-56 0 -99 -45.5t-59 -107.5h10q105 0 163.5 20t58.5 71zM365 89l12 -62q-70 -38 -160 -38q-91 0 -137.5 54.5t-46.5 140.5q0 116 76.5 213t187.5 97q67 0 104.5 -34.5t37.5 -88.5q0 -158 -301 -158h-21q-2 -12 -2 -22q0 -42 12 -69q28 -66 108 -66q68 0 130 33z"/>
<glyph glyph-name="igrave" horiz-adv-x="228" unicode="ì" d="M111 0h-83l93 483h83zM50 686h95l65 -143h-59z"/>
<glyph glyph-name="iacute" horiz-adv-x="228" unicode="í" d="M111 0h-83l93 483h83zM223 686h100l-133 -143h-65z"/>
<glyph glyph-name="icircumflex" horiz-adv-x="228" unicode="î" d="M161 686h60l69 -143h-62l-43 91h-2l-70 -91h-67zM111 0h-83l93 483h83z"/>
<glyph glyph-name="idieresis" horiz-adv-x="228" unicode="ï" d="M111 0h-83l93 483h83zM272 570q-20 0 -33 14t-13 35q0 22 15 37.5t37 15.5q21 0 33.5 -14t12.5 -35q0 -22 -14.5 -37.5t-37.5 -15.5zM89 570q-20 0 -33.5 14t-13.5 35q0 22 15.5 37.5t37.5 15.5q21 0 34 -14t13 -35q0 -22 -15 -37.5t-38 -15.5z"/>
<glyph glyph-name="eth" horiz-adv-x="517" unicode="ð" d="M164 507l-16 42l127 59q-33 33 -88 62l39 49q59 -27 120 -80l131 59l18 -42l-113 -51q104 -112 104 -269q0 -154 -78 -250.5t-186 -96.5q-93 0 -141 57t-48 138q0 121 74.5 210t180.5 90h5q66 0 99 -48l4 2q-27 79 -85 137zM227 54q73 0 121.5 73.5t50.5 170.5v11 q0 39 -16 64q-29 47 -91 47q-74 0 -123.5 -73t-49.5 -162q0 -56 28 -93.5t80 -37.5z"/>
<glyph glyph-name="ntilde" horiz-adv-x="534" unicode="ñ" d="M250 568h-50q5 47 26 75.5t54 28.5q24 0 63 -23q28 -17 42 -17q12 0 19 9t11 34h49q-12 -100 -79 -100q-34 0 -62 21q-28 18 -43 18q-21 0 -30 -46zM111 0h-83l65 343q6 27 23 140h75l-13 -95h2q66 106 180 106q50 0 85.5 -32t35.5 -102q0 -26 -8 -78l-54 -282h-82 l53 280q6 36 6 61q0 84 -76 84q-48 0 -99 -52.5t-66 -137.5z"/>
<glyph glyph-name="ograve" horiz-adv-x="522" unicode="ò" d="M195 686h94l66 -143h-59zM294 429q-74 0 -123.5 -74t-49.5 -162q0 -61 30.5 -100t83.5 -39q71 0 121.5 75.5t50.5 164.5q0 52 -27 93.5t-86 41.5zM303 494q92 0 140.5 -58.5t48.5 -142.5q0 -118 -75.5 -211t-193.5 -93q-88 0 -138 56.5t-50 141.5q0 124 76.5 215.5 t191.5 91.5z"/>
<glyph glyph-name="oacute" horiz-adv-x="522" unicode="ó" d="M365 686h100l-133 -143h-65zM294 429q-74 0 -123.5 -74t-49.5 -162q0 -61 30.5 -100t83.5 -39q71 0 121.5 75.5t50.5 164.5q0 52 -27 93.5t-86 41.5zM303 494q92 0 140.5 -58.5t48.5 -142.5q0 -118 -75.5 -211t-193.5 -93q-88 0 -138 56.5t-50 141.5q0 124 76.5 215.5 t191.5 91.5z"/>
<glyph glyph-name="ocircumflex" horiz-adv-x="522" unicode="ô" d="M311 686h60l69 -143h-62l-43 91h-2l-70 -91h-67zM294 429q-74 0 -123.5 -74t-49.5 -162q0 -61 30.5 -100t83.5 -39q71 0 121.5 75.5t50.5 164.5q0 52 -27 93.5t-86 41.5zM303 494q92 0 140.5 -58.5t48.5 -142.5q0 -118 -75.5 -211t-193.5 -93q-88 0 -138 56.5t-50 141.5 q0 124 76.5 215.5t191.5 91.5z"/>
<glyph glyph-name="otilde" horiz-adv-x="522" unicode="õ" d="M236 568h-51q5 47 26 75.5t54 28.5q26 0 63 -23q28 -17 42 -17q13 0 19.5 9t10.5 34h49q-13 -100 -79 -100q-32 0 -62 21q-26 18 -42 18q-23 0 -30 -46zM294 429q-74 0 -123.5 -74t-49.5 -162q0 -61 30.5 -100t83.5 -39q71 0 121.5 75.5t50.5 164.5q0 52 -27 93.5 t-86 41.5zM303 494q92 0 140.5 -58.5t48.5 -142.5q0 -118 -75.5 -211t-193.5 -93q-88 0 -138 56.5t-50 141.5q0 124 76.5 215.5t191.5 91.5z"/>
<glyph glyph-name="odieresis" horiz-adv-x="522" unicode="ö" d="M420 570q-20 0 -33 14t-13 35q0 22 15 37.5t37 15.5q21 0 33.5 -14t12.5 -35q0 -22 -14.5 -37.5t-37.5 -15.5zM237 570q-20 0 -33.5 14t-13.5 35q0 22 15.5 37.5t37.5 15.5q21 0 34 -14t13 -35q0 -22 -15 -37.5t-38 -15.5zM294 429q-74 0 -123.5 -74t-49.5 -162 q0 -61 30.5 -100t83.5 -39q71 0 121.5 75.5t50.5 164.5q0 52 -27 93.5t-86 41.5zM303 494q92 0 140.5 -58.5t48.5 -142.5q0 -118 -75.5 -211t-193.5 -93q-88 0 -138 56.5t-50 141.5q0 124 76.5 215.5t191.5 91.5z"/>
<glyph glyph-name="divide" horiz-adv-x="596" unicode="÷" d="M306 36q-24 0 -38.5 15.5t-14.5 39.5q0 25 15 40.5t38 15.5q24 0 38.5 -15.5t14.5 -40.5q0 -24 -14.5 -39.5t-38.5 -15.5zM556 238h-501v58h501v-58zM306 387q-24 0 -38.5 15.5t-14.5 38.5q0 25 15 41t38 16q24 0 38.5 -15.5t14.5 -41.5q0 -23 -14.5 -38.5t-38.5 -15.5z "/>
<glyph glyph-name="oslash" horiz-adv-x="523" unicode="ø" d="M390 359l-232 -275q29 -31 80 -31q66 0 118 71t52 157q0 43 -16 78h-2zM138 125l231 277q-29 29 -78 29q-74 0 -122.5 -73t-49.5 -154q0 -47 17 -80zM51 -38l-30 30l56 65q-42 52 -42 137q0 120 76.5 210t189.5 90q70 0 117 -35l53 61l34 -28l-56 -64q43 -54 43 -132 q0 -127 -77.5 -217t-183.5 -90q-75 0 -123 38z"/>
<glyph glyph-name="ugrave" horiz-adv-x="526" unicode="ù" d="M194 686h94l66 -143h-59zM417 483h83l-65 -343q-12 -57 -22 -140h-74l12 91h-2q-32 -48 -77.5 -75t-93.5 -27q-54 0 -90.5 32t-36.5 108q0 40 9 81l52 273h83l-51 -269q-8 -43 -8 -71q0 -84 76 -84q48 0 96 50t62 127z"/>
<glyph glyph-name="uacute" horiz-adv-x="526" unicode="ú" d="M360 686h100l-133 -143h-65zM417 483h83l-65 -343q-12 -57 -22 -140h-74l12 91h-2q-32 -48 -77.5 -75t-93.5 -27q-54 0 -90.5 32t-36.5 108q0 40 9 81l52 273h83l-51 -269q-8 -43 -8 -71q0 -84 76 -84q48 0 96 50t62 127z"/>
<glyph glyph-name="ucircumflex" horiz-adv-x="526" unicode="û" d="M314 686h60l69 -143h-62l-43 91h-2l-70 -91h-67zM417 483h83l-65 -343q-12 -57 -22 -140h-74l12 91h-2q-32 -48 -77.5 -75t-93.5 -27q-54 0 -90.5 32t-36.5 108q0 40 9 81l52 273h83l-51 -269q-8 -43 -8 -71q0 -84 76 -84q48 0 96 50t62 127z"/>
<glyph glyph-name="udieresis" horiz-adv-x="526" unicode="ü" d="M418 570q-20 0 -33 14t-13 35q0 22 15 37.5t37 15.5q21 0 33.5 -14t12.5 -35q0 -22 -14.5 -37.5t-37.5 -15.5zM235 570q-20 0 -33 14t-13 35q0 22 15 37.5t37 15.5q21 0 34 -14t13 -35q0 -22 -15 -37.5t-38 -15.5zM417 483h83l-65 -343q-12 -57 -22 -140h-74l12 91h-2 q-32 -48 -77.5 -75t-93.5 -27q-54 0 -90.5 32t-36.5 108q0 40 9 81l52 273h83l-51 -269q-8 -43 -8 -71q0 -84 76 -84q48 0 96 50t62 127z"/>
<glyph glyph-name="yacute" horiz-adv-x="441" unicode="ý" d="M319 686h100l-133 -143h-65zM47 483h87l48 -260q18 -102 22 -127h2q45 104 52 119l123 268h88l-181 -367q-88 -177 -167 -255q-67 -67 -141 -83l-20 71q51 17 89 47q58 45 93 111q5 9 3 22z"/>
<glyph glyph-name="thorn" horiz-adv-x="526" unicode="þ" d="M145 216l-25 -136q31 -26 93 -26q79 0 137.5 80.5t58.5 177.5q0 46 -21.5 80t-68.5 34q-53 0 -104 -56t-70 -154zM-15 -198l164 868h82l-52 -273h2q66 97 166 97q73 0 111.5 -50t38.5 -125q-1 -133 -84.5 -231.5t-199.5 -98.5q-64 0 -104 21h-3l-39 -208h-82z"/>
<glyph glyph-name="OE" horiz-adv-x="868" unicode="Œ" d="M435 71l100 532q-32 8 -80 8q-150 0 -234.5 -94.5t-84.5 -231.5q0 -103 53.5 -163t168.5 -60q38 0 77 9zM801 71l-13 -71h-324q-19 0 -61 -4t-72 -4q-144 0 -213.5 82.5t-69.5 205.5q0 75 25 145.5t73.5 128.5t128.5 93t181 35q29 0 73.5 -4t70.5 -4h300l-13 -71h-269 l-41 -217h253l-13 -71h-254l-46 -244h284z"/>
<glyph glyph-name="oe" horiz-adv-x="800" unicode="œ" d="M707 370q0 27 -19.5 43.5t-53.5 16.5q-56 0 -98 -44.5t-59 -103.5q51 0 85 3t71 11.5t55.5 27t18.5 46.5zM231 55q49 0 89 40t60 94.5t20 106.5q0 57 -25 95.5t-82 38.5q-76 0 -124.5 -73.5t-48.5 -163.5q0 -61 30.5 -99.5t80.5 -38.5zM713 90l12 -61q-64 -40 -155 -40 q-60 0 -103 29t-59 85h-2q-32 -56 -82.5 -85t-107.5 -29q-82 0 -132 56.5t-50 143.5q0 124 74.5 214.5t185.5 90.5q62 0 103 -31.5t55 -85.5h2q33 55 86 86t109 31q70 0 104 -35.5t34 -82.5q0 -49 -26.5 -82t-76.5 -48.5t-99.5 -21t-117.5 -5.5q-3 -15 -3 -31q0 -36 13 -67 q29 -64 109 -64q67 0 127 33z"/>
<glyph glyph-name="Scaron" horiz-adv-x="465" unicode="Š" d="M349 710h-64l-80 117h68l47 -72h4l71 72h74zM12 36l29 68q64 -43 144 -43q60 0 103 34t43 93q0 71 -99 126q-134 73 -134 172q0 89 65.5 143.5t161.5 54.5q88 0 138 -35l-29 -67q-56 32 -117 32q-60 0 -96.5 -33.5t-36.5 -77.5q0 -39 24.5 -66.5t79.5 -58.5 q65 -35 97 -78t32 -102q0 -90 -66 -149.5t-177 -59.5q-49 1 -94.5 14.5t-67.5 32.5z"/>
<glyph glyph-name="scaron" horiz-adv-x="372" unicode="š" d="M274 543h-60l-69 143h62l43 -92h2l72 92h67zM8 22l24 62q49 -30 104 -30q42 0 67 23t25 56q0 28 -15 48t-52 41q-87 48 -87 124q0 63 49.5 105.5t125.5 42.5q67 0 101 -23l-24 -63q-35 22 -83 22q-38 0 -62.5 -21t-24.5 -51q0 -45 67 -82q91 -52 91 -127q0 -74 -53 -117 t-132 -43q-78 2 -121 33z"/>
<glyph glyph-name="Ydieresis" horiz-adv-x="517" unicode="Ÿ" d="M435 721q-19 0 -33 14t-14 34q0 21 15.5 36.5t37.5 15.5q21 0 33.5 -14t12.5 -34q0 -22 -15 -37t-37 -15zM250 721q-19 0 -32.5 14t-13.5 34q0 21 15 36.5t37 15.5q21 0 34 -14t13 -34q0 -22 -15 -37t-38 -15zM243 0h-82l53 280l-130 394h88l66 -218q20 -69 28 -113h2 q19 33 72 116l146 215h97l-287 -394z"/>
<glyph glyph-name="circumflex" horiz-adv-x="383" unicode="ˆ" d="M244 686h60l69 -143h-62l-43 91h-2l-70 -91h-67z"/>
<glyph glyph-name="tilde" horiz-adv-x="383" unicode="˜" d="M185 568h-50q5 47 26 75.5t54 28.5q24 0 63 -23q28 -17 42 -17q12 0 19 9t11 34h49q-13 -100 -79 -100q-34 0 -62 21q-28 18 -43 18q-21 0 -30 -46z"/>
<glyph glyph-name="theta" horiz-adv-x="515" unicode="θ" d="M408 335h-271q-12 -69 -12 -118q0 -78 28.5 -122t75.5 -44q127 0 179 284zM148 398h272q8 45 8 103q0 71 -25.5 114t-74.5 43q-66 0 -112.5 -73.5t-67.5 -186.5zM222 -11q-83 0 -130.5 61.5t-47.5 176.5q0 83 21 174q30 139 100.5 229.5t172.5 90.5q81 0 126.5 -62 t45.5 -164q0 -75 -15 -147q-31 -164 -99 -261.5t-174 -97.5z"/>
<glyph glyph-name="pi" horiz-adv-x="528" unicode="π" d="M532 418h-68l-49 -271q-15 -85 -15 -125q0 -16 1 -22h-78q-5 10 -5 33q0 36 13 107l51 278h-151q-15 -64 -25 -101q-61 -236 -120 -317h-80q63 98 120 314q12 45 25 104q-63 0 -101 -11l-2 50q31 26 136 26h364z"/>
<glyph glyph-name="chi" horiz-adv-x="423" unicode="χ" d="M47 483h87l47 -156q16 -52 30 -110h5q27 48 66 109q85 137 98 157h86q-74 -111 -224 -335l112 -341l-80 -20l-50 159q-21 69 -41 139h-4q-9 -15 -29 -48t-32 -52q-98 -158 -124 -198l-69 27q42 64 119 180t110 165z"/>
<glyph glyph-name="uni200C" horiz-adv-x="0" unicode="‌" d="M-53 737l-16 17l52 52l-52 52l16 17l53 -53l52 52l16 -16l-52 -52l52 -52l-16 -16l-52 51z"/>
<glyph glyph-name="uni200D" horiz-adv-x="0" unicode="‍" d="M-76 749h-23v69h199v-69h-23v46h-153v-46z"/>
<glyph glyph-name="uni200E" horiz-adv-x="0" unicode="‎" d="M26 737l-16 17l41 41h-126v23h126l-41 40l16 17l69 -69z"/>
<glyph glyph-name="endash" horiz-adv-x="499" unicode="–" d="M43 244l17 69h423l-16 -69h-424z"/>
<glyph glyph-name="emdash" horiz-adv-x="785" unicode="—" d="M43 244l17 69h710l-17 -69h-710z"/>
<glyph glyph-name="quoteleft" horiz-adv-x="247" unicode="‘" d="M95 363q55 134 129 237l70 6q-66 -124 -104 -233z"/>
<glyph glyph-name="quotesinglbase" horiz-adv-x="194" unicode="‚" d="M7 -115l-60 -7q65 122 100 238l93 10q-26 -61 -65.5 -132.5t-67.5 -108.5z"/>
<glyph glyph-name="quotedblleft" horiz-adv-x="435" unicode="“" d="M279 363q55 134 129 237l71 6q-65 -122 -105 -233zM90 363q57 135 129 237l71 6q-66 -124 -104 -233z"/>
<glyph glyph-name="quotedblright" horiz-adv-x="435" unicode="”" d="M272 363q68 129 103 234l97 9q-59 -137 -129 -236zM84 363q64 122 103 234l97 9q-58 -134 -130 -236z"/>
<glyph glyph-name="dagger" horiz-adv-x="497" unicode="†" d="M123 -116l109 438l-164 -8l17 74l160 -8l39 203h80l-55 -203l164 8l-17 -74l-160 8l-93 -438h-80z"/>
<glyph glyph-name="daggerdbl" horiz-adv-x="493" unicode="‡" d="M17 74l17 73l159 -8l44 194l-162 -8l17 74l159 -7l38 191h80l-51 -191l163 7l-17 -74l-160 8l-44 -194l163 8l-17 -73l-160 7l-38 -197h-80l51 197z"/>
<glyph glyph-name="ellipsis" horiz-adv-x="1000" unicode="…" d="M794 -11q-24 0 -39.5 17t-15.5 42q0 28 18 48t45 20q25 0 40 -17t15 -44t-18 -46.5t-45 -19.5zM460 -11q-24 0 -39.5 17t-15.5 42q0 28 18 48t45 20q25 0 40.5 -17t15.5 -44q0 -28 -18 -47t-46 -19zM127 -11q-25 0 -40 17t-15 42q0 28 17.5 48t44.5 20q25 0 41 -17.5 t16 -43.5q0 -27 -18.5 -46.5t-45.5 -19.5z"/>
<glyph glyph-name="perthousand" horiz-adv-x="1167" unicode="‰" d="M950 53q38 0 67 32.5t37 82.5q3 15 3 30q0 38 -18.5 60t-52.5 22q-35 0 -65 -31.5t-38 -83.5q-3 -15 -3 -29q0 -37 18 -60t52 -23zM938 -9q-62 0 -93.5 37.5t-31.5 97.5q0 20 3 39q13 80 65.5 129t114.5 49q61 0 93.5 -38t32.5 -99q0 -20 -3 -39q-11 -70 -60.5 -123 t-120.5 -53zM600 53q38 0 67 32.5t37 82.5q3 15 3 30q0 38 -18.5 60t-52.5 22q-35 0 -64.5 -31.5t-38.5 -83.5q-2 -10 -2 -28q0 -37 17.5 -60.5t51.5 -23.5zM588 -9q-62 0 -93.5 37.5t-31.5 97.5q0 20 3 39q14 80 66.5 129t114.5 49q61 0 93 -37.5t32 -98.5q0 -19 -3 -40 q-11 -70 -60.5 -123t-120.5 -53zM156 -8l448 599h69l-448 -599h-69zM204 304q38 0 67 32.5t37 82.5q3 15 3 30q0 38 -18.5 60t-52.5 22q-35 0 -65 -31.5t-38 -83.5q-3 -15 -3 -29q0 -37 18 -60t52 -23zM192 242q-62 0 -93.5 37.5t-31.5 97.5q0 19 3 39q13 80 65.5 129 t114.5 49q61 0 93.5 -38t32.5 -99q0 -19 -3 -39q-11 -70 -60.5 -123t-120.5 -53z"/>
<glyph glyph-name="guilsinglleft" horiz-adv-x="394" unicode="‹" d="M91 238l14 63l263 175l-20 -87l-183 -123l126 -125l-19 -81z"/>
<glyph glyph-name="guilsinglright" horiz-adv-x="395" unicode="›" d="M50 60l20 87l183 124l-126 125l19 80l181 -178l-15 -63z"/>
<glyph glyph-name="fraction" horiz-adv-x="141" unicode="⁄" d="M-124 -11h-61l488 672h61z"/>
<glyph glyph-name="Euro" d="M540 568l-29 -71q-37 21 -104 21q-146 0 -202 -138h228l-13 -51h-231q-7 -33 -9 -70h225l-12 -50h-211q7 -64 45.5 -103.5t105.5 -39.5q57 0 103 20l8 -69q-46 -26 -132 -26t-147 57.5t-69 160.5h-73l13 50h60q1 35 9 70h-54l12 51h56q34 96 111 153.5t190 57.5 q79 0 120 -23z" unicode="€"/>
<glyph glyph-name="trademark" horiz-adv-x="499" unicode="™" d="M234 340l22 204h64q37 -119 41 -148h1q7 30 54 148h61l8 -204h-43q-2 78 -2 139v33h-2q-9 -34 -60 -169h-43q-37 131 -43 168h-2q-1 -28 -15 -171h-41zM101 340l6 162h-65l2 42h173l-2 -42h-64l-6 -162h-44z"/>
<glyph glyph-name="partialdiff" horiz-adv-x="518" unicode="∂" d="M217 57q68 0 118 64t70 158q-12 38 -46.5 66.5t-78.5 28.5q-69 0 -115.5 -57.5t-46.5 -139.5q0 -55 26.5 -87.5t72.5 -32.5zM133 617l-20 57q77 52 171 52q99 0 163 -76.5t64 -213.5q0 -111 -34.5 -211t-106 -168t-164.5 -68q-83 0 -128 53.5t-45 132.5q0 110 71.5 188 t176.5 78q49 0 88.5 -26t53.5 -58h1q7 44 7 85q-1 103 -47 158.5t-113 55.5q-79 0 -138 -39z"/>
<glyph glyph-name="product" horiz-adv-x="617" unicode="∏" d="M647 579h-75l-135 -669h-79l134 669h-244l-134 -669h-80l135 669h-78l15 71h556z"/>
<glyph glyph-name="summation" horiz-adv-x="536" unicode="∑" d="M448 -90h-479l9 52l293 319l-170 311l10 58h436l-13 -72h-335l-1 -3l163 -295l-269 -294v-4h369z"/>
<glyph glyph-name="minus" horiz-adv-x="596" unicode="−" d="M57 296h500v-58h-500v58z"/>
<glyph glyph-name="radical" horiz-adv-x="540" unicode="√" d="M638 827l-371 -925h-61l-79 431l-75 -30l-12 45l142 58l57 -350q2 -11 8 -63h1q5 16 23 64l305 770h62z"/>
<glyph glyph-name="infinity" horiz-adv-x="728" unicode="∞" d="M183 176q26 0 55 16t43.5 30t42.5 42q-6 6 -23 22.5t-26.5 24.5t-25 19.5t-31 16.5t-32.5 5q-37 0 -62.5 -26t-25.5 -62q0 -38 24 -63t61 -25zM542 176q37 0 62.5 26t25.5 62q0 38 -24 63t-61 25q-26 0 -55 -16t-43.5 -30t-42.5 -42q6 -6 23 -22.5t26.5 -24.5t25 -19.5 t31 -16.5t32.5 -5zM541 116q-26 0 -50 8t-50.5 29t-37 31t-39.5 39q-63 -62 -94 -81q-44 -26 -91 -26q-64 0 -104 41.5t-40 106.5q0 61 43.5 104.5t108.5 43.5q11 0 22 -2t20 -4t20 -8t18 -9.5t18.5 -12.5t16 -12.5t17 -14.5t15.5 -14l15.5 -15.5l14.5 -14.5q3 3 15.5 15 t16 15.5t15.5 14.5t17.5 14.5t17 12.5t18.5 12t18.5 9t21 8t21.5 4t24 2q64 0 104 -41.5t40 -106.5q0 -61 -43.5 -104.5t-108.5 -43.5z"/>
<glyph glyph-name="approxequal" horiz-adv-x="596" unicode="≈" d="M533 416l37 -41q-26 -33 -67 -55.5t-85 -22.5q-21 0 -42.5 4.5t-30 7.5t-31.5 14l-24 11q-6 2 -23 10t-27.5 12t-28.5 8t-36 4q-60 0 -117 -59l-35 42q27 32 68 54.5t85 22.5q21 0 41 -4t31.5 -8.5t30.5 -13t25 -10.5q3 -2 22 -10.5t28 -12t27 -7.5t36 -4q60 0 116 58z M538 218l36 -40q-26 -33 -67 -56t-86 -23q-16 0 -31 2t-30 7t-23 8t-24 10.5t-19 8.5q-6 2 -23 10t-27.5 12t-28.5 8t-36 4q-62 0 -117 -59l-35 43q26 31 67.5 53.5t85.5 22.5q21 0 42 -4.5t30 -7.5t32 -13.5t24 -10.5q6 -3 22.5 -10.5t27.5 -11.5t28.5 -8t34.5 -4 q64 0 117 59z"/>
<glyph glyph-name="notequal" horiz-adv-x="596" unicode="≠" d="M556 140h-310l-76 -122h-65l79 122h-144v60h182l89 138h-271v60h309l76 122h65l-78 -122h144v-60h-183l-89 -138h272v-60z"/>
<glyph glyph-name="lessequal" horiz-adv-x="596" unicode="≤" d="M530 0h-462v57h462v-57zM530 99l-464 193v58l464 193v-66l-382 -155v-2l382 -154v-67z"/>
<glyph glyph-name="greaterequal" horiz-adv-x="596" unicode="≥" d="M528 0h-462v57h462v-57zM530 292l-464 -193v67l382 154v2l-382 155v66l464 -193v-58z"/>
<glyph glyph-name="lozenge" horiz-adv-x="519" unicode="◊" d="M414 323l-82 267q-6 11 -7 23h-2q-8 -15 -14 -23l-176 -264l83 -266q5 -19 6 -24h2q2 5 7.5 14t6.5 10zM490 325l-246 -356h-69l-117 356l245 355h70z"/>
</font>
</defs>
</svg>
