<?xml version="1.0" encoding="UTF-8" standalone="no"?>
<!DOCTYPE svg  PUBLIC '-//W3C//DTD SVG 1.1//EN'  'http://www.w3.org/Graphics/SVG/1.1/DTD/svg11.dtd'>
<svg xmlns="http://www.w3.org/2000/svg">
<defs>
<font id="MyriadArabic-Bold" horiz-adv-x="596">
<font-face underline-position="-25" font-weight="700" descent="-280" panose-1="1 1 1 1 1 1 1 1 1 1" units-per-em="1400" unicode-range="U+0020-25CA" bbox="-163 -250 1257 984" x-height="489" underline-thickness="24" font-family="MyriadArabic" ascent="1120" cap-height="674"/>
<missing-glyph horiz-adv-x="1400"/>
<glyph glyph-name=".notdef" horiz-adv-x="1400"/>
<glyph glyph-name=".null" horiz-adv-x="0"/>
<glyph glyph-name="nonmarkingreturn" horiz-adv-x="466"/>
<glyph glyph-name="space" horiz-adv-x="242" unicode=" "/>
<glyph glyph-name="exclam" horiz-adv-x="332" unicode="!" d="M60 80q0 40 24.5 65t64.5 25t64.5 -25t25.5 -65q0 -40 -25 -65.5t-65 -25.5t-64.5 25.5t-24.5 65.5zM92 220l-22 454h158l-22 -454h-114z"/>
<glyph glyph-name="quotedbl" horiz-adv-x="397" unicode='&quot;' d="M251 421l-24 271h135l-23 -271h-88zM58 421l-22 271h134l-22 -271h-90z"/>
<glyph glyph-name="numbersign" horiz-adv-x="550" unicode="#" d="M92 0l26 178h-81v93h97l16 112h-85v93h99l26 174h88l-25 -174h91l25 174h89l-25 -174h80v-93h-94l-15 -112h81v-92h-97l-26 -179h-90l26 179h-90l-26 -179h-90zM223 271h91l16 112h-92z"/>
<glyph glyph-name="dollar" horiz-adv-x="555" unicode="$" d="M55 51l30 117q84 -44 166 -44q44 0 70 16.5t26 45.5q0 28 -24.5 47.5t-81.5 39.5q-88 28 -134.5 71t-46.5 112q0 67 45 115t125 63v95h98v-88q80 -4 145 -33l-29 -113q-80 34 -144 34q-45 0 -65 -16t-20 -40t26.5 -42.5t92.5 -43.5q89 -31 128 -75t39 -113t-46.5 -119 t-130.5 -65v-102h-99v95q-103 3 -170 43z"/>
<glyph glyph-name="percent" horiz-adv-x="880" unicode="%" d="M609 187q0 -52 17.5 -82.5t49.5 -30.5q63 0 63 117t-64 117q-66 0 -66 -121zM495 187q0 89 50 146.5t132 57.5t129 -54t47 -139q0 -97 -53 -152t-128 -55q-76 0 -126.5 53.5t-50.5 142.5zM211 -11l373 671h82l-373 -671h-82zM207 344q64 0 64 117t-64 117q-33 0 -50 -33 t-17 -85q0 -53 17.5 -84.5t49.5 -31.5zM204 260q-76 0 -126.5 53.5t-50.5 142.5t50 147t132 58t128.5 -54t46.5 -139q0 -97 -52.5 -152.5t-127.5 -55.5z"/>
<glyph glyph-name="ampersand" horiz-adv-x="677" unicode="&amp;" d="M291 424q38 27 55 49t17 50q0 27 -15 46.5t-42 19.5q-29 0 -45.5 -20t-16.5 -47q0 -50 47 -98zM175 205q0 -44 31 -75t81 -31q56 0 92 34q-23 23 -151 165q-53 -38 -53 -93zM31 179q0 128 128 195v3q-51 55 -51 129q0 71 53.5 125t148.5 54q80 0 131.5 -43.5t51.5 -114.5 q0 -107 -133 -173l-1 -4q11 -13 52.5 -59.5t60.5 -66.5q40 62 57 164h136q-29 -165 -112 -256q87 -99 119 -132h-177q-12 12 -44 48q-74 -59 -185 -59q-115 0 -175 56t-60 134z"/>
<glyph glyph-name="quotesingle" horiz-adv-x="205" unicode="&apos;" d="M58 421l-22 271h134l-22 -271h-90z"/>
<glyph glyph-name="parenleft" horiz-adv-x="342" unicode="(" d="M182 -133q-124 181 -124 419q1 248 124 428h107q-113 -181 -113 -428q0 -231 113 -419h-107z"/>
<glyph glyph-name="parenright" horiz-adv-x="340" unicode=")" d="M53 -133q112 183 112 427q0 233 -112 420h106q125 -183 125 -420q-1 -248 -125 -427h-106z"/>
<glyph glyph-name="asterisk" horiz-adv-x="454" unicode="*" d="M166 286l-86 51l107 125v2l-157 -28v101l155 -32l1 2l-106 128l89 50l56 -154h2l57 154l88 -50l-107 -128v-2l159 32v-101l-161 27v-2l109 -124l-89 -51l-57 154h-2z"/>
<glyph glyph-name="plus" d="M40 220v94h209v218h98v-218h209v-94h-209v-220h-98v220h-209z" unicode="+"/>
<glyph glyph-name="comma" horiz-adv-x="260" unicode="," d="M74 165l155 10q-54 -168 -126 -286l-101 -9q51 148 72 285z"/>
<glyph glyph-name="hyphen" horiz-adv-x="321" unicode="-" d="M30 212v101h261v-101h-261z"/>
<glyph glyph-name="period" horiz-adv-x="260" unicode="." d="M50 81q0 41 25 67t65 26q39 0 64 -25.5t25 -67.5q0 -41 -25 -66.5t-65 -25.5q-39 0 -64 26t-25 66z"/>
<glyph glyph-name="slash" horiz-adv-x="331" unicode="/" d="M16 -40l214 725h101l-215 -725h-100z"/>
<glyph glyph-name="zero" horiz-adv-x="555" unicode="0" d="M278 104q92 0 92 222q0 219 -92 219q-43 0 -68 -54t-25 -161v-6v-6q0 -106 24.5 -160t68.5 -54zM275 -11q-120 0 -181 93.5t-62 241.5q0 149 63.5 243t183.5 94q63 0 111 -26.5t76 -73.5t42 -105.5t14 -127.5q0 -156 -63 -247.5t-184 -91.5z"/>
<glyph glyph-name="one" horiz-adv-x="555" unicode="1" d="M236 0v514h-2l-124 -59l-25 115l172 80h126v-650h-147z"/>
<glyph glyph-name="two" horiz-adv-x="555" unicode="2" d="M42 0v92l84 76q116 104 164 163t48 113q0 42 -26.5 68t-79.5 26q-67 0 -139 -53l-42 108q86 68 211 68q108 0 168.5 -56.5t60.5 -146.5q0 -76 -45.5 -142.5t-127.5 -138.5l-60 -50v-2h245v-125h-461z"/>
<glyph glyph-name="three" horiz-adv-x="555" unicode="3" d="M38 35l31 114q77 -40 152 -40q56 0 87 24.5t31 62.5q0 45 -38 69t-93 25h-62v108h59q46 1 81 19.5t35 55.5q0 30 -25 49t-71 19q-70 0 -136 -39l-31 110q32 20 86.5 34.5t114.5 14.5q101 0 158.5 -46t57.5 -116q0 -109 -119 -151v-2q61 -12 101 -54t40 -104 q0 -88 -72.5 -143.5t-193.5 -55.5q-123 0 -193 46z"/>
<glyph glyph-name="four" horiz-adv-x="555" unicode="4" d="M165 269h146v144q0 52 5 120l-4 1q-50 -102 -60 -121l-87 -142v-2zM23 155v99l246 396h186v-381h77v-114h-77v-155h-144v155h-288z"/>
<glyph glyph-name="five" horiz-adv-x="555" unicode="5" d="M42 25l28 115q66 -33 146 -33q52 0 91 26t39 74q0 108 -183 108q-34 0 -88 -6l43 341h358v-126h-253l-13 -99q21 3 41 3q107 -2 172 -47q79 -55 79 -164q0 -95 -76 -161.5t-203 -66.5q-109 0 -181 36z"/>
<glyph glyph-name="six" horiz-adv-x="555" unicode="6" d="M286 101q40 0 63.5 32t23.5 83q0 48 -25 80t-71 32q-30 0 -54 -16.5t-36 -41.5q-7 -16 -7 -39q3 -55 30 -92.5t76 -37.5zM288 -11q-125 0 -191.5 80.5t-66.5 202.5q0 183 115 291q98 88 251 95q24 2 31 2t17 -0.5t13 -0.5v-118q-3 0 -10.5 0.5t-11.5 0.5q-9 0 -37 -2 q-95 -8 -146.5 -50.5t-65.5 -105.5h2q52 52 139 52q85 0 143 -57t58 -155t-68 -166.5t-172 -68.5z"/>
<glyph glyph-name="seven" horiz-adv-x="555" unicode="7" d="M79 0l268 522v2h-298v126h459v-96l-267 -554h-162z"/>
<glyph glyph-name="eight" horiz-adv-x="555" unicode="8" d="M289 395q27 8 46.5 30.5t19.5 51.5q0 33 -20 57t-59 24q-38 0 -58 -22t-20 -55q0 -57 91 -86zM187 183q0 -36 25.5 -62.5t66.5 -26.5q39 0 64 23t25 58q0 81 -102 106q-38 -10 -58.5 -36t-20.5 -62zM32 170q0 111 116 163v2q-95 50 -95 143q0 81 65 132t165 51 q106 0 160.5 -50t54.5 -117q0 -44 -24 -82t-70 -62v-2q52 -20 86 -61.5t34 -100.5q0 -89 -68.5 -143t-182.5 -54q-116 0 -178.5 54t-62.5 127z"/>
<glyph glyph-name="nine" horiz-adv-x="555" unicode="9" d="M273 332q59 0 85 42q7 15 7 43q0 57 -23 95t-71 38q-39 0 -64 -31t-25 -79q0 -47 23.5 -77.5t67.5 -30.5zM90 -9v119q20 -2 29 -2q7 0 37 2q75 3 127 40q64 42 82 120l-2 1q-47 -47 -131 -47q-85 0 -143.5 55.5t-58.5 146.5q0 98 69.5 166.5t175.5 68.5q120 0 183 -79.5 t63 -200.5q0 -195 -114 -299q-92 -85 -248 -91q-11 -1 -32 -1q-27 0 -37 1z"/>
<glyph glyph-name="colon" horiz-adv-x="340" unicode=":" d="M90 80q0 40 25 66t65 26q39 0 63.5 -25.5t25.5 -66.5q0 -40 -25 -65.5t-65 -25.5q-39 0 -64 25.5t-25 65.5zM179 312q-39 0 -64 26t-25 65q0 40 25 66t65 26q39 0 63.5 -25.5t25.5 -66.5q0 -39 -25 -65t-65 -26z"/>
<glyph glyph-name="semicolon" horiz-adv-x="330" unicode=";" d="M178 312q-39 0 -64 26t-25 65q0 40 25 66t64 26q40 0 64 -25.5t25 -66.5q0 -39 -25 -65t-64 -26zM35 -120q50 145 73 285l154 10q-53 -163 -126 -286z"/>
<glyph glyph-name="less" d="M58 223v86l480 223v-106l-363 -159v-2l363 -159v-106z" unicode="&lt;"/>
<glyph glyph-name="equal" d="M40 324v93h516v-93h-516zM40 117v94h516v-94h-516z" unicode="="/>
<glyph glyph-name="greater" d="M58 0v105l371 160v2l-371 159v106l480 -220v-92z" unicode="&gt;"/>
<glyph glyph-name="question" horiz-adv-x="460" unicode="?" d="M127 80q0 40 25 65.5t64 25.5t64 -25.5t26 -65.5q0 -40 -24.5 -65.5t-64.5 -25.5t-65 25.5t-25 65.5zM153 219l-2 25v8q0 79 60 149q22 28 30.5 39t18 30.5t9.5 35.5q0 57 -73 60q-56 0 -99 -30l-34 108q71 42 167 42q94 0 143.5 -44.5t49.5 -111.5q0 -35 -16 -70 t-29 -51t-42 -48q-51 -57 -50 -124v-18h-133z"/>
<glyph glyph-name="at" horiz-adv-x="770" unicode="@" d="M51 211q0 158 104.5 269.5t269.5 111.5q132 0 217 -81.5t85 -208.5q0 -107 -54 -172.5t-136 -65.5q-36 0 -59 19.5t-27 58.5h-2q-47 -78 -129 -78q-50 0 -81.5 35.5t-31.5 95.5q0 95 65 163.5t170 68.5q76 0 118 -23l-29 -186q-4 -23 -4 -43q0 -44 29 -44h1q36 0 66 44.5 t30 124.5q0 101 -63 166t-176 65q-119 0 -203 -86t-84 -225q0 -123 71 -193t185 -70q81 0 145 32l18 -58q-81 -35 -183 -35q-130 0 -221 86.5t-91 228.5zM308 207q0 -29 13 -45t36 -16q29 0 53.5 30.5t31.5 73.5l15 95q-18 4 -31 4q-49 0 -83.5 -42t-34.5 -100z"/>
<glyph glyph-name="A" horiz-adv-x="656" unicode="A" d="M245 286h148l-41 144q-6 21 -34 129h-3q-28 -122 -30 -129zM17 0l206 674h200l210 -674h-165l-52 173h-193l-48 -173h-158z"/>
<glyph glyph-name="B" horiz-adv-x="604" unicode="B" d="M217 109q15 -3 59 -3q57 0 93.5 24t36.5 73q0 48 -38 71.5t-99 23.5h-52v-189zM217 406h49q59 0 91 23t32 61q0 78 -107 78q-43 0 -65 -5v-157zM66 3v662q80 14 197 14q134 0 200 -38q36 -19 57.5 -53.5t21.5 -79.5q0 -46 -27.5 -84.5t-82.5 -58.5v-3q60 -16 97 -59 t37 -106q0 -86 -70 -143q-77 -61 -265 -61q-97 0 -165 10z"/>
<glyph glyph-name="C" horiz-adv-x="595" unicode="C" d="M35 327q0 167 104.5 262t263.5 95q114 0 166 -30l-32 -120q-58 25 -127 25q-95 0 -155 -57.5t-60 -165.5q0 -102 57.5 -161t158.5 -59q72 0 127 22l23 -120q-62 -29 -173 -29q-169 0 -261 94t-92 244z"/>
<glyph glyph-name="D" horiz-adv-x="697" unicode="D" d="M218 115q21 -3 54 -3h3q105 0 165 59.5t60 176.5q0 104 -56.5 159t-156.5 55q-41 0 -69 -6v-441zM66 3v662q87 14 205 14q179 0 277 -72q114 -85 114 -254q0 -178 -112 -273q-105 -87 -310 -87q-98 0 -174 10z"/>
<glyph glyph-name="E" horiz-adv-x="534" unicode="E" d="M66 0v674h415v-125h-262v-140h248v-124h-248v-160h277v-125h-430z"/>
<glyph glyph-name="F" horiz-adv-x="527" unicode="F" d="M66 0v674h412v-125h-259v-155h242v-123h-242v-271h-153z"/>
<glyph glyph-name="G" horiz-adv-x="682" unicode="G" d="M130 83q-97 92 -95 246q0 164 107.5 258t277.5 94q117 0 187 -32l-32 -123q-67 29 -156 29q-100 0 -162.5 -56t-62.5 -162q0 -102 59 -161.5t154 -59.5q54 0 74 10v141h-103v119h251v-355q-105 -38 -225 -38q-179 0 -274 90z"/>
<glyph glyph-name="H" horiz-adv-x="688" unicode="H" d="M66 0v674h153v-259h251v259h152v-674h-152v282h-251v-282h-153z"/>
<glyph glyph-name="I" horiz-adv-x="285" unicode="I" d="M66 0v674h153v-674h-153z"/>
<glyph glyph-name="J" horiz-adv-x="411" unicode="J" d="M-2 5l17 123q36 -12 79 -12q51 0 77.5 30t26.5 104v424h152v-427q0 -137 -61.5 -197.5t-178.5 -60.5q-62 0 -112 16z"/>
<glyph glyph-name="K" horiz-adv-x="614" unicode="K" d="M66 0v674h151v-298h3q3 5 46 74l153 224h187l-223 -287l235 -387h-177l-166 290l-58 -70v-220h-151z"/>
<glyph glyph-name="L" horiz-adv-x="511" unicode="L" d="M66 0v674h153v-546h268v-128h-421z"/>
<glyph glyph-name="M" horiz-adv-x="846" unicode="M" d="M51 0l43 674h203l66 -225q33 -116 57 -244h4q30 137 63 245l72 224h200l35 -674h-148l-10 257q-6 146 -6 247v31h-3q-20 -82 -75 -263l-82 -261h-121l-71 260q-40 152 -60 264h-3q-3 -148 -11 -280l-12 -255h-141z"/>
<glyph glyph-name="N" horiz-adv-x="690" unicode="N" d="M66 0v674h178l139 -247q57 -99 111 -231h3q-13 116 -13 282v196h140v-674h-159l-145 259q-79 144 -117 238h-4q7 -125 7 -295v-202h-140z"/>
<glyph glyph-name="O" horiz-adv-x="718" unicode="O" d="M359 110q78 0 120.5 64.5t42.5 161.5q0 94 -41.5 161t-120.5 67q-77 0 -120.5 -65t-43.5 -164q0 -97 43.5 -161t119.5 -64zM353 -11q-145 0 -231.5 95t-86.5 248q0 157 91.5 255t239.5 98t232.5 -97.5t84.5 -249.5q0 -164 -94 -256.5t-236 -92.5z"/>
<glyph glyph-name="P" horiz-adv-x="581" unicode="P" d="M217 358q18 -3 51 -3q60 0 95 29t35 80q0 47 -31 73t-88 26q-47 0 -62 -4v-201zM66 0v665q82 14 206 14q139 0 206 -55q72 -55 72 -156q0 -102 -62 -159q-76 -72 -218 -72q-11 0 -53 3v-240h-151z"/>
<glyph glyph-name="Q" horiz-adv-x="718" unicode="Q" d="M358 110q78 0 121 64.5t43 161.5q0 96 -42 162t-121 66q-77 0 -120 -66t-43 -162q0 -97 42.5 -161.5t119.5 -64.5zM35 334q0 155 91.5 253t239.5 98q147 0 232 -96.5t85 -245.5q0 -109 -44 -188.5t-115 -110.5v-4q51 -15 162 -38l-44 -118q-86 25 -266 94q-17 8 -47 11 q-124 9 -209 97t-85 248z"/>
<glyph glyph-name="R" horiz-adv-x="593" unicode="R" d="M217 375h60q57 0 89 26t32 71t-29.5 69t-82.5 25q-42 0 -69 -5v-186zM66 0v665q86 14 203 14q151 0 218 -53q62 -50 62 -141q0 -60 -35.5 -104t-83.5 -62v-3q64 -25 90 -126q49 -179 55 -190h-156q-19 33 -47 157q-13 62 -37.5 84.5t-72.5 23.5h-45v-265h-151z"/>
<glyph glyph-name="S" horiz-adv-x="540" unicode="S" d="M40 31l31 126q80 -42 169 -42q52 0 79.5 19.5t27.5 53.5q0 30 -25.5 51.5t-86.5 42.5q-187 68 -187 200q0 88 69.5 145t185.5 57q101 0 172 -33l-33 -123q-72 32 -141 32q-47 0 -72.5 -19t-25.5 -46q0 -30 27.5 -49t97.5 -46q90 -33 132 -81.5t42 -119.5 q0 -91 -69 -150.5t-202 -59.5q-55 0 -107.5 12.5t-83.5 29.5z"/>
<glyph glyph-name="T" horiz-adv-x="548" unicode="T" d="M196 0v546h-182v128h519v-128h-184v-546h-153z"/>
<glyph glyph-name="U" horiz-adv-x="681" unicode="U" d="M65 296v378h152v-390q0 -85 32 -129.5t91 -44.5q124 0 124 174v390h152v-380q0 -153 -73 -229t-209 -76q-269 0 -269 307z"/>
<glyph glyph-name="V" horiz-adv-x="636" unicode="V" d="M226 0l-217 674h167l81 -285q42 -143 61 -241h3q16 79 61 238l86 288h162l-227 -674h-177z"/>
<glyph glyph-name="W" horiz-adv-x="888" unicode="W" d="M174 0l-159 674h163l52 -277q20 -118 38 -236h2q10 65 45 237l57 276h162l55 -285q25 -150 35 -225h2q6 47 39 234l54 276h156l-174 -674h-165l-57 290q-20 94 -33 208h-2q-17 -117 -37 -209l-65 -289h-168z"/>
<glyph glyph-name="X" horiz-adv-x="613" unicode="X" d="M16 0l195 341l-188 333h175l59 -122q5 -11 51 -113h2q28 70 46 112l57 123h173l-189 -329l200 -345h-176l-61 122q-12 24 -60 121h-2q-15 -41 -53 -121l-55 -122h-174z"/>
<glyph glyph-name="Y" horiz-adv-x="603" unicode="Y" d="M221 0v276l-212 398h175l68 -162q22 -51 52 -129h2q20 54 51 129l67 162h172l-222 -393v-281h-153z"/>
<glyph glyph-name="Z" horiz-adv-x="577" unicode="Z" d="M23 0v82l321 462v4h-291v126h489v-88l-314 -456v-4h319v-126h-524z"/>
<glyph glyph-name="bracketleft" horiz-adv-x="332" unicode="[" d="M68 -135v843h205v-84h-96v-675h96v-84h-205z"/>
<glyph glyph-name="backslash" horiz-adv-x="331" unicode="\" d="M213 -40l-201 725h101l201 -725h-101z"/>
<glyph glyph-name="bracketright" horiz-adv-x="332" unicode="]" d="M59 -51h95v675h-95v84h205v-843h-205v84z"/>
<glyph glyph-name="asciicircum" d="M42 177l210 473h92l209 -473h-108l-147 356h-3l-146 -356h-107z" unicode="^"/>
<glyph glyph-name="underscore" horiz-adv-x="500" unicode="_" d="M0 -75h500v-50h-500v50z"/>
<glyph glyph-name="grave" horiz-adv-x="300" unicode="`" d="M120 550l-127 151h147l94 -151h-114z"/>
<glyph glyph-name="a" horiz-adv-x="528" unicode="a" d="M179 154q0 -28 17 -43t44 -15t48.5 16t29.5 40q3 7 3 25v55q-142 -2 -142 -78zM29 138q0 93 76.5 140.5t210.5 47.5v7q0 63 -90 63q-70 0 -134 -37l-28 97q75 44 190 44q114 0 164 -58t50 -153v-170q0 -74 8 -119h-137l-9 48h-3q-50 -59 -140 -59q-71 0 -114.5 44 t-43.5 105z"/>
<glyph glyph-name="b" horiz-adv-x="598" unicode="b" d="M216 181q8 -31 32.5 -51.5t56.5 -20.5q49 0 77 36t28 102q0 60 -27 98t-78 38q-32 0 -57 -21t-32 -54q-3 -14 -3 -29v-71q0 -15 3 -27zM56 0q4 64 4 146v564h153v-279h2q48 69 148 69q89 0 146 -68t56 -179q0 -125 -66.5 -194.5t-158.5 -69.5q-99 0 -145 79h-2l-7 -68 h-130z"/>
<glyph glyph-name="c" horiz-adv-x="451" unicode="c" d="M33 240q0 112 74 186t205 74q66 0 117 -19l-24 -114q-32 16 -85 16q-60 0 -96 -38.5t-35 -98.5q0 -65 38 -101.5t95 -36.5q45 0 88 16l18 -112q-54 -23 -136 -23q-119 0 -189 68t-70 183z"/>
<glyph glyph-name="d" d="M188 245q0 -62 28 -98.5t75 -36.5q33 0 57 20.5t31 52.5q4 15 4 35v63q0 14 -3 29q-6 31 -30 52t-58 21q-50 0 -77 -39t-27 -99zM33 242q0 118 64 188t154 70q94 0 130 -55h2v265h152v-564q0 -82 4 -146h-136l-6 71h-2q-23 -40 -64 -61t-89 -21q-89 0 -149 70t-60 183z " unicode="d"/>
<glyph glyph-name="e" horiz-adv-x="528" unicode="e" d="M177 300h180q0 36 -20 67.5t-66 31.5q-43 0 -66.5 -31t-27.5 -68zM33 239q0 65 25 122.5t83 98t139 40.5q110 0 164.5 -71t54.5 -173q0 -27 -6 -60h-315q4 -45 42.5 -69t95.5 -24q72 0 135 21l20 -104q-77 -31 -177 -31q-123 0 -192 67t-69 183z"/>
<glyph glyph-name="f" horiz-adv-x="342" unicode="f" d="M78 0v377h-65v112h65v19q0 106 62 164q53 49 135 49q52 0 83 -12l-16 -116q-23 7 -43 7q-69 0 -69 -86v-25h98v-112h-97v-377h-153z"/>
<glyph glyph-name="g" horiz-adv-x="584" unicode="g" d="M188 246q0 -57 26 -93.5t73 -36.5q29 0 51 17t30 44q4 24 4 41v71q0 17 -3 29q-8 31 -29.5 49t-52.5 18q-43 0 -71 -37t-28 -102zM105 -57q66 -36 142 -36q57 0 92 32t35 97v32h-2q-45 -64 -132 -64q-91 0 -149 67t-58 171q0 116 64 187t158 71q91 0 134 -69h2l5 58h132 q-4 -64 -4 -146v-272q0 -154 -75 -220q-68 -60 -198 -60q-108 0 -176 37z"/>
<glyph glyph-name="h" horiz-adv-x="586" unicode="h" d="M60 0v710h153v-280h2q23 32 60 51q36 19 79 19q77 0 124 -54.5t47 -160.5v-285h-152v269q0 108 -79 108q-54 0 -76 -53q-5 -17 -5 -34v-290h-153z"/>
<glyph glyph-name="i" horiz-adv-x="274" unicode="i" d="M135 549q-35 0 -56.5 22t-21.5 54q0 33 22 55t58 22t58 -21.5t22 -55.5q1 -32 -22 -54t-60 -22zM60 0v489h153v-489h-153z"/>
<glyph glyph-name="j" horiz-adv-x="291" unicode="j" d="M155 549q-35 0 -57.5 22t-21.5 54q-1 33 21.5 55t58.5 22q37 0 58.5 -21.5t22.5 -55.5q0 -32 -22.5 -54t-59.5 -22zM81 95v394h152v-431q0 -149 -69 -213q-64 -60 -189 -60l-15 118q65 6 90 33q31 31 31 159z"/>
<glyph glyph-name="k" horiz-adv-x="542" unicode="k" d="M60 0v710h153v-427h2q33 55 35 58l99 148h183l-175 -199l200 -290h-187l-119 201l-38 -48v-153h-153z"/>
<glyph glyph-name="l" horiz-adv-x="274" unicode="l" d="M60 0v710h153v-710h-153z"/>
<glyph glyph-name="m" horiz-adv-x="860" unicode="m" d="M60 0v333q0 68 -4 156h130l6 -66h3q50 77 148 77q48 0 83 -22t51 -61h2q26 37 63 59q40 24 93 24q74 0 119.5 -53.5t45.5 -158.5v-288h-148v265q0 112 -72 112q-25 0 -43.5 -14.5t-26.5 -37.5q-5 -15 -5 -39v-286h-149v274q0 48 -17.5 75.5t-52.5 27.5q-27 0 -45.5 -16.5 t-25.5 -37.5q-6 -14 -6 -38v-285h-149z"/>
<glyph glyph-name="n" horiz-adv-x="586" unicode="n" d="M60 0v333q0 68 -4 156h133l7 -68h3q19 31 57.5 55t93.5 24q79 0 127 -53t48 -157v-290h-152v271q0 106 -77 106q-29 0 -48.5 -16.5t-28.5 -40.5q-6 -14 -6 -38v-282h-153z"/>
<glyph glyph-name="o" horiz-adv-x="576" unicode="o" d="M190 244q0 -62 25.5 -104t73.5 -42q47 0 72.5 41t25.5 104q0 60 -23.5 104.5t-74.5 44.5t-75 -44t-24 -104zM33 244q0 120 74.5 188t186.5 68t181 -69t69 -186q0 -66 -23.5 -117t-62 -80t-83.5 -44t-93 -15q-108 0 -178.5 68.5t-70.5 186.5z"/>
<glyph glyph-name="p" horiz-adv-x="598" unicode="p" d="M216 178q8 -31 32.5 -52t56.5 -21q49 0 77 38t28 101q0 61 -27 99t-76 38q-32 0 -57.5 -22t-33.5 -55q-3 -12 -3 -27v-67q0 -18 3 -32zM213 45v-243h-153v523q0 72 -4 164h133l7 -68h2q56 79 163 79q84 0 144 -68t60 -181q0 -125 -66.5 -193.5t-156.5 -68.5 q-91 0 -127 56h-2z"/>
<glyph glyph-name="q" d="M188 244q0 -62 27.5 -98.5t75.5 -36.5q32 0 56 19t32 50q4 20 4 33v73q0 13 -3 25q-6 30 -30.5 51t-57.5 21q-50 0 -77 -38t-27 -99zM33 238q0 123 65 192.5t151 69.5q96 0 136 -68h2l4 57h147q-3 -141 -3 -146v-541h-152v259h-2q-47 -72 -146 -72q-83 0 -142.5 68.5 t-59.5 180.5z" unicode="q"/>
<glyph glyph-name="r" horiz-adv-x="380" unicode="r" d="M60 0v328q0 105 -4 161h131l6 -90h4q17 50 54.5 75.5t77.5 25.5q21 0 33 -2v-143q-24 4 -42 4q-41 0 -68.5 -21t-35.5 -56q-3 -15 -3 -34v-248h-153z"/>
<glyph glyph-name="s" horiz-adv-x="435" unicode="s" d="M33 24l27 109q23 -14 61 -25.5t69 -11.5q66 0 66 41q0 19 -14.5 30.5t-56.5 25.5q-140 47 -140 147q0 70 54.5 115t144.5 45q82 0 138 -28l-27 -105q-56 28 -106 28q-27 0 -42.5 -11t-15.5 -29q0 -17 16.5 -28.5t62.5 -27.5q69 -24 100.5 -60t32.5 -91q0 -71 -55 -115 t-157 -44q-95 0 -158 35z"/>
<glyph glyph-name="t" horiz-adv-x="367" unicode="t" d="M123 32q-41 42 -41 145v200h-66v112h66v105l149 35v-140h109v-112h-109v-177q0 -46 13 -66t46 -20q28 0 46 5l1 -116q-40 -14 -98 -14q-75 0 -116 43z"/>
<glyph glyph-name="u" horiz-adv-x="583" unicode="u" d="M59 202v287h153v-262q0 -115 76 -115q28 0 48 15.5t28 37.5q5 15 5 33v291h153v-333q0 -74 4 -156h-133l-7 69h-2q-52 -80 -154 -80q-78 0 -124.5 51.5t-46.5 161.5z"/>
<glyph glyph-name="v" horiz-adv-x="530" unicode="v" d="M187 0l-178 489h165l66 -227q13 -45 28 -119h3q13 67 27 119l63 227h160l-182 -489h-152z"/>
<glyph glyph-name="w" horiz-adv-x="759" unicode="w" d="M153 0l-142 489h155l39 -200q17 -88 28 -161h2q1 6 36 159l52 202h120l49 -195q26 -110 36 -166h2q11 87 28 167l42 194h148l-149 -489h-143l-46 171q-19 68 -31 153h-2q-13 -79 -32 -152l-48 -172h-144z"/>
<glyph glyph-name="x" horiz-adv-x="520" unicode="x" d="M3 0l166 249l-162 240h170l48 -82q9 -14 22.5 -39.5t17.5 -32.5h3q21 45 37 75l43 79h165l-160 -233l162 -256h-172l-49 88q-22 38 -38 74h-3q-17 -37 -38 -74l-45 -88h-167z"/>
<glyph glyph-name="y" horiz-adv-x="523" unicode="y" d="M121 -66q42 22 62 61q9 10 9 21q0 12 -7 25l-179 448h169l73 -240q4 -16 12.5 -48.5t11.5 -42.5h4l21 91l60 240h163l-114 -322q-50 -140 -89.5 -211t-82.5 -110q-63 -56 -147 -67l-32 128q36 9 66 27z"/>
<glyph glyph-name="z" horiz-adv-x="468" unicode="z" d="M22 0v87l154 193q58 67 77 86v2h-214v121h400v-92l-147 -184q-58 -69 -80 -90v-3h235v-120h-425z"/>
<glyph glyph-name="braceleft" horiz-adv-x="341" unicode="{" d="M94 1q0 19 6 100q5 45 5 80q0 66 -81 68v77q81 2 81 68q0 35 -5 80q-6 78 -6 99q0 135 152 135h36v-84h-18q-61 -1 -61 -71q0 -25 5 -78q5 -35 5 -74q0 -52 -21 -77.5t-64 -35.5v-2q43 -9 64 -34.5t21 -77.5q0 -38 -5 -75q-5 -52 -5 -77q0 -70 61 -73h18v-84h-36 q-152 0 -152 136z"/>
<glyph glyph-name="bar" horiz-adv-x="283" unicode="|" d="M88 -250v1000h106v-1000h-106z"/>
<glyph glyph-name="braceright" horiz-adv-x="341" unicode="}" d="M59 -51h18q61 1 61 71q0 43 -5 78t-5 74q0 52 21 77.5t64 35.5v2q-43 9 -64 34.5t-21 77.5q0 38 5 75q5 35 5 77q0 70 -61 73h-18v84h36q152 0 152 -136q0 -19 -6 -100q-5 -45 -5 -80q0 -66 81 -68v-77q-81 -2 -81 -68q0 -35 5 -80q6 -78 6 -99q0 -135 -152 -135h-36v84z "/>
<glyph glyph-name="asciitilde" d="M43 192v6q0 92 37.5 136t101.5 44h4q53 0 136 -47q73 -40 95 -40q37 0 41 82h95v-16q0 -173 -134 -173q-55 0 -139 48q-4 2 -13.5 7.5t-13.5 8t-11.5 6.5t-11.5 6l-10 5t-9.5 4t-8.5 2.5t-9 2t-8 0.5q-42 0 -47 -82h-95z" unicode="~"/>
<glyph glyph-name="uni00A0" horiz-adv-x="202" unicode=" "/>
<glyph glyph-name="exclamdown" horiz-adv-x="285" unicode="¡" d="M134 312q-40 0 -64.5 25.5t-24.5 65.5t25 65t64 25q40 0 65 -25t25 -65q-1 -40 -25.5 -65.5t-64.5 -25.5zM55 -191l22 452h115l22 -452h-159z"/>
<glyph glyph-name="cent" horiz-adv-x="555" unicode="¢" d="M131 162q-56 64 -56 165q0 93 54 162t150 88v95h99v-91q51 -2 95 -19l-24 -113q-33 18 -89 18q-60 0 -95 -37t-35 -97q0 -65 37.5 -99.5t93.5 -34.5q55 0 98 17l19 -109q-39 -19 -101 -24v-94h-98v97q-93 15 -148 76z"/>
<glyph glyph-name="sterling" horiz-adv-x="555" unicode="£" d="M51 0v81q44 19 77.5 59t33.5 88q0 26 -3 40h-97v103h80q-8 40 -8 82q0 93 62.5 150.5t163.5 57.5q72 0 118 -24l-25 -115q-34 18 -84 18q-49 0 -71 -26.5t-22 -68.5q0 -37 9 -74h138v-103h-125v-9q0 -32 -9 -62q-14 -40 -49 -71v-2h267v-124h-456z"/>
<glyph glyph-name="currency" horiz-adv-x="555" unicode="¤" d="M276 218q37 0 65 30t28 87q0 48 -26 80.5t-66 32.5t-66.5 -32t-26.5 -82q0 -55 28.5 -85.5t63.5 -30.5zM88 68l-65 66l83 79q-36 49 -36 119q0 68 35 119l-87 78l67 69l76 -85q48 37 117 37q68 0 116 -35l77 83l66 -69l-87 -78q32 -53 32 -115q0 -73 -35 -121l85 -81 l-66 -66l-73 87q-46 -40 -117 -40t-116 39z"/>
<glyph glyph-name="yen" horiz-adv-x="555" unicode="¥" d="M46 160v70h155v65h-155v71h119l-164 284h164l70 -160q12 -28 42 -109h2q3 9 17.5 48t24.5 62l72 159h160l-171 -284h120v-71h-158v-65h158v-70h-158v-160h-143v160h-155z"/>
<glyph glyph-name="brokenbar" horiz-adv-x="283" unicode="¦" d="M88 174h106v-350h-106v350zM88 324v350h106v-350h-106z"/>
<glyph glyph-name="section" horiz-adv-x="561" unicode="§" d="M79 -34l29 93q72 -42 151 -42q41 0 65.5 13t24.5 38t-23 41t-82 35q-96 29 -148 66.5t-52 105.5q0 35 21.5 68.5t62.5 52.5q-17 14 -28.5 39.5t-11.5 52.5q0 73 61.5 114t156.5 41q92 0 158 -30l-24 -93q-56 29 -132 29q-43 0 -66 -13t-23 -35q0 -21 25 -36.5t82 -33.5 q94 -28 142 -66t48 -109q0 -76 -73 -122q44 -33 44 -92q0 -43 -21 -76t-55 -50.5t-70.5 -25.5t-74.5 -8q-117 0 -187 43zM250 264q111 -38 118 -42q29 19 29 52q0 45 -69 72q-12 4 -62.5 22t-67.5 26q-36 -18 -36 -51q0 -47 88 -79z"/>
<glyph glyph-name="dieresis" horiz-adv-x="300" unicode="¨" d="M256 557q-30 0 -50.5 20.5t-20.5 49.5q0 31 20.5 51t50.5 20q29 0 49 -20t20 -51q0 -30 -19.5 -50t-49.5 -20zM46 557q-31 0 -51.5 20.5t-20.5 49.5q0 31 20.5 51t51.5 20q29 0 48.5 -20t19.5 -51q0 -29 -19.5 -49.5t-48.5 -20.5z"/>
<glyph glyph-name="copyright" horiz-adv-x="677" unicode="©" d="M169 334q0 83 57.5 134.5t137.5 51.5q35 0 68 -8.5t42 -19.5l-15 -53q-38 22 -95 22q-58 0 -91 -33t-33 -91q0 -55 34 -90t89 -35q62 0 100 25l15 -52q-49 -32 -123 -32q-87 0 -136.5 51t-49.5 130zM97 338q0 -105 70.5 -178.5t171.5 -73.5q100 0 170 73.5t70 179.5 q0 105 -70 178.5t-170 73.5q-101 0 -171.5 -73.5t-70.5 -179.5zM340 30q-129 0 -218.5 90.5t-89.5 219.5q0 128 89.5 218t218.5 90q128 0 216.5 -90t88.5 -218q0 -129 -88.5 -219.5t-216.5 -90.5z"/>
<glyph glyph-name="ordfeminine" horiz-adv-x="377" unicode="ª" d="M179 329q16 0 30 8.5t19 21.5q6 8 6 22v35q-99 0 -99 -49q0 -17 13 -27.5t31 -10.5zM139 261q-48 0 -77.5 28t-29.5 70q0 56 53 86t145 30v6q0 7 -3.5 15t-18 16t-39.5 8q-54 0 -92 -26l-20 65q57 32 132 32q76 0 111 -39t35 -101v-107q0 -50 6 -78h-94l-7 34h-2 q-39 -39 -95 -39h-4z"/>
<glyph glyph-name="guillemotleft" horiz-adv-x="517" unicode="«" d="M240 252l129 190h106l-131 -190l131 -191h-106zM175 61l-129 191l129 190h106l-131 -190l131 -191h-106z"/>
<glyph glyph-name="logicalnot" d="M40 329v93h516v-316h-98v223h-418z" unicode="¬"/>
<glyph glyph-name="uni00AD" horiz-adv-x="321" unicode="­" d="M30 212v101h261v-101h-261z"/>
<glyph glyph-name="registered" horiz-adv-x="459" unicode="®" d="M230 383q54 0 89.5 37.5t35.5 92.5q0 54 -35.5 91.5t-89.5 37.5t-89.5 -37.5t-35.5 -92.5q0 -54 35.5 -91.5t89.5 -37.5zM230 340q-74 0 -126 50.5t-52 122.5q0 71 52 121.5t126 50.5t125.5 -50.5t51.5 -121.5q0 -72 -51.5 -122.5t-125.5 -50.5zM210 522h14q30 0 30 20 q0 19 -28 19q-3 0 -9 -0.5t-7 -0.5v-38zM159 431v158q20 6 70 6q44 0 63 -12q18 -11 18 -35q0 -26 -37 -36v-2q26 -7 33 -41q6 -28 10 -38h-54q-5 6 -11 34q-6 23 -27 23h-16v-57h-49z"/>
<glyph glyph-name="macron" horiz-adv-x="300" unicode="¯" d="M12 579v95h277v-95h-277z"/>
<glyph glyph-name="degree" horiz-adv-x="356" unicode="°" d="M178 461q31 0 51.5 22t20.5 55q0 32 -19 55t-53 23q-31 0 -51 -23.5t-20 -55.5t20.5 -54t50.5 -22zM178 391q-65 0 -108 42.5t-43 102.5q0 62 44 105.5t108 43.5q66 0 109 -42.5t43 -103.5q0 -63 -45 -105.5t-108 -42.5z"/>
<glyph glyph-name="plusminus" d="M40 0v93h516v-93h-516zM249 137v176h-209v93h209v173h98v-173h209v-93h-209v-176h-98z" unicode="±"/>
<glyph glyph-name="twosuperior" horiz-adv-x="351" unicode="²" d="M15 442v57l61 55q50 44 67 60t33 39.5t16 44.5t-15.5 34.5t-42.5 13.5q-45 0 -86 -28l-30 76q57 43 145 43q72 0 112 -34t40 -87q0 -33 -18 -65t-38 -51t-58 -50l-24 -19v-2h146v-87h-308z"/>
<glyph glyph-name="threesuperior" horiz-adv-x="347" unicode="³" d="M144 437q-88 0 -134 28l22 78q45 -26 98 -26q31 0 51.5 12.5t20.5 32.5q-1 24 -26.5 37t-61.5 13h-29v68h27q31 0 54.5 10t23.5 31q0 36 -52 36q-47 0 -92 -25l-22 73q56 32 141 32q69 0 107 -28t38 -71q0 -31 -23 -54.5t-60 -34.5v-2q42 -4 69.5 -29t27.5 -63 q0 -52 -49 -85t-131 -33z"/>
<glyph glyph-name="acute" horiz-adv-x="300" unicode="´" d="M68 550l96 151h152l-130 -151h-118z"/>
<glyph glyph-name="uni00B5" horiz-adv-x="584" unicode="µ" d="M60 -21v510h153v-273q0 -105 73 -105q28 0 49.5 16.5t29.5 37.5q5 9 5 33v291h154v-329q0 -31 9.5 -43.5t30.5 -13.5l-8 -105q-18 -9 -54 -9q-88 0 -111 78h-4q-13 -30 -44.5 -52t-75.5 -22q-45 0 -69 29v-42q0 -126 11 -178h-135q-14 37 -14 177z"/>
<glyph glyph-name="paragraph" horiz-adv-x="543" unicode="¶" d="M206 -47v311h-7q-54 0 -111 51t-57 139q0 34 7.5 64t28 60t52.5 51.5t85.5 35t122.5 13.5q95 0 142 -11v-714h-96v631h-71v-631h-96z"/>
<glyph glyph-name="periodcentered" horiz-adv-x="260" unicode="·" d="M129 166q-39 0 -64 26t-25 67t25 67t65 26t64.5 -26t24.5 -67t-24.5 -67t-65.5 -26z"/>
<glyph glyph-name="cedilla" horiz-adv-x="300" unicode="¸" d="M82 -89l41 93h81l-23 -49q31 -7 51.5 -27t20.5 -53q0 -49 -35 -71.5t-85 -22.5q-51 0 -84 20l19 61q26 -14 56 -14q36 0 36 26q0 30 -78 37z"/>
<glyph glyph-name="onesuperior" horiz-adv-x="300" unicode="¹" d="M118 442v295h-2l-79 -35l-16 82l112 48h101v-390h-116z"/>
<glyph glyph-name="ordmasculine" horiz-adv-x="386" unicode="º" d="M192 335q29 0 45.5 25.5t16.5 66.5q0 34 -16.5 62t-45.5 28q-31 0 -46 -28.5t-15 -64.5q0 -37 16.5 -63t44.5 -26zM191 261q-71 0 -119 44.5t-48 117.5q0 75 47.5 121.5t122.5 46.5q76 0 121.5 -46t45.5 -116q0 -80 -50 -124t-120 -44z"/>
<glyph glyph-name="guillemotright" horiz-adv-x="517" unicode="»" d="M234 61l131 191l-131 190h105l130 -190l-130 -191h-105zM42 61l132 191l-132 190h106l129 -190l-129 -191h-106z"/>
<glyph glyph-name="onequarter" horiz-adv-x="831" unicode="¼" d="M173 -11l369 672h83l-369 -672h-83zM549 165h85v73q0 24 4 74h-3q-20 -42 -36 -67l-52 -79zM441 90v64l166 239h135v-228h52v-75h-52v-90h-108v90h-193zM132 266v295h-2l-80 -35l-15 82l112 48h101v-390h-116z"/>
<glyph glyph-name="onehalf" horiz-adv-x="831" unicode="½" d="M149 -11l369 672h83l-370 -672h-82zM485 0v57l61 55q50 44 67 60t33 39.5t16 44.5t-15.5 34.5t-42.5 13.5q-45 0 -86 -28l-30 76q57 43 145 43q72 0 112 -34t40 -87q0 -33 -18.5 -65t-37.5 -50.5t-58 -50.5l-24 -19v-2h146v-87h-308zM119 266v295h-1l-80 -35l-15 82 l112 48h101v-390h-117z"/>
<glyph glyph-name="threequarters" horiz-adv-x="831" unicode="¾" d="M204 -11l370 672h82l-369 -672h-83zM559 165h85v73q0 14 2 39.5t2 34.5h-2q-25 -47 -36 -67l-53 -79zM451 90v64l166 239h135v-228h52v-75h-52v-90h-108v90h-193zM27 289l22 78q45 -26 98 -26q32 0 52 12.5t20 32.5q0 24 -25.5 37t-61.5 13h-30v68h28q31 0 54.5 10 t23.5 31q0 36 -53 36q-48 0 -91 -25l-22 73q55 32 141 32q69 0 106.5 -28t37.5 -71q0 -31 -22.5 -54.5t-59.5 -34.5v-2q42 -4 69.5 -29.5t27.5 -62.5q0 -52 -49.5 -85t-130.5 -33q-87 0 -135 28z"/>
<glyph glyph-name="questiondown" horiz-adv-x="447" unicode="¿" d="M40 -47q0 36 16 71t28.5 50.5t41.5 48.5q51 57 51 124v18h133v-26q0 -3 0.5 -7t0.5 -7q0 -72 -59 -143q-58 -67 -58 -105q0 -27 18.5 -42.5t54.5 -16.5q57 0 99 29l33 -109q-70 -41 -167 -41q-93 0 -142.5 44.5t-49.5 111.5zM246 312q-40 0 -64.5 25.5t-24.5 65.5 t24.5 65t64.5 25t64.5 -25t24.5 -65t-24.5 -65.5t-64.5 -25.5z"/>
<glyph glyph-name="Agrave" horiz-adv-x="656" unicode="À" d="M269 712l-120 121h169l84 -121h-133zM245 286h148l-41 144q-6 21 -34 129h-3q-28 -122 -30 -129zM17 0l206 674h200l210 -674h-165l-52 173h-193l-48 -173h-158z"/>
<glyph glyph-name="Aacute" horiz-adv-x="656" unicode="Á" d="M248 710l85 123h168l-119 -123h-134zM245 286h148l-41 144q-6 21 -34 129h-3q-28 -122 -30 -129zM17 0l206 674h200l210 -674h-165l-52 173h-193l-48 -173h-158z"/>
<glyph glyph-name="Acircumflex" horiz-adv-x="656" unicode="Â" d="M164 710l101 122h127l102 -122h-115l-50 62h-2l-50 -62h-113zM245 286h148l-41 144q-6 21 -34 129h-3q-28 -122 -30 -129zM17 0l206 674h200l210 -674h-165l-52 173h-193l-48 -173h-158z"/>
<glyph glyph-name="Atilde" horiz-adv-x="656" unicode="Ã" d="M168 718v10q0 64 25.5 98t68.5 34q32 0 74 -22q36 -21 49 -21q14 0 20 9.5t8 37.5h81v-12q0 -129 -94 -129q-37 0 -78 24q-32 17 -44 17q-26 0 -27 -46h-83zM245 286h148l-41 144q-6 21 -34 129h-3q-28 -122 -30 -129zM17 0l206 674h200l210 -674h-165l-52 173h-193 l-48 -173h-158z"/>
<glyph glyph-name="Adieresis" horiz-adv-x="656" unicode="Ä" d="M437 713q-31 0 -51 20.5t-20 50.5q0 29 20 49t51 20q29 0 49 -19.5t20 -49.5t-19.5 -50.5t-49.5 -20.5zM226 713q-31 0 -51.5 20.5t-20.5 50.5q0 29 20.5 49t51.5 20q29 0 48.5 -19.5t19.5 -49.5t-19.5 -50.5t-48.5 -20.5zM245 286h148l-41 144q-6 21 -34 129h-3 q-28 -122 -30 -129zM17 0l206 674h200l210 -674h-165l-52 173h-193l-48 -173h-158z"/>
<glyph glyph-name="Aring" horiz-adv-x="656" unicode="Å" d="M323 757q22 0 33 12t11 31q0 17 -12 30.5t-32 13.5t-31.5 -13.5t-11.5 -30.5t11.5 -30t31.5 -13zM324 702q-56 0 -88.5 27.5t-32.5 69.5q0 43 32 71t89 28q56 0 87.5 -27t31.5 -71t-32 -71t-87 -27zM245 286h148l-41 144q-6 21 -34 129h-3q-28 -122 -30 -129zM17 0 l206 674h200l210 -674h-165l-52 173h-193l-48 -173h-158z"/>
<glyph glyph-name="AE" horiz-adv-x="868" unicode="Æ" d="M278 306h134l-20 163q-2 17 -6.5 53l-5.5 44h-3q-21 -61 -35 -98zM3 0l287 674h513v-125h-276l17 -143h255v-124h-236l21 -157h256v-125h-387l-24 184h-196l-73 -184h-157z"/>
<glyph glyph-name="Ccedilla" horiz-adv-x="595" unicode="Ç" d="M538 138l23 -120q-62 -28 -162 -29l-16 -34q32 -7 52.5 -27.5t20.5 -53.5q0 -48 -35.5 -70.5t-84.5 -22.5q-50 0 -85 20l19 61q26 -14 57 -14q35 0 35 25q0 29 -78 38l36 82q-137 19 -211 110t-74 224q0 167 104.5 262t263.5 95q114 0 166 -30l-32 -120q-58 25 -127 25 q-95 0 -155 -57.5t-60 -165.5q0 -102 57.5 -161t158.5 -59q72 0 127 22z"/>
<glyph glyph-name="Egrave" horiz-adv-x="534" unicode="È" d="M227 712l-119 121h168l84 -121h-133zM66 0v674h415v-125h-262v-140h248v-124h-248v-160h277v-125h-430z"/>
<glyph glyph-name="Eacute" horiz-adv-x="534" unicode="É" d="M201 710l84 123h168l-119 -123h-133zM66 0v674h415v-125h-262v-140h248v-124h-248v-160h277v-125h-430z"/>
<glyph glyph-name="Ecircumflex" horiz-adv-x="534" unicode="Ê" d="M114 710l101 122h127l102 -122h-115l-50 62h-2l-50 -62h-113zM66 0v674h415v-125h-262v-140h248v-124h-248v-160h277v-125h-430z"/>
<glyph glyph-name="Edieresis" horiz-adv-x="534" unicode="Ë" d="M377 714q-31 0 -51 20t-20 50t20.5 50t50.5 20t50 -19.5t20 -50.5q0 -29 -20 -49.5t-50 -20.5zM166 714q-30 0 -50.5 20t-20.5 50t20.5 50t51.5 20q28 0 47.5 -20t19.5 -50q0 -29 -19.5 -49.5t-48.5 -20.5zM66 0v674h415v-125h-262v-140h248v-124h-248v-160h277v-125 h-430z"/>
<glyph glyph-name="Igrave" horiz-adv-x="285" unicode="Ì" d="M88 712l-119 121h168l85 -121h-134zM66 0v674h153v-674h-153z"/>
<glyph glyph-name="Iacute" horiz-adv-x="285" unicode="Í" d="M64 710l84 123h168l-119 -123h-133zM66 0v674h153v-674h-153z"/>
<glyph glyph-name="Icircumflex" horiz-adv-x="285" unicode="Î" d="M-22 710l101 122h127l101 -122h-114l-50 62h-2l-50 -62h-113zM66 0v674h153v-674h-153z"/>
<glyph glyph-name="Idieresis" horiz-adv-x="285" unicode="Ï" d="M248 714q-30 0 -50.5 20t-20.5 50t20.5 50t51.5 20q29 0 49 -20t20 -50q0 -29 -20 -49.5t-50 -20.5zM38 714q-31 0 -51.5 20t-20.5 50t20.5 50t51.5 20q28 0 47.5 -20t19.5 -50q0 -29 -19.5 -49.5t-47.5 -20.5zM66 0v674h153v-674h-153z"/>
<glyph glyph-name="Eth" horiz-adv-x="705" unicode="Ð" d="M226 112q14 -2 54 -2q108 0 168 59.5t60 179.5q0 107 -56 161t-157 54q-41 0 -69 -6v-155h134v-119h-134v-172zM74 0v284h-72v119h72v264q87 14 205 14q184 0 277 -70q114 -86 114 -257q0 -181 -112 -276q-106 -88 -311 -88q-97 0 -173 10z"/>
<glyph glyph-name="Ntilde" horiz-adv-x="690" unicode="Ñ" d="M185 718v10q0 64 25.5 98t67.5 34q31 0 75 -22q34 -21 48 -21q15 0 21 9.5t8 37.5h81v-12q0 -129 -94 -129q-36 0 -79 24q-31 17 -44 17q-25 0 -26 -46h-83zM66 0v674h178l139 -247q57 -99 111 -231h3q-13 116 -13 282v196h140v-674h-159l-145 259q-79 144 -117 238h-4 q7 -125 7 -295v-202h-140z"/>
<glyph glyph-name="Ograve" horiz-adv-x="718" unicode="Ò" d="M304 712l-119 122h168l85 -122h-134zM359 110q78 0 120.5 64.5t42.5 161.5q0 94 -41.5 161t-120.5 67q-77 0 -120.5 -65t-43.5 -164q0 -97 43.5 -161t119.5 -64zM353 -11q-145 0 -231.5 95t-86.5 248q0 157 91.5 255t239.5 98t232.5 -97.5t84.5 -249.5q0 -164 -94 -256.5 t-236 -92.5z"/>
<glyph glyph-name="Oacute" horiz-adv-x="718" unicode="Ó" d="M285 711l84 123h168l-119 -123h-133zM359 110q78 0 120.5 64.5t42.5 161.5q0 94 -41.5 161t-120.5 67q-77 0 -120.5 -65t-43.5 -164q0 -97 43.5 -161t119.5 -64zM353 -11q-145 0 -231.5 95t-86.5 248q0 157 91.5 255t239.5 98t232.5 -97.5t84.5 -249.5q0 -164 -94 -256.5 t-236 -92.5z"/>
<glyph glyph-name="Ocircumflex" horiz-adv-x="718" unicode="Ô" d="M194 711l101 122h127l102 -122h-115l-50 62h-2l-50 -62h-113zM359 110q78 0 120.5 64.5t42.5 161.5q0 94 -41.5 161t-120.5 67q-77 0 -120.5 -65t-43.5 -164q0 -97 43.5 -161t119.5 -64zM353 -11q-145 0 -231.5 95t-86.5 248q0 157 91.5 255t239.5 98t232.5 -97.5 t84.5 -249.5q0 -164 -94 -256.5t-236 -92.5z"/>
<glyph glyph-name="Otilde" horiz-adv-x="718" unicode="Õ" d="M196 717v10q0 64 25.5 98t68.5 34q35 0 74 -22q36 -21 49 -21q14 0 20 9.5t8 37.5h81v-12q0 -129 -94 -129q-34 0 -78 24q-32 17 -44 17q-26 0 -27 -46h-83zM359 110q78 0 120.5 64.5t42.5 161.5q0 94 -41.5 161t-120.5 67q-77 0 -120.5 -65t-43.5 -164q0 -97 43.5 -161 t119.5 -64zM353 -11q-145 0 -231.5 95t-86.5 248q0 157 91.5 255t239.5 98t232.5 -97.5t84.5 -249.5q0 -164 -94 -256.5t-236 -92.5z"/>
<glyph glyph-name="Odieresis" horiz-adv-x="718" unicode="Ö" d="M465 714q-31 0 -51 20t-20 50t20 50t51 20q29 0 49 -20t20 -50t-19.5 -50t-49.5 -20zM254 714q-31 0 -51.5 20.5t-20.5 49.5q0 30 20.5 50t51.5 20q29 0 48.5 -20t19.5 -50q0 -29 -19.5 -49.5t-48.5 -20.5zM359 110q78 0 120.5 64.5t42.5 161.5q0 94 -41.5 161t-120.5 67 q-77 0 -120.5 -65t-43.5 -164q0 -97 43.5 -161t119.5 -64zM353 -11q-145 0 -231.5 95t-86.5 248q0 157 91.5 255t239.5 98t232.5 -97.5t84.5 -249.5q0 -164 -94 -256.5t-236 -92.5z"/>
<glyph glyph-name="multiply" d="M40 67l192 196l-192 197l65 66l193 -197l192 197l66 -66l-192 -197l192 -196l-66 -67l-192 196l-192 -196z" unicode="×"/>
<glyph glyph-name="Oslash" horiz-adv-x="718" unicode="Ø" d="M285 131q31 -23 74 -23q79 0 124.5 63t45.5 168q0 60 -21 113l-3 1zM213 214h2l223 327q-34 25 -79 25q-79 0 -125 -63.5t-46 -165.5q0 -64 25 -123zM75 8l53 75q-93 98 -93 253q0 150 90.5 249.5t234.5 99.5q82 0 149 -35l48 70l87 -58l-50 -74q89 -95 89 -246 q0 -163 -90.5 -258t-233.5 -95q-79 0 -144 34l-57 -80z"/>
<glyph glyph-name="Ugrave" horiz-adv-x="681" unicode="Ù" d="M289 712l-119 121h168l85 -121h-134zM65 296v378h152v-390q0 -85 32 -129.5t91 -44.5q124 0 124 174v390h152v-380q0 -153 -73 -229t-209 -76q-269 0 -269 307z"/>
<glyph glyph-name="Uacute" horiz-adv-x="681" unicode="Ú" d="M260 710l84 123h168l-119 -123h-133zM65 296v378h152v-390q0 -85 32 -129.5t91 -44.5q124 0 124 174v390h152v-380q0 -153 -73 -229t-209 -76q-269 0 -269 307z"/>
<glyph glyph-name="Ucircumflex" horiz-adv-x="681" unicode="Û" d="M187 710l101 122h127l102 -122h-115l-50 62h-2l-50 -62h-113zM65 296v378h152v-390q0 -85 32 -129.5t91 -44.5q124 0 124 174v390h152v-380q0 -153 -73 -229t-209 -76q-269 0 -269 307z"/>
<glyph glyph-name="Udieresis" horiz-adv-x="681" unicode="Ü" d="M453 714q-31 0 -51 20t-20 50t20 50t51 20q29 0 49 -20t20 -50t-19.5 -50t-49.5 -20zM242 714q-31 0 -51.5 20.5t-20.5 49.5q0 30 20.5 50t51.5 20q29 0 48.5 -20t19.5 -50q0 -29 -19.5 -49.5t-48.5 -20.5zM65 296v378h152v-390q0 -85 32 -129.5t91 -44.5q124 0 124 174 v390h152v-380q0 -153 -73 -229t-209 -76q-269 0 -269 307z"/>
<glyph glyph-name="Yacute" horiz-adv-x="603" unicode="Ý" d="M230 708l84 123h168l-118 -123h-134zM221 0v276l-212 398h175l68 -162q22 -51 52 -129h2q20 54 51 129l67 162h172l-222 -393v-281h-153z"/>
<glyph glyph-name="Thorn" horiz-adv-x="580" unicode="Þ" d="M216 244q16 -4 63 -4q59 0 89 27t30 72q0 46 -30 71t-85 25q-43 0 -67 -4v-187zM66 0v674h150v-127q38 4 83 4q121 0 185 -54q65 -55 65 -146q0 -117 -74 -173t-191 -56q-49 0 -68 4v-126h-150z"/>
<glyph glyph-name="germandbls" horiz-adv-x="600" unicode="ß" d="M60 0v431q0 154 78 226q66 64 180 64q92 0 153.5 -51.5t61.5 -134.5q0 -50 -24 -81q-62 -25 -62 -70q0 -24 40 -66q48 -52 62 -82q17 -35 17 -75q0 -78 -54 -125t-149 -47q-67 0 -106 16l18 112q33 -14 70 -14q31 0 49 14.5t18 37.5q0 30 -37 68q-1 1 -16.5 17t-20 21 t-16 20.5t-16 25.5t-9 26t-4.5 31q0 74 87 125q7 19 7 35q0 35 -21.5 57.5t-56.5 22.5q-96 0 -96 -159v-445h-153z"/>
<glyph glyph-name="agrave" horiz-adv-x="528" unicode="à" d="M216 550l-127 151h147l94 -151h-114zM179 154q0 -28 17 -43t44 -15t48.5 16t29.5 40q3 7 3 25v55q-142 -2 -142 -78zM29 138q0 93 76.5 140.5t210.5 47.5v7q0 63 -90 63q-70 0 -134 -37l-28 97q75 44 190 44q114 0 164 -58t50 -153v-170q0 -74 8 -119h-137l-9 48h-3 q-50 -59 -140 -59q-71 0 -114.5 44t-43.5 105z"/>
<glyph glyph-name="aacute" horiz-adv-x="528" unicode="á" d="M188 550l96 151h152l-130 -151h-118zM179 154q0 -28 17 -43t44 -15t48.5 16t29.5 40q3 7 3 25v55q-142 -2 -142 -78zM29 138q0 93 76.5 140.5t210.5 47.5v7q0 63 -90 63q-70 0 -134 -37l-28 97q75 44 190 44q114 0 164 -58t50 -153v-170q0 -74 8 -119h-137l-9 48h-3 q-50 -59 -140 -59q-71 0 -114.5 44t-43.5 105z"/>
<glyph glyph-name="acircumflex" horiz-adv-x="528" unicode="â" d="M99 554l103 145h117l102 -145h-106l-54 80h-2l-53 -80h-107zM179 154q0 -28 17 -43t44 -15t48.5 16t29.5 40q3 7 3 25v55q-142 -2 -142 -78zM29 138q0 93 76.5 140.5t210.5 47.5v7q0 63 -90 63q-70 0 -134 -37l-28 97q75 44 190 44q114 0 164 -58t50 -153v-170 q0 -74 8 -119h-137l-9 48h-3q-50 -59 -140 -59q-71 0 -114.5 44t-43.5 105z"/>
<glyph glyph-name="atilde" horiz-adv-x="528" unicode="ã" d="M98 565v13q0 62 24 92t65 30q30 0 72 -23q38 -21 47 -21q13 0 20 8.5t9 35.5h78q0 -136 -89 -136q-27 0 -75 24q-35 19 -47 19q-25 0 -27 -42h-77zM179 154q0 -28 17 -43t44 -15t48.5 16t29.5 40q3 7 3 25v55q-142 -2 -142 -78zM29 138q0 93 76.5 140.5t210.5 47.5v7 q0 63 -90 63q-70 0 -134 -37l-28 97q75 44 190 44q114 0 164 -58t50 -153v-170q0 -74 8 -119h-137l-9 48h-3q-50 -59 -140 -59q-71 0 -114.5 44t-43.5 105z"/>
<glyph glyph-name="adieresis" horiz-adv-x="528" unicode="ä" d="M370 557q-30 0 -50.5 20.5t-20.5 49.5q0 31 20.5 51t50.5 20q29 0 49 -20t20 -51q0 -30 -19.5 -50t-49.5 -20zM160 557q-31 0 -51.5 20.5t-20.5 49.5q0 31 20.5 51t51.5 20q29 0 48.5 -20t19.5 -51q0 -29 -19.5 -49.5t-48.5 -20.5zM179 154q0 -28 17 -43t44 -15t48.5 16 t29.5 40q3 7 3 25v55q-142 -2 -142 -78zM29 138q0 93 76.5 140.5t210.5 47.5v7q0 63 -90 63q-70 0 -134 -37l-28 97q75 44 190 44q114 0 164 -58t50 -153v-170q0 -74 8 -119h-137l-9 48h-3q-50 -59 -140 -59q-71 0 -114.5 44t-43.5 105z"/>
<glyph glyph-name="aring" horiz-adv-x="528" unicode="å" d="M264 594q22 0 33.5 13t11.5 32q0 18 -11.5 32t-33.5 14q-20 0 -31 -13.5t-11 -32.5q0 -18 11 -31.5t31 -13.5zM266 538q-56 0 -89 28.5t-33 72.5t32.5 72.5t89.5 28.5q56 0 87.5 -27.5t31.5 -72.5q0 -46 -32.5 -74t-86.5 -28zM179 154q0 -28 17 -43t44 -15t48.5 16 t29.5 40q3 7 3 25v55q-142 -2 -142 -78zM29 138q0 93 76.5 140.5t210.5 47.5v7q0 63 -90 63q-70 0 -134 -37l-28 97q75 44 190 44q114 0 164 -58t50 -153v-170q0 -74 8 -119h-137l-9 48h-3q-50 -59 -140 -59q-71 0 -114.5 44t-43.5 105z"/>
<glyph glyph-name="ae" horiz-adv-x="802" unicode="æ" d="M460 306h172q1 19 -4.5 38.5t-25.5 37.5t-52 18q-43 0 -66.5 -31t-23.5 -63zM178 153q0 -27 18 -42t44 -15q56 0 78 52q4 8 4 29v52h-6q-138 0 -138 -76zM29 142q0 88 78 134t211 46v14q0 7 -4 15.5t-13 19t-29 17.5t-47 7q-71 0 -131 -38l-30 98q85 45 173 45 q116 0 161 -78h3q60 78 167 78q101 0 153 -72t52 -171q0 -11 -1.5 -30t-1.5 -24h-310q2 -46 38 -73.5t94 -27.5q71 0 137 26l21 -102q-71 -37 -180 -37q-62 0 -112 22.5t-74 65.5h-4q-63 -88 -182 -88q-78 0 -123.5 44t-45.5 109z"/>
<glyph glyph-name="ccedilla" horiz-adv-x="451" unicode="ç" d="M410 124l18 -112q-42 -19 -115 -23l-16 -34q31 -7 51.5 -27t20.5 -53q0 -49 -35 -71.5t-85 -22.5q-51 0 -84 20l19 61q26 -14 56 -14q36 0 36 26q0 30 -78 37l36 83q-94 16 -147.5 81t-53.5 165q0 112 74 186t205 74q66 0 117 -19l-24 -114q-32 16 -85 16 q-60 0 -96 -38.5t-35 -98.5q0 -65 38 -101.5t95 -36.5q45 0 88 16z"/>
<glyph glyph-name="egrave" horiz-adv-x="528" unicode="è" d="M236 550l-127 151h147l94 -151h-114zM177 300h180q0 36 -20 67.5t-66 31.5q-43 0 -66.5 -31t-27.5 -68zM33 239q0 65 25 122.5t83 98t139 40.5q110 0 164.5 -71t54.5 -173q0 -27 -6 -60h-315q4 -45 42.5 -69t95.5 -24q72 0 135 21l20 -104q-77 -31 -177 -31 q-123 0 -192 67t-69 183z"/>
<glyph glyph-name="eacute" horiz-adv-x="528" unicode="é" d="M207 550l96 151h152l-130 -151h-118zM177 300h180q0 36 -20 67.5t-66 31.5q-43 0 -66.5 -31t-27.5 -68zM33 239q0 65 25 122.5t83 98t139 40.5q110 0 164.5 -71t54.5 -173q0 -27 -6 -60h-315q4 -45 42.5 -69t95.5 -24q72 0 135 21l20 -104q-77 -31 -177 -31 q-123 0 -192 67t-69 183z"/>
<glyph glyph-name="ecircumflex" horiz-adv-x="528" unicode="ê" d="M113 554l103 145h117l102 -145h-106l-54 80h-2l-53 -80h-107zM177 300h180q0 36 -20 67.5t-66 31.5q-43 0 -66.5 -31t-27.5 -68zM33 239q0 65 25 122.5t83 98t139 40.5q110 0 164.5 -71t54.5 -173q0 -27 -6 -60h-315q4 -45 42.5 -69t95.5 -24q72 0 135 21l20 -104 q-77 -31 -177 -31q-123 0 -192 67t-69 183z"/>
<glyph glyph-name="edieresis" horiz-adv-x="528" unicode="ë" d="M386 557q-30 0 -50.5 20.5t-20.5 49.5q0 31 20 51t51 20q29 0 49 -20t20 -51q0 -30 -19.5 -50t-49.5 -20zM176 557q-31 0 -51.5 20.5t-20.5 49.5q0 31 20.5 51t51.5 20q29 0 48.5 -20t19.5 -51q0 -29 -19.5 -49.5t-48.5 -20.5zM177 300h180q0 36 -20 67.5t-66 31.5 q-43 0 -66.5 -31t-27.5 -68zM33 239q0 65 25 122.5t83 98t139 40.5q110 0 164.5 -71t54.5 -173q0 -27 -6 -60h-315q4 -45 42.5 -69t95.5 -24q72 0 135 21l20 -104q-77 -31 -177 -31q-123 0 -192 67t-69 183z"/>
<glyph glyph-name="igrave" horiz-adv-x="274" unicode="ì" d="M85 550l-127 151h147l94 -151h-114zM60 0v489h153v-489h-153z"/>
<glyph glyph-name="iacute" horiz-adv-x="274" unicode="í" d="M65 550l96 151h152l-130 -151h-118zM60 0v489h153v-489h-153z"/>
<glyph glyph-name="icircumflex" horiz-adv-x="274" unicode="î" d="M-24 554l103 145h117l102 -145h-106l-54 80h-2l-53 -80h-107zM60 0v489h153v-489h-153z"/>
<glyph glyph-name="idieresis" horiz-adv-x="274" unicode="ï" d="M243 557q-31 0 -51 20.5t-20 49.5q0 31 20 51t51 20q29 0 49 -20t20 -51q0 -30 -19.5 -50t-49.5 -20zM33 557q-31 0 -51.5 20t-20.5 50q0 31 20.5 51t51.5 20q28 0 47.5 -20.5t19.5 -50.5q0 -29 -19.5 -49.5t-47.5 -20.5zM60 0v489h153v-489h-153z"/>
<glyph glyph-name="eth" horiz-adv-x="575" unicode="ð" d="M33 237q0 105 67 169.5t165 66.5h7q34 0 64 -19l2 3q-40 51 -88 83l-143 -62l-27 60l105 47q-36 23 -94 47l66 86q82 -29 157 -80l139 60l30 -59l-106 -46q75 -57 122 -150q42 -81 42 -186q0 -130 -74.5 -199t-180.5 -69q-110 0 -181.5 67.5t-71.5 180.5zM190 238 q0 -60 25.5 -100t71.5 -40t71.5 39t25.5 104q0 76 -24 107q-27 32 -71 32q-51 0 -75 -43.5t-24 -98.5z"/>
<glyph glyph-name="ntilde" horiz-adv-x="586" unicode="ñ" d="M136 565v14q0 121 89 121q29 0 71 -23q38 -21 48 -21q12 0 19.5 8.5t9.5 35.5h78q0 -136 -90 -136q-26 0 -74 24q-35 19 -47 19q-25 0 -27 -42h-77zM60 0v333q0 68 -4 156h133l7 -68h3q19 31 57.5 55t93.5 24q79 0 127 -53t48 -157v-290h-152v271q0 106 -77 106 q-29 0 -48.5 -16.5t-28.5 -40.5q-6 -14 -6 -38v-282h-153z"/>
<glyph glyph-name="ograve" horiz-adv-x="576" unicode="ò" d="M248 550l-127 151h147l94 -151h-114zM190 244q0 -62 25.5 -104t73.5 -42q47 0 72.5 41t25.5 104q0 60 -23.5 104.5t-74.5 44.5t-75 -44t-24 -104zM33 244q0 120 74.5 188t186.5 68t181 -69t69 -186q0 -66 -23.5 -117t-62 -80t-83.5 -44t-93 -15q-108 0 -178.5 68.5 t-70.5 186.5z"/>
<glyph glyph-name="oacute" horiz-adv-x="576" unicode="ó" d="M214 550l96 151h152l-130 -151h-118zM190 244q0 -62 25.5 -104t73.5 -42q47 0 72.5 41t25.5 104q0 60 -23.5 104.5t-74.5 44.5t-75 -44t-24 -104zM33 244q0 120 74.5 188t186.5 68t181 -69t69 -186q0 -66 -23.5 -117t-62 -80t-83.5 -44t-93 -15q-108 0 -178.5 68.5 t-70.5 186.5z"/>
<glyph glyph-name="ocircumflex" horiz-adv-x="576" unicode="ô" d="M127 554l103 145h117l102 -145h-106l-54 80h-2l-53 -80h-107zM190 244q0 -62 25.5 -104t73.5 -42q47 0 72.5 41t25.5 104q0 60 -23.5 104.5t-74.5 44.5t-75 -44t-24 -104zM33 244q0 120 74.5 188t186.5 68t181 -69t69 -186q0 -66 -23.5 -117t-62 -80t-83.5 -44t-93 -15 q-108 0 -178.5 68.5t-70.5 186.5z"/>
<glyph glyph-name="otilde" horiz-adv-x="576" unicode="õ" d="M131 565v14q0 62 24 91.5t64 29.5q30 0 72 -23q38 -21 48 -21q12 0 19.5 8.5t8.5 35.5h79q0 -136 -90 -136q-25 0 -75 24q-33 19 -47 19q-24 0 -26 -42h-77zM190 244q0 -62 25.5 -104t73.5 -42q47 0 72.5 41t25.5 104q0 60 -23.5 104.5t-74.5 44.5t-75 -44t-24 -104z M33 244q0 120 74.5 188t186.5 68t181 -69t69 -186q0 -66 -23.5 -117t-62 -80t-83.5 -44t-93 -15q-108 0 -178.5 68.5t-70.5 186.5z"/>
<glyph glyph-name="odieresis" horiz-adv-x="576" unicode="ö" d="M394 557q-30 0 -50.5 20.5t-20.5 49.5q0 31 20.5 51t50.5 20q29 0 49 -20t20 -51q0 -30 -19.5 -50t-49.5 -20zM184 557q-31 0 -51.5 20.5t-20.5 49.5q0 31 20.5 51t51.5 20q29 0 48.5 -20t19.5 -51q0 -29 -19.5 -49.5t-48.5 -20.5zM190 244q0 -62 25.5 -104t73.5 -42 q47 0 72.5 41t25.5 104q0 60 -23.5 104.5t-74.5 44.5t-75 -44t-24 -104zM33 244q0 120 74.5 188t186.5 68t181 -69t69 -186q0 -66 -23.5 -117t-62 -80t-83.5 -44t-93 -15q-108 0 -178.5 68.5t-70.5 186.5z"/>
<glyph glyph-name="divide" d="M225 91q0 33 20.5 53.5t52.5 20.5q33 0 53 -20t20 -54q0 -33 -20 -53.5t-53 -20.5t-53 20.5t-20 53.5zM40 220v94h516v-94h-516zM298 369q-33 0 -53 20.5t-20 53.5t20.5 53.5t52.5 20.5q33 0 53 -20t20 -54q0 -33 -20 -53.5t-53 -20.5z" unicode="÷"/>
<glyph glyph-name="oslash" horiz-adv-x="576" unicode="ø" d="M237 116q19 -18 51 -18q50 0 79.5 39.5t29.5 104.5q0 44 -16 76l-2 1zM197 167l2 -1l142 208q-23 18 -54 18q-54 0 -81 -44.5t-27 -103.5q0 -47 18 -77zM74 -16l44 65q-85 69 -85 194q0 116 71 186.5t185 70.5q69 0 118 -26l47 69l53 -37l-45 -67q82 -72 82 -193 q0 -123 -75.5 -190t-179.5 -67q-69 0 -116 26l-48 -71z"/>
<glyph glyph-name="ugrave" horiz-adv-x="583" unicode="ù" d="M248 550l-127 151h147l94 -151h-114zM59 202v287h153v-262q0 -115 76 -115q28 0 48 15.5t28 37.5q5 15 5 33v291h153v-333q0 -74 4 -156h-133l-7 69h-2q-52 -80 -154 -80q-78 0 -124.5 51.5t-46.5 161.5z"/>
<glyph glyph-name="uacute" horiz-adv-x="583" unicode="ú" d="M223 550l96 151h151l-129 -151h-118zM59 202v287h153v-262q0 -115 76 -115q28 0 48 15.5t28 37.5q5 15 5 33v291h153v-333q0 -74 4 -156h-133l-7 69h-2q-52 -80 -154 -80q-78 0 -124.5 51.5t-46.5 161.5z"/>
<glyph glyph-name="ucircumflex" horiz-adv-x="583" unicode="û" d="M131 554l103 145h117l102 -145h-106l-54 80h-2l-53 -80h-107zM59 202v287h153v-262q0 -115 76 -115q28 0 48 15.5t28 37.5q5 15 5 33v291h153v-333q0 -74 4 -156h-133l-7 69h-2q-52 -80 -154 -80q-78 0 -124.5 51.5t-46.5 161.5z"/>
<glyph glyph-name="udieresis" horiz-adv-x="583" unicode="ü" d="M401 557q-31 0 -51 20.5t-20 49.5q0 31 20 51t51 20q29 0 49 -20t20 -51q0 -30 -19.5 -50t-49.5 -20zM191 557q-31 0 -51.5 20.5t-20.5 49.5q0 31 20.5 51t51.5 20q29 0 48.5 -20t19.5 -51q0 -29 -19.5 -49.5t-48.5 -20.5zM59 202v287h153v-262q0 -115 76 -115 q28 0 48 15.5t28 37.5q5 15 5 33v291h153v-333q0 -74 4 -156h-133l-7 69h-2q-52 -80 -154 -80q-78 0 -124.5 51.5t-46.5 161.5z"/>
<glyph glyph-name="yacute" horiz-adv-x="523" unicode="ý" d="M203 550l96 151h152l-130 -151h-118zM121 -66q42 22 62 61q9 10 9 21q0 12 -7 25l-179 448h169l73 -240q4 -16 12.5 -48.5t11.5 -42.5h4l21 91l60 240h163l-114 -322q-50 -140 -89.5 -211t-82.5 -110q-63 -56 -147 -67l-32 128q36 9 66 27z"/>
<glyph glyph-name="thorn" horiz-adv-x="598" unicode="þ" d="M227 153q26 -48 79 -48q47 0 75.5 38.5t28.5 102.5q0 59 -27 97t-73 38q-62 0 -87 -56q-10 -22 -10 -41v-85q0 -27 14 -46zM213 46v-244h-153v875h153v-247h2q48 70 145 70h5q82 0 141 -68.5t59 -182.5q0 -65 -20 -116.5t-53 -82t-71 -46t-77 -15.5q-86 0 -129 57h-2z "/>
<glyph glyph-name="OE" horiz-adv-x="936" unicode="Œ" d="M196 337q-1 -103 53 -165t150 -62q38 0 69 12v428q-33 14 -79 14q-82 0 -137.5 -60.5t-55.5 -166.5zM35 331q0 161 96 257.5t250 96.5q44 0 143 -11h359v-125h-263v-140h248v-124h-248v-160h278v-125h-386q-81 -11 -139 -11q-111 0 -189.5 48.5t-113.5 124t-35 169.5z "/>
<glyph glyph-name="oe" horiz-adv-x="869" unicode="œ" d="M524 301h174q0 37 -18 67.5t-67 30.5q-42 0 -65 -31.5t-24 -66.5zM190 244q0 -64 26 -105t72 -41t71 39.5t25 108.5q0 62 -24 104t-71 42q-53 0 -76 -43.5t-23 -104.5zM33 243q0 115 69.5 186t179.5 71q54 0 100.5 -22.5t71.5 -64.5h2q58 87 170 87q108 0 161 -71.5 t53 -172.5q0 -3 -5 -58h-309q2 -43 40 -69.5t93 -26.5q67 0 136 26l21 -102q-67 -37 -178 -37q-121 0 -181 86h-2q-60 -86 -184 -86q-102 0 -170 69t-68 185z"/>
<glyph glyph-name="Scaron" horiz-adv-x="540" unicode="Š" d="M215 711l-101 122h114l51 -62h2l50 62h113l-100 -122h-129zM40 31l31 126q80 -42 169 -42q52 0 79.5 19.5t27.5 53.5q0 30 -25.5 51.5t-86.5 42.5q-187 68 -187 200q0 88 69.5 145t185.5 57q101 0 172 -33l-33 -123q-72 32 -141 32q-47 0 -72.5 -19t-25.5 -46 q0 -30 27.5 -49t97.5 -46q90 -33 132 -81.5t42 -119.5q0 -91 -69 -150.5t-202 -59.5q-55 0 -107.5 12.5t-83.5 29.5z"/>
<glyph glyph-name="scaron" horiz-adv-x="435" unicode="š" d="M162 554l-103 145h107l53 -78h2l54 78h106l-103 -145h-116zM33 24l27 109q23 -14 61 -25.5t69 -11.5q66 0 66 41q0 19 -14.5 30.5t-56.5 25.5q-140 47 -140 147q0 70 54.5 115t144.5 45q82 0 138 -28l-27 -105q-56 28 -106 28q-27 0 -42.5 -11t-15.5 -29 q0 -17 16.5 -28.5t62.5 -27.5q69 -24 100.5 -60t32.5 -91q0 -71 -55 -115t-157 -44q-95 0 -158 35z"/>
<glyph glyph-name="Ydieresis" horiz-adv-x="603" unicode="Ÿ" d="M416 711q-30 0 -50.5 20.5t-20.5 50.5t20 50t51 20q30 0 49.5 -20t19.5 -50t-19.5 -50.5t-49.5 -20.5zM205 711q-31 0 -51.5 20.5t-20.5 50.5t20.5 50t51.5 20q29 0 48.5 -20t19.5 -50t-19.5 -50.5t-48.5 -20.5zM221 0v276l-212 398h175l68 -162q22 -51 52 -129h2 q20 54 51 129l67 162h172l-222 -393v-281h-153z"/>
<glyph glyph-name="circumflex" horiz-adv-x="300" unicode="ˆ" d="M-11 554l103 145h117l102 -145h-106l-54 80h-2l-53 -80h-107z"/>
<glyph glyph-name="tilde" horiz-adv-x="300" unicode="˜" d="M-7 565v14q0 121 89 121q29 0 71 -23q38 -21 48 -21q12 0 19.5 8.5t9.5 35.5h78q0 -136 -90 -136q-26 0 -74 24q-35 19 -47 19q-25 0 -27 -42h-77z"/>
<glyph glyph-name="theta" horiz-adv-x="570" unicode="θ" d="M288 95q50 0 75 57t25 155h-204q1 -99 28 -155.5t76 -56.5zM184 416h202q0 88 -26 143.5t-74 55.5t-75 -56.5t-27 -142.5zM285 -11q-120 0 -186 95t-66 276q0 160 67 260.5t192 100.5q122 0 183.5 -97t61.5 -264q0 -173 -63.5 -272t-188.5 -99z"/>
<glyph glyph-name="pi" horiz-adv-x="600" unicode="π" d="M53 0q21 72 37 181t16 187v6q-58 0 -88 -7l-15 89q35 33 174 33h406l-14 -115h-59v-221q0 -96 11 -153h-145q-18 25 -18 142v232h-105q-2 -93 -17 -206.5t-37 -167.5h-146z"/>
<glyph glyph-name="chi" horiz-adv-x="504" unicode="χ" d="M201 -64l-72 -162l-129 34l173 349l-169 332h164l95 -221h4q14 39 35 86l56 135h144l-168 -332l169 -349l-144 -34l-115 255l-5 -1q-4 -9 -16 -39.5t-22 -52.5z"/>
<glyph glyph-name="uni200C" horiz-adv-x="0" unicode="‌" d="M-81 767l-23 25l78 83l-78 82l23 27l81 -84l79 82l24 -25l-79 -82l79 -83l-24 -24l-79 80z"/>
<glyph glyph-name="uni200D" horiz-adv-x="0" unicode="‍" d="M-116 785h-34v109h301v-109h-34v73h-233v-73z"/>
<glyph glyph-name="uni200E" horiz-adv-x="0" unicode="‎" d="M39 767l-25 25l63 66h-191v36h191l-63 63l25 27l105 -109z"/>
<glyph glyph-name="endash" horiz-adv-x="482" unicode="–" d="M30 207v94h420v-94h-420z"/>
<glyph glyph-name="emdash" horiz-adv-x="815" unicode="—" d="M33 207v94h749v-94h-749z"/>
<glyph glyph-name="quoteleft" horiz-adv-x="260" unicode="‘" d="M27 413q45 147 120 271l91 8q-47 -134 -69 -270z"/>
<glyph glyph-name="quotesinglbase" horiz-adv-x="260" unicode="‚" d="M86 166l143 9q-50 -154 -121 -271l-92 -8q50 143 70 270z"/>
<glyph glyph-name="quotedblleft" horiz-adv-x="454" unicode="“" d="M221 413q46 147 120 271l92 8q-49 -140 -70 -270zM26 413q44 145 119 271l93 8q-51 -139 -70 -270z"/>
<glyph glyph-name="quotedblright" horiz-adv-x="454" unicode="”" d="M220 413q48 134 70 270l143 9q-50 -154 -121 -271zM24 413q51 142 70 270l143 9q-50 -154 -121 -271z"/>
<glyph glyph-name="dagger" horiz-adv-x="524" unicode="†" d="M193 -50l14 429l-172 -12v118l172 -12l-14 201h138l-14 -201l172 12v-118l-172 12l14 -429h-138z"/>
<glyph glyph-name="daggerdbl" horiz-adv-x="524" unicode="‡" d="M34 131v118l170 -13v159l-170 -13v118l170 -12l-10 186h136l-10 -186l169 12v-118l-169 13v-159l169 13v-118l-169 11l10 -192h-136l10 192z"/>
<glyph glyph-name="ellipsis" horiz-adv-x="1000" unicode="…" d="M744 81q0 41 25.5 67t64.5 26q40 0 64.5 -25.5t25.5 -67.5q0 -41 -25 -66.5t-65 -25.5t-65 25.5t-25 66.5zM410 81q0 41 25.5 67t64.5 26q40 0 64.5 -25.5t25.5 -67.5q0 -41 -25 -66.5t-65 -25.5t-65 25.5t-25 66.5zM76 81q0 41 25.5 67t64.5 26q40 0 64.5 -25.5 t25.5 -67.5q0 -41 -25 -66.5t-65 -25.5t-65 25.5t-25 66.5z"/>
<glyph glyph-name="perthousand" horiz-adv-x="1285" unicode="‰" d="M1012 191q0 -53 17.5 -85t49.5 -32q64 0 64 117t-65 117q-32 0 -49 -32.5t-17 -84.5zM899 187q0 89 50 146.5t132 57.5t129 -54t47 -139q0 -97 -53 -152t-128 -55q-76 0 -126 53.5t-51 142.5zM609 187q0 -52 17.5 -82.5t49.5 -30.5q63 0 63 117t-64 117q-66 0 -66 -121z M495 187q0 89 50 146.5t132 57.5t129 -54t47 -139q0 -97 -53 -152t-128 -55q-76 0 -126.5 53.5t-50.5 142.5zM211 -11l373 671h82l-373 -671h-82zM207 344q64 0 64 117t-64 117q-33 0 -50 -33t-17 -85q0 -53 17.5 -84.5t49.5 -31.5zM204 260q-76 0 -126.5 53.5t-50.5 142.5 t50 147t132 58t128.5 -54t46.5 -139q0 -97 -52.5 -152.5t-127.5 -55.5z"/>
<glyph glyph-name="guilsinglleft" horiz-adv-x="323" unicode="‹" d="M175 61l-129 191l129 190h106l-130 -190l130 -191h-106z"/>
<glyph glyph-name="guilsinglright" horiz-adv-x="323" unicode="›" d="M42 61l137 191l-137 190h105l136 -190l-136 -191h-105z"/>
<glyph glyph-name="fraction" horiz-adv-x="125" unicode="⁄" d="M-81 -11h-82l369 672h83z"/>
<glyph glyph-name="Euro" horiz-adv-x="555" unicode="€" d="M126 103q-43 54 -57 130h-64v71h55v16q0 6 0.5 16t0.5 15h-56v70h67q17 79 69 137q90 103 232 103q83 0 150 -31l-29 -113q-57 24 -111 24q-79 0 -122 -55q-23 -23 -32 -65h249v-70h-265q-1 -10 -1 -31v-16h266v-71h-252q8 -42 33 -70q45 -51 130 -51q61 0 113 26 l24 -111q-68 -38 -156 -38q-159 0 -244 114z"/>
<glyph glyph-name="trademark" horiz-adv-x="650" unicode="™" d="M285 401l17 273h128l18 -67q13 -69 16 -87h1q7 33 19 87l21 67h119l15 -273h-80l-5 120v50t-1 56h-5q-22 -103 -23 -106l-28 -115h-79l-24 116q-2 11 -8 48.5t-10 56.5h-4q-3 -102 -3 -106l-6 -120h-78zM104 401v206h-78v67h240v-67h-79v-206h-83z"/>
<glyph glyph-name="partialdiff" horiz-adv-x="580" unicode="∂" d="M175 210q0 -46 24 -72.5t60 -26.5q45 0 78 47t40 110q-9 28 -35 50.5t-63 22.5q-45 0 -74.5 -37.5t-29.5 -93.5zM22 212q0 105 61.5 176t160.5 71q52 0 90 -22.5t57 -51.5h1v16q0 91 -46 149.5t-122 58.5q-73 0 -133 -37l-44 102q84 58 197 58q129 0 213.5 -98.5 t84.5 -261.5q0 -181 -86 -282t-213 -101q-105 0 -163 68.5t-58 154.5z"/>
<glyph glyph-name="product" horiz-adv-x="663" unicode="∏" d="M103 -90v614h-93v126h641v-126h-93v-614h-141v614h-172v-614h-142z"/>
<glyph glyph-name="summation" horiz-adv-x="543" unicode="∑" d="M14 -4l218 281l-206 273v100h487v-125h-294v-3l177 -239l-187 -244v-4h329v-125h-524v86z"/>
<glyph glyph-name="minus" d="M40 220v94h516v-94h-516z" unicode="−"/>
<glyph glyph-name="radical" horiz-adv-x="588" unicode="√" d="M303 144q13 -37 24 -82h1q2 7 7.5 36.5t10.5 48.5l164 693h103l-229 -920h-102l-158 411l-79 -31l-25 68l177 73z"/>
<glyph glyph-name="infinity" horiz-adv-x="752" unicode="∞" d="M195 189q21 0 44.5 13t37 25t36.5 36l-18.5 18.5t-23 22t-21 17t-26.5 14.5t-26 4q-31 0 -52 -21.5t-21 -53.5q0 -33 20 -54t50 -21zM437 265l18.5 -18.5t23 -22t21 -16.5t27 -15t25.5 -4q31 0 52.5 21.5t21.5 53.5q0 33 -20.5 54t-50.5 21q-21 0 -45 -14t-35 -23.5 t-38 -36.5zM188 96q-72 0 -116.5 48t-44.5 120q0 69 47.5 118t121.5 49q34 0 70 -17.5t57 -35t53 -49.5q2 2 15.5 14.5t16 15t15 13.5t17.5 14t16.5 12t18.5 11.5t19 8t22 7.5t22 4t25 2q71 0 116.5 -47.5t45.5 -119.5q0 -69 -48 -118.5t-122 -49.5q-34 0 -70 17.5 t-57.5 35.5t-53.5 50q-2 -2 -15 -14.5t-16 -15t-15 -14t-17 -14.5t-16.5 -11.5t-18.5 -11.5t-19 -8.5t-22 -7.5t-22 -4t-25 -2z"/>
<glyph glyph-name="approxequal" d="M71 73l-51 64q28 40 71.5 66.5t91.5 26.5q15 0 29.5 -2t28.5 -7t22.5 -8t23.5 -10t19 -9q5 -2 22 -10t26.5 -12t26.5 -8t33 -4q64 0 110 63l54 -57q-26 -44 -70 -72t-94 -28q-11 0 -21 1t-20.5 3.5t-17.5 4.5t-18.5 6.5t-15 6.5t-16 7.5t-13.5 6.5q-5 2 -22.5 10.5 t-27 12t-27 7.5t-34.5 4q-57 0 -110 -63zM69 285l-50 62q28 41 70.5 68t92.5 27q20 0 39.5 -4t29.5 -8t30 -13t24 -11q6 -2 22.5 -10t26 -12t26 -8t32.5 -4q53 0 108 63l56 -59q-27 -44 -69.5 -71t-92.5 -27q-15 0 -29 2t-28.5 7t-22.5 8t-23.5 10t-19.5 9q-5 2 -22.5 10.5 t-27 12t-26.5 7.5t-34 4q-57 0 -112 -63z" unicode="≈"/>
<glyph glyph-name="notequal" d="M87 13l65 102h-112v93h171l76 119h-247v94h307l62 101h98l-65 -101h114v-94h-174l-75 -119h249v-93h-309l-62 -102h-98z" unicode="≠"/>
<glyph glyph-name="lessequal" d="M59 0v87h479v-87h-479zM58 294v91l480 176v-101l-351 -120v-2l351 -119v-102z" unicode="≤"/>
<glyph glyph-name="greaterequal" d="M58 0v87h479v-87h-479zM58 117v102l350 119v2l-350 120v101l480 -176v-91z" unicode="≥"/>
<glyph glyph-name="lozenge" horiz-adv-x="574" unicode="◊" d="M273 101q8 -15 14 -30h3q2 5 13 30l109 220l-112 226q-7 11 -14 30h-2q-2 -4 -7 -15t-7 -15l-109 -220zM230 -38l-190 362l190 362h113l191 -362l-191 -362h-113z"/>
</font>
</defs>
</svg>
