<?xml version="1.0" encoding="UTF-8" standalone="no"?>
<!DOCTYPE svg  PUBLIC '-//W3C//DTD SVG 1.1//EN'  'http://www.w3.org/Graphics/SVG/1.1/DTD/svg11.dtd'>
<svg xmlns="http://www.w3.org/2000/svg">
<defs>
<font id="MyriadArabic-Regular" horiz-adv-x="513">
<font-face underline-position="-25" font-weight="400" descent="-280" panose-1="1 1 1 1 1 1 1 1 1 1" units-per-em="1400" unicode-range="U+0020-25CA" bbox="-158 -250 1125 984" x-height="484" underline-thickness="24" font-family="MyriadArabic" ascent="1120" cap-height="674"/>
<missing-glyph horiz-adv-x="1400"/>
<glyph glyph-name=".notdef" horiz-adv-x="1400"/>
<glyph glyph-name=".null" horiz-adv-x="0"/>
<glyph glyph-name="nonmarkingreturn" horiz-adv-x="466"/>
<glyph glyph-name="space" horiz-adv-x="266" unicode=" "/>
<glyph glyph-name="exclam" horiz-adv-x="294" unicode="!" d="M68 51q0 27 16.5 44.5t42.5 17.5t42.5 -17.5t16.5 -44.5t-16 -44.5t-43 -17.5q-26 0 -42.5 17.5t-16.5 44.5zM93 194l-14 480h96l-14 -480h-68z"/>
<glyph glyph-name="quotedbl" horiz-adv-x="337" unicode='&quot;' d="M217 452l-17 240h87l-17 -240h-53zM67 452l-16 240h86l-16 -240h-54z"/>
<glyph glyph-name="numbersign" horiz-adv-x="497" unicode="#" d="M93 0l26 195h-82v60h91l20 145h-87v59h95l26 191h58l-25 -191h104l26 191h59l-25 -191h81v-59h-90l-18 -145h85v-59h-94l-26 -196h-60l26 196h-104l-26 -196h-60zM188 255h104l19 145h-104z"/>
<glyph glyph-name="dollar" d="M65 59l24 68q63 -44 143 -44q54 0 87 27.5t33 69.5q0 40 -27.5 67.5t-85.5 51.5q-83 34 -124.5 73.5t-41.5 100.5q0 62 41 106t110 56v99h63v-96q74 -3 129 -36l-23 -66q-59 35 -127 35q-53 0 -79.5 -26t-26.5 -60q0 -37 27.5 -61.5t96.5 -53.5q80 -32 117.5 -74.5 t37.5 -107.5q0 -63 -42 -110.5t-117 -59.5v-104h-62v101q-94 2 -153 44z" unicode="$"/>
<glyph glyph-name="percent" horiz-adv-x="791" unicode="%" d="M523 192v-7q0 -61 23 -100.5t62 -39.5q42 0 62.5 40.5t20.5 107.5q0 65 -20 105.5t-63 40.5q-40 0 -62.5 -42t-22.5 -105zM454 188q0 94 45 149t112 55q69 0 109.5 -51t40.5 -143q0 -98 -44.5 -151.5t-111.5 -53.5q-64 0 -107.5 51t-43.5 144zM175 -12l383 674h55 l-382 -674h-56zM184 315q42 0 63 40t21 108q0 65 -20 105t-63 40q-42 0 -64 -43t-22 -108q0 -62 22.5 -102t62.5 -40zM182 262q-64 0 -107.5 51t-44.5 144q0 95 45 149.5t112 54.5q69 0 110 -51t41 -143q0 -98 -44.5 -151.5t-111.5 -53.5z"/>
<glyph glyph-name="ampersand" horiz-adv-x="604" unicode="&amp;" d="M238 405q57 33 84 62.5t27 70.5q0 35 -19.5 61t-57.5 26q-40 0 -63 -28.5t-23 -69.5q0 -56 52 -122zM115 191q0 -58 38.5 -97t98.5 -39q83 0 139 61q-128 141 -189 212q-87 -54 -87 -137zM31 178q0 123 131 197l1 3q-56 69 -56 140q0 67 45.5 117t125.5 50 q64 0 106.5 -39.5t42.5 -103.5q0 -54 -35 -97.5t-113 -82.5v-3q118 -137 164 -188q45 69 65 197h79q-29 -170 -97 -249q17 -18 54 -57.5t59 -61.5h-105q-11 10 -31 31.5t-32 33.5q-83 -76 -197 -76q-95 0 -151 55t-56 134z"/>
<glyph glyph-name="quotesingle" horiz-adv-x="188" unicode="&apos;" d="M67 452l-16 240h86l-16 -240h-54z"/>
<glyph glyph-name="parenleft" horiz-adv-x="327" unicode="(" d="M206 -141q-139 181 -139 426q1 249 139 433h70q-136 -184 -136 -433q0 -235 136 -426h-70z"/>
<glyph glyph-name="parenright" horiz-adv-x="326" unicode=")" d="M51 -141q135 181 135 433q0 236 -135 426h70q139 -183 139 -426q-1 -251 -139 -433h-70z"/>
<glyph glyph-name="asterisk" horiz-adv-x="415" unicode="*" d="M140 335l-57 36l95 122v2l-148 -19v68l146 -19l1 2l-94 123l61 34l62 -139h2l61 140l60 -35l-95 -124v-2l151 20v-68l-151 18v-2l96 -121l-62 -35l-61 140h-2z"/>
<glyph glyph-name="plus" horiz-adv-x="596" unicode="+" d="M40 237v60h226v235h64v-235h226v-60h-226v-237h-64v237h-226z"/>
<glyph glyph-name="comma" horiz-adv-x="207" unicode="," d="M76 116l98 10q-18 -64 -46.5 -136t-49.5 -107l-61 -7q42 114 59 240z"/>
<glyph glyph-name="hyphen" horiz-adv-x="304" unicode="-" d="M30 238v65h244v-65h-244z"/>
<glyph glyph-name="period" horiz-adv-x="207" unicode="." d="M52 51q0 28 17 46t43 18t42.5 -18t16.5 -46q0 -27 -16.5 -44.5t-43.5 -17.5q-26 0 -42.5 17.5t-16.5 44.5z"/>
<glyph glyph-name="slash" horiz-adv-x="343" unicode="/" d="M-1 -40l279 725h68l-280 -725h-67z"/>
<glyph glyph-name="zero" d="M256 57q66 0 99.5 71.5t33.5 199.5q0 124 -33 194t-99 70q-60 0 -96.5 -70.5t-36.5 -199.5q0 -125 35.5 -195t96.5 -70zM251 -11q-97 0 -155.5 87.5t-59.5 246.5q0 160 62 249t164 89t158.5 -86.5t56.5 -242.5q0 -165 -59 -254t-167 -89z" unicode="0"/>
<glyph glyph-name="one" d="M236 0v568h-2l-113 -61l-17 67l142 76h74v-650h-84z" unicode="1"/>
<glyph glyph-name="two" d="M44 0v54l70 66q135 129 188 200.5t53 140.5q0 56 -30 91.5t-98 35.5q-72 0 -138 -55l-28 61q77 67 184 67q98 0 148 -55.5t50 -132.5q0 -84 -53.5 -161t-170.5 -189l-51 -49v-2h291v-72h-415z" unicode="2"/>
<glyph glyph-name="three" d="M42 34l24 67q64 -41 144 -41q76 0 111.5 38t35.5 86q0 65 -48.5 98.5t-119.5 33.5h-49v66h49q55 0 100 28.5t45 81.5q0 42 -28.5 70t-85.5 28q-70 0 -130 -43l-23 64q28 21 74.5 35.5t95.5 14.5q91 0 139 -45.5t48 -109.5q0 -52 -31 -92.5t-90 -61.5v-2q63 -12 104 -56 t41 -110q0 -82 -63 -138.5t-174 -56.5q-106 0 -169 45z" unicode="3"/>
<glyph glyph-name="four" d="M104 245h213v218q0 51 3 102h-3q-25 -48 -55 -96l-158 -222v-2zM15 177v58l290 415h95v-405h91v-68h-91v-177h-83v177h-302z" unicode="4"/>
<glyph glyph-name="five" d="M42 29l22 67q62 -37 140 -37q63 0 107.5 38.5t44.5 101.5q0 67 -46 106.5t-140 39.5q-34 0 -90 -7l42 312h310v-74h-247l-25 -167q30 4 53 4q82 0 140 -35q41 -24 67 -67t26 -100q0 -96 -68.5 -159t-173.5 -63q-100 0 -162 40z" unicode="5"/>
<glyph glyph-name="six" d="M264 56q57 0 91.5 43t34.5 114q0 69 -36 109t-97 40q-39 0 -74 -22t-53 -58q-9 -18 -9 -39q2 -83 39 -135t104 -52zM263 -11q-104 0 -166.5 75t-62.5 201q0 186 110 294q82 81 208 96q26 5 64 5v-72q-40 0 -66 -5q-98 -16 -156 -80t-70 -150h2q56 76 157 76q87 0 142 -58 t55 -153q0 -94 -59.5 -161.5t-157.5 -67.5z" unicode="6"/>
<glyph glyph-name="seven" d="M93 0l282 575v2h-318v73h410v-58l-283 -592h-91z" unicode="7"/>
<glyph glyph-name="eight" d="M269 374q44 15 71 45.5t27 72.5q0 44 -27 75t-83 31q-53 0 -82.5 -30.5t-29.5 -75.5q0 -84 124 -118zM127 176v-6q0 -49 35.5 -83t94.5 -34t94.5 32.5t35.5 83.5q0 56 -36.5 89t-106.5 52q-56 -16 -86.5 -51.5t-30.5 -82.5zM37 165q0 117 128 174v3q-52 25 -78 63.5 t-26 82.5q0 76 57.5 124.5t144.5 48.5q89 0 139 -47t50 -113q0 -101 -107 -152v-3q62 -24 96.5 -67t34.5 -101q0 -84 -63 -136.5t-159 -52.5q-98 0 -157.5 51t-59.5 125z" unicode="8"/>
<glyph glyph-name="nine" d="M253 297q42 0 76 19t52 49q8 20 8 37q0 86 -33.5 139t-99.5 53q-57 0 -92.5 -44.5t-35.5 -113.5q0 -61 34.5 -100t90.5 -39zM96 -10v72q5 -1 17 -1q10 0 54 4q81 10 136 63q69 62 86 173h-3q-59 -70 -154 -70q-86 0 -138.5 57t-52.5 142q0 95 62.5 163t159.5 68 q99 0 157 -74.5t58 -199.5q0 -197 -112 -305q-76 -74 -189 -87q-31 -5 -66 -5h-15z" unicode="9"/>
<glyph glyph-name="colon" horiz-adv-x="287" unicode=":" d="M92 51q0 28 17 45.5t43 17.5t42 -17.5t17 -45.5q0 -27 -16.5 -44.5t-43.5 -17.5q-26 0 -42.5 17.5t-16.5 44.5zM151 342q-26 0 -42.5 18t-16.5 44q0 28 17 45.5t43 17.5t42 -17.5t17 -45.5q0 -26 -17 -44t-43 -18z"/>
<glyph glyph-name="semicolon" horiz-adv-x="271" unicode=";" d="M150 342q-26 0 -42.5 18t-16.5 44q0 28 17 45.5t43 17.5t42 -17.5t16 -45.5q0 -26 -16.5 -44t-42.5 -18zM48 -124q40 110 60 240l97 10q-18 -64 -46.5 -136t-49.5 -107z"/>
<glyph glyph-name="less" horiz-adv-x="596" unicode="&lt;" d="M66 238v55l464 239v-70l-391 -195v-2l391 -196v-69z"/>
<glyph glyph-name="equal" horiz-adv-x="596" unicode="=" d="M40 337v60h516v-60h-516zM40 141v60h516v-60h-516z"/>
<glyph glyph-name="greater" horiz-adv-x="596" unicode="&gt;" d="M66 0v69l394 196v2l-394 195v70l464 -238v-57z"/>
<glyph glyph-name="question" horiz-adv-x="422" unicode="?" d="M136 51q0 28 16.5 45.5t42.5 17.5q27 0 43 -17.5t17 -45.5q0 -27 -16.5 -44.5t-43.5 -17.5q-26 0 -42.5 17.5t-16.5 44.5zM158 192l-3 26q-1 6 -1 19q0 77 64 154q36 44 53 74.5t17 62.5q0 39 -25 62t-71 24q-61 0 -101 -32l-24 63q56 41 143 41q82 0 125 -42.5 t43 -104.5q0 -46 -21.5 -85t-65.5 -89q-57 -68 -57 -133q0 -2 0.5 -7t0.5 -8l1 -25h-78z"/>
<glyph glyph-name="at" horiz-adv-x="737" unicode="@" d="M43 208q0 104 44 191t128.5 140.5t192.5 53.5q129 0 209.5 -81.5t80.5 -208.5q0 -108 -51.5 -173t-125.5 -65q-33 0 -54.5 22t-20.5 66h-3q-52 -88 -142 -88q-45 0 -76.5 34.5t-31.5 91.5q0 96 68 166.5t170 70.5q60 0 107 -20l-34 -182q-6 -33 -6 -55q0 -57 36 -57h1 q41 0 74 50t33 132q0 112 -64 181t-179 69q-125 0 -212 -92t-87 -240q0 -123 72 -197.5t184 -74.5q88 0 152 36l16 -43q-76 -40 -178 -40q-128 0 -215.5 86t-87.5 227zM260 195q0 -35 17 -55.5t49 -20.5q41 0 77 43t45 93l21 113q-23 7 -50 7q-66 0 -112.5 -53.5 t-46.5 -126.5z"/>
<glyph glyph-name="A" horiz-adv-x="612" unicode="A" d="M203 280h203l-66 194q-14 41 -35 123h-3q-14 -62 -33 -122zM25 0l229 674h105l230 -674h-93l-72 212h-239l-69 -212h-91z"/>
<glyph glyph-name="B" horiz-adv-x="542" unicode="B" d="M163 66q24 -4 73 -4q76 0 125 31.5t49 99.5q0 65 -49 97.5t-126 32.5h-72v-257zM163 388h79q67 0 106 32t39 82q0 110 -147 110q-56 0 -77 -6v-218zM75 2v663q68 14 159 14q126 0 185 -49q57 -41 57 -120q0 -48 -31 -88t-83 -59v-3q56 -13 97.5 -56t41.5 -112 q0 -80 -58 -135q-67 -63 -232 -63q-76 0 -136 8z"/>
<glyph glyph-name="C" horiz-adv-x="580" unicode="C" d="M36 331q0 158 97.5 255.5t254.5 97.5q107 0 160 -29l-21 -71q-58 28 -136 28q-120 0 -191.5 -73.5t-71.5 -204.5q0 -125 68.5 -198t190.5 -73q84 0 142 28l18 -70q-68 -32 -179 -32q-146 0 -239 90.5t-93 251.5z"/>
<glyph glyph-name="D" horiz-adv-x="666" unicode="D" d="M163 69q28 -5 88 -5q139 0 213 74.5t74 211.5q1 122 -68.5 191t-204.5 69q-50 0 -102 -9v-532zM75 2v663q94 14 186 14q183 0 273 -84q95 -87 95 -242q0 -165 -97 -262t-298 -97q-87 0 -159 8z"/>
<glyph glyph-name="E" horiz-adv-x="491" unicode="E" d="M75 0v674h365v-72h-277v-214h261v-72h-261v-244h292v-72h-380z"/>
<glyph glyph-name="F" horiz-adv-x="486" unicode="F" d="M75 0v674h363v-72h-275v-225h255v-72h-255v-305h-88z"/>
<glyph glyph-name="G" horiz-adv-x="646" unicode="G" d="M130 82q-94 91 -94 251q0 153 99 250.5t266 97.5q99 0 168 -31l-21 -71q-65 29 -149 29q-124 0 -197.5 -72.5t-73.5 -198.5q0 -127 70.5 -199.5t189.5 -72.5q79 0 115 18v201h-136v70h222v-324q-96 -37 -207 -37q-159 0 -252 89z"/>
<glyph glyph-name="H" horiz-adv-x="652" unicode="H" d="M75 0v674h88v-283h326v283h87v-674h-87v316h-326v-316h-88z"/>
<glyph glyph-name="I" horiz-adv-x="239" unicode="I" d="M75 0v674h88v-674h-88z"/>
<glyph glyph-name="J" horiz-adv-x="370" unicode="J" d="M4 4l12 72q31 -13 74 -13q62 0 92.5 37t30.5 131v443h88v-451q0 -234 -204 -234q-52 0 -93 15z"/>
<glyph glyph-name="K" horiz-adv-x="542" unicode="K" d="M75 0v674h88v-325h2q29 39 54 72l206 253h107l-243 -286l263 -388h-103l-222 330l-64 -74v-256h-88z"/>
<glyph glyph-name="L" horiz-adv-x="472" unicode="L" d="M75 0v674h88v-601h288v-73h-376z"/>
<glyph glyph-name="M" horiz-adv-x="804" unicode="M" d="M58 0l47 674h111l115 -327q38 -111 67 -231h4q25 105 71 232l120 326h111l42 -674h-86l-15 296q-11 158 -11 271v19h-3q-30 -100 -86 -259l-117 -323h-69l-107 321q-50 143 -78 261h-2q-7 -197 -13 -297l-18 -289h-83z"/>
<glyph glyph-name="N" horiz-adv-x="658" unicode="N" d="M75 0v674h96l216 -341q72 -116 121 -220l2 2q-10 113 -10 276v283h82v-674h-88l-214 342q-87 139 -126 225l-3 -1q7 -119 7 -278v-288h-83z"/>
<glyph glyph-name="O" horiz-adv-x="689" unicode="O" d="M344 60q102 0 159 79.5t57 196.5q0 114 -55.5 196t-159.5 82q-101 0 -159 -80t-58 -198q0 -119 58 -197.5t158 -78.5zM339 -11q-136 0 -219.5 96t-83.5 248q0 155 88 253.5t227 98.5q140 0 220.5 -98t80.5 -249q0 -162 -90 -255.5t-223 -93.5z"/>
<glyph glyph-name="P" horiz-adv-x="532" unicode="P" d="M163 338q21 -6 71 -6q80 0 125 37.5t45 106.5q0 66 -42.5 100t-116.5 34q-52 0 -82 -6v-266zM75 0v666q78 13 168 13q127 0 189 -56q59 -52 59 -142q0 -91 -52 -145q-68 -74 -204 -74q-42 0 -72 5v-267h-88z"/>
<glyph glyph-name="Q" horiz-adv-x="689" unicode="Q" d="M343 60q102 0 159.5 79.5t57.5 197.5q0 115 -56 196t-159 81q-102 0 -159.5 -81t-57.5 -198q0 -116 57 -195.5t158 -79.5zM36 333q0 155 87.5 253.5t227.5 98.5t220.5 -98t80.5 -248q0 -121 -53 -204.5t-139 -114.5v-4q109 -26 197 -43l-25 -72q-98 26 -258 78 q-25 8 -41 10q-138 7 -217.5 100.5t-79.5 243.5z"/>
<glyph glyph-name="R" horiz-adv-x="538" unicode="R" d="M163 358h89q69 0 110 35t41 93q0 63 -41.5 94t-112.5 32q-58 0 -86 -8v-246zM75 0v665q70 14 168 14q134 0 195 -55q53 -48 53 -129q0 -63 -35.5 -107.5t-91.5 -63.5v-3q73 -25 99 -136q36 -155 52 -185h-91q-16 30 -44 161q-15 69 -45.5 99t-89.5 32h-82v-292h-88z"/>
<glyph glyph-name="S" horiz-adv-x="493" unicode="S" d="M41 33l23 73q69 -44 156 -44q66 0 103.5 31.5t37.5 83.5q0 47 -29 77.5t-98 56.5q-179 62 -179 191q0 79 61 130.5t158 51.5q90 0 148 -32l-23 -71q-59 32 -128 32q-63 0 -95 -30.5t-32 -70.5q0 -46 30.5 -74t103.5 -56q89 -35 130 -80.5t41 -117.5q0 -83 -60.5 -139 t-174.5 -56q-48 0 -96.5 13t-76.5 31z"/>
<glyph glyph-name="T" horiz-adv-x="497" unicode="T" d="M204 0v600h-205v74h499v-74h-206v-600h-88z"/>
<glyph glyph-name="U" horiz-adv-x="647" unicode="U" d="M75 276v398h88v-400q0 -108 42.5 -161t114.5 -53q77 0 120.5 53t43.5 161v400h87v-394q0 -148 -69 -219.5t-185 -71.5q-111 0 -176.5 69t-65.5 218z"/>
<glyph glyph-name="V" horiz-adv-x="557" unicode="V" d="M225 0l-222 674h95l105 -332q57 -188 72 -252h2q22 91 77 250l114 334h93l-241 -674h-95z"/>
<glyph glyph-name="W" horiz-adv-x="846" unicode="W" d="M185 0l-171 674h93l80 -341q20 -83 50 -233h2q12 70 55 234l90 340h91l82 -342q36 -153 47 -231h2q13 70 54 233l88 340h90l-191 -674h-92l-84 351q-32 130 -45 220h-2q-14 -85 -51 -221l-95 -350h-93z"/>
<glyph glyph-name="X" horiz-adv-x="571" unicode="X" d="M25 0l206 341l-198 333h100l90 -158q17 -30 63 -115h2q19 41 61 115l92 158h100l-205 -328l210 -346h-101l-86 148q-40 63 -78 134h-2q-26 -55 -73 -134l-81 -148h-100z"/>
<glyph glyph-name="Y" horiz-adv-x="541" unicode="Y" d="M226 0v285l-213 389h100l94 -186q40 -78 67 -139h2q12 28 68 139l97 186h98l-225 -387v-287h-88z"/>
<glyph glyph-name="Z" horiz-adv-x="553" unicode="Z" d="M30 0v51l374 547v3h-342v73h455v-53l-372 -545v-3h377v-73h-492z"/>
<glyph glyph-name="bracketleft" horiz-adv-x="321" unicode="[" d="M82 -135v843h183v-55h-115v-733h115v-55h-183z"/>
<glyph glyph-name="backslash" horiz-adv-x="341" unicode="\" d="M274 -40l-273 725h68l273 -725h-68z"/>
<glyph glyph-name="bracketright" horiz-adv-x="321" unicode="]" d="M57 -80h114v733h-114v55h183v-843h-183v55z"/>
<glyph glyph-name="asciicircum" horiz-adv-x="596" unicode="^" d="M60 189l207 461h62l206 -461h-70l-166 388h-3l-167 -388h-69z"/>
<glyph glyph-name="underscore" horiz-adv-x="500" unicode="_" d="M0 -75h500v-50h-500v50z"/>
<glyph glyph-name="grave" horiz-adv-x="300" unicode="`" d="M139 550l-120 143h96l95 -143h-71z"/>
<glyph glyph-name="a" horiz-adv-x="482" unicode="a" d="M123 138q0 -41 23.5 -62.5t59.5 -21.5q45 0 75 23.5t43 57.5q4 18 4 27v85h-8q-197 0 -197 -109zM35 128q0 86 73.5 132.5t209.5 46.5h8v11q0 112 -110 112q-70 0 -126 -36l-21 58q68 43 160 43q184 0 184 -199v-180q0 -70 7 -116h-79l-8 61h-2q-53 -72 -148 -72 q-69 0 -108.5 41.5t-39.5 97.5z"/>
<glyph glyph-name="b" horiz-adv-x="569" unicode="b" d="M164 162q13 -47 48.5 -75t83.5 -28q69 0 108 51t39 135q0 77 -38.5 128.5t-106.5 51.5q-45 0 -82.5 -29.5t-50.5 -78.5q-5 -27 -5 -37v-86q0 -19 4 -32zM68 0q4 44 4 124v586h88v-304h2q51 89 165 89q90 0 147.5 -69t56.5 -178q0 -122 -65 -190.5t-152 -68.5 q-110 0 -163 90h-2l-4 -79h-77z"/>
<glyph glyph-name="c" horiz-adv-x="448" unicode="c" d="M38 236q0 113 71.5 185.5t187.5 72.5q73 0 123 -25l-20 -68q-44 23 -102 23q-80 0 -125.5 -52.5t-45.5 -130.5q0 -83 47.5 -132t121.5 -49q50 0 107 23l15 -65q-56 -29 -139 -29q-109 0 -175 68t-66 179z"/>
<glyph glyph-name="d" horiz-adv-x="564" unicode="d" d="M127 239q0 -78 37.5 -129t105.5 -51q45 0 80.5 28.5t48.5 77.5q4 16 4 38v84q0 21 -4 38q-10 43 -44.5 71.5t-82.5 28.5q-67 0 -106 -52.5t-39 -133.5zM38 237q0 116 63 187t154 71q52 0 90 -21t56 -53h2v289h87v-586q0 -58 4 -124h-78l-4 83h-3q-20 -42 -63 -68 t-100 -26q-90 0 -149 69t-59 179z"/>
<glyph glyph-name="e" horiz-adv-x="501" unicode="e" d="M123 289h257q1 53 -27.5 97.5t-94.5 44.5q-61 0 -95 -43.5t-40 -98.5zM38 233q0 113 62 187.5t166 74.5q56 0 97 -22.5t62 -59t30.5 -73t9.5 -73.5q0 -28 -4 -41h-339q1 -84 47.5 -126t117.5 -42q76 0 135 25l15 -63q-66 -31 -161 -31q-110 0 -174 67t-64 177z"/>
<glyph glyph-name="f" horiz-adv-x="292" unicode="f" d="M82 0v417h-68v67h68v23q0 116 56 169q46 45 117 45q47 0 77 -15l-16 -67q-26 11 -54 11q-93 0 -93 -140v-26h117v-67h-117v-417h-87z"/>
<glyph glyph-name="g" horiz-adv-x="559" unicode="g" d="M127 243q0 -75 37.5 -125t105.5 -50q41 0 74.5 24.5t47.5 66.5q7 21 7 47v87q0 20 -5 40q-13 41 -45 67t-79 26q-63 0 -103 -50t-40 -133zM101 -102q64 -39 143 -39q72 0 114 41.5t42 128.5v54h-2q-21 -36 -61 -58.5t-93 -22.5q-90 0 -148 67.5t-58 168.5q0 117 65 187 t153 70q107 0 151 -84h2l4 73h77q-4 -70 -4 -133v-281q0 -159 -69 -221q-62 -58 -176 -58q-100 0 -162 39z"/>
<glyph glyph-name="h" horiz-adv-x="555" unicode="h" d="M73 0v710h87v-302h2q24 40 64 62q43 25 89 25q28 0 55 -9.5t54 -31t43.5 -64.5t16.5 -103v-287h-87v278q0 65 -26.5 104.5t-85.5 39.5q-42 0 -73.5 -25.5t-44.5 -62.5q-7 -18 -7 -42v-292h-87z"/>
<glyph glyph-name="i" horiz-adv-x="234" unicode="i" d="M115 566q-24 0 -38.5 15.5t-14.5 38.5t15.5 39t39.5 16t39 -15.5t15 -39.5q1 -23 -14.5 -38.5t-41.5 -15.5zM73 0v484h87v-484h-87z"/>
<glyph glyph-name="j" horiz-adv-x="243" unicode="j" d="M126 566q-23 0 -38 16t-14 38q-1 23 15 39t40 16q23 0 38 -16t15 -39t-15 -38.5t-41 -15.5zM85 76v408h87v-441q0 -138 -58 -199q-54 -55 -150 -55l-9 69q68 5 96 37q18 21 26 59.5t8 121.5z"/>
<glyph glyph-name="k" horiz-adv-x="468" unicode="k" d="M72 0v710h88v-448h2q20 28 42 55l143 167h106l-187 -199l213 -285h-107l-167 232l-45 -50v-182h-88z"/>
<glyph glyph-name="l" horiz-adv-x="235" unicode="l" d="M73 0v710h87v-710h-87z"/>
<glyph glyph-name="m" horiz-adv-x="834" unicode="m" d="M73 0v353q0 49 -4 131h77l4 -78h2q52 89 153 89q48 0 84.5 -27t52.5 -70h2q21 39 54 63q46 34 107 34q27 0 52.5 -10t50.5 -31.5t40.5 -65t15.5 -103.5v-285h-86v273q0 149 -105 149q-36 0 -64 -22.5t-40 -55.5q-8 -28 -8 -45v-299h-85v290q0 59 -26.5 95.5t-74.5 36.5 q-39 0 -68.5 -25.5t-41.5 -61.5q-6 -19 -6 -43v-292h-86z"/>
<glyph glyph-name="n" horiz-adv-x="555" unicode="n" d="M73 0v353q0 49 -4 131h78l4 -80h3q20 38 62 64.5t98 26.5q28 0 55 -9.5t54 -31t44 -64.5t17 -101v-289h-87v278q0 64 -27 104t-85 40q-42 0 -73.5 -25.5t-44.5 -64.5q-7 -19 -7 -41v-291h-87z"/>
<glyph glyph-name="o" horiz-adv-x="549" unicode="o" d="M127 240q0 -77 39 -131.5t108 -54.5t108.5 54.5t39.5 132.5q0 73 -37 130t-111 57t-110.5 -56.5t-36.5 -131.5zM38 240q0 117 69.5 186t171.5 69q103 0 167.5 -69t64.5 -184q0 -64 -22 -114.5t-58 -79.5t-77.5 -44t-85.5 -15q-99 0 -164.5 68.5t-65.5 182.5z"/>
<glyph glyph-name="p" horiz-adv-x="569" unicode="p" d="M164 161q12 -47 48.5 -75.5t83.5 -28.5q69 0 108 51.5t39 136.5q0 76 -38.5 127.5t-105.5 51.5q-46 0 -83.5 -29.5t-49.5 -78.5q-6 -22 -6 -36v-83q0 -21 4 -36zM160 65v-263h-88v524q0 97 -4 158h80l4 -83h2q57 94 172 94q89 0 147 -68.5t58 -177.5q0 -124 -64 -192 t-155 -68q-49 0 -88.5 20t-61.5 56h-2z"/>
<glyph glyph-name="q" horiz-adv-x="562" unicode="q" d="M127 239q0 -77 37 -128.5t106 -51.5q43 0 77 25t49 70q7 23 7 43v91q0 21 -4 36q-10 43 -44.5 72t-82.5 29q-67 0 -106 -51.5t-39 -134.5zM38 234q0 126 66.5 193.5t152.5 67.5q107 0 148 -84h2l4 73h83q-4 -82 -4 -133v-549h-87v273h-2q-47 -86 -159 -86 q-86 0 -145 68.5t-59 176.5z"/>
<glyph glyph-name="r" horiz-adv-x="327" unicode="r" d="M72 0v333q0 90 -4 151h78l3 -96h3q17 49 54 78t81 29q13 0 25 -3v-83q-13 3 -30 3q-46 0 -77.5 -31t-40.5 -82q-4 -16 -4 -41v-258h-88z"/>
<glyph glyph-name="s" horiz-adv-x="396" unicode="s" d="M39 23l22 66q55 -34 116 -34q46 0 70 20t24 52q0 31 -20 50.5t-70 37.5q-128 47 -128 138q0 60 45.5 101t121.5 41q69 0 118 -30l-21 -64q-50 29 -99 29q-38 0 -59.5 -19.5t-21.5 -47.5q0 -29 20.5 -46t71.5 -37q65 -24 96 -58t31 -87q0 -65 -48 -105.5t-133 -40.5 q-78 0 -136 34z"/>
<glyph glyph-name="t" horiz-adv-x="331" unicode="t" d="M126 26q-34 40 -34 127v264h-75v67h75v116l87 23v-139h126v-67h-126v-261q0 -94 66 -94q30 0 51 7l4 -67q-32 -13 -78 -13q-64 0 -96 37z"/>
<glyph glyph-name="u" horiz-adv-x="550" unicode="u" d="M70 201v283h87v-268q0 -155 107 -155q44 0 75.5 24.5t42.5 55.5q8 22 8 46v297h87v-352q0 -54 4 -132h-77l-5 79h-2q-54 -90 -161 -90q-76 0 -121 51t-45 161z"/>
<glyph glyph-name="v" horiz-adv-x="481" unicode="v" d="M197 0l-184 484h93l96 -272q16 -45 40 -125h2q11 40 40 125l95 272h92l-190 -484h-84z"/>
<glyph glyph-name="w" horiz-adv-x="736" unicode="w" d="M164 0l-146 484h89l65 -246q22 -84 36 -155h3q8 41 43 154l79 247h74l75 -243q27 -86 43 -158h3q10 61 37 158l69 243h87l-157 -484h-79l-74 231q-26 78 -43 159h-2q-14 -69 -44 -160l-78 -230h-80z"/>
<glyph glyph-name="x" horiz-adv-x="464" unicode="x" d="M8 0l172 247l-164 237h98l69 -104q28 -43 49 -79h2q2 4 49 80l67 103h96l-164 -234l169 -250h-99l-72 108q-21 31 -52 85h-2q-10 -18 -52 -85l-69 -108h-97z"/>
<glyph glyph-name="y" horiz-adv-x="471" unicode="y" d="M114 -105q47 41 73 99q7 16 7 21q0 8 -7 22l-178 447h96l106 -286q19 -54 31 -99h2q2 8 13 44t18 56l96 285h93l-132 -345q-49 -129 -85.5 -197t-80.5 -106q-54 -47 -108 -57l-22 74q39 12 78 42z"/>
<glyph glyph-name="z" horiz-adv-x="427" unicode="z" d="M18 0v51l219 285q10 12 63 75v2h-262v71h369l-1 -55l-216 -282q-46 -58 -62 -75v-2h283v-70h-393z"/>
<glyph glyph-name="braceleft" horiz-adv-x="316" unicode="{" d="M93 2q0 45 8 99q8 56 8 87q0 74 -84 74v51q84 0 84 75q0 32 -8 88t-8 101q0 66 39 98.5t106 32.5h21v-55h-18q-79 -1 -79 -86q0 -47 7 -89q8 -64 8 -80q0 -90 -73 -109v-2q73 -18 73 -109q0 -17 -8 -81q-7 -44 -7 -89q0 -43 19 -65t60 -23h18v-55h-21q-66 0 -105.5 33 t-39.5 104z"/>
<glyph glyph-name="bar" horiz-adv-x="239" unicode="|" d="M86 -250v1000h67v-1000h-67z"/>
<glyph glyph-name="braceright" horiz-adv-x="315" unicode="}" d="M57 -80h18q79 1 79 86q0 47 -7 89q-8 48 -8 80q0 89 72 109v2q-72 18 -72 109q0 33 8 81q7 44 7 89q0 85 -79 88h-18v55h21q66 0 105.5 -33t39.5 -104q0 -50 -9 -99q-7 -65 -7 -87q0 -74 83 -74v-51q-83 0 -83 -75q0 -23 7 -88q9 -50 9 -101q0 -66 -39.5 -98.5 t-105.5 -32.5h-21v55z"/>
<glyph glyph-name="asciitilde" horiz-adv-x="596" unicode="~" d="M48 211v8q0 68 33.5 105t86.5 37q30 0 57.5 -9.5t84.5 -35.5q86 -42 124 -42q52 0 54 84h60v-13q0 -71 -33 -105t-83 -34t-144 45q-7 3 -23 11t-22.5 11t-19 8.5t-20 7.5t-17.5 4t-18 2q-57 0 -60 -84h-60z"/>
<glyph glyph-name="uni00A0" horiz-adv-x="212" unicode=" "/>
<glyph glyph-name="exclamdown" horiz-adv-x="248" unicode="¡" d="M115 363q-26 0 -42.5 18t-16.5 44q0 27 17 45t42 18q27 0 43 -18t16 -45q0 -26 -16.5 -44t-42.5 -18zM67 -195l14 477h68l15 -477h-97z"/>
<glyph glyph-name="cent" d="M124 157q-58 63 -58 169q0 97 55 164.5t146 82.5v100h63v-98q59 0 109 -25l-20 -67q-44 25 -104 25q-72 0 -116 -51.5t-44 -127.5q0 -81 44 -128t112 -47q59 0 114 25l15 -63q-41 -26 -110 -30v-100h-63v101q-89 11 -143 70z" unicode="¢"/>
<glyph glyph-name="sterling" d="M55 0v49q52 27 83 73.5t31 101.5q0 35 -4 70h-103v64h93q-11 66 -11 108q0 88 54 141.5t137 53.5q71 0 109 -25l-19 -66q-36 20 -89 20q-56 0 -83 -34.5t-27 -90.5q0 -52 12 -107h144v-64h-136q0 -6 1 -16t1.5 -18.5t0.5 -16.5q0 -32 -7 -60q-16 -63 -69 -108v-2h298v-73 h-416z" unicode="£"/>
<glyph glyph-name="currency" d="M254 191q48 0 83.5 35.5t35.5 107.5q0 55 -32 96t-86 41t-86.5 -40.5t-32.5 -100.5q0 -67 36.5 -103t81.5 -36zM73 94l-43 44l72 71q-37 48 -37 119q0 74 39 124l-75 70l44 46l68 -75q48 41 115 41q70 0 115 -40l72 74l44 -45l-78 -71q35 -50 35 -117q0 -73 -35 -124 l74 -73l-43 -44l-69 76q-45 -42 -117 -42q-71 0 -114 40z" unicode="¤"/>
<glyph glyph-name="yen" d="M54 175v50h155v72h-155v50h130l-168 303h94l103 -206q25 -52 40 -91h4q19 50 40 93l108 204h92l-179 -303h129v-50h-156v-72h156v-50h-156v-175h-82v175h-155z" unicode="¥"/>
<glyph glyph-name="brokenbar" horiz-adv-x="239" unicode="¦" d="M86 174h67v-350h-67v350zM86 324v350h67v-350h-67z"/>
<glyph glyph-name="section" horiz-adv-x="519" unicode="§" d="M87 -21l23 58q60 -41 133 -41q50 0 81 21.5t31 60.5q0 34 -26.5 56.5t-95.5 47.5q-88 30 -131.5 64.5t-43.5 93.5q0 68 74 117q-37 30 -37 84q0 64 53 103t132 39t138 -33l-22 -57q-50 32 -119 32q-45 0 -74.5 -20.5t-29.5 -53.5q0 -35 29 -54.5t95 -41.5 q80 -26 121.5 -60.5t41.5 -97.5q0 -72 -65 -121q39 -32 39 -89q0 -73 -56.5 -111t-133.5 -38q-99 0 -157 41zM236 256q85 -30 115 -48q37 28 37 77q0 60 -89 93q-99 35 -124 50q-45 -32 -45 -76q0 -29 24 -52t82 -44z"/>
<glyph glyph-name="dieresis" horiz-adv-x="300" unicode="¨" d="M242 570q-21 0 -35.5 15t-14.5 36t15 36t36 15t35 -15t14 -36t-14 -36t-36 -15zM58 570q-22 0 -36 15t-14 36t14.5 36t35.5 15t35 -15t14 -36t-14 -36t-35 -15z"/>
<glyph glyph-name="copyright" horiz-adv-x="677" unicode="©" d="M173 334q0 83 56 134.5t135 51.5q36 0 67.5 -8.5t42.5 -18.5l-12 -39q-43 23 -97 23q-68 0 -104 -38.5t-36 -101.5q0 -61 37 -101t103 -40q62 0 102 26l12 -38q-47 -31 -123 -31q-85 0 -134 51.5t-49 129.5zM86 337q0 -112 73 -189t181 -77q106 0 178.5 77.5t72.5 191.5 q0 112 -72.5 189t-178.5 77q-108 0 -181 -77.5t-73 -191.5zM340 30q-128 0 -216 90.5t-88 219.5q0 128 88 218t216 90q127 0 214 -90t87 -218q0 -130 -87 -220t-214 -90z"/>
<glyph glyph-name="ordfeminine" horiz-adv-x="346" unicode="ª" d="M157 309q44 0 67 36q11 14 11 27v54h-13q-123 0 -123 -66q0 -24 17 -37.5t41 -13.5zM137 261q-49 0 -76.5 27.5t-27.5 68.5q0 52 49.5 82.5t139.5 30.5h12v10q0 11 -4.5 23.5t-22.5 25.5t-48 13q-51 0 -85 -27l-16 43q46 33 114 33q127 0 127 -141v-107q0 -43 6 -77h-60 l-6 42h-2q-37 -47 -100 -47z"/>
<glyph glyph-name="guillemotleft" horiz-adv-x="467" unicode="«" d="M212 252l141 184h71l-141 -184l141 -184h-71zM189 68l-141 184l141 184h71l-141 -184l142 -184h-72z"/>
<glyph glyph-name="logicalnot" horiz-adv-x="596" unicode="¬" d="M40 339v60h516v-278h-64v218h-452z"/>
<glyph glyph-name="uni00AD" horiz-adv-x="304" unicode="­" d="M30 238v65h244v-65h-244z"/>
<glyph glyph-name="registered" horiz-adv-x="419" unicode="®" d="M211 388q54 0 89.5 37.5t35.5 92.5t-36 93t-90 38t-90.5 -38t-36.5 -92q0 -55 37 -93t91 -38zM210 354q-71 0 -120 47.5t-49 117.5q0 68 49.5 116t119.5 48t118.5 -48t48.5 -116q0 -70 -48 -117.5t-119 -47.5zM185 526h18q38 0 38 24q0 25 -35 25q-13 0 -21 -2v-47z M146 433v164q23 5 63 5q38 0 57 -12q16 -12 16 -36q0 -27 -34 -38v-2q22 -7 29 -41q6 -30 13 -40h-41q-6 7 -13 40q-6 26 -34 26h-18v-66h-38z"/>
<glyph glyph-name="macron" horiz-adv-x="300" unicode="¯" d="M28 587v61h245v-61h-245z"/>
<glyph glyph-name="degree" horiz-adv-x="317" unicode="°" d="M161 468q34 0 56.5 24.5t22.5 61.5q0 33 -20 59t-59 26q-37 0 -57.5 -26.5t-20.5 -61.5t22.5 -59t55.5 -24zM160 421q-57 0 -94 38t-37 91q0 58 38.5 97t94.5 39q59 0 95.5 -38.5t36.5 -91.5q0 -59 -40 -97t-94 -38z"/>
<glyph glyph-name="plusminus" horiz-adv-x="596" unicode="±" d="M40 0v59h516v-59h-516zM266 117v200h-226v60h226v195h64v-195h226v-60h-226v-200h-64z"/>
<glyph glyph-name="twosuperior" horiz-adv-x="310" unicode="²" d="M12 442v37l63 58q68 63 96.5 100.5t28.5 73.5q0 31 -19 50.5t-56 19.5q-41 0 -84 -31l-21 45q47 42 122 42q65 0 98.5 -34t33.5 -79q0 -51 -32.5 -94.5t-99.5 -102.5l-31 -28v-2h171v-55h-270z"/>
<glyph glyph-name="threesuperior" horiz-adv-x="304" unicode="³" d="M124 437q-75 0 -115 27l17 50q44 -26 93 -26q43 0 66 21t22 47q0 35 -31 52.5t-75 17.5h-27v46h28q33 0 61.5 16t29.5 47q0 22 -15.5 36.5t-47.5 14.5q-48 0 -85 -27l-18 47q52 31 116 31q61 0 91.5 -27t30.5 -67q0 -30 -20.5 -54t-56.5 -36v-2q41 -6 67 -33t26 -64 q0 -49 -42 -83t-115 -34z"/>
<glyph glyph-name="acute" horiz-adv-x="300" unicode="´" d="M97 550l96 143h97l-121 -143h-72z"/>
<glyph glyph-name="uni00B5" horiz-adv-x="553" unicode="µ" d="M72 -20v504h88v-287q0 -60 27 -98t82 -38q41 0 72 24t44 57q7 18 7 45v297h88v-351q0 -41 10 -58t36 -18l-7 -64q-13 -4 -30 -4q-76 0 -86 86h-4q-18 -34 -53.5 -59t-84.5 -25q-76 0 -106 53v-60q0 -138 10 -182h-78q-15 45 -15 178z"/>
<glyph glyph-name="paragraph" horiz-adv-x="512" unicode="¶" d="M231 -49v313h-8q-68 0 -128.5 50.5t-61.5 139.5q0 43 13 79.5t42 70t85.5 53t135.5 19.5q70 0 117 -9v-716h-62v664h-71v-664h-62z"/>
<glyph glyph-name="periodcentered" horiz-adv-x="207" unicode="·" d="M103 200q-26 0 -42.5 18t-16.5 45t16.5 45t43.5 18q26 0 42 -17.5t16 -45.5q0 -27 -16 -45t-43 -18z"/>
<glyph glyph-name="cedilla" horiz-adv-x="300" unicode="¸" d="M90 -84l46 86h54l-31 -52q29 -6 49.5 -25t20.5 -48q0 -43 -29.5 -63t-74.5 -20q-41 0 -69 17l14 45q22 -13 55 -13q43 0 43 31q-1 34 -78 42z"/>
<glyph glyph-name="onesuperior" horiz-adv-x="244" unicode="¹" d="M107 442v329h-1l-73 -35l-11 52l94 44h60v-390h-69z"/>
<glyph glyph-name="ordmasculine" horiz-adv-x="355" unicode="º" d="M177 311q41 0 67 32t26 83q0 44 -24 79.5t-69 35.5t-68.5 -35.5t-23.5 -81.5q0 -48 27.5 -80.5t64.5 -32.5zM177 261q-68 0 -113.5 45t-45.5 117q0 76 47 122t114 46q72 0 115 -45.5t43 -117.5q-1 -81 -48.5 -124t-111.5 -43z"/>
<glyph glyph-name="guillemotright" horiz-adv-x="467" unicode="»" d="M206 68l142 184l-142 184h70l142 -184l-141 -184h-71zM43 68l141 184l-141 184h71l141 -184l-141 -184h-71z"/>
<glyph glyph-name="onequarter" horiz-adv-x="759" unicode="¼" d="M138 -11l379 672h57l-380 -672h-56zM477 152h119v116q0 3 3 63h-2q-30 -53 -34 -59l-87 -118zM406 102v41l178 247h79v-238h56v-50h-56v-102h-67v102h-190zM128 266v329h-2l-72 -35l-11 52l93 44h61v-390h-69z"/>
<glyph glyph-name="onehalf" horiz-adv-x="759" unicode="½" d="M118 -11l380 672h56l-380 -672h-56zM440 0v37l63 58q68 63 96.5 100.5t28.5 73.5q0 31 -19 50.5t-56 19.5q-40 0 -85 -31l-20 45q47 42 122 42q65 0 98.5 -34t33.5 -79q0 -51 -32.5 -94.5t-100.5 -102.5l-30 -28v-2h170v-55h-269zM114 266v329h-2l-73 -35l-11 52l94 44 h61v-390h-69z"/>
<glyph glyph-name="threequarters" horiz-adv-x="759" unicode="¾" d="M174 -11l380 672h56l-379 -672h-57zM488 152h119v116q0 33 3 63h-3q-18 -34 -33 -59l-87 -118zM417 102v41l178 247h79v-238h56v-50h-56v-102h-67v102h-190zM29 288l18 50q44 -26 93 -26q43 0 65.5 20.5t22.5 47.5q0 35 -31 52.5t-75 17.5h-27v46h28q33 0 61.5 16 t29.5 47q0 22 -15.5 36.5t-47.5 14.5q-48 0 -85 -27l-18 47q50 31 116 31q61 0 91.5 -27t30.5 -67q0 -30 -20.5 -54t-56.5 -36v-2q41 -6 67 -33t26 -64q0 -49 -42 -83t-115 -34q-75 0 -116 27z"/>
<glyph glyph-name="questiondown" horiz-adv-x="411" unicode="¿" d="M50 -62q0 46 21.5 84.5t64.5 89.5q57 68 57 136v12l-1 25h78l2 -26q1 -6 1 -20q0 -77 -63 -153q-70 -82 -70 -137q0 -39 24.5 -62t70.5 -24q60 0 102 31l23 -63q-57 -40 -143 -40q-81 0 -124 42.5t-43 104.5zM232 363q-27 0 -43.5 17.5t-16.5 44.5t17 45t43 18t42.5 -18 t16.5 -45t-16.5 -44.5t-42.5 -17.5z"/>
<glyph glyph-name="Agrave" horiz-adv-x="612" unicode="À" d="M284 711l-122 115h106l95 -115h-79zM203 280h203l-66 194q-14 41 -35 123h-3q-14 -62 -33 -122zM25 0l229 674h105l230 -674h-93l-72 212h-239l-69 -212h-91z"/>
<glyph glyph-name="Aacute" horiz-adv-x="612" unicode="Á" d="M252 710l94 116h105l-120 -116h-79zM203 280h203l-66 194q-14 41 -35 123h-3q-14 -62 -33 -122zM25 0l229 674h105l230 -674h-93l-72 212h-239l-69 -212h-91z"/>
<glyph glyph-name="Acircumflex" horiz-adv-x="612" unicode="Â" d="M171 710l104 114h69l106 -114h-76l-64 69h-2l-63 -69h-74zM203 280h203l-66 194q-14 41 -35 123h-3q-14 -62 -33 -122zM25 0l229 674h105l230 -674h-93l-72 212h-239l-69 -212h-91z"/>
<glyph glyph-name="Atilde" horiz-adv-x="612" unicode="Ã" d="M172 717v6q0 48 20.5 75t54.5 27q27 0 71 -23q32 -18 48 -18q13 0 20 9.5t9 34.5h53q1 -106 -77 -106q-26 0 -68 22q-34 18 -49 18q-26 0 -28 -45h-54zM203 280h203l-66 194q-14 41 -35 123h-3q-14 -62 -33 -122zM25 0l229 674h105l230 -674h-93l-72 212h-239l-69 -212 h-91z"/>
<glyph glyph-name="Adieresis" horiz-adv-x="612" unicode="Ä" d="M402 720q-22 0 -36 15t-14 36t14.5 36t35.5 15t35.5 -15t14.5 -36t-14 -36t-36 -15zM217 720q-22 0 -36.5 15t-14.5 36t15 36t36 15t34.5 -15t13.5 -36q0 -22 -13.5 -36.5t-34.5 -14.5zM203 280h203l-66 194q-14 41 -35 123h-3q-14 -62 -33 -122zM25 0l229 674h105 l230 -674h-93l-72 212h-239l-69 -212h-91z"/>
<glyph glyph-name="Aring" horiz-adv-x="612" unicode="Å" d="M306 738q23 0 36.5 15t13.5 36q0 20 -13.5 35.5t-36.5 15.5t-36.5 -15.5t-13.5 -34.5q0 -20 13.5 -36t36.5 -16zM307 700q-47 0 -75.5 25.5t-28.5 63.5q0 37 28 63t75 26q46 0 74 -25t28 -63q0 -39 -28 -64.5t-73 -25.5zM203 280h203l-66 194q-14 41 -35 123h-3 q-14 -62 -33 -122zM25 0l229 674h105l230 -674h-93l-72 212h-239l-69 -212h-91z"/>
<glyph glyph-name="AE" horiz-adv-x="787" unicode="Æ" d="M225 308h169l-22 194q-11 84 -12 109h-4q-17 -45 -43 -106zM-1 0l308 674h422v-72h-286l25 -216h251v-72h-241l31 -242h247l-1 -72h-322l-29 237h-207l-108 -237h-90z"/>
<glyph glyph-name="Ccedilla" horiz-adv-x="580" unicode="Ç" d="M529 91l18 -70q-68 -32 -178 -32l-23 -39q30 -6 50 -26t20 -49q0 -41 -30 -61t-73 -20q-40 0 -71 17l14 45q24 -13 56 -13q42 0 42 30q0 35 -77 43l41 76q-127 16 -204.5 104t-77.5 235q0 158 97.5 255.5t254.5 97.5q107 0 160 -29l-21 -71q-58 28 -136 28 q-120 0 -191.5 -73.5t-71.5 -204.5q0 -125 68.5 -198t190.5 -73q84 0 142 28z"/>
<glyph glyph-name="Egrave" horiz-adv-x="491" unicode="È" d="M242 711l-121 115h106l95 -115h-80zM75 0v674h365v-72h-277v-214h261v-72h-261v-244h292v-72h-380z"/>
<glyph glyph-name="Eacute" horiz-adv-x="491" unicode="É" d="M206 710l94 116h105l-120 -116h-79zM75 0v674h365v-72h-277v-214h261v-72h-261v-244h292v-72h-380z"/>
<glyph glyph-name="Ecircumflex" horiz-adv-x="491" unicode="Ê" d="M118 710l104 114h69l106 -114h-77l-63 69h-2l-64 -69h-73zM75 0v674h365v-72h-277v-214h261v-72h-261v-244h292v-72h-380z"/>
<glyph glyph-name="Edieresis" horiz-adv-x="491" unicode="Ë" d="M347 722q-22 0 -36 15t-14 36q0 20 15 35.5t36 15.5t35 -15t14 -36t-14 -36t-36 -15zM162 722q-22 0 -36 15t-14 36t15 36t36 15q20 0 34 -15t14 -36t-14 -36t-35 -15zM75 0v674h365v-72h-277v-214h261v-72h-261v-244h292v-72h-380z"/>
<glyph glyph-name="Igrave" horiz-adv-x="239" unicode="Ì" d="M98 711l-122 115h107l94 -115h-79zM75 0v674h88v-674h-88z"/>
<glyph glyph-name="Iacute" horiz-adv-x="239" unicode="Í" d="M64 710l94 116h105l-120 -116h-79zM75 0v674h88v-674h-88z"/>
<glyph glyph-name="Icircumflex" horiz-adv-x="239" unicode="Î" d="M-20 710l104 114h69l106 -114h-76l-64 69h-2l-63 -69h-74zM75 0v674h88v-674h-88z"/>
<glyph glyph-name="Idieresis" horiz-adv-x="239" unicode="Ï" d="M212 722q-22 0 -36 15t-14 36t15 36t36 15t35 -15t14 -36t-14 -36t-36 -15zM27 722q-22 0 -36 15t-14 36t15 36t36 15q20 0 34 -15t14 -36t-14 -36t-35 -15zM75 0v674h88v-674h-88z"/>
<glyph glyph-name="Eth" horiz-adv-x="671" unicode="Ð" d="M168 67q29 -4 88 -4q140 0 213.5 74.5t73.5 213.5q0 124 -69 192.5t-204 68.5q-50 0 -102 -9v-226h180v-70h-180v-240zM80 0v307h-82v70h82v290q95 14 185 14q185 0 274 -84q95 -85 95 -244q0 -166 -97 -263q-100 -98 -298 -98q-87 0 -159 8z"/>
<glyph glyph-name="Ntilde" horiz-adv-x="658" unicode="Ñ" d="M197 717v6q0 48 20.5 75t54.5 27q27 0 71 -23q32 -18 48 -18q13 0 20 9.5t9 34.5h52v-7q0 -99 -76 -99q-26 0 -68 22q-34 18 -49 18q-26 0 -28 -45h-54zM75 0v674h96l216 -341q72 -116 121 -220l2 2q-10 113 -10 276v283h82v-674h-88l-214 342q-87 139 -126 225l-3 -1 q7 -119 7 -278v-288h-83z"/>
<glyph glyph-name="Ograve" horiz-adv-x="689" unicode="Ò" d="M323 713l-122 116h106l95 -116h-79zM344 60q102 0 159 79.5t57 196.5q0 114 -55.5 196t-159.5 82q-101 0 -159 -80t-58 -198q0 -119 58 -197.5t158 -78.5zM339 -11q-136 0 -219.5 96t-83.5 248q0 155 88 253.5t227 98.5q140 0 220.5 -98t80.5 -249q0 -162 -90 -255.5 t-223 -93.5z"/>
<glyph glyph-name="Oacute" horiz-adv-x="689" unicode="Ó" d="M289 713l94 116h104l-120 -116h-78zM344 60q102 0 159 79.5t57 196.5q0 114 -55.5 196t-159.5 82q-101 0 -159 -80t-58 -198q0 -119 58 -197.5t158 -78.5zM339 -11q-136 0 -219.5 96t-83.5 248q0 155 88 253.5t227 98.5q140 0 220.5 -98t80.5 -249q0 -162 -90 -255.5 t-223 -93.5z"/>
<glyph glyph-name="Ocircumflex" horiz-adv-x="689" unicode="Ô" d="M205 713l104 114h68l107 -114h-77l-63 69h-2l-64 -69h-73zM344 60q102 0 159 79.5t57 196.5q0 114 -55.5 196t-159.5 82q-101 0 -159 -80t-58 -198q0 -119 58 -197.5t158 -78.5zM339 -11q-136 0 -219.5 96t-83.5 248q0 155 88 253.5t227 98.5q140 0 220.5 -98t80.5 -249 q0 -162 -90 -255.5t-223 -93.5z"/>
<glyph glyph-name="Otilde" horiz-adv-x="689" unicode="Õ" d="M207 719v6q0 48 20.5 75t54.5 27q27 0 71 -23q36 -18 48 -18q25 0 29 44h52v-7q0 -99 -76 -99q-26 0 -68 22q-34 18 -49 18q-26 0 -29 -45h-53zM344 60q102 0 159 79.5t57 196.5q0 114 -55.5 196t-159.5 82q-101 0 -159 -80t-58 -198q0 -119 58 -197.5t158 -78.5z M339 -11q-136 0 -219.5 96t-83.5 248q0 155 88 253.5t227 98.5q140 0 220.5 -98t80.5 -249q0 -162 -90 -255.5t-223 -93.5z"/>
<glyph glyph-name="Odieresis" horiz-adv-x="689" unicode="Ö" d="M436 722q-21 0 -35 15t-14 36t14.5 36t35.5 15t35 -15t14 -36t-14 -36t-36 -15zM252 722q-22 0 -36.5 15t-14.5 36t15 36t36 15t34.5 -15t13.5 -36q0 -22 -13.5 -36.5t-34.5 -14.5zM344 60q102 0 159 79.5t57 196.5q0 114 -55.5 196t-159.5 82q-101 0 -159 -80t-58 -198 q0 -119 58 -197.5t158 -78.5zM339 -11q-136 0 -219.5 96t-83.5 248q0 155 88 253.5t227 98.5q140 0 220.5 -98t80.5 -249q0 -162 -90 -255.5t-223 -93.5z"/>
<glyph glyph-name="multiply" horiz-adv-x="596" unicode="×" d="M40 44l214 219l-214 219l43 44l215 -219l214 219l44 -44l-214 -219l213 -219l-43 -44l-214 218l-214 -218z"/>
<glyph glyph-name="Oslash" horiz-adv-x="689" unicode="Ø" d="M218 107q51 -48 126 -48q101 0 160 81t59 200q0 99 -47 174l-3 1zM174 158h2l296 410q-55 47 -127 47q-104 0 -162 -81.5t-58 -195.5q0 -94 49 -180zM66 4l59 80q-89 95 -89 250q0 157 88 254t223 97q94 0 168 -53l53 71l52 -37l-55 -76q87 -93 87 -247q0 -168 -89 -261 t-218 -93q-96 0 -170 54l-60 -78z"/>
<glyph glyph-name="Ugrave" horiz-adv-x="647" unicode="Ù" d="M306 711l-122 115h106l95 -115h-79zM75 276v398h88v-400q0 -108 42.5 -161t114.5 -53q77 0 120.5 53t43.5 161v400h87v-394q0 -148 -69 -219.5t-185 -71.5q-111 0 -176.5 69t-65.5 218z"/>
<glyph glyph-name="Uacute" horiz-adv-x="647" unicode="Ú" d="M271 710l94 116h105l-120 -116h-79zM75 276v398h88v-400q0 -108 42.5 -161t114.5 -53q77 0 120.5 53t43.5 161v400h87v-394q0 -148 -69 -219.5t-185 -71.5q-111 0 -176.5 69t-65.5 218z"/>
<glyph glyph-name="Ucircumflex" horiz-adv-x="647" unicode="Û" d="M190 710l104 114h69l106 -114h-76l-64 69h-2l-63 -69h-74zM75 276v398h88v-400q0 -108 42.5 -161t114.5 -53q77 0 120.5 53t43.5 161v400h87v-394q0 -148 -69 -219.5t-185 -71.5q-111 0 -176.5 69t-65.5 218z"/>
<glyph glyph-name="Udieresis" horiz-adv-x="647" unicode="Ü" d="M418 722q-22 0 -36 15t-14 36t14.5 36t35.5 15t35.5 -15t14.5 -36t-14 -36t-36 -15zM233 722q-22 0 -36.5 15t-14.5 36t15 36t36 15t34.5 -15t13.5 -36q0 -22 -13.5 -36.5t-34.5 -14.5zM75 276v398h88v-400q0 -108 42.5 -161t114.5 -53q77 0 120.5 53t43.5 161v400h87 v-394q0 -148 -69 -219.5t-185 -71.5q-111 0 -176.5 69t-65.5 218z"/>
<glyph glyph-name="Yacute" horiz-adv-x="541" unicode="Ý" d="M224 704l94 117h105l-120 -117h-79zM226 0v285l-213 389h100l94 -186q40 -78 67 -139h2q12 28 68 139l97 186h98l-225 -387v-287h-88z"/>
<glyph glyph-name="Thorn" horiz-adv-x="531" unicode="Þ" d="M162 214q26 -6 75 -6q80 0 123.5 36t43.5 98q0 63 -41.5 94.5t-112.5 31.5q-48 0 -88 -5v-249zM75 0v674h87v-142q45 5 96 5q115 0 178 -55q55 -50 55 -131q0 -103 -70 -158t-183 -55q-51 0 -76 5v-143h-87z"/>
<glyph glyph-name="germandbls" horiz-adv-x="548" unicode="ß" d="M73 0v452q0 152 71 217q56 52 147 52q75 0 126.5 -45t51.5 -124q0 -50 -24 -82q-72 -28 -72 -81q0 -17 8 -32.5t15.5 -24t28.5 -30.5q26 -26 40 -42.5t27.5 -47t13.5 -64.5q0 -71 -48.5 -115t-130.5 -44q-65 0 -106 20l16 68q40 -20 84 -20q46 0 72 24t26 60 q0 52 -54 103q-26 24 -40.5 40t-27 41.5t-12.5 51.5q0 76 91 123q9 18 9 43q0 51 -28.5 80t-75.5 29q-121 0 -121 -194v-458h-87z"/>
<glyph glyph-name="agrave" horiz-adv-x="482" unicode="à" d="M211 550l-120 143h96l95 -143h-71zM123 138q0 -41 23.5 -62.5t59.5 -21.5q45 0 75 23.5t43 57.5q4 18 4 27v85h-8q-197 0 -197 -109zM35 128q0 86 73.5 132.5t209.5 46.5h8v11q0 112 -110 112q-70 0 -126 -36l-21 58q68 43 160 43q184 0 184 -199v-180q0 -70 7 -116h-79 l-8 61h-2q-53 -72 -148 -72q-69 0 -108.5 41.5t-39.5 97.5z"/>
<glyph glyph-name="aacute" horiz-adv-x="482" unicode="á" d="M184 550l96 143h96l-121 -143h-71zM123 138q0 -41 23.5 -62.5t59.5 -21.5q45 0 75 23.5t43 57.5q4 18 4 27v85h-8q-197 0 -197 -109zM35 128q0 86 73.5 132.5t209.5 46.5h8v11q0 112 -110 112q-70 0 -126 -36l-21 58q68 43 160 43q184 0 184 -199v-180q0 -70 7 -116h-79 l-8 61h-2q-53 -72 -148 -72q-69 0 -108.5 41.5t-39.5 97.5z"/>
<glyph glyph-name="acircumflex" horiz-adv-x="482" unicode="â" d="M97 552l105 139h66l107 -139h-70l-69 90h-2l-68 -90h-69zM123 138q0 -41 23.5 -62.5t59.5 -21.5q45 0 75 23.5t43 57.5q4 18 4 27v85h-8q-197 0 -197 -109zM35 128q0 86 73.5 132.5t209.5 46.5h8v11q0 112 -110 112q-70 0 -126 -36l-21 58q68 43 160 43q184 0 184 -199 v-180q0 -70 7 -116h-79l-8 61h-2q-53 -72 -148 -72q-69 0 -108.5 41.5t-39.5 97.5z"/>
<glyph glyph-name="atilde" horiz-adv-x="482" unicode="ã" d="M99 570v6q0 49 20.5 73t55.5 24q22 0 70 -23q5 -2 16 -8.5t18 -9.5t13 -3q15 0 23.5 9t10.5 37h51q0 -106 -77 -106q-25 0 -70 25q-33 19 -49 19q-29 0 -31 -43h-51zM123 138q0 -41 23.5 -62.5t59.5 -21.5q45 0 75 23.5t43 57.5q4 18 4 27v85h-8q-197 0 -197 -109z M35 128q0 86 73.5 132.5t209.5 46.5h8v11q0 112 -110 112q-70 0 -126 -36l-21 58q68 43 160 43q184 0 184 -199v-180q0 -70 7 -116h-79l-8 61h-2q-53 -72 -148 -72q-69 0 -108.5 41.5t-39.5 97.5z"/>
<glyph glyph-name="adieresis" horiz-adv-x="482" unicode="ä" d="M333 570q-21 0 -35.5 15t-14.5 36t15 36t36 15t35 -15t14 -36t-14 -36t-36 -15zM149 570q-22 0 -36 15t-14 36t14.5 36t35.5 15t35 -15t14 -36t-14 -36t-35 -15zM123 138q0 -41 23.5 -62.5t59.5 -21.5q45 0 75 23.5t43 57.5q4 18 4 27v85h-8q-197 0 -197 -109zM35 128 q0 86 73.5 132.5t209.5 46.5h8v11q0 112 -110 112q-70 0 -126 -36l-21 58q68 43 160 43q184 0 184 -199v-180q0 -70 7 -116h-79l-8 61h-2q-53 -72 -148 -72q-69 0 -108.5 41.5t-39.5 97.5z"/>
<glyph glyph-name="aring" horiz-adv-x="482" unicode="å" d="M239 577q24 0 37.5 15.5t13.5 37.5q0 21 -13.5 37.5t-37.5 16.5q-23 0 -36 -16t-13 -36q0 -22 13 -38.5t36 -16.5zM240 537q-46 0 -75 26.5t-29 66.5q0 39 28.5 66.5t75.5 27.5q46 0 74 -26.5t28 -66.5t-28.5 -67t-73.5 -27zM123 138q0 -41 23.5 -62.5t59.5 -21.5 q45 0 75 23.5t43 57.5q4 18 4 27v85h-8q-197 0 -197 -109zM35 128q0 86 73.5 132.5t209.5 46.5h8v11q0 112 -110 112q-70 0 -126 -36l-21 58q68 43 160 43q184 0 184 -199v-180q0 -70 7 -116h-79l-8 61h-2q-53 -72 -148 -72q-69 0 -108.5 41.5t-39.5 97.5z"/>
<glyph glyph-name="ae" horiz-adv-x="773" unicode="æ" d="M410 295h242v7q0 47 -28 88.5t-85 41.5q-60 0 -93.5 -43.5t-35.5 -93.5zM122 134q0 -37 24.5 -58.5t59.5 -21.5q45 0 76 23.5t42 59.5q5 14 5 35v71h-14q-193 0 -193 -109zM36 127q0 82 74 128.5t209 46.5h8v20q0 12 -4 27.5t-14.5 35t-35 32.5t-58.5 13q-71 0 -125 -37 l-20 58q70 44 151 44q123 0 156 -102h2q53 102 169 102q42 0 76 -15.5t54.5 -39.5t34.5 -55t19 -59t5 -54q0 -12 -3 -39h-325v-5q0 -82 42.5 -126.5t112.5 -44.5q75 0 131 28l16 -63q-61 -33 -158 -33q-64 0 -113.5 28.5t-70.5 79.5h-3q-23 -51 -70 -79.5t-109 -28.5 q-72 0 -111.5 40.5t-39.5 97.5z"/>
<glyph glyph-name="ccedilla" horiz-adv-x="448" unicode="ç" d="M403 83l15 -65q-53 -26 -129 -29l-23 -39q29 -6 49.5 -25t20.5 -48q0 -43 -29.5 -63t-74.5 -20q-41 0 -69 17l14 45q22 -13 55 -13q43 0 43 31q-1 34 -78 42l41 76q-92 13 -146 78.5t-54 165.5q0 113 71.5 185.5t187.5 72.5q73 0 123 -25l-20 -68q-44 23 -102 23 q-80 0 -125.5 -52.5t-45.5 -130.5q0 -83 47.5 -132t121.5 -49q50 0 107 23z"/>
<glyph glyph-name="egrave" horiz-adv-x="501" unicode="è" d="M252 550l-120 143h96l95 -143h-71zM123 289h257q1 53 -27.5 97.5t-94.5 44.5q-61 0 -95 -43.5t-40 -98.5zM38 233q0 113 62 187.5t166 74.5q56 0 97 -22.5t62 -59t30.5 -73t9.5 -73.5q0 -28 -4 -41h-339q1 -84 47.5 -126t117.5 -42q76 0 135 25l15 -63q-66 -31 -161 -31 q-110 0 -174 67t-64 177z"/>
<glyph glyph-name="eacute" horiz-adv-x="501" unicode="é" d="M212 550l96 143h97l-121 -143h-72zM123 289h257q1 53 -27.5 97.5t-94.5 44.5q-61 0 -95 -43.5t-40 -98.5zM38 233q0 113 62 187.5t166 74.5q56 0 97 -22.5t62 -59t30.5 -73t9.5 -73.5q0 -28 -4 -41h-339q1 -84 47.5 -126t117.5 -42q76 0 135 25l15 -63q-66 -31 -161 -31 q-110 0 -174 67t-64 177z"/>
<glyph glyph-name="ecircumflex" horiz-adv-x="501" unicode="ê" d="M123 552l105 139h66l107 -139h-70l-69 90h-2l-68 -90h-69zM123 289h257q1 53 -27.5 97.5t-94.5 44.5q-61 0 -95 -43.5t-40 -98.5zM38 233q0 113 62 187.5t166 74.5q56 0 97 -22.5t62 -59t30.5 -73t9.5 -73.5q0 -28 -4 -41h-339q1 -84 47.5 -126t117.5 -42q76 0 135 25 l15 -63q-66 -31 -161 -31q-110 0 -174 67t-64 177z"/>
<glyph glyph-name="edieresis" horiz-adv-x="501" unicode="ë" d="M360 570q-22 0 -36 15t-14 36t14.5 36t36.5 15q21 0 35 -15t14 -36t-14 -36t-36 -15zM175 570q-22 0 -36 15t-14 36t14.5 36t36.5 15q20 0 34 -15t14 -36t-14 -36t-35 -15zM123 289h257q1 53 -27.5 97.5t-94.5 44.5q-61 0 -95 -43.5t-40 -98.5zM38 233q0 113 62 187.5 t166 74.5q56 0 97 -22.5t62 -59t30.5 -73t9.5 -73.5q0 -28 -4 -41h-339q1 -84 47.5 -126t117.5 -42q76 0 135 25l15 -63q-66 -31 -161 -31q-110 0 -174 67t-64 177z"/>
<glyph glyph-name="igrave" horiz-adv-x="234" unicode="ì" d="M89 550l-120 143h96l95 -143h-71zM73 0v484h87v-484h-87z"/>
<glyph glyph-name="iacute" horiz-adv-x="234" unicode="í" d="M63 550l96 143h97l-121 -143h-72zM73 0v484h87v-484h-87z"/>
<glyph glyph-name="icircumflex" horiz-adv-x="234" unicode="î" d="M-22 552l105 139h66l107 -139h-70l-69 90h-2l-68 -90h-69zM73 0v484h87v-484h-87z"/>
<glyph glyph-name="idieresis" horiz-adv-x="234" unicode="ï" d="M209 570q-21 0 -35 15t-14 36t14.5 36t35.5 15t35 -15t14 -36t-14 -36t-36 -15zM25 570q-22 0 -36 15t-14 36t14.5 36t36.5 15q20 0 34 -15t14 -36t-14 -36t-35 -15zM73 0v484h87v-484h-87z"/>
<glyph glyph-name="eth" horiz-adv-x="541" unicode="ð" d="M38 236q0 112 66 179.5t157 68.5q67 0 113 -42l2 2q-44 72 -118 129l-142 -66l-19 43l116 55q-40 29 -105 60l39 55q79 -36 141 -81l128 61l21 -44l-106 -50q83 -68 127 -159q43 -86 43 -194q0 -130 -69 -197t-165 -67q-100 0 -164.5 67.5t-64.5 179.5zM127 237 q0 -77 40 -130t100 -53q65 0 104.5 52.5t39.5 135.5q0 93 -34 135q-41 47 -107 47q-48 0 -82 -31t-47.5 -71.5t-13.5 -84.5z"/>
<glyph glyph-name="ntilde" horiz-adv-x="555" unicode="ñ" d="M139 570v6q0 49 20.5 73t55.5 24q22 0 70 -23q5 -2 13 -6.5t13 -7.5t11 -5t11 -2q31 0 33 46h51q0 -106 -77 -106q-24 0 -69 25q-35 19 -50 19q-14 0 -21.5 -9t-8.5 -34h-52zM73 0v353q0 49 -4 131h78l4 -80h3q20 38 62 64.5t98 26.5q28 0 55 -9.5t54 -31t44 -64.5 t17 -101v-289h-87v278q0 64 -27 104t-85 40q-42 0 -73.5 -25.5t-44.5 -64.5q-7 -19 -7 -41v-291h-87z"/>
<glyph glyph-name="ograve" horiz-adv-x="549" unicode="ò" d="M262 550l-120 143h96l95 -143h-71zM127 240q0 -77 39 -131.5t108 -54.5t108.5 54.5t39.5 132.5q0 73 -37 130t-111 57t-110.5 -56.5t-36.5 -131.5zM38 240q0 117 69.5 186t171.5 69q103 0 167.5 -69t64.5 -184q0 -64 -22 -114.5t-58 -79.5t-77.5 -44t-85.5 -15 q-99 0 -164.5 68.5t-65.5 182.5z"/>
<glyph glyph-name="oacute" horiz-adv-x="549" unicode="ó" d="M217 550l96 143h97l-121 -143h-72zM127 240q0 -77 39 -131.5t108 -54.5t108.5 54.5t39.5 132.5q0 73 -37 130t-111 57t-110.5 -56.5t-36.5 -131.5zM38 240q0 117 69.5 186t171.5 69q103 0 167.5 -69t64.5 -184q0 -64 -22 -114.5t-58 -79.5t-77.5 -44t-85.5 -15 q-99 0 -164.5 68.5t-65.5 182.5z"/>
<glyph glyph-name="ocircumflex" horiz-adv-x="549" unicode="ô" d="M135 552l105 139h66l107 -139h-70l-69 90h-2l-68 -90h-69zM127 240q0 -77 39 -131.5t108 -54.5t108.5 54.5t39.5 132.5q0 73 -37 130t-111 57t-110.5 -56.5t-36.5 -131.5zM38 240q0 117 69.5 186t171.5 69q103 0 167.5 -69t64.5 -184q0 -64 -22 -114.5t-58 -79.5 t-77.5 -44t-85.5 -15q-99 0 -164.5 68.5t-65.5 182.5z"/>
<glyph glyph-name="otilde" horiz-adv-x="549" unicode="õ" d="M135 570v6q0 49 20.5 73t55.5 24q8 0 14 -1t14.5 -4t12 -4t15 -6.5t14.5 -7.5q5 -2 16 -8.5t18 -9.5t13 -3q31 0 34 46h51q-1 -106 -77 -106q-25 0 -70 25q-33 19 -49 19q-29 0 -31 -43h-51zM127 240q0 -77 39 -131.5t108 -54.5t108.5 54.5t39.5 132.5q0 73 -37 130 t-111 57t-110.5 -56.5t-36.5 -131.5zM38 240q0 117 69.5 186t171.5 69q103 0 167.5 -69t64.5 -184q0 -64 -22 -114.5t-58 -79.5t-77.5 -44t-85.5 -15q-99 0 -164.5 68.5t-65.5 182.5z"/>
<glyph glyph-name="odieresis" horiz-adv-x="549" unicode="ö" d="M366 570q-21 0 -35.5 15t-14.5 36t15 36t36 15t35 -15t14 -36t-14 -36t-36 -15zM182 570q-22 0 -36 15t-14 36t14.5 36t35.5 15t35 -15t14 -36t-14 -36t-35 -15zM127 240q0 -77 39 -131.5t108 -54.5t108.5 54.5t39.5 132.5q0 73 -37 130t-111 57t-110.5 -56.5 t-36.5 -131.5zM38 240q0 117 69.5 186t171.5 69q103 0 167.5 -69t64.5 -184q0 -64 -22 -114.5t-58 -79.5t-77.5 -44t-85.5 -15q-99 0 -164.5 68.5t-65.5 182.5z"/>
<glyph glyph-name="divide" horiz-adv-x="596" unicode="÷" d="M245 91q0 25 15 40.5t39 15.5q23 0 37.5 -15.5t14.5 -40.5q0 -24 -14.5 -39.5t-38.5 -15.5t-38.5 15.5t-14.5 39.5zM40 237v60h516v-60h-516zM298 387q-24 0 -38.5 15.5t-14.5 39.5q0 25 15 40.5t39 15.5q23 0 37.5 -15.5t14.5 -40.5q0 -24 -14.5 -39.5t-38.5 -15.5z"/>
<glyph glyph-name="oslash" horiz-adv-x="549" unicode="ø" d="M191 83q35 -29 81 -29q68 0 111 53.5t43 135.5q0 67 -36 118h-1zM158 120h3l197 279q-30 29 -85 29q-74 0 -112 -56.5t-38 -131.5q0 -71 35 -120zM71 -8l41 60q-74 71 -74 187q0 117 68 186.5t170 69.5q69 0 122 -35l43 60l40 -27l-43 -62q73 -73 73 -186 q0 -124 -71 -190t-166 -66q-70 0 -123 34l-43 -61z"/>
<glyph glyph-name="ugrave" horiz-adv-x="550" unicode="ù" d="M257 550l-120 143h96l95 -143h-71zM70 201v283h87v-268q0 -155 107 -155q44 0 75.5 24.5t42.5 55.5q8 22 8 46v297h87v-352q0 -54 4 -132h-77l-5 79h-2q-54 -90 -161 -90q-76 0 -121 51t-45 161z"/>
<glyph glyph-name="uacute" horiz-adv-x="550" unicode="ú" d="M229 550l96 143h97l-121 -143h-72zM70 201v283h87v-268q0 -155 107 -155q44 0 75.5 24.5t42.5 55.5q8 22 8 46v297h87v-352q0 -54 4 -132h-77l-5 79h-2q-54 -90 -161 -90q-76 0 -121 51t-45 161z"/>
<glyph glyph-name="ucircumflex" horiz-adv-x="550" unicode="û" d="M136 552l105 139h66l107 -139h-70l-69 90h-2l-68 -90h-69zM70 201v283h87v-268q0 -155 107 -155q44 0 75.5 24.5t42.5 55.5q8 22 8 46v297h87v-352q0 -54 4 -132h-77l-5 79h-2q-54 -90 -161 -90q-76 0 -121 51t-45 161z"/>
<glyph glyph-name="udieresis" horiz-adv-x="550" unicode="ü" d="M371 570q-22 0 -36 15t-14 36t14.5 36t35.5 15t35 -15t14 -36t-13.5 -36t-35.5 -15zM186 570q-22 0 -36 15t-14 36t14.5 36t36.5 15q20 0 34 -15t14 -36t-14 -36t-35 -15zM70 201v283h87v-268q0 -155 107 -155q44 0 75.5 24.5t42.5 55.5q8 22 8 46v297h87v-352 q0 -54 4 -132h-77l-5 79h-2q-54 -90 -161 -90q-76 0 -121 51t-45 161z"/>
<glyph glyph-name="yacute" horiz-adv-x="471" unicode="ý" d="M193 550l96 143h97l-121 -143h-72zM114 -105q47 41 73 99q7 16 7 21q0 8 -7 22l-178 447h96l106 -286q19 -54 31 -99h2q2 8 13 44t18 56l96 285h93l-132 -345q-49 -129 -85.5 -197t-80.5 -106q-54 -47 -108 -57l-22 74q39 12 78 42z"/>
<glyph glyph-name="thorn" horiz-adv-x="569" unicode="þ" d="M169 147q15 -41 50.5 -65.5t79.5 -24.5q64 0 104 52t40 138q0 75 -39 126t-104 51q-43 0 -78.5 -25.5t-51.5 -69.5q-10 -28 -10 -49v-90q0 -20 9 -43zM160 65v-263h-88v868h88v-262h2q54 87 164 87h2q87 0 145 -68.5t58 -178.5q0 -125 -65 -192t-155 -67q-98 0 -149 76 h-2z"/>
<glyph glyph-name="OE" horiz-adv-x="894" unicode="Œ" d="M128 336q0 -125 67 -200.5t184 -75.5q61 0 98 13v526q-43 15 -107 15q-111 0 -176.5 -76.5t-65.5 -201.5zM36 332q0 164 93 258.5t242 94.5q56 0 140 -11h331v-72h-278v-215h262v-72h-262v-243h293v-72h-353q-86 -11 -141 -11q-152 0 -239.5 96.5t-87.5 246.5z"/>
<glyph glyph-name="oe" horiz-adv-x="863" unicode="œ" d="M495 290h247q0 23 -5 45.5t-17 45t-37 36.5t-59 14q-59 0 -92 -43.5t-37 -97.5zM127 240q0 -79 41 -132.5t103 -53.5q64 0 103 52t39 136q0 76 -36 131t-106 55q-73 0 -108.5 -57t-35.5 -131zM38 239q0 115 66 185.5t166 70.5q62 0 111 -30.5t72 -85.5h2q27 57 73 86.5 t103 29.5q44 0 79.5 -15.5t56.5 -39.5t35 -55t19.5 -60t5.5 -57q0 -29 -3 -41h-328q-1 -80 44 -125t116 -45q64 0 130 28l16 -63q-58 -33 -157 -33q-136 0 -192 115h-2q-26 -57 -77 -86t-111 -29q-97 0 -161 68.5t-64 181.5z"/>
<glyph glyph-name="Scaron" horiz-adv-x="493" unicode="Š" d="M222 713l-105 114h76l65 -70h2l63 70h74l-103 -114h-72zM41 33l23 73q69 -44 156 -44q66 0 103.5 31.5t37.5 83.5q0 47 -29 77.5t-98 56.5q-179 62 -179 191q0 79 61 130.5t158 51.5q90 0 148 -32l-23 -71q-59 32 -128 32q-63 0 -95 -30.5t-32 -70.5q0 -46 30.5 -74 t103.5 -56q89 -35 130 -80.5t41 -117.5q0 -83 -60.5 -139t-174.5 -56q-48 0 -96.5 13t-76.5 31z"/>
<glyph glyph-name="scaron" horiz-adv-x="396" unicode="š" d="M170 552l-107 139h71l68 -90h2l68 90h69l-105 -139h-66zM39 23l22 66q55 -34 116 -34q46 0 70 20t24 52q0 31 -20 50.5t-70 37.5q-128 47 -128 138q0 60 45.5 101t121.5 41q69 0 118 -30l-21 -64q-50 29 -99 29q-38 0 -59.5 -19.5t-21.5 -47.5q0 -29 20.5 -46t71.5 -37 q65 -24 96 -58t31 -87q0 -65 -48 -105.5t-133 -40.5q-78 0 -136 34z"/>
<glyph glyph-name="Ydieresis" horiz-adv-x="541" unicode="Ÿ" d="M371 715q-22 0 -36 15t-14 36q0 20 15 35.5t36 15.5t35 -15t14 -36t-14 -36t-36 -15zM186 715q-21 0 -35.5 15t-14.5 36t15 36t36 15q20 0 34 -15t14 -36t-14 -36t-35 -15zM226 0v285l-213 389h100l94 -186q40 -78 67 -139h2q12 28 68 139l97 186h98l-225 -387v-287h-88z "/>
<glyph glyph-name="circumflex" horiz-adv-x="300" unicode="ˆ" d="M11 552l105 139h66l107 -139h-70l-69 90h-2l-68 -90h-69z"/>
<glyph glyph-name="tilde" horiz-adv-x="300" unicode="˜" d="M11 570v6q0 49 20.5 73t55.5 24q22 0 70 -23q5 -2 13 -6.5t13 -7.5t11 -5t11 -2q31 0 33 46h51q0 -106 -77 -106q-24 0 -69 25q-35 19 -50 19q-14 0 -21.5 -9t-8.5 -34h-52z"/>
<glyph glyph-name="theta" horiz-adv-x="534" unicode="θ" d="M271 54q68 0 103.5 76t35.5 203h-285q0 -131 40 -205t106 -74zM124 399h286q0 112 -37 184.5t-107 72.5q-64 0 -103 -75.5t-39 -181.5zM269 -11q-109 0 -170 94.5t-61 277.5q0 158 61.5 259t172.5 101q112 0 168 -96.5t56 -263.5q0 -174 -57 -273t-170 -99z"/>
<glyph glyph-name="pi" horiz-adv-x="554" unicode="π" d="M57 0q26 69 45 192.5t21 222.5q-65 0 -98 -8l-12 51q38 26 139 26h378l-10 -69h-66v-271q0 -98 13 -144h-85q-16 28 -16 135v280h-158q-4 -105 -23.5 -232t-44.5 -183h-83z"/>
<glyph glyph-name="chi" horiz-adv-x="458" unicode="χ" d="M177 -20l-91 -194l-76 23l174 347l-167 328h95l123 -261h4q23 52 51 107l72 154h86l-171 -327l176 -348l-82 -23l-144 297h-4q-1 -3 -18 -41.5t-28 -61.5z"/>
<glyph glyph-name="uni200C" horiz-adv-x="0" unicode="‌" d="M-81 767l-23 25l78 83l-78 82l23 27l81 -84l79 82l24 -25l-79 -82l79 -83l-24 -24l-79 80z"/>
<glyph glyph-name="uni200D" horiz-adv-x="0" unicode="‍" d="M-116 785h-34v109h301v-109h-34v73h-233v-73z"/>
<glyph glyph-name="uni200E" horiz-adv-x="0" unicode="‎" d="M39 767l-25 25l63 66h-191v36h191l-63 63l25 27l105 -109z"/>
<glyph glyph-name="endash" horiz-adv-x="481" unicode="–" d="M30 224v60h420v-60h-420z"/>
<glyph glyph-name="emdash" horiz-adv-x="822" unicode="—" d="M35 224v60h752v-60h-752z"/>
<glyph glyph-name="quoteleft" horiz-adv-x="206" unicode="‘" d="M35 448q17 62 44.5 132.5t48.5 105.5l56 6q-39 -106 -59 -234z"/>
<glyph glyph-name="quotesinglbase" horiz-adv-x="206" unicode="‚" d="M79 116l91 10q-17 -62 -44.5 -132t-48.5 -105l-57 -7q39 106 59 234z"/>
<glyph glyph-name="quotedblleft" horiz-adv-x="354" unicode="“" d="M183 448q17 62 44.5 132.5t48.5 105.5l55 6q-42 -117 -58 -234zM35 448q16 61 44 131.5t49 106.5l55 6q-41 -114 -59 -234z"/>
<glyph glyph-name="quotedblright" horiz-adv-x="354" unicode="”" d="M182 448q39 106 59 234l90 10q-17 -62 -44.5 -132t-48.5 -105zM34 448q39 106 59 234l90 10q-17 -62 -44.5 -132t-48.5 -105z"/>
<glyph glyph-name="dagger" horiz-adv-x="500" unicode="†" d="M209 -50l8 456l-173 -8v72l173 -7l-8 211h82l-8 -211l174 7v-72l-174 8l8 -456h-82z"/>
<glyph glyph-name="daggerdbl" horiz-adv-x="500" unicode="‡" d="M43 148v72l173 -8v204l-173 -7v71l173 -7l-7 201h81l-6 -201l173 7v-71l-173 7v-204l173 8v-72l-173 7l6 -205h-81l6 205z"/>
<glyph glyph-name="ellipsis" horiz-adv-x="1000" unicode="…" d="M774 51q0 28 17 46t43 18t42.5 -18t16.5 -46q0 -27 -16.5 -44.5t-43.5 -17.5q-26 0 -42.5 17.5t-16.5 44.5zM441 51q0 28 17 46t43 18t42 -17.5t17 -46.5q0 -27 -16.5 -44.5t-43.5 -17.5q-26 0 -42.5 17.5t-16.5 44.5zM108 51q0 28 16.5 46t42.5 18q27 0 43 -17.5 t16 -46.5q0 -27 -16 -44.5t-43 -17.5q-26 0 -42.5 17.5t-16.5 44.5z"/>
<glyph glyph-name="perthousand" horiz-adv-x="1156" unicode="‰" d="M888 192v-8q0 -61 22.5 -100t61.5 -39q42 0 63 40.5t21 107.5q0 65 -20.5 105.5t-63.5 40.5q-40 0 -62 -41.5t-22 -105.5zM818 188q0 94 45 149t112 55q69 0 109.5 -51t40.5 -143q0 -98 -44.5 -151.5t-110.5 -53.5q-64 0 -107.5 51t-44.5 144zM523 192v-8 q0 -61 22.5 -100t62.5 -39q42 0 62.5 40.5t20.5 107.5q0 65 -20 105.5t-63 40.5q-40 0 -62.5 -42t-22.5 -105zM454 188q0 94 45 149t112 55q69 0 109.5 -51t40.5 -143q0 -98 -44.5 -151.5t-111.5 -53.5q-64 0 -107.5 51t-43.5 144zM175 -12l383 674h55l-382 -674h-56z M184 315q42 0 63 40t21 108q0 65 -20 105t-63 40q-42 0 -64 -43t-22 -108q0 -62 22.5 -102t62.5 -40zM182 262q-64 0 -107.5 51t-44.5 144q0 95 45 149.5t112 54.5q69 0 110 -51t41 -143q0 -98 -44.5 -151.5t-111.5 -53.5z"/>
<glyph glyph-name="guilsinglleft" horiz-adv-x="303" unicode="‹" d="M189 68l-141 184l141 184h71l-141 -184l142 -184h-72z"/>
<glyph glyph-name="guilsinglright" horiz-adv-x="303" unicode="›" d="M43 68l143 184l-143 184h70l144 -184l-144 -184h-70z"/>
<glyph glyph-name="fraction" horiz-adv-x="121" unicode="⁄" d="M-101 -11h-57l380 672h56z"/>
<glyph glyph-name="Euro" d="M144 78q-58 64 -73 172h-61v49h57v15q0 31 1 45h-58v49h66q17 102 82 170q80 83 198 83q73 0 133 -32l-20 -66q-49 28 -112 28q-80 0 -132 -55q-46 -45 -60 -128h279v-49h-288q-2 -13 -2 -42v-18h290v-49h-283q10 -85 55 -131q54 -58 141 -58q64 0 122 33l17 -63 q-57 -42 -149 -42q-126 0 -203 89z" unicode="€"/>
<glyph glyph-name="trademark" horiz-adv-x="618" unicode="™" d="M273 402l21 272h81l47 -133q6 -21 18 -69h1q6 22 18 67l48 135h78l21 -272h-54l-10 160q-1 29 -3 76h-2q-2 -7 -10 -37t-13 -44l-49 -151h-56l-49 155q-5 21 -19 77h-3q0 -26 -2 -76l-10 -160h-53zM117 402v227h-87v45h228v-45h-88v-227h-53z"/>
<glyph glyph-name="partialdiff" horiz-adv-x="530" unicode="∂" d="M114 201q0 -65 32.5 -102.5t85.5 -37.5q65 0 110.5 63t56.5 152q-14 40 -52.5 68.5t-87.5 28.5q-60 0 -102.5 -49.5t-42.5 -122.5zM26 200q0 102 63.5 172.5t155.5 70.5q57 0 100.5 -26.5t62.5 -60.5h1q2 10 2 33q0 125 -56 195t-132 70q-82 0 -137 -40l-29 59 q78 53 174 53q110 0 186.5 -94.5t76.5 -258.5q0 -182 -78.5 -283t-191.5 -101q-95 0 -146.5 62t-51.5 149z"/>
<glyph glyph-name="product" horiz-adv-x="615" unicode="∏" d="M102 -90v667h-93v73h596v-73h-93v-667h-83v667h-244v-667h-83z"/>
<glyph glyph-name="summation" horiz-adv-x="507" unicode="∑" d="M9 -38l251 316l-238 313v59h461v-72h-349v-3l222 -294l-235 -295v-4h393v-72h-505v52z"/>
<glyph glyph-name="minus" horiz-adv-x="596" unicode="−" d="M40 237v60h516v-60h-516z"/>
<glyph glyph-name="radical" horiz-adv-x="562" unicode="√" d="M293 60q12 -32 19 -64h1q2 8 6.5 30.5t7.5 33.5l185 767h67l-230 -922h-64l-159 427l-75 -31l-19 47l138 58z"/>
<glyph glyph-name="infinity" horiz-adv-x="728" unicode="∞" d="M183 176q26 0 54.5 15.5t44.5 30.5t42 42q-6 6 -23 22.5t-26.5 24.5t-25 19.5t-31 16.5t-32.5 5q-37 0 -62.5 -26t-25.5 -62q0 -38 24 -63t61 -25zM404 264q6 -6 23 -22.5t26.5 -24.5t25 -19.5t31 -16.5t32.5 -5q37 0 62.5 26t25.5 62q0 38 -24 63t-61 25q-26 0 -55 -16 t-43.5 -30t-42.5 -42zM179 116q-64 0 -104 41.5t-40 106.5q0 61 43.5 104.5t108.5 43.5q11 0 22 -2t20 -4t20 -8t18 -9.5t18.5 -12.5t16 -12.5t17 -14.5t15.5 -14l15.5 -15.5l14.5 -14.5q63 62 94 81q44 26 91 26q64 0 104 -41.5t40 -106.5q0 -61 -43.5 -104.5t-108.5 -43.5 q-26 0 -50 8t-50.5 29t-37 31t-39.5 39q-28 -28 -40.5 -39.5t-39 -31.5t-51.5 -28t-54 -8z"/>
<glyph glyph-name="approxequal" horiz-adv-x="596" unicode="≈" d="M62 110l-35 43q26 31 67.5 53.5t85.5 22.5q17 0 32 -2t29.5 -7t23 -8t23.5 -10t20 -9q6 -3 22.5 -10.5t27.5 -11.5t28.5 -8t34.5 -4q64 0 117 59l36 -40q-25 -33 -67 -56t-86 -23q-16 0 -31 2t-30 7t-23 8t-24 10.5t-19 8.5q-6 2 -23 10t-27.5 12t-28.5 8t-36 4 q-62 0 -117 -59zM58 309l-35 42q27 32 68 54.5t85 22.5q21 0 41 -4t31.5 -8.5t30.5 -13t25 -10.5q3 -2 22 -10.5t28 -12t27 -7.5t36 -4q60 0 116 58l37 -41q-26 -33 -67 -55.5t-85 -22.5q-20 0 -41 4.5t-31.5 8t-31 12.5t-24.5 11q-2 1 -22 10t-29 12.5t-27 7.5t-36 4 q-62 0 -118 -58z"/>
<glyph glyph-name="notequal" horiz-adv-x="596" unicode="≠" d="M105 18l78 122h-143v60h182l89 138h-271v61h309l76 121h65l-78 -121h144v-61h-183l-88 -138h271v-60h-310l-76 -122h-65z"/>
<glyph glyph-name="lessequal" horiz-adv-x="596" unicode="≤" d="M68 0v57h462v-57h-462zM66 292v58l464 193v-66l-382 -155v-2l382 -154v-67z"/>
<glyph glyph-name="greaterequal" horiz-adv-x="596" unicode="≥" d="M66 0v57h462v-57h-462zM66 99v67l382 154v2l-382 155v66l464 -193v-58z"/>
<glyph glyph-name="lozenge" horiz-adv-x="521" unicode="◊" d="M251 60q10 -22 10 -24h2q2 5 10 24l128 263l-130 267q-7 10 -10 23h-2q-6 -15 -11 -23l-128 -264zM226 -31l-182 356l182 356h69l182 -356l-182 -356h-69z"/>
</font>
</defs>
</svg>
