<svg width="65" height="65" viewBox="0 0 65 65" fill="none" xmlns="http://www.w3.org/2000/svg">
<path d="M32.1352 63.0085C49.3306 63.0085 63.2703 49.1274 63.2703 32.0043C63.2703 14.8811 49.3306 1 32.1352 1C14.9397 1 1 14.8811 1 32.0043C1 49.1274 14.9397 63.0085 32.1352 63.0085Z" stroke="#00A19A" stroke-width="2" stroke-miterlimit="10"/>
<path d="M35.7002 35.436C39.1131 35.436 41.8797 32.681 41.8797 29.2825C41.8797 25.884 39.1131 23.129 35.7002 23.129C32.2874 23.129 29.5208 25.884 29.5208 29.2825C29.5208 32.681 32.2874 35.436 35.7002 35.436Z" stroke="#00A19A" stroke-width="2" stroke-miterlimit="10"/>
<path d="M32.1351 1.11835C32.1351 1.11835 46.1578 13.1887 48.7722 16.7388C51.3866 20.2889 53.288 22.419 52.9315 33.306C52.575 44.193 52.9315 55.08 52.9315 55.08" stroke="#00A19A" stroke-width="2" stroke-miterlimit="10"/>
<path d="M2.18835 23.9573L16.8052 35.436C16.8052 35.436 17.7559 36.6194 17.6371 37.5661C17.3994 38.5128 10.8634 54.4882 10.8634 54.4882" stroke="#00A19A" stroke-width="2" stroke-miterlimit="10"/>
<path d="M30.4715 63.0085V56.2633C30.4715 55.1983 28.0947 53.8966 27.3817 53.3049C25.005 51.1748 23.4601 48.4531 24.0543 45.1397C24.5296 42.4179 26.3122 39.5778 29.1643 39.2228C30.5903 38.9861 32.254 38.9861 33.68 39.5778C35.4626 40.2878 35.5814 41.9446 37.6016 41.1162C40.2161 40.0512 43.4246 38.7495 45.9202 40.9979C48.6534 43.3646 48.7723 46.7964 47.1086 49.8731C46.2767 51.4115 44.9695 52.7132 43.7811 54.0149C43.3058 54.4883 41.8798 55.5533 41.7609 56.3817C41.7609 57.3283 41.7609 61.5885 41.7609 61.5885" stroke="#00A19A" stroke-width="2" stroke-miterlimit="10"/>
<path d="M18.7067 4.07675L21.5588 6.91684C22.2718 7.62686 24.8862 6.91684 25.8369 6.91684C29.0455 6.7985 32.1352 7.62686 34.0366 10.3486C35.5815 12.597 36.4133 15.7921 34.6308 18.1588C33.7989 19.3422 32.6105 20.5256 31.1845 21.1173C29.402 21.8273 28.2136 20.7622 27.2629 22.774C26.0745 25.3774 24.7673 28.4541 21.4399 28.6908C17.756 28.9275 15.2604 26.5608 14.3097 23.2473C13.8344 21.5906 13.7155 19.6972 13.7155 18.0405C13.7155 17.3305 14.0721 15.6738 13.4779 14.9637C12.8837 14.2537 9.79395 11.2953 9.79395 11.2953" stroke="#00A19A" stroke-width="2" stroke-miterlimit="10"/>
</svg>
