<svg width="101" height="93" viewBox="0 0 101 93" fill="none" xmlns="http://www.w3.org/2000/svg">
<path d="M99.3167 89.2169V23.5669H79.1167V89.2169H74.0667V37.0336H53.8667V89.2169H48.8167V50.5003H28.6167V89.2169H23.5667V65.6503H3.36667V89.2169H1.68333C0.754133 89.2169 0 89.9694 0 90.9003C0 91.8311 0.754133 92.5836 1.68333 92.5836H3.36667H23.5667H28.6167H48.8167H53.8667H74.0667H79.1167H99.3167C100.246 92.5836 101 91.8311 101 90.9003C101 89.9694 100.246 89.2169 99.3167 89.2169ZM6.73333 89.2169V69.0169H20.2V89.2169H6.73333ZM31.9833 89.2169V53.8669H45.45V89.2169H31.9833ZM57.2333 89.2169V40.4003H70.7V89.2169H57.2333ZM82.4833 89.2169V26.9336H95.95V89.2169H82.4833Z" fill="#00A19A"/>
<path d="M13.5172 42.6391C13.8017 42.6391 14.0929 42.5667 14.3572 42.4135L75.41 7.16454L71.5888 15.5644C71.2034 16.4111 71.5771 17.4093 72.4238 17.7931C72.6493 17.8975 72.8867 17.9446 73.1207 17.9446C73.7603 17.9446 74.3714 17.5776 74.6542 16.9582L80.6502 3.77768C80.6687 3.73559 80.6654 3.69014 80.6805 3.64638C80.7125 3.55716 80.7378 3.47131 80.7546 3.37704C80.763 3.32991 80.7899 3.29119 80.7933 3.24238C80.795 3.22218 80.7866 3.20534 80.7883 3.18514C80.7916 3.12118 80.7849 3.06226 80.7815 2.99829C80.7765 2.90571 80.7613 2.81818 80.7411 2.72559C80.7277 2.66163 80.7243 2.59598 80.7024 2.53369C80.6822 2.47309 80.6469 2.42259 80.6199 2.36368C80.598 2.32496 80.598 2.27951 80.5745 2.23911C80.5509 2.19871 80.5105 2.17514 80.4836 2.13643C80.4482 2.08424 80.4213 2.02869 80.3792 1.98156C80.3354 1.93106 80.2799 1.89571 80.2294 1.85026C80.1604 1.78798 80.0914 1.73074 80.0139 1.68024C79.9617 1.64658 79.9146 1.60954 79.8574 1.58093C79.8389 1.57251 79.8288 1.55568 79.8102 1.54726C79.7682 1.52874 79.7227 1.53211 79.6806 1.51696C79.588 1.48329 79.4971 1.45973 79.4012 1.44289C79.3574 1.43448 79.3221 1.40923 79.2766 1.40586L64.8639 0.00869355C63.9297 -0.0855731 63.1149 0.59786 63.0257 1.52033C62.9348 2.44616 63.6132 3.26931 64.5374 3.35853L73.7216 4.24901L12.6739 39.498C11.8675 39.9626 11.5932 40.9928 12.0578 41.7974C12.3692 42.3378 12.9348 42.6391 13.5172 42.6391Z" fill="#00A19A"/>
</svg>
