<?xml version="1.0" encoding="UTF-8"?>
<svg width="102px" height="102px" viewBox="0 0 102 102" version="1.1" xmlns="http://www.w3.org/2000/svg" xmlns:xlink="http://www.w3.org/1999/xlink">
    <!-- Generator: Sketch 54.1 (76490) - https://sketchapp.com -->
    <title>a14-3</title>
    <desc>Created with Sketch.</desc>
    <defs>
        <linearGradient x1="76.260693%" y1="11.2327284%" x2="22.3691856%" y2="89.6824494%" id="linearGradient-1">
            <stop stop-color="#FAE857" offset="0%"></stop>
            <stop stop-color="#F2CD2C" offset="100%"></stop>
        </linearGradient>
    </defs>
    <g id="Design" stroke="none" stroke-width="1" fill="none" fill-rule="evenodd">
        <g id="cpa-97_design" transform="translate(-960.000000, -8468.000000)">
            <g id="✅-art14" transform="translate(0.000000, 8169.000000)">
                <g id="content" transform="translate(160.000000, 267.000000)">
                    <g id="3" transform="translate(768.000000, 0.000000)">
                        <g id="Group-11" transform="translate(32.000000, 32.000000)">
                            <g id="a14-3">
                                <circle id="Oval" fill="url(#linearGradient-1)" cx="51" cy="51" r="51"></circle>
                                <path d="M33.616,78.904 C34.3626704,79.2666685 34.736,79.8746624 34.736,80.728 C34.736,81.4000034 34.5040023,81.9466646 34.04,82.368 C33.5759977,82.7893354 32.9173376,83 32.064,83 L27.856,83 L27.856,75 L31.744,75 C32.5866709,75 33.2399977,75.2079979 33.704,75.624 C34.1680023,76.0400021 34.4,76.5839966 34.4,77.256 C34.4,77.9600035 34.1386693,78.5093314 33.616,78.904 Z M31.552,76.696 L29.792,76.696 L29.792,78.136 L31.552,78.136 C32.1386696,78.136 32.432,77.8960024 32.432,77.416 C32.432,76.9359976 32.1386696,76.696 31.552,76.696 Z M31.824,81.256 C32.4213363,81.256 32.72,81.0000026 32.72,80.488 C32.72,80.2639989 32.6400008,80.0880006 32.48,79.96 C32.3199992,79.8319994 32.1013347,79.768 31.824,79.768 L29.792,79.768 L29.792,81.256 L31.824,81.256 Z M47.232,81.064 L48.288,81.064 L48.288,85.144 L46.272,85.144 L46.272,83 L41.312,83 L41.312,85.144 L39.296,85.144 L39.296,81.064 L40.272,81.064 C40.730669,80.3813299 40.96,79.4373394 40.96,78.232 L40.96,75 L47.232,75 L47.232,81.064 Z M42.48,81.064 L45.216,81.064 L45.216,76.856 L42.976,76.856 L42.976,78.232 C42.976,79.3626723 42.8106683,80.3066629 42.48,81.064 Z M51.344,79.848 C51.6213347,80.8506717 52.3733272,81.352 53.6,81.352 C54.3893373,81.352 54.9866646,81.085336 55.392,80.552 L57.056,81.512 C56.2666627,82.653339 55.1040077,83.224 53.568,83.224 C52.2453267,83.224 51.184004,82.824004 50.384,82.024 C49.583996,81.223996 49.184,80.2160061 49.184,79 C49.184,77.7946606 49.5786627,76.7893374 50.368,75.984 C51.1573373,75.1786626 52.1706605,74.776 53.408,74.776 C54.5813392,74.776 55.5493295,75.1813293 56.312,75.992 C57.0746705,76.8026707 57.456,77.8053274 57.456,79 C57.456,79.266668 57.4293336,79.5493318 57.376,79.848 L51.344,79.848 Z M51.312,78.248 L55.392,78.248 C55.2746661,77.7039973 55.0320018,77.298668 54.664,77.032 C54.2959982,76.765332 53.8773357,76.632 53.408,76.632 C52.8533306,76.632 52.3946685,76.7733319 52.032,77.056 C51.6693315,77.3386681 51.4293339,77.7359974 51.312,78.248 Z M64.144,75 L66.208,75 L66.208,83 L64.144,83 L64.144,79.96 L60.96,79.96 L60.96,83 L58.896,83 L58.896,75 L60.96,75 L60.96,78.024 L64.144,78.024 L64.144,75 Z M71.712,77.56 C72.6186712,77.56 73.3493306,77.8079975 73.904,78.304 C74.4586694,78.8000025 74.736,79.4586626 74.736,80.28 C74.736,81.1013374 74.4586694,81.7599975 73.904,82.256 C73.3493306,82.7520025 72.6186712,83 71.712,83 L68.096,83 L68.096,75 L70.16,75 L70.16,77.56 L71.712,77.56 Z M71.728,81.176 C72.0160014,81.176 72.2533324,81.0933342 72.44,80.928 C72.6266676,80.7626658 72.72,80.546668 72.72,80.28 C72.72,80.013332 72.6266676,79.7946675 72.44,79.624 C72.2533324,79.4533325 72.0160014,79.368 71.728,79.368 L70.16,79.368 L70.16,81.176 L71.728,81.176 Z" id="вдень" fill="#000000" fill-rule="nonzero"></path>
                                <path d="M34.69,62 L34.69,55.82 L49.03,41.06 C52.230016,37.6999832 53.83,34.9000112 53.83,32.66 C53.83,31.0199918 53.3200051,29.700005 52.3,28.7 C51.2799949,27.699995 49.970008,27.2 48.37,27.2 C45.2099842,27.2 42.8700076,28.8399836 41.35,32.12 L34.39,28.04 C35.7100066,25.1599856 37.6099876,22.9600076 40.09,21.44 C42.5700124,19.9199924 45.2899852,19.16 48.25,19.16 C52.050019,19.16 55.3099864,20.3499881 58.03,22.73 C60.7500136,25.1100119 62.11,28.3199798 62.11,32.36 C62.11,36.7200218 59.810023,41.199977 55.21,45.8 L46.99,54.02 L62.77,54.02 L62.77,62 L34.69,62 Z" id="2" fill="#000000" fill-rule="nonzero"></path>
                            </g>
                        </g>
                    </g>
                </g>
            </g>
        </g>
    </g>
</svg>