<?xml version="1.0" encoding="UTF-8"?>
<svg width="102px" height="102px" viewBox="0 0 102 102" version="1.1" xmlns="http://www.w3.org/2000/svg" xmlns:xlink="http://www.w3.org/1999/xlink">
    <!-- Generator: Sketch 54.1 (76490) - https://sketchapp.com -->
    <title>a16-4</title>
    <desc>Created with Sketch.</desc>
    <g id="Design" stroke="none" stroke-width="1" fill="none" fill-rule="evenodd">
        <g id="cpa-97_design" transform="translate(-1101.000000, -9371.000000)">
            <g id="✅-art16" transform="translate(0.000000, 9064.000000)">
                <g id="content" transform="translate(160.000000, 267.000000)">
                    <g id="4" transform="translate(864.000000, 0.000000)">
                        <g id="a16-4" transform="translate(77.000000, 40.000000)">
                            <circle id="Oval" fill="#DAF7FF" cx="51" cy="51" r="51"></circle>
                            <g id="place" transform="translate(31.000000, 17.000000)" fill="#000000" fill-rule="nonzero">
                                <path d="M39.3520313,8.4980117 L34.4321094,1.51134503 C33.7657031,0.564990253 32.6757812,0 31.516875,0 L12.7020312,0 C11.5429688,0 10.453125,0.564990253 9.78664063,1.511423 L4.86671875,8.49808967 C4.4428125,9.09996101 4.21875,9.80709552 4.21875,10.542924 L4.21875,15.165692 C4.21875,15.5962573 4.56851562,15.9454191 5,15.9454191 C5.43148438,15.9454191 5.78125,15.5962573 5.78125,15.165692 L5.78125,10.542924 C5.78125,10.5099415 5.7834375,10.477271 5.785,10.4445224 L16.1814063,10.4445224 L16.1814063,17.8557505 C16.1814063,18.134269 16.3303125,18.3917349 16.5720313,18.5309942 C16.8138281,18.6704094 17.1115625,18.6703314 17.3532813,18.5310721 L22.1415625,15.7727096 L26.8616406,18.5288109 C26.9835156,18.599922 27.1197656,18.6354776 27.2561719,18.6354776 C27.3903125,18.6354776 27.5244531,18.6010916 27.6448438,18.5321637 C27.8876563,18.3931384 28.0374219,18.1351267 28.0374219,17.8557505 L28.0374219,10.4445224 L38.4338281,10.4445224 C38.4353906,10.477271 38.4375781,10.5099415 38.4375781,10.542924 L38.4375781,32.1552437 C38.4375,33.2562963 37.5399219,34.1520468 36.4367969,34.1520468 L16.4322656,34.1520468 C16.0007813,34.1520468 15.6510156,34.5012086 15.6510156,34.9317739 C15.6510156,35.3623392 16.0007813,35.711501 16.4322656,35.711501 L36.4367187,35.711501 C38.4014844,35.711501 40,34.1161793 40,32.1552437 L40,10.542924 C40,9.80709552 39.7760156,9.09996101 39.3520313,8.4980117 Z M24.3123438,1.55945419 L26.2428906,8.88506823 L17.9759375,8.88506823 L19.9064844,1.55945419 L24.3123438,1.55945419 Z M16.3603906,8.88506823 L6.50398438,8.88506823 L11.065,2.40810916 C11.4392188,1.87664717 12.0511719,1.55945419 12.7020313,1.55945419 L18.2909375,1.55945419 L16.3603906,8.88506823 Z M26.4748437,16.4962183 L22.5386719,14.1978168 C22.2963281,14.0563743 21.9966406,14.0555945 21.7535938,14.1955556 L17.7439062,16.5053411 L17.7439062,10.4445224 L26.4748437,10.4445224 L26.4748437,16.4962183 L26.4748437,16.4962183 Z M27.8585156,8.88506823 L25.9279687,1.55945419 L31.516875,1.55945419 C32.1676562,1.55945419 32.7796094,1.87664717 33.1538281,2.40810916 L37.7149219,8.88506823 L27.8585156,8.88506823 Z" id="Shape"></path>
                                <path d="M8.87210938,17.1626511 C3.98007813,17.1626511 0,21.1348928 0,26.0173879 C0,28.0403119 0.701171875,30.017076 1.97484375,31.5866667 C1.976875,31.5893177 1.97890625,31.5919688 1.98101563,31.5946979 L8.25601562,39.6219883 C8.4040625,39.811384 8.63125,39.9221053 8.871875,39.9221053 C9.1125,39.9221053 9.3396875,39.811462 9.48773437,39.6221442 L15.7328125,31.6369591 C15.7447656,31.6216764 15.7560156,31.6061598 15.7666406,31.5903314 C17.0424219,30.0194932 17.7439844,28.0438986 17.7439844,26.0173879 C17.7439844,21.1348928 13.7640625,17.1626511 8.87210938,17.1626511 Z M14.5100781,30.6604288 C14.4892188,30.685692 14.4700781,30.7120468 14.4528906,30.7391813 L8.8721875,37.8748538 L3.2290625,30.6558285 C3.22078125,30.6444444 3.2121875,30.6333723 3.20320313,30.6223782 C2.14523438,29.3268616 1.56257813,27.691384 1.56257813,26.0173099 C1.56257813,21.9946979 4.8415625,18.7220273 8.87203125,18.7220273 C12.9025,18.7220273 16.1814844,21.9946979 16.1814844,26.0173099 C16.1814062,27.7093957 15.5878125,29.3583626 14.5100781,30.6604288 Z" id="Shape"></path>
                                <path d="M8.87195313,21.8068616 C6.54570313,21.8068616 4.65320313,23.6957505 4.65320313,26.0173879 C4.65320313,28.3390253 6.54570313,30.2279142 8.87195313,30.2279142 C11.1982031,30.2279142 13.0907031,28.3390253 13.0907031,26.0173879 C13.0907812,23.6957505 11.1982812,21.8068616 8.87195313,21.8068616 Z M8.87195313,28.66846 C7.40726562,28.66846 6.21570313,27.4792203 6.21570313,26.0173879 C6.21570313,24.5555556 7.40726562,23.3663158 8.87195313,23.3663158 C10.3366406,23.3663158 11.5282031,24.5555556 11.5282031,26.0173879 C11.5282031,27.4792203 10.3367187,28.66846 8.87195313,28.66846 Z" id="Shape"></path>
                                <path d="M33.3257812,30.0140351 C33.1804687,29.8690058 32.9789063,29.785575 32.7734375,29.785575 C32.5679687,29.785575 32.3664062,29.8689279 32.2210937,30.0140351 C32.0757812,30.1590643 31.9921875,30.3602339 31.9921875,30.5653021 C31.9921875,30.7703704 32.0757812,30.97154 32.2210937,31.1164912 C32.3664062,31.2615205 32.5679687,31.3450292 32.7734375,31.3450292 C32.9789063,31.3450292 33.1804687,31.2615984 33.3257812,31.1164912 C33.4710938,30.97154 33.5546875,30.7703704 33.5546875,30.5653021 C33.5546875,30.3602339 33.4710938,30.1590643 33.3257812,30.0140351 Z" id="Path"></path>
                                <path d="M29.8146875,29.785575 L23.4765625,29.785575 C23.0450781,29.785575 22.6953125,30.1347368 22.6953125,30.5653021 C22.6953125,30.9958674 23.0450781,31.3450292 23.4765625,31.3450292 L29.8146094,31.3450292 C30.2460938,31.3450292 30.5958594,30.9958674 30.5958594,30.5653021 C30.5959375,30.1347368 30.2461719,29.785575 29.8146875,29.785575 Z" id="Path"></path>
                                <path d="M34.9934375,26.042885 L23.4803906,26.042885 C23.0489062,26.042885 22.6991406,26.3920468 22.6991406,26.8226121 C22.6991406,27.2531774 23.0489062,27.6023392 23.4803906,27.6023392 L34.9933594,27.6023392 C35.4249219,27.6023392 35.7746875,27.2531774 35.7746875,26.8226121 C35.7746875,26.3920468 35.4249219,26.042885 34.9934375,26.042885 Z" id="Path"></path>
                            </g>
                            <path d="M18.04,70.8 L18.04,82 L15.832,82 L15.832,72.912 L11.88,72.912 L11.88,82 L9.672,82 L9.672,70.8 L18.04,70.8 Z M26.84,81.008 C26.0186626,81.8186707 25.0160059,82.224 23.832,82.224 C22.6479941,82.224 21.6480041,81.8160041 20.832,81 C20.0159959,80.1839959 19.608,79.1840059 19.608,78 C19.608,76.8159941 20.0159959,75.8160041 20.832,75 C21.6480041,74.1839959 22.6479941,73.776 23.832,73.776 C25.0160059,73.776 26.0186626,74.1839959 26.84,75 C27.6613374,75.8160041 28.072,76.8159941 28.072,78 C28.072,79.1840059 27.6613374,80.1866626 26.84,81.008 Z M22.28,79.584 C22.6960021,80.0000021 23.2133302,80.208 23.832,80.208 C24.4506698,80.208 24.9679979,80.0000021 25.384,79.584 C25.8000021,79.1679979 26.008,78.6400032 26.008,78 C26.008,77.3599968 25.8000021,76.8320021 25.384,76.416 C24.9679979,75.9999979 24.4506698,75.792 23.832,75.792 C23.2133302,75.792 22.6986687,75.9999979 22.288,76.416 C21.8773313,76.8320021 21.672,77.3599968 21.672,78 C21.672,78.6400032 21.8746646,79.1679979 22.28,79.584 Z M36.392,74 L36.392,82 L34.328,82 L34.328,75.984 L32.12,75.984 L32.12,78.656 C32.12,81.130679 30.9946779,82.2453346 28.744,82 L28.744,80.064 C29.1706688,80.1706672 29.4959989,80.0986679 29.72,79.848 C29.9440011,79.5973321 30.056,79.1626698 30.056,78.544 L30.056,74 L36.392,74 Z M43.48,74 L45.688,74 L42.776,82 C41.9653293,84.2506779 40.5573434,85.3173339 38.552,85.2 L38.552,83.28 C39.0960027,83.2906667 39.5253318,83.1893344 39.84,82.976 C40.1546682,82.7626656 40.407999,82.4053358 40.6,81.904 L37.368,74 L39.56,74 L41.704,79.376 L43.48,74 Z M51.384,74 L53.448,74 L53.448,82 L51.384,82 L51.384,79.456 C50.7866637,79.648001 50.1520034,79.744 49.48,79.744 C48.5093285,79.744 47.7333362,79.4986691 47.152,79.008 C46.5706638,78.5173309 46.28,77.8026714 46.28,76.864 L46.28,74 L48.344,74 L48.344,76.624 C48.344,77.424004 48.839995,77.824 49.832,77.824 C50.4080029,77.824 50.925331,77.7226677 51.384,77.52 L51.384,74 Z M57.064,78.848 C57.3413347,79.8506717 58.0933272,80.352 59.32,80.352 C60.1093373,80.352 60.7066646,80.085336 61.112,79.552 L62.776,80.512 C61.9866627,81.653339 60.8240077,82.224 59.288,82.224 C57.9653267,82.224 56.904004,81.824004 56.104,81.024 C55.303996,80.223996 54.904,79.2160061 54.904,78 C54.904,76.7946606 55.2986627,75.7893374 56.088,74.984 C56.8773373,74.1786626 57.8906605,73.776 59.128,73.776 C60.3013392,73.776 61.2693295,74.1813293 62.032,74.992 C62.7946705,75.8026707 63.176,76.8053274 63.176,78 C63.176,78.266668 63.1493336,78.5493318 63.096,78.848 L57.064,78.848 Z M57.032,77.248 L61.112,77.248 C60.9946661,76.7039973 60.7520018,76.298668 60.384,76.032 C60.0159982,75.765332 59.5973357,75.632 59.128,75.632 C58.5733306,75.632 58.1146685,75.7733319 57.752,76.056 C57.3893315,76.3386681 57.1493339,76.7359974 57.032,77.248 Z M69.864,74 L71.928,74 L71.928,82 L69.864,82 L69.864,78.96 L66.68,78.96 L66.68,82 L64.616,82 L64.616,74 L66.68,74 L66.68,77.024 L69.864,77.024 L69.864,74 Z M79.592,74 L81.128,74 L81.128,82 L79.112,82 L79.112,77.456 L75.352,82 L73.816,82 L73.816,74 L75.832,74 L75.832,78.544 L79.592,74 Z M84.76,78.848 C85.0373347,79.8506717 85.7893272,80.352 87.016,80.352 C87.8053373,80.352 88.4026646,80.085336 88.808,79.552 L90.472,80.512 C89.6826627,81.653339 88.5200077,82.224 86.984,82.224 C85.6613267,82.224 84.600004,81.824004 83.8,81.024 C82.999996,80.223996 82.6,79.2160061 82.6,78 C82.6,76.7946606 82.9946627,75.7893374 83.784,74.984 C84.5733373,74.1786626 85.5866605,73.776 86.824,73.776 C87.9973392,73.776 88.9653295,74.1813293 89.728,74.992 C90.4906705,75.8026707 90.872,76.8053274 90.872,78 C90.872,78.266668 90.8453336,78.5493318 90.792,78.848 L84.76,78.848 Z M84.728,77.248 L88.808,77.248 C88.6906661,76.7039973 88.4480018,76.298668 88.08,76.032 C87.7119982,75.765332 87.2933357,75.632 86.824,75.632 C86.2693306,75.632 85.8106685,75.7733319 85.448,76.056 C85.0853315,76.3386681 84.8453339,76.7359974 84.728,77.248 Z" id="Получение" fill="#000000" fill-rule="nonzero"></path>
                        </g>
                    </g>
                </g>
            </g>
        </g>
    </g>
</svg>