<?xml version="1.0" encoding="UTF-8"?>
<svg width="102px" height="102px" viewBox="0 0 102 102" version="1.1" xmlns="http://www.w3.org/2000/svg" xmlns:xlink="http://www.w3.org/1999/xlink">
    <!-- Generator: Sketch 54.1 (76490) - https://sketchapp.com -->
    <title>a16-2</title>
    <desc>Created with Sketch.</desc>
    <g id="Design" stroke="none" stroke-width="1" fill="none" fill-rule="evenodd">
        <g id="cpa-97_design" transform="translate(-525.000000, -9371.000000)">
            <g id="✅-art16" transform="translate(0.000000, 9064.000000)">
                <g id="content" transform="translate(160.000000, 267.000000)">
                    <g id="2" transform="translate(288.000000, 0.000000)">
                        <g id="a16-2" transform="translate(77.000000, 40.000000)">
                            <circle id="Oval" fill="#DAF7FF" cx="51" cy="51" r="51"></circle>
                            <g id="customer-service" transform="translate(34.000000, 17.000000)" fill="#000000" fill-rule="nonzero">
                                <path d="M20.4644455,16.1032813 C19.9765455,16.1032813 19.5796727,16.5045313 19.5796727,16.9977344 C19.5796727,17.4909375 19.9766227,17.8922656 20.4644455,17.8922656 C20.9522682,17.8922656 21.3492182,17.4909375 21.3492182,16.9977344 C21.3492182,16.5045313 20.9523455,16.1032813 20.4644455,16.1032813 Z" id="Path"></path>
                                <path d="M13.5258955,16.1032031 C13.0380727,16.1032031 12.6411227,16.5044531 12.6411227,16.9976563 C12.6411227,17.4908594 13.0379955,17.8921875 13.5258955,17.8921875 C14.0137955,17.8921875 14.4106682,17.4908594 14.4106682,16.9976563 C14.4106682,16.5044531 14.0137955,16.1032031 13.5258955,16.1032031 Z" id="Path"></path>
                                <path d="M25.5631318,27.5732813 C25.7692182,27.1754688 25.8864409,26.7235937 25.8864409,26.2442969 L25.8864409,20.6720312 C25.8966409,20.6722656 25.9065318,20.6735937 25.9168091,20.6735937 L27.5992682,20.6735937 C28.0605864,20.6735937 28.4762364,20.4758594 28.7706455,20.1610156 C31.2898136,20.113125 33.3248682,18.0278125 33.3248682,15.4696875 C33.3248682,12.9115625 31.2898136,10.82625 28.7706455,10.7784375 C28.4975636,10.4864062 28.1197773,10.2969531 27.6981773,10.2709375 C27.4157455,4.55914062 22.7309318,0 17.0125955,0 L16.9871727,0 C11.2688364,0 6.58394545,4.55914062 6.30159091,10.2708594 C5.87999091,10.296875 5.50220455,10.4863281 5.22912273,10.7783594 C2.70995455,10.82625 0.6749,12.9114844 0.6749,15.4696094 C0.6749,18.0277344 2.70995455,20.113125 5.22912273,20.1609375 C5.52353182,20.4757812 5.93918182,20.6735156 6.4005,20.6735156 L8.08295909,20.6735156 C8.09022273,20.6735156 8.09725455,20.6725 8.10451818,20.6724219 L8.10451818,26.2442187 C8.10451818,26.72375 8.22189545,27.1758594 8.42813636,27.57375 C3.77492727,27.8597656 0.0757272727,31.7772656 0.0757272727,36.5524219 L0.0757272727,39.21875 C0.0757272727,39.6501563 0.421677273,40 0.848454545,40 L33.1515455,40 C33.5783227,40 33.9242727,39.6501563 33.9242727,39.21875 L33.9242727,36.5524219 C33.9241182,31.7742969 30.2203591,27.8549219 25.5631318,27.5732813 Z M29.2132636,12.3854688 C30.6687727,12.6407813 31.7794136,13.92625 31.7794136,15.4696875 C31.7794136,17.0132031 30.6687727,18.2986719 29.2132636,18.5539844 L29.2132636,12.3854688 Z M4.78642727,18.5538281 C3.33091818,18.2985156 2.22027727,17.0132031 2.22027727,15.4696875 C2.22027727,13.92625 3.33091818,12.6409375 4.78642727,12.385625 L4.78642727,18.5538281 Z M27.5979545,19.1110938 L25.9168864,19.1110938 C25.9008136,19.1110938 25.88675,19.1046875 25.8750818,19.0953125 C25.8687455,19.0567969 25.8600909,19.0191406 25.8484227,18.9827344 L25.8484227,17.5561719 L25.8484227,12.64625 L25.8484227,11.8975781 C25.8484227,11.859375 25.8791,11.8282813 25.9168864,11.8282813 L27.5979545,11.8282813 L27.5979545,19.1110938 Z M8.15134545,12.64625 L8.15134545,17.5561719 L8.15134545,19.041875 C8.15134545,19.0800781 8.12066818,19.1111719 8.08288182,19.1111719 L6.40042273,19.1111719 L6.40042273,19.1110938 C6.36263636,19.1110938 6.33195909,19.0800781 6.33195909,19.0417969 L6.33195909,11.8975781 C6.33195909,11.859375 6.36263636,11.8282813 6.40042273,11.8282813 L8.08288182,11.8282813 C8.12066818,11.8282813 8.15134545,11.8592969 8.15134545,11.8975781 L8.15134545,12.64625 Z M8.08280455,10.2657812 L7.85005909,10.2657812 C8.13326364,5.4184375 12.1228545,1.5625 16.9870955,1.5625 L17.0125182,1.5625 C21.8767591,1.5625 25.86635,5.4184375 26.1495545,10.2657812 L25.9168091,10.2657812 C25.7876091,10.2657812 25.6625818,10.2828906 25.5421136,10.3119531 C24.5240455,6.5075 21.0803864,3.70015625 16.9998455,3.70015625 C12.9193045,3.70015625 9.47564545,6.5075 8.4575,10.3119531 C8.33703182,10.2828125 8.21200455,10.2657812 8.08280455,10.2657812 Z M16.9998455,24.9267969 C12.9729318,24.9267969 9.6968,21.6203125 9.6968,17.5560937 L9.6968,14.2725781 L14.1149455,14.2725781 C16.2830636,14.2725781 18.3325682,13.4980469 19.95545,12.0783594 C20.9161045,13.4427344 22.4857455,14.2725781 24.1598591,14.2725781 L24.3029682,14.2725781 L24.3029682,17.5560938 C24.3029682,18.6382031 24.0706091,19.6665625 23.6538,20.5932031 C23.3755409,20.7999219 23.03245,20.9223438 22.6614636,20.9223438 L20.5252591,20.9223438 C20.2062773,20.0130469 19.3473909,19.3598438 18.3399864,19.3598438 L17.7218045,19.3598438 C16.4435591,19.3598438 15.4036227,20.41125 15.4036227,21.7035938 C15.4036227,22.9959375 16.4435591,24.0473438 17.7218045,24.0473438 L18.3399864,24.0473438 C19.3473136,24.0473438 20.2062773,23.3941406 20.5252591,22.4848438 L22.4250864,22.4848438 C21.0873409,23.9832031 19.1508091,24.9267969 16.9998455,24.9267969 Z M19.8037636,26.029375 L19.8037636,29.4842969 C19.8037636,31.0474219 18.5459182,32.3191406 16.9998455,32.3191406 C15.4537727,32.3191406 14.1959273,31.0474219 14.1959273,29.4842969 L14.1959273,26.029375 C15.0774545,26.3275 16.0202591,26.4892969 16.9998455,26.4892969 C17.9794318,26.4892969 18.9222364,26.3274219 19.8037636,26.029375 Z M12.65055,25.3332031 L12.65055,27.5564062 L12.6504727,27.5564062 L10.9476136,27.5564062 C10.2320682,27.5564062 9.64989545,26.9678125 9.64989545,26.2442969 L9.64989545,22.5247656 C10.4186045,23.68 11.4472591,24.6446875 12.65055,25.3332031 Z M21.6675818,9.27179687 C21.3653682,8.96703125 20.8761545,8.96757812 20.5747909,9.27320313 L19.3513318,10.5132031 C17.9537,11.9299219 16.0940545,12.7100781 14.1149455,12.7100781 L9.6968,12.7100781 L9.6968,12.64625 C9.6968,8.57492188 12.9729318,5.26265625 16.9998455,5.26265625 C21.0267591,5.26265625 24.3028909,8.57484375 24.3028909,12.64625 L24.3028909,12.7100781 L24.1597818,12.7100781 C22.9065727,12.7100781 21.7383636,12.0451563 21.0837091,10.9698438 L21.6688955,10.3767188 C21.9702591,10.07125 21.9697182,9.5765625 21.6675818,9.27179687 Z M19.1127136,21.7036719 C19.1127136,22.1344531 18.7660682,22.4849219 18.3399864,22.4849219 L17.7218045,22.4849219 C17.2957227,22.4849219 16.9490773,22.1344531 16.9490773,21.7036719 C16.9490773,21.2728906 17.2957227,20.9224219 17.7218045,20.9224219 L18.3399864,20.9224219 C18.7660682,20.9224219 19.1127136,21.2728906 19.1127136,21.7036719 Z M21.3492182,25.3332031 C22.5477955,24.6472656 23.5732818,23.6875781 24.3409864,22.5382813 L24.3409864,26.2442969 C24.3409864,26.9678125 23.7588136,27.5564063 23.0432682,27.5564063 L21.3492182,27.5564063 L21.3492182,25.3332031 Z M28.5402955,38.4375 L28.5402955,34.5963281 C28.5402955,34.1649219 28.1943455,33.8150781 27.7675682,33.8150781 C27.3407909,33.8150781 26.9948409,34.1649219 26.9948409,34.5963281 L26.9948409,38.4375 L7.00485,38.4375 L7.00485,36.9075781 C7.00485,36.4761719 6.6589,36.1263281 6.23212273,36.1263281 C5.80534545,36.1263281 5.45939545,36.4761719 5.45939545,36.9075781 L5.45939545,38.4375 L1.62102727,38.4375 L1.62102727,36.5524219 C1.62102727,32.4535156 4.91933636,29.1189062 8.97345,29.1189062 L12.6503955,29.1189062 L12.6503955,29.484375 C12.6503955,31.9090625 14.6015318,33.8817187 16.9997682,33.8817187 C19.3980045,33.8817187 21.3491409,31.9090625 21.3491409,29.484375 L21.3491409,29.1189062 L25.0260864,29.1189062 C29.0802,29.1189062 32.3785091,32.4535937 32.3785091,36.5524219 L32.3785091,38.4375 L28.5402955,38.4375 Z" id="Shape"></path>
                                <path d="M6.77820909,33.353125 C6.63448182,33.2078125 6.43589091,33.1242187 6.23189091,33.1242187 C6.02866364,33.1242187 5.8293,33.2077344 5.68557273,33.353125 C5.54184545,33.4984375 5.45916364,33.6999219 5.45916364,33.9054687 C5.45916364,34.1109375 5.54184545,34.3125 5.68557273,34.4577344 C5.8293,34.6030469 6.02866364,34.6867187 6.23189091,34.6867187 C6.43589091,34.6867187 6.63448182,34.603125 6.77820909,34.4577344 C6.92193636,34.3125 7.00461818,34.1109375 7.00461818,33.9054687 C7.00461818,33.6999219 6.92193636,33.4984375 6.77820909,33.353125 Z" id="Path"></path>
                            </g>
                            <path d="M30.096,76.208 C31.162672,76.7733362 31.696,77.6586606 31.696,78.864 C31.696,79.8666717 31.3173371,80.6773302 30.56,81.296 C29.8026629,81.9146698 28.8266726,82.224 27.632,82.224 C25.5519896,82.224 24.1600035,81.3440088 23.456,79.584 L25.36,78.512 C25.701335,79.6000054 26.4586608,80.144 27.632,80.144 C28.240003,80.144 28.7039984,80.0160013 29.024,79.76 C29.3440016,79.5039987 29.504,79.1573355 29.504,78.72 C29.504,78.2826645 29.3466682,77.9360013 29.032,77.68 C28.7173318,77.4239987 28.2666696,77.296 27.68,77.296 L26.288,77.296 L26.288,75.328 L27.344,75.328 C27.8986694,75.328 28.3306651,75.2080012 28.64,74.968 C28.9493349,74.7279988 29.104,74.4000021 29.104,73.984 C29.104,73.5679979 28.970668,73.2400012 28.704,73 C28.437332,72.7599988 28.0426693,72.64 27.52,72.64 C26.5599952,72.64 25.8880019,73.1093286 25.504,74.048 L23.632,72.96 C24.3893371,71.3706587 25.6853242,70.576 27.52,70.576 C28.6293389,70.576 29.5359965,70.8746637 30.24,71.472 C30.9440035,72.0693363 31.296,72.8586618 31.296,73.84 C31.296,74.8426717 30.896004,75.6319971 30.096,76.208 Z M38.8,77.904 C39.5466704,78.2666685 39.92,78.8746624 39.92,79.728 C39.92,80.4000034 39.6880023,80.9466646 39.224,81.368 C38.7599977,81.7893354 38.1013376,82 37.248,82 L33.04,82 L33.04,74 L36.928,74 C37.7706709,74 38.4239977,74.2079979 38.888,74.624 C39.3520023,75.0400021 39.584,75.5839966 39.584,76.256 C39.584,76.9600035 39.3226693,77.5093314 38.8,77.904 Z M36.736,75.696 L34.976,75.696 L34.976,77.136 L36.736,77.136 C37.3226696,77.136 37.616,76.8960024 37.616,76.416 C37.616,75.9359976 37.3226696,75.696 36.736,75.696 Z M37.008,80.256 C37.6053363,80.256 37.904,80.0000026 37.904,79.488 C37.904,79.2639989 37.8240008,79.0880006 37.664,78.96 C37.5039992,78.8319994 37.2853347,78.768 37.008,78.768 L34.976,78.768 L34.976,80.256 L37.008,80.256 Z M48.032,81.008 C47.2106626,81.8186707 46.2080059,82.224 45.024,82.224 C43.8399941,82.224 42.8400041,81.8160041 42.024,81 C41.2079959,80.1839959 40.8,79.1840059 40.8,78 C40.8,76.8159941 41.2079959,75.8160041 42.024,75 C42.8400041,74.1839959 43.8399941,73.776 45.024,73.776 C46.2080059,73.776 47.2106626,74.1839959 48.032,75 C48.8533374,75.8160041 49.264,76.8159941 49.264,78 C49.264,79.1840059 48.8533374,80.1866626 48.032,81.008 Z M43.472,79.584 C43.8880021,80.0000021 44.4053302,80.208 45.024,80.208 C45.6426698,80.208 46.1599979,80.0000021 46.576,79.584 C46.9920021,79.1679979 47.2,78.6400032 47.2,78 C47.2,77.3599968 46.9920021,76.8320021 46.576,76.416 C46.1599979,75.9999979 45.6426698,75.792 45.024,75.792 C44.4053302,75.792 43.8906687,75.9999979 43.48,76.416 C43.0693313,76.8320021 42.864,77.3599968 42.864,78 C42.864,78.6400032 43.0666646,79.1679979 43.472,79.584 Z M55.968,74 L58.032,74 L58.032,82 L55.968,82 L55.968,78.96 L52.784,78.96 L52.784,82 L50.72,82 L50.72,74 L52.784,74 L52.784,77.024 L55.968,77.024 L55.968,74 Z M66.736,81.008 C65.9146626,81.8186707 64.9120059,82.224 63.728,82.224 C62.5439941,82.224 61.5440041,81.8160041 60.728,81 C59.9119959,80.1839959 59.504,79.1840059 59.504,78 C59.504,76.8159941 59.9119959,75.8160041 60.728,75 C61.5440041,74.1839959 62.5439941,73.776 63.728,73.776 C64.9120059,73.776 65.9146626,74.1839959 66.736,75 C67.5573374,75.8160041 67.968,76.8159941 67.968,78 C67.968,79.1840059 67.5573374,80.1866626 66.736,81.008 Z M62.176,79.584 C62.5920021,80.0000021 63.1093302,80.208 63.728,80.208 C64.3466698,80.208 64.8639979,80.0000021 65.28,79.584 C65.6960021,79.1679979 65.904,78.6400032 65.904,78 C65.904,77.3599968 65.6960021,76.8320021 65.28,76.416 C64.8639979,75.9999979 64.3466698,75.792 63.728,75.792 C63.1093302,75.792 62.5946687,75.9999979 62.184,76.416 C61.7733313,76.8320021 61.568,77.3599968 61.568,78 C61.568,78.6400032 61.7706646,79.1679979 62.176,79.584 Z M76.8,82 L74.4,82 L71.488,78.368 L71.488,82 L69.424,82 L69.424,74 L71.488,74 L71.488,77.52 L74.24,74 L76.704,74 L73.488,77.952 L76.8,82 Z" id="Звонок" fill="#000000" fill-rule="nonzero"></path>
                        </g>
                    </g>
                </g>
            </g>
        </g>
    </g>
</svg>