<?xml version="1.0" encoding="UTF-8"?>
<svg width="109px" height="102px" viewBox="0 0 109 102" version="1.1" xmlns="http://www.w3.org/2000/svg" xmlns:xlink="http://www.w3.org/1999/xlink">
    <!-- Generator: Sketch 54.1 (76490) - https://sketchapp.com -->
    <title>a2-1</title>
    <desc>Created with Sketch.</desc>
    <g id="Design" stroke="none" stroke-width="1" fill="none" fill-rule="evenodd">
        <g id="cpa-97_design" transform="translate(-231.000000, -1316.000000)">
            <g id="✅-art2" transform="translate(160.000000, 1174.000000)">
                <g id="content" transform="translate(0.000000, 102.000000)">
                    <g id="1">
                        <g id="a2-1" transform="translate(71.000000, 40.000000)">
                            <circle id="Oval" fill="#DAF7FF" cx="57" cy="51" r="51"></circle>
                            <path d="M39.92,76 L39.92,84 L37.856,84 L37.856,77.984 L35.648,77.984 L35.648,80.656 C35.648,83.130679 34.5226779,84.2453346 32.272,84 L32.272,82.064 C32.6986688,82.1706672 33.0239989,82.0986679 33.248,81.848 C33.4720011,81.5973321 33.584,81.1626698 33.584,80.544 L33.584,76 L39.92,76 Z M49.072,75.776 C50.2560059,75.776 51.2586626,76.1839959 52.08,77 C52.9013374,77.8160041 53.312,78.8159941 53.312,80 C53.312,81.1840059 52.9013374,82.1839959 52.08,83 C51.2586626,83.8160041 50.2560059,84.224 49.072,84.224 C48.0693283,84.224 47.1946704,83.920003 46.448,83.312 C45.7013296,82.703997 45.2213344,81.9200048 45.008,80.96 L43.856,80.96 L43.856,84 L41.792,84 L41.792,76 L43.856,76 L43.856,79.024 L45.024,79.024 C45.2373344,78.0746619 45.7173296,77.296003 46.464,76.688 C47.2106704,76.079997 48.079995,75.776 49.072,75.776 Z M47.52,81.584 C47.9360021,82.0000021 48.4533302,82.208 49.072,82.208 C49.6906698,82.208 50.2079979,82.0000021 50.624,81.584 C51.0400021,81.1679979 51.248,80.6400032 51.248,80 C51.248,79.3599968 51.0400021,78.8320021 50.624,78.416 C50.2079979,77.9999979 49.6906698,77.792 49.072,77.792 C48.4533302,77.792 47.9386687,77.9999979 47.528,78.416 C47.1173313,78.8320021 46.912,79.3599968 46.912,80 C46.912,80.6400032 47.1146646,81.1679979 47.52,81.584 Z M61.968,82.064 L63.024,82.064 L63.024,86.144 L61.008,86.144 L61.008,84 L56.048,84 L56.048,86.144 L54.032,86.144 L54.032,82.064 L55.008,82.064 C55.466669,81.3813299 55.696,80.4373394 55.696,79.232 L55.696,76 L61.968,76 L61.968,82.064 Z M57.216,82.064 L59.952,82.064 L59.952,77.856 L57.712,77.856 L57.712,79.232 C57.712,80.3626723 57.5466683,81.3066629 57.216,82.064 Z M66.08,80.848 C66.3573347,81.8506717 67.1093272,82.352 68.336,82.352 C69.1253373,82.352 69.7226646,82.085336 70.128,81.552 L71.792,82.512 C71.0026627,83.653339 69.8400077,84.224 68.304,84.224 C66.9813267,84.224 65.920004,83.824004 65.12,83.024 C64.319996,82.223996 63.92,81.2160061 63.92,80 C63.92,78.7946606 64.3146627,77.7893374 65.104,76.984 C65.8933373,76.1786626 66.9066605,75.776 68.144,75.776 C69.3173392,75.776 70.2853295,76.1813293 71.048,76.992 C71.8106705,77.8026707 72.192,78.8053274 72.192,80 C72.192,80.266668 72.1653336,80.5493318 72.112,80.848 L66.08,80.848 Z M66.048,79.248 L70.128,79.248 C70.0106661,78.7039973 69.7680018,78.298668 69.4,78.032 C69.0319982,77.765332 68.6133357,77.632 68.144,77.632 C67.5893306,77.632 67.1306685,77.7733319 66.768,78.056 C66.4053315,78.3386681 66.1653339,78.7359974 66.048,79.248 Z M74.976,74.976 L74.976,73.184 L79.616,73.184 L79.616,74.976 L74.976,74.976 Z M79.408,76 L80.944,76 L80.944,84 L78.928,84 L78.928,79.456 L75.168,84 L73.632,84 L73.632,76 L75.648,76 L75.648,80.544 L79.408,76 Z" id="людей" fill="#000000" fill-rule="nonzero"></path>
                            <path d="M16.21,33.62 C20.5700218,33.7400006 24.1099864,35.1499865 26.83,37.85 C29.5500136,40.5500135 30.91,43.999979 30.91,48.2 C30.91,52.4800214 29.4900142,55.9899863 26.65,58.73 C23.8099858,61.4700137 20.1500224,62.84 15.67,62.84 C11.1899776,62.84 7.5400141,61.4800136 4.72,58.76 C1.8999859,56.0399864 0.49,52.5200216 0.49,48.2 C0.49,44.999984 1.3099918,42.1800122 2.95,39.74 L16.03,20 L25.51,20 L16.21,33.62 Z M10.69,53.18 C12.0100066,54.4200062 13.66999,55.04 15.67,55.04 C17.67001,55.04 19.3399933,54.4200062 20.68,53.18 C22.0200067,51.9399938 22.69,50.2800104 22.69,48.2 C22.69,46.1599898 22.0200067,44.5200062 20.68,43.28 C19.3399933,42.0399938 17.67001,41.42 15.67,41.42 C13.66999,41.42 12.0100066,42.0299939 10.69,43.25 C9.3699934,44.4700061 8.71,46.1199896 8.71,48.2 C8.71,50.2800104 9.3699934,51.9399938 10.69,53.18 Z M53.47,37.04 C56.3100142,37.8800042 58.6199911,39.3499895 60.4,41.45 C62.1800089,43.5500105 63.07,46.0799852 63.07,49.04 C63.07,53.3600216 61.6200145,56.7399878 58.72,59.18 C55.8199855,61.6200122 52.270021,62.84 48.07,62.84 C44.7899836,62.84 41.8600129,62.0900075 39.28,60.59 C36.6999871,59.0899925 34.8300058,56.8800146 33.67,53.96 L40.75,49.88 C41.7900052,53.1200162 44.2299808,54.74 48.07,54.74 C50.1900106,54.74 51.8399941,54.2300051 53.02,53.21 C54.2000059,52.1899949 54.79,50.8000088 54.79,49.04 C54.79,47.3199914 54.2000059,45.9400052 53.02,44.9 C51.8399941,43.8599948 50.1900106,43.34 48.07,43.34 L46.27,43.34 L43.09,38.54 L51.37,27.74 L34.93,27.74 L34.93,20 L61.33,20 L61.33,26.84 L53.47,37.04 Z M85.03,36.14 C83.1099904,38.0200094 80.7100144,38.96 77.83,38.96 C74.9499856,38.96 72.5400097,38.0000096 70.6,36.08 C68.6599903,34.1599904 67.69,31.8200138 67.69,29.06 C67.69,26.2999862 68.6599903,23.9600096 70.6,22.04 C72.5400097,20.1199904 74.9499856,19.16 77.83,19.16 C80.7100144,19.16 83.1099904,20.1099905 85.03,22.01 C86.9500096,23.9100095 87.91,26.259986 87.91,29.06 C87.91,31.860014 86.9500096,34.2199904 85.03,36.14 Z M71.95,55.64 L99.31,25.22 L102.97,27.26 L75.55,57.74 L71.95,55.64 Z M75.07,31.82 C75.7900036,32.5400036 76.6899946,32.9 77.77,32.9 C78.8500054,32.9 79.7499964,32.5300037 80.47,31.79 C81.1900036,31.0499963 81.55,30.1400054 81.55,29.06 C81.55,27.9799946 81.1900036,27.0800036 80.47,26.36 C79.7499964,25.6399964 78.8500054,25.28 77.77,25.28 C76.6899946,25.28 75.8000035,25.6399964 75.1,26.36 C74.3999965,27.0800036 74.05,27.9799946 74.05,29.06 C74.05,30.1400054 74.3899966,31.0599962 75.07,31.82 Z M105.31,59.84 C103.38999,61.7600096 100.990014,62.72 98.11,62.72 C95.2299856,62.72 92.8300096,61.7600096 90.91,59.84 C88.9899904,57.9199904 88.03,55.5800138 88.03,52.82 C88.03,50.0599862 88.9899904,47.7200096 90.91,45.8 C92.8300096,43.8799904 95.2299856,42.92 98.11,42.92 C100.990014,42.92 103.38999,43.8799904 105.31,45.8 C107.23001,47.7200096 108.19,50.0599862 108.19,52.82 C108.19,55.5800138 107.23001,57.9199904 105.31,59.84 Z M95.41,55.58 C96.1300036,56.3000036 97.0299946,56.66 98.11,56.66 C99.1900054,56.66 100.079996,56.2800038 100.78,55.52 C101.480003,54.7599962 101.83,53.8600052 101.83,52.82 C101.83,51.7399946 101.480003,50.8300037 100.78,50.09 C100.079996,49.3499963 99.1900054,48.98 98.11,48.98 C97.0299946,48.98 96.1400035,49.3499963 95.44,50.09 C94.7399965,50.8300037 94.39,51.7399946 94.39,52.82 C94.39,53.9000054 94.7299966,54.8199962 95.41,55.58 Z" id="63%" fill="#000000" fill-rule="nonzero"></path>
                        </g>
                    </g>
                </g>
            </g>
        </g>
    </g>
</svg>