<?xml version="1.0" encoding="UTF-8"?>
<svg width="356px" height="80px" viewBox="0 0 356 80" version="1.1" xmlns="http://www.w3.org/2000/svg" xmlns:xlink="http://www.w3.org/1999/xlink">
    <!-- Generator: Sketch 54.1 (76490) - https://sketchapp.com -->
    <title>logo</title>
    <desc>Created with Sketch.</desc>
    <defs>
        <linearGradient x1="76.260693%" y1="11.2997129%" x2="22.3691856%" y2="89.6138836%" id="linearGradient-1">
            <stop stop-color="#FAE857" offset="0%"></stop>
            <stop stop-color="#F2CD2C" offset="100%"></stop>
        </linearGradient>
    </defs>
    <g id="Design" stroke="none" stroke-width="1" fill="none" fill-rule="evenodd">
        <g id="cpa-97_design" transform="translate(-736.000000, -59.000000)">
            <g id="header" transform="translate(-178.000000, -16.000000)">
                <g id="logo" transform="translate(914.000000, 75.000000)">
                    <ellipse id="Oval" fill="url(#linearGradient-1)" cx="146.588235" cy="39.3846154" rx="7.39100346" ry="7.38461538"></ellipse>
                    <ellipse id="Oval" fill="url(#linearGradient-1)" cx="263.612457" cy="17.2307692" rx="7.39100346" ry="7.38461538"></ellipse>
                    <path d="M36.5854671,77.4141824 C35.3536332,79.1372594 33.382699,79.3834132 32.1508651,77.0449517 C27.5930796,68.3064901 22.9121107,60.1834132 17.7384083,52.6757209 C13.7965398,60.3064901 9.85467128,68.552644 6.28235294,77.1680286 C5.29688581,79.5064901 3.69550173,79.9987978 1.97093426,77.7834132 C0.862283737,76.0603363 -4.54747351e-13,73.9680286 -4.54747351e-13,71.1372594 C-4.54747351e-13,69.0449517 0.369550173,66.5834132 1.10865052,63.752644 C4.18823529,53.5372594 25.1294118,12.4295671 32.6435986,1.96802859 C34.4913495,-0.49350987 36.0927336,-0.370432947 37.6941176,2.21418244 C38.433218,3.56802859 39.0491349,5.53725936 39.0491349,7.62956705 C39.0491349,10.8295671 38.1868512,15.2603363 35.1072664,20.6757209 C30.3031142,29.2911055 29.3176471,30.7680286 25.7453287,37.2911055 C40.0346021,26.2141824 55.5557093,13.9064901 66.5190311,0.983413207 C67.8740484,-0.616586793 69.5986159,-0.247356024 70.3377163,1.96802859 C71.2,4.42956705 70.8304498,9.10649013 66.2726644,15.2603363 C60.9757785,22.6449517 44.3460208,37.0449517 28.4553633,48.4911055 C32.0276817,54.2757209 35.3536332,60.0603363 36.8318339,63.2603363 C38.0636678,66.2141824 38.6795848,69.1680286 38.6795848,71.1372594 C38.6795848,73.5987978 37.6941176,75.9372594 36.5854671,77.4141824 Z M81.6705882,34.5834132 C79.8228374,33.1064901 70.7072664,40.6141824 64.7944637,52.4295671 C65.7799308,53.0449517 66.6422145,53.2911055 67.5044983,53.2911055 C70.4608997,53.2911055 74.4027682,49.5987978 76.866436,46.2757209 C80.4387543,41.4757209 83.0256055,35.6911055 81.6705882,34.5834132 Z M90.9093426,39.5064901 C90.9093426,46.8911055 82.6560554,59.8141824 71.815917,59.8141824 C68.8595156,59.8141824 65.9031142,58.952644 63.0698962,57.1064901 C62.3307958,59.5680286 61.9612457,62.152644 61.9612457,64.3680286 C61.9612457,69.7834132 64.1785467,73.5987978 67.8740484,73.5987978 C77.2359862,73.5987978 85.4892734,64.4911055 90.5397924,56.8603363 C91.8948097,54.8911055 93.4961938,54.6449517 94.4816609,57.1064901 C94.8512111,58.2141824 94.9743945,61.7834132 92.7570934,65.1064901 C87.583391,72.6141824 77.7287197,78.3987978 68.1204152,78.5218747 C56.6643599,78.6449517 50.3820069,71.1372594 50.3820069,61.2911055 C50.3820069,56.8603363 51.6138408,52.0603363 54.200692,47.1372594 C60.6062284,34.0911055 70.584083,27.5680286 77.7287197,27.5680286 C79.4532872,27.5680286 80.8083045,27.8141824 82.0401384,28.552644 C85.4892734,30.5218747 87.9529412,32.4911055 89.6775087,34.952644 C90.416609,36.0603363 90.9093426,37.9064901 90.9093426,39.5064901 Z M89.3079585,64.6141824 C89.3079585,61.9064901 90.0470588,58.4603363 91.7716263,54.3987978 C94.2352941,48.3680286 98.916263,38.6449517 103.843599,29.7834132 C100.024913,29.2911055 97.8076125,27.9372594 96.8221453,26.4603363 C95.0975779,23.8757209 96.3294118,22.6449517 99.1626298,22.7680286 C101.995848,22.8911055 105.321799,22.7680286 108.031834,22.5218747 C111.850519,15.8757209 114.43737,11.8141824 117.270588,7.75264398 C119.118339,5.04495167 120.59654,5.16802859 121.951557,7.50649013 C122.813841,8.98341321 123.306574,11.0757209 123.306574,12.552644 C123.306574,14.7680286 122.813841,17.5987978 121.33564,21.0449517 C125.154325,21.5372594 127.248443,23.5064901 128.110727,24.9834132 C129.342561,27.1987978 128.480277,28.6757209 125.523875,28.3064901 C123.306574,28.0603363 120.103806,28.3064901 117.393772,28.6757209 C112.712803,36.6757209 105.691349,48.8603363 101.379931,58.2141824 C99.9017301,61.5372594 99.1626298,64.7372594 99.1626298,67.4449517 C99.1626298,71.1372594 100.394464,73.7218747 102.488581,73.7218747 C107.292734,73.7218747 113.69827,65.9680286 118.009689,56.7372594 C119.364706,53.7834132 122.197924,53.5372594 123.060208,56.8603363 C123.676125,59.4449517 123.183391,61.2911055 121.828374,64.1218747 C120.103806,67.8141824 111.850519,78.3987978 101.503114,78.3987978 C94.9743945,78.3987978 89.3079585,73.1064901 89.3079585,64.6141824 Z M159.276125,50.4603363 C158.413841,51.4449517 157.428374,51.9372594 156.073356,52.1834132 C153.486505,62.3987978 145.602768,74.4603363 136.24083,77.6603363 C135.13218,78.0295671 133.653979,78.3987978 131.806228,78.3987978 C127.741176,78.3987978 123.183391,76.6757209 119.734256,72.1218747 C117.393772,69.0449517 116.285121,65.352644 116.285121,61.4141824 C116.285121,55.9987978 118.256055,49.9680286 121.458824,44.1834132 C127.002076,34.3372594 134.76263,28.1834132 142.892734,28.1834132 C146.465052,28.1834132 148.682353,29.5372594 151.022837,32.7372594 C154.471972,36.7987978 157.921107,37.6603363 156.812457,48.1218747 C160.015225,48.1218747 160.261592,49.2295671 159.276125,50.4603363 Z M147.573702,45.6603363 C148.805536,42.8295671 149.29827,39.8757209 149.29827,38.2757209 C149.29827,36.4295671 148.312803,35.6911055 147.450519,35.6911055 C146.711419,35.6911055 145.602768,36.6757209 145.602768,38.6449517 C145.602768,40.8603363 146.218685,44.0603363 147.573702,45.6603363 Z M125.893426,66.952644 C125.893426,70.6449517 127.002076,72.1218747 128.849827,72.1218747 C132.052595,72.1218747 136.979931,67.5680286 141.537716,59.1987978 C143.385467,55.9987978 144.863668,52.9218747 145.602768,50.3372594 C141.6609,47.8757209 139.074048,44.6757209 138.088581,40.3680286 C135.50173,42.8295671 133.161246,45.9064901 131.067128,49.5987978 C127.86436,55.5064901 125.893426,62.3987978 125.893426,66.952644 Z" id="Keto" fill="#000000" fill-rule="nonzero"></path>
                    <path d="M195.482566,78.7692308 C185.627895,78.7692308 176.152249,75.5325117 171.224913,71.6294093 L171.224913,66.5839354 C173.783338,68.7734807 177.099814,70.5822354 181.363854,72.200595 C185.627895,73.8189545 190.270961,74.5805355 195.10354,74.5805355 C200.883684,74.5805355 205.52675,73.2477688 209.222252,70.6774331 C212.917754,68.1070973 214.812883,64.5847854 214.812883,60.2056949 C214.812883,56.3977901 213.01251,53.2562686 211.022624,51.3523162 C209.980303,50.40034 208.4642,49.4483638 206.474315,48.5915852 C204.484429,47.639609 202.684056,46.9732257 201.167953,46.4972376 C199.746606,46.0212495 197.661964,45.4500637 194.914027,44.6884828 L187.807293,42.5941351 C186.101677,41.9277518 184.206548,41.1661708 182.027149,40.118997 C176.152249,37.0726732 173.688581,33.4551636 173.309555,26.3153421 C173.309555,21.6506587 175.204685,17.7475563 179.089699,14.6060348 C182.974714,11.4645134 188.375832,9.84615385 195.293053,9.84615385 C202.968326,9.84615385 209.696034,11.7501062 215.381421,15.4628134 L215.381421,20.1274968 C209.317008,16.0339992 202.684056,14.0348491 195.482566,14.0348491 C183.732766,14.0348491 177.668352,19.5563111 177.668352,26.4105397 C177.289327,30.6944326 180.321533,33.7407565 182.974714,35.7399065 C183.827522,36.3110922 185.059356,36.8822779 186.670216,37.5486613 C188.375832,38.2150446 189.702422,38.6910327 190.744743,38.9766256 L195.293053,40.3093923 L197.282939,40.880578 L203.726377,42.879728 C205.337237,43.3557161 207.232366,44.2124947 209.506521,45.3548661 C211.780676,46.4020399 213.486292,47.5444114 214.718126,48.7819805 C217.087038,51.161921 219.266436,55.2554186 219.266436,60.2056949 C219.266436,66.0127497 216.992281,70.5822354 212.349215,73.9141521 C207.706149,77.1508712 202.115518,78.7692308 195.482566,78.7692308 Z M243.984742,78.7692308 C238.486013,78.7692308 234.048443,75.8219533 234.048443,68.2160761 L234.048443,11.0769231 L238.389544,11.0769231 L238.389544,67.3604149 C238.389544,72.3042351 240.704798,74.7761452 245.238838,74.7761452 C247.071747,74.7761452 248.61525,74.3007779 250.062284,73.4451167 L250.062284,77.4382022 C248.422312,78.2938634 246.396465,78.7692308 243.984742,78.7692308 Z M266.076125,78.7692308 L262.380623,78.7692308 L262.380623,33.2307692 L266.076125,33.2307692 L266.076125,78.7692308 Z M290.043761,78.7692308 L285.785467,78.7692308 L285.785467,33.1477112 L290.043761,33.1477112 L290.043761,40.7034765 C293.355767,35.7300613 299.601265,32 307.171565,32 C314.836494,32 319.757189,35.2518484 321.839021,41.7555451 C325.340285,36.1126317 331.964297,32 340.007741,32 C350.227646,32 356,38.5036967 356,50.2677364 L356,78.7692308 L351.741706,78.7692308 L351.741706,51.1285197 C351.741706,44.7204656 349.94376,40.3209061 347.010269,38.5036967 C344.076777,36.5908447 341.900316,36.0169891 338.966825,36.0169891 C335.654819,36.0169891 332.53207,37.0690577 329.50395,39.1731949 C326.570459,41.2773321 324.299369,43.8596822 322.879937,46.8246028 C322.974566,49.1200252 323.069195,50.7459493 323.069195,51.6067327 L323.069195,78.7692308 L318.810901,78.7692308 L318.810901,51.0328771 C318.810901,40.9904043 314.552607,36.0169891 306.130648,36.0169891 C303.0079,36.0169891 299.885151,36.9734151 296.857031,38.9819097 C293.92354,40.9904043 291.65245,43.3814692 290.043761,46.3463898 L290.043761,78.7692308 Z" id="Slim" fill="#000000" fill-rule="nonzero"></path>
                </g>
            </g>
        </g>
    </g>
</svg>