<svg xmlns="http://www.w3.org/2000/svg" viewBox="0 0 724 112"><defs><style>.cls-1{opacity:0.29;}.cls-2,.cls-3{fill:#fff;}.cls-2{fill-rule:evenodd;}.cls-4{opacity:0.15;}.cls-5{fill:#333;}</style></defs><title>Ресурс 2</title><g id="Слой_2" data-name="Слой 2"><g id="Слой_1-2" data-name="Слой 1"><g id="Фигура_3" data-name="Фигура 3"><g id="Фигура_3-2" data-name="Фигура 3" class="cls-1"><path class="cls-2" d="M199.83,44.6,175.25,3.22a2.12,2.12,0,0,0-1.81-1H15A13.26,13.26,0,0,0,1.79,15.51v81.3A13.27,13.27,0,0,0,15,110.13H173.42a2.12,2.12,0,0,0,1.83-1.07L200,65.84A21,21,0,0,0,199.83,44.6Z"/></g></g><path class="cls-3" d="M254.51,36.84H241.43v12H247q8,0,7.95,8.44V72q0,8.52-8,8.51H234.79V30.82h19.72ZM241.43,74.47h3.88c2,0,3-1,3-2.9V57.73c0-1.94-.87-2.9-2.63-2.9h-4.22Z"/><path class="cls-3" d="M259.76,80.49V30.82h16.47v6h-9.82V51.92h8.71v6h-8.71V74.47h9.82v6Z"/><path class="cls-3" d="M300.58,68.87v3.18q0,8.45-8,8.44h-4.28q-8,0-8-8.44V39.26q0-8.44,8-8.44h4.28q8,0,8,8.44v5.6h-6.64V39.74c0-1.93-1-2.9-3-2.9h-1.31c-1.75,0-2.63,1-2.63,2.9V71.57c0,1.93.88,2.9,2.63,2.9h1.66c1.75,0,2.63-1,2.63-2.9v-2.7Z"/><path class="cls-3" d="M321,80.49V36.84h-9.62V80.49h-6.64V30.82h22.9V80.49Z"/><path class="cls-3" d="M347.76,80.49l-5.4-37.91L337,80.49H330.4l8-49.67h7.89l8,49.67Z"/><path class="cls-3" d="M363.74,80.49H357.1V39.33q0-8.51,7.95-8.51h5q8,0,8,8.51V80.49h-6.64V62.3h-7.61Zm7.61-24.21V39.74a2.57,2.57,0,0,0-2.91-2.9h-1.8a2.57,2.57,0,0,0-2.9,2.9V56.28Z"/><path class="cls-3" d="M394.11,36.84V80.49h-6.64V36.84H381.1v-6h19.37v6Z"/><path class="cls-3" d="M418.39,80.49V57.94h-8.16V80.49h-6.64V30.82h6.64v21.1h8.16V30.82H425V80.49Z"/><path class="cls-3" d="M435.82,80.49h-6.64V39.33q0-8.51,8-8.51h5q8,0,7.95,8.51V80.49h-6.64V62.3h-7.61Zm7.61-24.21V39.74a2.57,2.57,0,0,0-2.9-2.9h-1.8a2.57,2.57,0,0,0-2.91,2.9V56.28Z"/><path class="cls-3" d="M475.53,80.49h-6.64V60.43h-4l-4.36,20.06h-6.29l4.63-20.68q-3.94-1.73-3.94-8.24V39.33q0-8.51,7.61-8.51h13Zm-6.64-43.65h-4.36q-3,0-3,3.6V51.16q0,3.6,3,3.6h4.36Z"/><path class="cls-3" d="M494.9,80.49v6.37h-5.53V74.47h3.46V39.33q0-8.51,7.95-8.51h5q8,0,8,8.51V74.47h3.46V86.86h-5.54V80.49Zm12.18-6V39.74a2.57,2.57,0,0,0-2.91-2.9h-1.8a2.57,2.57,0,0,0-2.9,2.9V74.47Z"/><path class="cls-3" d="M528,80.49q-8,0-8-8.44V39.33q0-8.51,8-8.51h6.36q8,0,8,8.51V72.05q0,8.45-8,8.44Zm1.59-6H533c1.75,0,2.63-1,2.63-2.9V39.74c0-1.93-1-2.9-3-2.9h-3.11a2.56,2.56,0,0,0-2.9,2.9V71.57C526.59,73.5,527.58,74.47,529.56,74.47Z"/><path class="cls-3" d="M566.57,68.87v3.18q0,8.45-8,8.44h-4.28q-8,0-8-8.44V39.26q0-8.44,8-8.44h4.28q8,0,8,8.44v5.6h-6.64V39.74c0-1.93-1-2.9-3-2.9h-1.31c-1.75,0-2.63,1-2.63,2.9V71.57c0,1.93.88,2.9,2.63,2.9h1.66c1.75,0,2.63-1,2.63-2.9v-2.7Z"/><path class="cls-3" d="M582.69,36.84V80.49h-6.64V36.84h-6.37v-6h19.37v6Z"/><path class="cls-3" d="M598.81,80.49h-6.64V39.33q0-8.51,8-8.51h5q8,0,8,8.51V80.49h-6.64V62.3h-7.61Zm7.61-24.21V39.74a2.57,2.57,0,0,0-2.91-2.9h-1.8a2.57,2.57,0,0,0-2.9,2.9V56.28Z"/><path class="cls-3" d="M632.64,55q5.46,1.53,5.46,5.68V73.09q0,7.41-7.54,7.4H617.21V30.82h11.34q8.87,0,8.86,9v9.55q0,4.29-4.77,5.26Zm-8.79-3.18H627q3.81,0,3.81-3.59V40.44q0-3.6-3-3.6h-3.94Zm0,22.69h5c1.75,0,2.63-.71,2.63-2.14v-11q0-3.53-3.94-3.53h-3.67Z"/><path class="cls-3" d="M648.89,80.49h-6.64V30.82h6.64Zm15.29,0h-6.64l-8.3-24.28v-.42l6.92-25h6.08l-7,24.7Z"/><path class="cls-3" d="M675,80.49h-6.64V39.33q0-8.51,8-8.51h5q8,0,8,8.51V80.49h-6.64V62.3H675Zm7.61-24.21V39.74a2.57,2.57,0,0,0-2.9-2.9h-1.8a2.57,2.57,0,0,0-2.91,2.9V56.28Z"/><g id="Фигура_2" data-name="Фигура 2"><g id="Фигура_2-2" data-name="Фигура 2"><path class="cls-2" d="M103.22,42.69l-8-7.93c-.17-.24-.35-.32-.49-.28s-.22.22-.22.52V51.94a.65.65,0,0,0,.22.58c.14.07.32,0,.49-.22l8-8.06A1,1,0,0,0,103.22,42.69ZM73.16,30.51h3.23a1.07,1.07,0,0,1,1.07,1.07V38A1.06,1.06,0,0,0,78.52,39h6.22A1.13,1.13,0,0,0,86,37.92V31.57a1.05,1.05,0,0,1,1-1.06h2c.54,0,.65-.33.33-.76l-7.52-7.54-.5-.21h-.52l-.49.21-7.53,7.54C72.51,30.18,72.62,30.51,73.16,30.51Zm-5,4L60,42.69a1,1,0,0,0,0,1.55l8.16,8.29c.24.18.45.24.59.18s.24-.23.24-.54V34.88c0-.3-.09-.51-.24-.58S68.36,34.29,68.12,34.52ZM90.34,56H87.05A1.08,1.08,0,0,1,86,54.88V48.56a1.11,1.11,0,0,0-1.23-1H78.53a1.07,1.07,0,0,0-1.07,1.07v6.29A1.09,1.09,0,0,1,76.36,56H72.84c-.61,0-.85.34-.36.69l8.26,7.93a1.24,1.24,0,0,0,.85.35,1.26,1.26,0,0,0,.85-.35l8.26-7.93C91.18,56.37,90.94,56,90.34,56Z"/></g></g><g class="cls-4"><path class="cls-5" d="M708.88,2A13.13,13.13,0,0,1,722,15.12V96.88A13.13,13.13,0,0,1,708.88,110H15.12A13.13,13.13,0,0,1,2,96.88V15.12A13.13,13.13,0,0,1,15.12,2H708.88m0-2H15.12A15.12,15.12,0,0,0,0,15.12V96.88A15.12,15.12,0,0,0,15.12,112H708.88A15.12,15.12,0,0,0,724,96.88V15.12A15.12,15.12,0,0,0,708.88,0Z"/></g><g id="Фигура_1" data-name="Фигура 1"><g id="Фигура_1-2" data-name="Фигура 1"><path class="cls-2" d="M147.49,50.52l-3.31-13.39a2,2,0,0,0,1.59-2V33a8.48,8.48,0,0,0-8.42-8.5H122.27V20a4.16,4.16,0,0,0-4.14-4.18H41.24A4.16,4.16,0,0,0,37.1,20v36.7a2,2,0,1,0,4,0V20a.13.13,0,0,1,.14-.13h76.89a.13.13,0,0,1,.13.13v36.7a2,2,0,1,0,4,0V54.45H145.9A6.57,6.57,0,0,1,152.13,59H145.9a2,2,0,0,0-2,2v4.32a6.31,6.31,0,0,0,6.27,6.34h2.27v8.9H147.2a12.64,12.64,0,0,0-24,0h-1V65.38a2,2,0,1,0-4,0V80.62H76.72a12.64,12.64,0,0,0-24,0H41.24a.13.13,0,0,1-.14-.13V76h8.68a2,2,0,0,0,0-4.05H30.56a2,2,0,0,0,0,4.05H37.1v4.45a4.17,4.17,0,0,0,4.14,4.18H52.05v.14a12.68,12.68,0,1,0,25.36,0v-.14h45.13v.14a12.68,12.68,0,1,0,25.36,0v-.14h6.54a2,2,0,0,0,2-2V61.06A10.64,10.64,0,0,0,147.49,50.52Zm-25.22-22h15.08A4.44,4.44,0,0,1,141.76,33v.14H122.27Zm0,21.86V37.18h17.79l3.27,13.22ZM64.73,93.58a8.77,8.77,0,1,1,8.68-8.77A8.73,8.73,0,0,1,64.73,93.58Zm70.49,0a8.77,8.77,0,1,1,8.68-8.77A8.74,8.74,0,0,1,135.22,93.58Zm17.22-25.91h-2.27a2.29,2.29,0,0,1-2.27-2.29v-2.3h4.54Zm-87.71,13a4.19,4.19,0,1,0,4.14,4.19A4.17,4.17,0,0,0,64.73,80.62Zm70.49,0a4.19,4.19,0,1,0,4.14,4.19A4.17,4.17,0,0,0,135.22,80.62ZM111.72,76a2,2,0,0,0,0-4.05H81.82a2,2,0,0,0,0,4.05ZM34.83,67.4H60.46a2,2,0,0,0,0-4.05H34.83a2,2,0,0,0,0,4.05Z"/></g></g></g></g></svg>