<?xml version="1.0" encoding="UTF-8" standalone="no"?>
<!DOCTYPE svg  PUBLIC '-//W3C//DTD SVG 1.1//EN'  'http://www.w3.org/Graphics/SVG/1.1/DTD/svg11.dtd'>
<svg xmlns="http://www.w3.org/2000/svg">
<defs>
<font id="MyriadHebrew-BoldIt" horiz-adv-x="529">
<font-face slope="-11" underline-position="-50" font-weight="700" descent="-200" panose-1="1 1 1 1 1 1 1 1 1 1" units-per-em="1000" unicode-range="U+0020-25CA" bbox="-201 -250 1216 889" x-height="489" underline-thickness="50" font-family="MyriadHebrew" ascent="800" font-style="italic" cap-height="674"/>
<missing-glyph horiz-adv-x="1000"/>
<glyph glyph-name=".notdef" horiz-adv-x="1000"/>
<glyph glyph-name=".null" horiz-adv-x="0"/>
<glyph glyph-name="nonmarkingreturn" horiz-adv-x="333"/>
<glyph glyph-name="space" horiz-adv-x="202" unicode=" "/>
<glyph glyph-name="exclam" horiz-adv-x="336" unicode="!" d="M134 172q34 0 55.5 -23.5t21.5 -56.5q0 -43 -28 -72.5t-76 -29.5q-33 0 -54.5 22t-21.5 55q0 45 28.5 75t74.5 30zM99 227q21 198 35 259l16 73h165l-16 -69q-20 -88 -86 -263h-114z"/>
<glyph glyph-name="quotedbl" horiz-adv-x="508" unicode='&quot;' d="M108 342l52 264l141 15l-79 -264zM330 342l54 264l140 15l-78 -264z"/>
<glyph glyph-name="numbersign" horiz-adv-x="531" unicode="#" d="M306 259l32 88h-82l-32 -88h82zM525 347h-93l-32 -88h62l-15 -123h-90l-49 -138h-94l49 138h-83l-49 -138h-95l50 138h-62l15 123h91l31 88h-64l15 120h92l46 127h94l-45 -127h81l45 127h94l-45 -127h66z"/>
<glyph glyph-name="dollar" d="M235 -89h-98l21 94q-78 5 -153 65l55 123q37 -33 86 -53t98 -20q83 0 83 45q0 22 -20.5 36.5t-72.5 37.5q-151 64 -148 168q0 84 63 136t151 54l18 80h98l-19 -83q66 -6 123 -47l-58 -118q-61 50 -153 50q-74 0 -74 -42q0 -19 16 -30.5t71 -36.5q90 -41 122.5 -81.5 t32.5 -101.5q-1 -80 -64 -130.5t-158 -55.5z" unicode="$"/>
<glyph glyph-name="percent" horiz-adv-x="889" unicode="%" d="M661 93q28 0 49 24.5t26 59.5q2 14 2 19q0 27 -14 42t-37 15q-25 0 -46.5 -23.5t-28.5 -62.5q-2 -12 -2 -17q0 -25 13.5 -41t37.5 -16zM642 -9q-68 0 -103.5 38.5t-35.5 100.5q0 20 3 39q14 86 71 136.5t125 50.5t104 -39t36 -104q0 -20 -3 -41q-11 -72 -65 -126.5 t-132 -54.5zM162 -10l454 607h111l-453 -608zM219 338q28 0 49 24.5t26 59.5q1 6 1 18q0 28 -13.5 43t-36.5 15q-25 0 -47 -23t-28 -62q-2 -12 -2 -18q0 -25 13.5 -41t37.5 -16zM200 236q-68 0 -103.5 38.5t-35.5 100.5q0 19 3 39q14 87 71 137.5t125 50.5t104 -39t36 -104 q0 -20 -3 -41q-11 -72 -65 -127t-132 -55z"/>
<glyph glyph-name="ampersand" horiz-adv-x="660" unicode="&amp;" d="M297 373q65 33 65 81q0 19 -11.5 33t-30.5 14q-24 0 -38 -17t-14 -43q0 -36 29 -68zM216 248q-42 -29 -42 -71q1 -29 22.5 -49t58.5 -20q35 0 61 16q-35 38 -100 124zM30 150q0 60 36 99t103 72q-30 41 -30 99q0 78 54.5 130t139.5 52q75 0 115 -41.5t39 -96.5 q0 -105 -135 -160q27 -37 78 -95q42 42 74 136h130q-46 -135 -139 -218q31 -42 100 -127h-181q-7 7 -33 38q-69 -48 -164 -48q-94 0 -141 46.5t-46 113.5z"/>
<glyph glyph-name="quotesingle" horiz-adv-x="285" unicode="&apos;" d="M101 336l56 259l143 15l-81 -259z"/>
<glyph glyph-name="parenleft" horiz-adv-x="397" unicode="(" d="M117 -123q-25 44 -41 119t-16 155q0 23 1 35q8 140 65 258.5t160 199.5h145q-116 -104 -174 -206t-64 -239q-1 -12 -1 -36q0 -164 62 -286h-137z"/>
<glyph glyph-name="parenright" horiz-adv-x="396" unicode=")" d="M300 644q56 -107 56 -271v-26q-6 -141 -63 -262.5t-163 -208.5h-145q112 106 172.5 213.5t66.5 243.5q0 5 0.5 13t0.5 13q0 157 -63 285h138z"/>
<glyph glyph-name="asterisk" horiz-adv-x="362" unicode="*" d="M115 269l-52 68l104 69l-103 45l52 80l84 -73l17 121l99 -21l-52 -114l113 27l5 -93l-114 6l68 -101l-82 -44l-48 117z"/>
<glyph glyph-name="plus" horiz-adv-x="596" unicode="+" d="M250 532h97v-219h207v-92h-207v-221h-97v221h-207v92h207v219z"/>
<glyph glyph-name="comma" horiz-adv-x="260" unicode="," d="M46 -110l-104 -9q78 157 114 284l156 10q-73 -162 -166 -285z"/>
<glyph glyph-name="hyphen" horiz-adv-x="346" unicode="-" d="M66 340h269l-29 -127h-268z"/>
<glyph glyph-name="period" horiz-adv-x="260" unicode="." d="M98 -10q-36 0 -58.5 23.5t-22.5 59.5q0 42 27 72t70 30q37 0 60 -23.5t23 -61.5q0 -44 -28 -72t-71 -28z"/>
<glyph glyph-name="slash" horiz-adv-x="326" unicode="/" d="M62 -40h-102l348 725h102z"/>
<glyph glyph-name="zero" d="M31 202q0 70 19 139.5t54 128.5t93.5 95.5t130.5 36.5q90 0 137.5 -57t47.5 -152q0 -71 -18 -140.5t-53 -129t-94.5 -96.5t-134.5 -37q-86 0 -134 56t-48 156zM308 484q-35 0 -63 -31.5t-42.5 -78t-22 -91.5t-7.5 -80q2 -95 64 -95q33 0 60 31.5t42 78t23 90.5t8 77 q0 53 -14 76t-48 23z" unicode="0"/>
<glyph glyph-name="one" d="M319 117h111l-27 -117h-372l27 117h125l70 333q-61 -22 -111 -29l19 111q37 8 88.5 27t80.5 36h92z" unicode="1"/>
<glyph glyph-name="two" d="M-3 0l17 78l97 64q91 59 157 127.5t66 134.5q0 71 -76 71q-68 0 -140 -44l-35 106q96 65 207 65q96 0 143 -51t47 -123q0 -51 -19 -97.5t-55.5 -86t-73 -69t-87.5 -62.5q60 4 114 4h94l-25 -117h-431z" unicode="2"/>
<glyph glyph-name="three" d="M-1 49l46 120q68 -58 166 -58q38 0 69 15.5t31 52.5q1 30 -23 45t-77 15h-63l29 124h56q109 0 109 65q-2 53 -73 53q-44 0 -74.5 -10t-72.5 -33l-24 111q92 52 196 52q90 0 139.5 -44t49.5 -105q0 -109 -120 -145v-2q39 -15 65.5 -47t26.5 -78q0 -90 -74 -140t-178 -50 q-132 0 -204 59z" unicode="3"/>
<glyph glyph-name="four" d="M180 259h124l7 30q25 117 39 168h-1q-21 -23 -89.5 -104.5t-79.5 -93.5zM16 144l20 90q262 299 326 361h139l-71 -336h72l-25 -115h-72l-30 -144h-126l30 144h-263z" unicode="4"/>
<glyph glyph-name="five" d="M5 46l49 118q71 -55 165 -55q46 0 77 18t31 61q-1 35 -36.5 61.5t-123.5 26.5q-54 0 -93 -7l108 323h330l-33 -123h-222l-27 -80h20q110 0 167 -50.5t58 -129.5q0 -98 -76 -158.5t-195 -60.5q-59 0 -113.5 15.5t-85.5 40.5z" unicode="5"/>
<glyph glyph-name="six" d="M39 209q1 169 121 280.5t301 111.5q25 0 38 -3l-20 -121q-12 2 -32 2q-81 0 -147 -32t-96 -98q50 45 130 45q70 0 114.5 -46.5t44.5 -124.5q0 -99 -71.5 -166t-183.5 -67q-90 0 -144.5 61t-54.5 158zM178 227q-2 -13 -2 -36q2 -36 22.5 -59t58.5 -24q42 1 68.5 27.5 t26.5 71.5q0 32 -18.5 53.5t-53.5 21.5q-33 0 -61 -15t-41 -40z" unicode="6"/>
<glyph glyph-name="seven" d="M24 0q317 450 332 469h-276l29 123h430l-21 -94q-223 -334 -336 -498h-158z" unicode="7"/>
<glyph glyph-name="eight" d="M24 143q0 110 143 160q-32 18 -52.5 50.5t-20.5 72.5q0 74 62 125t158 51q100 0 145.5 -48.5t45.5 -106.5q0 -51 -29.5 -84t-82.5 -59q87 -49 87 -133q0 -72 -62.5 -126.5t-183.5 -54.5q-99 0 -153.5 45t-56.5 108zM256 250q-40 -10 -64 -31.5t-24 -51.5q0 -27 23 -46.5 t62 -19.5q35 0 60 15.5t25 45.5q0 52 -82 88zM309 355q66 22 66 74q0 24 -18.5 43.5t-56.5 19.5q-34 0 -53.5 -16.5t-19.5 -42.5q0 -45 82 -78z" unicode="8"/>
<glyph glyph-name="nine" d="M52 -8l13 119q18 -2 31 -2q76 0 145.5 31.5t103.5 95.5q-49 -41 -124 -41q-74 0 -120 46.5t-46 123.5q0 103 72 170t178 67h2q93 0 148 -60.5t55 -162.5q0 -176 -119.5 -282.5t-304.5 -106.5q-30 0 -34 2zM273 308q57 0 96 46q3 18 3 35q0 42 -19.5 70t-59.5 28 q-43 0 -69 -29t-26 -72q-1 -31 17 -54.5t58 -23.5z" unicode="9"/>
<glyph glyph-name="colon" horiz-adv-x="320" unicode=":" d="M129 -11q-36 0 -58.5 23t-22.5 59q0 41 27.5 71t69.5 30q36 0 59 -24t23 -61q0 -43 -27.5 -70.5t-70.5 -27.5zM190 312q-36 0 -58.5 23t-22.5 59q0 41 27.5 71t69.5 30q36 0 59 -23.5t23 -60.5q0 -43 -27.5 -71t-70.5 -28z"/>
<glyph glyph-name="semicolon" horiz-adv-x="320" unicode=";" d="M195 312q-36 0 -58.5 23t-22.5 59q0 41 27.5 71t69.5 30q36 0 59 -23.5t23 -60.5q0 -43 -28 -71t-70 -28zM75 -110l-103 -9q78 157 114 284l155 10q-75 -167 -166 -285z"/>
<glyph glyph-name="less" horiz-adv-x="596" unicode="&lt;" d="M52 223v86l476 223v-106l-359 -159v-2l359 -159v-106z"/>
<glyph glyph-name="equal" horiz-adv-x="596" unicode="=" d="M553 325h-511v93h511v-93zM553 118h-511v92h511v-92z"/>
<glyph glyph-name="greater" horiz-adv-x="596" unicode="&gt;" d="M552 312v-92l-476 -220v105l367 160v2l-367 160v105z"/>
<glyph glyph-name="question" horiz-adv-x="469" unicode="?" d="M191 172q34 0 55.5 -23.5t21.5 -56.5q0 -43 -28 -72.5t-76 -29.5q-33 0 -54.5 22t-21.5 55q0 45 28.5 75t74.5 30zM144 209q-5 13 -5 32q0 34 23 62.5t50.5 43.5t50.5 32t23 31q0 23 -57 23q-61 0 -126 -26l8 126q69 36 162 36q79 0 121.5 -37t42.5 -93q0 -46 -26 -82 t-56.5 -53.5t-56.5 -38t-26 -40.5v-16h-128z"/>
<glyph glyph-name="at" horiz-adv-x="825" unicode="@" d="M482 597q137 0 222 -81.5t85 -208.5q0 -40 -8.5 -81t-27 -80t-45 -69t-65 -48t-84.5 -18q-44 0 -70 18.5t-30 45.5q-57 -64 -133 -64q-48 0 -77.5 34.5t-29.5 94.5v8q4 109 79.5 184.5t188.5 75.5q34 0 71.5 -8.5t54.5 -19.5l-51 -198q-4 -20 -4 -26q0 -14 6.5 -19.5 t19.5 -6.5q35 1 58 30.5t31 63t8 65.5q0 84 -59 136.5t-167 52.5q-133 0 -218.5 -90t-85.5 -228q0 -104 63 -163t158 -59q89 0 152 29l19 -112q-82 -38 -200 -38q-127 0 -215 90.5t-88 234.5q0 191 121 323t321 132zM447 295q-50 0 -82.5 -35.5t-32.5 -86.5q0 -19 10 -30.5 t28 -11.5q32 0 61.5 27t42.5 76l15 54q-17 7 -42 7z"/>
<glyph glyph-name="A" horiz-adv-x="618" unicode="A" d="M247 285h146l-13 145q-3 43 -10 132h-2q-3 -8 -23 -58.5t-31 -73.5zM399 175h-194l-80 -175h-153l328 674h185l79 -674h-151z"/>
<glyph glyph-name="B" horiz-adv-x="582" unicode="B" d="M216 301l-36 -190q25 -3 55 -3q64 0 106.5 26.5t42.5 79.5q0 87 -123 87h-45zM268 562l-30 -156h48q60 0 96.5 24.5t36.5 66.5q0 35 -26 52.5t-69 17.5q-38 0 -56 -5zM20 8l124 655q80 15 177 15q109 0 167 -35q78 -40 78 -123q0 -60 -38.5 -101.5t-97.5 -58.5v-3 q49 -15 77.5 -53.5t28.5 -93.5q0 -99 -92 -160q-82 -55 -254 -55q-109 0 -170 13z"/>
<glyph glyph-name="C" horiz-adv-x="583" unicode="C" d="M513 135l12 -116q-67 -30 -178 -30q-135 0 -216.5 77.5t-81.5 209.5q0 110 45.5 197t124.5 140q101 71 248 71q103 0 147 -28l-39 -117q-44 22 -122 22q-91 0 -154 -52q-93 -75 -93 -217q0 -82 46 -130.5t133 -48.5q75 0 128 22z"/>
<glyph glyph-name="D" horiz-adv-x="681" unicode="D" d="M271 559l-85 -443q34 -4 63 -4q123 0 191 79q70 79 70 203q0 81 -45 125t-133 44q-41 0 -61 -4zM21 9l125 655q80 14 186 14q162 0 246 -72q88 -73 88 -211q0 -97 -37 -178t-101 -132q-113 -90 -323 -90q-118 0 -184 14z"/>
<glyph glyph-name="E" horiz-adv-x="517" unicode="E" d="M480 407l-23 -121h-240l-31 -163h269l-23 -123h-413l128 674h399l-24 -123h-254l-28 -144h240z"/>
<glyph glyph-name="F" horiz-adv-x="511" unicode="F" d="M19 0l128 674h395l-24 -123h-250l-31 -158h235l-24 -122h-234l-51 -271h-144z"/>
<glyph glyph-name="G" horiz-adv-x="673" unicode="G" d="M643 384l-67 -353q-116 -38 -218 -38q-142 0 -225 74q-85 76 -85 208q0 93 36.5 172.5t101.5 135.5q118 98 297 98q119 0 179 -30l-43 -122q-62 28 -143 28q-103 0 -172 -54q-44 -35 -70.5 -92.5t-26.5 -125.5q0 -83 46 -126.5t127 -43.5q46 0 73 12l27 142h-104l22 115 h245z"/>
<glyph glyph-name="H" horiz-adv-x="666" unicode="H" d="M147 674h144l-50 -263h245l50 263h144l-128 -674h-144l54 283h-245l-54 -283h-144z"/>
<glyph glyph-name="I" horiz-adv-x="274" unicode="I" d="M144 674h144l-128 -674h-144z"/>
<glyph glyph-name="J" horiz-adv-x="399" unicode="J" d="M194 247l81 427h144l-85 -445q-24 -128 -84 -184t-175 -56q-73 0 -110 16l27 123q38 -12 81 -12q50 0 79 29.5t42 101.5z"/>
<glyph glyph-name="K" horiz-adv-x="590" unicode="K" d="M19 0l128 674h142l-57 -301h3q6 9 60 77l187 224h180l-273 -291l156 -383h-156l-113 293l-72 -68l-43 -225h-142z"/>
<glyph glyph-name="L" horiz-adv-x="487" unicode="L" d="M19 0l128 674h144l-104 -548h259l-24 -126h-403z"/>
<glyph glyph-name="M" horiz-adv-x="821" unicode="M" d="M722 0h-140l41 278q22 144 45 263h-3q-63 -147 -116 -254l-138 -276h-112l-24 273q-8 98 -15 257h-2q-7 -31 -18.5 -87t-20.5 -100t-17 -76l-67 -278h-132l169 674h193l21 -256q12 -182 12 -215h4q30 87 91 215l125 256h195z"/>
<glyph glyph-name="N" horiz-adv-x="666" unicode="N" d="M153 0h-134l128 674h169l88 -257q37 -112 62 -230h3q5 104 31 242l46 245h134l-127 -674h-149l-94 269q-44 133 -66 235l-3 -1q-11 -95 -44 -267z"/>
<glyph glyph-name="O" horiz-adv-x="705" unicode="O" d="M401 565q-65 0 -116 -51q-39 -39 -61.5 -107t-22.5 -132q0 -75 35.5 -120.5t105.5 -45.5q62 0 113 49q38 38 60 108.5t22 133.5q0 72 -31.5 118.5t-104.5 46.5zM418 685q130 0 201 -78t71 -203q0 -93 -31.5 -177.5t-88.5 -140.5q-100 -97 -249 -97q-127 0 -200 79.5 t-73 201.5q0 92 32.5 177.5t91.5 141.5q101 96 246 96z"/>
<glyph glyph-name="P" horiz-adv-x="559" unicode="P" d="M266 559l-38 -198q22 -6 52 -6q72 0 109.5 36t37.5 89q0 84 -108 84q-30 0 -53 -5zM19 0l125 661q70 17 176 17q117 0 180 -45q72 -50 72 -145q0 -114 -91 -187q-81 -62 -218 -62q-29 0 -57 4l-46 -243h-141z"/>
<glyph glyph-name="Q" horiz-adv-x="705" unicode="Q" d="M402 565q-67 0 -117 -50q-39 -39 -61.5 -109.5t-22.5 -133.5q0 -75 35 -119t105 -44q64 0 112 48q38 39 61 110.5t23 135.5q0 67 -31.5 114.5t-103.5 47.5zM632 -7l-51 -114q-136 40 -252 95q-38 17 -47 17q-102 8 -168 83t-66 198q0 88 30.5 170t86.5 139 q101 104 253 104q131 0 201.5 -80.5t70.5 -200.5q0 -87 -30 -170.5t-84 -137.5q-40 -42 -98 -66v-2q86 -23 154 -35z"/>
<glyph glyph-name="R" horiz-adv-x="583" unicode="R" d="M269 560l-36 -186h60q59 0 97 32t38 81q0 39 -29 58.5t-74 19.5q-36 0 -56 -5zM19 0l127 661q70 17 180 17q115 0 177 -38q75 -44 75 -132q0 -71 -42 -119.5t-111 -70.5v-4q52 -22 64 -123q2 -16 4.5 -45t4.5 -47.5t5 -40t6 -36t6 -22.5h-148q-9 26 -20 159 q-4 60 -25.5 83.5t-65.5 23.5h-44l-50 -266h-143z"/>
<glyph glyph-name="S" horiz-adv-x="510" unicode="S" d="M0 38l48 118q72 -43 159 -43q45 0 76 20.5t31 58.5q0 28 -21 49t-70 46q-64 35 -102 77t-38 102q0 99 76 158.5t190 59.5q99 0 159 -33l-45 -120q-53 30 -122 30h-4q-48 0 -75 -20.5t-27 -50.5q0 -14 6.5 -26t22 -24.5t29.5 -21t40 -23.5q134 -70 134 -178t-78 -168 t-196 -60q-131 3 -193 49z"/>
<glyph glyph-name="T" horiz-adv-x="527" unicode="T" d="M142 0l103 548h-178l25 126h501l-24 -126h-180l-103 -548h-144z"/>
<glyph glyph-name="U" horiz-adv-x="655" unicode="U" d="M144 674h144l-74 -388q-7 -32 -7 -80q0 -42 25.5 -69t72.5 -27q58 0 94.5 41.5t54.5 133.5l74 389h144l-73 -383q-30 -156 -103.5 -229t-208.5 -73h-3q-105 0 -163 55t-58 160q0 41 10 94z"/>
<glyph glyph-name="V" horiz-adv-x="611" unicode="V" d="M331 0h-167l-84 674h149l30 -321q10 -101 16 -207h2q33 87 90 208l151 320h161z"/>
<glyph glyph-name="W" horiz-adv-x="864" unicode="W" d="M278 0h-160l-26 674h145l1 -299q-2 -156 -4 -219h2q31 90 79 216l121 302h158l-2 -301q-1 -113 -6 -214h2q37 112 74 215l117 300h151l-297 -674h-157l-5 276q0 110 6 224h-2q-62 -180 -82 -227z"/>
<glyph glyph-name="X" horiz-adv-x="569" unicode="X" d="M517 0h-153l-46 136q-32 100 -36 115h-2q-4 -7 -28 -49.5t-41 -70.5l-79 -131h-173l252 344l-118 330h152l41 -129q24 -84 31 -112h3q46 84 64 114l78 127h172l-246 -331z"/>
<glyph glyph-name="Y" horiz-adv-x="570" unicode="Y" d="M294 0h-144l52 275l-131 399h154l43 -171q22 -105 26 -122h2q58 105 69 123l101 170h172l-291 -396z"/>
<glyph glyph-name="Z" horiz-adv-x="553" unicode="Z" d="M-25 0l15 83l391 463v4h-274l24 124h468l-17 -90l-384 -456v-4h301l-23 -124h-501z"/>
<glyph glyph-name="bracketleft" horiz-adv-x="373" unicode="[" d="M-7 -123l175 767h244l-26 -114h-118l-123 -537h118l-26 -116h-244z"/>
<glyph glyph-name="backslash" horiz-adv-x="337" unicode="\" d="M314 -40h-100l-162 725h100z"/>
<glyph glyph-name="bracketright" horiz-adv-x="373" unicode="]" d="M6 -10h118l123 537h-119l27 117h245l-176 -767h-245z"/>
<glyph glyph-name="asciicircum" horiz-adv-x="596" unicode="^" d="M545 177h-109l-145 356h-3l-145 -356h-107l209 473h91z"/>
<glyph glyph-name="underscore" horiz-adv-x="500" unicode="_" d="M-62 -75h500l-10 -50h-500z"/>
<glyph glyph-name="grave" horiz-adv-x="395" unicode="`" d="M119 700h140l74 -152h-103z"/>
<glyph glyph-name="a" horiz-adv-x="554" unicode="a" d="M352 274l23 113q-22 4 -39 4q-66 0 -113.5 -66t-47.5 -139q0 -37 15 -59t44 -22q35 0 68 42.5t50 126.5zM466 0h-133q1 26 7 97h-3q-60 -108 -164 -108q-66 0 -107 46.5t-41 123.5q0 51 13 99t41 92t68.5 77.5t99 53t128.5 19.5q86 0 162 -24l-52 -256q-19 -98 -19 -202 v-18z"/>
<glyph glyph-name="b" horiz-adv-x="560" unicode="b" d="M199 246l-9 -40q-5 -35 -5 -48v-6q2 -54 55 -54q59 0 101 66t42 135q0 38 -16 61.5t-48 23.5q-40 0 -74.5 -37.5t-45.5 -100.5zM146 710h145l-58 -279h2q58 69 151 69q72 0 110 -49.5t38 -120.5q0 -62 -20.5 -121t-58.5 -109t-102 -80.5t-143 -30.5q-86 0 -130 35.5 t-44 101.5q0 35 11 90z"/>
<glyph glyph-name="c" horiz-adv-x="435" unicode="c" d="M373 125l1 -110q-54 -26 -139 -26q-92 0 -149 53.5t-57 147.5q0 132 90.5 221t228.5 89q57 0 99 -16l-35 -111q-29 12 -66 12q-74 0 -120 -53.5t-46 -125.5q0 -48 27 -74.5t69 -26.5q47 0 97 20z"/>
<glyph glyph-name="d" horiz-adv-x="560" unicode="d" d="M355 242l25 132q-21 17 -57 17q-62 0 -104.5 -60t-42.5 -134q0 -44 18 -68t50 -24q34 0 66 35.5t45 101.5zM443 710h144l-99 -520q-21 -110 -24 -190h-131l7 79h-2q-60 -90 -160 -90q-65 0 -108.5 49.5t-43.5 135.5q0 132 86.5 229t221.5 97q38 0 67 -11z"/>
<glyph glyph-name="e" horiz-adv-x="501" unicode="e" d="M348 353q0 19 -14.5 30.5t-38.5 11.5q-46 0 -76 -30.5t-39 -70.5h10q81 0 119.5 13.5t38.5 45.5zM412 132l10 -104q-77 -39 -182 -39q-103 0 -157.5 55t-54.5 152q0 76 33.5 144.5t100 114t151.5 45.5q76 0 123 -39.5t47 -106.5q0 -165 -289 -165h-28q0 -29 15 -50 q29 -38 94 -38q73 0 137 31z"/>
<glyph glyph-name="f" horiz-adv-x="329" unicode="f" d="M173 0h-143l71 380h-63l21 109h63l5 26q19 106 82 159q54 47 139 47q50 0 77 -12l-25 -115q-17 8 -47 8q-33 0 -55 -25t-29 -64l-5 -24h97l-21 -109h-96z"/>
<glyph glyph-name="g" horiz-adv-x="558" unicode="g" d="M356 250l25 131q-20 9 -52 9q-63 0 -106 -58.5t-43 -131.5q0 -38 17 -61.5t49 -23.5q36 0 67 37t43 98zM12 -178l33 110q20 -12 58 -19.5t70 -7.5q119 0 146 130l8 41h-2q-56 -72 -140 -72q-71 0 -113.5 50t-43.5 124q0 83 36.5 155t113 119.5t178.5 47.5t181 -34 l-74 -403q-30 -159 -103 -217q-69 -55 -189 -55q-105 0 -159 31z"/>
<glyph glyph-name="h" horiz-adv-x="563" unicode="h" d="M157 0h-144l134 710h144l-54 -283l2 -1q66 74 156 74q57 0 90 -34.5t33 -97.5q0 -38 -9 -88l-53 -280h-144l50 268q7 33 7 61q0 55 -50 55q-38 0 -72 -43.5t-48 -116.5z"/>
<glyph glyph-name="i" horiz-adv-x="265" unicode="i" d="M196 550q-31 0 -50.5 19t-19.5 51q1 36 25 59t58 23q32 0 52 -19.5t20 -51.5q0 -37 -24.5 -59t-60.5 -22zM157 0h-144l93 489h144z"/>
<glyph glyph-name="j" horiz-adv-x="275" unicode="j" d="M206 550q-31 0 -50.5 19t-19.5 51q0 36 24 59t59 23q32 0 52 -19.5t20 -51.5q0 -37 -24.5 -59t-60.5 -22zM120 489h144l-89 -472q-22 -122 -68 -174t-134 -52q-38 0 -69 8l17 109q15 -3 32 -3q28 0 47 22t30 83z"/>
<glyph glyph-name="k" horiz-adv-x="530" unicode="k" d="M156 0h-143l134 710h143l-80 -425h2q30 38 44 56l125 148h177l-208 -201l136 -288h-160l-86 209l-54 -52z"/>
<glyph glyph-name="l" horiz-adv-x="265" unicode="l" d="M157 0h-144l136 710h144z"/>
<glyph glyph-name="m" horiz-adv-x="831" unicode="m" d="M152 0h-139l61 330q13 74 25 159h124l-9 -79h2q63 90 167 90q54 0 83.5 -27.5t32.5 -64.5q64 92 168 92q57 0 88.5 -34.5t31.5 -96.5q0 -39 -9 -84l-53 -285h-139l49 267q7 35 7 60q0 58 -49 58q-36 0 -68.5 -45t-45.5 -118l-41 -222h-139l50 269q7 35 7 56q0 60 -46 60 q-37 0 -71 -47t-47 -118z"/>
<glyph glyph-name="n" horiz-adv-x="563" unicode="n" d="M157 0h-144l62 330q14 71 26 159h128l-10 -81h2q66 92 172 92q60 0 92.5 -35t32.5 -98q0 -35 -8 -83l-54 -284h-144l51 271q5 28 5 55q0 58 -48 58q-37 0 -72.5 -45t-49.5 -122z"/>
<glyph glyph-name="o" horiz-adv-x="559" unicode="o" d="M303 391q-56 0 -90 -63.5t-34 -130.5q0 -45 20.5 -71.5t57.5 -26.5q55 0 89 64t34 135q0 39 -18.5 66t-58.5 27zM322 500q95 0 151 -57.5t56 -143.5q0 -135 -82.5 -222.5t-209.5 -87.5q-93 0 -150 55.5t-57 146.5q0 130 82 219.5t210 89.5z"/>
<glyph glyph-name="p" horiz-adv-x="562" unicode="p" d="M197 227l-18 -105q26 -24 66 -24q56 0 96.5 65.5t40.5 140.5q0 33 -15 56.5t-48 23.5q-41 0 -75.5 -43t-46.5 -114zM117 -198h-143l94 498q16 84 29 193h129l-9 -75h2q62 82 157 82q76 0 116.5 -52.5t40.5 -132.5q0 -132 -79.5 -229t-203.5 -97q-57 0 -91 20h-2z"/>
<glyph glyph-name="q" horiz-adv-x="560" unicode="q" d="M356 248l25 131q-20 11 -56 11q-63 0 -106 -62.5t-43 -135.5q0 -42 16.5 -64.5t44.5 -22.5q39 0 73 39t46 104zM415 -198h-144l59 269h-2q-54 -82 -151 -82q-66 0 -108.5 50t-42.5 135q0 60 21 117t60.5 104.5t105 76t146.5 28.5q78 0 181 -28z"/>
<glyph glyph-name="r" horiz-adv-x="370" unicode="r" d="M157 0h-144l55 291q4 20 25 198h125q-6 -66 -9 -100h3q27 51 67 81t89 30q18 0 27 -1l-28 -140q-3 0 -11 0.5t-12 0.5q-120 0 -153 -178z"/>
<glyph glyph-name="s" horiz-adv-x="416" unicode="s" d="M-4 28l35 101q68 -34 128 -34q30 0 46 12.5t16 31.5q0 18 -13.5 32.5t-47.5 30.5q-104 51 -104 130q0 75 60 121.5t155 46.5q83 0 126 -25l-34 -102q-46 22 -98 22q-29 0 -46.5 -12t-17.5 -31q0 -28 60 -56q109 -56 109 -134q0 -81 -61.5 -127t-159.5 -46h-3 q-103 3 -150 39z"/>
<glyph glyph-name="t" horiz-adv-x="348" unicode="t" d="M143 592l147 34l-26 -137h104l-21 -109h-104l-33 -166q-8 -38 -8 -62q0 -41 41 -41q27 0 40 2l-17 -113q-28 -11 -85 -11q-62 0 -94.5 29t-32.5 77q0 37 10 91l38 194h-62l20 109h63z"/>
<glyph glyph-name="u" horiz-adv-x="560" unicode="u" d="M400 489h144l-63 -330q-10 -49 -27 -159h-126l9 80h-2q-71 -91 -169 -91q-60 0 -92.5 34.5t-32.5 102.5q0 41 10 90l51 273h144l-49 -262q-7 -38 -7 -64q0 -57 49 -57q38 0 71 42.5t47 114.5z"/>
<glyph glyph-name="v" horiz-adv-x="512" unicode="v" d="M45 489h149l22 -214q2 -29 7 -71.5t6 -61.5h4q12 35 54 132l99 215h161l-273 -489h-146z"/>
<glyph glyph-name="w" horiz-adv-x="733" unicode="w" d="M51 489h146l1 -207q0 -66 -5 -156h2q14 42 60 150l96 213h118l12 -206q0 -7 1.5 -44.5t1.5 -56.5q0 -18 -2 -56h3q21 71 54 159l83 204h145l-238 -489h-135l-14 170q-4 68 -4 157h-2q-49 -131 -58 -150l-83 -177h-136z"/>
<glyph glyph-name="x" horiz-adv-x="498" unicode="x" d="M49 489h158l29 -73q19 -49 31 -82h3q8 12 24.5 37t27.5 41l54 77h165l-206 -237l114 -252h-158l-31 78q-17 43 -31 89h-3q-49 -80 -50 -82l-58 -85h-166l212 253z"/>
<glyph glyph-name="y" horiz-adv-x="497" unicode="y" d="M43 489h152l30 -213q13 -94 16 -116h2q4 9 11 28.5t15 41t17 44.5l89 215h152l-175 -351q-98 -195 -188 -280q-38 -36 -82 -57t-75 -26l-32 123q49 15 83 39q53 37 79 85q6 8 3 24z"/>
<glyph glyph-name="z" horiz-adv-x="450" unicode="z" d="M-26 0l16 87l159 170q49 53 120 113l1 2h-209l22 117h382l-16 -91l-156 -166q-62 -66 -119 -113v-2h229l-23 -117h-406z"/>
<glyph glyph-name="braceleft" horiz-adv-x="436" unicode="{" d="M125 54l18 78q5 20 5 32q0 25 -20 35.5t-70 10.5l26 111q58 0 85 19t38 65q1 3 8 35t9 41q8 36 22 63.5t40 53.5t70.5 40t105.5 14h9l-23 -112q-54 -1 -75 -23t-31 -66q0 -1 -5 -23.5t-7 -30.5q-26 -107 -129 -128l-1 -3q73 -18 73 -92q0 -20 -5 -45l-14 -61 q-5 -20 -5 -32q0 -52 74 -57l-26 -114q-178 13 -178 137q0 24 6 52z"/>
<glyph glyph-name="bar" horiz-adv-x="240" unicode="|" d="M87 750h98v-1000h-98v1000z"/>
<glyph glyph-name="braceright" horiz-adv-x="438" unicode="}" d="M7 -21q87 7 110 107q1 6 4.5 24t5.5 25q11 49 43 83t86 45l2 3q-77 12 -77 82q0 18 5 41l14 60q5 20 5 33q0 51 -74 56l27 114q91 -1 136 -28.5t45 -89.5q0 -27 -7 -55l-18 -80q-4 -16 -4 -30q0 -26 20 -37t70 -11l-26 -111q-58 0 -85 -19t-37 -64q-18 -78 -21 -90 q-17 -73 -77.5 -121.5t-169.5 -49.5z"/>
<glyph glyph-name="asciitilde" horiz-adv-x="596" unicode="~" d="M143 192h-95q-1 96 36.5 141t102.5 45q55 0 137 -47q70 -40 95 -40q37 0 40 81h96v-16q0 -171 -133 -171q-59 0 -147 53q-62 36 -86 36q-41 0 -46 -82z"/>
<glyph glyph-name="uni00A0" horiz-adv-x="184" unicode=" "/>
<glyph glyph-name="exclamdown" horiz-adv-x="337" unicode="¡" d="M238 365q-34 0 -55.5 23.5t-21.5 56.5q0 43 28.5 72.5t76.5 29.5q33 0 54 -22t21 -54q0 -45 -28.5 -75.5t-74.5 -30.5zM273 310q-22 -207 -34 -259l-17 -73h-164l15 69q20 88 86 263h114z"/>
<glyph glyph-name="cent" d="M521 502l-52 -127q-47 26 -109 26q-59 0 -100 -29.5t-41 -87.5q0 -45 32 -69t80 -24q54 0 107 17l-4 -126q-39 -17 -105 -22l-20 -91h-107l21 93q-70 18 -109 69t-39 127q0 104 68.5 179t185.5 90l22 91h107l-20 -91q41 -2 83 -25z" unicode="¢"/>
<glyph glyph-name="sterling" d="M464 0h-453l19 74q103 40 121 134q2 14 4 36h-90l24 103h74q2 35 5 51q17 96 77.5 149t158.5 53q71 0 112 -26l-39 -116q-32 21 -82 21q-24 0 -40.5 -7t-25.5 -21.5t-13 -26.5t-7 -32q-3 -14 -5 -45h145l-24 -103h-133q-3 -32 -20 -70t-48 -57h267z" unicode="£"/>
<glyph glyph-name="currency" horiz-adv-x="512" unicode="¤" d="M262 372q-35 0 -58 -27.5t-23 -73.5q0 -45 22.5 -69.5t51.5 -24.5q32 0 57 27t25 76q0 40 -21 66t-54 26zM268 475q63 0 104 -33l74 77l59 -63l-83 -71q26 -50 26 -101q0 -67 -35 -118l74 -74l-61 -61l-66 80q-44 -36 -109 -36t-105 35l-69 -79l-58 61l79 73 q-29 48 -29 104q0 66 36 116l-78 70l64 65l68 -79q43 34 109 34z"/>
<glyph glyph-name="yen" d="M33 147l17 73h125l12 53h-124l17 73h96l-101 246h165l27 -108q10 -46 20 -102h1q47 76 65 103l69 106h171l-214 -245h98l-17 -73h-129l-12 -53h129l-17 -73h-129l-33 -147h-144l33 147h-125z" unicode="¥"/>
<glyph glyph-name="brokenbar" horiz-adv-x="240" unicode="¦" d="M87 674h98v-350h-98v350zM87 174h98v-350h-98v350z"/>
<glyph glyph-name="section" horiz-adv-x="531" unicode="§" d="M57 20q73 -54 146 -54q72 0 72 46q0 18 -19 31t-65 30q-147 53 -147 146t108 146q-20 24 -20 66q0 80 66.5 124.5t153.5 44.5q107 0 159 -38l-45 -99q-60 36 -131 36q-78 0 -78 -44q0 -24 75 -53q8 -3 12 -5q70 -28 105 -59.5t35 -84.5v-9q-7 -87 -98 -140q23 -28 23 -67 q0 -83 -66 -128t-158 -45q-53 0 -102.5 15.5t-79.5 39.5zM261 182q48 -18 66 -29q38 20 38 57q0 24 -18.5 39.5t-81.5 42.5q-53 24 -59 27q-43 -18 -43 -57q0 -24 21 -40t77 -40z"/>
<glyph glyph-name="dieresis" horiz-adv-x="395" unicode="¨" d="M367 554q-27 0 -46.5 18t-19.5 48q0 33 22 54t54 21q30 0 47.5 -18.5t17.5 -47.5q0 -34 -21.5 -54.5t-53.5 -20.5zM162 554q-27 0 -46.5 18t-19.5 48q0 33 22 54t54 21q29 0 47 -18.5t18 -47.5q0 -34 -21.5 -54.5t-53.5 -20.5z"/>
<glyph glyph-name="copyright" horiz-adv-x="735" unicode="©" d="M210 261q0 83 56 133t137 50q71 0 105 -23l-26 -78q-32 18 -82 18q-47 0 -74.5 -25t-27.5 -69q0 -40 26 -64t69 -24q53 0 85 17l17 -74q-43 -28 -113 -28q-80 0 -126 47t-46 120zM126 264q0 -103 67.5 -169.5t167.5 -66.5q110 0 180.5 67.5t70.5 183.5q0 102 -67 169 t-167 67q-110 0 -181 -71t-71 -180zM66 261q0 135 89.5 229t225.5 94q128 0 210 -87t82 -215q0 -136 -89 -230t-224 -94q-127 0 -210.5 85.5t-83.5 217.5z"/>
<glyph glyph-name="ordfeminine" horiz-adv-x="400" unicode="ª" d="M281 407l17 103q-15 6 -34 6q-41 0 -68.5 -37t-27.5 -80q0 -57 45 -57q23 0 42 19t26 46zM369 268h-96q0 8 0.5 25t0.5 26h-1q-42 -58 -111 -58q-44 0 -72.5 31.5t-28.5 86.5q0 88 58 150t169 62q67 0 124 -22l-35 -201q-8 -43 -8 -100z"/>
<glyph glyph-name="guillemotleft" horiz-adv-x="684" unicode="«" d="M363 220l21 95l283 179l-31 -134l-154 -98l109 -99l-29 -125zM81 220l21 95l283 179l-31 -134l-154 -98l109 -99l-29 -125z"/>
<glyph glyph-name="logicalnot" horiz-adv-x="596" unicode="¬" d="M40 422h516v-316h-97v223h-419v93z"/>
<glyph glyph-name="uni00AD" horiz-adv-x="346" unicode="­" d="M16 340h269l-29 -127h-268z"/>
<glyph glyph-name="registered" horiz-adv-x="445" unicode="®" d="M237 254q55 0 92 38.5t37 94.5q0 53 -34 89.5t-86 36.5q-55 0 -92.5 -39t-37.5 -95q0 -53 34 -89t87 -36zM235 204q-71 0 -120 50.5t-49 123.5q0 76 53.5 130t127.5 54q71 0 119.5 -50.5t48.5 -123.5q0 -76 -53 -130t-127 -54zM222 393h13q29 0 29 20q0 17 -25 17 q-3 0 -8.5 -0.5t-6.5 -0.5zM165 302l6 158q33 6 72 6q46 0 65 -12q15 -12 15 -34q0 -12 -10.5 -22.5t-27.5 -14.5v-2q25 -7 32 -41q6 -32 9 -38h-57q-5 6 -9 34q-4 22 -26 22h-15l-2 -56h-52z"/>
<glyph glyph-name="macron" horiz-adv-x="395" unicode="¯" d="M151 669h254l-17 -88h-254z"/>
<glyph glyph-name="degree" horiz-adv-x="360" unicode="°" d="M228 489q-31 0 -53 -26t-22 -58q0 -31 19.5 -50.5t48.5 -19.5q31 0 52 24t21 59q0 30 -16.5 50.5t-49.5 20.5zM232 558q64 0 104 -40t40 -98q0 -65 -49 -110t-113 -45q-63 0 -102.5 39t-39.5 98q0 64 47.5 110t112.5 46z"/>
<glyph glyph-name="plusminus" horiz-adv-x="596" unicode="±" d="M40 93h516v-93h-516v93zM249 579h98v-173h209v-93h-209v-176h-98v176h-209v93h209v173z"/>
<glyph glyph-name="twosuperior" horiz-adv-x="362" unicode="²" d="M27 220l16 72q29 16 39.5 22t39 22.5t42 27.5t31.5 27.5t25.5 32t7.5 30.5q0 18 -11.5 29t-31.5 11q-40 0 -85 -25l-21 88q66 42 146 42q60 0 95.5 -32.5t35.5 -85.5q0 -101 -141 -170q37 6 133 6l-22 -97h-299z"/>
<glyph glyph-name="threesuperior" horiz-adv-x="374" unicode="³" d="M30 244l35 89q49 -30 114 -30q46 0 46 27q0 30 -56 30h-50l23 92h38h10q49 0 49 25q-2 26 -48 26q-45 0 -87 -20l-16 81q58 31 136 31q65 0 100 -28t36 -69q0 -61 -76 -87q62 -21 62 -81t-54 -90t-125 -30q-90 0 -137 34z"/>
<glyph glyph-name="acute" horiz-adv-x="395" unicode="´" d="M273 700h142l-130 -152h-106z"/>
<glyph glyph-name="uni00B5" horiz-adv-x="559" unicode="µ" d="M245 489l-52 -274q-5 -28 -5 -44q0 -65 59 -65q26 0 48.5 22.5t37.5 53.5q10 19 13 38l53 269h144l-63 -328q-3 -15 -3 -25q0 -19 8 -26.5t25 -8.5l-27 -104q-24 -8 -48 -8q-79 0 -89 91h-3q-49 -87 -123 -87q-50 0 -72 31l-8 -45q-22 -126 -21 -177h-129q-2 12 -2 26 q0 57 18 154l95 507h144z"/>
<glyph glyph-name="paragraph" horiz-adv-x="559" unicode="¶" d="M199 147q-48 12 -89.5 57t-41.5 116q0 131 93.5 197t242.5 66q109 0 155 -11l-160 -697h-98l137 599h-68l-137 -599h-97z"/>
<glyph glyph-name="periodcentered" horiz-adv-x="289" unicode="·" d="M174 380q34 0 55.5 -23.5t21.5 -56.5q0 -43 -28 -72.5t-76 -29.5q-33 0 -54.5 22t-21.5 54q0 45 28.5 75.5t74.5 30.5z"/>
<glyph glyph-name="cedilla" horiz-adv-x="395" unicode="¸" d="M122 4h79l-34 -48q27 -6 44 -23.5t17 -41.5q0 -50 -38.5 -73.5t-88.5 -23.5t-77 20l24 57q26 -16 54 -16q15 0 26 7.5t11 20.5q0 31 -72 36z"/>
<glyph glyph-name="onesuperior" horiz-adv-x="302" unicode="¹" d="M92 219l61 263l-78 -32l-11 88l128 53h106l-86 -372h-120z"/>
<glyph glyph-name="ordmasculine" horiz-adv-x="383" unicode="º" d="M239 517q-34 0 -56 -38.5t-22 -82.5q0 -27 14 -44t37 -17q33 0 54.5 38t21.5 84q0 60 -49 60zM246 591q68 0 109 -38t41 -101q0 -86 -55 -138.5t-142 -52.5q-63 0 -104 39t-41 98q0 85 54.5 139t137.5 54z"/>
<glyph glyph-name="guillemotright" horiz-adv-x="685" unicode="»" d="M39 38l31 133l155 99l-109 99l28 125l200 -182l-23 -95zM321 38l31 133l155 99l-109 99l28 125l200 -182l-23 -95z"/>
<glyph glyph-name="onequarter" horiz-adv-x="866" unicode="¼" d="M567 171h78l6 27q6 31 21 86zM438 79l18 81l209 212h134l-46 -201h46l-21 -92h-46l-18 -79h-109l18 79h-185zM102 219l60 263l-77 -32l-11 88l128 53h106l-86 -372h-120zM104 -10l497 607h110l-495 -608z"/>
<glyph glyph-name="onehalf" horiz-adv-x="880" unicode="½" d="M100 -10l496 607h111l-495 -608zM97 219l61 263l-78 -32l-11 88l129 53h106l-87 -372h-120zM492 0l17 72q39 21 61 34t56 36.5t50.5 46.5t16.5 45q0 41 -43 41q-36 0 -81 -25l-26 87q69 43 148 43q59 0 94.5 -32.5t35.5 -85.5q0 -102 -141 -171q38 6 133 6l-22 -97h-299z "/>
<glyph glyph-name="threequarters" horiz-adv-x="940" unicode="¾" d="M645 171h77l7 27q6 31 21 86zM516 79l18 81l209 212h134l-46 -201h46l-22 -92h-46l-17 -79h-109l18 79h-185zM189 -10l497 607h110l-495 -608zM44 244l35 89q49 -30 113 -30q47 0 47 27q0 30 -57 30h-49l22 92h39h10q48 0 48 25q-2 26 -48 26t-86 -20l-16 81 q56 31 136 31q64 0 99 -28t36 -69q0 -61 -75 -87q62 -21 62 -81t-54 -90t-125 -30q-92 0 -137 34z"/>
<glyph glyph-name="questiondown" horiz-adv-x="470" unicode="¿" d="M319 387q-34 0 -55.5 23.5t-21.5 56.5q0 43 28 72.5t76 29.5q33 0 54.5 -22t21.5 -54q0 -45 -28.5 -75.5t-74.5 -30.5zM366 350q6 -15 6 -31q0 -35 -23 -63.5t-50.5 -43.5t-50.5 -32t-23 -31q0 -23 57 -23q60 0 125 26l-8 -126q-75 -36 -162 -36q-79 0 -121 37t-42 93 q0 38 17 68t41 49t48 34t41 31t17 32v16h128z"/>
<glyph glyph-name="Agrave" horiz-adv-x="618" unicode="À" d="M224 836h158l77 -124h-119zM247 285h146l-13 145q-3 43 -10 132h-2q-3 -8 -23 -58.5t-31 -73.5zM399 175h-194l-80 -175h-153l328 674h185l79 -674h-151z"/>
<glyph glyph-name="Aacute" horiz-adv-x="618" unicode="Á" d="M417 836h160l-130 -126h-124zM247 285h146l-13 145q-3 43 -10 132h-2q-3 -8 -23 -58.5t-31 -73.5zM399 175h-194l-80 -175h-153l328 674h185l79 -674h-151z"/>
<glyph glyph-name="Acircumflex" horiz-adv-x="618" unicode="Â" d="M363 836h110l80 -126h-102l-40 61h-2l-58 -61h-111zM247 285h146l-13 145q-3 43 -10 132h-2q-3 -8 -23 -58.5t-31 -73.5zM399 175h-194l-80 -175h-153l328 674h185l79 -674h-151z"/>
<glyph glyph-name="Atilde" horiz-adv-x="618" unicode="Ã" d="M316 713h-77q11 67 39.5 101t67.5 34q33 0 67 -21q31 -21 43 -21q13 0 21 10t16 36h75q-21 -132 -108 -132q-37 0 -68 20q-30 19 -41 19h-2q-23 0 -33 -46zM247 285h146l-13 145q-3 43 -10 132h-2q-3 -8 -23 -58.5t-31 -73.5zM399 175h-194l-80 -175h-153l328 674h185 l79 -674h-151z"/>
<glyph glyph-name="Adieresis" horiz-adv-x="618" unicode="Ä" d="M498 712q-26 0 -45 17.5t-19 45.5q0 32 21.5 52.5t52.5 20.5q28 0 45.5 -18.5t17.5 -45.5q0 -32 -21 -52t-52 -20zM291 712q-26 0 -45 17.5t-19 45.5q0 32 21.5 52.5t52.5 20.5q28 0 45.5 -18.5t17.5 -45.5q0 -32 -21 -52t-52 -20zM247 285h146l-13 145q-3 43 -10 132h-2 q-3 -8 -23 -58.5t-31 -73.5zM399 175h-194l-80 -175h-153l328 674h185l79 -674h-151z"/>
<glyph glyph-name="Aring" horiz-adv-x="618" unicode="Å" d="M411 840q-21 0 -34 -14.5t-13 -36.5q0 -19 11 -31t30 -12q22 0 35 14t13 34t-11 33t-31 13zM416 889q47 0 77.5 -23.5t30.5 -65.5q0 -47 -35.5 -75t-88.5 -28q-45 0 -75.5 24t-31.5 64q-1 46 34 75t89 29zM247 285h146l-13 145q-3 43 -10 132h-2q-3 -8 -23 -58.5 t-31 -73.5zM399 175h-194l-80 -175h-153l328 674h185l79 -674h-151z"/>
<glyph glyph-name="AE" horiz-adv-x="845" unicode="Æ" d="M282 304h132l14 165q5 79 7 98h-3q-31 -59 -53 -100zM105 0h-153l413 674h484l-23 -123h-256l-13 -147h243l-22 -122h-225l-12 -159h254l-23 -123h-378l14 185h-194z"/>
<glyph glyph-name="Ccedilla" horiz-adv-x="583" unicode="Ç" d="M614 656l-39 -117q-44 22 -122 22q-91 0 -154 -52q-93 -75 -93 -217q0 -82 46 -130.5t133 -48.5q75 0 128 22l12 -116q-59 -26 -154 -30l-24 -33q27 -6 44 -24t17 -44q0 -48 -38.5 -71t-87.5 -23q-51 0 -78 21l24 57q26 -16 54 -16q14 0 25.5 7t11.5 20q0 31 -72 36 l47 73q-113 15 -179 90.5t-66 193.5q0 110 45.5 197t124.5 140q101 71 248 71q103 0 147 -28z"/>
<glyph glyph-name="Egrave" horiz-adv-x="517" unicode="È" d="M194 836h158l77 -124h-119zM480 407l-23 -121h-240l-31 -163h269l-23 -123h-413l128 674h399l-24 -123h-254l-28 -144h240z"/>
<glyph glyph-name="Eacute" horiz-adv-x="517" unicode="É" d="M370 836h160l-130 -126h-124zM480 407l-23 -121h-240l-31 -163h269l-23 -123h-413l128 674h399l-24 -123h-254l-28 -144h240z"/>
<glyph glyph-name="Ecircumflex" horiz-adv-x="517" unicode="Ê" d="M318 836h110l80 -126h-102l-40 61h-2l-58 -61h-111zM480 407l-23 -121h-240l-31 -163h269l-23 -123h-413l128 674h399l-24 -123h-254l-28 -144h240z"/>
<glyph glyph-name="Edieresis" horiz-adv-x="517" unicode="Ë" d="M461 712q-26 0 -45 17.5t-19 45.5q0 32 21.5 52.5t52.5 20.5q28 0 45.5 -18.5t17.5 -45.5q0 -32 -21 -52t-52 -20zM254 712q-26 0 -45 17.5t-19 45.5q0 32 21.5 52.5t52.5 20.5q28 0 45.5 -18.5t17.5 -45.5q0 -32 -21 -52t-52 -20zM480 407l-23 -121h-240l-31 -163h269 l-23 -123h-413l128 674h399l-24 -123h-254l-28 -144h240z"/>
<glyph glyph-name="Igrave" horiz-adv-x="274" unicode="Ì" d="M61 836h158l77 -124h-119zM144 674h144l-128 -674h-144z"/>
<glyph glyph-name="Iacute" horiz-adv-x="274" unicode="Í" d="M244 836h160l-130 -126h-124zM144 674h144l-128 -674h-144z"/>
<glyph glyph-name="Icircumflex" horiz-adv-x="274" unicode="Î" d="M184 836h110l80 -126h-102l-40 61h-2l-58 -61h-111zM144 674h144l-128 -674h-144z"/>
<glyph glyph-name="Idieresis" horiz-adv-x="274" unicode="Ï" d="M328 712q-26 0 -45 17.5t-19 45.5q0 32 21.5 52.5t52.5 20.5q28 0 45.5 -18.5t17.5 -45.5q0 -32 -21 -52t-52 -20zM121 712q-26 0 -45 17.5t-19 45.5q0 32 21.5 52.5t52.5 20.5q28 0 45.5 -18.5t17.5 -45.5q0 -32 -21 -52t-52 -20zM144 674h144l-128 -674h-144z"/>
<glyph glyph-name="Eth" horiz-adv-x="693" unicode="Ð" d="M384 406l-23 -119h-130l-32 -170q21 -4 64 -4q120 0 189 78q71 80 71 200q0 83 -44.5 127.5t-130.5 44.5q-44 0 -64 -5l-30 -152h130zM10 287l23 119h76l49 258q81 14 183 14q169 0 247 -68q91 -73 91 -214q0 -98 -37 -178.5t-102 -131.5q-113 -90 -322 -90 q-111 0 -185 13l54 278h-77z"/>
<glyph glyph-name="Ntilde" horiz-adv-x="666" unicode="Ñ" d="M347 715h-77q11 67 39.5 101t67.5 34q33 0 67 -21q31 -21 43 -21q13 0 21 10t16 36h75q-21 -132 -108 -132q-37 0 -68 20q-30 19 -41 19h-2q-23 0 -33 -46zM153 0h-134l128 674h169l88 -257q37 -112 62 -230h3q5 104 31 242l46 245h134l-127 -674h-149l-94 269 q-44 133 -66 235l-3 -1q-11 -95 -44 -267z"/>
<glyph glyph-name="Ograve" horiz-adv-x="705" unicode="Ò" d="M263 836h158l77 -124h-119zM401 565q-65 0 -116 -51q-39 -39 -61.5 -107t-22.5 -132q0 -75 35.5 -120.5t105.5 -45.5q62 0 113 49q38 38 60 108.5t22 133.5q0 72 -31.5 118.5t-104.5 46.5zM418 685q130 0 201 -78t71 -203q0 -93 -31.5 -177.5t-88.5 -140.5 q-100 -97 -249 -97q-127 0 -200 79.5t-73 201.5q0 92 32.5 177.5t91.5 141.5q101 96 246 96z"/>
<glyph glyph-name="Oacute" horiz-adv-x="705" unicode="Ó" d="M452 839h160l-130 -126h-124zM401 565q-65 0 -116 -51q-39 -39 -61.5 -107t-22.5 -132q0 -75 35.5 -120.5t105.5 -45.5q62 0 113 49q38 38 60 108.5t22 133.5q0 72 -31.5 118.5t-104.5 46.5zM418 685q130 0 201 -78t71 -203q0 -93 -31.5 -177.5t-88.5 -140.5 q-100 -97 -249 -97q-127 0 -200 79.5t-73 201.5q0 92 32.5 177.5t91.5 141.5q101 96 246 96z"/>
<glyph glyph-name="Ocircumflex" horiz-adv-x="705" unicode="Ô" d="M393 836h110l80 -126h-102l-40 61h-2l-58 -61h-111zM401 565q-65 0 -116 -51q-39 -39 -61.5 -107t-22.5 -132q0 -75 35.5 -120.5t105.5 -45.5q62 0 113 49q38 38 60 108.5t22 133.5q0 72 -31.5 118.5t-104.5 46.5zM418 685q130 0 201 -78t71 -203q0 -93 -31.5 -177.5 t-88.5 -140.5q-100 -97 -249 -97q-127 0 -200 79.5t-73 201.5q0 92 32.5 177.5t91.5 141.5q101 96 246 96z"/>
<glyph glyph-name="Otilde" horiz-adv-x="705" unicode="Õ" d="M353 715h-77q11 67 39.5 101t67.5 34q33 0 67 -21q31 -21 43 -21q13 0 21 10t16 36h75q-21 -132 -108 -132q-37 0 -68 20q-30 19 -41 19h-2q-23 0 -33 -46zM401 565q-65 0 -116 -51q-39 -39 -61.5 -107t-22.5 -132q0 -75 35.5 -120.5t105.5 -45.5q62 0 113 49 q38 38 60 108.5t22 133.5q0 72 -31.5 118.5t-104.5 46.5zM418 685q130 0 201 -78t71 -203q0 -93 -31.5 -177.5t-88.5 -140.5q-100 -97 -249 -97q-127 0 -200 79.5t-73 201.5q0 92 32.5 177.5t91.5 141.5q101 96 246 96z"/>
<glyph glyph-name="Odieresis" horiz-adv-x="705" unicode="Ö" d="M541 712q-26 0 -45 17.5t-19 45.5q0 32 21.5 52.5t52.5 20.5q28 0 45.5 -18.5t17.5 -45.5q0 -32 -21 -52t-52 -20zM334 712q-26 0 -45 17.5t-19 45.5q0 32 21.5 52.5t52.5 20.5q28 0 45.5 -18.5t17.5 -45.5q0 -32 -21 -52t-52 -20zM401 565q-65 0 -116 -51 q-39 -39 -61.5 -107t-22.5 -132q0 -75 35.5 -120.5t105.5 -45.5q62 0 113 49q38 38 60 108.5t22 133.5q0 72 -31.5 118.5t-104.5 46.5zM418 685q130 0 201 -78t71 -203q0 -93 -31.5 -177.5t-88.5 -140.5q-100 -97 -249 -97q-127 0 -200 79.5t-73 201.5q0 92 32.5 177.5 t91.5 141.5q101 96 246 96z"/>
<glyph glyph-name="multiply" horiz-adv-x="596" unicode="×" d="M36 459l65 67l192 -199l191 199l65 -66l-193 -197l193 -196l-66 -67l-191 199l-191 -199l-64 67l191 196z"/>
<glyph glyph-name="Oslash" horiz-adv-x="702" unicode="Ø" d="M531 453l-267 -323q28 -22 76 -22q61 0 109.5 44.5t72.5 115.5q20 54 20 113q0 34 -8 72h-3zM207 207l275 333q-29 26 -80 26q-65 0 -116 -48t-76 -121q-17 -53 -17 -106q0 -42 11 -84h3zM101 -66l-68 64l72 87q-59 73 -59 192q0 90 32 171t90 138q101 99 242 99 q97 0 158 -42l74 88l73 -58l-77 -93q50 -67 51 -182q0 -90 -31.5 -171.5t-87.5 -138.5q-101 -99 -243 -99q-90 0 -147 38z"/>
<glyph glyph-name="Ugrave" horiz-adv-x="655" unicode="Ù" d="M252 836h158l77 -124h-119zM144 674h144l-74 -388q-7 -32 -7 -80q0 -42 25.5 -69t72.5 -27q58 0 94.5 41.5t54.5 133.5l74 389h144l-73 -383q-30 -156 -103.5 -229t-208.5 -73h-3q-105 0 -163 55t-58 160q0 41 10 94z"/>
<glyph glyph-name="Uacute" horiz-adv-x="655" unicode="Ú" d="M431 836h160l-130 -126h-124zM144 674h144l-74 -388q-7 -32 -7 -80q0 -42 25.5 -69t72.5 -27q58 0 94.5 41.5t54.5 133.5l74 389h144l-73 -383q-30 -156 -103.5 -229t-208.5 -73h-3q-105 0 -163 55t-58 160q0 41 10 94z"/>
<glyph glyph-name="Ucircumflex" horiz-adv-x="655" unicode="Û" d="M382 836h110l80 -126h-102l-40 61h-2l-58 -61h-111zM144 674h144l-74 -388q-7 -32 -7 -80q0 -42 25.5 -69t72.5 -27q58 0 94.5 41.5t54.5 133.5l74 389h144l-73 -383q-30 -156 -103.5 -229t-208.5 -73h-3q-105 0 -163 55t-58 160q0 41 10 94z"/>
<glyph glyph-name="Udieresis" horiz-adv-x="655" unicode="Ü" d="M522 712q-26 0 -45 17.5t-19 45.5q0 32 21.5 52.5t52.5 20.5q28 0 45.5 -18.5t17.5 -45.5q0 -32 -21 -52t-52 -20zM315 712q-26 0 -45 17.5t-19 45.5q0 32 21.5 52.5t52.5 20.5q28 0 45.5 -18.5t17.5 -45.5q0 -32 -21 -52t-52 -20zM144 674h144l-74 -388q-7 -32 -7 -80 q0 -42 25.5 -69t72.5 -27q58 0 94.5 41.5t54.5 133.5l74 389h144l-73 -383q-30 -156 -103.5 -229t-208.5 -73h-3q-105 0 -163 55t-58 160q0 41 10 94z"/>
<glyph glyph-name="Yacute" horiz-adv-x="570" unicode="Ý" d="M377 836h160l-130 -126h-124zM294 0h-144l52 275l-131 399h154l43 -171q22 -105 26 -122h2q58 105 69 123l101 170h172l-291 -396z"/>
<glyph glyph-name="Thorn" horiz-adv-x="558" unicode="Þ" d="M243 437l-36 -188q23 -5 57 -5q60 0 100.5 32t40.5 83q0 83 -107 83q-37 0 -55 -5zM19 0l128 674h140l-22 -121q30 4 67 4q103 0 158 -48q60 -49 60 -130q0 -124 -85.5 -188t-211.5 -64q-38 0 -68 4l-26 -131h-140z"/>
<glyph glyph-name="germandbls" horiz-adv-x="580" unicode="ß" d="M157 0h-144l85 449q51 272 284 272q82 0 135 -44.5t53 -116.5q0 -63 -42 -102q-69 -34 -69 -81q0 -29 28 -73q44 -68 44 -127q0 -93 -59.5 -140.5t-153.5 -47.5q-70 0 -110 23l33 105q31 -17 73 -17q32 0 51 16t19 44t-27 72q-46 72 -46 117q0 46 28.5 82.5t71.5 59.5 q17 20 17 52q0 27 -17 45t-48 18q-42 0 -74 -37t-46 -114z"/>
<glyph glyph-name="agrave" horiz-adv-x="554" unicode="à" d="M200 700h140l74 -152h-103zM352 274l23 113q-22 4 -39 4q-66 0 -113.5 -66t-47.5 -139q0 -37 15 -59t44 -22q35 0 68 42.5t50 126.5zM466 0h-133q1 26 7 97h-3q-60 -108 -164 -108q-66 0 -107 46.5t-41 123.5q0 51 13 99t41 92t68.5 77.5t99 53t128.5 19.5q86 0 162 -24 l-52 -256q-19 -98 -19 -202v-18z"/>
<glyph glyph-name="aacute" horiz-adv-x="554" unicode="á" d="M391 700h142l-130 -152h-106zM352 274l23 113q-22 4 -39 4q-66 0 -113.5 -66t-47.5 -139q0 -37 15 -59t44 -22q35 0 68 42.5t50 126.5zM466 0h-133q1 26 7 97h-3q-60 -108 -164 -108q-66 0 -107 46.5t-41 123.5q0 51 13 99t41 92t68.5 77.5t99 53t128.5 19.5 q86 0 162 -24l-52 -256q-19 -98 -19 -202v-18z"/>
<glyph glyph-name="acircumflex" horiz-adv-x="554" unicode="â" d="M329 700h99l75 -152h-93l-40 79h-2l-59 -79h-101zM352 274l23 113q-22 4 -39 4q-66 0 -113.5 -66t-47.5 -139q0 -37 15 -59t44 -22q35 0 68 42.5t50 126.5zM466 0h-133q1 26 7 97h-3q-60 -108 -164 -108q-66 0 -107 46.5t-41 123.5q0 51 13 99t41 92t68.5 77.5t99 53 t128.5 19.5q86 0 162 -24l-52 -256q-19 -98 -19 -202v-18z"/>
<glyph glyph-name="atilde" horiz-adv-x="554" unicode="ã" d="M272 558h-77q9 65 36 101t68 36q34 0 67 -22q31 -21 43 -21q13 0 19.5 10t14.5 37h75q-20 -133 -106 -133q-42 0 -70 23q-24 17 -40 17q-21 0 -30 -48zM352 274l23 113q-22 4 -39 4q-66 0 -113.5 -66t-47.5 -139q0 -37 15 -59t44 -22q35 0 68 42.5t50 126.5zM466 0h-133 q1 26 7 97h-3q-60 -108 -164 -108q-66 0 -107 46.5t-41 123.5q0 51 13 99t41 92t68.5 77.5t99 53t128.5 19.5q86 0 162 -24l-52 -256q-19 -98 -19 -202v-18z"/>
<glyph glyph-name="adieresis" horiz-adv-x="554" unicode="ä" d="M448 554q-27 0 -46.5 18t-19.5 48q0 33 22 54t54 21q30 0 47.5 -18.5t17.5 -47.5q0 -34 -21.5 -54.5t-53.5 -20.5zM243 554q-27 0 -46.5 18t-19.5 48q0 33 22 54t54 21q29 0 47 -18.5t18 -47.5q0 -34 -21.5 -54.5t-53.5 -20.5zM352 274l23 113q-22 4 -39 4 q-66 0 -113.5 -66t-47.5 -139q0 -37 15 -59t44 -22q35 0 68 42.5t50 126.5zM466 0h-133q1 26 7 97h-3q-60 -108 -164 -108q-66 0 -107 46.5t-41 123.5q0 51 13 99t41 92t68.5 77.5t99 53t128.5 19.5q86 0 162 -24l-52 -256q-19 -98 -19 -202v-18z"/>
<glyph glyph-name="aring" horiz-adv-x="554" unicode="å" d="M355 685q-21 0 -34.5 -15t-13.5 -38q0 -18 11.5 -31t31.5 -13q22 0 35.5 14.5t13.5 36.5q0 20 -11.5 33t-32.5 13zM361 735q46 0 76.5 -24.5t30.5 -69.5q-1 -48 -36.5 -75.5t-87.5 -27.5q-45 0 -75.5 25.5t-30.5 68.5q0 47 34.5 75t88.5 28zM352 274l23 113q-22 4 -39 4 q-66 0 -113.5 -66t-47.5 -139q0 -37 15 -59t44 -22q35 0 68 42.5t50 126.5zM466 0h-133q1 26 7 97h-3q-60 -108 -164 -108q-66 0 -107 46.5t-41 123.5q0 51 13 99t41 92t68.5 77.5t99 53t128.5 19.5q86 0 162 -24l-52 -256q-19 -98 -19 -202v-18z"/>
<glyph glyph-name="ae" horiz-adv-x="763" unicode="æ" d="M607 351q0 19 -14.5 32t-41.5 13q-43 0 -72.5 -30t-35.5 -63q32 -2 47 -2q117 0 117 50zM296 186l8 44h-5q-24 0 -47.5 -3.5t-48.5 -12t-40 -26t-15 -41.5q0 -22 14.5 -35t39.5 -13q33 0 59.5 23t34.5 64zM677 132l4 -102q-73 -41 -179 -41q-55 0 -98.5 23t-63.5 64h-4 q-67 -87 -182 -87q-67 0 -108.5 38t-41.5 97q0 51 27 91t72 63t97.5 34.5t109.5 11.5h8l2 11q1 2 1 8q0 21 -20 38.5t-60 17.5q-69 0 -137 -43l-22 92q82 52 177 52q112 0 145 -79h2q61 79 173 79q81 0 124 -40t43 -94q0 -47 -20 -79.5t-57.5 -50.5t-83.5 -25.5t-106 -7.5 q-34 0 -52 1q-1 -6 -1 -17q0 -27 9 -42q28 -43 101 -43q69 0 141 30z"/>
<glyph glyph-name="ccedilla" horiz-adv-x="435" unicode="ç" d="M447 484l-35 -111q-29 12 -66 12q-74 0 -120 -53.5t-46 -125.5q0 -48 27 -74.5t69 -26.5q47 0 97 20l1 -110q-38 -18 -98 -24l-25 -35q27 -6 44 -23.5t17 -41.5q0 -50 -38.5 -73.5t-88.5 -23.5t-77 20l24 57q26 -16 54 -16q15 0 26 7.5t11 20.5q0 31 -72 36l47 72 q-77 11 -123 63t-46 136q0 132 90.5 221t228.5 89q57 0 99 -16z"/>
<glyph glyph-name="egrave" horiz-adv-x="501" unicode="è" d="M167 700h140l74 -152h-103zM348 353q0 19 -14.5 30.5t-38.5 11.5q-46 0 -76 -30.5t-39 -70.5h10q81 0 119.5 13.5t38.5 45.5zM412 132l10 -104q-77 -39 -182 -39q-103 0 -157.5 55t-54.5 152q0 76 33.5 144.5t100 114t151.5 45.5q76 0 123 -39.5t47 -106.5 q0 -165 -289 -165h-28q0 -29 15 -50q29 -38 94 -38q73 0 137 31z"/>
<glyph glyph-name="eacute" horiz-adv-x="501" unicode="é" d="M352 700h142l-130 -152h-106zM348 353q0 19 -14.5 30.5t-38.5 11.5q-46 0 -76 -30.5t-39 -70.5h10q81 0 119.5 13.5t38.5 45.5zM412 132l10 -104q-77 -39 -182 -39q-103 0 -157.5 55t-54.5 152q0 76 33.5 144.5t100 114t151.5 45.5q76 0 123 -39.5t47 -106.5 q0 -165 -289 -165h-28q0 -29 15 -50q29 -38 94 -38q73 0 137 31z"/>
<glyph glyph-name="ecircumflex" horiz-adv-x="501" unicode="ê" d="M290 700h99l75 -152h-93l-40 79h-2l-59 -79h-101zM348 353q0 19 -14.5 30.5t-38.5 11.5q-46 0 -76 -30.5t-39 -70.5h10q81 0 119.5 13.5t38.5 45.5zM412 132l10 -104q-77 -39 -182 -39q-103 0 -157.5 55t-54.5 152q0 76 33.5 144.5t100 114t151.5 45.5q76 0 123 -39.5 t47 -106.5q0 -165 -289 -165h-28q0 -29 15 -50q29 -38 94 -38q73 0 137 31z"/>
<glyph glyph-name="edieresis" horiz-adv-x="501" unicode="ë" d="M428 554q-27 0 -46.5 18t-19.5 48q0 33 22 54t54 21q30 0 47.5 -18.5t17.5 -47.5q0 -34 -21.5 -54.5t-53.5 -20.5zM223 554q-27 0 -46.5 18t-19.5 48q0 33 22 54t54 21q29 0 47 -18.5t18 -47.5q0 -34 -21.5 -54.5t-53.5 -20.5zM348 353q0 19 -14.5 30.5t-38.5 11.5 q-46 0 -76 -30.5t-39 -70.5h10q81 0 119.5 13.5t38.5 45.5zM412 132l10 -104q-77 -39 -182 -39q-103 0 -157.5 55t-54.5 152q0 76 33.5 144.5t100 114t151.5 45.5q76 0 123 -39.5t47 -106.5q0 -165 -289 -165h-28q0 -29 15 -50q29 -38 94 -38q73 0 137 31z"/>
<glyph glyph-name="igrave" horiz-adv-x="265" unicode="ì" d="M157 0h-144l93 489h144zM33 700h140l74 -152h-103z"/>
<glyph glyph-name="iacute" horiz-adv-x="265" unicode="í" d="M157 0h-144l93 489h144zM221 700h142l-130 -152h-106z"/>
<glyph glyph-name="icircumflex" horiz-adv-x="265" unicode="î" d="M162 700h99l75 -152h-93l-40 79h-2l-59 -79h-101zM157 0h-144l93 489h144z"/>
<glyph glyph-name="idieresis" horiz-adv-x="265" unicode="ï" d="M157 0h-144l93 489h144zM301 554q-27 0 -46.5 18t-19.5 48q0 33 22 54t54 21q30 0 47.5 -18.5t17.5 -47.5q0 -34 -21.5 -54.5t-53.5 -20.5zM96 554q-27 0 -46.5 18t-19.5 48q0 33 22 54t54 21q29 0 47 -18.5t18 -47.5q0 -34 -21.5 -54.5t-53.5 -20.5z"/>
<glyph glyph-name="eth" horiz-adv-x="558" unicode="ð" d="M150 478l-20 59l121 52q-35 28 -83 49l66 79q73 -27 142 -79l142 58l21 -59l-111 -45q99 -99 99 -263q0 -149 -80 -244.5t-208 -95.5q-100 0 -156.5 57.5t-56.5 148.5q0 113 75 193.5t184 84.5h7q44 0 72 -23l2 3q-22 56 -60 91zM251 99q55 0 87 51t35 120q1 9 1 23 q0 25 -9 43q-19 33 -66 33q-53 0 -88.5 -56t-35.5 -121q0 -41 20 -67t56 -26z"/>
<glyph glyph-name="ntilde" horiz-adv-x="563" unicode="ñ" d="M266 558h-77q9 65 36 101t68 36q34 0 67 -22q31 -21 43 -21q13 0 19.5 10t14.5 37h75q-20 -133 -106 -133q-42 0 -70 23q-24 17 -40 17q-21 0 -30 -48zM157 0h-144l62 330q14 71 26 159h128l-10 -81h2q66 92 172 92q60 0 92.5 -35t32.5 -98q0 -35 -8 -83l-54 -284h-144 l51 271q5 28 5 55q0 58 -48 58q-37 0 -72.5 -45t-49.5 -122z"/>
<glyph glyph-name="ograve" horiz-adv-x="559" unicode="ò" d="M176 700h140l74 -152h-103zM303 391q-56 0 -90 -63.5t-34 -130.5q0 -45 20.5 -71.5t57.5 -26.5q55 0 89 64t34 135q0 39 -18.5 66t-58.5 27zM322 500q95 0 151 -57.5t56 -143.5q0 -135 -82.5 -222.5t-209.5 -87.5q-93 0 -150 55.5t-57 146.5q0 130 82 219.5t210 89.5z "/>
<glyph glyph-name="oacute" horiz-adv-x="559" unicode="ó" d="M359 700h142l-130 -152h-106zM303 391q-56 0 -90 -63.5t-34 -130.5q0 -45 20.5 -71.5t57.5 -26.5q55 0 89 64t34 135q0 39 -18.5 66t-58.5 27zM322 500q95 0 151 -57.5t56 -143.5q0 -135 -82.5 -222.5t-209.5 -87.5q-93 0 -150 55.5t-57 146.5q0 130 82 219.5t210 89.5z "/>
<glyph glyph-name="ocircumflex" horiz-adv-x="559" unicode="ô" d="M305 700h99l75 -152h-93l-40 79h-2l-59 -79h-101zM303 391q-56 0 -90 -63.5t-34 -130.5q0 -45 20.5 -71.5t57.5 -26.5q55 0 89 64t34 135q0 39 -18.5 66t-58.5 27zM322 500q95 0 151 -57.5t56 -143.5q0 -135 -82.5 -222.5t-209.5 -87.5q-93 0 -150 55.5t-57 146.5 q0 130 82 219.5t210 89.5z"/>
<glyph glyph-name="otilde" horiz-adv-x="559" unicode="õ" d="M253 558h-77q9 65 36 101t68 36q34 0 67 -22q31 -21 43 -21q13 0 19.5 10t14.5 37h75q-20 -133 -106 -133q-42 0 -70 23q-24 17 -40 17q-21 0 -30 -48zM303 391q-56 0 -90 -63.5t-34 -130.5q0 -45 20.5 -71.5t57.5 -26.5q55 0 89 64t34 135q0 39 -18.5 66t-58.5 27z M322 500q95 0 151 -57.5t56 -143.5q0 -135 -82.5 -222.5t-209.5 -87.5q-93 0 -150 55.5t-57 146.5q0 130 82 219.5t210 89.5z"/>
<glyph glyph-name="odieresis" horiz-adv-x="559" unicode="ö" d="M440 554q-27 0 -46.5 18t-19.5 48q0 33 22 54t54 21q30 0 47.5 -18.5t17.5 -47.5q0 -34 -21.5 -54.5t-53.5 -20.5zM235 554q-27 0 -46.5 18t-19.5 48q0 33 22 54t54 21q29 0 47 -18.5t18 -47.5q0 -34 -21.5 -54.5t-53.5 -20.5zM303 391q-56 0 -90 -63.5t-34 -130.5 q0 -45 20.5 -71.5t57.5 -26.5q55 0 89 64t34 135q0 39 -18.5 66t-58.5 27zM322 500q95 0 151 -57.5t56 -143.5q0 -135 -82.5 -222.5t-209.5 -87.5q-93 0 -150 55.5t-57 146.5q0 130 82 219.5t210 89.5z"/>
<glyph glyph-name="divide" horiz-adv-x="596" unicode="÷" d="M299 17q-33 0 -53 20.5t-20 53.5t20 53.5t53 20.5t52.5 -20t20.5 -54q0 -33 -20 -53.5t-53 -20.5zM554 221h-511v92h511v-92zM299 369q-33 0 -53 20.5t-20 52.5q0 34 20 54.5t53 20.5t52.5 -20t20.5 -55q0 -32 -20 -52.5t-53 -20.5z"/>
<glyph glyph-name="oslash" horiz-adv-x="560" unicode="ø" d="M375 315l-169 -201q17 -20 52 -20q53 0 88 56.5t36 119.5v8q0 13 -4 37h-3zM183 173l169 204q-19 19 -51 19q-55 0 -89 -60t-36 -118q0 -28 5 -44zM57 -56l-40 41l61 71q-48 51 -48 139q0 127 81.5 216t208.5 89q67 0 113 -28l62 71l44 -39l-60 -69q50 -54 50 -137 q0 -137 -82.5 -223t-200.5 -86q-77 0 -123 31z"/>
<glyph glyph-name="ugrave" horiz-adv-x="560" unicode="ù" d="M178 700h140l74 -152h-103zM400 489h144l-63 -330q-10 -49 -27 -159h-126l9 80h-2q-71 -91 -169 -91q-60 0 -92.5 34.5t-32.5 102.5q0 41 10 90l51 273h144l-49 -262q-7 -38 -7 -64q0 -57 49 -57q38 0 71 42.5t47 114.5z"/>
<glyph glyph-name="uacute" horiz-adv-x="560" unicode="ú" d="M360 700h142l-130 -152h-106zM400 489h144l-63 -330q-10 -49 -27 -159h-126l9 80h-2q-71 -91 -169 -91q-60 0 -92.5 34.5t-32.5 102.5q0 41 10 90l51 273h144l-49 -262q-7 -38 -7 -64q0 -57 49 -57q38 0 71 42.5t47 114.5z"/>
<glyph glyph-name="ucircumflex" horiz-adv-x="560" unicode="û" d="M311 700h99l75 -152h-93l-40 79h-2l-59 -79h-101zM400 489h144l-63 -330q-10 -49 -27 -159h-126l9 80h-2q-71 -91 -169 -91q-60 0 -92.5 34.5t-32.5 102.5q0 41 10 90l51 273h144l-49 -262q-7 -38 -7 -64q0 -57 49 -57q38 0 71 42.5t47 114.5z"/>
<glyph glyph-name="udieresis" horiz-adv-x="560" unicode="ü" d="M441 554q-27 0 -46.5 18t-19.5 48q0 33 22 54t54 21q30 0 47.5 -18.5t17.5 -47.5q0 -34 -21.5 -54.5t-53.5 -20.5zM236 554q-27 0 -46.5 18t-19.5 48q0 33 22 54t54 21q29 0 47 -18.5t18 -47.5q0 -34 -21.5 -54.5t-53.5 -20.5zM400 489h144l-63 -330q-10 -49 -27 -159 h-126l9 80h-2q-71 -91 -169 -91q-60 0 -92.5 34.5t-32.5 102.5q0 41 10 90l51 273h144l-49 -262q-7 -38 -7 -64q0 -57 49 -57q38 0 71 42.5t47 114.5z"/>
<glyph glyph-name="yacute" horiz-adv-x="497" unicode="ý" d="M329 700h142l-130 -152h-106zM43 489h152l30 -213q13 -94 16 -116h2q4 9 11 28.5t15 41t17 44.5l89 215h152l-175 -351q-98 -195 -188 -280q-38 -36 -82 -57t-75 -26l-32 123q49 15 83 39q53 37 79 85q6 8 3 24z"/>
<glyph glyph-name="thorn" horiz-adv-x="564" unicode="þ" d="M196 220l-18 -100q28 -22 66 -22q57 0 97.5 63.5t40.5 140.5q0 34 -15.5 58t-46.5 24q-41 0 -75 -43.5t-49 -120.5zM-26 -198l165 875h143l-47 -248h2q22 31 58 51t81 20q76 0 117.5 -52t41.5 -133q-1 -137 -81.5 -231.5t-202.5 -94.5q-56 0 -92 20h-2l-40 -207h-143z "/>
<glyph glyph-name="OE" horiz-adv-x="914" unicode="Œ" d="M436 119l82 435q-26 10 -68 10q-112 0 -180 -82.5t-68 -192.5q0 -80 42.5 -129.5t128.5 -49.5q33 0 63 9zM852 123l-22 -123h-356q-18 0 -59 -5t-73 -5q-78 0 -136.5 24t-92 65.5t-49.5 91.5t-16 109q0 60 15.5 117.5t49 109.5t80.5 91.5t115.5 62.5t149.5 23q32 0 81 -5 t76 -5h327l-23 -123h-258l-27 -144h243l-23 -122h-243l-30 -162h271z"/>
<glyph glyph-name="oe" horiz-adv-x="826" unicode="œ" d="M673 350q0 45 -58 45q-40 0 -67.5 -30.5t-37.5 -68.5h21q142 0 142 54zM253 100q56 0 89.5 63.5t33.5 131.5q0 98 -74 98q-57 0 -91 -61.5t-34 -131.5q0 -45 20.5 -72.5t55.5 -27.5zM738 132l9 -101q-72 -42 -175 -42q-117 0 -166 86h-2q-62 -86 -176 -86q-88 0 -144 57 t-56 152q0 129 78.5 215.5t191.5 86.5q117 0 160 -87h2q68 87 182 87q79 0 122 -41.5t43 -97.5q0 -170 -292 -170h-20v-7q0 -24 14 -44q30 -38 96 -38q68 0 133 30z"/>
<glyph glyph-name="Scaron" horiz-adv-x="510" unicode="Š" d="M393 710h-109l-80 126h101l39 -64h3l58 64h112zM0 38l48 118q72 -43 159 -43q45 0 76 20.5t31 58.5q0 28 -21 49t-70 46q-64 35 -102 77t-38 102q0 99 76 158.5t190 59.5q99 0 159 -33l-45 -120q-53 30 -122 30h-4q-48 0 -75 -20.5t-27 -50.5q0 -14 6.5 -26t22 -24.5 t29.5 -21t40 -23.5q134 -70 134 -178t-78 -168t-196 -60q-131 3 -193 49z"/>
<glyph glyph-name="scaron" horiz-adv-x="416" unicode="š" d="M314 548h-99l-75 152h93l40 -79h2l59 79h101zM-4 28l35 101q68 -34 128 -34q30 0 46 12.5t16 31.5q0 18 -13.5 32.5t-47.5 30.5q-104 51 -104 130q0 75 60 121.5t155 46.5q83 0 126 -25l-34 -102q-46 22 -98 22q-29 0 -46.5 -12t-17.5 -31q0 -28 60 -56q109 -56 109 -134 q0 -81 -61.5 -127t-159.5 -46h-3q-103 3 -150 39z"/>
<glyph glyph-name="Ydieresis" horiz-adv-x="570" unicode="Ÿ" d="M463 712q-26 0 -45 17.5t-19 45.5q0 32 21.5 52.5t52.5 20.5q28 0 45.5 -18.5t17.5 -45.5q0 -32 -21 -52t-52 -20zM256 712q-26 0 -45 17.5t-19 45.5q0 32 21.5 52.5t52.5 20.5q28 0 45.5 -18.5t17.5 -45.5q0 -32 -21 -52t-52 -20zM294 0h-144l52 275l-131 399h154 l43 -171q22 -105 26 -122h2q58 105 69 123l101 170h172l-291 -396z"/>
<glyph glyph-name="circumflex" horiz-adv-x="395" unicode="ˆ" d="M229 700h99l75 -152h-93l-40 79h-2l-59 -79h-101z"/>
<glyph glyph-name="tilde" horiz-adv-x="395" unicode="˜" d="M192 558h-77q9 65 36 101t68 36q34 0 67 -22q31 -21 43 -21q13 0 19.5 10t14.5 37h75q-20 -133 -106 -133q-42 0 -70 23q-24 17 -40 17q-21 0 -30 -48z"/>
<glyph glyph-name="theta" horiz-adv-x="555" unicode="θ" d="M384 310h-199q-11 -60 -11 -101q0 -56 20 -87t57 -31q93 0 133 219zM204 413h199q8 54 8 90q0 54 -18 85t-53 31q-50 0 -84.5 -57t-51.5 -149zM239 -11q-98 0 -151 62.5t-53 179.5q0 83 21 173q34 139 111.5 228t188.5 89q94 0 144 -64t50 -167q0 -69 -14 -144 q-19 -100 -56.5 -177.5t-100 -128.5t-140.5 -51z"/>
<glyph glyph-name="pi" horiz-adv-x="573" unicode="π" d="M570 378h-61l-41 -220q-18 -99 -18 -151v-7h-138q-4 8 -4 29q0 40 15 120l42 229h-101q-3 -11 -10 -41.5t-11 -47.5q-52 -216 -107 -289h-138q58 97 106 286q10 35 20 92q-56 0 -91 -8l-2 83q38 36 176 36h389z"/>
<glyph glyph-name="chi" horiz-adv-x="471" unicode="χ" d="M39 489h149l34 -135q11 -44 22 -99h4q27 54 49 91q54 96 81 143h143q-24 -37 -103 -157.5t-123 -186.5l102 -341l-139 -29l-37 140q-22 84 -30 122h-5q-5 -9 -54 -97q-49 -86 -98 -165l-118 42q37 56 228 341z"/>
<glyph glyph-name="uni200C" horiz-adv-x="0" unicode="‌" d="M-53 737l-16 17l52 52l-52 52l16 17l53 -53l52 52l16 -16l-52 -52l52 -52l-16 -16l-52 51z"/>
<glyph glyph-name="uni200D" horiz-adv-x="0" unicode="‍" d="M-76 749h-23v69h199v-69h-23v46h-153v-46z"/>
<glyph glyph-name="uni200E" horiz-adv-x="0" unicode="‎" d="M26 737l-16 17l41 41h-126v23h126l-41 40l16 17l69 -69z"/>
<glyph glyph-name="endash" horiz-adv-x="498" unicode="–" d="M39 218l26 113h421l-27 -113h-420z"/>
<glyph glyph-name="emdash" horiz-adv-x="763" unicode="—" d="M39 218l26 113h686l-27 -113h-685z"/>
<glyph glyph-name="quoteleft" horiz-adv-x="294" unicode="‘" d="M90 334q70 152 157 267l114 8q-79 -153 -118 -266z"/>
<glyph glyph-name="quotesinglbase" horiz-adv-x="255" unicode="‚" d="M46 -106l-100 -9q78 158 113 280l150 10q-71 -157 -163 -281z"/>
<glyph glyph-name="quotedblleft" horiz-adv-x="528" unicode="“" d="M313 334q71 155 156 267l115 8q-75 -140 -119 -266zM79 334q72 157 157 267l114 8q-79 -153 -118 -266z"/>
<glyph glyph-name="quotedblright" horiz-adv-x="528" unicode="”" d="M301 334q75 145 117 266l153 9q-71 -157 -156 -267zM67 334q75 145 117 266l154 9q-28 -61 -71 -136.5t-86 -130.5z"/>
<glyph glyph-name="dagger" horiz-adv-x="530" unicode="†" d="M116 -109l108 412l-163 -12l27 119l159 -12l30 192h136l-58 -192l162 12l-27 -119l-158 12l-80 -412h-136z"/>
<glyph glyph-name="daggerdbl" horiz-adv-x="522" unicode="‡" d="M10 62l27 120l155 -13l34 151l-160 -14l27 121l154 -13l31 176h135l-52 -176l161 13l-27 -121l-155 14l-34 -151l161 13l-27 -120l-157 12l-30 -183h-135l51 183z"/>
<glyph glyph-name="ellipsis" horiz-adv-x="1000" unicode="…" d="M793 -10q-36 0 -58.5 23.5t-22.5 59.5q0 42 27.5 72t69.5 30q37 0 60 -23.5t23 -61.5q0 -44 -28 -72t-71 -28zM459 -10q-36 0 -58.5 23.5t-22.5 59.5q0 42 27.5 72t69.5 30q37 0 60 -23.5t23 -61.5q0 -44 -27.5 -72t-71.5 -28zM125 -10q-36 0 -58.5 23.5t-22.5 59.5 q0 42 27.5 72t69.5 30q37 0 60 -23.5t23 -61.5q0 -44 -27.5 -72t-71.5 -28z"/>
<glyph glyph-name="perthousand" horiz-adv-x="1263" unicode="‰" d="M1035 93q28 0 49 24.5t26 59.5q1 6 1 18q0 28 -13.5 43t-37.5 15q-25 0 -46.5 -23.5t-27.5 -62.5q-2 -12 -2 -17q0 -25 13.5 -41t37.5 -16zM1016 -9q-69 0 -104.5 39t-35.5 102q0 18 3 37q15 86 72 136.5t125 50.5t104 -38.5t36 -102.5q0 -23 -4 -43 q-11 -72 -64.5 -126.5t-131.5 -54.5zM661 93q28 0 49 24.5t26 59.5q2 14 2 19q0 27 -14 42t-37 15q-25 0 -46.5 -23.5t-28.5 -62.5q-2 -12 -2 -17q0 -25 13.5 -41t37.5 -16zM642 -9q-68 0 -103.5 38.5t-35.5 100.5q0 20 3 39q14 86 71 136.5t125 50.5t104 -39t36 -104 q0 -20 -3 -41q-11 -72 -65 -126.5t-132 -54.5zM162 -10l454 607h111l-453 -608zM219 338q28 0 49 24.5t26 59.5q1 6 1 18q0 28 -13.5 43t-36.5 15q-25 0 -47 -23t-28 -62q-2 -12 -2 -18q0 -25 13.5 -41t37.5 -16zM200 236q-68 0 -103.5 38.5t-35.5 100.5q0 19 3 39 q14 87 71 137.5t125 50.5t104 -39t36 -104q0 -20 -3 -41q-11 -72 -65 -127t-132 -55z"/>
<glyph glyph-name="guilsinglleft" horiz-adv-x="402" unicode="‹" d="M81 220l21 95l283 179l-31 -134l-154 -98l109 -99l-29 -125z"/>
<glyph glyph-name="guilsinglright" horiz-adv-x="403" unicode="›" d="M39 38l31 133l155 99l-109 99l28 125l200 -182l-23 -95z"/>
<glyph glyph-name="fraction" horiz-adv-x="143" unicode="⁄" d="M-115 -11h-86l491 672h86z"/>
<glyph glyph-name="Euro" d="M568 574l-46 -120q-39 22 -110 22q-102 0 -150 -80h190l-17 -72h-202q-6 -34 -7 -54h198l-17 -72h-174q23 -81 116 -81q61 0 107 18l10 -117q-58 -27 -151 -27q-91 0 -156.5 53t-77.5 154h-72l17 72h53q2 30 7 54h-48l17 72h52q38 94 121.5 149t202.5 55q85 0 137 -26z " unicode="€"/>
<glyph glyph-name="trademark" horiz-adv-x="515" unicode="™" d="M239 348l19 204h101q16 -68 19 -110h1q3 13 31 110h94l3 -204h-63q0 60 3 159h-2q-6 -27 -44 -156h-63q-18 111 -23 155h-2q-7 -105 -12 -158h-62zM93 348l5 142h-57l2 62h181l-2 -62h-57l-5 -142h-67z"/>
<glyph glyph-name="partialdiff" horiz-adv-x="566" unicode="∂" d="M247 100q47 0 81.5 51t49.5 125q-7 25 -30.5 47t-55.5 22q-51 0 -84.5 -47t-33.5 -107q0 -43 20 -67t53 -24zM147 577l-27 99q83 56 189 56q113 0 179.5 -77.5t66.5 -214.5q0 -61 -12 -123t-38 -121.5t-63.5 -105t-93.5 -73.5t-122 -28q-93 0 -145 56.5t-52 144.5 q0 112 73 188.5t180 76.5q47 0 80 -20t47 -45h1q5 27 5 65q-1 74 -36.5 116t-96.5 42q-82 0 -135 -36z"/>
<glyph glyph-name="product" horiz-adv-x="652" unicode="∏" d="M674 528h-74l-120 -618h-136l120 618h-172l-120 -618h-137l121 618h-75l24 122h593z"/>
<glyph glyph-name="summation" horiz-adv-x="561" unicode="∑" d="M469 -90h-494l15 86l254 283l-147 272l17 99h458l-22 -125h-283v-3l132 -240l-217 -243v-4h309z"/>
<glyph glyph-name="minus" horiz-adv-x="596" unicode="−" d="M46 313h511v-92h-511v92z"/>
<glyph glyph-name="radical" horiz-adv-x="568" unicode="√" d="M688 840l-365 -927h-98l-83 419l-78 -31l-17 67l182 73l51 -305q6 -34 10 -82h1q13 40 31 85l269 701h97z"/>
<glyph glyph-name="infinity" horiz-adv-x="752" unicode="∞" d="M195 189q21 0 45.5 14t35.5 24t38 36l-18.5 18.5t-23 22t-21 16.5t-27.5 15t-26 4q-31 0 -52 -22t-21 -53q0 -33 20 -54t50 -21zM553 189q31 0 52 22t21 53q0 33 -20 54t-50 21q-21 0 -45.5 -14t-35.5 -24t-38 -36l18.5 -18.5t23 -22t21 -16.5t27.5 -15t26 -4zM555 97 q-34 0 -70 17.5t-57 35t-53 49.5q-2 -2 -18.5 -17.5t-21 -19t-19.5 -16.5t-22 -16.5t-22 -12t-26.5 -11.5t-26.5 -6t-31 -3q-71 0 -116 47.5t-45 119.5q0 69 47.5 118t121.5 49q34 0 70 -17.5t57 -35t53 -49.5q2 2 18.5 17.5t21 19t19.5 16.5t22 16.5t22 12t26.5 11.5 t26.5 6t31 3q71 0 116 -47.5t45 -119.5q0 -69 -47.5 -118t-121.5 -49z"/>
<glyph glyph-name="approxequal" horiz-adv-x="596" unicode="≈" d="M520 435l56 -59q-27 -43 -69.5 -70.5t-92.5 -27.5q-13 0 -26 2t-22.5 4t-22 7t-18 7.5t-18.5 8.5t-16 8q-3 1 -27.5 12.5t-42.5 16.5t-40 5q-58 0 -111 -64l-51 63q28 41 70.5 67.5t92.5 26.5q20 0 39.5 -4t29.5 -8t30 -13t24 -11q6 -2 22.5 -10t26 -12t26.5 -8t33 -4 q52 0 107 63zM524 223l54 -57q-27 -45 -70.5 -72.5t-93.5 -27.5q-15 0 -29 2t-28 7t-22 8t-23.5 10t-19.5 9q-5 2 -22.5 10.5t-27 12t-27 7.5t-34.5 4q-56 0 -110 -63l-51 64q28 40 71.5 66.5t91.5 26.5q16 0 30.5 -2t28.5 -7t22.5 -8t22.5 -10t19 -9t22 -10t26.5 -12 t26.5 -8t33 -4q62 0 110 63z"/>
<glyph glyph-name="notequal" horiz-adv-x="596" unicode="≠" d="M556 115h-309l-62 -101h-98l65 101h-112v93h172l75 119h-247v93h307l62 102h98l-65 -102h114v-93h-174l-76 -119h250v-93z"/>
<glyph glyph-name="lessequal" horiz-adv-x="596" unicode="≤" d="M538 0h-479v87h479v-87zM538 118l-480 176v91l480 177v-102l-351 -119v-2l351 -120v-101z"/>
<glyph glyph-name="greaterequal" horiz-adv-x="596" unicode="≥" d="M537 0h-479v87h479v-87zM538 294l-480 -176v101l351 120v2l-351 119v102l480 -177v-91z"/>
<glyph glyph-name="lozenge" horiz-adv-x="593" unicode="◊" d="M435 321l-70 226q-6 19 -9 31h-2q-13 -23 -19 -31l-149 -220l70 -226q7 -20 8 -30h3q15 24 19 30zM558 324l-259 -362h-111l-124 362l258 362h112z"/>
</font>
</defs>
</svg>
