<svg width="87" height="65" viewBox="0 0 87 65" fill="none" xmlns="http://www.w3.org/2000/svg">
<path d="M79.1224 48.8604L61.9471 42.1858C61.6617 42.0751 61.3479 42.0619 61.0547 42.1491L53.0394 44.5286C52.5026 44.6878 51.899 44.7687 51.2456 44.7687C48.9682 44.7687 46.5481 43.8087 45.2231 42.3797L6.34333 0.444118C5.99126 0.0644038 5.45926 -0.0877059 4.96188 0.0498636C4.46431 0.18706 4.08355 0.590635 3.97267 1.09804L0.177986 18.4791C-0.440085 21.3105 0.598733 25.0415 2.5629 27.2506L5.25879 63.7058C5.31284 64.4356 5.91647 65 6.6432 65H12.6532C13.42 65 14.0415 64.374 14.0415 63.6019V43.6387C14.0415 42.1903 14.5489 40.8129 15.4587 39.7167L38.5711 62.0029C40.3139 63.6836 43.5694 65 45.9824 65H85.6117C86.3784 65 87 64.374 87 63.6019V60.425C86.9998 55.7362 83.4659 50.5485 79.1224 48.8604ZM11.2651 43.6387V62.2039H7.9321L5.56348 30.175L13.449 37.7788C12.0476 39.3957 11.2651 41.4618 11.2651 43.6387ZM45.9822 62.2039C44.2839 62.2039 41.7179 61.1663 40.4912 59.9834L4.87044 25.6354C3.36904 24.1875 2.44351 21.1239 2.8898 19.0794L6.11713 4.29718L43.1936 44.2878C45.0391 46.2786 48.1998 47.5648 51.2456 47.5648C52.165 47.5648 53.0328 47.4457 53.8246 47.2107L61.3875 44.9656L78.1228 51.469C80.268 52.3026 82.1961 54.3216 83.2869 56.6114H79.7088C78.9421 56.6114 78.3205 57.2374 78.3205 58.0095C78.3205 58.7816 78.9421 59.4076 79.7088 59.4076H84.1514C84.1988 59.7494 84.2236 60.0894 84.2236 60.4248V62.2037H45.9822V62.2039Z" fill="#484D7E"/>
<path d="M74.1555 56.6116H45.9976C45.6466 56.5855 44.5923 56.1592 44.3211 55.9337L8.71102 21.5963C8.15718 21.062 7.2783 21.0814 6.74815 21.6391C6.21782 22.1969 6.23689 23.0818 6.79073 23.6158L42.4175 57.9694C43.1307 58.6493 44.9923 59.402 45.9826 59.4078H74.1555C74.9222 59.4078 75.5438 58.7818 75.5438 58.0097C75.5438 57.2376 74.9222 56.6116 74.1555 56.6116Z" fill="#484D7E"/>
</svg>
