<svg width="70" height="70" viewBox="0 0 70 70" fill="none" xmlns="http://www.w3.org/2000/svg">
<path d="M57.2866 42.0337L59.376 37.8535L59.7459 37.115C61.8692 32.8671 61.8692 27.798 59.7459 23.5502L57.1664 18.3913V0H12.8334V18.3912L10.254 23.5513C8.1306 27.7991 8.1306 32.8682 10.254 37.116L10.6238 37.8546L12.7132 42.0348L10.3333 47.5087C8.147 52.5347 8.147 58.2991 10.3333 63.325L13.2347 69.9994H56.7651L59.6666 63.3238C61.8528 58.2978 61.8528 52.5333 59.6666 47.5074L57.2866 42.0337ZM12.3877 36.1664L12.3399 36.0719C10.5433 32.4786 10.5433 28.1877 12.3399 24.5943L15.1666 18.9419V2.33337H54.833V18.942L57.6587 24.5945C59.4553 28.1878 59.4553 32.4787 57.6587 36.0721L57.6121 36.1665H12.3877V36.1664ZM33.8333 67.6662H14.7654L12.4729 62.3941C10.5444 57.9584 10.5444 52.8729 12.4729 48.4374L14.7654 43.1664H14.8634C23.4442 43.1664 30.982 48.9576 33.1928 57.2491C33.6174 58.8439 33.8333 60.4889 33.8333 62.1398V67.6662ZM14.8634 40.8331H14.7211L13.5545 38.4998H56.4455L55.2789 40.8331H55.1376C46.0143 40.8331 37.9422 46.6606 35.0011 55.1843C32.0588 46.6617 23.9866 40.8331 14.8634 40.8331ZM57.5269 62.3953L55.2344 67.6664H36.1665V62.1387C36.1665 60.4891 36.3824 58.8452 36.8081 57.2493C39.019 48.9579 46.5556 43.1665 55.1375 43.1665H55.2355L57.5268 48.4386C59.4555 52.8742 59.4555 57.9597 57.5269 62.3953Z" fill="#484D7E"/>
<path d="M33.7692 31.3813C33.7692 32.0256 34.2915 32.548 34.9358 32.548C35.5802 32.548 36.1025 32.0256 36.1025 31.3813C36.1025 30.7369 35.5802 30.2146 34.9358 30.2146C34.2915 30.2146 33.7692 30.7369 33.7692 31.3813Z" fill="#484D7E"/>
<path d="M7.00009 33.7149H3.98314L5.49169 32.2063C5.94791 31.7501 5.94791 31.0128 5.49169 30.5567C5.03559 30.1005 4.29814 30.1005 3.84205 30.5567L0.342068 34.0567C-0.114023 34.5129 -0.114023 35.2502 0.342068 35.7063L3.84205 39.2063C4.06955 39.4338 4.36827 39.5481 4.66687 39.5481C4.9656 39.5481 5.26419 39.4338 5.49169 39.2063C5.94791 38.7501 5.94791 38.0128 5.49169 37.5567L3.98314 36.0481H7.00009C7.64404 36.0481 8.16671 35.5267 8.16671 34.8815C8.16671 34.2363 7.64417 33.7149 7.00009 33.7149Z" fill="#484D7E"/>
<path d="M69.6579 34.0567L66.1579 30.5567C65.7017 30.1005 64.9644 30.1005 64.5083 30.5567C64.052 31.0128 64.052 31.7503 64.5083 32.2063L66.0168 33.7149H62.9999C62.3559 33.7149 61.8333 34.2363 61.8333 34.8815C61.8333 35.5267 62.3559 36.0481 62.9999 36.0481H66.0168L64.5083 37.5567C64.052 38.0129 64.052 38.7502 64.5083 39.2063C64.7358 39.4338 65.0345 39.5481 65.3331 39.5481C65.6318 39.5481 65.9304 39.4338 66.1579 39.2063L69.6579 35.7063C70.114 35.2502 70.114 34.5129 69.6579 34.0567Z" fill="#484D7E"/>
</svg>
