<svg width="70" height="70" viewBox="0 0 70 70" fill="none" xmlns="http://www.w3.org/2000/svg">
<path d="M66.6129 38.3871V23.7097C66.6129 21.8423 65.0932 20.3226 63.2258 20.3226H60.9677C60.0973 20.3226 59.3103 20.6624 58.7097 21.2032C58.109 20.6613 57.3221 20.3226 56.4516 20.3226H54.1936C53.3231 20.3226 52.5361 20.6624 51.9355 21.2032C51.3348 20.6613 50.5479 20.3226 49.6774 20.3226H47.4194C45.5519 20.3226 44.0323 21.8423 44.0323 23.7097V38.1974C41.4276 36.3921 37.6261 34.8555 32.06 34.2052L33.8382 21.7565C33.8597 21.6063 33.871 21.4539 33.871 21.3015C33.871 19.5165 32.419 18.0645 30.634 18.0645H20.3226V7.90323C20.3226 7.28113 20.8295 6.77419 21.4516 6.77419H30.4839C32.3513 6.77419 33.871 5.25452 33.871 3.3871C33.871 1.51968 32.3513 0 30.4839 0H20.3226C16.5866 0 13.5484 3.03823 13.5484 6.77419V18.0645H3.23694C1.45194 18.0645 0 19.5165 0 21.3015C0 21.4539 0.0112903 21.6063 0.0327419 21.7598L2.75371 40.8044C0.0699998 44.0006 0 47.1529 0 47.4194C0 49.3884 1.27355 51.0481 3.03371 51.6656C2.54484 52.3871 2.25806 53.2576 2.25806 54.1936C2.25806 55.3971 2.7379 56.4844 3.5079 57.295C1.41919 58.45 0 60.6742 0 63.2258C0 66.9618 3.03823 70 6.77419 70H40.6452H42.9032H70V46.2903V45.1613V41.7742C70 39.9068 68.4803 38.3871 66.6129 38.3871ZM59.8387 23.7097C59.8387 23.0876 60.3456 22.5806 60.9677 22.5806H63.2258C63.8479 22.5806 64.3548 23.0876 64.3548 23.7097V38.3871H59.8387V23.7097ZM53.0645 23.7097C53.0645 23.0876 53.5715 22.5806 54.1936 22.5806H56.4516C57.0737 22.5806 57.5806 23.0876 57.5806 23.7097V38.3871H53.0645V23.7097ZM46.2903 23.7097C46.2903 23.0876 46.7973 22.5806 47.4194 22.5806H49.6774C50.2995 22.5806 50.8064 23.0876 50.8064 23.7097V38.3871H46.2903V23.7097ZM28.2258 2.25806H30.4839C31.106 2.25806 31.6129 2.765 31.6129 3.3871C31.6129 4.00919 31.106 4.51613 30.4839 4.51613H28.2258V2.25806ZM23.7097 2.25806H25.9677V4.51613H23.7097V2.25806ZM15.8065 6.77419C15.8065 4.28355 17.8319 2.25806 20.3226 2.25806H21.4516V4.51613C19.5842 4.51613 18.0645 6.03581 18.0645 7.90323V18.0645H15.8065V6.77419ZM2.43081 22.5806L2.26823 21.4437C2.26145 21.3963 2.25806 21.3489 2.25806 21.3015C2.25806 20.7618 2.69726 20.3226 3.23694 20.3226H13.5484H20.3226H30.634C31.1737 20.3226 31.6129 20.7618 31.6129 21.3015C31.6129 21.3489 31.6095 21.3963 31.6039 21.4403L31.4402 22.5806H28.2258V24.8387H31.1173L30.4726 29.3548H3.39839L2.75371 24.8387H25.9677V22.5806H2.43081ZM30.1508 31.6129L29.8098 34.0019C28.6006 33.9184 27.3271 33.871 25.9677 33.871H23.7097C13.8713 33.871 8.12452 36.1618 4.75661 38.8602L3.72129 31.6129H30.1508ZM2.25806 47.4194C2.25806 47.3064 2.50306 36.129 23.7097 36.129H25.9677C47.0276 36.129 47.4137 46.9655 47.4194 47.4194C47.4194 48.6647 46.4066 49.6774 45.1613 49.6774H44.0323H42.9032H6.77419H4.51613C3.27081 49.6774 2.25806 48.6647 2.25806 47.4194ZM6.77419 56.4516C5.52887 56.4516 4.51613 55.4389 4.51613 54.1936C4.51613 52.9482 5.52887 51.9355 6.77419 51.9355H42.9032C44.1485 51.9355 45.1613 52.9482 45.1613 54.1936C45.1613 55.4389 44.1485 56.4516 42.9032 56.4516H6.77419ZM38.1906 58.7097L33.5582 64.1144L21.2032 58.7097H38.1906ZM42.9032 67.7419H40.6452H6.77419C4.28355 67.7419 2.25806 65.7165 2.25806 63.2258C2.25806 60.7352 4.28355 58.7097 6.77419 58.7097H15.5705L34.1837 66.8534L41.1645 58.7097H42.9032C45.3939 58.7097 47.4194 60.7352 47.4194 63.2258C47.4194 65.7165 45.3939 67.7419 42.9032 67.7419ZM46.1706 57.295C46.9395 56.4844 47.4194 55.3971 47.4194 54.1936C47.4194 53.3671 47.18 52.6027 46.7916 51.9355H63.2258V63.2258H49.6774C49.6774 62.4332 49.5329 61.6756 49.2823 60.9677H56.4516V58.7097H47.9387C47.4329 58.1463 46.8379 57.6642 46.1706 57.295ZM67.7419 45.1613H65.4839V47.4194H67.7419V67.7419H47.9387C48.5247 67.0894 48.9842 66.3261 49.2823 65.4839H65.4839V49.6774H49.0497C49.4381 49.0102 49.6774 48.2458 49.6774 47.4194H63.2258V45.1613H49.2947C48.9277 43.9058 48.2029 42.2766 46.7894 40.6452H66.6129C67.235 40.6452 67.7419 41.151 67.7419 41.7742V45.1613Z" fill="#484D7E"/>
</svg>
