<svg width="65" height="70" viewBox="0 0 65 70" fill="none" xmlns="http://www.w3.org/2000/svg">
<path d="M55.8794 59.0714C56.0301 58.987 56.1736 58.8857 56.3045 58.7627L60.2624 55.0463C61.2725 54.0978 61.9524 52.8232 62.177 51.4574L64.9811 34.4051C65.0488 33.9941 64.9328 33.5765 64.6627 33.2591C64.3927 32.9416 63.9987 32.7596 63.5817 32.7596H46.0534C45.6364 32.7596 45.2424 32.9416 44.9724 33.2591C44.7023 33.5765 44.5865 33.9941 44.6538 34.4051V34.4049L47.4581 51.4574C47.6827 52.8232 48.3626 54.0978 49.3726 55.0463L53.3306 58.7627C53.4615 58.8857 53.6051 58.987 53.7556 59.0714V65.2396C52.2256 65.72 49.6995 66.8403 48.0942 67.5776C48.0508 67.5976 48.0088 67.6204 47.9689 67.6461C47.499 67.9467 47.2875 68.5536 47.4544 69.122C47.6086 69.647 48.0632 69.9998 48.5856 69.9998H61.0496C61.572 69.9998 62.0265 69.6471 62.1807 69.1221C62.3476 68.5538 62.1359 67.9467 61.6662 67.6461C61.6262 67.6204 61.5842 67.5976 61.5409 67.5776C59.9352 66.8401 57.4085 65.7196 55.8785 65.2393C55.8787 65.2394 55.8792 65.2394 55.8794 65.2396V59.0714ZM57.2528 67.9462H52.3821C53.5376 67.4699 54.4787 67.1185 54.8176 67.0641C55.1561 67.1185 56.0974 67.4699 57.2528 67.9462ZM54.8953 57.2668C54.8518 57.3079 54.7834 57.3076 54.7401 57.2668L50.7821 53.5504C50.0994 52.9093 49.6398 52.0477 49.4881 51.1248L48.9774 48.0195H54.3001C54.8681 48.0195 55.3285 47.5598 55.3285 46.9927C55.3285 46.4256 54.8681 45.966 54.3001 45.966H48.6397L46.8057 34.8134H62.8294L60.9953 45.966H59.0853C58.5173 45.966 58.0569 46.4256 58.0569 46.9927C58.0569 47.5598 58.5173 48.0195 59.0853 48.0195H60.6578L60.1471 51.1248C59.9954 52.0479 59.536 52.9093 58.8531 53.5504L54.8953 57.2668Z" fill="#484D7E"/>
<path d="M32.5342 60.7156H7.97946C7.41144 60.7156 6.95105 61.1752 6.95105 61.7423C6.95105 62.3094 7.41144 62.7691 7.97946 62.7691H32.5342C33.1022 62.7691 33.5626 62.3094 33.5626 61.7423C33.5626 61.1752 33.1022 60.7156 32.5342 60.7156Z" fill="#484D7E"/>
<path d="M32.0772 33.249H8.43641C7.14877 33.249 6.10132 34.2948 6.10132 35.5802V55.4707C6.10132 56.7561 7.14877 57.8019 8.43641 57.8019H32.0772C33.3648 57.8019 34.4123 56.7561 34.4123 55.4707V35.5802C34.4123 34.2948 33.3648 33.249 32.0772 33.249ZM32.3553 55.4707C32.3553 55.6238 32.2306 55.7482 32.0772 55.7482H8.43641C8.28304 55.7482 8.15828 55.6238 8.15828 55.4707V35.5802C8.15828 35.4271 8.28304 35.3027 8.43641 35.3027H32.0772C32.2306 35.3027 32.3553 35.4271 32.3553 35.5802V55.4707Z" fill="#484D7E"/>
<path d="M29.2995 36.926H11.2141C10.4256 36.926 9.78418 37.5664 9.78418 38.3535V52.6975C9.78418 53.4847 10.4256 54.1251 11.2141 54.1251H29.2995C30.088 54.1251 30.7295 53.4847 30.7295 52.6975V38.3535C30.7295 37.5664 30.088 36.926 29.2995 36.926ZM28.6725 52.0714H11.8411V38.9797H28.6725V52.0714Z" fill="#484D7E"/>
<path d="M34.9328 22.0753L30.9591 21.117C29.2565 20.7063 27.9248 19.5036 27.3153 17.9551C27.3023 17.9116 27.2864 17.8697 27.268 17.8289C27.0634 17.267 26.9523 16.6626 26.9523 16.0353V10.325C27.8702 10.1046 28.5553 9.28018 28.5553 8.29704V2.08769C28.5553 0.936522 27.6172 0 26.4642 0H14.0497C12.8967 0 11.9586 0.936522 11.9586 2.08769V8.29704C11.9586 9.28004 12.6436 10.1045 13.5615 10.325V16.0354C13.5615 16.6631 13.45 17.2681 13.2452 17.8303C13.2272 17.8703 13.2116 17.9115 13.1989 17.9541C12.5895 19.503 11.2576 20.7064 9.55467 21.1171L5.58096 22.0754C2.29497 22.8675 0 25.7781 0 29.153V32.8376C0 33.4047 0.46039 33.8644 1.02841 33.8644C1.59644 33.8644 2.05683 33.4047 2.05683 32.8376V29.153C2.05683 26.73 3.70448 24.6404 6.06367 24.0715L10.0374 23.1132C12.197 22.5925 13.9284 21.1565 14.8617 19.2754H25.6519C26.5853 21.1566 28.3166 22.5925 30.4764 23.1132L34.4501 24.0715C36.8093 24.6404 38.4569 26.73 38.4569 29.153V65.3156C38.4569 66.7661 37.2749 67.9464 35.8219 67.9464H4.69181C3.23889 67.9464 2.05683 66.7662 2.05683 65.3156V37.6658C2.05683 37.0987 1.59644 36.6391 1.02841 36.6391C0.46039 36.6391 0 37.0987 0 37.6658V65.3156C0 67.8986 2.10476 70 4.69195 70H35.8221C38.4093 70 40.514 67.8986 40.514 65.3156V29.1529C40.5138 25.778 38.2189 22.8674 34.9328 22.0753ZM15.5214 17.2216C15.5847 16.8346 15.6183 16.4383 15.6183 16.0353V14.7333H24.8954V16.0353C24.8954 16.4383 24.9291 16.8346 24.9924 17.2216H15.5214ZM15.6182 12.6797V10.3847H24.8953V12.6797H15.6182ZM26.4983 8.29704C26.4983 8.3159 26.4831 8.33108 26.4642 8.33108H14.0497C14.0308 8.33108 14.0156 8.3159 14.0156 8.29704V2.08769C14.0156 2.06882 14.0308 2.05365 14.0497 2.05365H26.4642C26.4831 2.05365 26.4983 2.06882 26.4983 2.08769V8.29704Z" fill="#484D7E"/>
</svg>
