<svg width="145" height="144" viewBox="0 0 145 144" fill="none" xmlns="http://www.w3.org/2000/svg">
<path fill-rule="evenodd" clip-rule="evenodd" d="M143.342 76.3735C145.843 73.4171 145.472 68.9949 142.518 66.4962L142.493 66.4715C139.741 64.2042 139.168 60.2124 141.174 57.2634C141.398 56.9276 141.592 56.5718 141.754 56.2034C143.307 52.667 141.699 48.5407 138.163 46.9854C135.617 45.8653 133.975 43.3445 133.982 40.5646C133.984 39.865 134.084 39.1709 134.281 38.4989C134.408 38.0984 134.497 37.6903 134.549 37.2746C135.03 33.457 132.325 29.973 128.507 29.4901H128.482C124.99 29.0421 122.378 26.0656 122.385 22.5468V22.4474V22.3554C122.41 18.4978 119.299 15.3523 115.442 15.3299C115.058 15.3373 114.675 15.3721 114.297 15.4293C113.926 15.4865 113.553 15.5213 113.177 15.5287C110.034 15.5162 107.284 13.4109 106.458 10.3772C106.348 9.98639 106.209 9.60831 106.035 9.24241C104.382 5.75588 100.214 4.26764 96.7272 5.92269L96.7022 5.94761C95.7665 6.38573 94.7487 6.61456 93.7158 6.61965C91.2919 6.62475 89.0396 5.3727 87.768 3.30984C86.4964 1.24698 84.2441 -0.00506745 81.8201 3.02313e-05C80.1005 -0.00506745 78.4381 0.634692 77.1665 1.79187C74.516 4.18353 70.4846 4.18353 67.8341 1.79187C66.5622 0.634692 64.8998 -0.00506745 63.1802 3.02313e-05C60.7562 -0.00506745 58.5039 1.2467 57.2323 3.30984C55.3609 6.33872 51.5133 7.47352 48.298 5.94789V5.92297C47.3672 5.47494 46.3445 5.24356 45.3117 5.25093C42.161 5.24838 39.3935 7.34381 38.5425 10.3775C37.7212 13.4137 34.9687 15.5264 31.8232 15.529C31.4474 15.5216 31.0741 15.4868 30.7034 15.4296C30.3301 15.3698 29.9492 15.3401 29.5686 15.3401C25.7213 15.35 22.608 18.4757 22.6154 22.3233V22.5972C22.6054 26.1013 19.9949 29.0526 16.5182 29.4907C13.0218 29.9186 10.3962 32.8877 10.3962 36.4091C10.3937 37.1182 10.503 37.8251 10.7196 38.4994C10.936 39.1737 11.0456 39.8806 11.043 40.5898C11.028 43.3646 9.38064 45.8707 6.83718 46.9857C6.46136 47.1499 6.09801 47.3467 5.75703 47.5756C2.55427 49.7109 1.6905 54.0363 3.82586 57.2391V57.264C5.81679 60.2156 5.24698 64.1974 2.50698 66.4721L2.48205 66.497C2.18582 66.7485 1.9097 67.0246 1.65821 67.3209C-0.842767 70.2772 -0.472052 74.6995 2.48205 77.1982H2.50726C5.25973 79.4752 5.83208 83.4746 3.82614 86.431C3.60241 86.7668 3.40813 87.1225 3.24642 87.491C1.69333 91.0274 3.30108 95.1537 6.83746 96.709C10.0949 98.1324 11.7649 101.773 10.7196 105.17V105.195C10.6001 105.584 10.5132 105.984 10.4608 106.387C9.97565 110.205 12.6757 113.694 16.4933 114.179H16.5182C20.0521 114.624 22.6825 117.66 22.6154 121.222V121.247V121.336C22.6054 125.196 25.7261 128.329 29.5836 128.339C29.9594 128.332 30.3327 128.297 30.7034 128.24C31.0741 128.182 31.4474 128.147 31.8232 128.14C34.9662 128.152 37.7164 130.258 38.5425 133.291C38.6521 133.697 38.7991 134.09 38.9806 134.468C40.6405 137.94 44.8016 139.406 48.2731 137.746H48.298C51.5059 136.198 55.3634 137.328 57.2323 140.359V140.384C57.4464 140.727 57.6902 141.051 57.9616 141.352C60.5424 144.224 64.9621 144.458 67.8341 141.877C70.4993 139.52 74.5013 139.52 77.1665 141.877C77.4701 142.151 77.7986 142.4 78.147 142.616C81.4219 144.657 85.7272 143.656 87.768 140.384V140.359C89.0348 138.301 91.2769 137.049 93.6909 137.049C94.7337 137.049 95.764 137.288 96.7022 137.746C97.643 138.194 98.6708 138.425 99.7136 138.418C102.862 138.428 105.627 136.328 106.458 133.291C107.289 130.255 110.054 128.155 113.202 128.165C113.568 128.165 113.934 128.19 114.297 128.24C114.705 128.307 115.12 128.336 115.534 128.329C119.381 128.265 122.45 125.094 122.385 121.246V121.222C122.318 117.66 124.948 114.624 128.482 114.179H128.507C128.91 114.129 129.311 114.042 129.699 113.92C133.372 112.775 135.425 108.868 134.281 105.195V105.17C134.082 104.5 133.982 103.803 133.982 103.104C133.985 100.332 135.625 97.8231 138.163 96.7082C138.534 96.5465 138.887 96.3525 139.223 96.1284C142.438 93.9905 143.314 89.6479 141.174 86.4301C139.186 83.4686 139.756 79.4845 142.493 77.1974H142.518C142.814 76.9459 143.09 76.6697 143.342 76.3735Z" fill="#484D7E"/>
</svg>
