<?xml version="1.0" encoding="UTF-8"?>
<svg width="102px" height="102px" viewBox="0 0 102 102" version="1.1" xmlns="http://www.w3.org/2000/svg" xmlns:xlink="http://www.w3.org/1999/xlink">
    <!-- Generator: Sketch 54.1 (76490) - https://sketchapp.com -->
    <title>a14-2</title>
    <desc>Created with Sketch.</desc>
    <defs>
        <linearGradient x1="76.260693%" y1="11.2327284%" x2="22.3691856%" y2="89.6824494%" id="linearGradient-1">
            <stop stop-color="#FAE857" offset="0%"></stop>
            <stop stop-color="#F2CD2C" offset="100%"></stop>
        </linearGradient>
    </defs>
    <g id="Design" stroke="none" stroke-width="1" fill="none" fill-rule="evenodd">
        <g id="cpa-97_design" transform="translate(-576.000000, -8468.000000)">
            <g id="✅-art14" transform="translate(0.000000, 8169.000000)">
                <g id="content" transform="translate(160.000000, 267.000000)">
                    <g id="2" transform="translate(384.000000, 0.000000)">
                        <g id="Group-11" transform="translate(32.000000, 32.000000)">
                            <g id="a14-2">
                                <circle id="Oval" fill="url(#linearGradient-1)" cx="51" cy="51" r="51"></circle>
                                <g id="flaticon1556774400-svg" transform="translate(33.118321, 19.000000)" fill="#000000" fill-rule="nonzero">
                                    <path d="M34.5167836,0.474375 C34.2476219,0.1725 33.8679622,0 33.4656363,0 L2.29954236,0 C1.9000497,0 1.51755673,0.1725 1.24839501,0.474375 C0.982066571,0.773375 0.848902352,1.175875 0.88856829,1.58125 L5.13849019,44.70625 C5.2121555,45.44225 5.82131097,46 6.54946426,46 L29.2157144,46 C29.9438677,46 30.5530231,45.44225 30.6238552,44.70625 L34.8737771,1.58125 C34.9162763,1.175875 34.7859453,0.773375 34.5167836,0.474375 Z M30.7456862,14.59925 C27.1445858,15.780875 22.4583386,16.327125 18.7807395,13.26525 C14.1709909,9.427125 8.52142801,10.088375 4.69083175,11.244125 L3.8663469,2.875 L31.8988317,2.875 L30.7456862,14.59925 Z" id="Shape"></path>
                                </g>
                                <path d="M39.072,78.904 C39.8186704,79.2666685 40.192,79.8746624 40.192,80.728 C40.192,81.4000034 39.9600023,81.9466646 39.496,82.368 C39.0319977,82.7893354 38.3733376,83 37.52,83 L33.312,83 L33.312,75 L37.2,75 C38.0426709,75 38.6959977,75.2079979 39.16,75.624 C39.6240023,76.0400021 39.856,76.5839966 39.856,77.256 C39.856,77.9600035 39.5946693,78.5093314 39.072,78.904 Z M37.008,76.696 L35.248,76.696 L35.248,78.136 L37.008,78.136 C37.5946696,78.136 37.888,77.8960024 37.888,77.416 C37.888,76.9359976 37.5946696,76.696 37.008,76.696 Z M37.28,81.256 C37.8773363,81.256 38.176,81.0000026 38.176,80.488 C38.176,80.2639989 38.0960008,80.0880006 37.936,79.96 C37.7759992,79.8319994 37.5573347,79.768 37.28,79.768 L35.248,79.768 L35.248,81.256 L37.28,81.256 Z M48.304,82.008 C47.4826626,82.8186707 46.4800059,83.224 45.296,83.224 C44.1119941,83.224 43.1120041,82.8160041 42.296,82 C41.4799959,81.1839959 41.072,80.1840059 41.072,79 C41.072,77.8159941 41.4799959,76.8160041 42.296,76 C43.1120041,75.1839959 44.1119941,74.776 45.296,74.776 C46.4800059,74.776 47.4826626,75.1839959 48.304,76 C49.1253374,76.8160041 49.536,77.8159941 49.536,79 C49.536,80.1840059 49.1253374,81.1866626 48.304,82.008 Z M43.744,80.584 C44.1600021,81.0000021 44.6773302,81.208 45.296,81.208 C45.9146698,81.208 46.4319979,81.0000021 46.848,80.584 C47.2640021,80.1679979 47.472,79.6400032 47.472,79 C47.472,78.3599968 47.2640021,77.8320021 46.848,77.416 C46.4319979,76.9999979 45.9146698,76.792 45.296,76.792 C44.6773302,76.792 44.1626687,76.9999979 43.752,77.416 C43.3413313,77.8320021 43.136,78.3599968 43.136,79 C43.136,79.6400032 43.3386646,80.1679979 43.744,80.584 Z M58.192,81.064 L59.248,81.064 L59.248,85.144 L57.232,85.144 L57.232,83 L52.272,83 L52.272,85.144 L50.256,85.144 L50.256,81.064 L51.232,81.064 C51.690669,80.3813299 51.92,79.4373394 51.92,78.232 L51.92,75 L58.192,75 L58.192,81.064 Z M53.44,81.064 L56.176,81.064 L56.176,76.856 L53.936,76.856 L53.936,78.232 C53.936,79.3626723 53.7706683,80.3066629 53.44,81.064 Z M66.64,75 L68.704,75 L68.704,83 L66.64,83 L66.64,82.056 C66.0213302,82.8346706 65.1520056,83.224 64.032,83.224 C62.965328,83.224 62.0506705,82.8160041 61.288,82 C60.5253295,81.1839959 60.144,80.1840059 60.144,79 C60.144,77.8159941 60.5253295,76.8160041 61.288,76 C62.0506705,75.1839959 62.965328,74.776 64.032,74.776 C65.1520056,74.776 66.0213302,75.1653294 66.64,75.944 L66.64,75 Z M62.832,80.632 C63.2480021,81.0480021 63.7759968,81.256 64.416,81.256 C65.0560032,81.256 65.5866646,81.0453354 66.008,80.624 C66.4293354,80.2026646 66.64,79.6613366 66.64,79 C66.64,78.3386634 66.4293354,77.7973354 66.008,77.376 C65.5866646,76.9546646 65.0560032,76.744 64.416,76.744 C63.7759968,76.744 63.2480021,76.9546646 62.832,77.376 C62.4159979,77.7973354 62.208,78.3386634 62.208,79 C62.208,79.6613366 62.4159979,80.2053312 62.832,80.632 Z" id="вода" fill="#000000" fill-rule="nonzero"></path>
                            </g>
                        </g>
                    </g>
                </g>
            </g>
        </g>
    </g>
</svg>