<?xml version="1.0" encoding="UTF-8"?>
<svg width="102px" height="102px" viewBox="0 0 102 102" version="1.1" xmlns="http://www.w3.org/2000/svg" xmlns:xlink="http://www.w3.org/1999/xlink">
    <!-- Generator: Sketch 54.1 (76490) - https://sketchapp.com -->
    <title>a16-3</title>
    <desc>Created with Sketch.</desc>
    <g id="Design" stroke="none" stroke-width="1" fill="none" fill-rule="evenodd">
        <g id="cpa-97_design" transform="translate(-813.000000, -9371.000000)">
            <g id="✅-art16" transform="translate(0.000000, 9064.000000)">
                <g id="content" transform="translate(160.000000, 267.000000)">
                    <g id="3" transform="translate(576.000000, 0.000000)">
                        <g id="a16-3" transform="translate(77.000000, 40.000000)">
                            <circle id="Oval" fill="#DAF7FF" cx="51" cy="51" r="51"></circle>
                            <g id="delivery" transform="translate(30.000000, 20.000000)" fill="#000000" fill-rule="nonzero">
                                <path d="M41.7596484,22.4781818 L38.4129375,19.1070248 C38.4129375,19.1070248 38.4129375,19.1070248 38.4129375,19.1069421 L38.4128555,19.1068595 L34.4587852,15.1239669 C34.3049766,14.9690083 34.0963711,14.8819835 33.8788242,14.8819835 L29.53125,14.8819835 L29.53125,10.5956198 C29.53125,8.9631405 28.2130078,7.63495868 26.5925625,7.63495868 L24.7734375,7.63495868 L24.7734375,0.829008264 C24.7734375,0.372561983 24.4061836,0.00256198347 23.953125,0.00256198347 L5.578125,0.00256198347 C5.12506641,0.00256198347 4.7578125,0.372561983 4.7578125,0.829008264 L4.7578125,7.63504132 L2.9386875,7.63504132 C1.31824219,7.63504132 0,8.9631405 0,10.5957025 L0,35.2040496 C0,35.6604959 0.367253906,36.0304959 0.8203125,36.0304959 L4.45667578,36.0304959 C4.45429687,36.0853719 4.45249219,36.1403306 4.45249219,36.1957851 C4.45249219,36.9927273 4.69760156,37.7328099 5.11530469,38.3445455 L0.8203125,38.3445455 C0.367253906,38.3445455 0,38.7145455 0,39.1709917 C0,39.627438 0.367253906,39.997438 0.8203125,39.997438 L13.6981523,39.997438 C14.1512109,39.997438 14.5184648,39.627438 14.5184648,39.1709917 C14.5184648,38.7145455 14.1512109,38.3445455 13.6981523,38.3445455 L11.3365547,38.3445455 C11.7541758,37.7328099 11.9993672,36.9927273 11.9993672,36.1957851 C11.9993672,34.0995868 10.3065703,32.3941322 8.22592969,32.3941322 C6.79858594,32.3941322 5.55392578,33.1968595 4.91293359,34.3776033 L1.640625,34.3776033 L1.640625,31.567686 L40.359375,31.567686 L40.359375,34.3776033 L35.4692461,34.3776033 C34.8282539,33.1968595 33.5835937,32.3941322 32.15625,32.3941322 C30.7244766,32.3941322 29.4765352,33.2017355 28.8372656,34.3884298 C28.7959219,34.3819835 28.7539219,34.3776033 28.7108555,34.3776033 L15.2304961,34.3776033 C14.7774375,34.3776033 14.4101836,34.7476033 14.4101836,35.2040496 C14.4101836,35.6604959 14.7774375,36.0304959 15.2304961,36.0304959 L28.3869961,36.0304959 C28.3846172,36.0853719 28.3828125,36.1403306 28.3828125,36.1957851 C28.3828125,36.9927273 28.6279219,37.7328099 29.045543,38.3445455 L23.8048125,38.3445455 C23.3517539,38.3445455 22.9845,38.7145455 22.9845,39.1709917 C22.9845,39.627438 23.3517539,39.997438 23.8048125,39.997438 L32.1546094,39.997438 C32.1551836,39.997438 32.1556758,39.997438 32.156168,39.997438 C32.1566602,39.997438 32.1572344,39.997438 32.1577266,39.997438 L37.6523438,39.997438 C38.1054023,39.997438 38.4726562,39.627438 38.4726562,39.1709917 C38.4726562,38.7145455 38.1054023,38.3445455 37.6523438,38.3445455 L35.266957,38.3445455 C35.6845781,37.7328099 35.9296875,36.9927273 35.9296875,36.1957851 C35.9296875,36.1403306 35.9278828,36.0853719 35.9255039,36.0304959 L41.1796875,36.0304959 C41.6327461,36.0304959 42,35.6604959 42,35.2040496 L42,23.0626446 C42,22.8434711 41.9135391,22.6332231 41.7596484,22.4781818 Z M8.22592969,34.0470248 C9.40192969,34.0470248 10.3587422,35.0109917 10.3587422,36.1957851 C10.3587422,37.3805785 9.40192969,38.3445455 8.22592969,38.3445455 C7.04992969,38.3445455 6.09311719,37.3805785 6.09311719,36.1957851 C6.09311719,35.0109917 7.04984766,34.0470248 8.22592969,34.0470248 Z M6.3984375,1.65545455 L23.1328125,1.65545455 L23.1328125,18.5149587 C23.1328125,19.5175207 22.3232461,20.3331405 21.328125,20.3331405 L8.203125,20.3331405 C7.20800391,20.3331405 6.3984375,19.5175207 6.3984375,18.5149587 L6.3984375,1.65545455 Z M27.890625,29.848595 L1.640625,29.848595 L1.640625,10.5957025 C1.640625,9.8746281 2.22296484,9.28793388 2.9386875,9.28793388 L4.7578125,9.28793388 L4.7578125,18.5149587 C4.7578125,20.4289256 6.30336328,21.9860331 8.203125,21.9860331 L21.328125,21.9860331 C23.2278867,21.9860331 24.7734375,20.4289256 24.7734375,18.5149587 L24.7734375,9.28793388 L26.5925625,9.28793388 C27.3082852,9.28793388 27.890625,9.8746281 27.890625,10.5957025 L27.890625,29.848595 Z M32.1578086,38.3444628 L32.1546914,38.3444628 C30.9793477,38.3436364 30.0234375,37.38 30.0234375,36.1957025 C30.0234375,35.0109091 30.98025,34.0469421 32.15625,34.0469421 C33.33225,34.0469421 34.2890625,35.0109091 34.2890625,36.1957025 C34.2890625,37.38 33.3331523,38.3435537 32.1578086,38.3444628 Z M33.5118984,16.534876 L33.5390508,16.534876 L36.6726445,19.691405 L33.6095977,22.7773554 C33.5475,22.6080165 33.5118984,22.4258678 33.5118984,22.2350413 L33.5118984,16.534876 Z M40.359375,29.848595 L29.53125,29.848595 L29.53125,16.5349587 L31.8712734,16.5349587 L31.8712734,22.235124 C31.8712734,24.0135537 33.3073125,25.4603306 35.072543,25.4603306 L40.359375,25.4603306 L40.359375,29.848595 Z M40.359375,23.807438 L35.072543,23.807438 C35.0195508,23.807438 34.9671328,23.8046281 34.9154531,23.7994215 L37.8328945,20.8601653 L40.359375,23.4050413 L40.359375,23.807438 Z" id="Shape"></path>
                                <path d="M21.0200977,38.3445455 L21.0094336,38.3445455 C20.556375,38.3445455 20.1891211,38.7145455 20.1891211,39.1709917 C20.1891211,39.627438 20.556375,39.997438 21.0094336,39.997438 L21.0200977,39.997438 C21.4731563,39.997438 21.8404102,39.627438 21.8404102,39.1709917 C21.8404102,38.7145455 21.4731562,38.3445455 21.0200977,38.3445455 Z" id="Path"></path>
                                <path d="M18.703125,4.01867769 C18.2500664,4.01867769 17.8828125,4.38867769 17.8828125,4.84512397 L17.8828125,7.60586777 C17.8828125,9.33752066 16.4844258,10.7463636 14.765625,10.7463636 C13.0468242,10.7463636 11.6484375,9.33752066 11.6484375,7.60586777 L11.6484375,4.84512397 C11.6484375,4.38867769 11.2811836,4.01867769 10.828125,4.01867769 C10.3750664,4.01867769 10.0078125,4.38867769 10.0078125,4.84512397 L10.0078125,7.60586777 C10.0078125,10.2490083 12.1421836,12.3992562 14.765625,12.3992562 C17.3890664,12.3992562 19.5234375,10.2489256 19.5234375,7.60586777 L19.5234375,4.84512397 C19.5234375,4.38867769 19.1561836,4.01867769 18.703125,4.01867769 Z" id="Path"></path>
                                <path d="M20.0743594,24.2975207 L10.3359375,24.2975207 C9.88287891,24.2975207 9.515625,24.6675207 9.515625,25.1239669 C9.515625,25.5804132 9.88287891,25.9504132 10.3359375,25.9504132 L20.0743594,25.9504132 C20.527418,25.9504132 20.8946719,25.5804132 20.8946719,25.1239669 C20.8946719,24.6675207 20.527418,24.2975207 20.0743594,24.2975207 Z" id="Path"></path>
                                <path d="M7.783125,24.5396694 C7.63054687,24.3859504 7.41890625,24.2975207 7.20316406,24.2975207 C6.98742187,24.2975207 6.77578125,24.3859504 6.62320313,24.5396694 C6.46980469,24.6933884 6.38285156,24.9066116 6.38285156,25.1239669 C6.38285156,25.3413223 6.46980469,25.5545455 6.62320313,25.7082645 C6.77578125,25.8619835 6.98660156,25.9504132 7.20316406,25.9504132 C7.41890625,25.9504132 7.63054687,25.8619835 7.783125,25.7082645 C7.93570312,25.5545455 8.02347656,25.3413223 8.02347656,25.1239669 C8.02347656,24.9066116 7.93570312,24.6933884 7.783125,24.5396694 Z" id="Path"></path>
                            </g>
                            <path d="M22.96,79.888 L24.16,79.888 L24.16,84.144 L21.952,84.144 L21.952,82 L15.76,82 L15.76,84.144 L13.552,84.144 L13.552,79.888 L14.64,79.888 C15.2586698,79.0239957 15.568,77.7600083 15.568,76.096 L15.568,70.8 L22.96,70.8 L22.96,79.888 Z M17.008,79.888 L20.752,79.888 L20.752,72.864 L17.776,72.864 L17.776,76.128 C17.776,77.7493414 17.5200026,79.0026622 17.008,79.888 Z M32.352,81.008 C31.5306626,81.8186707 30.5280059,82.224 29.344,82.224 C28.1599941,82.224 27.1600041,81.8160041 26.344,81 C25.5279959,80.1839959 25.12,79.1840059 25.12,78 C25.12,76.8159941 25.5279959,75.8160041 26.344,75 C27.1600041,74.1839959 28.1599941,73.776 29.344,73.776 C30.5280059,73.776 31.5306626,74.1839959 32.352,75 C33.1733374,75.8160041 33.584,76.8159941 33.584,78 C33.584,79.1840059 33.1733374,80.1866626 32.352,81.008 Z M27.792,79.584 C28.2080021,80.0000021 28.7253302,80.208 29.344,80.208 C29.9626698,80.208 30.4799979,80.0000021 30.896,79.584 C31.3120021,79.1679979 31.52,78.6400032 31.52,78 C31.52,77.3599968 31.3120021,76.8320021 30.896,76.416 C30.4799979,75.9999979 29.9626698,75.792 29.344,75.792 C28.7253302,75.792 28.2106687,75.9999979 27.8,76.416 C27.3893313,76.8320021 27.184,77.3599968 27.184,78 C27.184,78.6400032 27.3866646,79.1679979 27.792,79.584 Z M38.848,82.224 C37.6426606,82.224 36.6373374,81.8186707 35.832,81.008 C35.0266626,80.1973293 34.624,79.1946726 34.624,78 C34.624,76.8053274 35.0266626,75.8026707 35.832,74.992 C36.6373374,74.1813293 37.6426606,73.776 38.848,73.776 C39.6266706,73.776 40.3359968,73.9626648 40.976,74.336 C41.6160032,74.7093352 42.1013317,75.2106635 42.432,75.84 L40.656,76.88 C40.4959992,76.5493317 40.253335,76.288001 39.928,76.096 C39.602665,75.903999 39.2373354,75.808 38.832,75.808 C38.2133302,75.808 37.7013354,76.0133313 37.296,76.424 C36.8906646,76.8346687 36.688,77.3599968 36.688,78 C36.688,78.6293365 36.8906646,79.1493313 37.296,79.56 C37.7013354,79.9706687 38.2133302,80.176 38.832,80.176 C39.2480021,80.176 39.618665,80.0826676 39.944,79.896 C40.269335,79.7093324 40.5119992,79.4506683 40.672,79.12 L42.464,80.144 C42.1119982,80.7733365 41.6160032,81.2773314 40.976,81.656 C40.3359968,82.0346686 39.6266706,82.224 38.848,82.224 Z M49.92,74 L49.92,75.984 L47.424,75.984 L47.424,82 L45.36,82 L45.36,75.984 L42.832,75.984 L42.832,74 L49.92,74 Z M57.104,74 L59.168,74 L59.168,82 L57.104,82 L57.104,81.056 C56.4853302,81.8346706 55.6160056,82.224 54.496,82.224 C53.429328,82.224 52.5146705,81.8160041 51.752,81 C50.9893295,80.1839959 50.608,79.1840059 50.608,78 C50.608,76.8159941 50.9893295,75.8160041 51.752,75 C52.5146705,74.1839959 53.429328,73.776 54.496,73.776 C55.6160056,73.776 56.4853302,74.1653294 57.104,74.944 L57.104,74 Z M53.296,79.632 C53.7120021,80.0480021 54.2399968,80.256 54.88,80.256 C55.5200032,80.256 56.0506646,80.0453354 56.472,79.624 C56.8933354,79.2026646 57.104,78.6613366 57.104,78 C57.104,77.3386634 56.8933354,76.7973354 56.472,76.376 C56.0506646,75.9546646 55.5200032,75.744 54.88,75.744 C54.2399968,75.744 53.7120021,75.9546646 53.296,76.376 C52.8799979,76.7973354 52.672,77.3386634 52.672,78 C52.672,78.6613366 52.8799979,79.2053312 53.296,79.632 Z M66.8,77.904 C67.5466704,78.2666685 67.92,78.8746624 67.92,79.728 C67.92,80.4000034 67.6880023,80.9466646 67.224,81.368 C66.7599977,81.7893354 66.1013376,82 65.248,82 L61.04,82 L61.04,74 L64.928,74 C65.7706709,74 66.4239977,74.2079979 66.888,74.624 C67.3520023,75.0400021 67.584,75.5839966 67.584,76.256 C67.584,76.9600035 67.3226693,77.5093314 66.8,77.904 Z M64.736,75.696 L62.976,75.696 L62.976,77.136 L64.736,77.136 C65.3226696,77.136 65.616,76.8960024 65.616,76.416 C65.616,75.9359976 65.3226696,75.696 64.736,75.696 Z M65.008,80.256 C65.6053363,80.256 65.904,80.0000026 65.904,79.488 C65.904,79.2639989 65.8240008,79.0880006 65.664,78.96 C65.5039992,78.8319994 65.2853347,78.768 65.008,78.768 L62.976,78.768 L62.976,80.256 L65.008,80.256 Z M76.592,82 L74.192,82 L71.28,78.368 L71.28,82 L69.216,82 L69.216,74 L71.28,74 L71.28,77.52 L74.032,74 L76.496,74 L73.28,77.952 L76.592,82 Z M83.696,74 L85.76,74 L85.76,82 L83.696,82 L83.696,81.056 C83.0773302,81.8346706 82.2080056,82.224 81.088,82.224 C80.021328,82.224 79.1066705,81.8160041 78.344,81 C77.5813295,80.1839959 77.2,79.1840059 77.2,78 C77.2,76.8159941 77.5813295,75.8160041 78.344,75 C79.1066705,74.1839959 80.021328,73.776 81.088,73.776 C82.2080056,73.776 83.0773302,74.1653294 83.696,74.944 L83.696,74 Z M79.888,79.632 C80.3040021,80.0480021 80.8319968,80.256 81.472,80.256 C82.1120032,80.256 82.6426646,80.0453354 83.064,79.624 C83.4853354,79.2026646 83.696,78.6613366 83.696,78 C83.696,77.3386634 83.4853354,76.7973354 83.064,76.376 C82.6426646,75.9546646 82.1120032,75.744 81.472,75.744 C80.8319968,75.744 80.3040021,75.9546646 79.888,76.376 C79.4719979,76.7973354 79.264,77.3386634 79.264,78 C79.264,78.6613366 79.4719979,79.2053312 79.888,79.632 Z" id="Доставка" fill="#000000" fill-rule="nonzero"></path>
                        </g>
                    </g>
                </g>
            </g>
        </g>
    </g>
</svg>