<?xml version="1.0" encoding="UTF-8"?>
<svg width="109px" height="102px" viewBox="0 0 109 102" version="1.1" xmlns="http://www.w3.org/2000/svg" xmlns:xlink="http://www.w3.org/1999/xlink">
    <!-- Generator: Sketch 54.1 (76490) - https://sketchapp.com -->
    <title>a2-2</title>
    <desc>Created with Sketch.</desc>
    <g id="Design" stroke="none" stroke-width="1" fill="none" fill-rule="evenodd">
        <g id="cpa-97_design" transform="translate(-519.000000, -1316.000000)">
            <g id="✅-art2" transform="translate(160.000000, 1174.000000)">
                <g id="content" transform="translate(0.000000, 102.000000)">
                    <g id="2" transform="translate(288.000000, 0.000000)">
                        <g id="a2-2" transform="translate(71.000000, 40.000000)">
                            <circle id="Oval" fill="#DAF7FF" cx="57" cy="51" r="51"></circle>
                            <path d="M39.92,76 L39.92,84 L37.856,84 L37.856,77.984 L35.648,77.984 L35.648,80.656 C35.648,83.130679 34.5226779,84.2453346 32.272,84 L32.272,82.064 C32.6986688,82.1706672 33.0239989,82.0986679 33.248,81.848 C33.4720011,81.5973321 33.584,81.1626698 33.584,80.544 L33.584,76 L39.92,76 Z M49.072,75.776 C50.2560059,75.776 51.2586626,76.1839959 52.08,77 C52.9013374,77.8160041 53.312,78.8159941 53.312,80 C53.312,81.1840059 52.9013374,82.1839959 52.08,83 C51.2586626,83.8160041 50.2560059,84.224 49.072,84.224 C48.0693283,84.224 47.1946704,83.920003 46.448,83.312 C45.7013296,82.703997 45.2213344,81.9200048 45.008,80.96 L43.856,80.96 L43.856,84 L41.792,84 L41.792,76 L43.856,76 L43.856,79.024 L45.024,79.024 C45.2373344,78.0746619 45.7173296,77.296003 46.464,76.688 C47.2106704,76.079997 48.079995,75.776 49.072,75.776 Z M47.52,81.584 C47.9360021,82.0000021 48.4533302,82.208 49.072,82.208 C49.6906698,82.208 50.2079979,82.0000021 50.624,81.584 C51.0400021,81.1679979 51.248,80.6400032 51.248,80 C51.248,79.3599968 51.0400021,78.8320021 50.624,78.416 C50.2079979,77.9999979 49.6906698,77.792 49.072,77.792 C48.4533302,77.792 47.9386687,77.9999979 47.528,78.416 C47.1173313,78.8320021 46.912,79.3599968 46.912,80 C46.912,80.6400032 47.1146646,81.1679979 47.52,81.584 Z M61.968,82.064 L63.024,82.064 L63.024,86.144 L61.008,86.144 L61.008,84 L56.048,84 L56.048,86.144 L54.032,86.144 L54.032,82.064 L55.008,82.064 C55.466669,81.3813299 55.696,80.4373394 55.696,79.232 L55.696,76 L61.968,76 L61.968,82.064 Z M57.216,82.064 L59.952,82.064 L59.952,77.856 L57.712,77.856 L57.712,79.232 C57.712,80.3626723 57.5466683,81.3066629 57.216,82.064 Z M66.08,80.848 C66.3573347,81.8506717 67.1093272,82.352 68.336,82.352 C69.1253373,82.352 69.7226646,82.085336 70.128,81.552 L71.792,82.512 C71.0026627,83.653339 69.8400077,84.224 68.304,84.224 C66.9813267,84.224 65.920004,83.824004 65.12,83.024 C64.319996,82.223996 63.92,81.2160061 63.92,80 C63.92,78.7946606 64.3146627,77.7893374 65.104,76.984 C65.8933373,76.1786626 66.9066605,75.776 68.144,75.776 C69.3173392,75.776 70.2853295,76.1813293 71.048,76.992 C71.8106705,77.8026707 72.192,78.8053274 72.192,80 C72.192,80.266668 72.1653336,80.5493318 72.112,80.848 L66.08,80.848 Z M66.048,79.248 L70.128,79.248 C70.0106661,78.7039973 69.7680018,78.298668 69.4,78.032 C69.0319982,77.765332 68.6133357,77.632 68.144,77.632 C67.5893306,77.632 67.1306685,77.7733319 66.768,78.056 C66.4053315,78.3386681 66.1653339,78.7359974 66.048,79.248 Z M74.976,74.976 L74.976,73.184 L79.616,73.184 L79.616,74.976 L74.976,74.976 Z M79.408,76 L80.944,76 L80.944,84 L78.928,84 L78.928,79.456 L75.168,84 L73.632,84 L73.632,76 L75.648,76 L75.648,80.544 L79.408,76 Z" id="людей" fill="#000000" fill-rule="nonzero"></path>
                            <path d="M0.7,62 L0.7,55.82 L15.04,41.06 C18.240016,37.6999832 19.84,34.9000112 19.84,32.66 C19.84,31.0199918 19.3300051,29.700005 18.31,28.7 C17.2899949,27.699995 15.980008,27.2 14.38,27.2 C11.2199842,27.2 8.8800076,28.8399836 7.36,32.12 L0.4,28.04 C1.7200066,25.1599856 3.6199876,22.9600076 6.1,21.44 C8.5800124,19.9199924 11.2999852,19.16 14.26,19.16 C18.060019,19.16 21.3199864,20.3499881 24.04,22.73 C26.7600136,25.1100119 28.12,28.3199798 28.12,32.36 C28.12,36.7200218 25.820023,41.199977 21.22,45.8 L13,54.02 L28.78,54.02 L28.78,62 L0.7,62 Z M57.22,40.16 C61.1000194,42.4800116 63.04,45.8599778 63.04,50.3 C63.04,54.1800194 61.6900135,57.2399888 58.99,59.48 C56.2899865,61.7200112 52.6200232,62.84 47.98,62.84 C43.2999766,62.84 39.6200134,61.7200112 36.94,59.48 C34.2599866,57.2399888 32.92,54.1800194 32.92,50.3 C32.92,45.8599778 34.8399808,42.4800116 38.68,40.16 C35.7599854,38.0399894 34.3,35.1400184 34.3,31.46 C34.3,27.5799806 35.6099869,24.5600108 38.23,22.4 C40.8500131,20.2399892 44.0999806,19.16 47.98,19.16 C51.8600194,19.16 55.099987,20.2399892 57.7,22.4 C60.300013,24.5600108 61.6,27.5799806 61.6,31.46 C61.6,35.1800186 60.1400146,38.0799896 57.22,40.16 Z M51.88,28.28 C50.879995,27.3999956 49.58,26.96 47.98,26.96 C46.379992,26.96 45.080005,27.3999956 44.08,28.28 C43.079995,29.1600044 42.58,30.3599924 42.58,31.88 C42.58,33.4000076 43.079995,34.6099955 44.08,35.51 C45.080005,36.4100045 46.379992,36.86 47.98,36.86 C49.580008,36.86 50.879995,36.4100045 51.88,35.51 C52.880005,34.6099955 53.38,33.4000076 53.38,31.88 C53.38,30.3599924 52.880005,29.1600044 51.88,28.28 Z M43,53.54 C44.2800064,54.540005 45.9399898,55.04 47.98,55.04 C50.0200102,55.04 51.6699937,54.5300051 52.93,53.51 C54.1900063,52.4899949 54.82,51.0600092 54.82,49.22 C54.82,47.419991 54.1900063,46.0100051 52.93,44.99 C51.6699937,43.9699949 50.0200102,43.46 47.98,43.46 C45.9399898,43.46 44.2900063,43.9699949 43.03,44.99 C41.7699937,46.0100051 41.14,47.419991 41.14,49.22 C41.14,51.0600092 41.7599938,52.4999948 43,53.54 Z M85.06,36.14 C83.1399904,38.0200094 80.7400144,38.96 77.86,38.96 C74.9799856,38.96 72.5700097,38.0000096 70.63,36.08 C68.6899903,34.1599904 67.72,31.8200138 67.72,29.06 C67.72,26.2999862 68.6899903,23.9600096 70.63,22.04 C72.5700097,20.1199904 74.9799856,19.16 77.86,19.16 C80.7400144,19.16 83.1399904,20.1099905 85.06,22.01 C86.9800096,23.9100095 87.94,26.259986 87.94,29.06 C87.94,31.860014 86.9800096,34.2199904 85.06,36.14 Z M71.98,55.64 L99.34,25.22 L103,27.26 L75.58,57.74 L71.98,55.64 Z M75.1,31.82 C75.8200036,32.5400036 76.7199946,32.9 77.8,32.9 C78.8800054,32.9 79.7799964,32.5300037 80.5,31.79 C81.2200036,31.0499963 81.58,30.1400054 81.58,29.06 C81.58,27.9799946 81.2200036,27.0800036 80.5,26.36 C79.7799964,25.6399964 78.8800054,25.28 77.8,25.28 C76.7199946,25.28 75.8300035,25.6399964 75.13,26.36 C74.4299965,27.0800036 74.08,27.9799946 74.08,29.06 C74.08,30.1400054 74.4199966,31.0599962 75.1,31.82 Z M105.34,59.84 C103.41999,61.7600096 101.020014,62.72 98.14,62.72 C95.2599856,62.72 92.8600096,61.7600096 90.94,59.84 C89.0199904,57.9199904 88.06,55.5800138 88.06,52.82 C88.06,50.0599862 89.0199904,47.7200096 90.94,45.8 C92.8600096,43.8799904 95.2599856,42.92 98.14,42.92 C101.020014,42.92 103.41999,43.8799904 105.34,45.8 C107.26001,47.7200096 108.22,50.0599862 108.22,52.82 C108.22,55.5800138 107.26001,57.9199904 105.34,59.84 Z M95.44,55.58 C96.1600036,56.3000036 97.0599946,56.66 98.14,56.66 C99.2200054,56.66 100.109997,56.2800038 100.81,55.52 C101.510004,54.7599962 101.86,53.8600052 101.86,52.82 C101.86,51.7399946 101.510004,50.8300037 100.81,50.09 C100.109997,49.3499963 99.2200054,48.98 98.14,48.98 C97.0599946,48.98 96.1700035,49.3499963 95.47,50.09 C94.7699965,50.8300037 94.42,51.7399946 94.42,52.82 C94.42,53.9000054 94.7599966,54.8199962 95.44,55.58 Z" id="28%" fill="#000000" fill-rule="nonzero"></path>
                        </g>
                    </g>
                </g>
            </g>
        </g>
    </g>
</svg>