<?xml version="1.0" encoding="UTF-8"?>
<svg width="102px" height="102px" viewBox="0 0 102 102" version="1.1" xmlns="http://www.w3.org/2000/svg" xmlns:xlink="http://www.w3.org/1999/xlink">
    <!-- Generator: Sketch 54.1 (76490) - https://sketchapp.com -->
    <title>a2-4</title>
    <desc>Created with Sketch.</desc>
    <g id="Design" stroke="none" stroke-width="1" fill="none" fill-rule="evenodd">
        <g id="cpa-97_design" transform="translate(-1101.000000, -1316.000000)">
            <g id="✅-art2" transform="translate(160.000000, 1174.000000)">
                <g id="content" transform="translate(0.000000, 102.000000)">
                    <g id="4" transform="translate(864.000000, 0.000000)">
                        <g id="a2-4" transform="translate(77.000000, 40.000000)">
                            <circle id="Oval" fill="#DAF7FF" cx="51" cy="51" r="51"></circle>
                            <path d="M33.92,76 L33.92,84 L31.856,84 L31.856,77.984 L29.648,77.984 L29.648,80.656 C29.648,83.130679 28.5226779,84.2453346 26.272,84 L26.272,82.064 C26.6986688,82.1706672 27.0239989,82.0986679 27.248,81.848 C27.4720011,81.5973321 27.584,81.1626698 27.584,80.544 L27.584,76 L33.92,76 Z M43.072,75.776 C44.2560059,75.776 45.2586626,76.1839959 46.08,77 C46.9013374,77.8160041 47.312,78.8159941 47.312,80 C47.312,81.1840059 46.9013374,82.1839959 46.08,83 C45.2586626,83.8160041 44.2560059,84.224 43.072,84.224 C42.0693283,84.224 41.1946704,83.920003 40.448,83.312 C39.7013296,82.703997 39.2213344,81.9200048 39.008,80.96 L37.856,80.96 L37.856,84 L35.792,84 L35.792,76 L37.856,76 L37.856,79.024 L39.024,79.024 C39.2373344,78.0746619 39.7173296,77.296003 40.464,76.688 C41.2106704,76.079997 42.079995,75.776 43.072,75.776 Z M41.52,81.584 C41.9360021,82.0000021 42.4533302,82.208 43.072,82.208 C43.6906698,82.208 44.2079979,82.0000021 44.624,81.584 C45.0400021,81.1679979 45.248,80.6400032 45.248,80 C45.248,79.3599968 45.0400021,78.8320021 44.624,78.416 C44.2079979,77.9999979 43.6906698,77.792 43.072,77.792 C42.4533302,77.792 41.9386687,77.9999979 41.528,78.416 C41.1173313,78.8320021 40.912,79.3599968 40.912,80 C40.912,80.6400032 41.1146646,81.1679979 41.52,81.584 Z M55.968,82.064 L57.024,82.064 L57.024,86.144 L55.008,86.144 L55.008,84 L50.048,84 L50.048,86.144 L48.032,86.144 L48.032,82.064 L49.008,82.064 C49.466669,81.3813299 49.696,80.4373394 49.696,79.232 L49.696,76 L55.968,76 L55.968,82.064 Z M51.216,82.064 L53.952,82.064 L53.952,77.856 L51.712,77.856 L51.712,79.232 C51.712,80.3626723 51.5466683,81.3066629 51.216,82.064 Z M60.08,80.848 C60.3573347,81.8506717 61.1093272,82.352 62.336,82.352 C63.1253373,82.352 63.7226646,82.085336 64.128,81.552 L65.792,82.512 C65.0026627,83.653339 63.8400077,84.224 62.304,84.224 C60.9813267,84.224 59.920004,83.824004 59.12,83.024 C58.319996,82.223996 57.92,81.2160061 57.92,80 C57.92,78.7946606 58.3146627,77.7893374 59.104,76.984 C59.8933373,76.1786626 60.9066605,75.776 62.144,75.776 C63.3173392,75.776 64.2853295,76.1813293 65.048,76.992 C65.8106705,77.8026707 66.192,78.8053274 66.192,80 C66.192,80.266668 66.1653336,80.5493318 66.112,80.848 L60.08,80.848 Z M60.048,79.248 L64.128,79.248 C64.0106661,78.7039973 63.7680018,78.298668 63.4,78.032 C63.0319982,77.765332 62.6133357,77.632 62.144,77.632 C61.5893306,77.632 61.1306685,77.7733319 60.768,78.056 C60.4053315,78.3386681 60.1653339,78.7359974 60.048,79.248 Z M68.976,74.976 L68.976,73.184 L73.616,73.184 L73.616,74.976 L68.976,74.976 Z M73.408,76 L74.944,76 L74.944,84 L72.928,84 L72.928,79.456 L69.168,84 L67.632,84 L67.632,76 L69.648,76 L69.648,80.544 L73.408,76 Z" id="людей" fill="#000000" fill-rule="nonzero"></path>
                            <path d="M26.56,33.62 C30.9200218,33.7400006 34.4599864,35.1499865 37.18,37.85 C39.9000136,40.5500135 41.26,43.999979 41.26,48.2 C41.26,52.4800214 39.8400142,55.9899863 37,58.73 C34.1599858,61.4700137 30.5000224,62.84 26.02,62.84 C21.5399776,62.84 17.8900141,61.4800136 15.07,58.76 C12.2499859,56.0399864 10.84,52.5200216 10.84,48.2 C10.84,44.999984 11.6599918,42.1800122 13.3,39.74 L26.38,20 L35.86,20 L26.56,33.62 Z M21.04,53.18 C22.3600066,54.4200062 24.01999,55.04 26.02,55.04 C28.02001,55.04 29.6899933,54.4200062 31.03,53.18 C32.3700067,51.9399938 33.04,50.2800104 33.04,48.2 C33.04,46.1599898 32.3700067,44.5200062 31.03,43.28 C29.6899933,42.0399938 28.02001,41.42 26.02,41.42 C24.01999,41.42 22.3600066,42.0299939 21.04,43.25 C19.7199934,44.4700061 19.06,46.1199896 19.06,48.2 C19.06,50.2800104 19.7199934,51.9399938 21.04,53.18 Z M62.68,36.14 C60.7599904,38.0200094 58.3600144,38.96 55.48,38.96 C52.5999856,38.96 50.1900097,38.0000096 48.25,36.08 C46.3099903,34.1599904 45.34,31.8200138 45.34,29.06 C45.34,26.2999862 46.3099903,23.9600096 48.25,22.04 C50.1900097,20.1199904 52.5999856,19.16 55.48,19.16 C58.3600144,19.16 60.7599904,20.1099905 62.68,22.01 C64.6000096,23.9100095 65.56,26.259986 65.56,29.06 C65.56,31.860014 64.6000096,34.2199904 62.68,36.14 Z M49.6,55.64 L76.96,25.22 L80.62,27.26 L53.2,57.74 L49.6,55.64 Z M52.72,31.82 C53.4400036,32.5400036 54.3399946,32.9 55.42,32.9 C56.5000054,32.9 57.3999964,32.5300037 58.12,31.79 C58.8400036,31.0499963 59.2,30.1400054 59.2,29.06 C59.2,27.9799946 58.8400036,27.0800036 58.12,26.36 C57.3999964,25.6399964 56.5000054,25.28 55.42,25.28 C54.3399946,25.28 53.4500035,25.6399964 52.75,26.36 C52.0499965,27.0800036 51.7,27.9799946 51.7,29.06 C51.7,30.1400054 52.0399966,31.0599962 52.72,31.82 Z M82.96,59.84 C81.0399904,61.7600096 78.6400144,62.72 75.76,62.72 C72.8799856,62.72 70.4800096,61.7600096 68.56,59.84 C66.6399904,57.9199904 65.68,55.5800138 65.68,52.82 C65.68,50.0599862 66.6399904,47.7200096 68.56,45.8 C70.4800096,43.8799904 72.8799856,42.92 75.76,42.92 C78.6400144,42.92 81.0399904,43.8799904 82.96,45.8 C84.8800096,47.7200096 85.84,50.0599862 85.84,52.82 C85.84,55.5800138 84.8800096,57.9199904 82.96,59.84 Z M73.06,55.58 C73.7800036,56.3000036 74.6799946,56.66 75.76,56.66 C76.8400054,56.66 77.7299965,56.2800038 78.43,55.52 C79.1300035,54.7599962 79.48,53.8600052 79.48,52.82 C79.48,51.7399946 79.1300035,50.8300037 78.43,50.09 C77.7299965,49.3499963 76.8400054,48.98 75.76,48.98 C74.6799946,48.98 73.7900035,49.3499963 73.09,50.09 C72.3899965,50.8300037 72.04,51.7399946 72.04,52.82 C72.04,53.9000054 72.3799966,54.8199962 73.06,55.58 Z" id="6%" fill="#000000" fill-rule="nonzero"></path>
                        </g>
                    </g>
                </g>
            </g>
        </g>
    </g>
</svg>