<?xml version="1.0" encoding="UTF-8"?>
<svg width="164px" height="76px" viewBox="0 0 164 76" version="1.1" xmlns="http://www.w3.org/2000/svg" xmlns:xlink="http://www.w3.org/1999/xlink">
    <!-- Generator: Sketch 54.1 (76490) - https://sketchapp.com -->
    <title>label</title>
    <desc>Created with Sketch.</desc>
    <defs>
        <linearGradient x1="76.260693%" y1="41.916108%" x2="22.3691856%" y2="58.2747282%" id="linearGradient-1">
            <stop stop-color="#FAE857" offset="0%"></stop>
            <stop stop-color="#F2CD2C" offset="100%"></stop>
        </linearGradient>
    </defs>
    <g id="Design" stroke="none" stroke-width="1" fill="none" fill-rule="evenodd">
        <g id="cpa-97_design" transform="translate(-1114.000000, -63.000000)">
            <g id="header" transform="translate(-178.000000, -16.000000)">
                <g id="label" transform="translate(1292.000000, 79.000000)">
                    <path d="M5.73867769,8.27026431 L134.779468,0.186337504 C136.544415,0.0757701456 138.172509,1.13726955 138.783354,2.79682673 L162.899365,68.3157306 C163.662448,70.3888922 162.60042,72.688123 160.527259,73.4512064 C160.097358,73.6094431 159.64347,73.6926566 159.185395,73.6972171 L4.1692165,75.2405156 C1.96018697,75.2625081 0.151586282,73.4895643 0.129593791,71.2805347 C0.129043295,71.2252402 0.129639469,71.1699403 0.131381929,71.1146705 L1.99075893,12.136395 C2.05578363,10.0738523 3.67914772,8.39928622 5.73867769,8.27026431 Z" id="Rectangle" fill="url(#linearGradient-1)"></path>
                    <path d="M39.372,33.6820232 L37.174,33.6820232 L35.27,30.4900232 L33.366,33.6820232 L31.182,33.6820232 L34.178,28.6560232 L31.336,23.8820232 L33.52,23.8820232 L35.27,26.8220232 L37.02,23.8820232 L39.204,23.8820232 L36.362,28.6420232 L39.372,33.6820232 Z M45.42,26.6820232 L46.764,26.6820232 L46.764,33.6820232 L45,33.6820232 L45,29.7060232 L41.71,33.6820232 L40.366,33.6820232 L40.366,26.6820232 L42.13,26.6820232 L42.13,30.6580232 L45.42,26.6820232 Z M53.932,26.6820232 L53.932,28.4180232 L51.748,28.4180232 L51.748,33.6820232 L49.942,33.6820232 L49.942,28.4180232 L47.73,28.4180232 L47.73,26.6820232 L53.932,26.6820232 Z M64.796,26.6820232 L64.796,33.6820232 L62.99,33.6820232 L62.99,28.3760232 L60.204,28.3760232 L60.204,33.6820232 L58.398,33.6820232 L58.398,26.6820232 L64.796,26.6820232 Z M70.522,26.4860232 C71.4646714,26.4860232 72.2696633,26.8430196 72.937,27.5570232 C73.6043367,28.2710267 73.938,29.146018 73.938,30.1820232 C73.938,31.2180283 73.6043367,32.0930196 72.937,32.8070232 C72.2696633,33.5210267 71.4646714,33.8780232 70.522,33.8780232 C69.5419951,33.8780232 68.7860027,33.5373599 68.254,32.8560232 L68.254,36.4820232 L66.448,36.4820232 L66.448,26.6820232 L68.254,26.6820232 L68.254,27.5080232 C68.7860027,26.8266864 69.5419951,26.4860232 70.522,26.4860232 Z M68.8,31.6100232 C69.1640018,31.974025 69.6259972,32.1560232 70.186,32.1560232 C70.7460028,32.1560232 71.2103315,31.9716917 71.579,31.6030232 C71.9476685,31.2343546 72.132,30.7606927 72.132,30.1820232 C72.132,29.6033536 71.9476685,29.1296917 71.579,28.7610232 C71.2103315,28.3923546 70.7460028,28.2080232 70.186,28.2080232 C69.6259972,28.2080232 69.1640018,28.3923546 68.8,28.7610232 C68.4359982,29.1296917 68.254,29.6033536 68.254,30.1820232 C68.254,30.7606927 68.4359982,31.236688 68.8,31.6100232 Z M81.176,32.8140232 C80.4573297,33.52336 79.5800052,33.8780232 78.544,33.8780232 C77.5079948,33.8780232 76.6330036,33.5210267 75.919,32.8070232 C75.2049964,32.0930196 74.848,31.2180283 74.848,30.1820232 C74.848,29.146018 75.2049964,28.2710267 75.919,27.5570232 C76.6330036,26.8430196 77.5079948,26.4860232 78.544,26.4860232 C79.5800052,26.4860232 80.4573297,26.8430196 81.176,27.5570232 C81.8946703,28.2710267 82.254,29.146018 82.254,30.1820232 C82.254,31.2180283 81.8946703,32.0953529 81.176,32.8140232 Z M77.186,31.5680232 C77.5500018,31.932025 78.002664,32.1140232 78.544,32.1140232 C79.085336,32.1140232 79.5379982,31.932025 79.902,31.5680232 C80.2660018,31.2040213 80.448,30.742026 80.448,30.1820232 C80.448,29.6220204 80.2660018,29.160025 79.902,28.7960232 C79.5379982,28.4320213 79.085336,28.2500232 78.544,28.2500232 C78.002664,28.2500232 77.5523351,28.4320213 77.193,28.7960232 C76.8336649,29.160025 76.654,29.6220204 76.654,30.1820232 C76.654,30.742026 76.8313316,31.2040213 77.186,31.5680232 Z M89.828,31.9880232 L90.752,31.9880232 L90.752,35.5580232 L88.988,35.5580232 L88.988,33.6820232 L84.648,33.6820232 L84.648,35.5580232 L82.884,35.5580232 L82.884,31.9880232 L83.738,31.9880232 C84.1393353,31.3906868 84.34,30.5646951 84.34,29.5100232 L84.34,26.6820232 L89.828,26.6820232 L89.828,31.9880232 Z M85.67,31.9880232 L88.064,31.9880232 L88.064,28.3060232 L86.104,28.3060232 L86.104,29.5100232 C86.104,30.4993614 85.9593348,31.3253532 85.67,31.9880232 Z M97.22,26.6820232 L99.026,26.6820232 L99.026,33.6820232 L97.22,33.6820232 L97.22,32.8560232 C96.678664,33.5373599 95.9180049,33.8780232 94.938,33.8780232 C94.004662,33.8780232 93.2043367,33.5210267 92.537,32.8070232 C91.8696633,32.0930196 91.536,31.2180283 91.536,30.1820232 C91.536,29.146018 91.8696633,28.2710267 92.537,27.5570232 C93.2043367,26.8430196 94.004662,26.4860232 94.938,26.4860232 C95.9180049,26.4860232 96.678664,26.8266864 97.22,27.5080232 L97.22,26.6820232 Z M93.888,31.6100232 C94.2520018,31.974025 94.7139972,32.1560232 95.274,32.1560232 C95.8340028,32.1560232 96.2983315,31.9716917 96.667,31.6030232 C97.0356685,31.2343546 97.22,30.7606927 97.22,30.1820232 C97.22,29.6033536 97.0356685,29.1296917 96.667,28.7610232 C96.2983315,28.3923546 95.8340028,28.2080232 95.274,28.2080232 C94.7139972,28.2080232 94.2520018,28.3923546 93.888,28.7610232 C93.5239982,29.1296917 93.342,29.6033536 93.342,30.1820232 C93.342,30.7606927 93.5239982,31.236688 93.888,31.6100232 Z M110.114,33.6820232 L108.084,33.6820232 L105.942,30.5460232 L105.942,33.6820232 L104.178,33.6820232 L104.178,30.5460232 L102.036,33.6820232 L100.02,33.6820232 L102.54,30.1400232 L100.16,26.6820232 L102.176,26.6820232 L104.178,29.7200232 L104.178,26.6820232 L105.942,26.6820232 L105.942,29.7200232 L107.944,26.6820232 L109.974,26.6820232 L107.58,30.1400232 L110.114,33.6820232 Z" id="Хитпродаж" fill="#000000" fill-rule="nonzero"></path>
                    <path d="M31.54,58.4820232 L31.54,56.4220232 L36.32,51.5020232 C37.386672,50.3820176 37.92,49.4486936 37.92,48.7020232 C37.92,48.1553538 37.7500017,47.7153582 37.41,47.3820232 C37.0699983,47.0486882 36.633336,46.8820232 36.1,46.8820232 C35.0466614,46.8820232 34.2666692,47.4286844 33.76,48.5220232 L31.44,47.1620232 C31.8800022,46.2020184 32.5133292,45.4686924 33.34,44.9620232 C34.1666708,44.455354 35.0733284,44.2020232 36.06,44.2020232 C37.326673,44.2020232 38.4133288,44.5986859 39.32,45.3920232 C40.2266712,46.1853605 40.68,47.2553498 40.68,48.6020232 C40.68,50.0553638 39.913341,51.5486822 38.38,53.0820232 L35.64,55.8220232 L40.9,55.8220232 L40.9,58.4820232 L31.54,58.4820232 Z M47.92,58.7620232 C46.1733246,58.7620232 44.8033383,58.0986965 43.81,56.7720232 C42.8166617,55.4453499 42.32,53.6820342 42.32,51.4820232 C42.32,49.2820122 42.8166617,47.5186965 43.81,46.1920232 C44.8033383,44.8653499 46.1733246,44.2020232 47.92,44.2020232 C49.6800088,44.2020232 51.0533284,44.8653499 52.04,46.1920232 C53.0266716,47.5186965 53.52,49.2820122 53.52,51.4820232 C53.52,53.6820342 53.0266716,55.4453499 52.04,56.7720232 C51.0533284,58.0986965 49.6800088,58.7620232 47.92,58.7620232 Z M45.8,54.9020232 C46.2800024,55.6753604 46.986662,56.0620232 47.92,56.0620232 C48.853338,56.0620232 49.5633309,55.6686938 50.05,54.8820232 C50.5366691,54.0953526 50.78,52.9620306 50.78,51.4820232 C50.78,49.9886824 50.5366691,48.8486938 50.05,48.0620232 C49.5633309,47.2753526 48.853338,46.8820232 47.92,46.8820232 C46.986662,46.8820232 46.2800024,47.2753526 45.8,48.0620232 C45.3199976,48.8486938 45.08,49.9886824 45.08,51.4820232 C45.08,52.975364 45.3199976,54.1153526 45.8,54.9020232 Z M58.12,44.4820232 L60.52,44.4820232 L60.52,58.4820232 L57.76,58.4820232 L57.76,47.4020232 L55.12,48.1420232 L54.44,45.7820232 L58.12,44.4820232 Z M70.72,51.2020232 C72.0133398,51.9753604 72.66,53.1020158 72.66,54.5820232 C72.66,55.875363 72.2100045,56.8953528 71.31,57.6420232 C70.4099955,58.3886936 69.1866744,58.7620232 67.64,58.7620232 C66.0799922,58.7620232 64.8533378,58.3886936 63.96,57.6420232 C63.0666622,56.8953528 62.62,55.875363 62.62,54.5820232 C62.62,53.1020158 63.2599936,51.9753604 64.54,51.2020232 C63.5666618,50.495353 63.08,49.528696 63.08,48.3020232 C63.08,47.0086834 63.5166623,46.0020268 64.39,45.2820232 C65.2633377,44.5620196 66.3466602,44.2020232 67.64,44.2020232 C68.9333398,44.2020232 70.013329,44.5620196 70.88,45.2820232 C71.746671,46.0020268 72.18,47.0086834 72.18,48.3020232 C72.18,49.5420294 71.6933382,50.5086864 70.72,51.2020232 Z M68.94,47.2420232 C68.606665,46.9486884 68.173336,46.8020232 67.64,46.8020232 C67.106664,46.8020232 66.673335,46.9486884 66.34,47.2420232 C66.006665,47.535358 65.84,47.935354 65.84,48.4420232 C65.84,48.9486924 66.006665,49.3520217 66.34,49.6520232 C66.673335,49.9520247 67.106664,50.1020232 67.64,50.1020232 C68.173336,50.1020232 68.606665,49.9520247 68.94,49.6520232 C69.273335,49.3520217 69.44,48.9486924 69.44,48.4420232 C69.44,47.935354 69.273335,47.535358 68.94,47.2420232 Z M65.98,55.6620232 C66.4066688,55.9953582 66.9599966,56.1620232 67.64,56.1620232 C68.3200034,56.1620232 68.8699979,55.9920249 69.29,55.6520232 C69.7100021,55.3120215 69.92,54.8353596 69.92,54.2220232 C69.92,53.6220202 69.7100021,53.1520249 69.29,52.8120232 C68.8699979,52.4720215 68.3200034,52.3020232 67.64,52.3020232 C66.9599966,52.3020232 66.4100021,52.4720215 65.99,52.8120232 C65.5699979,53.1520249 65.36,53.6220202 65.36,54.2220232 C65.36,54.8353596 65.5666646,55.3153548 65.98,55.6620232 Z M74.62,53.6820232 L74.62,51.2020232 L82.12,51.2020232 L82.12,53.6820232 L74.62,53.6820232 Z M83.96,58.4820232 L83.96,56.4220232 L88.74,51.5020232 C89.806672,50.3820176 90.34,49.4486936 90.34,48.7020232 C90.34,48.1553538 90.1700017,47.7153582 89.83,47.3820232 C89.4899983,47.0486882 89.053336,46.8820232 88.52,46.8820232 C87.4666614,46.8820232 86.6866692,47.4286844 86.18,48.5220232 L83.86,47.1620232 C84.3000022,46.2020184 84.9333292,45.4686924 85.76,44.9620232 C86.5866708,44.455354 87.4933284,44.2020232 88.48,44.2020232 C89.746673,44.2020232 90.8333288,44.5986859 91.74,45.3920232 C92.6466712,46.1853605 93.1,47.2553498 93.1,48.6020232 C93.1,50.0553638 92.333341,51.5486822 90.8,53.0820232 L88.06,55.8220232 L93.32,55.8220232 L93.32,58.4820232 L83.96,58.4820232 Z M100.34,58.7620232 C98.5933246,58.7620232 97.2233383,58.0986965 96.23,56.7720232 C95.2366617,55.4453499 94.74,53.6820342 94.74,51.4820232 C94.74,49.2820122 95.2366617,47.5186965 96.23,46.1920232 C97.2233383,44.8653499 98.5933246,44.2020232 100.34,44.2020232 C102.100009,44.2020232 103.473328,44.8653499 104.46,46.1920232 C105.446672,47.5186965 105.94,49.2820122 105.94,51.4820232 C105.94,53.6820342 105.446672,55.4453499 104.46,56.7720232 C103.473328,58.0986965 102.100009,58.7620232 100.34,58.7620232 Z M98.22,54.9020232 C98.7000024,55.6753604 99.406662,56.0620232 100.34,56.0620232 C101.273338,56.0620232 101.983331,55.6686938 102.47,54.8820232 C102.956669,54.0953526 103.2,52.9620306 103.2,51.4820232 C103.2,49.9886824 102.956669,48.8486938 102.47,48.0620232 C101.983331,47.2753526 101.273338,46.8820232 100.34,46.8820232 C99.406662,46.8820232 98.7000024,47.2753526 98.22,48.0620232 C97.7399976,48.8486938 97.5,49.9886824 97.5,51.4820232 C97.5,52.975364 97.7399976,54.1153526 98.22,54.9020232 Z M110.54,44.4820232 L112.94,44.4820232 L112.94,58.4820232 L110.18,58.4820232 L110.18,47.4020232 L107.54,48.1420232 L106.86,45.7820232 L110.54,44.4820232 Z M124.98,49.0620232 C124.98,50.1420286 124.700003,51.0886858 124.14,51.9020232 L124.16,51.9020232 L119.8,58.4820232 L116.64,58.4820232 L119.76,53.9220232 C118.306659,53.8953564 117.123338,53.4320277 116.21,52.5320232 C115.296662,51.6320187 114.84,50.4753636 114.84,49.0620232 C114.84,47.6353494 115.309995,46.4686944 116.25,45.5620232 C117.190005,44.655352 118.406659,44.2020232 119.9,44.2020232 C121.406674,44.2020232 122.629995,44.6520187 123.57,45.5520232 C124.510005,46.4520277 124.98,47.622016 124.98,49.0620232 Z M117.58,49.0620232 C117.58,49.75536 117.803331,50.3086878 118.25,50.7220232 C118.696669,51.1353586 119.246663,51.3420232 119.9,51.3420232 C120.580003,51.3420232 121.139998,51.1353586 121.58,50.7220232 C122.020002,50.3086878 122.24,49.75536 122.24,49.0620232 C122.24,48.3686864 122.020002,47.8186919 121.58,47.4120232 C121.139998,47.0053545 120.58,46.8020232 119.9,46.8020232 C119.246663,46.8020232 118.696669,47.0086878 118.25,47.4220232 C117.803331,47.8353586 117.58,48.3820198 117.58,49.0620232 Z" id="2018-2019" fill="#000000" fill-rule="nonzero"></path>
                </g>
            </g>
        </g>
    </g>
</svg>