<svg height="512pt" viewBox="0 0 512 512" width="512pt" xmlns="http://www.w3.org/2000/svg"><path d="m512 256c0 141.386719-114.613281 256-256 256s-256-114.613281-256-256 114.613281-256 256-256 256 114.613281 256 256zm0 0" fill="#ffcf11"/><path d="m432.472656 149.515625v-145.695313c0-2.109374-1.710937-3.820312-3.820312-3.820312h-145.695313c-2.109375 0-3.820312 1.710938-3.820312 3.820312v39.980469c0 2.109375 1.710937 3.820313 3.820312 3.820313h58.996094c3.40625 0 5.109375 4.113281 2.703125 6.523437l-77.636719 77.632813c-1.492187 1.492187-1.492187 3.914062 0 5.40625l28.269531 28.269531c1.492188 1.492187 3.910157 1.492187 5.402344 0l77.636719-77.636719c2.40625-2.40625 6.523437-.703125 6.523437 2.703125v58.996094c0 2.109375 1.710938 3.820313 3.820313 3.820313h39.980469c2.109375 0 3.820312-1.710938 3.820312-3.820313zm0 0" fill="#3e4a68"/><path d="m318.105469 114.367188c-5.707031-5.707032-11.839844-10.828126-18.324219-15.351563l-32.757812 32.761719c-1.492188 1.492187-1.492188 3.910156 0 5.40625l28.265624 28.265625c1.492188 1.492187 3.914063 1.492187 5.40625 0l32.761719-32.761719c-4.523437-6.480469-9.648437-12.613281-15.351562-18.320312zm0 0" fill="#303a59"/><path d="m307.496094 124.976562c-46.535156-46.535156-121.980469-46.535156-168.515625 0-46.535157 46.535157-46.535157 121.980469 0 168.515626 46.535156 46.535156 121.984375 46.535156 168.515625 0 46.535156-46.535157 46.535156-121.980469 0-168.515626zm-134.84375 134.84375c-27.894532-27.894531-27.894532-73.28125 0-101.171874 27.894531-27.894532 73.277344-27.894532 101.171875 0 27.894531 27.890624 27.894531 73.277343 0 101.171874-27.894531 27.894532-73.277344 27.894532-101.171875 0zm0 0" fill="#3e4a68"/><path d="m222.792969 340.464844c-1.492188-1.492188-3.910157-1.492188-5.402344 0l-53.660156 53.65625c-1.492188 1.492187-3.910157 1.492187-5.402344 0l-43.496094-43.496094c-1.492187-1.492188-3.914062-1.492188-5.40625 0l-28.269531 28.269531c-1.492188 1.492188-1.492188 3.914063 0 5.40625l43.5 43.496094c1.492188 1.492187 1.492188 3.910156 0 5.402344l-25.289062 25.289062c12.835937 9.945313 26.644531 18.695313 41.257812 26.085938l17.703125-17.703125c1.492187-1.488282 3.910156-1.488282 5.402344 0l39.71875 39.722656c3.617187.753906 7.265625 1.421875 10.9375 2.023438l26.511719-26.515626c1.492187-1.492187 1.492187-3.914062 0-5.40625l-43.496094-43.496093c-1.492188-1.492188-1.492188-3.910157 0-5.402344l53.660156-53.660156c1.492188-1.492188 1.492188-3.910157 0-5.402344zm0 0" fill="#ff3345"/><path d="m251.0625 368.734375-28.269531-28.269531c-1.492188-1.492188-3.910157-1.492188-5.402344 0l-24.832031 24.832031c3.5625 5.105469 7.496094 10.007813 11.804687 14.652344 6.628907 7.15625 13.988281 13.5 21.902344 18.984375l24.796875-24.796875c1.492188-1.492188 1.492188-3.910157 0-5.402344zm0 0" fill="#e32828"/><path d="m383.761719 376.164062c48.269531-44.730468 51.136719-120.125 6.40625-168.394531-44.730469-48.273437-120.125-51.140625-168.394531-6.410156-48.269532 44.730469-51.140626 120.125-6.410157 168.394531 44.734375 48.269532 120.125 51.140625 168.398438 6.410156zm-129.621094-139.875c28.933594-26.8125 74.285156-25.085937 101.097656 3.847657 26.8125 28.933593 25.085938 74.285156-3.847656 101.097656-28.929687 26.8125-74.285156 25.085937-101.097656-3.847656-26.8125-28.933594-25.085938-74.285157 3.847656-101.097657zm0 0" fill="#ff3345"/><path d="m268.035156 174.753906c7.585938 9.824219 11.707032 21.824219 11.707032 34.480469 0 4.179687-.460938 8.28125-1.335938 12.265625 25.730469-9.28125 55.601562-3.265625 75.703125 17.476562 2.171875-9.648437 3.289063-19.609374 3.289063-29.742187 0-9.46875-.984376-18.789063-2.886719-27.84375-26.996094-13-57.988281-15.292969-86.476563-6.636719zm0 0" fill="#e32828"/><path d="m307.496094 293.492188c46.535156-46.535157 46.535156-121.980469 0-168.515626l-33.671875 33.671876c27.894531 27.890624 27.894531 73.277343 0 101.171874zm0 0" fill="#3e4a68"/></svg>