<svg id="icons" enable-background="new 0 0 64 64" height="512" viewBox="0 0 64 64" width="512" xmlns="http://www.w3.org/2000/svg"><path d="m32 5.001c-.553 0-1-.447-1-1v-1c0-.553.447-1 1-1s1 .447 1 1v1c0 .553-.447 1-1 1z" fill="#d3374e"/><path d="m30.02 51.019-1.02 4h-12.98l4-4z" fill="#f6bb42"/><path d="m54 61.989v.01h-5.98v-.01-6.971l-4-4h-10-4-10l-4 4v6.98h-6.02v-.01-8.98c0-4.43 3.58-8 8-8h7l4 1.99 3-.99 3 .99 4-1.99h7c4.42 0 8 3.57 8 8z" fill="#ed5565"/><path d="m46 45.009h-3.003c4.42 0 8 3.57 8 8v8.98.01h3.003v-.01-8.98c0-4.43-3.58-8-8-8z" fill="#da4453"/><path d="m29 58.018h6v-2.999h13.02v6.97.01h-32v-6.98h12.98z" fill="#ffce54"/><path d="m29 55.019h6v2.999h-6z" fill="#e6e9ed"/><path d="m39 40.279v4.729l-4 1.99-3-.99-3 .99-4-1.99v-4.729c2.09 1.101 4.47 1.73 7 1.73s4.91-.629 7-1.73z" fill="#ffce54"/><path d="m48.02 55.019h-13.02l-.98-4h10z" fill="#f6bb42"/><path d="m34.02 51.019.98 4h-6l1.02-4z" fill="#ccd1d9"/><path d="m32 18c-8.18 0-12.72 1.5-15 2.66v-2.66c0-8.28 6.72-15 15-15 8.29 0 15 6.72 15 15v2.66c-2.28-1.16-6.82-2.66-15-2.66zm3-7c0-1.65-1.34-3-3-3-1.65 0-3 1.35-3 3 0 1.66 1.35 3 3 3 1.66 0 3-1.34 3-3z" fill="#ed5565"/><path d="m32 3c-.507 0-1.007.026-1.501.076 7.584.754 13.498 7.151 13.498 14.924v1.481c1.271.387 2.26.801 3.003 1.179v-2.66c0-8.28-6.71-15-15-15z" fill="#da4453"/><path d="m32 8c1.66 0 3 1.35 3 3 0 1.66-1.34 3-3 3-1.65 0-3-1.34-3-3 0-1.65 1.35-3 3-3z" fill="#ffce54"/><path d="m47 20.66c1.45.739 2 1.34 2 1.34h-2-30-2s.55-.601 2-1.34c2.28-1.16 6.82-2.66 15-2.66s12.72 1.5 15 2.66z" fill="#ffce54"/><path d="m47 22v5.01c0 5.75-3.24 10.75-8 13.27-2.09 1.101-4.47 1.73-7 1.73s-4.91-.63-7-1.73c-4.76-2.52-8-7.52-8-13.27v-5.01z" fill="#eac6bb"/><path d="m43.997 22v5.01c0 5.75-3.24 10.75-8 13.27-1.671.88-3.528 1.452-5.499 1.649.495.049.994.081 1.502.081 2.53 0 4.91-.63 7-1.73 4.76-2.52 8-7.52 8-13.27v-5.01z" fill="#d3b1a9"/><path d="m33.999 59.016h-3.998c-.553 0-1-.447-1-1s.447-1 1-1h3.998c.553 0 1 .447 1 1s-.447 1-1 1z" fill="#e6e9ed"/></svg>