<svg id="icons" enable-background="new 0 0 64 64" height="512" viewBox="0 0 64 64" width="512" xmlns="http://www.w3.org/2000/svg"><path d="m28.5 1 2 6h-10l2-6z" fill="#ccd1d9"/><path d="m22.5 1-2 6h-20l5-6z" fill="#f6bb42"/><path d="m45.5 1 5 6h-20l-2-6z" fill="#f6bb42"/><path d="m50.5 7v23.992c0 3.319-2.68 6-6 6h-2c-2.211 0-4-1.79-4-4v17.008l-38-.01v-42.99h20v9l5-2 5 2v-9z" fill="#ffce54"/><g fill="#edab37"><path d="m23.5 40.002h-18c-.553 0-1-.447-1-1s.447-1 1-1h18c.553 0 1 .447 1 1s-.447 1-1 1z"/><path d="m23.5 42.996h-18c-.553 0-1-.447-1-1s.447-1 1-1h18c.553 0 1 .447 1 1s-.447 1-1 1z"/><path d="m14.5 45.99h-9c-.553 0-1-.447-1-1s.447-1 1-1h9c.553 0 1 .447 1 1s-.447 1-1 1z"/></g><path d="m63.5 32.992c0-.553-.447-1-1-1s-1 .447-1 1c0 1.655-1.346 3.002-3.002 3.002h-2c-2.756 0-5-2.243-5-5 0-.553-.447-1-1-1s-1 .447-1 1c0 2.757-2.242 5-5 5h-2c-1.654 0-3.002-1.347-3.002-3.002 0-.553-.447-1-1-1s-1 .447-1 1v17.004c0 .004.004.008.004.013.004 6.612 5.385 11.989 11.998 11.989v.002c0 .553.447 1 1 1s1-.447 1-1c.006 0 .01-.003.014-.003 6.607-.007 11.98-5.381 11.986-11.988 0-.005.002-.009.002-.013z" fill="#ed5565"/><path d="m62.5 31.992c-.553 0-1 .447-1 1 0 1.655-1.346 3.002-3.002 3.002h-2c-2.756 0-5-2.243-5-5 0-.553-.445-.999-.998-1v33.006c.553-.001.998-.447.998-1 .006 0 .01-.003.014-.003 6.607-.007 11.98-5.381 11.986-11.988 0-.005.002-.009.002-.013v-17.004c0-.553-.447-1-1-1z" fill="#da4453"/><path d="m22.5 7h-2v9 .004c0 .011.006.02.006.03.002.066.023.131.039.197.016.064.025.131.053.189.004.01.002.021.008.03.047.095.109.176.178.248.016.015.033.024.049.039.072.064.15.117.234.158.029.014.059.026.09.038.109.04.223.068.342.069h.002c.002 0 .004-.001.006-.001.148-.001.287-.039.414-.098.008-.005.018-.003.027-.007l3.551-1.778 3.553 1.778c.01.005.02.002.029.007.125.059.264.097.412.098.002 0 .004.001.006.001h.002c.119-.001.232-.029.342-.069.031-.012.061-.024.088-.038.086-.041.166-.095.238-.16.014-.013.031-.022.045-.037.07-.071.133-.153.18-.248.006-.01.004-.021.008-.03.027-.059.037-.124.053-.188.016-.066.037-.131.039-.198 0-.011.006-.02.006-.03v-.004-9h-2z" fill="#e6e9ed"/></svg>