<?xml version="1.0" encoding="iso-8859-1"?>
<!-- Generator: Adobe Illustrator 19.0.0, SVG Export Plug-In . SVG Version: 6.00 Build 0)  -->
<svg version="1.1" id="Capa_1" xmlns="http://www.w3.org/2000/svg" xmlns:xlink="http://www.w3.org/1999/xlink" x="0px" y="0px"
	 viewBox="0 0 512 512" style="enable-background:new 0 0 512 512;" xml:space="preserve">
<path style="fill:#E8EAE9;" d="M448,159.384v259.2H64v-259.2c0-13.867,11.733-25.6,25.6-25.6h331.733
	C436.267,133.784,448,145.518,448,159.384z"/>
<polygon style="fill:#8AD7F8;" points="89.6,391.918 89.6,159.384 422.4,159.384 422.4,391.918 "/>
<path style="fill:#415A6B;" d="M512,483.651v18.133c0,5.333-4.267,9.6-9.6,9.6H9.6c-5.333,1.067-9.6-3.2-9.6-8.533v-17.067
	L512,483.651z"/>
<path id="SVGCleanerId_0" style="fill:#CED6E0;" d="M448,418.584H64l-60.8,57.6c-6.4,6.4-2.133,16,6.4,16h492.8
	c8.533,0,12.8-10.667,6.4-16L448,418.584z"/>
<g>
	<path id="SVGCleanerId_0_1_" style="fill:#CED6E0;" d="M448,418.584H64l-60.8,57.6c-6.4,6.4-2.133,16,6.4,16h492.8
		c8.533,0,12.8-10.667,6.4-16L448,418.584z"/>
</g>
<polygon style="fill:#ADB3BA;" points="182.4,471.918 215.467,439.918 296.533,439.918 329.6,471.918 "/>
<path style="fill:#F3705A;" d="M512,17.518v108.8c0,9.6-7.467,17.067-17.067,17.067h-83.2l-70.4,42.667v-42.667h-9.6
	c-9.6,0-17.067-7.467-17.067-17.067v-108.8c0-9.6,7.467-17.067,17.067-17.067h163.2C504.533,0.451,512,7.918,512,17.518z"/>
<g>
	<circle style="fill:#FFFFFF;" cx="357.333" cy="71.918" r="18.133"/>
	<circle style="fill:#FFFFFF;" cx="413.867" cy="71.918" r="18.133"/>
	<circle style="fill:#FFFFFF;" cx="470.4" cy="71.918" r="18.133"/>
</g>
<path style="fill:#CED6E0;" d="M314.667,391.918v-70.4c0-21.333-17.067-37.333-37.333-37.333h-81.067
	c-21.333,0-37.333,17.067-37.333,37.333v70.4H314.667z"/>
<g>
	<polygon style="fill:#F3705A;" points="257.067,391.918 249.6,323.651 224,323.651 215.467,391.918 	"/>
	<polygon style="fill:#F3705A;" points="249.6,323.651 262.4,310.851 236.8,284.184 210.133,310.851 224,323.651 	"/>
</g>
<path style="fill:#344A5E;" d="M382.933,391.918l-17.067-72.533c-3.2-12.8-12.8-21.333-25.6-24.533l-46.933-12.8l-22.4,109.867
	H382.933z"/>
<path style="fill:#F3F3F3;" d="M276.267,257.518c0,0,0,5.333-18.133,14.933c-18.133,9.6-21.333,12.8-21.333,12.8l37.333,37.333
	c0,0,13.867-36.267,13.867-37.333C288,283.118,277.333,264.984,276.267,257.518z"/>
<path style="fill:#415A6B;" d="M295.467,391.918C306.133,362.051,320,316.184,320,316.184l-19.2-9.6l12.8-4.267
	c0,0-10.667-16-20.267-21.333c-9.6-5.333-9.6-12.8-14.933-16c0,0-1.067,18.133-3.2,28.8c-2.133,10.667-13.867,74.667-17.067,98.133
	H295.467z"/>
<path style="fill:#344A5E;" d="M201.6,391.918l-22.4-109.867l-46.933,12.8c-12.8,2.133-22.4,11.733-25.6,24.533L89.6,391.918H201.6z
	"/>
<path style="fill:#F3F3F3;" d="M196.267,257.518c0,0,0,5.333,18.133,14.933c18.133,9.6,21.333,12.8,21.333,12.8L198.4,322.584
	c0,0-13.867-36.267-13.867-37.333C184.533,283.118,195.2,264.984,196.267,257.518z"/>
<path style="fill:#415A6B;" d="M177.067,391.918H214.4c-4.267-23.467-14.933-88.533-17.067-98.133c-2.133-10.667-3.2-28.8-3.2-28.8
	c-5.333,3.2-5.333,10.667-14.933,16c-9.6,5.333-20.267,21.333-20.267,21.333l12.8,4.267l-19.2,9.6
	C152.533,317.251,167.467,363.118,177.067,391.918z"/>
<path style="fill:#F7B64C;" d="M196.267,198.851v58.667c0,0,0,5.333,18.133,14.933c18.133,9.6,21.333,12.8,21.333,12.8
	s4.267-3.2,21.333-12.8c18.133-9.6,18.133-14.933,18.133-14.933v-58.667H196.267z"/>
<g>
	<path style="fill:#FFD15C;" d="M280.533,141.251c0-5.333-2.133-11.733-5.333-16c-3.2-4.267-7.467-7.467-12.8-9.6
		c-4.267-1.067-9.6-2.133-13.867-2.133c-8.533-1.067-18.133-1.067-26.667,1.067c0,0,0,0-1.067,0c-6.4-2.133-12.8-4.267-19.2-4.267
		c-7.467,0-13.867,4.267-17.067,10.667c-3.2,5.333-4.267,11.733-3.2,18.133c1.067,5.333,2.133,11.733,4.267,17.067
		c-4.267,9.6-6.4,21.333-6.4,33.067c0,40.533,25.6,73.6,57.6,73.6s57.6-33.067,57.6-73.6
		C295.467,171.118,290.133,154.051,280.533,141.251z"/>
	
		<ellipse transform="matrix(0.1455 -0.9894 0.9894 0.1455 61.6344 449.9174)" style="fill:#FFD15C;" cx="291.278" cy="189.278" rx="21.334" ry="9.6"/>
	
		<ellipse transform="matrix(0.1455 0.9894 -0.9894 0.1455 342.2281 -15.6957)" style="fill:#FFD15C;" cx="180.2" cy="190.27" rx="21.334" ry="9.6"/>
</g>
<path style="fill:#415A6B;" d="M183.467,204.184l3.2-1.067c0,0-5.333-11.733,0-25.6C192,162.584,192,157.251,192,149.784
	c-1.067-8.533-3.2-23.467,12.8-25.6s51.2-1.067,62.933,0c11.733,1.067,16,17.067,13.867,23.467c-2.133,6.4,2.133,19.2,3.2,27.733
	c1.067,7.467,0,26.667,0,26.667l2.133-1.067c0,0,0-13.867,4.267-21.333c3.2-7.467,5.333-16,5.333-34.133c0-23.467-6.4-28.8-6.4-28.8
	s8.533-24.533-21.333-36.267s-45.867-3.2-62.933,5.333c-17.067,8.533-28.8,25.6-33.067,36.267s2.133,53.333,5.333,59.733
	C180.267,184.984,183.467,204.184,183.467,204.184z"/>
<g>
</g>
<g>
</g>
<g>
</g>
<g>
</g>
<g>
</g>
<g>
</g>
<g>
</g>
<g>
</g>
<g>
</g>
<g>
</g>
<g>
</g>
<g>
</g>
<g>
</g>
<g>
</g>
<g>
</g>
</svg>
