<svg width="62" height="65" viewBox="0 0 62 65" fill="none" xmlns="http://www.w3.org/2000/svg">
<path d="M52.0224 44.1157H51.5471C47.269 44.1157 43.7039 40.5656 43.7039 36.3055V20.9217C43.7039 16.6616 47.269 13.1115 51.5471 13.1115H52.0224C56.3005 13.1115 59.8656 16.6616 59.8656 20.9217V36.1871C59.7468 40.5656 56.3005 44.1157 52.0224 44.1157Z" stroke="#00A19A" stroke-width="2" stroke-miterlimit="10"/>
<path d="M43.5847 28.6136H59.7465" stroke="#00A19A" stroke-width="2" stroke-miterlimit="10"/>
<path d="M24.0955 26.4835L23.739 26.8385C20.4116 29.5603 15.4205 29.2053 12.6872 25.8918L2.82382 14.1765C0.0905766 10.8631 0.447086 5.89291 3.77451 3.17116L4.13102 2.81615C7.45844 0.0943999 12.4496 0.449411 15.1828 3.76284L24.9274 15.4782C27.7795 18.7916 27.3041 23.6434 24.0955 26.4835Z" stroke="#00A19A" stroke-width="2" stroke-miterlimit="10"/>
<path d="M7.69604 19.975L20.055 9.56134" stroke="#00A19A" stroke-width="2" stroke-miterlimit="10"/>
<path d="M13.5191 61.7479L13.1626 61.3929C9.95398 58.4345 9.83515 53.4644 12.8061 50.3876L23.2637 39.1456C26.2346 35.9505 31.2257 35.8322 34.3155 38.7906L34.672 39.1456C37.8806 42.104 37.9994 47.0742 35.0285 50.1509L24.5709 61.3929C21.7188 64.4697 16.7277 64.588 13.5191 61.7479Z" stroke="#00A19A" stroke-width="2" stroke-miterlimit="10"/>
<path d="M18.0349 44.7075L29.9186 55.7128" stroke="#00A19A" stroke-width="2" stroke-miterlimit="10"/>
<path d="M35.0286 3.0528V10.9814" stroke="#00A19A" stroke-width="2" stroke-miterlimit="10"/>
<path d="M31.1069 7.07623H38.9501" stroke="#00A19A" stroke-width="2" stroke-miterlimit="10"/>
<path d="M6.62659 33.5837V41.5123" stroke="#00A19A" stroke-width="2" stroke-miterlimit="10"/>
<path d="M2.70496 37.4889H10.5482" stroke="#00A19A" stroke-width="2" stroke-miterlimit="10"/>
<path d="M61.0537 54.411L55.4684 59.9729" stroke="#00A19A" stroke-width="2" stroke-miterlimit="10"/>
<path d="M55.4684 54.411L61.0537 59.9729" stroke="#00A19A" stroke-width="2" stroke-miterlimit="10"/>
<path d="M35.0285 27.3119C35.6848 27.3119 36.2168 26.7821 36.2168 26.1285C36.2168 25.4749 35.6848 24.9451 35.0285 24.9451C34.3721 24.9451 33.8401 25.4749 33.8401 26.1285C33.8401 26.7821 34.3721 27.3119 35.0285 27.3119Z" stroke="#00A19A" stroke-width="2" stroke-miterlimit="10"/>
<path d="M48.6947 7.78626C49.351 7.78626 49.8831 7.25645 49.8831 6.60289C49.8831 5.94934 49.351 5.41953 48.6947 5.41953C48.0384 5.41953 47.5063 5.94934 47.5063 6.60289C47.5063 7.25645 48.0384 7.78626 48.6947 7.78626Z" stroke="#00A19A" stroke-width="2" stroke-miterlimit="10"/>
</svg>
