<svg width="64" height="68" viewBox="0 0 64 68" fill="none" xmlns="http://www.w3.org/2000/svg">
<path d="M30.9468 35.8444L18.8255 15.9638L6.58531 35.8444C3.73324 40.2228 1 43.6546 1 48.7431C1 58.565 8.96204 66.4936 18.8255 66.4936C28.6889 66.4936 36.6509 58.565 36.6509 48.7431C36.6509 43.6546 33.68 39.8678 30.9468 35.8444Z" stroke="#00A19A" stroke-width="2" stroke-miterlimit="10"/>
<path d="M11.0315 37.5011C9.13016 39.8678 7.46645 42.5896 6.87227 45.548C6.27809 48.7431 7.46646 51.7015 9.13017 54.4232C11.5069 58.21 15.3097 59.9851 19.7066 60.1034" stroke="#00A19A" stroke-width="2" stroke-miterlimit="10"/>
<path d="M58.6357 15.4904L50.3171 2L41.9986 15.4904C40.0972 18.4488 38.1958 20.8156 38.1958 24.2473C38.1958 30.8742 43.6623 36.3177 50.3171 36.3177C56.972 36.3177 62.4384 30.8742 62.4384 24.2473C62.4384 20.6972 60.4182 18.0938 58.6357 15.4904Z" stroke="#00A19A" stroke-width="2" stroke-miterlimit="10"/>
<path d="M46.4943 16.5555C45.1871 18.0938 44.1175 19.9872 43.761 21.9989C43.4045 24.129 44.1175 26.1407 45.3059 28.0341C46.8508 30.6375 49.4652 31.8209 52.4361 31.9392" stroke="#00A19A" stroke-width="2" stroke-miterlimit="10"/>
</svg>
