<svg width="71" height="70" viewBox="0 0 71 70" fill="none" xmlns="http://www.w3.org/2000/svg">
<path d="M61.6658 0C56.519 0 52.3317 4.22395 52.3317 9.41606C52.3317 14.608 56.519 18.8321 61.6658 18.8321C66.8126 18.8321 70.9999 14.6082 70.9999 9.41606C70.9999 4.22409 66.8127 0 61.6658 0ZM61.6658 16.0345C58.0481 16.0345 55.1051 13.0655 55.1051 9.4162C55.1051 5.76692 58.0481 2.79792 61.6658 2.79792C65.2833 2.79792 68.2265 5.76692 68.2265 9.4162C68.2265 13.0655 65.2833 16.0345 61.6658 16.0345Z" fill="#484D7E"/>
<path d="M70.4416 68.3464L67.4185 51.8843C67.2968 51.2212 66.7234 50.7401 66.055 50.7401H62.3279C62.2489 50.3132 62.1275 49.8913 61.9633 49.4797L54.8525 31.6483C53.5375 28.3499 49.8703 26.7016 46.5789 27.8753H41.727V27.7478C45.6225 25.5204 48.0949 21.2929 48.0949 16.7394C48.0949 15.7697 47.9841 14.8113 47.7692 13.8762C48.9866 13.0821 49.7976 11.9981 50.0836 10.6878C50.1927 10.1878 50.0224 9.66746 49.6394 9.33158C49.2564 8.99543 48.722 8.89751 48.2463 9.07573C47.8033 9.24191 47.3896 9.32613 47.0171 9.32613C46.2223 9.32627 45.5314 8.94283 44.7773 8.08293C42.4905 5.47582 39.3878 4.09778 35.8046 4.09778H35.7655C30.0525 4.11429 26.3624 6.67369 23.8056 12.3943C23.8038 12.3979 23.8022 12.4017 23.8004 12.4054C23.7967 12.4139 23.7925 12.4221 23.7888 12.4308C23.7834 12.4431 23.7795 12.456 23.7744 12.4686C23.7634 12.4952 23.7526 12.522 23.7432 12.5497C23.7361 12.5702 23.7304 12.5911 23.7243 12.612C23.7192 12.6297 23.7128 12.6469 23.7084 12.6651C23.7054 12.6773 23.7031 12.6895 23.7 12.7016C23.6996 12.704 23.6989 12.7063 23.6985 12.7086C22.9207 15.8968 23.2103 19.2364 24.5165 22.1177C25.6444 24.6048 27.4508 26.6154 29.6676 27.8755H24.2073C20.9152 26.702 17.2488 28.3502 15.9336 31.6485L8.82264 49.4798C8.65845 49.8913 8.53711 50.3133 8.45807 50.7402H3.73796C3.04848 50.7402 2.46384 51.2511 2.36539 51.9397L0.0142053 68.4016C-0.0432048 68.8033 0.0750822 69.2102 0.338559 69.5171C0.601896 69.8238 0.984353 70 1.38678 70H69.0779C69.4899 70 69.8805 69.8152 70.1441 69.4957C70.4075 69.1762 70.5165 68.755 70.4416 68.3464ZM42.4934 30.673H46.8312V30.6732C47.0084 30.6732 47.1842 30.6389 47.3487 30.572C49.2879 29.7856 51.4996 30.7364 52.2796 32.6925L59.3904 50.524C59.7662 51.466 59.7536 52.5044 59.355 53.4475C58.9565 54.3908 58.2227 55.1189 57.2888 55.4979C56.3897 55.8627 54.79 55.85 53.677 55.5341L54.6226 40.3426C54.6466 39.957 54.5115 39.5788 54.2494 39.2972C53.9873 39.0156 53.6215 38.856 53.2387 38.856H41.4875L40.5961 34.1435L42.4934 30.673ZM25.5251 44.3058H19.5404L19.3754 41.6539H32.1632C32.1644 41.6539 32.1657 41.654 32.1668 41.654C32.1678 41.654 32.1689 41.6539 32.1697 41.6539H40.3325C40.3345 41.6539 40.3365 41.6542 40.3386 41.6542C40.3405 41.6542 40.3423 41.6539 40.3443 41.6539H51.7619L50.5818 60.6102H20.5551L19.7146 47.1036H25.5251C26.2908 47.1036 26.9118 46.4771 26.9118 45.7047C26.9118 44.9322 26.2908 44.3058 25.5251 44.3058ZM38.3212 32.5115H33.8786L32.7097 30.6732H39.326L38.3212 32.5115ZM38.6637 38.8561H33.7783L34.3125 35.3092H37.9928L38.6637 38.8561ZM35.7732 6.8957H35.8046C38.5705 6.8957 40.9551 7.94738 42.7003 9.93702C43.5871 10.948 44.5308 11.6018 45.558 11.9123C45.5447 11.9185 45.5322 11.926 45.5191 11.9325C44.5613 12.3388 43.2903 12.5679 41.815 12.5679C39.3457 12.5679 36.5139 11.9123 33.841 10.7218C32.7553 10.2382 31.5884 9.99298 30.3722 9.99298C29.6308 9.99298 28.9252 10.0842 28.2757 10.2258C30.1153 7.90695 32.4615 6.90507 35.7732 6.8957ZM26.2689 13.9427C27.0602 13.5199 28.5983 12.7908 30.3722 12.7908C31.2001 12.7908 31.9901 12.9557 32.7208 13.2811C35.7824 14.6448 38.9272 15.3657 41.815 15.3657C43.0373 15.3657 44.1612 15.2308 45.1635 14.9772C45.2674 15.5561 45.3216 16.145 45.3216 16.7397C45.3216 20.5205 43.1328 24.0126 39.7452 25.6365C39.2618 25.8681 38.9537 26.36 38.9537 26.9V27.8757H32.5875V27.0885C32.5875 26.5351 32.2641 26.0338 31.7627 25.8095C27.5951 23.9463 25.3049 18.9211 26.2689 13.9427ZM11.3957 50.5241L18.5065 32.6926C19.2864 30.7368 21.4981 29.7854 23.4375 30.5722C23.602 30.6389 23.7777 30.6733 23.9549 30.6733H29.4147L31.6709 34.2217L30.973 38.8563H17.8988C17.516 38.8563 17.1502 39.016 16.8881 39.2975C16.6258 39.5791 16.4909 39.9573 16.5149 40.3429L17.4518 55.3943C16.2957 55.8319 14.5136 55.9103 13.4973 55.4981C12.5634 55.1192 11.8296 54.3911 11.4311 53.4478C11.0324 52.5045 11.0199 51.4661 11.3957 50.5241ZM2.98761 67.2025V67.2022L4.93913 53.5379H8.54529C8.62974 53.8785 8.7404 54.2152 8.87963 54.5447C9.56869 56.1754 10.8411 57.4357 12.4621 58.0935C13.2635 58.4187 14.231 58.5742 15.2214 58.5742C16.0355 58.5742 16.8649 58.4688 17.6305 58.267L17.8689 62.0968C17.9148 62.8338 18.5208 63.408 19.2528 63.408H51.8842C52.6163 63.408 53.2223 62.8339 53.2682 62.0968L53.5003 58.3685C54.1447 58.5044 54.8317 58.5749 55.5101 58.5749C56.5271 58.5747 57.5239 58.4183 58.3237 58.0938C59.9448 57.436 61.2171 56.1756 61.9062 54.5449C62.0454 54.2154 62.1559 53.8787 62.2405 53.5382H64.9015L67.4106 67.2025H2.98761Z" fill="#484D7E"/>
<path d="M62.1232 4.8725H62.1216C61.3564 4.8725 60.7357 5.4978 60.7349 6.26971L60.7321 8.87388L59.5986 8.8694H59.5929C58.8296 8.8694 58.2092 9.49205 58.2063 10.2627C58.2034 11.0353 58.8217 11.6641 59.5875 11.6672L62.1116 11.6773H62.1171C62.4836 11.6773 62.8353 11.5309 63.0952 11.27C63.3564 11.0079 63.5034 10.6516 63.5038 10.28L63.5083 6.27307C63.5091 5.50032 62.889 4.87334 62.1232 4.8725Z" fill="#484D7E"/>
</svg>
