<svg width="83" height="70" viewBox="0 0 83 70" fill="none" xmlns="http://www.w3.org/2000/svg">
<path d="M81.5283 53.9017H6.22713C5.41423 53.9017 4.75549 54.5656 4.75549 55.3849V68.5168C4.75549 69.3361 5.41423 70 6.22713 70H81.5283C82.3412 70 83 69.3361 83 68.5168V55.3849C83 54.5656 82.3412 53.9017 81.5283 53.9017ZM18.2338 63.8555L20.4203 61.0115C20.7333 60.5831 20.7987 60.018 20.5838 59.5331L19.3598 56.9246H54.9034V67.0384H20.4016L18.2338 63.8555ZM7.6941 56.8681H16.1315L17.6031 59.9192L15.3092 62.8761C14.9262 63.394 14.9262 64.1097 15.3092 64.6276L16.851 67.0384H7.6941V56.8681ZM80.0614 67.0384H57.8466V56.8681H80.0614V67.0384Z" fill="#484D7E"/>
<path d="M5.57775 48.0538C5.26941 48.8071 5.62914 49.6782 6.37664 49.989C6.98399 50.2385 7.68477 50.0596 8.09122 49.5322C14.9962 37.94 9.988 33.2456 6.32992 29.8084C2.67185 26.3712 0.452709 24.243 7.89967 16.0973C8.493 15.537 8.52103 14.6 7.96975 14.002C7.41847 13.4088 6.4841 13.3805 5.89544 13.9314C5.84405 13.9785 5.79733 14.0303 5.75528 14.0868C-3.06054 23.6356 -0.252744 27.6896 4.28364 31.9884C7.89967 35.3644 11.2494 38.5144 5.57775 48.0538Z" fill="#484D7E"/>
<path d="M19.4766 18.3056C24.0643 14.0068 26.8254 9.94805 18.0143 0.394548C17.4163 -0.156345 16.4912 -0.128094 15.9353 0.465175C15.4307 1.00665 15.4027 1.83534 15.8652 2.41449C23.3729 10.5602 21.023 12.7778 17.4396 16.1256C13.8516 19.4686 8.81069 24.2712 15.7764 35.8494C16.0848 36.6075 16.9491 36.97 17.6919 36.6545C18.4488 36.3438 18.8038 35.4774 18.4908 34.7241C18.4394 34.5969 18.3693 34.4792 18.2899 34.3662C12.5575 24.8033 15.9213 21.6345 19.4766 18.3056Z" fill="#484D7E"/>
</svg>
