<svg enable-background="new 0 0 2279.4 2179.2" viewBox="0 0 2279.4 2179.2" xmlns="http://www.w3.org/2000/svg"><g fill="#1d5b99"><path d="m1207.4 18.7c49.8 62.2-12.4 120.3-12.4 186.6l-4.2 439.6c-24.9 4.2-49.8 12.4-74.6 20.7v-8.3l-16.6-460.3c-8.3-66.4-33.2-157.6 41.5-194.9 20.7-4.1 49.7-4.1 66.3 16.6zm-920.6 501.8c12.4-49.8 53.9-95.4 78.8-145.1 49.8-53.9 103.7-103.7 170-124.4l16.6-12.4c-53.9 103.6-165.9 211.4-265.4 281.9zm1625.6-161.8c41.5 45.6 70.5 99.5 91.2 153.4l-132.7-116.1c-45.6-45.6-91.2-95.4-120.3-149.3 62.2 20.8 112 62.3 161.8 112zm-572.3-82.9c-4.2 8.3-12.4 12.4-20.8 16.6-16.6 0-37.3-8.3-53.9-8.3 16.6-4.2 33.2-16.6 49.8-16.6 8.3-8.3 20.8 0 24.9 8.3z"/><path d="m1464.5 441.7c33.2 62.2 24.9 149.3-16.6 207.3-74.7 112-215.6 107.8-331.8 145.1-45.6 8.3-95.4 45.6-107.8 95.4-4.2 41.5 24.9 70.5 53.9 91.2l16.6 8.3 4.1 87.1c-70.5-12.4-153.4-62.2-170-136.8-4.2-41.5 0-82.9 16.6-116.1 82.9-157.6 277.8-112 406.4-194.9 12.4-16.6 29-33.2 37.3-49.8-16.6-12.4-37.3-24.9-62.2-29-24.9-12.4-53.9-16.6-83-24.9v-24.9c53.9 12.4 103.7 24.9 149.3 53.9 4.2-12.4 4.2-29 0-41.5-4.2-58.1-62.2-99.5-116.1-112-8.3-4.2-20.7-8.3-33.2-4.2v-87.1c95.5 4.3 186.7 45.8 236.5 132.9zm655.2 286.1c-4.2 12.4-4.2 29-8.3 41.5-66.4-103.7-194.9-170-248.8-282 58.1 29 132.7 66.4 174.2 132.7 20.8 29 37.3 58.1 53.9 87.1 0-41.5-16.6-78.8-24.9-116.1-24.9-62.2-29-132.7-49.8-194.9 87.1 87.1 124.5 203.2 103.7 331.7zm-564-311 12.4 12.4c-16.6 0-37.3-4.1-45.6-20.7 12.5 0 29.1-8.3 33.2 8.3zm-1356 265.4c12.4 0 12.4-12.4 20.7-20.7 16.6-41.5 49.8-74.6 87.1-103.7l132.7-95.4c-24.9 74.6-99.5 145.1-165.9 194.9-34 34-65.8 70-95.4 107.8-16.6-124.4-20.7-261.2 62.2-356.6 12.5 99.5-20.7 182.5-41.4 273.7z"/><path d="m2206.8 852.2-53.9 186.6v4.2c-16.6-37.3-24.9-74.6-49.8-107.8l-87.1-124.4c-20.8-41.5-41.5-82.9-41.5-128.6l95.5 116.1c37.3 49.8 49.8 112 78.8 165.9 12.4-82.9 0-178.3 12.4-261.2 4.2-41.5 16.6-74.6 12.4-116.1 37.4 78.7 54 178.2 33.2 265.3zm-2069.3 12.5c4.2 37.3-8.3 78.8 8.3 112 4.2-16.6 4.2-33.2 12.4-49.8 24.9-87.1 78.8-165.9 149.3-240.5-12.4 141-145.1 232.2-161.7 369.1-49.8-136.8-132.7-311-37.3-456.2 4.1 91.2 16.5 178.3 29 265.4zm1364.3-116.2-4.2 4.1c-8.3-4.1-4.1-12.4-4.1-16.6 4.2 4.3 8.3 4.3 8.3 12.5zm4.2 45.7c0 4.2-4.2 4.2-4.2 8.3h-16.6c-4.1-12.4 4.2-24.9 16.6-29 0 8.2 16.6 16.5 4.2 20.7zm-331.8 431.3c-20.7 4.1-37.3 12.4-58.1 12.4l-8.3-406.4c20.7-12.4 49.8-12.4 70.5-20.7l-4.2 306.9v107.8zm319.3-389.9c0 4.2-8.3 8.3-12.4 4.2 0-4.2-12.5-8.3-4.2-12.4 8.3-.1 12.5 4.1 16.6 8.2z"/><path d="m8.9 864.7c24.9 120.3 112 215.6 141 335.9 8.3 20.7 12.4 45.6 24.9 66.3 8.3-33.2 4.2-70.5 8.3-107.8 8.3-83 24.9-165.9 74.6-236.4 24.9 149.3-66.4 261.3-62.2 406.4l-124.4-161.7c-58-87.1-87-194.9-62.2-302.7zm1069.9 16.5v62.2c-16.6-12.4-33.2-29-33.2-49.8 0-8.3 0-16.6 8.3-24.9 8.4 4.2 16.6 8.4 24.9 12.5zm1169.5 215.7-41.5 74.7-95.4 132.7-33.2 58.1c8.3-157.6-78.8-290.3-53.9-452 53.9 112 91.2 232.2 78.8 364.9 16.6-16.6 16.6-33.2 24.9-49.8l58-132.7c29-66.4 58.1-136.8 83-207.3 24.9 70.4 0 145-20.7 211.4zm-941.4-16.6c33.2 24.9 45.6 66.3 37.3 112-8.3 33.2-29 70.5-62.2 87.1-45.6 20.8-95.4 29-145.1 45.6-16.6 12.4-45.6 24.9-45.6 49.8v74.7c-29-8.3-49.8-37.3-53.9-66.3-8.3-33.2 0-70.5 29-91.2 62.2-45.6 145.1-37.3 194.9-99.5 8.3-12.4 4.2-33.2-4.2-45.6-12.4-16.6-29-20.7-45.6-33.2v-74.7c37.4 4 66.4 20.6 95.4 41.3zm-518.3 33.2c-8.3 0-16.6-4.2-16.6-12.4 4.2-8.3 4.2-20.7 8.3-29 16.6 4.1 4.1 28.9 8.3 41.4zm294.4 20.7c-4.1 0 0 12.4-8.3 8.3-4.2-4.2-8.3-8.3-4.2-12.4 4.2-4.2 12.5-4.2 12.5 4.1zm-294.4 29c-8.3 4.2-12.4-4.1-12.4-8.3 0-8.3 4.1-12.4 8.3-20.8 8.2 8.4-.1 20.8 4.1 29.1z"/><path d="m1224 1163.2c4.1 8.3 4.1 16.6 4.1 24.9-8.3 8.3-16.6 12.5-29 12.5-4.2-12.5 20.7-20.8 12.4-37.3 4.2 4.1 8.3-.1 12.5-.1zm787.9 356.7c41.5-33.2 53.9-78.8 82.9-116.1l91.2-107.8c20.8-29 41.5-49.8 62.2-78.8-16.6 153.4-136.8 273.7-261.3 369.1l-37.3 37.3c37.3-91.2 41.5-211.5 20.8-311-4.2-45.6 12.4-91.2 24.9-132.7 20.8 103.6 49.8 232.2 16.6 340zm-1849.5-141c29 41.5 58.1 82.9 91.2 124.4-4.1-103.7-20.7-223.9 16.6-319.3 20.7 29 20.7 66.3 29 99.5l4.1 49.8v199c0 24.9 12.4 45.6 16.6 70.5l-124.4-95.4c-99.5-91.2-170-194.9-186.6-323.5zm920.6-145.2c0 4.2-4.1 8.3-8.3 4.2 4.2-8.3 4.2-20.8 12.4-29 4.2 8.2 0 16.6-4.1 24.8zm-16.6 12.5-4.2 4.2c-4.2-4.2 0-16.6-4.2-20.8 8.4 0 4.3 12.4 8.4 16.6zm-642.8 24.9c4.1 8.3 0 16.6-4.2 24.9-4.2-8.3-12.4-12.4-8.3-24.9.1-8.3 12.5-4.2 12.5 0zm742.3 510c-8.3 8.3-4.2 12.4-12.4 16.6-12.4 8.3-20.7-8.3-24.9-16.6l-4.1-273.7-4.2-136.9c12.4-12.4 33.2-12.4 49.8-20.7v132.7z"/><path d="m1846 1723.1c-4.2 12.4-12.4 20.8-12.4 29 128.5-74.6 253-161.7 369.1-261.2-62.2 211.5-294.4 253-456.1 335.9 95.4-124.4 74.6-298.6 174.2-423-4.3 116.1-20.9 228-74.8 319.3zm-1443.1-219.8c37.3 103.7 45.6 219.8 107.8 311-120.3-49.8-253-82.9-352.5-186.6-37.3-41.5-66.4-82.9-82.9-132.7 4.2-4.2 8.3 0 8.3 4.1 91.2 82.9 194.9 120.3 286.1 199.1 24.9 16.6 41.5 41.5 66.4 49.8-12.4-45.6-41.5-87.1-58.1-132.7-20.7-62.2-37.3-132.7-29-207.3 24.9 24.8 37.3 62.1 53.9 95.3zm671.8-24.9c-4.2 4.2-12.4 4.2-16.6 0l-4.2-8.3h-4.1c-8.3-12.4-12.4-24.9-12.4-37.3 8.3 16.6 29 29 37.3 45.6z"/><path d="m1070.5 209.5c-190.8 16.6-352.5 99.5-493.5 240.5l95.4 91.2c107.8-107.8 236.4-161.7 373.2-203.2l24.9-8.3v82.9c-53.9 29-91.2 95.4-145.1 116.1-29 20.7-62.2 41.5-95.4 58.1-12.4-8.3-24.9 4.2-33.2 12.4l-16.6 37.3c-4.1-8.3 0-16.6 4.2-24.9-8.3 0-20.7 4.2-29 4.2 20.7-12.4 53.9-20.7 49.8-49.8 4.1-45.6 33.2-82.9 49.8-124.4 0-4.2 4.2-8.3 4.2-8.3-62.2 29-116.1 74.6-170 124.4 12.4 16.6 29 29 41.5 45.6l-8.3 8.3-41.5-41.5c-116.1 120.3-170 273.7-174.2 439.6h128.6c0-136.9 49.8-253 136.8-352.5l-4.2-4.2 4.2-8.3 8.3 4.2c82.8-86.9 182.3-132.6 294.3-153.3v24.9c-107.8 16.6-199 62.2-282 145.1l112 112c20.7-24.9 45.6-37.3 70.5-53.9 8.3 8.3 0 20.7-8.3 24.9-66.4 41.5-107.8 107.8-128.6 178.3 8.3 4.2 12.4-20.7 29-16.6 8.3 0 0-12.4 12.4-8.3 4.2 8.3 4.2 29 4.2 41.5 8.3 53.9 49.8 112 103.7 136.9l29 8.3c-4.2 4.1-20.7 8.3-20.7 20.7 0 4.2-4.2 8.3-4.2 12.4 8.3 8.3-8.3 20.8 0 29 12.4-8.3 33.2-20.7 33.2-37.3 12.4-16.6 29-20.8 45.6-24.9 4.2 4.1 8.3 4.1 12.4 12.5 0 4.1-4.1 4.1-8.3 8.3l-33.2 29-8.3-4.2-116 116.1c29 33.2 66.4 49.8 103.7 66.3-4.1 4.2-4.1 16.6-8.3 12.4-37.3-16.6-74.6-37.3-103.7-70.5l-95.4 95.4c12.4 8.3 12.4 37.3 33.2 41.5 12.4 8.3 12.4 16.6 12.4 29 70.5 49.8 149.3 82.9 232.2 91.2v16.7c-87.1-4.2-170-37.3-244.7-87.1-37.3-12.4-58.1 24.9-95.4 20.8-12.4-4.2-29-8.3-45.6-4.2l-16.6 16.6c112 116.1 248.8 174.2 402.3 186.6l-4.2 20.7c-149.3-12.4-286.1-70.5-398.1-178.3l-16.6-12.4-91.2 91.2c145.1 153.4 323.5 232.2 526.7 244.7 223.9 0 418.8-74.7 580.6-228.1 0-4.2 4.2-8.3 4.2-8.3l-95.4-95.4c-49.8 49.8-112 91.2-174.2 124.4-29 16.6-49.8 41.5-82.9 49.8l-12.4-12.4c-41.5 8.3-83 20.7-124.4 24.9l-4.1-20.7c29-4.2 62.2-8.3 91.2-16.6 0-16.6-24.9-24.9-37.3-33.2-12.4-12.4-24.9-29-16.6-49.8 16.6 20.7 29 49.8 53.9 53.9 29-24.9 12.4-70.5 12.4-103.7-8.3-8.3-20.7 0-29 0 8.3 8.3 8.3 24.9 12.4 37.3 4.2 8.3 0 16.6 4.2 24.9-12.4-4.2-20.7-20.8-29-33.2-8.3-8.3-12.4-20.7-24.9-20.7l-29 8.3v-20.7c4.2 0 8.3 0 16.6-4.2-33.2 0-12.4-33.2-16.6-49.8 20.7 8.3 41.5 24.9 53.9 41.5 8.3-4.1 24.9-4.1 20.8-12.4-20.8-24.9-45.6-45.6-74.7-58.1v-87.1c66.3-20.8 136.8-49.8 165.9-120.3 12.4-53.9 8.3-116.1-33.2-153.4-37.3-33.2-83-53.9-128.6-66.4v-157.5l24.9-12.4c12.4 16.6-16.6 41.5 12.4 49.8 16.6 0 16.6-16.6 20.8-24.9 0-8.3 8.3-20.7 16.6-24.9 16.6 0 20.8-24.9 41.5-16.6l153.4-153.4c-8.3-8.3 4.1-20.7 4.1-29l16.6 12.4c4.2-16.6 45.6-29 20.8-49.8l-12.4-12.4c16.6-49.8 12.4-107.8-12.5-149.3 0-4.2 4.2-8.3 8.3-12.4 16.6 12.4 33.2 33.2 58.1 29 12.4 16.6 33.2 33.2 29 58.1 4.1 8.3 12.4 16.6 24.9 16.6l82.9-82.9c-128.6-141-290.3-207.3-468.6-232.2v-37.3c286.1 24.9 580.6 257.1 680.1 535 128.6 335.9 29 717.4-240.5 957.9-145.1 120.2-306.9 190.7-501.8 194.9-215.6 8.3-402.3-58.1-559.8-190.8-265.4-232.2-369.1-601.3-244.7-933 70.5-232.2 294.4-460.3 526.7-526.7 58.1-20.7 116.1-33.2 178.3-41.5zm-161.7 232.2c-8.3 4.2-12.4 8.3-12.4 16.6 4.1 4.2 4.1 16.6 16.6 12.4 8.3-4.2 16.6-8.3 12.4-16.6-4.1-8.3-12.4-16.6-16.6-12.4zm804.5 8.3-82.9 82.9 20.7 24.9c20.8 16.6 20.8 53.9 53.9 58.1 8.3 37.3 45.6 62.2 66.3 95.4 12.4 24.9-20.8 16.6-29 33.2 37.3 78.8 58.1 170 53.9 265.4h132.7c-4.1-211.6-74.6-402.4-215.6-559.9zm-1144.5 8.3c-141 157.6-211.5 344.2-219.8 551.5h132.7c8.3-174.2 66.3-327.6 182.5-456.2-33.2-33.1-62.2-66.3-95.4-95.3zm970.3 170-29 24.9c37.3 37.3 53.9 87.1 95.4 116.1 0 20.7 8.3 33.2 12.4 49.8-8.3 8.3 4.2 16.6 4.2 24.9 4.1-8.3 0-24.9 8.3-29 29 16.6 0 45.6 4.2 70.5 12.4 37.3 12.4 82.9 20.7 124.4h120.3c0-87.1-16.6-170-49.8-244.7-4.1 0-8.3 4.2-12.4 4.2-16.6-16.6-24.9-41.5-37.3-62.2-8.3-4.2-20.8-4.2-29-4.2-4.2 0-12.4-12.4-16.6-8.3-12.4-12.4-33.2-4.2-45.6-12.4-8.4-25-33.3-33.3-45.8-54zm-642.7 153.4-112-107.8c-87.1 95.4-124.4 207.3-132.7 335.9h91.2c8.3-12.4 20.7-16.6 29-24.9 4.2-24.9 33.2-20.7 45.6-45.6 16.6-53.9 41.5-107.8 78.8-153.4zm593-107.8-103.7 107.8c8.3 12.4 16.6 33.2 33.2 29 0 4.2-4.2 8.3-8.3 8.3 12.4 20.7 37.3 24.9 58 24.9 12.5 4.2 8.3 16.6 12.5 24.9 20.7 12.4 0 33.2 8.3 49.8 12.4-4.2 20.8-24.9 37.3-20.7 16.6 8.3 4.2 29 12.4 41.5 29 4.1 37.3-24.9 45.6-41.5 12.4 24.9-8.3 49.8-24.9 66.3-8.3 4.2-16.6 4.2-24.9 8.3 0 16.6-12.4 33.2-24.9 37.3h120.2c0-16.6 0-41.5-4.2-58.1-4.1 4.2-12.4 16.6-20.7 12.4-4.2-24.9-4.2-62.2 4.1-91.2-4.1-4.1-4.1-20.7-12.4-16.6-4.1-33.2-45.6-49.8-45.6-78.8h16.6l-12.3-20.7c0 4.1 0 8.3-4.1 12.4-24.9-8.3-20.8-33.2-29-53.9-16.6-8.2-12.5-33.1-33.2-41.4zm-120.3 124.4h-4.2c8.3 0 8.3 4.2 12.4 4.2zm-24.9 24.9-24.9 20.7c12.4 8.3 24.9 0 41.5 4.2 12.4 4.1-4.2 20.7 8.3 29 0-4.2 4.1 0 4.1 0 4.2-8.3 0-16.6-4.1-24.9 8.3-8.3 20.7-8.3 29-12.4 4.2-8.3-4.1-12.4-4.1-16.6-12.4 4.2-29 0-37.3 8.3-4.2 0-12.5 0-12.5-8.3zm-41.4 20.7c-4.1-4.1 8.3-8.3 8.3-12.4zm-953.8 182.5c8.3 211.5 74.6 398.1 219.8 551.6 33.2-33.2 66.4-62.2 95.4-95.4l-45.6-45.6c-8.3-4.2-16.6 0-24.9-4.2 0-16.6-4.2-33.2-8.3-49.8-16.6-16.6-41.5-16.6-62.2-20.8-12.4-8.3-24.9-24.9-20.7-37.3 8.3-33.2-29-33.2-41.5-53.9-16.6 0-20.7-12.5-29-20.8-8.3 4.2-16.6 12.4-24.9 8.3-4.2-8.3-4.2-24.9 0-29 12.4-29 37.3-16.6 58.1-16.6 12.4-8.3 24.9-12.4 37.3-16.6-12.4-53.9-20.7-112-20.7-170zm282 0h-124.4c0 62.2 8.3 116.1 24.9 170 16.6 4.2 29 12.4 41.5 20.7 0-12.4-8.3-20.7-4.2-29 12.4-12.4 8.3-29 8.3-45.6 4.2-29 37.3-41.5 58.1-58.1zm20.7 0 8.3 58.1c12.4 8.3 24.9 16.6 41.5 20.7 16.6-8.3 24.9-29 29-49.8 12.4-49.7-49.8-16.6-78.8-29zm136.9 4.1c-16.6 4.2-12.4 29-33.2 33.2 0 16.6-8.3 29-20.7 41.5-4.2 8.3-8.3 16.6 0 20.8 16.6 8.3 12.4 29 12.4 45.6 24.9 16.6 16.6 49.8 8.3 70.5 24.9 16.6 29 45.6 37.3 70.5-8.3 4.1-12.4 12.4-8.3 24.9 0 8.3 8.3 8.3 16.6 8.3 29-33.2 66.4-62.2 95.4-95.4-53.9-66.3-82.9-136.8-87.1-219.8-8.3-4.2-12.4-.1-20.7-.1zm709.1-4.1c-4.1 20.7 8.3 41.5 8.3 58.1 0 4.2 4.2 12.4 8.3 12.4 8.3 0 4.2-8.3 12.4-12.4 16.6 0 29 12.4 41.5 20.7l-8.3 12.5c-16.6 4.1-24.9 20.7-41.5 20.7-12.4 24.9-49.8 16.6-58.1 45.6-4.2 4.1-8.3 16.6-16.6 8.3 8.3 37.3-41.5 33.2-53.9 58.1 12.4-20.8 41.5 0 45.6-24.9 8.3-8.3 12.4-4.2 20.7 0-4.1 20.7-8.3 41.5-8.3 62.2-4.2 4.2-8.3 20.8-16.6 20.8 0 0 0 4.2 4.2 4.2 4.1-8.3 12.4-16.6 16.6-20.8 37.3 4.2 8.3 53.9 33.2 70.5 91.2-95.4 136.9-203.2 145.1-335.9zm153.4 0c-8.3 136.8-53.9 257.1-145.1 352.5l16.6 20.7v-4.1c4.1-4.2 12.4-4.2 16.6 0-4.1 33.2 37.3 49.8 53.9 74.6 116.1-124.4 174.2-269.5 182.5-443.7zm145.2 0c-4.2 178.3-66.3 331.8-186.6 460.3l95.4 95.4 24.9-29c124.4-149.3 194.9-323.5 199.1-526.7zm-970.4 4.1 4.2 33.2c4.2-8.3 4.2-16.6 4.2-29zm12.4 74.7c12.4 49.8 37.3 91.2 70.5 128.6l58.1-58.1c0-4.1-4.2-8.3-8.3-12.4-29-8.3-24.9-41.5-53.9-53.9-4.2 8.3-16.6 0-24.9 4.2-8.3-16.7-29-.1-41.5-8.4zm576.4 207.3c-12.4 8.3-33.2 8.3-49.8 4.1l-4.2 8.3c20.8 8.3 41.5 0 62.2-4.2zm78.8 78.8-33.2 29c0 16.6 16.6 24.9 29 33.2-4.2 16.6-4.2 33.2-20.8 45.6 4.2 29-20.7 49.8-12.4 82.9 45.6-24.9 87.1-58 124.4-99.5l-29-29c0 8.3-4.2 16.6-8.3 20.7-16.6-4.2-20.7-20.7-24.9-37.3 16.7-20.7-16.5-29-24.8-45.6zm-808.6 74.7h-4.2l-4.2-4.2c.1 0 4.2 4.2 8.4 4.2zm953.8 435.4c12.4 0 29-8.3 41.5-12.4 132.7-37.3 277.9-49.8 389.8-136.9l16.6-16.6c-4.2 20.8-16.6 37.3-24.9 58.1-53.9 66.4-128.6 95.4-199.1 116.1-91.2 33.2-203.2 12.4-298.6 33.2l41.5-66.3 95.4-194.9 87.1-91.2c-24.9 111.8-87.1 211.4-149.3 310.9zm-1099-244.7c49.8 62.2 82.9 128.6 107.8 203.2 20.7 24.9 33.2 53.9 45.6 82.9-8.3 0-20.7-4.2-29-8.3l-153.4-8.2c-70.5-4.2-128.6-33.2-190.8-53.9-49.8-29-99.5-70.5-128.6-120.3 41.5 20.8 87.1 45.6 136.8 58.1l174.2 45.6c24.9 0 41.5 16.6 62.2 24.9 29 8.3 53.9 20.8 82.9 24.9-66.4-91.2-145.1-182.5-157.6-294.4 16.8 8.2 37.5 24.8 49.9 45.5zm539.1 311c-20.7 16.6-45.6 29-66.4 45.6-49.8-4.2-99.5 8.3-145.1 16.6-132.7 33.2-306.9 66.3-427.1-16.6l-53.9-33.2c37.3 8.3 74.6 24.9 120.3 24.9 45.6 4.2 99.5 4.2 141-12.4l157.6-49.8c91.2-16.5 194.9-16.5 273.6 24.9zm617.9 29.1c70.5 4.2 136.9 4.2 194.9-24.9-82.9 74.6-190.7 99.5-306.9 95.4-132.7-24.9-257.1-74.7-398.1-53.9-66.4 20.7-132.7 33.2-186.6 82.9-29 20.7-58.1 53.9-87.1 82.9-10.3-10.2-23.2-17.3-37.3-20.8 153.4-149.3 331.8-248.8 551.5-211.5 91.3 12.5 174.3 49.9 269.6 49.9z"/><path d="m1398.1 2166.8c-12.4 8.3-24.9 8.3-37.3 12.4-49.8-49.8-95.4-95.4-149.3-132.7 12.4-8.3 24.9-4.1 37.3-12.4 49.8 41.4 107.9 82.9 149.3 132.7z"/></g></svg>