<?xml version="1.0" encoding="UTF-8"?>
<svg width="26px" height="21px" viewBox="0 0 26 21" version="1.1" xmlns="http://www.w3.org/2000/svg" xmlns:xlink="http://www.w3.org/1999/xlink">
    <!-- Generator: sketchtool 42 (36781) - http://www.bohemiancoding.com/sketch -->
    <title>84571B3E-D19E-45C8-A492-EB3B43A3DFC3</title>
    <desc>Created with sketchtool.</desc>
    <defs></defs>
    <g id="Symbols" stroke="none" stroke-width="1" fill="none" fill-rule="evenodd">
        <g id="new_head" transform="translate(-935.000000, -19.000000)" fill="#55BFEE">
            <g id="social" transform="translate(866.000000, 19.000000)">
                <g id="social-media19">
                    <g id="twitter" transform="translate(69.000000, 0.000000)">
                        <path d="M23.6647522,4.95177171 C22.9771119,5.24366603 22.2383001,5.44097597 21.4627704,5.52969032 C22.2542866,5.07546167 22.8622132,4.35620807 23.148511,3.49911354 C22.4076187,3.91976422 21.5871953,4.22518057 20.7138484,4.38975111 C20.0145285,3.67643742 19.0180706,3.23076923 17.9153277,3.23076923 C15.797987,3.23076923 14.0814048,4.87399379 14.0814048,6.9009018 C14.0814048,7.1885683 14.1153123,7.46868762 14.1806819,7.7373464 C10.9943234,7.5842364 8.16926802,6.12308765 6.2783303,3.90250353 C5.94830678,4.44457301 5.75920571,5.07504238 5.75920571,5.74768513 C5.75920571,7.02106275 6.43604228,8.14447503 7.46480174,8.80265235 C6.83632628,8.78357474 6.24515276,8.6184801 5.72829109,8.34356694 C5.7279261,8.35887095 5.7279261,8.37424485 5.7279261,8.38972356 C5.7279261,10.1679938 7.04951666,11.6513648 8.80336431,11.9886121 C8.48169905,12.0724348 8.14295227,12.1174384 7.79329231,12.1174384 C7.5462309,12.1174384 7.3060678,12.0943775 7.07192702,12.0514704 C7.55984501,13.5095443 8.97571236,14.5708321 10.6534232,14.600357 C9.34128587,15.5848452 7.68813883,16.1715339 5.8918429,16.1715339 C5.58236828,16.1715339 5.27720054,16.1542033 4.97725216,16.1201362 C6.67394245,17.1616126 8.68923209,17.7692308 10.8543499,17.7692308 C17.906349,17.7692308 21.7627188,12.176558 21.7627188,7.32644417 C21.7627188,7.16732438 21.7589229,7.00904316 21.7515866,6.85160052 C22.5007641,6.33416421 23.1507739,5.68776189 23.6647522,4.95177171 L23.6647522,4.95177171 Z" id="twtr"></path>
                    </g>
                </g>
            </g>
        </g>
    </g>
</svg>