<?xml version="1.0" encoding="UTF-8"?>
<svg width="26px" height="21px" viewBox="0 0 26 21" version="1.1" xmlns="http://www.w3.org/2000/svg" xmlns:xlink="http://www.w3.org/1999/xlink">
    <!-- Generator: sketchtool 42 (36781) - http://www.bohemiancoding.com/sketch -->
    <title>07AAE04E-BAA7-4BF7-AE8C-CAD2848DBB25</title>
    <desc>Created with sketchtool.</desc>
    <defs></defs>
    <g id="Symbols" stroke="none" stroke-width="1" fill="none" fill-rule="evenodd">
        <g id="new_head" transform="translate(-899.000000, -19.000000)" fill-rule="nonzero" fill="#D8362A">
            <g id="social" transform="translate(866.000000, 19.000000)">
                <g id="social-media19">
                    <g id="youtube" transform="translate(33.000000, 0.000000)">
                        <path d="M21.8137773,6.91476878 C21.8137773,6.91476878 22,8.47955146 22,10.0442994 L22,11.4863561 C22,13.0204485 21.8137773,14.5852312 21.8137773,14.5852312 C21.8137773,14.5852312 21.6275898,15.9045619 21.1,16.4875017 C20.4172305,17.2238578 19.6413672,17.254548 19.3,17.2852382 C16.7862227,17.5 13,17.5 13,17.5 C13,17.5 8.31377734,17.4693098 6.88622266,17.3159631 C6.48276953,17.2238925 5.58276953,17.2545827 4.9,16.4875365 C4.37244531,15.9045966 4.18622266,14.585266 4.18622266,14.585266 C4.18622266,14.585266 4,13.0511735 4,11.4863908 L4,10.0443341 C4,8.47955146 4.18622266,6.91476878 4.18622266,6.91476878 C4.18622266,6.91476878 4.34136719,5.59547287 4.9,5.01249826 C5.58276953,4.27614221 6.35863281,4.24545202 6.7,4.21476183 C9.21377734,4.03069019 13,4 13,4 C13,4 16.7862227,4.03069019 19.3,4.21476183 C19.6413672,4.24545202 20.4172305,4.24545202 21.1,5.01249826 C21.6275547,5.59543812 21.8137773,6.91476878 21.8137773,6.91476878 Z M10.2,7.6 L10.2,13.9 L16.5,10.8226003 L10.2,7.6 Z" id="yt"></path>
                    </g>
                </g>
            </g>
        </g>
    </g>
</svg>