<svg id="Группа_1" data-name="Группа 1" xmlns="http://www.w3.org/2000/svg" width="456" height="99" viewBox="0 0 456 99">
  <defs>
    <style>
      .cls-1 {
        fill: #283244;
      }

      .cls-1, .cls-2 {
        fill-rule: evenodd;
      }

      .cls-2 {
        fill: #e59b44;
      }
    </style>
  </defs>
  <path id="Фигура_1" data-name="Фигура 1" class="cls-1" d="M1.525,27.03l4.29-1.146a29.783,29.783,0,0,0,.094,3.439q5.434-3.631,15.251-3.63,10.58,0,15.823,6.643t5.242,18.589q0,10.607-5.147,17.586T21.542,75.486q-1.715,0-13.725-1.146,0.19,6.977.763,21.7Q7.721,99,5.242,99a4.933,4.933,0,0,1-3.288-1.386A5.878,5.878,0,0,1,0,94.218Q0.286,86.192.62,62.966T1.525,27.03Zm5.242,8.7L7.53,65.545a24.82,24.82,0,0,0,12.106,2.869,14.59,14.59,0,0,0,11.153-4.97A17.27,17.27,0,0,0,35.363,51.3,22.359,22.359,0,0,0,30.6,37.351Q25.83,31.14,18.683,31.139,12.868,31.139,6.767,35.726ZM81.5,59.237l-4.177-.285q-2-5.353-6.74-5.353a11.646,11.646,0,0,0-4.415.955,22.836,22.836,0,0,0-3.843,1.96q-1.52,1-3.988,2.915,0,1.34-.049,8.7t0.1,16.342q0.143,8.987.335,9.653-0.865,2.868-3.37,2.867A5.023,5.023,0,0,1,52.018,95.6a5.851,5.851,0,0,1-1.976-3.393q1.831-30.68,3.281-46.353l4.342,0.955,0.289,6.4q6.643-5.541,11.392-5.543a15.422,15.422,0,0,1,8.781,2.389,7.877,7.877,0,0,1,3.561,6.978A9.749,9.749,0,0,1,81.5,59.237Zm6.1-12.71,4.385,0.955q0.762,7.838,1.334,24.61t0.762,20.788q-0.858,2.964-3.336,2.963a4.922,4.922,0,0,1-3.288-1.386A5.872,5.872,0,0,1,85.5,91.064q0.189-3.917.763-20.405T87.6,46.528Zm21.638,10.808,0.381,37.934a7.179,7.179,0,0,1-3.431.766,14.234,14.234,0,0,1-3.432-.479q0.287-6.02.382-23.7T103.9,45.666l4.289,0.955,0.286,5.353A15.577,15.577,0,0,1,120.1,46.621a23.96,23.96,0,0,1,5.338.478,8.212,8.212,0,0,1,3.86,2.343,11.785,11.785,0,0,1,2.812,4.922,56.386,56.386,0,0,1,1.715,8.744q0.762,5.688,1.1,13.286t0.428,19.161a8.152,8.152,0,0,1-2.192.192,13.29,13.29,0,0,1-5.337-.861,23.506,23.506,0,0,1-.382-5.078q0-1.818.143-6.848t0.143-7.807q0-4.6-.333-8.047a41.313,41.313,0,0,0-1.24-6.8,11.156,11.156,0,0,0-2.763-5.173,6.353,6.353,0,0,0-4.623-1.82,19.535,19.535,0,0,0-4.909.48,6,6,0,0,0-2.479,1.148A29.05,29.05,0,0,0,109.235,57.336Zm65.959-9.089-0.476,4.111a49.459,49.459,0,0,0-6.864-.574,15.386,15.386,0,0,0-10.866,3.968,20.292,20.292,0,0,0-5.861,9.366,42.8,42.8,0,0,0-1.573,11.994,34.76,34.76,0,0,0,.381,5.449,19.217,19.217,0,0,0,1.381,4.683,7.659,7.659,0,0,0,3.146,3.583,10.091,10.091,0,0,0,5.291,1.292,45.783,45.783,0,0,0,10.675-1.625,9.518,9.518,0,0,1,3.146-.766q2.287,0,2.764,5.353A51.421,51.421,0,0,1,160.8,97.755q-10.39,0-14.06-5.114T143.072,76.06a66.529,66.529,0,0,1,.906-11.709,32.309,32.309,0,0,1,3.193-9.366,15.522,15.522,0,0,1,6.624-6.643,22.507,22.507,0,0,1,10.628-2.293Q171.476,46.049,175.194,48.246ZM216.18,86.381l0.954,4.2A108.992,108.992,0,0,1,204.7,93.979a61.7,61.7,0,0,1-12.25,1.864A10.386,10.386,0,0,1,185.3,93.12a16.691,16.691,0,0,1-4.575-6.978,49.888,49.888,0,0,1-2.24-8.409,48.147,48.147,0,0,1-.715-8.172q0-23.891,21.541-23.894a13.621,13.621,0,0,1,9.055,3.3,10.671,10.671,0,0,1,3.909,8.555,8.485,8.485,0,0,1-1.573,5.064,12.05,12.05,0,0,1-3.813,3.489,27.551,27.551,0,0,1-5.719,2.342,55.294,55.294,0,0,1-6.148,1.529q-2.668.479-6.386,1.051t-5.147.859q0.095,2.775.333,4.875a26.981,26.981,0,0,0,.953,4.539,12.372,12.372,0,0,0,1.907,4.015,9.16,9.16,0,0,0,3.288,2.628,10.924,10.924,0,0,0,4.957,1.053,69.174,69.174,0,0,0,8.387-.622q4.956-.622,8.818-1.29T216.18,86.381ZM183.868,65.928a128.86,128.86,0,0,0,21.255-7.837,11.217,11.217,0,0,0-1.811-4.587,4.123,4.123,0,0,0-3.43-1.433,15.855,15.855,0,0,0-10.534,4.013A15.168,15.168,0,0,0,183.868,65.928Zm66.437-16.342-0.954,3.822q-9.246-3.822-14.393-3.822-4.576,0-6.435,1.386t-1.857,5.877a7.792,7.792,0,0,0,2.621,6.021,19.258,19.258,0,0,0,6.339,3.776q3.715,1.385,7.482,2.963a16.874,16.874,0,0,1,6.386,4.635,11.2,11.2,0,0,1,2.621,7.55,14.842,14.842,0,0,1-4.48,10.7,15.848,15.848,0,0,1-11.628,4.683,22.23,22.23,0,0,1-9.818-2.217,20.326,20.326,0,0,1-7.243-5.594l2.763-2.893q1.143,0.478,3.385,1.529t3.193,1.385a22.73,22.73,0,0,0,2.811.718,19.579,19.579,0,0,0,3.955.383,12.567,12.567,0,0,0,7.341-1.994,6.446,6.446,0,0,0,2.859-5.606,6.249,6.249,0,0,0-1.334-4.037,9.881,9.881,0,0,0-3.527-2.706q-2.2-1.044-4.814-2T230.335,72a24.831,24.831,0,0,1-4.814-2.867A11.865,11.865,0,0,1,222,64.59,15.933,15.933,0,0,1,220.66,57.8a14.9,14.9,0,0,1,3.1-9.605,10.538,10.538,0,0,1,8.723-3.87,21.291,21.291,0,0,1,4.957.67q2.761,0.667,4.384,1.242t4.814,1.864Q249.826,49.394,250.305,49.586Zm36.983,0-0.955,3.822q-9.245-3.822-14.391-3.822-4.575,0-6.436,1.386t-1.857,5.877a7.8,7.8,0,0,0,2.62,6.021,19.289,19.289,0,0,0,6.339,3.776q3.719,1.385,7.482,2.963a16.862,16.862,0,0,1,6.387,4.635,11.2,11.2,0,0,1,2.622,7.55,14.843,14.843,0,0,1-4.481,10.7,15.848,15.848,0,0,1-11.628,4.683,22.23,22.23,0,0,1-9.818-2.217,20.339,20.339,0,0,1-7.244-5.594l2.764-2.893q1.141,0.478,3.384,1.529t3.193,1.385a22.755,22.755,0,0,0,2.812.718,19.569,19.569,0,0,0,3.954.383,12.565,12.565,0,0,0,7.341-1.994,6.442,6.442,0,0,0,2.86-5.606,6.25,6.25,0,0,0-1.335-4.037,9.864,9.864,0,0,0-3.527-2.706q-2.192-1.044-4.814-2T267.317,72A24.823,24.823,0,0,1,262.5,69.13a11.857,11.857,0,0,1-3.526-4.54,15.933,15.933,0,0,1-1.336-6.786,14.9,14.9,0,0,1,3.1-9.605,10.538,10.538,0,0,1,8.723-3.87,21.276,21.276,0,0,1,4.956.67q2.766,0.667,4.385,1.242t4.813,1.864Q286.809,49.394,287.288,49.586Zm64.244-22.652,5.528-1.146q1.714,13.475,2.145,37.417t0.905,31.683q-0.857,2.961-3.337,2.963a4.843,4.843,0,0,1-3.286-1.434,6.09,6.09,0,0,1-1.955-3.441q0.093-3.442.1-11.47V62.679q-2.108.1-5.887,0.43t-6.893.526q-3.111.191-5.888,0.192-2.487,0-3.636-.1,0.191,5.828.668,16.486t0.666,14.671q-0.859,2.961-3.309,2.963a4.75,4.75,0,0,1-3.245-1.434,6.1,6.1,0,0,1-1.928-3.441q0.281-8.218.515-31.923t0.894-35.266l4.234,0.955c0,0.192.013,0.494,0.047,0.909s0.048,0.75.048,1q1.219,23.512,1.41,29.437,3.254-.287,6.941-0.62t8.136-.765q4.449-.431,6.941-0.622a1.9,1.9,0,0,0,.1-0.955q0-.954.047-7.741T351.532,26.934Zm19.825,27.431-1.9-4.875a17.878,17.878,0,0,1,6.291-3.968,20.683,20.683,0,0,1,7.529-1.481q16.105,0,16.108,27.908,0,3.825-.428,11.278T398.524,94.41q-0.764,2.961-2.955,2.963a4.081,4.081,0,0,1-3.145-1.721,5.824,5.824,0,0,1-1.43-3.822,3.347,3.347,0,0,1,.1-0.957q-5.911,5.736-12.583,5.736a12.21,12.21,0,0,1-8.818-3.68,12.02,12.02,0,0,1-3.764-8.936q0-8.891,6.91-16.057t15.68-7.169a6.512,6.512,0,0,1,.763.048q0.38,0.051.9,0.144a4.668,4.668,0,0,0,.811.1q-0.764-11.086-8.866-11.087Q377.363,49.967,371.357,54.365ZM391.28,84.278q0.189-6.687.189-10.13,0-2.868-.189-8.028h-0.763a18.546,18.546,0,0,0-12.344,5.066A15.551,15.551,0,0,0,372.6,83.227a6.5,6.5,0,0,0,1.857,4.874,6.233,6.233,0,0,0,4.528,1.816Q383.176,89.918,391.28,84.278Zm19.253-54.86a5.209,5.209,0,0,1,4.291,2.247,8.2,8.2,0,0,1,1.714,5.114,5.381,5.381,0,0,1-1,3.393,3.256,3.256,0,0,1-2.716,1.29,4.826,4.826,0,0,1-4.194-2.2A8.818,8.818,0,0,1,407.1,34.1a5.776,5.776,0,0,1,.9-3.391A2.908,2.908,0,0,1,410.533,29.418ZM409.2,46.528l4.384,0.955q0.763,7.838,1.336,24.61t0.762,20.788q-0.859,2.964-3.337,2.963a4.928,4.928,0,0,1-3.288-1.386,5.872,5.872,0,0,1-1.953-3.393q0.188-3.917.762-20.405T409.2,46.528Zm46.612,12.71-4.178-.285q-1.995-5.353-6.74-5.353a11.636,11.636,0,0,0-4.414.955,22.861,22.861,0,0,0-3.845,1.96q-1.52,1-3.987,2.915,0,1.34-.05,8.7t0.1,16.342q0.143,8.987.336,9.653-0.865,2.868-3.37,2.867A5.03,5.03,0,0,1,426.33,95.6a5.839,5.839,0,0,1-1.974-3.393q1.832-30.68,3.28-46.353l4.341,0.955,0.288,6.4q6.645-5.541,11.393-5.543a15.422,15.422,0,0,1,8.781,2.389A7.877,7.877,0,0,1,456,57.04,9.771,9.771,0,0,1,455.811,59.237Z"/>
  <path id="Фигура_2" data-name="Фигура 2" class="cls-2" d="M80.715,9.055l1.261,29.221,15.861,0.5,4.622-28.956L94.581,27.833,91.815,2.207l-4.9,25.727Zm13.41-6.849a2.313,2.313,0,0,1-4.622,0A2.313,2.313,0,0,1,94.125,2.207Zm10.645,7.23a2.313,2.313,0,0,1-4.622,0A2.313,2.313,0,0,1,104.77,9.437ZM83.026,8.7a2.313,2.313,0,0,1-4.622,0A2.313,2.313,0,0,1,83.026,8.7Z"/>
</svg>
