<?xml version="1.0" standalone="no"?>
<!DOCTYPE svg PUBLIC "-//W3C//DTD SVG 1.1//EN" "http://www.w3.org/Graphics/SVG/1.1/DTD/svg11.dtd" >
<svg>
<metadata>
Created by FontForge 20090914 at Mon Nov 14 18:13:58 2016
 By www-data
nestor 1991
</metadata>
<defs>
<font id="BrushScript" horiz-adv-x="1106" >
  <font-face 
    font-family="BrushScript"
    font-weight="400"
    font-stretch="normal"
    units-per-em="4096"
    panose-1="4 2 114 0 0 0 0 0 0 0"
    ascent="3276"
    descent="-820"
    x-height="1421"
    cap-height="2617"
    bbox="-1229 -1004 4645 3277"
    underline-thickness="86"
    underline-position="-41"
    unicode-range="U+0008-U+FB02"
  />
<missing-glyph horiz-adv-x="3072" 
d="M512 0v2560h2048v-2560h-2048zM2494 66v2428h-1916v-2428h1916z" />
    <glyph glyph-name=".notdef" unicode="&#x394;" horiz-adv-x="3072" 
d="M512 0v2560h2048v-2560h-2048zM2494 66v2428h-1916v-2428h1916z" />
    <glyph glyph-name=".notdef" unicode="&#xf8ff;" horiz-adv-x="3072" 
d="M512 0v2560h2048v-2560h-2048zM2494 66v2428h-1916v-2428h1916z" />
    <glyph glyph-name=".notdef" unicode="&#xe01e;" horiz-adv-x="3072" 
d="M512 0v2560h2048v-2560h-2048zM2494 66v2428h-1916v-2428h1916z" />
    <glyph glyph-name=".notdef" unicode="&#x25ca;" horiz-adv-x="3072" 
d="M512 0v2560h2048v-2560h-2048zM2494 66v2428h-1916v-2428h1916z" />
    <glyph glyph-name=".notdef" unicode="&#x2260;" horiz-adv-x="3072" 
d="M512 0v2560h2048v-2560h-2048zM2494 66v2428h-1916v-2428h1916z" />
    <glyph glyph-name=".notdef" unicode="&#x2248;" horiz-adv-x="3072" 
d="M512 0v2560h2048v-2560h-2048zM2494 66v2428h-1916v-2428h1916z" />
    <glyph glyph-name=".notdef" unicode="&#x222b;" horiz-adv-x="3072" 
d="M512 0v2560h2048v-2560h-2048zM2494 66v2428h-1916v-2428h1916z" />
    <glyph glyph-name=".notdef" unicode="&#x221e;" horiz-adv-x="3072" 
d="M512 0v2560h2048v-2560h-2048zM2494 66v2428h-1916v-2428h1916z" />
    <glyph glyph-name=".notdef" unicode="&#x221a;" horiz-adv-x="3072" 
d="M512 0v2560h2048v-2560h-2048zM2494 66v2428h-1916v-2428h1916z" />
    <glyph glyph-name=".notdef" unicode="&#x2211;" horiz-adv-x="3072" 
d="M512 0v2560h2048v-2560h-2048zM2494 66v2428h-1916v-2428h1916z" />
    <glyph glyph-name=".notdef" unicode="&#x220f;" horiz-adv-x="3072" 
d="M512 0v2560h2048v-2560h-2048zM2494 66v2428h-1916v-2428h1916z" />
    <glyph glyph-name=".notdef" unicode="&#x2202;" horiz-adv-x="3072" 
d="M512 0v2560h2048v-2560h-2048zM2494 66v2428h-1916v-2428h1916z" />
    <glyph glyph-name=".notdef" unicode="&#x3c0;" horiz-adv-x="3072" 
d="M512 0v2560h2048v-2560h-2048zM2494 66v2428h-1916v-2428h1916z" />
    <glyph glyph-name=".notdef" unicode="&#x3a9;" horiz-adv-x="3072" 
d="M512 0v2560h2048v-2560h-2048zM2494 66v2428h-1916v-2428h1916z" />
    <glyph glyph-name=".null" horiz-adv-x="0" 
 />
    <glyph glyph-name=".null" horiz-adv-x="0" 
 />
    <glyph glyph-name=".null" horiz-adv-x="0" 
 />
    <glyph glyph-name="nonmarkingreturn" unicode="&#x9;" horiz-adv-x="0" 
 />
    <glyph glyph-name="nonmarkingreturn" unicode="&#xa0;" horiz-adv-x="0" 
 />
    <glyph glyph-name="nonmarkingreturn" unicode="&#xd;" horiz-adv-x="0" 
 />
    <glyph glyph-name="space" unicode=" " 
 />
    <glyph glyph-name="exclam" unicode="!" horiz-adv-x="786" 
d="M57 360c18.667 67.333 46.501 130 83.501 188s81.5 87 133.5 87c49.333 0 96 -22 140 -66c48.667 -48.667 73 -125 73 -229c0 -57.333 -10.833 -114.5 -32.5 -171.5s-51.334 -104.167 -89.001 -141.5s-80.167 -56 -127.5 -56c-6 0 -15.667 1.5 -29 4.5
s-24.333 4.5 -33 4.5c-104 34 -156 95.333 -156 184c0 19.333 5.33301 51.5 16 96.5s17.667 78.167 21 99.5zM590.001 926c16 -44.667 24 -84.333 24 -119c0 -40 -12.167 -71.167 -36.5 -93.5s-54.5 -33.5 -90.5 -33.5c-54 0 -107.667 25.333 -161 76s-80 108.667 -80 174
c0 11.333 6.66699 41.333 20 90l660 1458c26 66 52 107.167 78 123.5s58.667 24.5 98 24.5l205 -62c46 -3.33301 69 -28 69 -74c0 -12.667 -12.333 -46.667 -37 -102z" />
    <glyph glyph-name="quotedbl" unicode="&#x22;" horiz-adv-x="213" 
d="M-872 2298h-357v299h1073v-299h-356v-950h-360v950zM680 2003l209 594h508v-1249h-361v864l-266 -864h-180l-303 864v-864h-353v1249h541z" />
    <glyph glyph-name="numbersign" unicode="#" 
 />
    <glyph glyph-name="dollar" unicode="$" horiz-adv-x="2327" 
d="M1339 1847c-286.667 -111.333 -447.667 -200 -483 -266l-4 -12c0 -36.667 123 -81.667 369 -135zM1692 778c30.667 14.667 58 33.668 82 57.001s36 42.666 36 57.999v25c0 72 -107.667 136 -323 192l-119 -422c122 24 230 54 324 90zM1544 1376
c221.333 -46.667 386.669 -113.83 496.002 -201.497s164 -182.834 164 -285.501c0 -92 -39.667 -184.833 -119 -278.5s-189.166 -178.334 -329.499 -254.001s-299.5 -133.167 -477.5 -172.5l-86 -503c-207.333 13.333 -311 80 -311 200c0 24.667 6.16699 65 18.5 121
s18.5 97.667 18.5 125c-154 -16.667 -270.333 -25 -349 -25c-360 0 -540 74 -540 222c0 33.333 20.333 85 61 155c61.333 98.667 211.666 148 450.999 148c40 0 99.333 -0.666992 178 -2s135.334 -2 170.001 -2c12.667 0 32.667 0.666992 60 2s45.666 2 54.999 2l155 569
c-162 8 -287.5 21.667 -376.5 41s-153 49.166 -192 89.499s-58.5 96.5 -58.5 168.5c0 17.333 9.66699 85.666 29 204.999c29.333 128 81.666 231.167 156.999 309.5s174.666 142.5 297.999 192.5s290 102.333 500 157c125.333 325.333 214 524.666 266 598
c68.667 84.667 152 127 250 127c36.667 0 68.334 -9.33301 95 -28c26.667 -18.667 40 -44.667 40 -78c0 -42 -27.333 -100.667 -82 -176c-114.667 -145.333 -185.667 -273.666 -213 -385c79.333 5.33301 175 8 287 8c55.333 0 122.333 -1.33301 201 -4s134.334 -4 167 -4
c49.333 0 81.5 -7.5 96.5 -22.5s22.5 -39.167 22.5 -72.5v-118c0 -77.333 -26.833 -136.833 -80.5 -178.5s-143.834 -89.667 -270.5 -144c-126.667 -54.333 -228 -105.166 -304 -152.499c-47.333 -14 -72 -21 -74 -21c-35.333 0 -53 12.333 -53 37
c0 21.333 26 55.5 78 102.5s129.667 98.833 233 155.5l-483 -86z" />
    <glyph glyph-name="percent" unicode="%" horiz-adv-x="2253" 
d="M1360 1081c74 62.667 149 111.167 225 145.5s141.667 51.5 197 51.5c33.333 0 62.833 -9.83301 88.5 -29.5s38.5 -43.834 38.5 -72.501c0 -30.667 -2.66699 -52.667 -8 -66h20c98 0 147 -79.333 147 -238c0 -60 -6.33301 -126.667 -19 -200s-22.667 -117 -30 -131
c-36.667 -88 -94 -175.333 -172 -262s-163.333 -157.5 -256 -212.5s-176.667 -82.5 -252 -82.5c-84 0 -145.333 27.333 -184 82c-109.333 122 -164 244.667 -164 368c0 198.667 123 414.334 369 647.001zM918 1819c-54 -121.333 -141 -234.332 -261 -338.999
s-232.667 -157 -338 -157c-21.333 0 -51.333 8.33301 -90 25c-182.667 69.333 -274 201.666 -274 396.999c0 118 32 240.833 96 368.5s142.667 228.834 236 303.5c188 147.333 340.667 221 458 221c32 0 58.5 -9.83301 79.5 -29.5s31.5 -46.834 31.5 -81.501v-49
c114.667 -33.333 172 -112.333 172 -237c0 -30 -3 -61 -9 -93s-15.333 -69.167 -28 -111.5s-25 -80.666 -37 -114.999zM2077 2535c10.667 -26.667 15.998 -56.667 15.998 -90c0 -164 -153 -402.667 -459 -716c-99.333 -97.333 -207 -213.5 -323 -348.5
s-225.833 -269.333 -329.5 -403l-271 -356l-362.5 -494.5c-7.33301 -81.333 -26.166 -139.833 -56.499 -175.5s-63.166 -53.5 -98.499 -53.5c-22.667 0 -45.667 5.33301 -69 16s-37.333 21.667 -42 33c-44 63.333 -66 120.666 -66 171.999c0 58.667 17 123.334 51 194.001
s80.5 146.667 139.5 228s135.5 179.333 229.5 294l273 332l352 428c116 136.667 229.333 262.167 340 376.5s222.5 219 335.5 314s226.5 178.167 340.5 249.5zM286.998 1671c75.333 0 154.668 42.832 238.001 128.499s154.5 180.667 213.5 285s88.5 171.5 88.5 201.5v12
c-18 22 -37 33 -57 33c-10 0 -30.333 -13.667 -61 -41s-59.334 -41 -86.001 -41c-4.66699 0 -28 6.66699 -70 20c-74 -62.667 -145 -143.834 -213 -243.5c-68 -99.667 -102 -183.5 -102 -251.5c0 -45.333 16.333 -79.666 49 -102.999zM1839 926
c-4.66699 13.333 -18.334 19.999 -41.001 19.999c-13.333 0 -36.666 -9.5 -69.999 -28.5s-57.666 -28.5 -72.999 -28.5c-20.667 0 -37 12.333 -49 37c-67.333 -50.667 -126.333 -109.667 -177 -177s-88.5 -132.666 -113.5 -195.999s-37.5 -119.333 -37.5 -168
c0 -16 8.33301 -43.333 25 -82l12 -8c67.333 0 141.666 38.833 222.999 116.5s151.833 166 211.5 265s89.5 171.167 89.5 216.5v33z" />
    <glyph glyph-name="ampersand" unicode="&#x26;" horiz-adv-x="2335" 
d="M1155 717l-216.998 479c-208 -153.333 -365 -303.666 -471 -450.999c-30 -40.667 -45 -81.334 -45 -122.001c0 -44 15 -71.333 45 -82c19.333 -16.667 50.666 -25 93.999 -25c69.333 0 158.166 17.5 266.499 52.5s217.5 84.5 327.5 148.5zM2224 2507
c54.667 -84.667 82.002 -166.662 82.002 -245.995c0 -112.667 -71.5 -231.667 -214.5 -357s-377.167 -282 -702.5 -470c12.667 -58 45 -144.167 97 -258.5s79.667 -175.833 83 -184.5l626 504c41.333 -124 62 -223.667 62 -299c0 -90.667 -21 -169.334 -63 -236.001
s-109 -140.334 -201 -221.001s-144.667 -127.667 -158 -141c46 -54.667 83 -82 111 -82c18 0 42 8.83301 72 26.5s49.667 26.5 59 26.5c35.333 0 53 -24.333 53 -73c0 -50 -20.667 -113.333 -62 -190s-91 -144.167 -149 -202.5s-109.333 -87.5 -154 -87.5
c-10 0 -26.333 7 -49 21c-36.667 36.667 -93.334 88.667 -170.001 156l-125 110c-82 -107.333 -206.833 -193.5 -374.5 -258.5s-311.834 -97.5 -432.501 -97.5h-28c-108.667 0 -206.167 26.167 -292.5 78.5s-153.5 123.166 -201.5 212.499s-72 187.333 -72 294
c0 121.333 31.333 246.166 94 374.499s158.667 249.166 288 362.499s289 207.666 479 282.999c-16.667 52.667 -25 107.334 -25 164.001c0 120.667 34.167 237 102.5 349s157.5 211.167 267.5 297.5s226.5 153.833 349.5 202.5s236.833 73 341.5 73
c149.333 0 251.666 -43.667 307 -131zM1716 2064c158.667 153.333 237.999 251.665 237.999 294.999c0 44 -27.333 66 -82 66c-52.667 0 -117 -26.667 -193 -80s-144.667 -126.666 -206 -219.999s-99 -195.333 -113 -306c25.333 7.33301 56.833 23.5 94.5 48.5
s78.834 54.833 123.501 89.5z" />
    <glyph glyph-name="quotesingle" unicode="'" horiz-adv-x="213" 
d="M287 2093c-98.667 11.333 -147.999 63.335 -147.999 156.002c0 52 20.167 107.667 60.5 167s92.833 109.166 157.5 149.5c64.667 40.333 132.667 60.5 204 60.5c90 0 135 -45.333 135 -136c0 -78.667 -35.333 -182.334 -106 -311.001
c-60.667 -95.333 -132.334 -180.666 -215.001 -255.999s-161.334 -113 -236.001 -113c-2.66699 0 -7 1.5 -13 4.5s-11 4.5 -15 4.5c5.33301 11.333 33.333 51.166 84 119.499s81.334 119.833 92.001 154.499z" />
    <glyph glyph-name="parenleft" unicode="(" horiz-adv-x="745" 
d="M487 -172c4 0 9.66602 1.33105 16.999 3.99805s11.333 4 12 4c18.667 0 35 -13.333 49 -40s21 -57 21 -91c0 -79.333 -21.167 -152.333 -63.5 -219s-103.166 -100 -182.499 -100c-73.333 0 -134.166 32.667 -182.499 98s-84 152.833 -107 262.5
s-34.5 233.834 -34.5 372.501c0 171.333 16.667 349.666 50 534.999s75.666 337.333 126.999 456c209.333 492.667 396 880.667 560 1164s310.333 425 439 425c16 0 40.667 -5.33301 74 -16c43.333 -22 65 -56.333 65 -103c0 -45.333 -30.5 -121.666 -91.5 -228.999
l-228.5 -402c-91.333 -160.667 -181 -345.667 -269 -555s-163.333 -444.666 -226 -705.999c-32.667 -194 -49 -353.667 -49 -479c0 -37.333 1.5 -83.333 4.5 -138s5.5 -95.167 7.5 -121.5s4.66699 -66.833 8 -121.5z" />
    <glyph glyph-name="parenright" unicode=")" horiz-adv-x="1233" 
d="M836 2269c-3.33301 0 -9.66992 -1.33301 -19.0029 -4s-15.333 -4 -18 -4c-21.333 0 -40.333 14.167 -57 42.5s-25 59.166 -25 92.5c0 74 23 145.167 69 213.5s105 102.5 177 102.5h12c116.667 0 200.5 -69 251.5 -207s76.5 -300 76.5 -486
c0 -127.333 -5.66699 -243.333 -17 -348c-17.333 -170.667 -55.833 -348.834 -115.5 -534.501s-123.167 -354.167 -190.5 -505.5l-263 -565c-37.333 -72.667 -89.666 -159.5 -156.999 -260.5s-140.833 -192.167 -220.5 -273.5s-150.5 -122 -212.5 -122
c-40 0 -70 12.333 -90 37c-24.667 24.667 -37 53.334 -37 86.001c0 44.667 23.333 106 70 184l215 362.5c96.667 163.667 187.334 351 272.001 562s158.334 455.833 221.001 734.5c52 260 78 452.667 78 578c0 118 -6.66699 223 -20 315z" />
    <glyph glyph-name="asterisk" unicode="*" horiz-adv-x="418" 
d="M434 1790c24.667 -16.667 66.0039 -51.332 124.004 -103.999s126 -106.667 204 -162c73.333 -55.333 110 -107.333 110 -156c0 -26 -17 -63.5 -51 -112.5s-53.667 -87.833 -59 -116.5l-443 413l-32 -659c-19.333 15.333 -55.333 28.333 -108 39
s-92.334 27.167 -119.001 49.5s-40 65.166 -40 128.499c0 158.667 11 306 33 442c-162 -123.333 -302.667 -221.666 -422 -294.999c-32.667 -18.667 -62.667 -28 -90 -28c-28 0 -50.667 11.667 -68 35s-26 51.333 -26 84c0 73.333 22 132 66 176
c47.333 47.333 115.666 98.166 204.999 152.499l237 142.5c-34 36 -92.167 84 -174.5 144s-142.833 108 -181.5 144s-58 71 -58 105c0 49.333 13 89.666 39 121c26 31.333 58 47 96 47c56 0 109.333 -27.333 160 -82c126 -119.333 217.667 -197.333 275 -234
c0 29.333 -2.83301 69 -8.5 119s-8.5 88.333 -8.5 115c0 96 26 175 78 237c40 60.667 89 91 147 91c22 0 42 -10.667 60 -32s27 -47.666 27 -79v-37c-8.66699 -52 -18.167 -102.5 -28.5 -151.5s-17.833 -91.167 -22.5 -126.5s-7 -80.666 -7 -136
c58.667 34 120.667 63.667 186 89s111.333 45 138 59c52 24.667 97 37 135 37c18 0 33.5 -4.66699 46.5 -14s30.167 -26.833 51.5 -52.5s41.166 -47.334 59.499 -65c18.333 -17.667 42.166 -35.5 71.499 -53.5z" />
    <glyph glyph-name="plus" unicode="+" 
 />
    <glyph glyph-name="comma" unicode="," horiz-adv-x="745" 
d="M184 37c-48.667 7.33301 -86.667 25.5 -114 54.5s-41 62.833 -41 101.5c0 51.333 20.667 106.833 62 166.5s94.5 109.5 159.5 149.5s131.833 60 200.5 60c90 0 135 -45 135 -135c0 -74.667 -35.667 -177 -107 -307c-60 -96.667 -129.833 -180.167 -209.5 -250.5
s-157.167 -105.5 -232.5 -105.5h-29c4 8 31.667 45.667 83 113s82.333 118.333 93 153z" />
    <glyph glyph-name="hyphen" unicode="-" horiz-adv-x="1475" 
d="M102 856c-26 10.667 -58.333 30.1689 -97 58.502s-58 63.5 -58 105.5c0 67.333 47.667 134.333 143 201c70.667 30 184 45 340 45c152.667 0 307.834 -9.16699 465.501 -27.5s275.5 -33.833 353.5 -46.5c79.333 -22 119 -74 119 -156
c0 -40.667 -11.833 -80.834 -35.5 -120.501s-45.834 -59.5 -66.501 -59.5v8c-66.667 7.33301 -169 16.666 -307 27.999s-280.333 17 -427 17c-208.667 0 -352 -17.667 -430 -53z" />
    <glyph glyph-name="period" unicode="." horiz-adv-x="745" 
d="M512 569c68 -14.667 101.997 -59.6689 101.997 -135.002c0 -52.667 -20.667 -117.5 -62 -194.5s-84.666 -144.5 -129.999 -202.5c-29.333 -24.667 -75.666 -37 -138.999 -37c-86 0 -158.333 22 -217 66c-24.667 30.667 -37 60.667 -37 90c0 52.667 17 112.334 51 179.001
s81 123.834 141 171.501s127 71.5 201 71.5c10 0 25.333 -1.5 46 -4.5s35.334 -4.5 44.001 -4.5z" />
    <glyph glyph-name="slash" unicode="/" horiz-adv-x="1032" 
d="M1855 2957c36 -55.333 54 -122 54 -200c0 -72.667 -16.167 -141.667 -48.5 -207s-85.833 -159 -160.5 -281c-92 -163.333 -224.5 -380.166 -397.5 -650.499l-401 -642c-94.333 -157.667 -185.833 -332.834 -274.5 -525.501c-146 -302 -235 -538.333 -267 -709
c0 -44 -38 -66 -114 -66c-56 0 -106.167 21.667 -150.5 65s-66.5 105 -66.5 185c0 64 21.667 150 65 258c58.667 138 127.5 287.167 206.5 447.5s165.5 327.333 259.5 501l250 446c72.667 123.667 142.667 236.5 210 338.5l289 382.5l310.5 390.5
c97.667 118.667 176.167 207.667 235.5 267z" />
    <glyph glyph-name="zero" unicode="0" horiz-adv-x="2044" 
d="M1413 1876c-137.333 -78.667 -282.166 -194.499 -434.499 -347.499s-278.333 -315 -378 -486s-149.5 -323.167 -149.5 -456.5c0 -100.667 32.667 -185.334 98 -254.001c75.333 0 166.666 31.5 273.999 94.5s220.5 149.167 339.5 258.5s231.667 230.666 338 363.999
s197.5 271 273.5 413c54 134.667 81 241.334 81 320.001c0 110.667 -39.333 174.667 -118 192h-21c-28.667 0 -53 -8 -73 -24s-51.667 -44.667 -95 -86s-72 -62 -86 -62c-6.66699 0 -15.5 7.33301 -26.5 22s-18.5 32 -22.5 52zM1589 2478
c16.667 2.66699 44.001 4.00098 82.001 4.00098c56.667 0 116.334 -14.833 179.001 -44.5s114.667 -65.167 156 -106.5s62 -78.333 62 -111c0 -46.667 -38 -70 -114 -70c57.333 -10.667 103 -47 137 -109s51 -151 51 -267c0 -66 -4 -140 -12 -222
c-27.333 -232.667 -117.833 -472 -271.5 -718s-345.167 -449.833 -574.5 -611.5s-462 -242.5 -698 -242.5h-70c-156.667 13.333 -278.5 80.166 -365.5 200.499s-130.5 271.833 -130.5 454.5c0 107.333 15.833 221 47.5 341s78.667 240 141 360s136.166 231.667 221.499 335
c107.333 137.333 232.833 261.666 376.5 372.999s283.167 202.333 418.5 273s256.666 124.334 363.999 161.001z" />
    <glyph glyph-name="one" unicode="1" horiz-adv-x="950" 
d="M946 2003l-413.998 -156.005l-20 -8c-30 0 -45 20.667 -45 62c0 36.667 12.5 79.334 37.5 128.001s53.5 79.667 85.5 93c79.333 32.667 179.666 82.834 300.999 150.5c121.333 67.667 206.333 113.334 255 137c48.667 23.667 95.334 35.5 140.001 35.5
c70 0 127.333 -38 172 -114c19.333 -41.333 29 -89.333 29 -144c0 -57.333 -13.833 -116.166 -41.5 -176.499s-65.334 -125.833 -113.001 -196.5s-78.167 -118.334 -91.5 -143.001l-500 -864c-182.667 -293.333 -274 -555.666 -274 -786.999c0 -6 1.33301 -17.667 4 -35
s4 -30 4 -38c0 -49.333 -17.667 -74 -53 -74c-32 0 -145.333 64.333 -340 193c-44 28.667 -66 80.334 -66 155.001c0 106 30.333 243 91 411s120.667 307 180 417c87.333 136.667 179.166 270.834 275.499 402.501l245 336.5c67 92.667 113.167 164.334 138.5 215.001z" />
    <glyph glyph-name="two" unicode="2" horiz-adv-x="1999" 
d="M377 422l1462 266c-47.333 -166.667 -96.666 -292.167 -147.999 -376.5s-116.333 -147.333 -195 -189s-159 -70 -241 -85s-276.333 -45.167 -583 -90.5c-38.667 -2.66699 -100.334 -4 -185.001 -4c-314 0 -471 144.667 -471 434c0 10 0.666992 27.333 2 52
s2 41.334 2 50.001c10.667 66.667 63.5 146.834 158.5 240.501s211.667 188 350 283s277.5 179.833 417.5 254.5c188 97.333 350 185.166 486 263.499s248.167 153.833 336.5 226.5s132.5 136 132.5 190c0 44 -20.667 75.667 -62 95c-16 10.667 -42 16 -78 16
c-106 0 -260.333 -38.833 -463 -116.5s-381.334 -154.834 -536.001 -231.501c123.333 0 213.5 -10.5 270.5 -31.5s85.5 -44.833 85.5 -71.5c0 -24 -16.667 -46.5 -50 -67.5s-74 -32.5 -122 -34.5l-450 -90l-17 -8c-28.667 0 -51.5 13.5 -68.5 40.5s-25.5 62.5 -25.5 106.5
c0 80.667 23.667 176.167 71 286.5s112 210 194 299s171.333 145.167 268 168.5c216.667 60 384.5 103.667 503.5 131s226.833 41 323.5 41c140 0 248 -38.167 324 -114.5s118 -203.5 126 -381.5v-65c0 -154 -31 -273.833 -93 -359.5s-179.5 -182 -352.5 -289
s-282.5 -177.5 -328.5 -211.5c-46 -30 -109.333 -66.5 -190 -109.5l-273 -146c-101.333 -54.333 -199.166 -111 -293.499 -170s-190.166 -126.167 -287.499 -201.5z" />
    <glyph glyph-name="three" unicode="3" horiz-adv-x="2245" 
d="M1307 1315c156 -15.333 291.831 -45.1641 407.498 -89.4971s205 -101.166 268 -170.499s94.5 -148 94.5 -236c0 -84 -19.333 -157.667 -58 -221c-109.333 -204.667 -287.5 -358.834 -534.5 -462.501s-505.5 -155.5 -775.5 -155.5c-155.333 0 -294.5 18 -417.5 54
s-210.5 106.667 -262.5 212c0 2 -1.5 6.33301 -4.5 13s-4.5 11.667 -4.5 15c0 41.333 63 139.666 189 294.999c47.333 63.333 100.666 95 159.999 95c12 0 22.5 -4.16699 31.5 -12.5s13.5 -17.833 13.5 -28.5c0 -34 -30 -71 -90 -111c116 -60 256.333 -90 421 -90
c172 0 330.667 30 476 90c50 10 121.333 36.5 214 79.5s173.667 90.167 243 141.5s104 95 104 131c0 64.667 -50.5 113.167 -151.5 145.5s-207 52.333 -318 60s-213.833 11.5 -308.5 11.5c-31.333 0 -92.166 -8.83301 -182.499 -26.5s-152.5 -26.5 -186.5 -26.5
c-54.667 0 -82 17.667 -82 53c0 0.666992 1.33301 5 4 13s4 13.333 4 16l57.5 157.5c17.667 47.667 43.834 90.5 78.501 128.5s87.667 71 159 99c76 16 176.5 31.667 301.5 47s225.5 29.166 301.5 41.499s153.667 31.833 233 58.5
c119.333 30.667 239.166 72.167 359.499 124.5s180.5 112.166 180.5 179.499v12c0 84.667 -103.667 127 -311 127c-70 0 -152.667 -3.5 -248 -10.5s-147.666 -10.5 -156.999 -10.5c-210 -38 -360.333 -77.333 -451 -118c78 -7.33301 137.167 -19.5 177.5 -36.5
s60.5 -32.167 60.5 -45.5c0 -12 -8.83301 -22.5 -26.5 -31.5s-36.167 -13.5 -55.5 -13.5c-70.667 -19.333 -167.667 -29 -291 -29c-134 0 -207.667 19 -221 57c-30 64 -45 109 -45 135c0 96 59.833 179.333 179.5 250s259 123.834 418 159.501s292.833 53.5 401.5 53.5
c318.667 0 542.334 -35.167 671.001 -105.5s193 -189.5 193 -357.5v-65c-13.333 -100.667 -53.333 -182.334 -120 -245.001s-151.167 -112.5 -253.5 -149.5s-261.5 -79 -477.5 -126s-339 -74.167 -369 -81.5z" />
    <glyph glyph-name="four" unicode="4" horiz-adv-x="2171" 
d="M2159 2212c60 -36.667 89.998 -88.6699 89.998 -156.003c0 -62 -23.167 -130.167 -69.5 -204.5s-107.666 -157.666 -184 -249.999c-76.333 -92.333 -120.166 -148.166 -131.499 -167.499l-275 -385l275 32h28c93.333 0 140 -38 140 -114
c0 -40 -13.333 -86.833 -40 -140.5s-56.334 -100.334 -89.001 -140.001s-55.334 -59.5 -68.001 -59.5l-512 -58c-30 -85.333 -45 -164.333 -45 -237c0 -109.333 24.667 -188.666 74 -237.999l-414 -205h-37c-32.667 0 -60.667 21.667 -84 65s-35 98.333 -35 165
c0 115.333 33 256 99 422l-570 -29c-44.667 0 -91 16.167 -139 48.5s-87.333 77.833 -118 136.5s-46 122.667 -46 192c0 78.667 22 162 66 250c56 117.333 166.833 244.5 332.5 381.5s349.334 266.833 551.001 389.5s393.334 229.167 575.001 319.501
c181.667 90.333 301.5 143.166 359.5 158.5c54.667 13.333 113.334 20 176.001 20c52 0 93.833 -8.5 125.5 -25.5s47.5 -37.167 47.5 -60.5c0 -35.333 -27.333 -72 -82 -110zM1118 1049l836.001 1044c-62 -15.333 -163.667 -64.166 -305 -146.499
s-298.833 -183.833 -472.5 -304.5s-326.334 -237.167 -458.001 -349.5s-218.167 -203.166 -259.5 -272.499c100 -14 188.667 -21 266 -21c182.667 0 313.667 16.667 393 50z" />
    <glyph glyph-name="five" unicode="5" horiz-adv-x="2208" 
d="M918 1552c178 60 346.999 90 506.999 90c203.333 0 365.5 -49.833 486.5 -149.5s181.5 -227.167 181.5 -382.5c0 -133.333 -46.5 -276.5 -139.5 -429.5s-229.5 -297.833 -409.5 -434.5c-100 -81.333 -263.333 -148.833 -490 -202.5s-430.667 -80.5 -612 -80.5
c-60.667 0 -119.334 5.66699 -176.001 17c-81.333 12.667 -142.666 43.667 -183.999 93s-62 104.333 -62 165c0 46.667 11.333 95.667 34 147s44.334 82.666 65.001 93.999c230.667 144.667 402.667 217 516 217c49.333 0 74 -10.667 74 -32c0 -14.667 -9.66699 -27 -29 -37
l-266 -205c140.667 19.333 283.5 48.166 428.5 86.499s279.167 83.333 402.5 135s223 106.167 299 163.5c153.333 114.667 230 210.334 230 287.001c0 47.333 -30.167 83.666 -90.5 108.999s-135.5 38 -225.5 38c-22.667 0 -57.667 -1.66699 -105 -5
s-82 -5.66602 -104 -6.99902l-422 -90c-6 0 -16 -1.5 -30 -4.5s-23 -4.5 -27 -4.5c-39.333 0 -74.5 19.167 -105.5 57.5s-65.5 101.166 -103.5 188.499c-19.333 72.667 -29 116.334 -29 131.001c0 69.333 18.5 137.166 55.5 203.499s77.5 121.5 121.5 165.5l335 365
c59.333 62 120 111.5 182 148.5s139.333 55.5 232 55.5h1041c-22.667 -27.333 -58.167 -90.666 -106.5 -190c-48.333 -99.333 -96.833 -175.666 -145.5 -228.999s-112.334 -80 -191.001 -80h-835c-56 -58.667 -116.667 -134.167 -182 -226.5
s-105.666 -148.166 -120.999 -167.499z" />
    <glyph glyph-name="six" unicode="6" horiz-adv-x="1884" 
d="M815 1462c170.667 96 325.002 144.001 463.002 144.001c147.333 0 265.333 -49.667 354 -149s133 -212.333 133 -339v-37c-6.66699 -153.333 -51.834 -297.5 -135.501 -432.5s-185.834 -252.333 -306.501 -352s-239.834 -177.334 -357.501 -233.001
s-207.5 -83.5 -269.5 -83.5h-37c-100.667 0 -202.167 37.333 -304.5 112s-187 173 -254 295s-100.5 249.667 -100.5 383c0 10 1.33301 26 4 48s4 37.333 4 46c30.667 194.667 137.334 412.667 320.001 654s423 461.666 721 660.999c128 85.333 233.667 146.333 317 183
s197.333 55 342 55c202 0 303 -19.333 303 -58c0 -24 -53.5 -63.5 -160.5 -118.5s-164.167 -85.167 -171.5 -90.5c-238.667 -153.333 -526.667 -382.666 -864 -687.999zM512.002 332.001c92.667 8 196 50.166 310 126.499s214.833 163.333 302.5 261
s141.5 178.834 161.5 243.501c35.333 122.667 53 200.334 53 233.001c0 79.333 -32.667 119 -98 119c-78.667 0 -211 -68.333 -397 -205c-70 -53.333 -144.167 -114.833 -222.5 -184.5s-125.833 -118.834 -142.5 -147.501c-24.667 -65.333 -37 -135 -37 -209
c0 -54.667 7.33301 -105.667 22 -153s30.667 -75.333 48 -84z" />
    <glyph glyph-name="seven" unicode="7" horiz-adv-x="1069" 
d="M1352 1946c-208.667 0 -369.997 -2 -483.997 -6s-218.5 -15.167 -313.5 -33.5s-176.167 -47.5 -243.5 -87.5c-113.333 -60 -192.333 -90 -237 -90c-49.333 0 -74 23 -74 69c0 30 15 69.667 45 119c8.66699 11.333 37.834 53 87.501 125s95 131.333 136 178
s83.833 83.667 128.5 111c47.333 26.667 141.333 48.5 282 65.5s296.667 29.333 468 37s321.333 11.5 450 11.5c166 0 264.333 -98.333 295 -295v-45c0 -54 -17.833 -98 -53.5 -132s-126.5 -113.333 -272.5 -238s-257 -234.667 -333 -330
c-128 -160.667 -251.5 -351.167 -370.5 -571.5s-192.167 -406.833 -219.5 -559.5h66c35.333 0 53 -9.33301 53 -28c0 -22.667 -31.833 -59.167 -95.5 -109.5s-135.334 -98.166 -215.001 -143.499s-135.834 -70.333 -168.501 -75c-36.667 -8 -72.334 -12 -107.001 -12
c-106.667 0 -160 62.667 -160 188c0 82.667 22.667 182.667 68 300s100.666 225 165.999 323c98 145.333 199.333 278.166 304 398.499s214.667 237 330 350l292.5 286c79.667 77.667 138.167 142.5 175.5 194.5z" />
    <glyph glyph-name="eight" unicode="8" horiz-adv-x="1475" 
d="M844 926l-392.999 -384.998c-21.333 -21.333 -43.833 -55 -67.5 -101s-35.5 -84.667 -35.5 -116c0 -52 37 -78 111 -78c49.333 0 128.333 19 237 57c93.333 31.333 163.166 76.666 209.499 135.999s69.5 124.666 69.5 195.999c0 118.667 -43.667 215.667 -131 291z
M1884 1974l0.00292969 -45c0 -27.333 -7.33301 -51.5 -22 -72.5s-43.167 -51.333 -85.5 -91s-74.833 -71.167 -97.5 -94.5l-540 -475c62.667 -55.333 111.667 -128.666 147 -219.999s53 -184.666 53 -279.999c0 -118.667 -27 -230 -81 -334s-139.167 -190.833 -255.5 -260.5
s-260.833 -110.167 -433.5 -121.5h-118c-134.667 0 -240.834 23.833 -318.501 71.5s-116.5 116.5 -116.5 206.5c0 50.667 13.333 108.5 40 173.5s68.667 136.833 126 215.5s128.166 161.167 212.499 247.5s184.833 177.166 301.5 272.499c-224 248.667 -336 463 -336 643
c0 145.333 63.167 268.833 189.5 370.499c126.333 101.667 287.5 180.834 483.5 237.501s402 95.667 618 117c127.333 0 252.666 -8.5 375.999 -25.5s185 -50.833 185 -101.5v-20c-38 -106 -80.167 -198.333 -126.5 -277s-113.5 -124.334 -201.5 -137.001zM1708 2032
c-222 0 -411.667 -19.332 -569 -57.999c-150.667 -28.667 -249 -71 -295 -127c-44 -44 -66 -87.667 -66 -131c0 -90.667 71 -194.334 213 -311.001z" />
    <glyph glyph-name="nine" unicode="9" horiz-adv-x="1315" 
d="M991 1196c-24.667 -13.333 -88.167 -55.665 -190.5 -126.998s-196 -128 -281 -170s-166.833 -63 -245.5 -63c-92.667 0 -181.334 42.333 -266.001 127c-144.667 140.667 -217 282.667 -217 426c0 108.667 42.333 232.667 127 372c72.667 110 179.167 213.667 319.5 311
s285.5 178.5 435.5 243.5s275.333 108.167 376 129.5c67.333 16.667 134 25 200 25c192 0 335.333 -97 430 -291c14 -31.333 21 -62.666 21 -94c0 -92 -116 -190.333 -348 -295c-81.333 -40.667 -128 -61 -140 -61c-18.667 0 -28 8 -28 24
c0 49.333 66.667 132.666 200 249.999c-106.667 -30 -224.5 -68.833 -353.5 -116.5s-261.167 -108.334 -396.5 -182.001s-248.833 -158.834 -340.5 -255.501s-137.5 -200 -137.5 -310c35.333 -11.333 66.666 -17 93.999 -17c112 0 238.667 32.167 380 96.5
s275.833 140.333 403.5 228s224.167 162.5 289.5 224.5c44 44 117.667 66 221 66c46.667 0 87 -8.16699 121 -24.5s51 -36.833 51 -61.5c0 -16.667 -2.66699 -29 -8 -37c-46.667 -78.667 -119 -179.167 -217 -301.5s-185.333 -219.833 -262 -292.5l-651 -774
c-200 -218.667 -361.333 -328 -484 -328c-24.667 0 -45.167 7.83301 -61.5 23.5s-24.5 35.167 -24.5 58.5c0 30.667 9.66699 62 29 94l54.5 88c17.667 28.667 37.167 56.334 58.5 83.001s45.333 49.167 72 67.5s53.667 27.5 81 27.5c36.667 26 70.834 56.833 102.501 92.5
s76.834 92 135.501 169l94 123.5z" />
    <glyph glyph-name="colon" unicode=":" horiz-adv-x="868" 
d="M963 1495c68 -14.667 101.999 -59.6689 101.999 -135.002c0 -101.333 -64.333 -233.666 -193 -396.999c-22 -36 -68.333 -54 -139 -54c-88.667 0 -162.334 27.333 -221.001 82c-24.667 20 -37 50 -37 90c0 52 17.5 111.333 52.5 178s82.833 123.334 143.5 170.001
s127.667 70 201 70c6.66699 0 21.334 -0.666992 44.001 -2s38.334 -2 47.001 -2zM36.999 65.998c-24.667 23.333 -37 53.3311 -37 89.998c0 52.667 17.167 112.334 51.5 179.001s81.5 123.834 141.5 171.501s126.667 71.5 200 71.5c10.667 0 26.167 -1.5 46.5 -4.5
s33.5 -4.5 39.5 -4.5c71.333 -15.333 107 -60.333 107 -135c0 -51.333 -20.833 -115.833 -62.5 -193.5s-85.167 -145.5 -130.5 -203.5c-28 -24.667 -75.667 -37 -143 -37c-87.333 0 -158.333 22 -213 66z" />
    <glyph glyph-name="semicolon" unicode=";" horiz-adv-x="987" 
d="M963 1462c68 -11.333 101.998 -54.999 101.998 -130.999c0 -52.667 -21 -119 -63 -199s-85.333 -148.667 -130 -206c-24 -30 -70.333 -45 -139 -45c-89.333 0 -163 27.333 -221 82c-24.667 18.667 -37 47.334 -37 86.001c0 51.333 17.5 110.666 52.5 177.999
s82.667 124.666 143 171.999s127.5 71 201.5 71c6.66699 0 21.334 -1.33301 44.001 -4s38.334 -4 47.001 -4zM7.99805 -228.999c4 8 31.667 45.667 83 113s82.333 118.333 93 153c-48.667 7.33301 -86.667 25.5 -114 54.5s-41 62.833 -41 101.5
c0 51.333 20.667 106.833 62 166.5s94.5 109.5 159.5 149.5s131.833 60 200.5 60c90 0 135 -45 135 -135c0 -74.667 -35.667 -177 -107 -307c-60 -96.667 -129.833 -180.167 -209.5 -250.5s-157.167 -105.5 -232.5 -105.5h-29z" />
    <glyph glyph-name="less" unicode="&#x3c;" 
 />
    <glyph glyph-name="equal" unicode="=" 
 />
    <glyph glyph-name="greater" unicode="&#x3e;" 
 />
    <glyph glyph-name="question" unicode="?" horiz-adv-x="823" 
d="M397 2064c101.333 -30 151.995 -69.3311 151.995 -117.998c0 -46.667 -39.667 -70 -119 -70c-27.333 0 -72.666 6.83301 -135.999 20.5s-117.666 20.5 -162.999 20.5c-52 0 -78 37 -78 111c0 54 14.167 118.333 42.5 193s60.833 130.334 97.5 167
c19.333 19.333 69 44.666 149 75.999s172.833 58.5 278.5 81.5s204.834 34.5 297.501 34.5c308.667 0 473.667 -113 495 -339v-62c0 -125.333 -38.833 -261.666 -116.5 -408.999s-166.667 -285 -267 -413s-200.666 -248.833 -300.999 -362.5s-150.5 -176.167 -150.5 -187.5
h8c13.333 -58.667 20 -106.334 20 -143.001c0 -28.667 -7.33301 -51.667 -22 -69s-32 -26 -52 -26c-46 0 -95.667 30.667 -149 92s-80 131.666 -80 210.999c0 6 1.33301 15 4 27s4 21 4 27c16.667 98 50.334 180.833 101.001 248.5s116.167 136.167 196.5 205.5
s131.5 117.333 153.5 144c34.667 42.667 87.167 94.334 157.5 155.001l183 158.5c51.667 45 85.5 81.167 101.5 108.5c16.667 19.333 25 46.666 25 81.999c0 45.333 -22.333 87.333 -67 126s-109.667 58 -195 58h-58c-56.667 0 -115.167 -9 -175.5 -27
s-172.5 -58.333 -336.5 -121zM458.995 246.002c-7.33301 -93.333 -34.666 -165.167 -81.999 -215.5s-99.333 -75.5 -156 -75.5c-50 0 -96.167 18.5 -138.5 55.5s-64.5 85.5 -66.5 145.5c0 77.333 19.833 171.666 59.5 282.999s96.5 167 170.5 167
c57.333 0 107.666 -21.667 150.999 -65c41.333 -41.333 62 -98.666 62 -171.999v-123z" />
    <glyph glyph-name="at" unicode="@" 
 />
    <glyph glyph-name="A" unicode="A" horiz-adv-x="3064" 
d="M2929 2212l-1102 -926l569 62zM1323 807l-806.999 -770.001c-164 -164 -293.667 -246 -389 -246c-30 0 -53.833 9.5 -71.5 28.5s-26.5 42.167 -26.5 69.5c0 10.667 5.33301 30 16 58c41.333 130.667 149.333 259 324 385c73.333 73.333 162 122.333 266 147l328 328
c-26.667 0 -63 -1.33301 -109 -4s-76.667 -4 -92 -4c-114.667 0 -172 21.667 -172 65c0 18.667 5.33301 39.334 16 62.001c65.333 117.333 162.666 226.5 291.999 327.5s252 151.5 368 151.5c112 0 168 -15 168 -45c0 -11.333 -11 -21.666 -33 -30.999s-48 -14 -78 -14
c-47.333 -4 -86.5 -11.5 -117.5 -22.5s-46.5 -19.833 -46.5 -26.5c0 -6 11 -13 33 -21s48 -12 78 -12c18 0 50.167 3.83301 96.5 11.5l75.5 12.5l680 590l163 131l192.5 153.5l246.5 189c91.333 68.333 178.666 130.5 262 186.5c119.333 73.333 217.666 110 295 110
c47.333 0 85.166 -13.333 113.5 -40c28.333 -26.667 42.5 -59.667 42.5 -99c0 -49.333 -9.66699 -89 -29 -119l-569 -1007c90 16 147.333 24 172 24c22.667 0 44 -5.66699 64 -17s30 -26 30 -44c0 -2 -4.33301 -21.333 -13 -58c-18.667 -59.333 -47.167 -134 -85.5 -224
s-73.833 -136.667 -106.5 -140l-299 -29l-205 -352c-24.667 -38 -37 -70.667 -37 -98c0 -24.667 12.333 -37 37 -37c28 0 75.5 20.667 142.5 62s136.833 94.333 209.5 159l91 -119c-325.333 -324.667 -586.333 -487 -783 -487c-66 0 -118.667 22.5 -158 67.5
s-59 98.833 -59 161.5c0 35.333 15 92.666 45 171.999l238 443z" />
    <glyph glyph-name="B" unicode="B" horiz-adv-x="2327" 
d="M1176 451c232 55.333 402.667 134.333 512 237c32.667 43.333 49 74.666 49 93.999c0 54.667 -50.5 98.5 -151.5 131.5s-224.667 59.833 -371 80.5l-395.5 55l-270 -304c-49.333 -54 -74 -103 -74 -147c0 -59.333 40.667 -107.666 122 -144.999s176 -56 284 -56
c84 0 182.333 18 295 54zM2204 1872c35.333 54.667 52.998 106.667 52.998 156c0 62.667 -36.833 109 -110.5 139s-170.834 45 -291.501 45c-169.333 0 -364.166 -26.5 -584.499 -79.5s-399.5 -115.167 -537.5 -186.5c14 -29.333 21 -52.666 21 -69.999
c0 -45.333 -42.5 -81.5 -127.5 -108.5s-191.667 -51.333 -320 -73s-199.166 -36.167 -212.499 -43.5c-49.333 -30 -86 -45 -110 -45c-44 0 -66 28.667 -66 86c0 75.333 39.333 171.666 118 288.999s197 232.5 355 345.5s348.667 200.5 572 262.5
c390 103.333 699.667 155 929 155c174.667 0 317.667 -25 429 -75s192.333 -116.5 243 -199.5s78 -177.167 82 -282.5v-28c0 -278 -167.167 -483 -501.5 -615s-706.5 -218 -1116.5 -258l-61 -57c286.667 -22 520.334 -58.667 701.001 -110s310.334 -111 389.001 -179
s118 -139.667 118 -215c0 -112 -67 -225.833 -201 -341.5s-281.333 -201.167 -442 -256.5c-323.333 -109.333 -602 -164 -836 -164c-139.333 0 -260 17.333 -362 52s-179.833 82.167 -233.5 142.5s-80.5 127.833 -80.5 202.5c0 68.667 27.333 148 82 238l328 483
c-86 0 -162.167 14.5 -228.5 43.5s-99.5 63.833 -99.5 104.5c0 46 54.333 91.833 163 137.5s274.334 77.5 497.001 95.5c24.667 21.333 72.5 68.833 143.5 142.5s137 136.167 198 187.5s135.667 99.333 224 144s187.833 76.667 298.5 96v-13c0 -16 -20.667 -52.333 -62 -109
s-96.5 -128.667 -165.5 -216l-132.5 -170c241.333 29.333 438.666 71.833 591.999 127.5s268.666 129.167 345.999 220.5z" />
    <glyph glyph-name="C" unicode="C" horiz-adv-x="2822" 
d="M1872 1499c80 32 162.667 94.1689 248 186.502s156.166 191.833 212.5 298.5c56.333 106.667 84.5 192.334 84.5 257c0 73.333 -31.667 110 -95 110c-50 0 -114 -17.667 -192 -53c-274.667 -154 -532.167 -346.667 -772.5 -578s-431.833 -472.666 -574.5 -723.999
s-214 -482.333 -214 -693c0 -112.667 36.333 -200.167 109 -262.5s171.667 -93.5 297 -93.5c90.667 0 195.667 17 315 51s249.666 86.167 390.999 156.5s288.666 157.666 441.999 261.999s315.333 229.166 486 374.499c24.667 -8.66699 37 -28 37 -58
c0 -65.333 -62.5 -165 -187.5 -299s-288.833 -272 -491.5 -414s-419.667 -260.667 -651 -356s-448.666 -143 -651.999 -143h-5c-238 5.33301 -407.333 73 -508 203s-151 289 -151 477c0 154.667 30 309 90 463c112.667 259.333 267.167 508.166 463.5 746.499
s407.833 447.5 634.5 627.5s449.334 321.5 668.001 424.5s405.667 154.5 561 154.5c120 0 214.167 -31.833 282.5 -95.5s102.5 -160.167 102.5 -289.5v-37c-6.66699 -128 -56.834 -271.833 -150.5 -431.5c-93.667 -159.667 -210.667 -315.334 -351 -467.001
s-282.5 -280.5 -426.5 -386.5s-263.333 -170.333 -358 -193c-61.333 -19.333 -108 -29 -140 -29c-98 0 -147 54.667 -147 164c0 54 13 114.167 39 180.5s59.333 120.833 100 163.5c220.667 251.333 371 377 451 377c16 0 28.833 -6.66699 38.5 -20
s14.5 -25.666 14.5 -36.999v-17z" />
    <glyph glyph-name="D" unicode="D" horiz-adv-x="2867" 
d="M221 1642c-43.333 -18.667 -85.667 -27.9971 -127 -27.9971c-49.333 0 -88.333 17.167 -117 51.5s-43 78.5 -43 132.5c0 52.667 15.333 111.667 46 177s78 131.666 142 198.999s145.167 130.666 243.5 190c98.333 59.333 212.833 109.666 343.5 151
c302 79.333 616 119 942 119c156 0 304.667 -11.833 446 -35.5s264.833 -61 370.5 -112s182.834 -113.833 231.5 -188.5c158.667 -236 238 -477.667 238 -725c0 -198.667 -54 -382.834 -162 -552.501s-249.333 -313.167 -424 -430.5
c-167.333 -114.667 -363.833 -220.667 -589.5 -318s-452 -174.5 -679 -231.5s-425.5 -85.5 -595.5 -85.5c-145.333 0 -261.5 24.5 -348.5 73.5s-130.5 122.833 -130.5 221.5c0 121.333 61.667 271.333 185 450l1073 1364c-354 -38 -613.667 -100.667 -779 -188
c23.333 0 51.333 1.33301 84 4s54 4 64 4c51.333 0 91.5 -5.33301 120.5 -16s43.5 -21.667 43.5 -33c0 -36 -42.333 -60.667 -127 -74c-59.333 -10.667 -110.833 -21.834 -154.5 -33.501s-95 -26.5 -154 -44.5s-106.5 -31.667 -142.5 -41zM1532 2101
c24.667 -20 37.001 -40.333 37.001 -61c0 -18 -23 -50.5 -69 -97.5s-75 -78.833 -87 -95.5l-860 -1147c-44 -58 -66 -108.333 -66 -151c0 -50.667 29 -89.334 87 -116.001s135.667 -40 233 -40c148 0 323.333 27.333 526 82s401 131.334 595 230.001s359 216.167 495 352.5
s215.667 282.166 239 437.499v78c0 110.667 -38.833 206.334 -116.5 287.001s-184.334 141.667 -320 183c-135.667 41.333 -286.167 62 -451.5 62c-106.667 0 -187.334 -1.33301 -242.001 -4z" />
    <glyph glyph-name="E" unicode="E" horiz-adv-x="2568" 
d="M2388 872l15.999 -154.998c1.33301 -14.667 3.83301 -37.834 7.5 -69.501s5.5 -57.834 5.5 -78.501c0 -184.667 -81.5 -344.167 -244.5 -478.5s-368 -236.166 -615 -305.499s-490.5 -104 -730.5 -104c-190 0 -353.667 23.167 -491 69.5s-222 111.833 -254 196.5
c-41.333 109.333 -62 200.666 -62 273.999c0 122.667 40 233 120 331s185 183.833 315 257.5s283.667 146.167 461 217.5l505 202c-18.667 0 -46 -1.33301 -82 -4s-60.333 -4 -73 -4c-280.667 0 -494.167 43 -640.5 129s-219.5 195.667 -219.5 329
c0 92.667 36.5 189.667 109.5 291s178.667 197.166 317 287.5c138.333 90.333 308.666 168.5 510.999 234.5s427.5 110.667 675.5 134h185c368.667 0 553 -60.333 553 -181c0 -0.666992 2.66699 -25.334 8 -74c5.33301 -48.667 8 -89.334 8 -122.001
c0 -118.667 -45 -191 -135 -217c-46 0 -112.333 -19 -199 -57s-158.334 -80.667 -215 -128c-94 -57.333 -162.333 -86 -205 -86c-11.333 0 -21.666 4.16699 -30.999 12.5s-14 16.5 -14 24.5c0 23.333 24.333 61.666 73 114.999s118.667 113.333 210 180
c-189.333 0 -393 -24.667 -611 -74s-402.5 -113.666 -553.5 -192.999s-231.167 -161 -240.5 -245c0 -29.333 49.167 -56.333 147.5 -81s220.666 -44 366.999 -58s284.833 -21 415.5 -21c25.333 0 60.833 2.16699 106.5 6.5s79.834 6.5 102.501 6.5h94
c139.333 0 209 -31.667 209 -95c0 -33.333 -18.5 -72.5 -55.5 -117.5s-78.667 -85 -125 -120s-77.833 -52.5 -94.5 -52.5c-290 -27.333 -550.833 -75.666 -782.5 -144.999s-415.167 -146.833 -550.5 -232.5s-213.666 -164.834 -234.999 -237.501l-9 -12
c0 -23.333 34 -44.166 102 -62.499s153 -27.5 255 -27.5c143.333 0 304.833 17.833 484.5 53.5s366.167 94 559.5 175s375 184.833 545 311.5z" />
    <glyph glyph-name="F" unicode="F" horiz-adv-x="2126" 
d="M1524 1147l277.996 486.995c84.667 132 127 240 127 324c0 95.333 -71 143 -213 143c-80.667 0 -187.167 -15.333 -319.5 -46s-279.166 -70.667 -440.499 -120l-673 -211h94c44.667 0 80.334 -4.16699 107.001 -12.5s40 -16.166 40 -23.499c0 -26 -79 -66 -237 -120
s-275.667 -89.333 -353 -106c-12 -1.33301 -32.167 -5 -60.5 -11s-47.5 -9 -57.5 -9c-74 0 -111 27.333 -111 82c0 28 13.5 73.833 40.5 137.5s40.833 96.834 41.5 99.501c58 125.333 117 224.5 177 297.5s129 131 207 174s167.167 78.333 267.5 106
s250.5 63.167 450.5 106.5c100.667 24 218.5 50.167 353.5 78.5s270.833 52.5 407.5 72.5s259.667 30 369 30c281.333 0 422 -69.667 422 -209v-29c-47.333 -199.333 -124 -410.666 -230 -633.999s-219 -419 -339 -587l233 -28l-147 -275l-30 -50c-12 -20 -30 -42 -54 -66
s-57.667 -44.833 -101 -62.5s-95 -26.5 -155 -26.5c-2.66699 0 -10.167 0.833008 -22.5 2.5s-23.833 2.5 -34.5 2.5c-83.333 -121.333 -194 -253.666 -332 -396.999s-283.333 -279 -436 -407s-291.667 -230.167 -417 -306.5s-219.333 -114.5 -282 -114.5
c-49.333 0 -74 21.667 -74 65l-4 17c0 55.333 38.833 134.5 116.5 237.5s166.834 195 267.501 276s184.334 121.5 251.001 121.5l414 442h-45c-34 0 -107.833 -8.16699 -221.5 -24.5s-199.5 -24.5 -257.5 -24.5c-62 0 -114.5 10.833 -157.5 32.5s-64.5 54.5 -64.5 98.5v8
c2 64 28.333 123.833 79 179.5s116.667 101.334 198 137.001s168 58.5 260 68.5z" />
    <glyph glyph-name="G" unicode="G" horiz-adv-x="2740" 
d="M1147 94l171.496 247.496l118.5 180c43.333 68.333 80 131.333 110 189s52.333 111.5 67 161.5c-226.667 -221.333 -450.5 -400.166 -671.5 -536.499s-406.833 -204.5 -557.5 -204.5c-108 0 -193 40.833 -255 122.5s-93 204.834 -93 369.501l8 12
c14 284 95.333 540 244 768s339 423.667 571 587s481 296.666 747 400c266 103.333 529 179 789 227h37c54.667 0 105.834 -13.333 153.5 -40c47.667 -26.667 85.834 -61.334 114.5 -104c28.667 -42.667 43 -86 43 -130c0 -72 -36.667 -139 -110 -201l-594 -381
c-54.667 -30 -91.667 -45 -111 -45c-35.333 0 -53 15 -53 45c0 52.667 64 133.334 192 242.001c-153.333 -40.667 -319.166 -108.167 -497.499 -202.5s-344 -199.166 -497 -314.499s-269.167 -221.666 -348.5 -318.999c-74.667 -74.667 -148.667 -167.167 -222 -277.5
s-110 -204.833 -110 -283.5c0 -45.333 22 -87.666 66 -126.999c2.66699 0 7.33398 -2 14.001 -6s11.334 -6 14.001 -6c46.667 0 124 31.333 232 94s201.333 124 280 184l1115 881c21.333 19.333 58 29 110 29c57.333 0 110 -18.833 158 -56.5s72 -83.167 72 -136.5
c0 -45.333 -15.333 -89 -46 -131l-671 -1057l835 533c5.33301 -10.667 8 -31.334 8 -62.001c0 -74 -51.667 -162.667 -155 -266l-926 -618c-90.667 -119.333 -205.167 -248 -343.5 -386s-270.666 -252.333 -396.999 -343s-223.5 -136 -291.5 -136
c-26 0 -49.333 9.66699 -70 29c-48.667 67.333 -73 128.666 -73 183.999c0 102 49.5 205 148.5 309s229.5 217 391.5 339s256.333 201 283 237z" />
    <glyph glyph-name="H" unicode="H" horiz-adv-x="2740" 
d="M946 1110l651 709c35.333 35.333 75 87.5 119 156.5s66 127.167 66 174.5c0 29.333 -7 52.666 -21 69.999c-38 38 -135 57 -291 57c-84.667 0 -179.334 -8.16699 -284.001 -24.5s-211.667 -40.833 -321 -73.5s-214.333 -73.167 -315 -121.5
s-188.334 -103.5 -263.001 -165.5h73c49.333 0 74 -12.333 74 -37c0 -32 -54.167 -84.5 -162.5 -157.5s-224 -141.333 -347 -205s-198.833 -95.5 -227.5 -95.5l-8 8c-161.333 88.667 -242 187 -242 295c0 101.333 66.667 204.166 200 308.499s317.666 201 552.999 290
s500 161.667 794 218s596.333 89.833 907 100.5h16c101.333 0 177.833 -30 229.499 -90c51.667 -60 77.5 -137.667 77.5 -233c0 -175.333 -61.333 -324.333 -184 -447l-590 -651l532 61l656 836c48 62.667 108.667 124 182 184s124.666 90 154 90
c13.333 0 20 -2.66699 20 -8c24.667 -43.333 37 -82.666 37 -118c0 -70 -52 -178 -156 -324l-532 -660c98 0 183 -6.33301 255 -19s155 -45.667 249 -99c-157.333 -132 -267.666 -227.667 -331 -287c-63.333 -59.333 -121 -134.333 -173 -225
c-57.333 24.667 -121.666 37 -193 37c-24.667 0 -53.667 -0.833008 -87 -2.5s-60.333 -2.5 -81 -2.5c-42.667 -42.667 -88 -110 -136 -202s-72 -153 -72 -183l61 -237h-37c-21.333 0 -46.166 -4.66699 -74.499 -14s-68.333 -24.166 -120 -44.499
s-89.5 -34.166 -113.5 -41.499s-47 -11 -69 -11c-65.333 0 -98 43.667 -98 131c0 4 1.33301 11 4 21s4 15.333 4 16c0 53.333 13.667 103 41 149s74.5 113.333 141.5 202s119.5 167 157.5 235l-790 -111l-414 -475c-55.333 -125.333 -127.666 -188 -216.999 -188
c-44.667 0 -88 22.167 -130 66.5s-63 87.5 -63 129.5c0 23.333 5.66699 41.333 17 54l332 385c-107.333 -16.667 -163.333 -25 -168 -25c-76 0 -133.333 16.5 -172 49.5s-58 73.833 -58 122.5c0 43.333 14.167 89.333 42.5 138s64.333 89.667 108 123s86.5 50 128.5 50
c32.667 0 57 -5.33301 73 -16c22.667 -10.667 43.334 -16 62.001 -16c25.333 0 55.333 4.5 90 13.5s88.334 25.5 161.001 49.5l155.5 50.5c31 9.66699 70.167 19.5 117.5 29.5z" />
    <glyph glyph-name="I" unicode="I" horiz-adv-x="1069" 
d="M725 2064c-88 -54.667 -182.502 -120.833 -283.502 -198.5s-191.667 -157.5 -272 -239.5s-134.166 -155.667 -161.499 -221c127.333 24.667 198.333 37 213 37c44 0 66 -12.333 66 -37c0 -28.667 -35 -73 -105 -133s-137.333 -104.333 -202 -133
c-57.333 -36 -99.666 -54 -126.999 -54c-60 0 -155.667 48 -287 144c-52 27.333 -78 76.333 -78 147c0 90 45.667 201.833 137 335.5s198.5 259.5 321.5 377.5s224.167 198.667 303.5 242c163.333 85.333 309 154.333 437 207s251.333 79 370 79c156 0 265 -57.333 327 -172
c27.333 -61.333 41 -141.666 41 -241c0 -210 -86 -486 -258 -828c-83.333 -167.333 -191.833 -363.833 -325.5 -589.5s-242.167 -386.834 -325.5 -483.501c10.667 -26.667 16 -54 16 -82c0 -76 -37.333 -155 -112 -237s-145 -123 -211 -123h-25
c-117.333 18.667 -176 70.334 -176 155.001c0 90 49.333 195.333 148 316c282 390 501.667 728.667 659 1016c12.667 28 46.5 97.833 101.5 209.5s98.333 209 130 292s47.5 151.833 47.5 206.5c0 68.667 -34.333 103 -103 103c-63.333 0 -152 -31.667 -266 -95z" />
    <glyph glyph-name="J" unicode="J" horiz-adv-x="2290" 
d="M53 -852c-35.333 39.333 -52.998 84.3301 -52.998 134.997c0 110 68.833 241.5 206.5 394.5s302 299.667 493 440s352.5 241.833 484.5 304.5l266 471c12.667 23.333 60 101.166 142 233.499s155.167 257.833 219.5 376.5s121 243.834 170 375.501
s80.833 261.834 95.5 390.501c-120.667 -44.667 -243.334 -111.167 -368.001 -199.5s-243 -194.166 -355 -317.499s-207 -255.666 -285 -396.999s-131.333 -284.333 -160 -429c145.333 92.667 243.666 139 294.999 139c19.333 0 29 -5.33301 29 -16
c0 -40.667 -58.667 -111.667 -176 -213l-131.5 -135.5c-57.667 -59 -116.834 -110.667 -177.501 -155s-114.667 -66.5 -162 -66.5c-94 0 -144.667 88.667 -152 266c0 122 29 267.5 87 436.5s141 340 249 513s235.167 329.333 381.5 469s304.5 244.5 474.5 314.5
c206 98.667 376.667 148 512 148c54.667 0 104.5 -15.5 149.5 -46.5s80.5 -67.667 106.5 -110s39 -79.166 39 -110.5c-6.66699 -128 -39 -271.667 -97 -431s-128.667 -319.333 -212 -480s-170.666 -314.5 -261.999 -461.5s-170 -266.833 -236 -359.5l451 180l61 -148
l-688 -299l-571 -674.5c-153.333 -174.333 -294.333 -318.5 -423 -432.5s-228.667 -171 -300 -171c-46 0 -80.333 22 -103 66z" />
    <glyph glyph-name="K" unicode="K" horiz-adv-x="2867" 
d="M1663 1819l1102 539.996l108 46c56 24 102.167 42.167 138.5 54.5s67.5 18.5 93.5 18.5c43.333 0 65 -17.667 65 -53c0 -32.667 -6.66699 -64 -20 -94c-42.667 -98.667 -99.834 -176.667 -171.501 -234s-137.5 -86 -197.5 -86c-10 0 -23.333 3.16699 -40 9.5
s-28 10.166 -34 11.499l-1318 -656c-98.667 -50.667 -148 -108 -148 -172c0 -37.333 20.667 -68.666 62 -93.999l1257 -778c48 -15.333 84.5 -42.666 109.5 -81.999s37.5 -100.666 37.5 -183.999c0 -131.333 -49 -197 -147 -197c-71.333 0 -153.333 26 -246 78l-1396 831
l-295 -356c-21.333 -88 -59.833 -164.167 -115.5 -228.5s-116.334 -112.666 -182.001 -144.999s-125.167 -48.5 -178.5 -48.5c-33.333 0 -61.333 8.33301 -84 25s-34 38.334 -34 65.001c0 32 17.667 73 53 123l598 750c-44 68 -66 123.667 -66 167
c0 69.333 47 139.666 141 210.999s256 162.333 486 273l365 536c-115.333 -10 -245 -41.667 -389 -95s-320.667 -127.333 -530 -222s-368.166 -163.667 -476.499 -207s-196.166 -65 -263.499 -65c-34 0 -62.333 10.167 -85 30.5s-34 46.833 -34 79.5
c6 306.667 186.333 564.667 541 774.001c36 22 71.333 33 106 33c27.333 0 41 -11 41 -33c0 -38.667 -56 -106.667 -168 -204c27.333 10 129 51.667 305 125s336.5 132.666 481.5 178c145 45.333 281.5 72.666 409.5 82c16 0 36.333 1.33301 61 4s41.334 4 50.001 4
c67.333 0 114.666 -11 141.999 -33s62 -63 104 -123c38 -51.333 57 -103.333 57 -156c0 -40.667 -9.66699 -77.334 -29 -110z" />
    <glyph glyph-name="L" unicode="L" horiz-adv-x="2904" 
d="M1204 627c127.333 -18 262.5 -42.333 405.5 -73s305.833 -68 488.5 -112s314 -74.833 394 -92.5s165.333 -33.167 256 -46.5c-44 -35.333 -110 -95.333 -198 -180s-159 -144.834 -213 -180.501s-113.333 -53.5 -178 -53.5h-37c-72 4.66699 -212.667 27.834 -422 69.501
s-395.833 74.667 -559.5 99s-336.167 36.5 -517.5 36.5h-136c-38.667 -24 -94.334 -48.333 -167.001 -73s-135.667 -37 -189 -37c-82 0 -123 30 -123 90c5.33301 0 8 6.66699 8 20c44.667 74.667 111.334 169.667 200.001 285s169.667 178.666 243 189.999
c52 8.66699 118.833 17.667 200.5 27s152.5 19.666 212.5 30.999l1045 1220c97.333 107.333 219 231.5 365 372.5s263.333 236.833 352 287.5c102 73.333 190.667 110 266 110c50 0 87.833 -19 113.5 -57s38.5 -88.667 38.5 -152c0 -121.333 -31.667 -246.666 -95 -375.999
c-89.333 -184 -197 -363 -323 -537c27.333 -4 48.5 -13 63.5 -27s22.5 -28.333 22.5 -43c0 -31.333 -31 -71.166 -93 -119.499s-135.833 -97.833 -221.5 -148.5l-128.5 -76c-62.667 -40.667 -114.334 -61 -155 -61c-44 0 -66 30 -66 90c0 55.333 19.833 131 59.5 227
s92.667 197 159 303s135.5 198.333 207.5 277c90 94 135 150 135 168v8c-14 0 -68.167 -38.833 -162.5 -116.5s-172.5 -149.5 -234.5 -215.5z" />
    <glyph glyph-name="M" unicode="M" horiz-adv-x="4129" 
d="M1294 1614l807 745.002c164.667 153.333 315 230 451 230c123.333 0 202.333 -57.333 237 -172c1.33301 -14.667 3.83301 -34.667 7.5 -60s5.5 -46.333 5.5 -63c0 -44 -8.33301 -89.5 -25 -136.5s-40.667 -100.333 -72 -160l-125 -236.5
c-50 -99.333 -160.333 -267.333 -331 -504l1433 1250c56 43.333 105.333 65 148 65c62.667 0 132.334 -51.667 209 -155c43.333 -61.333 65 -110.666 65 -147.999c0 -38 -21.667 -87 -65 -147l-326 -405.5l-336.5 -416c-74.333 -93 -149.833 -193 -226.5 -300
s-128.667 -192.167 -156 -255.5c-49.333 -129.333 -74 -230.333 -74 -303c0 -52.667 11.833 -93.834 35.5 -123.501s54.167 -44.5 91.5 -44.5c28 0 59.667 9.66699 95 29c212.667 90 481.667 297.667 807 623l28 -181c-64.667 -90.667 -160.834 -193.334 -288.5 -308.001
c-127.667 -114.667 -238.834 -208.334 -333.5 -281.001c-259.333 -188.667 -468.333 -283 -627 -283c-107.333 0 -186.666 45 -238 135c-57.333 94.667 -86 198.334 -86 311.001c0 90 18.667 185.833 56 287.5s89.5 208.5 156.5 320.5s133.167 212.833 198.5 302.5
l327 441.5c-22.667 -22.667 -105.5 -94.334 -248.5 -215.001l-368.5 -318c-102.667 -91.333 -185.334 -173 -248 -245l-651 -737l-72 -81c-30.667 -34.667 -63 -65.334 -97 -92.001s-66.333 -40 -97 -40c-40 0 -71.333 21.667 -94 65
c-71.333 136.667 -107 240.334 -107 311.001c0 83.333 35.667 166.666 107 249.999c36 42.667 76 92.834 120 150.501l157.5 212.5l145.5 200.5l113 153.5c112.667 158.667 210.5 308.167 293.5 448.5s124.5 229.833 124.5 268.5c0 16.667 -2.66699 25 -8 25
c-35.333 0 -132.333 -79.333 -291 -238l-627 -651c-47.333 -69.333 -121 -169.833 -221 -301.5l-337.5 -437.5c-125 -160 -195.5 -251 -211.5 -273c-60 -90 -126.667 -135 -200 -135c-48.667 0 -94.5 24.333 -137.5 73s-77.333 109.167 -103 181.5s-38.5 140.5 -38.5 204.5
l774 925c27.333 56 73.333 143.667 138 263s112.5 212.5 143.5 279.5s46.5 119.833 46.5 158.5c0 43.333 -20.667 65 -62 65c-40 0 -117.667 -26 -233 -78l-807 -422c-109.333 -60 -191.333 -90 -246 -90c-73.333 0 -110 39.667 -110 119l61 361
c0 40.667 49.333 110.334 148 209l176 147c58.667 54.667 120 82 184 82c30 0 45 -9.66699 45 -29c0 -42.667 -57.333 -109.334 -172 -200c124 44 279.333 107.833 466 191.5s323.834 142.834 411.501 177.5c87.667 34.667 161.167 52 220.5 52
c43.333 0 74.666 -12 93.999 -36c118 -120 189 -229.333 213 -328v-29c0 -39.333 -13.833 -98 -41.5 -176s-61.667 -162.833 -102 -254.5z" />
    <glyph glyph-name="N" unicode="N" horiz-adv-x="2785" 
d="M819 1081l385.001 442.997l344.5 381c94.333 104.667 194.333 203.667 300 297s221.167 174.333 346.501 243c100 60 174 90 222 90c53.333 0 107.666 -30 163 -90c93.333 -92.667 140 -182.667 140 -270c0 -64 -27.333 -140.333 -82 -229
c-36 -60.667 -119.667 -185.167 -251 -373.5l-294 -427c-64.667 -96.333 -122 -190.166 -172 -281.499c-106.667 -230 -160 -385.667 -160 -467c0 -57.333 22 -86 66 -86c38 0 99.333 27.333 184 82c82 52 155.167 107.833 219.5 167.5s134.166 131.834 209.5 216.501
l169 186l29 -218c-70.667 -104 -174.667 -231.5 -312 -382.5s-283.666 -284 -438.999 -399s-291.333 -172.5 -408 -172.5c-66.667 0 -125.334 23.333 -176.001 70c-71.333 58 -107 138.333 -107 241c0 66 10.667 135.5 32 208.5s47.166 144.833 77.499 215.5
s61.5 138 93.5 202s49 100 51 108l590 1040l-561 -528c-83.333 -72 -185.333 -180.167 -306 -324.5s-235 -287.666 -343 -429.999l-306 -409.5l-56 -75.5c-33.333 -45 -61.166 -77 -83.499 -96s-46.833 -28.5 -73.5 -28.5c-46 0 -115.667 36.667 -209 110
c-54.667 59.333 -82 107.333 -82 144c0 30.667 18 71.334 54 122.001c66.667 83.333 155.167 220.166 265.5 410.499l322 581c104.333 197 167.833 322.833 190.5 377.5c52 130.667 78 218 78 262c0 43.333 -22 65 -66 65c-34.667 0 -89.334 -17.667 -164.001 -53
l-353.5 -178.5l-362.5 -182.5c-19.333 -10 -60 -40.5 -122 -91.5s-114 -90.667 -156 -119s-79.333 -42.5 -112 -42.5c-14.667 0 -30.834 7.16699 -48.501 21.5s-28.5 31.5 -32.5 51.5c0 11.333 -1.5 25 -4.5 41s-4.5 27 -4.5 33c0 120.667 49.833 262.667 149.5 426
s220.5 295.666 362.5 397c141.333 104 242.333 156 303 156c14 0 21 -8.33301 21 -25c0 -41.333 -58.667 -115 -176 -221c294 161.333 591.667 280.333 893 357c24.667 5.33301 64.334 8 119.001 8c83.333 0 145.666 -22.833 186.999 -68.5s62 -104.834 62 -177.5
c0 -54.667 -1.33301 -94.334 -4 -119c-9.33301 -42.667 -47 -129.334 -113 -260l-272 -519z" />
    <glyph glyph-name="O" unicode="O" horiz-adv-x="2372" 
d="M2064 2093h36.9961c130.667 0 224.834 -36.167 282.5 -108.5c57.667 -72.333 86.5 -167.166 86.5 -284.499c0 -140 -37 -308 -111 -504c-92.667 -210 -229 -407.333 -409 -592s-377.667 -331.5 -593 -440.5s-420.666 -163.5 -615.999 -163.5
c-78.667 0 -166 12.333 -262 37c-143.333 46 -255.666 137 -336.999 273s-122 289.333 -122 460c0 137.333 35.667 290.333 107 459c105.333 200 247.333 386.167 426 558.5s375.834 322.333 591.501 449.999c215.667 127.667 430.834 226.834 645.501 297.5
c94 24.667 158 37 192 37c122.667 0 239 -71 349 -213c24 -33.333 36 -66 36 -98c0 -17.333 -6.83301 -32.666 -20.5 -46c-13.667 -13.333 -33.667 -26.166 -60 -38.5c-26.333 -12.333 -55.833 -24.166 -88.5 -35.5zM835.996 1315
c-100 -85.333 -189.166 -203.166 -267.499 -353.499s-117.5 -241.5 -117.5 -273.5c-14 -82.667 -21 -137.334 -21 -164.001c0 -58 11.833 -107.5 35.5 -148.5s58.167 -65.167 103.5 -72.5c6 0 15 -1.33301 27 -4s21 -4 27 -4c136.667 0 306.167 51.5 508.5 154.5
s382.166 250.833 539.499 443.5c48 50.667 103.333 115.5 166 194.5s118.667 160.333 168 244s78.666 157.167 87.999 220.5c8 54 12 99.333 12 136c0 117.333 -56 176 -168 176c-100.667 0 -232.5 -43.5 -395.5 -130.5s-306.833 -186.833 -431.5 -299.5
c-16.667 -10 -49 -52.167 -97 -126.5s-82.667 -111.5 -104 -111.5c-29.333 0 -53.666 39.667 -72.999 119z" />
    <glyph glyph-name="P" unicode="P" horiz-adv-x="2408" 
d="M1155 1376c38 5.33301 88.665 8 151.998 8c40 0 72.5 -4.5 97.5 -13.5s37.5 -19.5 37.5 -31.5c0 -18.667 -31.167 -39.334 -93.5 -62.001s-147.166 -38.667 -254.499 -48l-90 -119c92.667 -30 196.334 -45 311.001 -45c170 0 348 30.5 534 91.5s341 153.5 465 277.5
c153.333 152 230 273.333 230 364c0 166.667 -306 274.667 -918 324.001v-45c0 -58.667 -30 -112 -90 -160zM1389 2093c-351.333 0 -747.333 -82.001 -1188 -246.001c-62 -13.333 -95 -20 -99 -20c-38 0 -57 15 -57 45c0 34.667 18.667 83.834 56 147.501
s92.333 145.5 165 245.5s109.667 150.667 111 152c26 40.667 120.333 81.334 283 122c162.667 40.667 316.667 69.667 462 87c148 24 313.333 36 496 36c330 0 618.667 -53.167 866 -159.5s371 -291.833 371 -556.5c0 -246 -57.667 -456.5 -173 -631.5
s-267.333 -314.333 -456 -418s-391.334 -178 -608.001 -223s-433.667 -67.5 -651 -67.5c-47.333 0 -105.833 3.16699 -175.5 9.5s-119.167 10.166 -148.5 11.499l-119 -234c41.333 -14.667 62 -37.667 62 -69c0 -20 -17 -52.333 -51 -97s-56.667 -78 -68 -100
c-20 -46.667 -51.333 -93.667 -94 -141s-88.5 -86.166 -137.5 -116.499s-90.5 -45.5 -124.5 -45.5c-52 0 -82.333 31.333 -91 94c0 80 25.333 173.833 76 281.5s144.334 280.167 281.001 517.5c-54 14 -98.167 39.5 -132.5 76.5s-51.5 78.5 -51.5 124.5
c0 78 51.667 156 155 234s251 132.333 443 163z" />
    <glyph glyph-name="Q" unicode="Q" horiz-adv-x="2658" 
d="M1118 541l836 -148.002h295l266 29c-22 -65.333 -60.333 -149.333 -115 -252s-86 -166 -94 -190c-6.66699 -71.333 -95.334 -107 -266.001 -107c-64 0 -134.5 5.33301 -211.5 16l-210.5 29l-1159 176c-55.333 -48 -115.833 -85.167 -181.5 -111.5
s-121.167 -39.5 -166.5 -39.5c-63.333 0 -95 21.667 -95 65c16.667 114.667 47.834 223.167 93.501 325.5s103.5 180.833 173.5 235.5c28.667 30 90 45 184 45c52 0 108 -5.33301 168 -16c207.333 96.667 449.333 237.334 726 422.001s513.5 374.834 710.5 570.501
s295.5 363.167 295.5 502.5c0 24.667 -12.833 44.5 -38.5 59.5s-57.834 22.5 -96.501 22.5c-96 0 -232.667 -32.5 -410 -97.5s-353.5 -140.333 -528.5 -226s-303.167 -155.5 -384.5 -209.5c51.333 0 106.333 1.5 165 4.5s99.334 4.5 122.001 4.5c65.333 0 98 -12.333 98 -37
v-41c0 -22.667 -8.5 -38.167 -25.5 -46.5s-46.667 -14.666 -89 -18.999s-73.833 -8.5 -94.5 -12.5c-58.667 -16.667 -116.167 -36.334 -172.5 -59.001s-116.833 -49 -181.5 -79s-114.667 -52 -150 -66s-63.666 -21 -84.999 -21c-44 0 -66 35.333 -66 106v443h-8
c0 59.333 101.167 148.5 303.5 267.5s440.5 232.167 714.5 339.5s504 174 690 200h74c85.333 0 167.5 -16.833 246.5 -50.5s143.667 -86.334 194 -158c50.333 -71.667 75.5 -160.834 75.5 -267.501c0 -145.333 -56.167 -294.833 -168.5 -448.5
s-252.333 -300.167 -420 -439.5s-345.334 -272.166 -533.001 -398.499z" />
    <glyph glyph-name="R" unicode="R" horiz-adv-x="2822" 
d="M696 606l-327.001 -475c0 -3.33301 1.33301 -11.333 4 -24s4 -21 4 -25c0 -59.333 -30.167 -111 -90.5 -155s-118.833 -66 -175.5 -66c-28.667 0 -53 9.16699 -73 27.5s-30 43.166 -30 74.499c0 24 22 80 66 168l323 565c-112 34 -168 80.667 -168 140
c0 16 4.33301 33.167 13 51.5s20.667 38.666 36 60.999s26.333 39.166 33 50.499c82.667 96.667 159.334 159.834 230.001 189.501s163.334 44.5 278.001 44.5l533 807c-382.667 -75.333 -631.334 -137 -746.001 -185c202 -25.333 303 -56.666 303 -93.999
c0 -35.333 -61.333 -53 -184 -53c-29.333 0 -116.833 -9.5 -262.5 -28.5s-245.167 -28.5 -298.5 -28.5c-3.33301 0 -9 -1.5 -17 -4.5s-13.333 -4.5 -16 -4.5c-68 0 -102 37 -102 111c0 84.667 64 240.334 192 467.001c41.333 62 124.166 118.833 248.499 170.5
s273.5 95.667 447.5 132s353.5 64 538.5 83s360.5 28.5 526.5 28.5s327.333 -9.83301 484 -29.5s300.167 -69.667 430.5 -150s195.5 -200.833 195.5 -361.5c0 -9.33301 -1.33301 -27 -4 -53s-4 -45.333 -4 -58c-34 -188 -119.833 -339 -257.5 -453
s-301.5 -199.833 -491.5 -257.5s-444.667 -113 -764 -166s-520.666 -88.5 -603.999 -106.5l1458 -483c68.667 -18.667 126.834 -74.5 174.5 -167.5c47.667 -93 71.5 -181.833 71.5 -266.5c0 -12 -1.5 -25 -4.5 -39s-4.5 -23 -4.5 -27c-14 -65.333 -50.667 -98 -110 -98
c-28.667 0 -76.5 15.167 -143.5 45.5s-110.833 47.833 -131.5 52.5zM2789 2011c0 62.667 -146.001 94 -438.001 94c-187.333 0 -441.333 -12.333 -762 -37v-49c0 -27.333 -5.16699 -52.166 -15.5 -74.499s-25.166 -47.333 -44.499 -75s-29.333 -41.834 -30 -42.501
l-295 -475c194.667 28.667 418 80.167 670 154.5s467.5 156 646.5 245s268.5 170.167 268.5 243.5v16z" />
    <glyph glyph-name="S" unicode="S" horiz-adv-x="2658" 
d="M2298 2093c-139.333 0 -288.002 -16.6699 -446.002 -50.0029s-308.167 -76.333 -450.5 -129s-257.166 -106.167 -344.499 -160.5s-131 -99.5 -131 -135.5l4 -4c7.33301 -31.333 87 -67.666 239 -108.999l535 -144c204.667 -54.667 378.334 -117 521.001 -187
s227 -152.667 253 -248c8 -90 12 -138 12 -144c0 -128 -51.833 -245.5 -155.5 -352.5s-226.334 -193.833 -368.001 -260.5s-270.167 -110.667 -385.5 -132c-337.333 -62.667 -665 -94 -983 -94s-505 41 -561 123c-19.333 27.333 -29 54.333 -29 81
c0 58.667 24.667 127.834 74 207.501s93 132.167 131 157.5c98.667 57.333 195.667 86 291 86c38 0 57 -9.66699 57 -29c0 -30.667 -56 -70 -168 -118c30 0 67.667 -1.5 113 -4.5s78.666 -4.5 99.999 -4.5c252.667 0 487 16.333 703 49s397.667 78.834 545 138.501
s246 128.5 296 206.5v8c0 36.667 -59.167 79 -177.5 127s-254 90.667 -407 128s-276.167 60 -369.5 68c-154 16 -269.167 31 -345.5 45s-151.166 49.667 -224.499 107s-110 144.666 -110 261.999c0 6 8.33301 55.333 25 148c24.667 110.667 47.834 193.167 69.501 247.5
s54.167 102.333 97.5 143.999c43.333 41.667 104.833 83.334 184.5 125c79.667 41.667 201.167 98.834 364.5 171.501c270 120 573.333 180 910 180h340c245.333 0 368 -67 368 -201c0 -4.66699 -1.33301 -15 -4 -31s-4 -27.333 -4 -34
c-14 -63.333 -28.5 -112.833 -43.5 -148.5s-52.333 -75.167 -112 -118.5s-148.5 -82.666 -266.5 -117.999c-21.333 -5.33301 -43.666 -16 -67 -32c-23.333 -16 -56.666 -40.667 -100 -74c-43.333 -33.333 -77.833 -57.5 -103.5 -72.5s-50.167 -22.5 -73.5 -22.5
c-6 0 -13.667 2.66699 -23 8l-14 8c-21.333 5.33301 -32 17.666 -32 36.999c0 22 16.667 51.833 50 89.5s76.833 80.334 130.5 128.001s82.167 73.5 85.5 77.5z" />
    <glyph glyph-name="T" unicode="T" horiz-adv-x="1069" 
d="M1303 2064c-152 0 -316.829 -7.33594 -494.496 -22.0029s-352.834 -35.167 -525.501 -61.5s-336.834 -58.166 -492.501 -95.499s-287.834 -78.666 -396.501 -123.999c101.333 -3.33301 184.666 -16.166 249.999 -38.499s98 -42.166 98 -59.499
c0 -12.667 -23.667 -24 -71 -34s-112.333 -15 -195 -15c-80 0 -205.667 9.33301 -377 28c-41.333 0 -62 34.333 -62 103c0 28.667 3.83301 67.334 11.5 116.001s15.5 95.334 23.5 140.001s14.5 84.667 19.5 120.001c5 35.333 7.5 65.666 7.5 91
c0 55.333 55.333 109.666 166 163c110.667 53.333 252.334 101.166 425.001 143.5c172.667 42.333 348 75.5 526 99.5s330 36 456 36c251.333 -10 430 -21.833 536 -35.5s189.833 -43.167 251.5 -88.5s117.167 -122.666 166.5 -232c19.333 -28.667 29 -72.334 29 -131.001
c0 -59.333 -15.333 -121.333 -46 -186s-75.834 -140.834 -135.501 -228.501s-97.5 -144.834 -113.5 -171.501l-717 -1069c54.667 -8 82 -34 82 -78c0 -26.667 -13.333 -60.334 -40 -101.001s-69.334 -97.167 -128.001 -169.5s-99.667 -124.166 -123 -155.499
c-78 -98 -168 -147 -270 -147c-40.667 0 -75.5 13.667 -104.5 41s-43.5 66.666 -43.5 117.999c0 3.33301 0.666992 11 2 23s2 19.667 2 23c14.667 112.667 64.334 246.667 149.001 402s163.667 287.333 237 396z" />
    <glyph glyph-name="U" unicode="U" horiz-adv-x="2986" 
d="M1974 1286l-356.498 -335.499l-506 -470c-139 -125.667 -272.833 -237.167 -401.5 -334.5s-218 -146 -268 -146l-12 8c-135.333 0 -237.5 32.5 -306.5 97.5s-103.5 148.5 -103.5 250.5c0 71.333 17.667 150.833 53 238.5s82 168.167 140 241.5l897 1081
c44 48 66 82 66 102c0 14 -15.333 21 -46 21c-69.333 0 -250.666 -64.333 -543.999 -193c-142 -56 -236.833 -101.667 -284.5 -137s-99.167 -93.333 -154.5 -174c65.333 22 142 33 230 33c42.667 0 80.667 -6.16699 114 -18.5s50 -23.833 50 -34.5
c0 -24.667 -39.667 -46.667 -119 -66c-327.333 -72.667 -559.333 -142.334 -696 -209.001l-17.5 -6c-11.667 -4 -21.834 -7.33301 -30.501 -10s-17.334 -4 -26.001 -4c-62.667 0 -94 51.667 -94 155c0 90 21.667 195 65 315s87 196.667 131 230
c41.333 32 122.833 80.667 244.5 146s261.167 136.666 418.5 214l425.5 201.5c126.333 57 212.833 92.5 259.5 106.5c118 30 219 45 303 45c106.667 0 188.667 -25.833 246 -77.5s86 -125.5 86 -221.5v-94c-16.667 -95.333 -80.334 -218.166 -191.001 -368.499
s-255.834 -330.833 -435.501 -541.5s-289.167 -345.667 -328.5 -405c-122.667 -184.667 -184 -300.667 -184 -348c0 -19.333 9.66699 -29 29 -29c64.667 0 205.334 86 422.001 258c142.667 114.667 291.667 246.5 447 395.5l531.5 530.5l418 427
c79.667 80 151.834 146.333 216.5 199c58.667 49.333 110.667 74 156 74c48 0 86.667 -26.167 116 -78.5s44 -110.833 44 -175.5c0 -52.667 -7 -91 -21 -115c-54 -82.667 -123.833 -183.167 -209.5 -301.5l-293 -404.5c-109.667 -151.333 -199.167 -283.833 -268.5 -397.5
s-120.666 -214.167 -154 -301.5c-52 -114.667 -78 -203.334 -78 -266.001c0 -84.667 36.667 -127 110 -127c81.333 0 194.5 46.333 339.5 139s280.5 206 406.5 340l29 -147v-12c0 -49.333 -67 -127.833 -201 -235.5s-281.5 -206.667 -442.5 -297
s-274.5 -135.5 -340.5 -135.5c-262 0 -393 94.333 -393 283c0 69.333 18.167 154.833 54.5 256.5s92.333 221.167 168 358.5s172.167 294 289.5 470z" />
    <glyph glyph-name="V" unicode="V" horiz-adv-x="1520" 
d="M745 2032c-162.667 -70 -347.168 -165.335 -553.501 -286.002s-328.833 -215.334 -367.5 -284.001c57.333 22 122.666 33 195.999 33c39.333 0 74.5 -6.16699 105.5 -18.5s46.5 -23.833 46.5 -34.5c0 -24 -35.333 -46 -106 -66c-292 -73.333 -501 -143 -627 -209
c-42 -13.333 -64 -20 -66 -20c-54.667 0 -82 52 -82 156c0 93.333 18.333 199.5 55 318.5s77.334 194.167 122.001 225.5c70.667 61.333 274.834 184.5 612.501 369.5s549.834 291.167 636.501 318.5l82.5 31c31 11.333 64.833 21.333 101.5 30s73.667 13 111 13
c109.333 0 191 -34 245 -102c38.667 -44.667 58 -102 58 -172c0 -33.333 -6.16699 -67 -18.5 -101s-28 -68.667 -47 -104l-53.5 -98c-27.333 -64 -121.833 -230.667 -283.5 -500s-291.334 -499 -389.001 -689s-146.5 -335.667 -146.5 -437c0 -49.333 15 -83.666 45 -102.999
c2.66699 0 6 -2.66699 10 -8s7.33301 -8 10 -8c79.333 0 212.5 127.833 399.5 383.5s423.833 598.834 710.5 1029.5c-10.667 21.333 -16 41.666 -16 60.999c0 60 25.5 135.667 76.5 227s109.833 171.333 176.5 240s121.667 103 165 103c20 0 38 -13.667 54 -41
s24 -64.333 24 -111v-57c0 -62 -16.333 -129.167 -49 -201.5s-79 -158.5 -139 -258.5s-98.333 -166.667 -115 -200c-79.333 -149.333 -180.166 -315.166 -302.499 -497.499s-249.833 -357 -382.5 -524s-251.334 -301.5 -356.001 -403.5
c-108.667 -109.333 -202.667 -164 -282 -164c-54 0 -104.167 21.5 -150.5 64.5s-109.5 115.833 -189.5 218.5c-44 54.667 -66 128.334 -66 221.001c0 96.667 22.667 209 68 337s104.333 264.333 177 409s149.667 288.667 231 432z" />
    <glyph glyph-name="W" unicode="W" horiz-adv-x="3064" 
d="M1618 1049c-64 -64 -166.835 -174.835 -308.502 -332.502l-333.5 -365.5c-80.667 -86 -168.667 -171.333 -264 -256s-179.666 -143.667 -252.999 -177c-24.667 -8 -57.667 -12 -99 -12c-68 0 -126.667 24.667 -176 74c-71.333 97.333 -119.833 168.166 -145.5 212.499
s-38.5 90.833 -38.5 139.5c0 86 61.333 214.333 184 385l983 1130c24.667 31.333 37 67 37 107c0 24.667 -12.333 45.167 -37 61.5s-56 24.5 -94 24.5c-85.333 0 -182.333 -22 -291 -66c-54 -18 -128.333 -48.333 -223 -91l-297.5 -134.5
c-103.667 -47 -188.167 -82.5 -253.5 -106.5l-107.5 -59c-71.667 -39.333 -124.5 -59 -158.5 -59c-65.333 0 -98 42.333 -98 127c0 48.667 2.66699 85.334 8 110.001c26.667 198 145.334 388 356.001 570c162.667 128 268 192 316 192c16 0 24 -5.33301 24 -16
c0 -27.333 -34 -86 -102 -176c34 9.33301 122.333 37.833 265 85.5s266.667 84.167 372 109.5s205.666 38 300.999 38c102.667 0 179 -9.66699 229 -29c54 -21.333 101.667 -81 143 -179s62 -195.333 62 -292c0 -56 -9.66699 -105 -29 -147
c-40 -76.667 -86.167 -153.834 -138.5 -231.501s-106.166 -151.834 -161.499 -222.501l-205 -254.5l-154 -188.5c-28.667 -38 -84.167 -106.333 -166.5 -205l-187.5 -230.5c-42.667 -55 -64 -90.167 -64 -105.5h4c16 -8 27 -12 33 -12c37.333 0 91.5 28 162.5 84
s138.167 115 201.5 177l197 198l1040 1106c169.333 218 300.666 327 394 327c53.333 0 92.666 -20.333 118 -61c54.667 -69.333 82 -130.666 82 -183.999c0 -75.333 -47.667 -173.666 -143 -294.999c-99.333 -138 -216 -310.167 -350 -516.5s-247 -393.333 -339 -561
s-138 -282.5 -138 -344.5c0 -6.66699 8 -19 24 -37l4 -4c35.333 0 114.5 48 237.5 144s244 203.5 363 322.5s196.167 214.833 231.5 287.5c57.333 57.333 118.333 134.333 183 231s121.5 192.5 170.5 287.5s78.5 167.833 88.5 218.5c-16 34 -24 57.333 -24 70
c0 46.667 17 103 51 169s74.833 123.333 122.5 172s89.5 73 125.5 73c26.667 0 49 -16.5 67 -49.5s27 -80.833 27 -143.5c0 -12 -1.33301 -33.667 -4 -65s-4 -54.666 -4 -69.999c-6.66699 -95.333 -41.334 -218 -104 -368c-62.667 -150 -142.834 -309.5 -240.5 -478.5
c-97.667 -169 -203.5 -330.167 -317.5 -483.5s-221 -276.666 -321 -369.999c-155.333 -132.667 -275.5 -228.667 -360.5 -288s-173.833 -89 -266.5 -89c-96 0 -184.667 37 -266 111c-84.667 84.667 -127 185.667 -127 303c0 84.667 20.667 193.5 62 326.5z" />
    <glyph glyph-name="X" unicode="X" horiz-adv-x="2540" 
d="M1339 963l-896.997 -835.998c-138 -134 -254 -201 -348 -201c-57.333 0 -86 31.333 -86 94c0 56.667 25.667 125.167 77 205.5s127.333 161.666 228 243.999s223 155.166 367 218.499l688 660l29 831c-141.333 -33.333 -326.833 -93.666 -556.5 -180.999
s-391.167 -166.333 -484.5 -237c28.667 0 63.667 0.666992 105 2s68 2 80 2c62.667 0 94 -6.66699 94 -20c0 -12.667 -32 -31.667 -96 -57s-143.833 -53.5 -239.5 -84.5s-146.5 -48.167 -152.5 -51.5c-63.333 -24 -107 -36 -131 -36c-54.667 0 -82 30 -82 90
c0 62 26 147 78 255s97 185.333 135 232c38.667 54.667 114.167 113 226.5 175s243.666 119.5 393.999 172.5s299.666 95.667 447.999 128s278.5 48.5 390.5 48.5c91.333 0 164.666 -14.167 219.999 -42.5s83 -68.5 83 -120.5v-9l-62 -684l623 627
c82 74 143.333 111 184 111c22 0 39.833 -11.5 53.5 -34.5s20.5 -51.167 20.5 -84.5c0 -48.667 -14 -103.5 -42 -164.5s-66.333 -113 -115 -156s-103 -64.5 -163 -64.5c-1.33301 0 -5.66602 1.33301 -13 4c-7.33301 2.66699 -12.333 4 -15 4l-561 -569l-58 -955
c0 -98 28.667 -147 86 -147c29.333 0 67 12.5 113 37.5s101.333 60.833 166 107.5l168 121l86 -119c-60.667 -88.667 -133.834 -169.5 -219.5 -242.5c-85.667 -73 -172 -135.333 -259 -187s-163.833 -91.334 -230.5 -119.001s-109 -41.5 -127 -41.5h-20
c-147.333 0 -221 157 -221 471c0 80 6 191 18 333s18 232 18 270z" />
    <glyph glyph-name="Y" unicode="Y" horiz-adv-x="2372" 
d="M1810 1286l-446.996 -390.497l-567 -481.5c-167.333 -138.667 -277 -224.667 -329 -258c-68.667 -44 -133 -66 -193 -66c-70.667 0 -130.667 28.333 -180 85s-74 109 -74 157l-4 16c0 76 38.333 178.833 115 308.5s170.5 265.5 281.5 407.5l376.5 460.5
c140 165 222.333 263.167 247 294.5c93.333 103.333 140 177 140 221c0 24.667 -12.333 37 -37 37c-44.667 0 -118.334 -24.667 -221.001 -74c-54.667 -26.667 -125.834 -64.334 -213.501 -113.001l-355.5 -199.5l-296 -166.5c-170 -93.333 -269.667 -140 -299 -140
c-32.667 0 -49 22 -49 66c0 34.667 7 78.334 21 131.001c31.333 127.333 65.166 224.333 101.499 291s86.833 124.667 151.5 174s169.334 109.5 314.001 180.5l448 218.5c336 120.667 584.667 181 746 181c102.667 0 171 -20.667 205 -62c24.667 -30 37 -71 37 -123
c0 -84.667 -32.167 -180.167 -96.5 -286.5s-122.5 -185.5 -174.5 -237.5l-602 -750c-8 -12 -36.333 -51.833 -85 -119.5s-88.334 -126.667 -119.001 -177s-46 -86.5 -46 -108.5c0 -2.66699 2.16699 -5.83398 6.5 -9.50098s7.83301 -6.16699 10.5 -7.5
c0.666992 0 6.33398 -2 17.001 -6s18.667 -6 24 -6c65.333 0 139.833 34.333 223.5 103s182.5 160 296.5 274l230.5 198l296 256l234.5 212c62 58.667 106 105.667 132 141c112.667 117.333 209.334 176 290.001 176c42 0 75.833 -19.333 101.5 -58
s38.5 -83.334 38.5 -134.001c0 -49.333 -12.333 -106.666 -37 -171.999c-52.667 -89.333 -121.167 -194.833 -205.5 -316.5l-291 -406l-311 -422.5l-241.5 -338c-48.667 -76 -73 -126.667 -73 -152c0 -13.333 6.66699 -20 20 -20c25.333 0 89.666 31 192.999 93
s167.333 97.667 192 107c176 98.667 311.333 148 406 148c48.667 0 73 -12.333 73 -37c0 -54 -61.333 -130.333 -184 -229c-511.333 -430 -799.333 -677.333 -864 -742l-170.5 -169c-43.667 -42.667 -85.667 -77.667 -126 -105s-79.5 -41 -117.5 -41
c-28 0 -58 6.66699 -90 20c-49.333 32 -74 86.667 -74 164c0 63.333 17.167 140.5 51.5 231.5s71.833 166.833 112.5 227.5c74 141.333 156.667 283.166 248 425.499s178.166 270.666 260.499 384.999l289 395c110.333 149 191.166 261.833 242.499 338.5z" />
    <glyph glyph-name="Z" unicode="Z" horiz-adv-x="2417" 
d="M1495 1257c139.333 -12 254.001 -55.8311 344.001 -131.498s135 -166.834 135 -273.501v-45c86.667 43.333 157.667 65 213 65c22 0 39.833 -5.5 53.5 -16.5s20.5 -24.5 20.5 -40.5c0 -30.667 -23.833 -63.334 -71.5 -98.001s-119.5 -64.667 -215.5 -90
c-31.333 -214.667 -120.333 -415.5 -267 -602.5s-311.667 -345.167 -495 -474.5s-348.333 -223.666 -495 -282.999c-144.667 -68.667 -270.334 -103 -377.001 -103c-66 0 -127.333 15 -184 45c-93.333 47.333 -140 115.666 -140 204.999c0 72.667 36.667 154 110 244
s181.666 197.333 324.999 322c86 82 239.5 195.333 460.5 340s464.5 267.334 730.5 368.001c-7.33301 122.667 -83.666 184 -228.999 184c-94 0 -207.667 -24.5 -341 -73.5s-257.833 -102.667 -373.5 -161l-247.5 -125.5c-64.667 -30 -111.334 -45 -140.001 -45
c-48.667 0 -73 19 -73 57c0 31.333 12 65.666 36 102.999c14 28.667 31.667 81.667 53 159s49.833 139.666 85.5 186.999s97.5 93 185.5 137l1139 561c80 40 142.333 83.333 187 130s67 89.334 67 128.001c0 28 -16.833 51.5 -50.5 70.5s-79.834 28.5 -138.501 28.5
c-48 0 -110.667 -8.33301 -188 -25c-142 -37.333 -282.667 -85 -422 -143s-270 -119.167 -392 -183.5l-391 -216.5l-401 -231c0 158.667 11 292.5 33 401.5s57.833 203 107.5 282s118.167 151.667 205.5 218s198.666 133.166 333.999 200.5
c126.667 61.333 256.334 113.666 389.001 157c132.667 43.333 265.834 77.166 399.501 101.5c133.667 24.333 259.834 36.5 378.501 36.5c126 0 235 -24 327 -72s161.667 -110.5 209 -187.5s71 -158.5 71 -244.5c0 -162 -73.667 -302.667 -221 -422
c-96.667 -81.333 -214 -162 -352 -242s-269.333 -147 -394 -201zM1552 422.002c-200 -89.333 -466 -257.331 -798 -503.998c-226.667 -216 -340 -348.333 -340 -397l8 -17c0 -10.667 9.66699 -16 29 -16c44.667 0 121.5 30.5 230.5 91.5s225.333 139.167 349 234.5
s234 197.166 331 305.499s160.5 209.166 190.5 302.499z" />
    <glyph glyph-name="bracketleft" unicode="[" horiz-adv-x="1430" 
d="M1286 -139l-119 -357h-1130l807 3179h1130l-119 -352h-598l-630 -2470h659z" />
    <glyph glyph-name="backslash" unicode="\" 
 />
    <glyph glyph-name="bracketright" unicode="]" horiz-adv-x="1675" 
d="M741 -139l656 2498h-656l115 353h1135l-836 -3179h-1126l118 328h594z" />
    <glyph glyph-name="asciicircum" unicode="^" 
 />
    <glyph glyph-name="underscore" unicode="_" horiz-adv-x="2081" 
d="M29 -348h1908v-352h-1908v352z" />
    <glyph glyph-name="grave" unicode="`" horiz-adv-x="213" 
d="M287 2331l32 0.00195312c38 0 69.5 -12.167 94.5 -36.5s37.5 -51.833 37.5 -82.5c0 -90.667 -44 -179.334 -132 -266.001c-25.333 -30.667 -66.166 -56.834 -122.499 -78.501s-106.833 -32.5 -151.5 -32.5c-40.667 0 -74 10 -100 30s-39 49.667 -39 89v49
c0 24 26.833 87.5 80.5 190.5s120.167 196 199.5 279s160.666 124.5 243.999 124.5h45c-70 -84 -115.5 -140.333 -136.5 -169s-38.167 -61 -51.5 -97z" />
    <glyph glyph-name="a" unicode="a" horiz-adv-x="2163" 
d="M1270 1049c-288 -94.667 -506.668 -196.001 -656.001 -304.001c-97.333 -54 -176.833 -112.833 -238.5 -176.5s-92.5 -122.167 -92.5 -175.5c0 -2.66699 0.666992 -8 2 -16s2 -13.667 2 -17c0 -12.667 5.83301 -24 17.5 -34s23.5 -15 35.5 -15
c74 0 204.833 80.333 392.5 241s366.834 326.334 537.501 497.001zM1184 1405c60.667 13.333 127.331 19.9951 199.998 19.9951c86 0 154 -17.5 204 -52.5s75 -73.5 75 -115.5c0 -28 -9 -51.333 -27 -70s-43 -28 -75 -28c-3.33301 0 -7.66602 1.33301 -12.999 4
s-9.33301 4 -12 4c90 -44.667 135 -96.334 135 -155.001c0 -24.667 -9 -51 -27 -79s-52 -72 -102 -132s-80.667 -97.667 -92 -113c-22.667 -22.667 -46.834 -58.667 -72.501 -108s-38.5 -92.333 -38.5 -129c0 -41.333 16.667 -71.666 50 -90.999c2.66699 0 8 -2 16 -6
s13.333 -6 16 -6c50.667 0 135.5 40.667 254.5 122s211.833 154 278.5 218l57 -147c-87.333 -110.667 -187.5 -214.167 -300.5 -310.5s-222.167 -172.5 -327.5 -228.5s-193.666 -84 -264.999 -84c-109.333 0 -164 64.333 -164 193c0 88.667 34.333 222.334 103 401.001
l-590 -475c-28.667 -19.333 -58.667 -29 -90 -29c-52 0 -106.833 24.833 -164.5 74.5s-106.167 112.334 -145.5 188.001s-59 150.834 -59 225.501c0 10 4 44 12 102c28.667 94.667 84.334 186 167.001 274s180.667 167.833 294 239.5s231.5 132.834 354.5 183.501
s239.167 87.334 348.5 110.001z" />
    <glyph glyph-name="b" unicode="b" horiz-adv-x="1757" 
d="M516 1167c101.333 70 262.333 247.666 483 532.999c250.667 300.667 388.667 490.334 414 569.001c-144 -124 -322.5 -311.667 -535.5 -563s-333.5 -431 -361.5 -539zM1352 1110c0 -80.667 -19.334 -170.67 -58.001 -270.003s-78 -180 -118 -242
c2.66699 0 8.66699 -1.33301 18 -4s15.333 -4 18 -4c38.667 0 80.834 11.167 126.501 33.5s119.834 62.833 222.501 121.5l57 -147c-161.333 -161.333 -343 -242 -545 -242c-8 0 -20.667 0.666992 -38 2s-29.333 2 -36 2c-40 -56 -100.833 -113.833 -182.5 -173.5
s-164.334 -109 -248.001 -148s-150.167 -58.5 -199.5 -58.5h-37c-97.333 0 -172.166 43.333 -224.499 130s-78.5 200.334 -78.5 341.001c0 112.667 16.167 236.667 48.5 372s80.5 273.666 144.5 414.999s143.667 278.333 239 411s202.333 250.667 321 354
c293.333 291.333 532.333 478.333 717 561c33.333 10.667 60.666 16 81.999 16c52 0 103 -19.167 153 -57.5s90.333 -85.166 121 -140.5c30.667 -55.333 46 -108 46 -158c0 -19.333 -5.66699 -46.666 -17 -81.999c-46.667 -95.333 -128 -202.166 -244 -320.499
s-229.5 -224.5 -340.5 -318.5l-479 -399c-208.333 -172 -346.5 -293 -414.5 -363c0 -10.667 -2.16699 -25.334 -6.5 -44.001s-6.5 -31.334 -6.5 -38.001c0 -72 28.5 -133.667 85.5 -185s111.833 -77 164.5 -77c30 0 56 9 78 27s33 42 33 72v16
c-38.667 54.667 -58 105.334 -58 152.001c0 82.667 28.5 172.334 85.5 269.001s126.167 178.334 207.5 245.001s153 100 215 100c38 0 71.667 -14 101 -42s45 -70 47 -126z" />
    <glyph glyph-name="c" unicode="c" horiz-adv-x="1638" 
d="M733 963c-19.333 -17.333 -74.1641 -62.333 -164.497 -135s-158.5 -134.334 -204.5 -185.001s-69 -97 -69 -139c0 -3.33301 8 -21 24 -53c49.333 -93.333 130 -140 242 -140c113.333 0 250.666 43.667 411.999 131s310.666 188.333 447.999 303l58 -147
c-181.333 -201.333 -363.833 -354 -547.5 -458s-346.834 -156 -489.501 -156c-103.333 0 -189.333 27.5 -258 82.5s-112.334 133.833 -131.001 236.5c-22 112.667 -33 192 -33 238c0 170 57.833 321.5 173.5 454.5s314.834 269.5 597.501 409.5
c113.333 54.667 222.333 82 327 82c56.667 0 101.667 -14.167 135 -42.5s50 -66.166 50 -113.499c0 -95.333 -69.667 -230.333 -209 -405c-76.667 -84.667 -141 -127 -193 -127c-58 0 -114 54.667 -168 164z" />
    <glyph glyph-name="d" unicode="d" horiz-adv-x="1520" 
d="M1012 340c-103.333 -100.667 -200.831 -179.834 -292.498 -237.501s-186.834 -86.5 -285.501 -86.5c-111.333 0 -238.333 56 -381 168c-35.333 58 -53 122.333 -53 193c0 162.667 66.333 338.834 199 528.501s293 331.5 481 425.5c112 44 203.333 66 274 66
c117.333 0 222.666 -46.667 315.999 -140c60 74.667 90 163.667 90 267c0 116 -46.833 218.5 -140.5 307.5s-236.5 139.167 -428.5 150.5c-116.667 -40.667 -187.667 -61 -213 -61c-68.667 0 -103 35.667 -103 107c0 0.666992 0.666992 6 2 16s2 16.667 2 20
c108 104 242 156 402 156c109.333 0 214.333 -27.5 315 -82.5s182.5 -137.167 245.5 -246.5s94.5 -241.333 94.5 -396v-106c-47.333 -210.667 -115 -408.5 -203 -593.5s-195 -336.833 -321 -455.5zM459.002 815c-35.333 -74 -53.002 -146.332 -53.002 -216.999
c0 -116.667 42 -217.667 126 -303c3.33301 0 8.33301 -1.33301 15 -4s11.334 -4 14.001 -4c70.667 0 157.167 46.333 259.5 139s191.833 200.5 268.5 323.5s115 222.833 115 299.5c0 5.33301 -1.33301 15.666 -4 30.999s-4 25.333 -4 30
c-27.333 5.33301 -73.666 8 -138.999 8c-198.667 0 -398 -101 -598 -303z" />
    <glyph glyph-name="e" unicode="e" horiz-adv-x="1593" 
d="M406 745c179.333 78.667 317.001 170.333 413.001 275c41.333 28 71.5 59.167 90.5 93.5s28.5 61.833 28.5 82.5c0 10.667 -12.333 16 -37 16c-42.667 0 -108.334 -38.5 -197.001 -115.5s-188 -194.167 -298 -351.5zM377.001 540.999
c4 -84.667 25.332 -150.337 63.999 -197.004s91 -70 157 -70c177.333 0 451.666 147.667 822.999 443l29 -148c-113.333 -139.333 -230.166 -255.666 -350.499 -348.999s-237.833 -162.833 -352.5 -208.5s-219 -68.5 -313 -68.5c-83.333 0 -158.166 17.833 -224.499 53.5
s-117.833 88 -154.5 157s-55 153.167 -55 252.5c0 88.667 17.667 192.334 53 311.001c18 78.667 65.167 164 141.5 256s166.5 176.833 270.5 254.5s205.667 136.834 305 177.501c78 35.333 158.667 53 242 53c96.667 0 177.5 -27.667 242.5 -83s97.5 -119 97.5 -191
c0 -63.333 -26 -125.833 -78 -187.5s-131.333 -115.167 -238 -160.5c-152 -103.333 -371.667 -201.666 -659 -294.999z" />
    <glyph glyph-name="f" unicode="f" horiz-adv-x="1720" 
d="M287 274c-87.333 83.333 -130.996 157.334 -130.996 222.001c0 56.667 24.833 107.834 74.5 153.501s116.667 93.167 201 142.5s135.833 83 154.5 101c37.333 39.333 85.666 108.333 144.999 207l223 388.5l224.5 390.5c60.333 100 120.833 190.333 181.5 271
c59.333 90.667 120.666 136 183.999 136c47.333 0 87.833 -29.833 121.5 -89.5s50.5 -126.834 50.5 -201.501c-18 -72.667 -81.833 -190.167 -191.5 -352.5s-222.834 -320.166 -339.501 -473.499l-394 -510c50.667 0 90.5 -24 119.5 -72s58.5 -112.667 88.5 -194l508 295
l62 -147c-60.667 -60.667 -141.5 -128.334 -242.5 -203.001s-190.833 -126 -269.5 -154c10.667 -60 16 -109 16 -147c0 -136 -47.333 -278.333 -142 -427s-207.5 -272.334 -338.5 -371.001s-245.167 -148 -342.5 -148h-21c-46.667 0 -93.834 39.167 -141.501 117.5
s-71.5 176.833 -71.5 295.5c0 228 90.333 484.667 271 770zM459.004 -589.999c114.667 0 198.667 56.668 252 170.001s80 250.666 80 411.999v135c-19.333 -3.33301 -42.5 -8.33301 -69.5 -15s-47.833 -10 -62.5 -10c-54 0 -99 18 -135 54
c-46 -66.667 -82 -142.334 -108 -227.001s-39 -164.667 -39 -240c0 -59.333 8 -115.166 24 -167.499s35.333 -89.5 58 -111.5z" />
    <glyph glyph-name="g" unicode="g" horiz-adv-x="1962" 
d="M1065 512c-322.667 -297.333 -564.334 -446.007 -725.001 -446.007c-65.333 0 -117.5 22.833 -156.5 68.5s-66.833 97.834 -83.5 156.501s-32.334 132.334 -47.001 221.001c0 0.666992 -1.33301 3.33398 -4 8.00098s-4 8.66699 -4 12c0 76.667 35 170.834 105 282.501
s155.333 216.5 256 314.5s192 165.333 274 202c272 109.333 444 164 516 164c40.667 0 65.334 -5.33301 74.001 -16c35.333 -35.333 53 -79 53 -131c0 -119.333 -118.667 -228.666 -356 -327.999c-224.667 -102.667 -384 -198.167 -478 -286.5s-141 -162.166 -141 -221.499
c0 -23.333 7.33301 -44.166 22 -62.499s26.667 -27.5 36 -27.5c108 0 213.5 35.333 316.5 106s203.333 161.167 301 271.5l248.5 281c68 77 117.667 115.5 149 115.5c33.333 0 67 -20.5 101 -61.5s51 -91.5 51 -151.5c0 -58.667 -12.333 -107.667 -37 -147l-352 -590
l590 413l61 -147l-799 -565c-184 -262.667 -359.5 -480 -526.5 -652s-293.167 -258 -378.5 -258c-15.333 0 -31.666 5.66699 -48.999 17c-44 63.333 -66 118 -66 164c0 71.333 33.333 148 100 230s151 164.167 253 246.5s252 196.5 450 342.5z" />
    <glyph glyph-name="h" unicode="h" horiz-adv-x="1925" 
d="M1094 807c-85.333 -49.333 -170.169 -110 -254.502 -182s-165 -147 -242 -225s-140.5 -146 -190.5 -204l-88 -102c-54 -49.333 -101.667 -74 -143 -74c-28.667 0 -54.667 14.667 -78 44s-38.333 69.333 -45 120c-22 141.333 -33 235.666 -33 282.999
c0 91.333 20.667 184 62 278c50 123.333 105.833 236 167.5 338s128.667 196.833 201 284.5s139.333 163.334 201 227.001l323.5 326.5l188.5 196c72.333 74.667 145 139.834 218 195.5c73 55.667 135.5 83.5 187.5 83.5c24.667 0 49 -9.66699 73 -29c6 -21.333 9 -54 9 -98
c0 -70.667 -16.333 -137.334 -49 -200.001s-71 -119.5 -115 -170.5s-66 -77.5 -66 -79.5l-317.5 -366.5l-230 -258.5l-266 -291.5l-288.5 -304.5v-119c219.333 196 446 376.333 680 541l120 80.5c44 29.667 89.333 55.667 136 78s91.334 33.5 134.001 33.5
c46 0 76 -5.33301 90 -16c60 -34 90 -83 90 -147c0 -56.667 -22 -113 -66 -169s-110.667 -129.667 -200 -221c-98.667 -98 -148 -179.667 -148 -245c0 -26 9.66699 -44 29 -54c2 0 8.33301 -2 19 -6s19.334 -6 26.001 -6c94.667 0 257 83.333 487 250l58 -147
c-404.667 -336 -695.667 -504 -873 -504c-106.667 0 -160 64 -160 192c0 16.667 7 71.334 21 164.001c0 26.667 17.5 66.167 52.5 118.5s85.333 122 151 209s108.5 145.833 128.5 176.5z" />
    <glyph glyph-name="i" unicode="i" horiz-adv-x="1278" 
d="M348 569c0 -5.33301 -1.33398 -15.333 -4.00098 -30s-4 -23.667 -4 -27c0 -52 16.5 -93.667 49.5 -125s75.167 -47 126.5 -47c75.333 0 165.333 27.5 270 82.5s207.334 133.833 308.001 236.5l28 -180c-118.667 -129.333 -252.167 -250.333 -400.5 -363
s-275.5 -169 -381.5 -169h-21c-103.333 7.33301 -181 55.5 -233 144.5s-78 190.833 -78 305.5c0 88.667 15 176 45 262c83.333 212 201 381.333 353 508c80.667 59.333 137 98.833 169 118.5s72.333 29.5 121 29.5c44 0 85 -9.66699 123 -29
c35.333 -15.333 53 -46.666 53 -93.999c0 -58.667 -35 -133.334 -105 -224.001s-148.333 -175.5 -235 -254.5s-148 -127.167 -184 -144.5zM1155 1552c-34.667 -55.333 -77 -98.501 -127 -129.501s-95 -46.5 -135 -46.5c-43.333 0 -79.5 15.167 -108.5 45.5
s-43.5 68.5 -43.5 114.5c0 42.667 16.667 97.334 50 164.001c69.333 92.667 148.333 139 237 139c46 0 77.333 -6.66699 94 -20c54.667 -20.667 82 -63 82 -127c0 -53.333 -16.333 -100 -49 -140z" />
    <glyph glyph-name="j" unicode="j" horiz-adv-x="1802" 
d="M651 156l414 835.001c-71.333 -26.667 -200.666 -69.834 -387.999 -129.501s-324.333 -107.834 -411 -144.501c4 124 26.833 224.333 68.5 301s107.5 136 197.5 178c87.333 44 215.5 97.333 384.5 160s299.167 94 390.5 94c42.667 0 72.667 -5.33301 90 -16
c43.333 -24 65 -70.667 65 -140c0 -42 -8.16699 -85.667 -24.5 -131s-29.833 -72.666 -40.5 -81.999l-393 -749l602 356l57 -176l-807 -475c-328.667 -576 -559.334 -864 -692.001 -864c-24.667 0 -39.667 2.66699 -45 8c-54.667 76 -82 156.333 -82 241
c0 122.667 53.667 247.5 161 374.5s258.333 246.833 453 359.5zM1249 1819c32 49.333 71.332 88.833 117.999 118.5s89.334 44.5 128.001 44.5c4 0 12.333 -1.33301 25 -4s20.667 -4 24 -4c32 0 58.5 -12.833 79.5 -38.5s31.5 -59.167 31.5 -100.5s-7 -76.666 -21 -105.999
c-30 -72.667 -70.833 -127.834 -122.5 -165.501s-102.167 -56.5 -151.5 -56.5c-42 0 -79.833 15.667 -113.5 47s-50.5 70.333 -50.5 117c0 30.667 17.667 80 53 148z" />
    <glyph glyph-name="k" unicode="k" horiz-adv-x="2126" 
d="M709 627c12 0 27.667 -4.83398 47 -14.501s33.666 -14.5 42.999 -14.5l57 -57c371.333 216.667 557 354.334 557 413.001c0 8.66699 -12.333 13 -37 13c-45.333 0 -129.666 -29.833 -252.999 -89.5s-261.333 -143.167 -414 -250.5zM975 421.999
c61.333 -98.667 137.668 -148.001 229.001 -148.001c97.333 0 205 39.667 323 119s242.667 177.666 374 294.999l65 -176c-441.333 -385.333 -754 -578 -938 -578c-66.667 0 -125.5 20 -176.5 60s-103.333 96.167 -157 168.5l-190.5 259.5
c-19.333 -36 -40.166 -69.667 -62.499 -101s-50.833 -68.5 -85.5 -111.5l-90 -115.5c-28.667 -38 -60 -57 -94 -57c-40.667 0 -76.834 42.667 -108.501 128s-47.5 180.666 -47.5 285.999c0 169.333 34.333 307 103 413c410.667 654 895.334 1162 1454 1524
c92.667 54.667 165 82 217 82c22 0 39.833 -7.83301 53.5 -23.5s20.5 -35.167 20.5 -58.5c0 -68 -46.667 -166.333 -140 -295c-53.333 -66.667 -139.5 -162 -258.5 -286l-480 -488.5l-467.5 -472.5c-110.667 -113.333 -194.667 -205.666 -252 -276.999v-57l778 627
c14 7.33301 58 35 132 83s140.167 85.667 198.5 113s112.166 41 161.499 41h37c120 -47.333 180 -126.333 180 -237c0 -64 -20.333 -131.333 -61 -202s-80.334 -123.667 -119.001 -159c-44 -44.667 -99.333 -87.167 -166 -127.5s-146.167 -83.166 -238.5 -128.499
s-156.833 -78.666 -193.5 -99.999z" />
    <glyph glyph-name="l" unicode="l" horiz-adv-x="1430" 
d="M475 1049c37.333 20.667 135.667 129.666 295 326.999c102 150.667 182.667 298.334 242 443.001c-60.667 -40 -129.167 -105.5 -205.5 -196.5s-146 -190 -209 -297s-103.833 -199.167 -122.5 -276.5zM393.001 663.999c28 -251.333 104.662 -376.999 229.995 -376.999
c116.667 0 306.334 133.667 569.001 401l86 -147c-112 -138 -227.667 -251.167 -347 -339.5s-227.833 -152.833 -325.5 -193.5s-171.167 -61 -220.5 -61c-237.333 0 -356 177.333 -356 532c0 11.333 -1.5 23.666 -4.5 36.999s-4.5 24.333 -4.5 33
c0 148.667 37.5 306.667 112.5 474s168.333 328.333 280 483s220.834 289.5 327.501 404.5s197.334 204.5 272.001 268.5c92.667 79.333 165 119 217 119c32 0 58.333 -19 79 -57s31 -97 31 -177c0 -40 -20.167 -113.833 -60.5 -221.5s-103.333 -230.5 -189 -368.5
s-192.167 -269 -319.5 -393c-35.333 -37.333 -96.166 -108 -182.499 -212s-151.166 -172.333 -194.499 -205z" />
    <glyph glyph-name="m" unicode="m" horiz-adv-x="2949" 
d="M1917 688c-25.333 -25.333 -102.666 -89.8301 -231.999 -193.497s-210.333 -177.167 -243 -220.5c-98 -108.667 -189 -189 -273 -241s-152.667 -78 -206 -78c-43.333 0 -78.166 15.667 -104.499 47s-39.5 70.333 -39.5 117c0 56 17.667 117.333 53 184l124 208
c42.667 71.333 83.334 130.333 122.001 177c38.667 68 58 110.333 58 127c0 2.66699 -5.66699 4 -17 4c-37.333 0 -102.666 -43.667 -195.999 -131c-56.667 -51.333 -144.5 -147 -263.5 -287s-214.333 -244.5 -286 -313.5s-135.834 -103.5 -192.501 -103.5
c-52 0 -91.667 27.333 -119 82c-54.667 128.667 -82 239 -82 331c0 139.333 48 295 144 467c41.333 70.667 115.166 166.167 221.499 286.5s185.5 180.5 237.5 180.5c79.333 0 138 -12 176 -36s57 -54.333 57 -91c0 -65.333 -64 -169 -192 -311
c-85.333 -85.333 -158 -169 -218 -251s-90 -133.667 -90 -155l4 -12c22 0 64.333 31.333 127 94c144.667 144.667 288.167 280.667 430.5 408s289.833 245.333 442.5 354c125.333 92.667 231.666 139 318.999 139c35.333 0 62.666 -12.667 81.999 -38s29 -56.333 29 -93
c0 -84.667 -27.333 -161 -82 -229c-68.667 -142.667 -176.667 -313.334 -324 -512.001l836 659c8 4 26 15.5 54 34.5s52.333 33.833 73 44.5s41 16 61 16c28 0 48.667 -7 62 -21c54.667 -119.333 82 -198.333 82 -237c0 -44.667 -23.333 -100.667 -70 -168
c-8 -12.667 -47.833 -57.334 -119.5 -134.001s-131 -145.834 -178 -207.501s-70.5 -113.167 -70.5 -154.5c0 -29.333 15 -52.666 45 -69.999c1.33301 -0.666992 3.5 -1.5 6.5 -2.5s6.16699 -1.5 9.5 -1.5c58.667 0 162.167 43.167 310.5 129.5s246.833 153.833 295.5 202.5
l29 -209c-465.333 -374 -774 -561 -926 -561h-29c-122.667 42 -184 118.333 -184 229c0 51.333 13.5 109.166 40.5 173.499s59.667 128 98 191z" />
    <glyph glyph-name="n" unicode="n" horiz-adv-x="2044" 
d="M1102 807c-46 -19.333 -101.331 -57.832 -165.998 -115.499s-119.834 -111.334 -165.501 -161.001l-199 -225.5c-87 -100.667 -139.5 -160 -157.5 -178c-79.333 -79.333 -147.666 -119 -204.999 -119c-104 0 -164 117.333 -180 352c0 184.667 88.667 404.667 266 660
c79.333 104.667 133.333 173.667 162 207s62.334 59 101.001 77s91.667 27 159 27c98 0 147 -32.667 147 -98c0 -40.667 -21.667 -92.5 -65 -155.5s-93.833 -127.333 -151.5 -193l-172.5 -196.5c-70.667 -86 -106 -143.333 -106 -172c0 -2 2 -4.16699 6 -6.5
s7.33301 -4.16602 10 -5.49902c12 0 42 21.667 90 65l129.5 135c80.333 84 145.666 150.167 195.999 198.5s118.166 107.833 203.499 178.5c52 43.333 147.333 110 286 200s233 141 283 153c23.333 0 51.666 -34 84.999 -102s50 -129.667 50 -185
c0 -26.667 -5.33301 -48.667 -16 -66c-25.333 -40.667 -83 -109.834 -173 -207.501s-158.833 -179 -206.5 -244s-71.5 -127.5 -71.5 -187.5c0 -2.66699 1.33301 -6 4 -10s4 -7.33301 4 -10c0 -30 12.333 -45 37 -45c48.667 0 137.667 47.833 267 143.5
s224.666 181.5 285.999 257.5l62 -180c-148 -163.333 -305.667 -314.833 -473 -454.5s-308.666 -209.5 -423.999 -209.5c-110 0 -178.333 74 -205 222c0 2.66699 -1.33301 8.66699 -4 18s-4 15.666 -4 18.999c0 134.667 103.667 339.334 311 614.001z" />
    <glyph glyph-name="o" unicode="o" horiz-adv-x="1765" 
d="M893 1036c-353.333 -168.667 -543 -373.332 -569 -613.999c0 -4.66699 -0.833008 -11.334 -2.5 -20.001s-2.5 -14.334 -2.5 -17.001c0 -41.333 15 -76.166 45 -104.499s68.333 -42.5 115 -42.5c82 0 179 40.667 291 122c-24.667 45.333 -37 100 -37 164
c0 129.333 53.333 300 160 512zM1249 1196c68.667 -34 102.997 -104.998 102.997 -212.998c0 -126.667 -43.667 -283.667 -131 -471c2.66699 0 7.33398 -1.33301 14.001 -4s11.334 -4 14.001 -4c74 0 182 71 324 213l61 -176c-68.667 -85.333 -134.5 -150.333 -197.5 -195
s-121.833 -73.834 -176.5 -87.501s-113 -20.5 -175 -20.5c-6 0 -19 1.33301 -39 4s-34 4 -42 4c-67.333 -92.667 -151.166 -164.334 -251.499 -215.001s-198.166 -76 -293.499 -76c-78 0 -147.667 17.333 -209 52s-105 84.334 -131 149.001c-54.667 124 -82 231.667 -82 323
c0 131.333 31.667 259.666 95 384.999s149 235.5 257 330.5s226.667 165.167 356 210.5c120.667 35.333 217.667 53 291 53c75.333 0 138.666 -13.667 189.999 -41s77 -61.333 77 -102c0 -35.333 -18 -75 -54 -119z" />
    <glyph glyph-name="p" unicode="p" horiz-adv-x="2454" 
d="M1196 983c152.667 119.333 290.833 208.498 414.5 267.498s225.834 88.5 306.501 88.5c57.333 0 101 -16 131 -48s45 -76 45 -132c0 -100 -50.333 -225.167 -151 -375.5s-248.334 -303.5 -443.001 -459.5c37.333 -19.333 70 -29 98 -29c80 0 182.167 36.333 306.5 109
s246.166 174.334 365.499 305.001l29 -177c-104.667 -125.333 -215.667 -230.166 -333 -314.499s-233.166 -146.5 -347.499 -186.5s-219.166 -60 -314.499 -60c-133.333 0 -237.333 28.667 -312 86c-50.667 -27.333 -87.334 -41 -110.001 -41c-28 0 -82.667 19.333 -164 58
c-28.667 -88 -80.334 -203.833 -155.001 -347.5s-152.667 -270.5 -234 -380.5s-147 -165 -197 -165c-24 0 -43 16.333 -57 49c-44 68.667 -66 138.334 -66 209.001c0 52 11.5 104 34.5 156s62 120.667 117 206s85.167 132.666 90.5 141.999l622 975l-598 -549l-24 192
l1134 1192c53.333 68 116.333 102 189 102c44.667 0 84.5 -14.5 119.5 -43.5s52.5 -60.833 52.5 -95.5c0 -46 -22 -82.667 -66 -110c-114 -94 -219.167 -197.833 -315.5 -311.5s-152.166 -217.5 -167.499 -311.5zM962.999 413.998c6.66699 0 23.333 4.66699 50 14
s50.667 14 72 14c24.667 0 58 -9.5 100 -28.5s66 -28.5 72 -28.5c221.333 247.333 332 412.666 332 495.999c0 24.667 -15 37 -45 37c-53.333 0 -138.5 -47.667 -255.5 -143s-225.5 -215.666 -325.5 -360.999z" />
    <glyph glyph-name="q" unicode="q" horiz-adv-x="1999" 
d="M1102 598c-54 -36 -138.166 -107.335 -252.499 -214.002s-211 -188.5 -290 -245.5s-154.833 -85.5 -227.5 -85.5c-98.667 0 -179.334 64.333 -242.001 193c-40.667 80 -61 153.667 -61 221c0 134.667 54.167 265.167 162.5 391.5s241.333 237.333 399 333
s306.167 166.834 445.5 213.501c25.333 3.33301 63.666 9.66602 114.999 18.999s103 17.333 155 24s100 10 144 10c128 0 192 -30 192 -90c0 -43.333 -23 -89.666 -69 -138.999c70.667 -22.667 106 -67.667 106 -135c0 -49.333 -20.167 -107.833 -60.5 -175.5
s-87.166 -132.5 -140.499 -194.5s-109.833 -123.5 -169.5 -184.5l-116.5 -117.5c25.333 -16.667 44.333 -25 57 -25c64.667 0 152.5 36.167 263.5 108.5s200.833 142.833 269.5 211.5l57 -148l-471 -413c24.667 -29.333 37 -66.333 37 -111
c0 -98 -63.167 -225.333 -189.5 -382s-274 -300.5 -443 -431.5s-307.833 -209.5 -416.5 -235.5c-24 0 -57.167 34.5 -99.5 103.5s-63.5 127.5 -63.5 175.5c0 24.667 5.33301 42.334 16 53.001c65.333 121.333 134 235 206 341s157.333 223.5 256 352.5l260 340
c74.667 97.667 131.667 176.5 171 236.5zM975.001 65.998c-58.667 -58.667 -138.5 -171.334 -239.5 -338.001s-159.167 -280.667 -174.5 -342c38.667 9.33301 104.5 52 197.5 128s176.833 159.833 251.5 251.5s112 169.834 112 234.501c0 33.333 -6.66699 55.333 -20 66
h-127zM1307 1036c-32.667 -8.66699 -104.334 -24.166 -215.001 -46.499s-198.5 -43.833 -263.5 -64.5s-124.167 -50.334 -177.5 -89.001c-206 -117.333 -324.667 -255.333 -356 -414c21.333 -10.667 43 -16 65 -16c83.333 0 186.833 34.167 310.5 102.5
s244.834 152.333 363.501 252s209.667 191.5 273 275.5z" />
    <glyph glyph-name="r" unicode="r" horiz-adv-x="1765" 
d="M909 893c-199.333 -32.667 -337 -61.3369 -413 -86.0039c-28.667 -55.333 -88.334 -131 -179.001 -227s-169 -169.333 -235 -220l-62 152c119.333 86 208.333 174.667 267 266c-68.667 30 -103 76.667 -103 140c0 74.667 40.5 164.667 121.5 270s163.5 187.333 247.5 246
c16 16 51.333 24 106 24s82 -15 82 -45c0 -30.667 -23 -73 -69 -127c24 3.33301 72.833 12.333 146.5 27s137.834 26.167 192.501 34.5s106.667 12.5 156 12.5c130.667 0 204.667 -34.333 222 -103c5.33301 -18.667 8 -52.667 8 -102c0 -45.333 -8.33301 -86.5 -25 -123.5
s-38.834 -70.167 -66.501 -99.5s-67.334 -64.666 -119.001 -105.999l-101.5 -81c-24.667 -24.667 -54 -69 -88 -133s-51 -117.667 -51 -161c0 -60.667 37 -91 111 -91c58.667 0 148.167 40.5 268.5 121.5s210.833 159.5 271.5 235.5l29 -148
c-106 -127.333 -209.667 -235.666 -311 -324.999s-194 -155.666 -278 -198.999s-158 -65 -222 -65c-65.333 0 -121.166 22.333 -167.499 67s-77.833 111 -94.5 199c0 0.666992 -0.666992 4.66699 -2 12s-2 12.666 -2 15.999c0 90.667 38.833 195.334 116.5 314.001
s158.834 220.334 243.501 305.001z" />
    <glyph glyph-name="s" unicode="s" horiz-adv-x="1925" 
d="M1012 836l-28.998 244.998l-262.5 -206.5l-343.5 -271.5l-201 -161c-39.333 -38 -73.333 -57 -102 -57c-30 0 -45 19 -45 57c0 54 24.333 103.333 73 148l889 815c35.333 49.333 78.666 89 129.999 119s96.666 45 135.999 45c26.667 0 49.167 -6.16699 67.5 -18.5
s27.5 -29.5 27.5 -51.5c0 -20 -4.33301 -41.667 -13 -65c0 -21.333 15.833 -87 47.5 -197s47.5 -192 47.5 -246c-12 -144.667 -61.833 -272.5 -149.5 -383.5s-197.834 -222.167 -330.501 -333.5c4.66699 0 13 -1.33301 25 -4s20.333 -4 25 -4
c75.333 0 148.5 16.833 219.5 50.5s138.833 75.5 203.5 125.5s165.334 132 302.001 246l32 -176c-116.667 -130.667 -238 -238.5 -364 -323.5s-249.167 -147.167 -369.5 -186.5s-229.5 -59 -327.5 -59c-122 0 -221.333 29.167 -298 87.5s-115 136.833 -115 235.5
c0 50.667 12.333 109.334 37 176.001c45.333 46.667 105.333 70 180 70c102.667 0 173.667 -50.667 213 -152c196.667 100.667 295 237.334 295 410.001v66z" />
    <glyph glyph-name="t" unicode="t" horiz-adv-x="1475" 
d="M569 1110c-158 0 -276.67 -9.66699 -356.003 -29c88 156 164.333 268.667 229 338s130.667 113.666 198 132.999s162.666 29 285.999 29c54.667 110 118.834 193.5 192.501 250.5s141.834 85.5 204.501 85.5c34.667 0 64.5 -10.167 89.5 -30.5s37.5 -45.833 37.5 -76.5
c0 -70 -45 -146.333 -135 -229l237 -29c-59.333 -122 -108.333 -212.667 -147 -272s-85.667 -105.166 -141 -137.499s-127 -48.5 -215 -48.5c-22.667 0 -74.667 5.33301 -156 16c-216 -340 -324 -574.667 -324 -704c0 -68.667 31.667 -103 95 -103
c62.667 0 152.834 35.167 270.501 105.5s244.5 163.5 380.5 279.5l33 -176c-139.333 -150.667 -302.333 -287.334 -489 -410.001s-342 -184 -466 -184h-61c-128.667 23.333 -193 97 -193 221c0 38 6 79.833 18 125.5s24.167 84.667 36.5 117s29.833 75.833 52.5 130.5
l-209 -152l-29 181c134.667 92.667 253.834 193.834 357.501 303.501s171.5 198.167 203.5 265.5z" />
    <glyph glyph-name="u" unicode="u" horiz-adv-x="2126" 
d="M930 451c-24.667 -20.667 -87.1699 -77.833 -187.503 -171.5s-181.166 -163.667 -242.499 -210s-109.333 -69.5 -144 -69.5l-16 8c-95.333 18.667 -171 63.5 -227 134.5s-84 155.833 -84 254.5c0 116 36.667 244.167 110 384.5s180 278.5 320 414.5
c54 54 94.667 87.333 122 100s94.333 19 201 19c134 0 201 -22 201 -66c0 -14 -5.33301 -29.667 -16 -47s-25 -36.833 -43 -58.5l-52 -62.5c-48.667 -64 -127.5 -142.5 -236.5 -235.5s-186.833 -164.167 -233.5 -213.5s-70 -104.333 -70 -165
c0 -5.33301 1.33301 -13.333 4 -24s4 -17.667 4 -21l8 -8c21.333 0 69.833 19.167 145.5 57.5s171 99 286 182s237.5 186.167 367.5 309.5c56 56 142.333 133.667 259 233s207.667 169 273 209c17.333 10.667 32.333 16 45 16c26.667 0 46.334 -20.167 59.001 -60.5
s19 -84.166 19 -131.499c0 -54.667 -1.33301 -84.667 -4 -90c-14 -20.667 -69.667 -83.667 -167 -189s-179.666 -202.333 -246.999 -291c-78.667 -108 -118 -192.333 -118 -253c0 -38.667 21.667 -58 65 -58c107.333 0 312.333 113.333 615 340l28 -176
c-187.333 -196 -361.5 -344 -522.5 -444s-289.833 -150 -386.5 -150c-63.333 0 -114 22.167 -152 66.5s-57 101.5 -57 171.5c0 63.333 24.667 161.666 74 294.999z" />
    <glyph glyph-name="v" unicode="v" horiz-adv-x="1884" 
d="M1044 422c-59.333 -70 -152.003 -152.33 -278.003 -246.997s-213.333 -150.334 -262 -167.001c-41.333 -18.667 -90.666 -28 -147.999 -28c-100 0 -181 53.333 -243 160s-93 234.667 -93 384c0 77.333 12.333 171.666 37 282.999c8.66699 64 44 145.333 106 244
s138.333 185 229 259s181.334 111 272.001 111c58 0 112.333 -15 163 -45c24.667 -8 37 -31 37 -69c0 -68 -49.167 -157.5 -147.5 -268.5s-218.5 -237.5 -360.5 -379.5c-35.333 -108 -53 -189.667 -53 -245c0 -68.667 24.667 -103 74 -103c91.333 0 251 116 479 348
c0 53.333 10.833 107.666 32.5 162.999s48.334 106.333 80.001 153s68.167 95 109.5 145l114 137c71.333 88 149 132 233 132c36.667 0 67 -12 91 -36s36 -56 36 -96c0 -39.333 -12 -88.333 -36 -147c-12.667 -32 -57.5 -109.833 -134.5 -233.5
s-115.5 -204.167 -115.5 -241.5c0 -24.667 13.667 -37 41 -37c55.333 0 106.833 8 154.5 24s124.5 57 230.5 123l32 -176c-63.333 -81.333 -137 -146 -221 -194s-163 -72 -237 -72c-94.667 0 -168.667 39.667 -222 119z" />
    <glyph glyph-name="w" unicode="w" horiz-adv-x="2703" 
d="M999 422c-242.667 -276 -432.335 -413.998 -569.002 -413.998c-4.66699 0 -14.667 -1.33301 -30 -4s-25.666 -4 -30.999 -4c-116 0 -206.5 53.333 -271.5 160s-97.5 225.334 -97.5 356.001c0 106 24.667 203 74 291c67.333 104 166.833 224.5 298.5 361.5
s239.5 225.5 323.5 265.5c38.667 10.667 73 16 103 16c66 0 125.5 -16.5 178.5 -49.5s79.5 -71.167 79.5 -114.5c-8.66699 -43.333 -48.667 -102.833 -120 -178.5s-169.333 -170.167 -294 -283.5s-195.667 -179 -213 -197c-16.667 -14.667 -32.5 -45.5 -47.5 -92.5
s-22.5 -89.833 -22.5 -128.5c0 -49.333 12.333 -74 37 -74c20.667 0 61.334 21.333 122.001 64s137.167 106.167 229.5 190.5s195.166 186.5 308.499 306.5l230.5 240c72.333 75.333 132.333 130.666 180 165.999s90.834 53 129.501 53c6 0 15 -0.666992 27 -2s21 -2 27 -2
c38 -9.33301 57 -35.333 57 -78c0 -34.667 -43.833 -124.667 -131.5 -270s-151.834 -259 -192.501 -341c-60 -130.667 -90 -219.334 -90 -266.001c0 -49.333 19.333 -74 58 -74c70.667 0 189.334 83.333 356.001 250c-13.333 28 -20 52.667 -20 74
c0 70 31.833 156.167 95.5 258.5s138.5 192 224.5 269s156.667 115.5 212 115.5h29c68 -14.667 102 -69.334 102 -164.001c0 -75.333 -26.167 -169.333 -78.5 -282s-109.5 -203 -171.5 -271c37.333 -35.333 68.666 -53 94 -53c79.333 0 186 67 320 201l29 -176
c-139.333 -169.333 -282.666 -254 -430 -254c-79.333 0 -165.666 35.333 -258.999 106c-116.667 -146.667 -234.334 -261.167 -353.001 -343.5s-220.667 -123.5 -306 -123.5c-142 0 -213 108 -213 324c0 32 5.33301 89.333 16 172z" />
    <glyph glyph-name="x" unicode="x" horiz-adv-x="1720" 
d="M598 393c-18 -12 -55.999 -45.498 -113.999 -100.498l-146 -134.5c-39.333 -34.667 -81 -65.334 -125 -92.001c-78.667 -44 -132 -66 -160 -66c-40.667 0 -61 22 -61 66c0 39.333 17.667 88.833 53 148.5s78.833 111.167 130.5 154.5s101.167 65 148.5 65
c30 0 53 -4 69 -12l168 168l37 459l-238 -123c-58.667 -30 -99.334 -45 -122.001 -45c-36 0 -54 15 -54 45c0 15.333 7.16699 33.833 21.5 55.5s27.833 34.5 40.5 38.5c243.333 300 422 450 536 450c114.667 0 172 -159.667 172 -479c64 43.333 146.5 111.666 247.5 204.999
s159.167 144 174.5 152c48 27.333 87.667 41 119 41c27.333 0 41 -22 41 -66c0 -64 -33.5 -141.5 -100.5 -232.5s-135.833 -136.5 -206.5 -136.5c-2 0 -7 1.5 -15 4.5s-14 4.5 -18 4.5l-242 -246c0 -16 -2.66699 -39.667 -8 -71s-8 -51.333 -8 -60
c0 -126 39.667 -189 119 -189c62.667 0 141.5 34 236.5 102s181.167 140.667 258.5 218l29 -176c-165.333 -170.667 -319 -309.667 -461 -417s-256 -161 -342 -161c-125.333 0 -188 106.667 -188 320c0 8 1.33301 25 4 51s4 45.667 4 59z" />
    <glyph glyph-name="y" unicode="y" horiz-adv-x="1962" 
d="M926 479c-265.333 -192 -429.003 -308.834 -491.003 -350.501s-106 -62.5 -132 -62.5c-77.333 24 -143.833 77.5 -199.5 160.5s-83.5 179.5 -83.5 289.5c0 122 37.167 250.333 111.5 385s190.166 263 347.499 385c129.333 98.667 218 148 266 148
c28.667 0 54.834 -8.66699 78.501 -26s57.834 -48.333 102.501 -93c2.66699 -5.33301 4 -17.666 4 -36.999c0 -44 -33.667 -110.833 -101 -200.5s-146.5 -178.334 -237.5 -266.001s-168.167 -149.167 -231.5 -184.5c-38 -38.667 -57 -107 -57 -205
c0 -10.667 2.66699 -16 8 -16c22 0 76.167 26.167 162.5 78.5s157.833 99.833 214.5 142.5l627 569l100 86c34.667 30.667 61.334 52.667 80.001 66s35 20 49 20c30.667 0 54 -17.667 70 -53c18.667 -57.333 28 -98.333 28 -123c0 -57.333 -30 -133.666 -90 -228.999
l-598 -897l836 712l29 -151l-1340 -1418c-5.33301 -10.667 -17.666 -16 -36.999 -16c-26.667 0 -56.5 20.833 -89.5 62.5s-49.5 87.834 -49.5 138.501c0 49.333 19 106.666 57 171.999z" />
    <glyph glyph-name="z" unicode="z" horiz-adv-x="1884" 
d="M844 156c-6 60 -25.8311 104.831 -59.498 134.498s-72.167 51 -115.5 64s-84.5 26.167 -123.5 39.5s-58.5 32.333 -58.5 57l-8 8c0 42.667 42.167 98.167 126.5 166.5s196.333 151.333 336 249s214.834 155.834 225.501 174.501l-442 -86l-475 -484l-29 148l238 299
c-49.333 30.667 -74 67.334 -74 110.001c0 76.667 54.667 169.667 164 279c91.333 95.333 174.666 143 249.999 143c28 0 52 -10.333 72 -31s30 -47 30 -79v-33c67.333 15.333 154.166 37.5 260.499 66.5s175.166 43.5 206.499 43.5c57.333 0 91.333 -16.333 102 -49
c36 -76 54 -149.667 54 -221c0 -66.667 -18 -111.667 -54 -135l-540 -393c120 -86.667 180 -185 180 -295l598 475l29 -180l-598 -533c-41.333 -165.333 -101 -313 -179 -443s-163.667 -237.667 -257 -323s-185.5 -149 -276.5 -191s-171.833 -63 -242.5 -63
c-51.333 0 -94.833 14.5 -130.5 43.5s-53.5 66.5 -53.5 112.5c0 62 28.167 138.167 84.5 228.5s148 195.333 275 315s288.5 247.167 484.5 382.5zM844.002 -111.002c-38 -12 -74 -33.667 -108 -65s-99 -95.666 -195 -192.999c-79.333 -62.667 -119 -129.334 -119 -200.001
c0 -48 15 -79.667 45 -95c103.333 0 187 60.833 251 182.5s106 245.167 126 370.5z" />
    <glyph glyph-name="braceleft" unicode="{" horiz-adv-x="987" 
d="M696 1110c79.333 -41.333 119.001 -127.336 119.001 -258.003c0 -72 -11.833 -153.333 -35.5 -244s-57.834 -202.334 -102.501 -335.001s-78.5 -240.667 -101.5 -324s-34.5 -157.666 -34.5 -222.999c0 -120.667 41 -194.667 123 -222h-381
c-92 0 -160.833 23.667 -206.5 71s-68.5 109.666 -68.5 186.999c0 66.667 11.833 142.834 35.5 228.501s60.834 201.334 111.501 347.001s88 259.834 112 342.501s36 156.334 36 221.001c0 116.667 -46.333 186.334 -139 209.001c123.333 6.66699 210.833 70.5 262.5 191.5
s109.167 314.333 172.5 580s136.5 465.667 219.5 600s211.5 201.5 385.5 201.5h385c-131.333 -26 -229.833 -105.167 -295.5 -237.5s-127.334 -320 -185.001 -563s-112.667 -425.833 -165 -548.5s-134.833 -197.334 -247.5 -224.001z" />
    <glyph glyph-name="bar" unicode="|" 
 />
    <glyph glyph-name="braceright" unicode="}" horiz-adv-x="1352" 
d="M926 1110c-96 19.333 -143.996 84.998 -143.996 196.998c0 67.333 12.167 144.666 36.5 231.999s60.333 201 108 341s84 255.833 109 347.5s37.5 172.5 37.5 242.5c0 135.333 -49 216 -147 242h422c160.667 0 241 -83.333 241 -250c0 -69.333 -12 -148.5 -36 -237.5
s-60.5 -206 -109.5 -351s-84.667 -257.667 -107 -338s-33.5 -153.833 -33.5 -220.5c0 -125.333 53 -193.666 159 -204.999c-131.333 -19.333 -221.833 -89.5 -271.5 -210.5s-103.834 -313.833 -162.501 -578.5s-128.834 -462.167 -210.501 -592.5
s-213.5 -195.5 -395.5 -195.5h-414c139.333 20.667 241.166 95.334 305.499 224.001s123.5 314.334 177.5 557.001s108.667 428 164 556s145.666 208 270.999 240z" />
    <glyph glyph-name="asciitilde" unicode="~" 
 />
    <glyph glyph-name="Adieresis" unicode="&#xc4;" horiz-adv-x="2822" 
d="M1413 1847l-864 -1159c-46.667 -63.333 -70 -118 -70 -164c0 -78.667 76.667 -118 230 -118c36 0 152 15 348 45c392 67.333 737.833 187 1037.5 359s471.167 389.333 514.5 652c0 12.667 1.33301 31 4 55s4 41.333 4 52c0 118.667 -39.667 213.167 -119 283.5
s-177.166 121.5 -293.5 153.5c-116.333 32 -241.5 53.333 -375.5 64s-233 18.334 -297 23.001c0 -36.667 -10 -78.834 -30 -126.501s-49.667 -87.5 -89 -119.5zM1266 2064c-354 -38 -613.664 -100.668 -778.997 -188.001h148c114.667 0 172 -12.333 172 -37
c0 -28.667 -45 -54.667 -135 -78c-59.333 -10.667 -110.833 -21.834 -154.5 -33.501s-95 -26.5 -154 -44.5s-106.5 -31.667 -142.5 -41c-56.667 -24 -108.334 -36 -155.001 -36c-98.667 0 -148 58.667 -148 176c0 58 11.5 125.5 34.5 202.5s44.167 132.167 63.5 165.5
c62 96.667 177 183.667 345 261s362.667 137.166 584 179.5c221.333 42.333 441.666 63.5 660.999 63.5c259.333 0 486.833 -29.167 682.499 -87.5c195.667 -58.333 332.5 -147.833 410.5 -268.5c153.333 -226 230 -456.667 230 -692c0 -196 -55.333 -380.5 -166 -553.5
s-253.334 -324.5 -428.001 -454.5c-126 -99.333 -271.667 -189 -437 -269s-329 -145.167 -491 -195.5s-328 -92.166 -498 -125.499c-79.333 -18.667 -211.666 -28 -396.999 -28c-286 0 -441.667 38 -467 114c-19.333 54.667 -29 105.334 -29 152.001
c0 132 59 279.333 177 442z" />
    <glyph glyph-name="Aring" unicode="&#xc5;" horiz-adv-x="2372" 
d="M1864 2626l147.002 0.00195312c360.667 0 541 -54.667 541 -164c0 -2.66699 2 -25 6 -67s6 -75.667 6 -101c0 -112 -41 -176.333 -123 -193c-43.333 0 -104.666 -16.167 -183.999 -48.5s-146.333 -70.833 -201 -115.5c-70 -48.667 -134 -73 -192 -73
c-30 0 -45 6.66699 -45 20c0 51.333 88.667 140 266 266c-178 0 -367.167 -21.167 -567.5 -63.5s-370.333 -98 -510 -167s-214.834 -139.5 -225.501 -211.5c0 -26.667 46.167 -51.167 138.5 -73.5s205.5 -40.166 339.5 -53.499s261.333 -20 382 -20c26.667 0 62.667 2 108 6
s75 6 89 6h90c123.333 0 185 -28.667 185 -86c0 -43.333 -34.833 -96.5 -104.5 -159.5s-118.167 -94.5 -145.5 -94.5c-200 -16.667 -386.833 -50.5 -560.5 -101.5s-324.834 -109.5 -453.501 -175.5s-232 -132.333 -310 -199s-125.667 -123.667 -143 -171l-4 -17
c0 -23.333 34.5 -44.166 103.5 -62.499s157.5 -27.5 265.5 -27.5c94 0 200.5 8.5 319.5 25.5s244.833 44.167 377.5 81.5s264.5 86 395.5 146s254.167 131.333 369.5 214c11.333 -52.667 17 -95 17 -127c0 -161.333 -75.833 -301.5 -227.5 -420.5s-342.167 -209 -571.5 -270
s-456 -91.5 -680 -91.5c-174.667 0 -325.834 20.667 -453.501 62s-205.834 99.666 -234.501 174.999c-38.667 86 -58 165.333 -58 238c0 107.333 37 203.166 111 287.499s171 158.666 291 222.999s261.667 127.666 425 189.999l464 176.5
c-22 0 -47.833 -0.833008 -77.5 -2.5s-50.5 -2.5 -62.5 -2.5c-258 0 -455.5 38.333 -592.5 115s-205.5 173.667 -205.5 291c0 111.333 59.833 226.333 179.5 345s293.834 223 522.501 313s493 149.333 793 178z" />
    <glyph glyph-name="Ccedilla" unicode="&#xc7;" horiz-adv-x="2372" 
d="M1294 1184c126.667 0 233.498 -38.499 320.498 -115.499s130.5 -173.833 130.5 -290.5c0 -52 -2.66699 -90 -8 -114l413 143l62 -148l-688 -299l-570.5 -674c-153 -174 -294.167 -318.167 -423.5 -432.5s-229.666 -171.5 -300.999 -171.5c-46.667 0 -80.667 22 -102 66
c-35.333 39.333 -53 84.333 -53 135c0 110 68.833 241.5 206.5 394.5s301 299.333 490 439s351.167 241.5 486.5 305.5l185 242c-7.33301 125.333 -86.666 188 -237.999 188c-72.667 0 -157.167 -14.167 -253.5 -42.5s-194.166 -63.333 -293.499 -105
s-189.333 -82.5 -270 -122.5l-141 -70c-63.333 -30 -111.333 -45 -144 -45c-48.667 0 -73 19 -73 57c0 25.333 12.333 59.666 37 102.999c16 32.667 34.5 86.834 55.5 162.501s49 136.834 84 183.501s97.5 92.334 187.5 137.001l1049 442
c74.667 35.333 141.167 93.833 199.5 175.5s87.5 154.5 87.5 218.5c0 98 -61.667 147 -185 147c-52.667 0 -111.334 -8.33301 -176.001 -25c-160 -22.667 -315.5 -58.834 -466.5 -108.501s-280.333 -103.834 -388 -162.501s-180.5 -110.334 -218.5 -155.001h65
c134 0 201 -30 201 -90c-307.333 -98 -531.333 -147 -672 -147c-5.33301 0 -12.666 -2.66699 -21.999 -8s-17 -8 -23 -8c-26.667 0 -48.334 11.333 -65.001 34s-25 50.667 -25 84c0 96 34.667 220.167 104 372.5s131.666 242.5 186.999 270.5
c49.333 33.333 167.5 82.166 354.5 146.5c187 64.333 379.667 126.166 578 185.499s328.5 95 390.5 107c66 8 133 12 201 12c196 0 341.833 -54 437.5 -162s143.5 -235.667 143.5 -383c0 -70 -11.167 -138.833 -33.5 -206.5s-50.5 -117.5 -84.5 -149.5
c-120 -103.333 -249.167 -205.666 -387.5 -306.999s-255.166 -171 -350.499 -209z" />
    <glyph glyph-name="Eacute" unicode="&#xc9;" horiz-adv-x="2986" 
d="M3097 2736c-271.333 -60 -507.666 -90 -709 -90c-180 0 -328.833 24.5 -446.5 73.5s-176.5 128.167 -176.5 237.5c193.333 153.333 349 230 467 230c47.333 0 86.833 -8 118.5 -24s80.834 -44.5 147.5 -85.5c66.667 -41 127.667 -71.333 183 -91s120 -29.5 194 -29.5
c332.667 68.667 555.334 103 668 103c74 0 111 -12.333 111 -37c0 -26 -48.333 -65 -145 -117s-234 -108.667 -412 -170zM1974 1286l-356.498 -335.499l-506 -470c-139 -125.667 -272.833 -237.167 -401.5 -334.5s-218 -146 -268 -146l-12 8
c-135.333 0 -237.5 32.5 -306.5 97.5s-103.5 148.5 -103.5 250.5c0 71.333 17.667 150.833 53 238.5s82 168.167 140 241.5l897 1081c44 48 66 82 66 102c0 14 -15.333 21 -46 21c-69.333 0 -250.666 -64.333 -543.999 -193c-142 -56 -236.833 -101.667 -284.5 -137
s-99.167 -93.333 -154.5 -174c65.333 22 142 33 230 33c42.667 0 80.667 -6.16699 114 -18.5s50 -23.833 50 -34.5c0 -24.667 -39.667 -46.667 -119 -66c-327.333 -72.667 -559.333 -142.334 -696 -209.001l-17.5 -6c-11.667 -4 -21.834 -7.33301 -30.501 -10
s-17.334 -4 -26.001 -4c-62.667 0 -94 51.667 -94 155c0 90 21.667 195 65 315s87 196.667 131 230c41.333 32 122.833 80.667 244.5 146s261.167 136.666 418.5 214l425.5 201.5c126.333 57 212.833 92.5 259.5 106.5c181.333 43.333 316.333 65 405 65
c164 0 246 -82 246 -246c0 -24.667 -5.33301 -80.334 -16 -167c-16.667 -95.333 -80.334 -218.166 -191.001 -368.499s-255.834 -330.833 -435.501 -541.5s-289.167 -345.667 -328.5 -405c-122.667 -184.667 -184 -300.667 -184 -348c0 -19.333 9.66699 -29 29 -29
c64.667 0 205.334 86 422.001 258c142.667 114.667 291.667 246.5 447 395.5l531.5 530.5l418 427c79.667 80 151.834 146.333 216.5 199c56.667 44 111.334 66 164 66c48.667 0 87.5 -24.5 116.5 -73.5s43.5 -103.833 43.5 -164.5c0 -49.333 -9.66699 -90.333 -29 -123
c-54 -82.667 -123.833 -183.167 -209.5 -301.5l-293 -404.5c-109.667 -151.333 -199.167 -283.833 -268.5 -397.5s-120.666 -214.167 -154 -301.5c-52 -114.667 -78 -203.334 -78 -266.001c0 -84.667 36.667 -127 110 -127c81.333 0 194.5 46.333 339.5 139
s280.5 206 406.5 340l29 -147v-12c0 -49.333 -67 -127.833 -201 -235.5s-281.5 -206.667 -442.5 -297s-274.5 -135.5 -340.5 -135.5c-262 0 -393 94.333 -393 283c0 69.333 18.167 154.833 54.5 256.5s92.333 221.167 168 358.5s172.167 294 289.5 470z" />
    <glyph glyph-name="Ntilde" unicode="&#xd1;" horiz-adv-x="2822" 
d="M2380 2064c54.667 76 82.001 140.33 82.001 192.997c0 22 -8.66699 40.5 -26 55.5s-40.333 22.5 -69 22.5c-53.333 0 -128.333 -22 -225 -66c-111.333 -55.333 -224.5 -128 -339.5 -218s-220.5 -181.833 -316.5 -275.5l-290 -297.5c-97.333 -104.667 -148 -159 -152 -163
c-48.667 -46 -109 -126.333 -181 -241s-135.5 -242.334 -190.5 -383.001s-82.5 -270 -82.5 -388c0 -134 38.667 -233 116 -297s176.666 -96 297.999 -96c140.667 0 281 32.667 421 98c226.667 116.667 422.834 228.834 588.501 336.501s295.5 199.5 389.5 275.5
s165.333 138.333 214 187c24.667 -29.333 37 -59.333 37 -90c0 -56.667 -31 -120.667 -93 -192s-140.167 -145.833 -234.5 -223.5l-212.5 -174.5c-207.333 -150.667 -372.833 -265 -496.5 -343s-264.667 -144.167 -423 -198.5s-329.833 -81.5 -514.5 -81.5
c-166.667 5.33301 -300.834 42.833 -402.501 112.5s-173.334 156.5 -215.001 260.5s-62.5 216 -62.5 336c0 151.333 30 300 90 446c104 248 231 466.667 381 656s319 361.333 507 516s426 330.667 714 528c294.667 178 541.667 267 741.001 267
c107.333 0 194.166 -33.667 260.499 -101s99.5 -169 99.5 -305v-41c-6.66699 -128 -56.5 -271.167 -149.5 -429.5s-209.333 -312.666 -349 -462.999s-280.334 -277.166 -422.001 -380.499s-260.5 -166.333 -356.5 -189c-68 -24.667 -124 -37 -168 -37
c-57.333 0 -101.833 16.167 -133.5 48.5s-47.5 73.5 -47.5 123.5c0 49.333 17.833 106.333 53.5 171s84.834 122.334 147.501 173.001c17.333 13.333 63.333 55.5 138 126.5s140.834 129.833 198.501 176.5s101.167 70 130.5 70c6 0 12.333 -5.5 19 -16.5
s10 -23.167 10 -36.5c5.33301 0 8 -7 8 -21c54.667 17.333 114 60.5 178 129.5s125 145 183 228z" />
    <glyph glyph-name="Odieresis" unicode="&#xd6;" horiz-adv-x="3023" 
d="M1974 1286l-356.504 -335.501l-506 -470c-139 -125.667 -272.833 -237.167 -401.5 -334.5s-218 -146 -268 -146l-12 8c-135.333 0 -237.5 32.5 -306.5 97.5s-103.5 148.5 -103.5 250.5c0 71.333 17.667 150.833 53 238.5s82 168.167 140 241.5l897 1081
c44 48 66 82 66 102c0 14 -15.333 21 -46 21c-69.333 0 -250.666 -64.333 -543.999 -193c-142 -56 -236.833 -101.667 -284.5 -137s-99.167 -93.333 -154.5 -174c65.333 22 142 33 230 33c42.667 0 80.667 -6.16699 114 -18.5s50 -23.833 50 -34.5
c0 -24.667 -39.667 -46.667 -119 -66c-327.333 -72.667 -559.333 -142.334 -696 -209.001l-17.5 -6c-11.667 -4 -21.834 -7.33301 -30.501 -10s-17.334 -4 -26.001 -4c-62.667 0 -94 51.667 -94 155c0 90 21.667 195 65 315s87 196.667 131 230
c41.333 32 122.833 80.667 244.5 146s261.167 136.666 418.5 214l425.5 201.5c126.333 57 212.833 92.5 259.5 106.5c118 30 219 45 303 45c106.667 0 188.667 -25.833 246 -77.5s86 -125.5 86 -221.5v-94c-16.667 -95.333 -80.334 -218.166 -191.001 -368.499
s-255.834 -330.833 -435.501 -541.5s-289.167 -345.667 -328.5 -405c-122.667 -184.667 -184 -300.667 -184 -348c0 -19.333 9.66699 -29 29 -29c64.667 0 205.334 86 422.001 258c142.667 114.667 291.667 246.5 447 395.5l531.5 530.5l418 427
c79.667 80 151.834 146.333 216.5 199c58.667 49.333 110.667 74 156 74c48 0 86.667 -26.167 116 -78.5s44 -110.833 44 -175.5c0 -52.667 -7 -91 -21 -115c-54 -82.667 -123.833 -183.167 -209.5 -301.5l-293 -404.5c-109.667 -151.333 -199.167 -283.833 -268.5 -397.5
s-120.666 -214.167 -154 -301.5c-63.333 -107.333 -95 -183.666 -95 -228.999c0 -70.667 43.667 -106 131 -106c90 0 207 39.667 351 119s274.333 180 391 302l65 -155c-99.333 -66.667 -188.166 -162.834 -266.499 -288.501s-185.833 -324.5 -322.5 -596.5l-171.5 -176.5
c-88.333 -90.333 -188.166 -170.166 -299.499 -239.499s-220.666 -104 -327.999 -104c-85.333 0 -164.666 24.667 -237.999 74c-136.667 104 -205 180.333 -205 229c0 42.667 65.167 74 195.5 94s265.333 39.667 405 59s258.834 53.333 357.501 102s148 124.667 148 228
c0 8.66699 -1.5 24.167 -4.5 46.5l-7.5 56.5c-169.333 -60 -305.666 -90 -408.999 -90c-166.667 0 -250 76.333 -250 229c0 218 165 575.667 495 1073z" />
    <glyph glyph-name="Udieresis" unicode="&#xdc;" horiz-adv-x="2335" 
d="M1495 1110c-92.667 -46 -201.667 -122.331 -327 -228.998s-247 -222.334 -365 -347.001s-208.333 -229 -271 -313c26.667 -18.667 69 -28 127 -28c86.667 0 196.667 17 330 51s253 75.667 359 125c88 106.667 152.5 197 193.5 271s67 134.167 78 180.5
s16.5 90.666 16.5 132.999s2 69.833 6 82.5zM90 -73.998c-60 60 -90.0039 128.334 -90.0039 205.001c0 82 24.667 158.333 74 229c66.667 84 137.334 186 212.001 306s141.167 234.5 199.5 343.5s98.5 191.5 120.5 247.5c7.33301 21.333 34 80.833 80 178.5
s82.5 187.334 109.5 269.001s40.5 162.167 40.5 241.5c0 57.333 -3 98 -9 122c-12.667 0 -32.667 10.333 -60 31s-53.666 31 -78.999 31c-37.333 0 -89.333 -20.667 -156 -62c-10.667 44 -16 74.333 -16 91c0 91.333 56.833 170.666 170.5 237.999
s308.167 131.333 583.5 192c125.333 0 188 -49.333 188 -148c0 -42 -12.333 -99.333 -37 -172c-8 -36 -40.167 -110.5 -96.5 -223.5l-193 -374.5l-250 -470.5l-201.5 -385.5l209 223.5c114 122.333 206.5 217.5 277.5 285.5s149.333 135 235 201s178.167 127 277.5 183
c108.667 60 182.667 90 222 90c44.667 0 99 -30 163 -90c131.333 -130.667 197 -256.334 197 -377.001c0 -80.667 -9.66699 -154.334 -29 -221.001c-35.333 -124 -70.166 -225.333 -104.499 -304s-82.166 -174.167 -143.499 -286.5s-101.333 -187.166 -120 -224.499
c-37.333 -74 -85.166 -138.833 -143.499 -194.5s-115.666 -98.667 -171.999 -129s-98.833 -45.5 -127.5 -45.5c-54.667 -5.33301 -136.334 -8 -245.001 -8c-104.667 0 -191.334 4.66699 -260.001 14s-162.667 24.333 -282 45s-205 31 -257 31
c-94 0 -189.667 -27.333 -287 -82z" />
    <glyph glyph-name="aacute" unicode="&#xe1;" horiz-adv-x="1602" 
d="M2142 2589h8.00293c11.333 0 17 -18 17 -54c0 -60 -17.333 -134.333 -52 -223s-74.667 -145.334 -120 -170.001c-106.667 -106.667 -247.334 -160 -422.001 -160c-28.667 0 -75.834 2.16699 -141.501 6.5s-123.834 6.5 -174.501 6.5c-144.667 0 -278.167 -36 -400.5 -108
s-225.5 -174.667 -309.5 -308s-143.333 -289.666 -178 -468.999c86 145.333 190.667 258.166 314 338.499s243.666 120.5 360.999 120.5c119.333 0 220.166 -45.167 302.499 -135.5s123.5 -213.166 123.5 -368.499c0 -122 -21.667 -255.667 -65 -401
c-116.667 -244.667 -250.167 -426 -400.5 -544s-298.166 -177 -443.499 -177c-95.333 0 -184.833 25.333 -268.5 76s-150 120.5 -199 209.5s-73.5 187.5 -73.5 295.5c0 72.667 18 169.667 54 291c125.333 326 256.833 611.667 394.5 857s280 441 427 587
s292.167 231.333 435.5 256c212 0 356.667 0.333008 434 1s138.833 3.33398 184.5 8c45.667 4.66699 82.834 13.5 111.501 26.5s55.667 25.833 81 38.5zM664.003 815l0.000976562 -60.998c0 -30 -13.667 -45 -41 -45c-38 0 -89.833 24.167 -155.5 72.5
s-98.5 84.166 -98.5 107.499c0 -18.667 -2.16699 -43.334 -6.5 -74.001s-6.5 -54 -6.5 -70c0 -142 33.167 -268.167 99.5 -378.5s150.833 -165.5 253.5 -165.5c106.667 0 215.667 56 327 168c216 238 324 440 324 606c0 70 -19.833 124.333 -59.5 163
s-90.834 58 -153.501 58c-52.667 0 -109.667 -14.333 -171 -43s-119.833 -72.167 -175.5 -130.5s-101.167 -127.5 -136.5 -207.5z" />
    <glyph glyph-name="agrave" unicode="&#xe0;" horiz-adv-x="2171" 
d="M1073 561l-585.998 -507.996c-34.667 -30 -71.334 -45 -110.001 -45c-53.333 0 -108.5 27 -165.5 81s-103.833 121.833 -140.5 203.5s-55 161.5 -55 239.5c0 30 7 69.667 21 119c38 123.333 121 241.166 249 353.499s275.333 208.166 442 287.499
s322.667 134.666 468 165.999c68 19.333 137.667 29 209 29c85.333 0 152.333 -18.833 201 -56.5s73 -78.834 73 -123.501c0 -22.667 -10.833 -44.167 -32.5 -64.5s-47.5 -30.5 -77.5 -30.5l-17 9c90.667 -49.333 136 -101.333 136 -156c0 -24.667 -9.66699 -51.5 -29 -80.5
s-50.333 -68 -93 -117s-77.334 -91.167 -104.001 -126.5c-24 -26.667 -48.333 -63.5 -73 -110.5s-37 -89.167 -37 -126.5c0 -40.667 17.667 -70.667 53 -90c3.33301 0 8.16602 -2.83301 14.499 -8.5s11.166 -8.5 14.499 -8.5c52.667 0 138.834 41 258.501 123
s210.834 155.667 273.501 221l62 -151c-141.333 -172 -299.333 -318.167 -474 -438.5s-316 -180.5 -424 -180.5c-108.667 0 -163 64.333 -163 193c0 70 35.333 202.333 106 397zM303.002 414.004c0 -14 5.83398 -26.498 17.501 -37.498s23.5 -16.5 35.5 -16.5
c73.333 0 206.666 82.833 399.999 248.5s370 330.167 530 493.5c-286 -94.667 -505.667 -195.667 -659 -303c-94.667 -52.667 -173.667 -112 -237 -178s-95 -125.667 -95 -179c0 -2.66699 1.33301 -7.33398 4 -14.001s4 -11.334 4 -14.001z" />
    <glyph glyph-name="acircumflex" unicode="&#xe2;" horiz-adv-x="1757" 
d="M516 1167c101.333 70 262.333 247.666 483 532.999c250.667 300.667 388.667 490.334 414 569.001c-144 -124 -322.5 -311.667 -535.5 -563s-333.5 -431 -361.5 -539zM1352 1110c0 -80.667 -19.334 -170.67 -58.001 -270.003s-78 -180 -118 -242
c2.66699 0 8.66699 -1.33301 18 -4s15.333 -4 18 -4c38.667 0 80.834 11.167 126.501 33.5s119.834 62.833 222.501 121.5l57 -147c-161.333 -161.333 -343 -242 -545 -242c-8 0 -20.667 0.666992 -38 2s-29.333 2 -36 2c-40 -55.333 -100.333 -110.333 -181 -165
s-163 -99.5 -247 -134.5s-151.333 -52.5 -202 -52.5c-3.33301 0 -9.66602 -1.33301 -18.999 -4s-15.333 -4 -18 -4c-94 0 -168 45 -222 135s-81 203.333 -81 340c0 111.333 16.167 232.833 48.5 364.5s80.666 267.167 144.999 406.5s143.833 274.333 238.5 405
s201.667 248 321 352c293.333 291.333 532.333 478.333 717 561c39.333 22 77.666 33 114.999 33c68 0 102 -52 102 -156c0 -107.333 -21.667 -204.333 -65 -291c-60.667 -123.333 -152.167 -247.166 -274.5 -371.499s-285.5 -274.166 -489.5 -449.499
s-340 -297.333 -408 -366c-18.667 -115.333 -28 -203 -28 -263c0 -94.667 11.333 -175.667 34 -243s53.667 -101 93 -101c52.667 0 111.334 52 176.001 156c-38.667 42.667 -58 96 -58 160c0 82.667 29.5 170.834 88.5 264.501s129.667 172 212 235
s154.166 94.5 215.499 94.5c37.333 0 70 -13 98 -39s42 -65 42 -117z" />
    <glyph glyph-name="adieresis" unicode="&#xe4;" horiz-adv-x="1511" 
d="M1294 1257c0 28 13.168 87.502 39.501 178.502s44.833 157.333 55.5 199s16 90.834 16 147.501c0 147.333 -61.333 242.666 -184 285.999c-251.333 101.333 -444 152 -578 152c-87.333 0 -131 -23.333 -131 -70c0 -32.667 25.333 -71.334 76 -116.001
s114 -82.334 190 -113.001c-2.66699 0 -27.667 -2 -75 -6s-86.333 -6 -117 -6c-107.333 0 -201.166 17.833 -281.499 53.5s-120.5 95.5 -120.5 179.5c0 140.667 35.667 243.167 107 307.5s164.666 103.666 279.999 118c115.333 14.333 282.666 21.5 501.999 21.5
c176.667 0 321.834 -53 435.501 -159s170.5 -267.333 170.5 -484c0 -98 -12.333 -204.833 -37 -320.5s-64.5 -246.167 -119.5 -391.5s-125.667 -302.166 -212 -470.499s-190.166 -349.166 -311.499 -542.499c-142 -182.667 -304.333 -274 -487 -274
c-138.667 0 -256 57 -352 171s-144 270 -144 468c0 140 31.667 314.667 95 524c46.667 91.333 105.5 175.666 176.5 252.999s149.667 139.166 236 185.499s172.5 69.5 258.5 69.5c97.333 0 190.666 -29.5 279.999 -88.5s166.666 -149.833 231.999 -272.5zM999.001 590.002
l-73 151c48.667 110 73 215.333 73 316c0 95.333 -20.333 177.166 -61 245.499s-87 102.5 -139 102.5c-66 0 -128.5 -48.167 -187.5 -144.5s-103.167 -244.833 -132.5 -445.5c0 -223.333 8.5 -387.666 25.5 -492.999s48.167 -158 93.5 -158c77.333 0 211 142 401 426z" />
    <glyph glyph-name="atilde" unicode="&#xe3;" horiz-adv-x="1757" 
d="M1516 475c24 -138 35.9971 -217.001 35.9971 -237.001c0 -38 -9 -70.333 -27 -97s-51.333 -64 -100 -112c-35.333 -36.667 -109 -65.667 -221 -87s-237.667 -32 -377 -32c-125.333 0 -250 9.33301 -374 28s-228.667 44.667 -314 78c-82 55.333 -123 144.333 -123 267
c0 62.667 10.333 126.5 31 191.5s39 102.167 55 111.5l95.5 59c32.333 20 72 41 119 63s104.333 43.833 172 65.5s149.167 42.5 244.5 62.5c112.667 22 226.167 56.5 340.5 103.5s209 97.833 284 152.5s112.5 101.667 112.5 141c0 17.333 -6.66699 35 -20 53h-45
c-58 0 -161.167 -13.667 -309.5 -41s-217.166 -41 -206.499 -41c-124 -68 -211.333 -102 -262 -102c-24.667 0 -42.167 6.5 -52.5 19.5s-24.5 37.833 -42.5 74.5l-45 135l-8 8c0 28 27.5 66.833 82.5 116.5s120.167 93.167 195.5 130.5s145.333 56 210 56
c94.667 8.66699 186 13 274 13c135.333 0 252 -13.833 350 -41.5s172.667 -66.167 224 -115.5s77 -105 77 -167c0 -8 1.5 -21.167 4.5 -39.5s4.5 -32.5 4.5 -42.5c0 -118 -67.5 -217.333 -202.5 -298s-289.667 -143.167 -464 -187.5s-363 -83 -566 -116
s-312.5 -53.5 -328.5 -61.5c-62.667 -36 -94 -69 -94 -99c0 -29.333 29.667 -57 89 -83s137.333 -46.667 234 -62s195 -23 295 -23c128.667 0 253.834 13.333 375.501 40s213.834 65.334 276.501 116.001z" />
    <glyph glyph-name="aring" unicode="&#xe5;" horiz-adv-x="1593" 
d="M827 1065c39.333 24.667 68.999 55.001 88.999 91.001s30 64.333 30 85c0 10.667 -12.333 16 -37 16c-42.667 0 -108.667 -38.833 -198 -116.5s-188.333 -194.167 -297 -349.5c184.667 79.333 322.334 170.666 413.001 273.999zM1044 881.001
c-152 -103.333 -371.669 -201.666 -659.002 -294.999c4 -84.667 25.333 -150.334 64 -197.001s91 -70 157 -70c178.667 0 451.667 147.667 819 443l33 -148c-165.333 -204 -339.333 -360 -522 -468s-347.334 -162 -494.001 -162c-128.667 0 -233.167 40.833 -313.5 122.5
s-120.5 196.5 -120.5 344.5c0 78 16.333 181.667 49 311c20.667 79.333 63.834 162.666 129.501 249.999s144.834 167.666 237.501 240.999s187.667 129.333 285 168c136 49.333 249.333 74 340 74c87.333 0 154.833 -21.5 202.5 -64.5s71.5 -96.5 71.5 -160.5
c0 -61.333 -24.667 -127.666 -74 -198.999s-117.666 -134.666 -204.999 -189.999z" />
    <glyph glyph-name="ccedilla" unicode="&#xe7;" horiz-adv-x="1847" 
d="M819 184c-8 76.667 -32.667 127.169 -74 151.502s-98 46.666 -170 66.999s-108 45.833 -108 76.5l-8 8c0 42.667 42 98.834 126 168.501s195.167 152.667 333.5 249s214.5 155.166 228.5 176.499l-447 -90l-471 -479l-28 147l233 295c-49.333 34.667 -74 71.667 -74 111
c0 72 54.667 166.333 164 283c97.333 92.667 182 139 254 139c26 0 49.667 -10.333 71 -31s32 -47.334 32 -80.001v-28c70.667 14.667 158.5 36.667 263.5 66s172.833 44 203.5 44c52.667 0 86.667 -17.667 102 -53c32.667 -64 49 -137.667 49 -221
c0 -68.667 -16.333 -113.667 -49 -135l-541 -390c117.333 -88.667 176 -188.334 176 -299.001l603 476l28 -177l-598 -532c-27.333 -148.667 -77.5 -282.667 -150.5 -402s-156.167 -218.666 -249.5 -297.999s-187.833 -139.5 -283.5 -180.5s-179.167 -61.5 -250.5 -61.5
c-52.667 0 -95.167 12.833 -127.5 38.5s-48.5 60.5 -48.5 104.5c0 52.667 27.5 119.667 82.5 201s143.667 178.333 266 291s276.5 234 462.5 364zM819 -81.998c-43.333 -14 -103.667 -47.168 -181 -99.501s-145.333 -107.833 -204 -166.5
c-122.667 -99.333 -184 -191 -184 -275c74 0 153.667 31.833 239 95.5s159.333 138.834 222 225.501s98.667 160 108 220z" />
    <glyph glyph-name="eacute" unicode="&#xe9;" horiz-adv-x="2044" 
d="M901 516c-38 -30 -106.004 -89.6699 -204.004 -179.003s-176.5 -156.833 -235.5 -202.5s-104.833 -68.5 -137.5 -68.5l-5 8c-95.333 18.667 -171 65 -227 139s-84 161.333 -84 262c0 76 15.333 158.167 46 246.5s77.334 180 140.001 275s141.334 188.833 236.001 281.5
l53.5 50c19.667 18 38.334 30.667 56.001 38s43.334 13 77.001 17s79.5 6 137.5 6c122.667 0 184 -22 184 -66c0 -32.667 -31.333 -88.667 -94 -168c-48.667 -64 -127 -143.333 -235 -238s-184.667 -167.167 -230 -217.5s-68 -106.166 -68 -167.499
c0 -5.33301 1.33301 -12.666 4 -21.999s4 -17 4 -23l5 -8c20 0 66.5 20 139.5 60s165 102.5 276 187.5s226.167 188.167 345.5 309.5c234 221.333 410.333 369 529 443c16 10.667 29.667 16 41 16c27.333 0 47.833 -19.5 61.5 -58.5s20.5 -83.5 20.5 -133.5
c0 -54.667 -2.66699 -85 -8 -91c-14 -22 -53 -68.833 -117 -140.5l-154 -174c-38.667 -44.333 -83.667 -101.833 -135 -172.5c-79.333 -109.333 -119 -191.333 -119 -246c0 -43.333 22 -65 66 -65c102.667 0 304.667 113.333 606 340l33 -168
c-194 -199.333 -367.5 -348.166 -520.5 -446.499s-275.833 -147.5 -368.5 -147.5c-58.667 0 -105.5 20.333 -140.5 61s-52.5 94 -52.5 160c0 81.333 24.667 182.333 74 303zM769.996 1495c-16.667 25.333 -24.999 41.667 -24.999 49c0 51.333 43.167 100 129.5 146
s201 93.333 344 142s222.833 77 239.5 85c16 1.33301 43.167 7.83301 81.5 19.5s67.166 17.5 86.499 17.5c84.667 0 127 -64.333 127 -193c5.33301 -16 8 -40.333 8 -73c0 -60.667 -36.667 -91 -110 -91c-15.333 0 -37.833 2.83301 -67.5 8.5s-52.167 8.5 -67.5 8.5
c-94.667 0 -187.167 -8.5 -277.5 -25.5s-184.833 -38.167 -283.5 -63.5s-156.334 -38 -173.001 -38c-2 0 -4.16699 1 -6.5 3s-4.16602 3.66699 -5.49902 5z" />
    <glyph glyph-name="egrave" unicode="&#xe8;" horiz-adv-x="2044" 
d="M901 516c-38 -30 -106.004 -89.6699 -204.004 -179.003s-176.5 -156.833 -235.5 -202.5s-104.833 -68.5 -137.5 -68.5l-5 8c-95.333 18.667 -171 65 -227 139s-84 161.333 -84 262c0 76 15.333 158.167 46 246.5s77.334 180 140.001 275s141.334 188.833 236.001 281.5
l53.5 50c19.667 18 38.334 30.667 56.001 38s43.334 13 77.001 17s79.5 6 137.5 6c122.667 0 184 -22 184 -66c0 -32.667 -31.333 -88.667 -94 -168c-48.667 -64 -127 -143.333 -235 -238s-184.667 -167.167 -230 -217.5s-68 -106.166 -68 -167.499
c0 -5.33301 1.33301 -12.666 4 -21.999s4 -17 4 -23l5 -8c20 0 66.5 20 139.5 60s165 102.5 276 187.5s226.167 188.167 345.5 309.5c234 221.333 410.333 369 529 443c16 10.667 29.667 16 41 16c27.333 0 47.833 -19.5 61.5 -58.5s20.5 -83.5 20.5 -133.5
c0 -54.667 -2.66699 -85 -8 -91c-14 -22 -53 -68.833 -117 -140.5l-154 -174c-38.667 -44.333 -83.667 -101.833 -135 -172.5c-79.333 -109.333 -119 -191.333 -119 -246c0 -43.333 22 -65 66 -65c102.667 0 304.667 113.333 606 340l33 -168
c-194 -199.333 -367.5 -348.166 -520.5 -446.499s-275.833 -147.5 -368.5 -147.5c-58.667 0 -105.5 20.333 -140.5 61s-52.5 94 -52.5 160c0 81.333 24.667 182.333 74 303z" />
    <glyph glyph-name="ecircumflex" unicode="&#xea;" horiz-adv-x="2126" 
d="M717 696c8.66699 0 23.3369 -5.33301 44.0039 -16s36 -16 46 -16l57 -58c72.667 -117.333 179.334 -176 320.001 -176c112.667 0 237.167 33 373.5 99s253.5 141 351.5 225l65 -176c-232.667 -202 -423.834 -348.833 -573.501 -440.5s-271.167 -137.5 -364.5 -137.5
c-66.667 0 -125.834 20 -177.501 60s-102.5 94 -152.5 162l-194 265c-24 -48 -66.667 -109.5 -128 -184.5s-98 -121.167 -110 -138.5c-31.333 -41.333 -64 -62 -98 -62c-40.667 0 -76.834 42.667 -108.501 128s-47.5 180.666 -47.5 285.999
c0 171.333 35.667 309.333 107 414l55.5 84.5c30.333 46.333 59.166 87.166 86.499 122.499s61 73.5 101 114.5s87.333 82.5 142 124.5c35.333 39.333 85.5 69.666 150.5 90.999s128.167 32 189.5 32c40.667 0 76.167 -6.33301 106.5 -19s45.5 -28 45.5 -46
c0 -16 -7 -31 -21 -45c-56.667 -71.333 -112.5 -135.833 -167.5 -193.5l-197 -197l-189.5 -187.5c-50 -51.333 -101.667 -110 -155 -176v-57l188 157l184.5 149.5l150 120l252.5 199.5c18.667 10 65 38.667 139 86s139.167 84.5 195.5 111.5s109.833 40.5 160.5 40.5h37
c120 -47.333 180 -126.666 180 -237.999c0 -63.333 -20.333 -130.333 -61 -201s-80.334 -123.667 -119.001 -159c-63.333 -44 -124.666 -66 -183.999 -66c-32 0 -58.5 8 -79.5 24s-31.5 34 -31.5 54c0 2.66699 1.33301 8.33398 4 17.001s4 14 4 16
c79.333 62.667 119 106.334 119 131.001c0 10.667 -12.333 16 -37 16c-44.667 0 -126.334 -30 -245.001 -90s-256.667 -143.333 -414 -250z" />
    <glyph glyph-name="edieresis" unicode="&#xeb;" horiz-adv-x="2081" 
d="M1774 1507l7.99902 0.00195312c15.333 0 43.833 -18.167 85.5 -54.5s79.5 -76.5 113.5 -120.5s51 -77 51 -99v-4l-406 -733c-14 -28 -35.833 -63.833 -65.5 -107.5s-44.5 -72.167 -44.5 -85.5c0 -10.667 9.33301 -28.334 28 -53.001c0 -38 20.667 -57 62 -57
c42 0 81.333 19 118 57l163.5 64.5c44.333 18.333 70.5 29.5 78.5 33.5l-8 -8l-12 -16c-10 -52.667 -45.167 -104.667 -105.5 -156s-132.333 -93.5 -216 -126.5s-162.167 -49.5 -235.5 -49.5c-76 0 -139.5 21.5 -190.5 64.5s-76.5 107.5 -76.5 193.5
c0 4.66699 1.33301 16.334 4 35.001s4 31.667 4 39l414 872c-20.667 16.667 -45.334 25 -74.001 25c-70.667 0 -139.5 -46.333 -206.5 -139s-169.667 -253.834 -308 -483.501s-258.166 -401.834 -359.499 -516.501s-205.666 -172 -312.999 -172h-25
c-41.333 46.667 -88.5 115.667 -141.5 207s-79.5 165.666 -79.5 222.999c0 36 12.333 63.333 37 82c46.667 79.333 93 119 139 119c24.667 0 91.667 -27.333 201 -82c22.667 -41.333 52.667 -62 90 -62c73.333 0 163.833 61 271.5 183s240.667 292.333 399 511
s265.166 357.334 320.499 416.001c34.667 24.667 81 37 139 37c74.667 0 121.334 -12.333 140.001 -37z" />
    <glyph glyph-name="iacute" unicode="&#xed;" horiz-adv-x="2044" 
d="M635 741l413.998 413.994c46 40 69 74 69 102c0 27.333 -15 49.333 -45 66c0 -33.333 -27.667 -60.166 -83 -80.499s-126 -30.5 -212 -30.5c-4.66699 0 -12.834 1.5 -24.501 4.5s-21.167 4.5 -28.5 4.5l-25 -9c-20.667 0 -38 6.33301 -52 19s-21 28.334 -21 47.001
c0 37.333 21.667 80.333 65 129s104.833 90.5 184.5 125.5s172.5 53.833 278.5 56.5c1.33301 0 8.33301 1.33301 21 4s19.334 4 20.001 4c86 0 151.833 -20.5 197.5 -61.5s68.5 -91.5 68.5 -151.5c0 -79.333 -34 -148.666 -102 -207.999l-406 -414l361 37l459 532
c32.667 36.667 74.334 73.834 125.001 111.501s85.334 56.5 104.001 56.5h16c14 -21.333 21 -47.333 21 -78c0 -44.667 -34.333 -114.334 -103 -209.001l-368 -413c136.667 0 252.667 -24.667 348 -74l-138 -111.5c-41.333 -33.667 -80.5 -68.5 -117.5 -104.5
s-67.833 -73.333 -92.5 -112c-30 11.333 -72.333 17 -127 17h-127c-28.667 -26.667 -59 -68.5 -91 -125.5s-48 -95.833 -48 -116.5l45 -152h-29c-25.333 0 -69.5 -9.5 -132.5 -28.5s-106.167 -28.5 -129.5 -28.5c-38.667 0 -58 24.667 -58 74v20c0 50 9.33301 93.333 28 130
s64 112.334 136 227.001l-475 -58l-278 -303c-16.667 -38.667 -39.834 -68.167 -69.501 -88.5s-57.167 -30.5 -82.5 -30.5c-30 0 -59.333 14 -88 42s-43 53.667 -43 77c0 0.666992 1.33301 6.33398 4 17.001s4 17.334 4 20.001l230 242
c-43.333 -19.333 -70.666 -29 -81.999 -29c-54.667 0 -82 31.333 -82 94c0 62 26.833 124.667 80.5 188s122.167 95 205.5 95h25z" />
    <glyph glyph-name="igrave" unicode="&#xec;" horiz-adv-x="2822" 
d="M1655 1479c0 -19.333 15.001 -62.0039 45.001 -128.004s45 -112.333 45 -139v-16l-295 -717l-8 -12v-8c3.33301 0 77.166 93 221.499 279l383 477c111 132 181.167 198 210.5 198h12c62.667 62.667 139.334 94 230 94c69.333 0 108.666 -9.33301 117.999 -28
c0 -20.667 27.333 -68.667 82 -144s82 -125.666 82 -150.999v-8l-459 -660c-18 -36 -40.833 -72 -68.5 -108s-41.5 -58.667 -41.5 -68c0 -6.66699 12.333 -21.667 37 -45c0 -38 27.333 -57 82 -57s101 19 139 57l169.5 67c40.333 16.667 64.5 27 72.5 31l-5 -8l-16 -16
c-10 -51.333 -45 -103.666 -105 -156.999s-131.833 -97.166 -215.5 -131.499s-161.167 -51.5 -232.5 -51.5c-78 0 -141.833 21.667 -191.5 65s-74.5 110.333 -74.5 201c0 4.66699 0.666992 16.334 2 35.001s2 31.667 2 39l504 798c-10 19.333 -37.333 29 -82 29
c-72.667 0 -161.5 -65 -266.5 -195s-202.167 -274 -291.5 -432s-134 -249.333 -134 -274c0 -68 -15.667 -121.167 -47 -159.5s-68.5 -66.166 -111.5 -83.499s-96.833 -34.666 -161.5 -51.999c-35.333 -35.333 -69.333 -53 -102 -53c-33.333 0 -62.833 19.167 -88.5 57.5
s-38.5 83.166 -38.5 134.499c0 10.667 8 53 24 127l381 836c-23.333 18.667 -47.666 28 -72.999 28c-60.667 0 -122.834 -41.333 -186.501 -124s-166.834 -230.334 -309.501 -443.001s-266.5 -372 -371.5 -478s-211.833 -159 -320.5 -159h-25c-104 106 -156 225 -156 357
c0 6 1.5 19.167 4.5 39.5s4.5 35.833 4.5 46.5c0 78.667 39.333 118 118 118c65.333 0 124.333 -15 177 -45c2.66699 0 6.66699 -1.33301 12 -4s9.33301 -4 12 -4c116 0 269.167 103.333 459.5 310s370.5 439.334 540.5 698.001c54.667 54.667 113.334 82 176.001 82
c27.333 0 54.333 -5.33301 81 -16s43.334 -20.334 50.001 -29.001z" />
    <glyph glyph-name="icircumflex" unicode="&#xee;" horiz-adv-x="1720" 
d="M295 442c0 -2.66699 -1.33203 -8.66699 -3.99902 -18s-4 -15.333 -4 -18c0 -43.333 16 -80.166 48 -110.499s70.667 -45.5 116 -45.5c78.667 0 172.667 42.333 282 127c-30 52 -45 119 -45 201c0 111.333 39.667 256 119 434
c-160.667 -82 -282.834 -162.333 -366.501 -241s-132.167 -188.334 -145.5 -329.001zM1507 754l53.9941 -185c-95.333 -132 -184.666 -218.833 -267.999 -260.5s-171.666 -62.5 -264.999 -62.5c-8 0 -20.667 0.666992 -38 2s-29.333 2 -36 2
c-64.667 -92.667 -146.667 -165 -246 -217s-194.666 -78 -285.999 -78c-167.333 0 -276.666 69.667 -327.999 209c-52 126 -78 243.333 -78 352c0 130 28.167 255.667 84.5 377s134.333 227.833 234 319.5s212.167 161.167 337.5 208.5c114.667 38.667 230.667 58 348 58
c63.333 0 116 -9 158 -27s63 -43.333 63 -76c0 -37.333 -16.333 -74 -49 -110c68 -38.667 102 -112.667 102 -222c0 -102 -45 -269.667 -135 -503c4.66699 0 11.834 -1.5 21.501 -4.5s14.834 -4.5 15.501 -4.5c75.333 0 179 74 311 222z" />
    <glyph glyph-name="idieresis" unicode="&#xef;" horiz-adv-x="2081" 
d="M1085 963c-85.333 -36 -194 -129.508 -326 -280.508l-337 -387.5c-118.667 -183.333 -217 -275 -295 -275c-65.333 0 -98 69.667 -98 209c0 22 3.83301 59.333 11.5 112s11.834 82.334 12.501 89.001c0 180 88.667 398.333 266 655c62 83.333 109.667 140.333 143 171
s67 49.5 101 56.5s90.667 10.5 170 10.5c98.667 0 148 -27.333 148 -82c0 -35.333 -21.333 -80 -64 -134s-102.834 -121.5 -180.501 -202.5s-124.5 -131.167 -140.5 -150.5c-68.667 -85.333 -103 -141.333 -103 -168c0 -2.66699 0.166992 -6.16699 0.5 -10.5
s1.5 -6.5 3.5 -6.5c22 0 55 22 99 66l145.5 152.5c58.333 61.667 117 120.334 176 176.001s129.167 116.834 210.5 183.501c42 36.667 134 101.334 276 194.001s239.667 145.334 293 158.001c24 0 52 -34.5 84 -103.5s48 -130.167 48 -183.5c0 -30 -4.33301 -51.667 -13 -65
c-27.333 -44.667 -86 -115.667 -176 -213s-158.167 -177.166 -204.5 -239.499s-69.5 -123.166 -69.5 -182.499c0 -2.66699 0.666992 -6.66699 2 -12s2 -9.66602 2 -12.999c0 -10.667 3.5 -20.834 10.5 -30.501s15.833 -14.5 26.5 -14.5c50 0 140 48.333 270 145
s225.667 182.334 287 257.001l57 -180c-150 -165.333 -307.5 -317.333 -472.5 -456s-305.167 -208 -420.5 -208c-108 0 -177.667 73.667 -209 221c0 6 -0.666992 15 -2 27s-2 20.667 -2 26c0 83.333 26 194 78 332s116 257 192 357z" />
    <glyph glyph-name="ntilde" unicode="&#xf1;" horiz-adv-x="1638" 
d="M733 963c-19.333 -17.333 -74.1641 -62.333 -164.497 -135s-158.5 -134.334 -204.5 -185.001s-69 -97 -69 -139c0 -3.33301 8 -21 24 -53c49.333 -93.333 130 -140 242 -140c113.333 0 250.666 43.667 411.999 131s310.666 188.333 447.999 303l58 -147
c-181.333 -201.333 -363.833 -354 -547.5 -458s-346.834 -156 -489.501 -156c-103.333 0 -189.333 27.5 -258 82.5s-112.334 133.833 -131.001 236.5c-22 112.667 -33 192 -33 238c0 170 57.833 321.5 173.5 454.5s314.834 269.5 597.501 409.5
c113.333 54.667 222.333 82 327 82c56.667 0 101.667 -14.167 135 -42.5s50 -66.166 50 -113.499c0 -95.333 -69.667 -230.333 -209 -405c-76.667 -84.667 -141 -127 -193 -127c-58 0 -114 54.667 -168 164z" />
    <glyph glyph-name="oacute" unicode="&#xf3;" horiz-adv-x="1962" 
d="M926 479c-265.333 -192 -429.002 -308.836 -491.002 -350.503s-106 -62.5 -132 -62.5c-77.333 24 -143.833 77.5 -199.5 160.5s-83.5 179.5 -83.5 289.5c0 122 37.167 250.333 111.5 385s190.166 263 347.499 385c92.667 76 163.334 129.833 212.001 161.5
s90 47.5 124 47.5c45.333 0 101.333 -35.333 168 -106c5.33301 -3.33301 8 -15.666 8 -36.999c0 -43.333 -38.667 -116.166 -116 -218.499s-167.666 -204 -270.999 -305s-184.666 -168.167 -243.999 -201.5c-38 -38.667 -57 -107 -57 -205c0 -10.667 2.66699 -16 8 -16
c22 0 76.167 26.167 162.5 78.5s157.833 99.833 214.5 142.5l627 569c41.333 32 97.166 84.333 167.499 157s115.5 109 135.5 109c29.333 0 47 -9.33301 53 -28c11.333 -30 17 -61.667 17 -95c0 -99.333 -45.333 -224.666 -136 -375.999l-598 -897l836 712l29 -151
l-1340 -1418c-5.33301 -10.667 -17.666 -16 -36.999 -16c-26.667 0 -56.5 20.833 -89.5 62.5s-49.5 87.834 -49.5 138.501c0 49.333 19 106.666 57 171.999z" />
    <glyph glyph-name="ograve" unicode="&#xf2;" horiz-adv-x="3027" 
d="M1081 963c-64 -26.667 -136.829 -80.8418 -218.496 -162.509s-170.5 -179.834 -266.5 -294.501s-156.667 -185 -182 -211c-118.667 -183.333 -217 -275 -295 -275c-66 0 -99 69.667 -99 209c0 22 3.33301 54.167 10 96.5s11.667 77.166 15 104.499
c0 180 88.667 398.333 266 655c58.667 80 105.334 136.167 140.001 168.5s69.167 52 103.5 59s91.166 10.5 170.499 10.5c98 0 147 -27.333 147 -82c0 -34.667 -21 -78.834 -63 -132.501s-101.167 -120.167 -177.5 -199.5s-124.5 -131 -144.5 -155
c-68 -86 -102 -142 -102 -168c0 -2.66699 0.5 -6.16699 1.5 -10.5s3.16699 -6.5 6.5 -6.5c20 0 51.333 22 94 66l146.5 152.5c58.333 61.667 117 120.334 176 176.001s129.167 116.834 210.5 183.501c43.333 38.667 136 103.834 278 195.501s239 143.834 291 156.501
c23.333 0 51.666 -34 84.999 -102s50 -129.667 50 -185c0 -27.333 -5.33301 -49 -16 -65c-22 -33.333 -73.667 -102.166 -155 -206.499s-144.833 -194.666 -190.5 -270.999s-68.5 -143.833 -68.5 -202.5c0 -2.66699 1.5 -6.5 4.5 -11.5s4.5 -9.5 4.5 -13.5
c47.333 49.333 116.833 125.833 208.5 229.5l246 268c72.333 75 147.166 144.167 224.499 207.5c42 36.667 134.5 101.334 277.5 194.001s240.5 145.334 292.5 158.001c14 0 31.5 -15.833 52.5 -47.5s39.333 -70.167 55 -115.5s23.5 -86.666 23.5 -123.999
c0 -19.333 -4 -41 -12 -65c-25.333 -40.667 -83.333 -110.167 -174 -208.5s-159.5 -179.166 -206.5 -242.499s-70.5 -124.666 -70.5 -183.999c0 -2.66699 0.666992 -6.66699 2 -12s2 -9.66602 2 -12.999c0 -10.667 3.83301 -20.834 11.5 -30.501s16.167 -14.5 25.5 -14.5
c50 0 140 48.333 270 145s225.667 182.334 287 257.001l57 -180c-90 -100 -185.667 -198.5 -287 -295.5s-207.333 -182.667 -318 -257s-206.667 -111.5 -288 -111.5c-112 0 -181.333 73.667 -208 221c0 8 -1.5 17.5 -4.5 28.5s-4.5 19.167 -4.5 24.5c0 84 26.333 195 79 333
s118 256.667 196 356c-63.333 -26.667 -136 -81.5 -218 -164.5s-170.333 -181.167 -265 -294.5s-155 -183 -181 -209c-140.667 -202 -251.334 -303 -332.001 -303c-86.667 0 -149.334 101 -188.001 303c0 8 -0.666992 20.667 -2 38s-2 29.333 -2 36
c0 82 19.667 177.5 59 286.5s96 211.5 170 307.5zM782.004 1551.99c-117.333 8.66699 -176.002 30.666 -176.002 65.999c0 48.667 115 114.667 345 198s488 158.5 774 225.5s489.333 100.5 610 100.5c125.333 -57.333 188 -122.666 188 -195.999
c0 -68.667 -38.333 -150.667 -115 -246c-157.333 65.333 -368.666 98 -633.999 98c-119.333 0 -239 -8.83301 -359 -26.5s-234.667 -45 -344 -82s-205.666 -82.833 -288.999 -137.5z" />
    <glyph glyph-name="ocircumflex" unicode="&#xf4;" horiz-adv-x="2540" 
d="M311 0c-77.333 24.667 -145.831 86.335 -205.498 185.002s-89.5 211.667 -89.5 339c0 133.333 36.167 271.666 108.5 414.999s183.833 274 334.5 392c125.333 109.333 238.666 164 339.999 164c74.667 0 142.334 -23.5 203.001 -70.5s108.167 -101.667 142.5 -164
s51.5 -112.5 51.5 -150.5c-45.333 -49.333 -86.333 -74 -123 -74c-16.667 0 -44.667 12.333 -84 37s-75.333 37 -108 37c-43.333 0 -110.333 -24.667 -201 -74c-86.667 -66 -148 -153.667 -184 -263s-54 -216.666 -54 -321.999c0 -33.333 2.83301 -67.5 8.5 -102.5
s8.5 -52.833 8.5 -53.5c32 -19.333 53.667 -29 65 -29c43.333 0 84.833 22.167 124.5 66.5s86.167 106.166 139.5 185.499s91 128 113 146l741 1036c14 -12.667 21 -52.334 21 -119.001c0 -76 -15.833 -167.167 -47.5 -273.5s-71.834 -196.833 -120.501 -271.5l252.5 189
c118.333 89.333 201.666 147.833 249.999 175.5s92.5 41.5 132.5 41.5c63.333 0 146.666 -37 250 -111c14.667 0 28.5 -19 41.5 -57s19.5 -86 19.5 -144c0 -200 -69.667 -404.667 -209 -614c-31.333 -81.333 -87.666 -162.833 -169 -244.5
c-81.333 -81.667 -175 -148.667 -281 -201s-210 -78.5 -312 -78.5c-170.667 0 -311 76.333 -421 229l-295 -442l221 147l74 -73l-525 -644c-10.667 -10.667 -23 -16 -37 -16c-28.667 0 -59 20.5 -91 61.5s-48 87.5 -48 139.5c0 50 19.333 107.333 58 172l561 913l-413 -313
c-140.667 -110.667 -221.667 -166 -243 -166zM2085 889.001c24.667 34.667 37 75.666 37 122.999c0 34.667 -12 61.667 -36 81s-55.667 29 -95 29c-67.333 0 -147.333 -24.5 -240 -73.5s-187.834 -124.5 -285.501 -226.5s-187.5 -228.667 -269.5 -380
c-8 -16 -12 -28 -12 -36c0 -29.333 23 -58.666 69 -87.999s94 -44 144 -44c21.333 0 54 7 98 21c131.333 98 255.833 209 373.5 333s189.834 211 216.501 261z" />
    <glyph glyph-name="odieresis" unicode="&#xf6;" horiz-adv-x="2044" 
d="M901 516c-38 -30 -106.004 -89.6689 -204.004 -179.002s-176.5 -156.833 -235.5 -202.5s-104.833 -68.5 -137.5 -68.5l-5 8c-95.333 18.667 -171 65 -227 139s-84 161.333 -84 262c0 76 15.333 158.167 46 246.5s77.334 180 140.001 275s141.334 188.833 236.001 281.5
l53.5 50c19.667 18 38.334 30.667 56.001 38s43.334 13 77.001 17s79.5 6 137.5 6c122.667 0 184 -22 184 -66c0 -32.667 -31.333 -88.667 -94 -168c-48.667 -64 -127 -143.333 -235 -238s-184.667 -167.167 -230 -217.5s-68 -106.166 -68 -167.499
c0 -5.33301 1.33301 -12.666 4 -21.999s4 -17 4 -23l5 -8c20 0 66.5 20 139.5 60s165 102.5 276 187.5s226.167 188.167 345.5 309.5c234 221.333 410.333 369 529 443c16 10.667 29.667 16 41 16c27.333 0 47.833 -19.5 61.5 -58.5s20.5 -83.5 20.5 -133.5
c0 -54.667 -2.66699 -85 -8 -91c-14 -22 -53 -68.833 -117 -140.5l-154 -174c-38.667 -44.333 -83.667 -101.833 -135 -172.5c-79.333 -109.333 -119 -191.333 -119 -246c0 -43.333 22 -65 66 -65c102.667 0 304.667 113.333 606 340l33 -168
c-53.333 -53.333 -111.166 -144.333 -173.499 -273s-93.5 -257.667 -93.5 -387v-16c0 -43.333 -43.667 -88 -131 -134s-190 -84.333 -308 -115s-216 -46 -294 -46c-31.333 0 -57.5 4.83301 -78.5 14.5s-31.5 19.834 -31.5 30.501c0 5.33301 9.33301 20.333 28 45
c126.667 48 232.667 104 318 168s150.666 125.333 195.999 184s80.833 113 106.5 163s38.834 75 39.501 75h8c-199.333 -166.667 -363 -250 -491 -250c-50.667 0 -91.334 17.667 -122.001 53s-46 84.666 -46 147.999c0 70 21.667 160 65 270z" />
    <glyph glyph-name="otilde" unicode="&#xf5;" horiz-adv-x="1802" 
d="M680 393c-20.667 -14 -62.332 -50.334 -124.999 -109.001l-144 -133c-33.333 -30 -72 -58.333 -116 -85c-102 -82 -178.333 -123 -229 -123c-33.333 0 -50 16.333 -50 49c0 33.333 12.5 75.166 37.5 125.499s54.833 93.833 89.5 130.5s66.334 55 95.001 55
c18.667 0 30.667 -2.66699 36 -8l406 332v422l-238 -123c-48.667 -24.667 -89.667 -37 -123 -37c-35.333 0 -53 12.333 -53 37c0 14.667 6.83301 32.834 20.5 54.501s26.167 34.834 37.5 39.501c338.667 316.667 553 475 643 475c51.333 0 77 -49 77 -147
c0 -27.333 -1.33301 -82 -4 -164s-4 -146.333 -4 -193c64 43.333 146.5 111.666 247.5 204.999s159.167 144 174.5 152c35.333 24 69.666 36 102.999 36c38 0 57 -20.333 57 -61c0 -67.333 -32.833 -145.666 -98.5 -234.999s-133.834 -134 -204.501 -134
c-2 0 -7.66699 1.5 -17 4.5s-16 4.5 -20 4.5l-242 -246c0 -16 -2.66699 -39.667 -8 -71s-8 -51.333 -8 -60c0 -126 39.667 -189 119 -189c59.333 0 138 34.667 236 104s184.333 141.333 259 216l29 -176c-152.667 -162 -302.667 -295.333 -450 -400s-266.333 -157 -357 -157
c-122.667 0 -184 101 -184 303c0 10 1.33301 27.333 4 52s4 42.667 4 54z" />
    <glyph glyph-name="uacute" unicode="&#xfa;" horiz-adv-x="1602" 
d="M709 1110c91.333 87.333 192.337 131 303.004 131c78 0 152.167 -23.333 222.5 -70s127.166 -108 170.499 -184s65 -156.667 65 -242c0 -44.667 -6.66699 -96.334 -20 -155.001c-51.333 -137.333 -129.333 -247.333 -234 -330s-218.334 -142.167 -341.001 -178.5
s-237.834 -59 -345.501 -68s-219.834 -13.5 -336.501 -13.5c-35.333 0 -73 22.833 -113 68.5s-60 108.834 -60 189.501c0 84.667 26.167 189.167 78.5 313.5s142.333 274.5 270 450.5s298.5 373.333 512.5 592c37.333 49.333 66 74 86 74c29.333 0 67.333 -69.667 114 -209
c-30.667 -40 -77.167 -86.833 -139.5 -140.5l-160 -139c-44.333 -39 -68.5 -68.833 -72.5 -89.5zM561.004 815c-98 -165.333 -147 -304.668 -147 -418.001c0 -69.333 21 -122.166 63 -158.499s94.667 -54.5 158 -54.5c64 0 131.667 17 203 51s126.666 78.667 165.999 134
c90 128.667 135 244.667 135 348c0 68 -24.667 102 -74 102c-24.667 0 -45 -1.33301 -61 -4c-24 -38.667 -56.667 -68.167 -98 -88.5s-82.666 -30.5 -123.999 -30.5c-54.667 0 -105.167 13.833 -151.5 41.5s-69.5 53.5 -69.5 77.5z" />
    <glyph glyph-name="ugrave" unicode="&#xf9;" horiz-adv-x="3027" 
d="M2884 586c-53.333 -56.667 -111.172 -148.505 -173.506 -275.505c-62.333 -127 -93.5 -255.167 -93.5 -384.5v-16c0 -43.333 -43.667 -88 -131 -134s-190 -84.333 -308 -115s-216 -46 -294 -46c-31.333 0 -57.5 4.83301 -78.5 14.5s-31.5 19.834 -31.5 30.501
c0 5.33301 9.33301 20.333 28 45c126.667 48 232.667 104 318 168s150.666 125.333 196 184c45.333 58.667 80.833 113 106.5 163s38.834 75 39.501 75h8c-206 -172 -376.667 -258 -512 -258c-62 0 -113 21.167 -153 63.5s-60 97.5 -60 165.5c0 78.667 19 162 57 250
c-122 -124.667 -235.833 -229.5 -341.5 -314.5s-197.667 -147.333 -276 -187s-142.833 -59.5 -193.5 -59.5s-90.667 19 -120 57s-44 88.667 -44 152c0 87.333 30.333 204.666 91 351.999c-38 -30 -107 -90.5 -207 -181.5s-178.5 -158.5 -235.5 -202.5
s-102.167 -66 -135.5 -66l-8 8c-95.333 18.667 -171.166 64.834 -227.499 138.501s-84.5 161.167 -84.5 262.5c0 115.333 36.167 243.833 108.5 385.5s176.833 280.834 313.5 417.501l57 51.5c19.333 17 38 29.167 56 36.5s43.833 13 77.5 17s79.5 6 137.5 6
c122.667 0 184 -22 184 -66c0 -29.333 -32.667 -85.333 -98 -168c-42 -54.667 -97.333 -112.834 -166 -174.501l-186.5 -167.5c-55.667 -50 -99.5 -97.167 -131.5 -141.5s-48 -90.833 -48 -139.5c0 -5.33301 1.33301 -12.666 4 -21.999s4 -17 4 -23l8 -8
c20 0 66.5 20 139.5 60s163.833 101.5 272.5 184.5s225.334 187.167 350.001 312.5c224.667 214.667 399.334 362.334 524.001 443.001c21.333 10.667 36.333 16 45 16c26.667 0 47 -20 61 -60s21 -84 21 -132c0 -54.667 -2.66699 -85 -8 -91
c-12.667 -20.667 -67.167 -84.667 -163.5 -192s-177.166 -205.666 -242.499 -294.999c-108.667 -114 -163 -190.333 -163 -229c0 -36 36.667 -54 110 -54l-8 -8l8 -4c18.667 0 66.5 24.5 143.5 73.5s170.833 118.833 281.5 209.5s228.334 198.334 353.001 323.001
c57.333 57.333 142.5 135 255.5 233s202.833 168 269.5 210c16 10.667 31 16 45 16c26 0 45.5 -19.5 58.5 -58.5s19.5 -83.5 19.5 -133.5c0 -54.667 -1.66699 -85 -5 -91c-16.667 -24.667 -59.167 -75.167 -127.5 -151.5l-150 -169
c-31.667 -36.333 -75.5 -91.833 -131.5 -166.5c-79.333 -109.333 -119 -191.333 -119 -246c0 -43.333 23.333 -65 70 -65c102.667 0 304.667 113.333 606 340z" />
    <glyph glyph-name="ucircumflex" unicode="&#xfb;" horiz-adv-x="2576" 
d="M1450 516c96 224.667 199.835 410.5 311.502 557.5s229.167 282.167 352.5 405.5c29.333 24.667 53.666 37 72.999 37c62 0 111.333 -61.667 148 -185c-116.667 -118.667 -215.5 -238.5 -296.5 -359.5s-141.333 -233 -181 -336s-59.5 -189.167 -59.5 -258.5
c0 -104 37 -156 111 -156c87.333 0 204.666 73.667 351.999 221l147 -73c-113.333 -82 -203.833 -145.167 -271.5 -189.5s-120.5 -75.166 -158.5 -92.499s-78.167 -31.333 -120.5 -42l-186.5 -45c-69.333 0 -135.833 20.667 -199.5 62s-95.5 106.666 -95.5 195.999
c0 77.333 24.667 163.333 74 258zM782.002 1036c102.667 98.667 209.334 147.999 320.001 147.999c66.667 0 128 -18.667 184 -56s100.667 -88.166 134 -152.499s50 -135.5 50 -213.5c0 -46.667 -6.66699 -104 -20 -172c-51.333 -137.333 -129.333 -247.333 -234 -330
s-218.334 -142.167 -341.001 -178.5s-237.834 -59 -345.501 -68s-219.834 -13.5 -336.501 -13.5c-35.333 -0 -73 22.833 -113 68.5s-60 108.834 -60 189.501c0 84.667 26.167 189.167 78.5 313.5s142.333 274.5 270 450.5s298.5 373.333 512.5 592
c37.333 49.333 74 74 110 74c62.667 0 117.334 -69.667 164.001 -209c-24.667 -32.667 -91.167 -107.334 -199.5 -224.001s-166.166 -189.667 -173.499 -219zM635.002 814.999c-106.667 -180.667 -160.001 -326.667 -160.001 -438c0 -62 17.833 -109.667 53.5 -143
s79.167 -50 130.5 -50c56.667 0 118.667 17.167 186 51.5s120.333 78.833 159 133.5c90 128.667 135 244.667 135 348c0 68 -24.667 102 -74 102c-24.667 0 -45 -1.33301 -61 -4c-48.667 -79.333 -111.667 -119 -189 -119c-45.333 0 -86.666 13.833 -123.999 41.5
s-56 53.5 -56 77.5z" />
    <glyph glyph-name="udieresis" unicode="&#xfc;" horiz-adv-x="1602" 
d="M930 1700c12.667 19.333 25.002 29.001 37.002 29.001c25.333 0 47.5 -24.167 66.5 -72.5s32.167 -88.5 39.5 -120.5l8 16c-24 -31.333 -90.5 -106 -199.5 -224s-166.5 -190.667 -172.5 -218c91.333 87.333 192.333 131 303 131c78 0 152.167 -23.333 222.5 -70
s127.166 -108 170.499 -184s65 -156.667 65 -242c0 -44.667 -6.66699 -96.334 -20 -155.001c-51.333 -137.333 -129.333 -247.333 -234 -330s-218.334 -142.167 -341.001 -178.5s-237.834 -59 -345.501 -68s-219.834 -13.5 -336.501 -13.5
c-35.333 0 -73.666 24.667 -114.999 74s-62 116 -62 200c0 302.667 255.333 728.667 766 1278c-135.333 -108.667 -245.666 -163 -330.999 -163c-38.667 0 -79 11.5 -121 34.5s-68.667 34.5 -80 34.5c-36 0 -79.667 -42.333 -131 -127l-74 74
c0 7.33301 -1.33301 19.333 -4 36s-4 26.334 -4 29.001c0 164 79 246 237 246c33.333 0 67.5 -2.16699 102.5 -6.5s74.333 -9.83301 118 -16.5s90.5 -13.334 140.5 -20.001s92.333 -10 127 -10c64 0 120 12.333 168 37zM561.002 889.001c-98 -165.333 -147 -306 -147 -422
c0 -84 25.167 -148 75.5 -192s111.166 -66 182.499 -66c62 0 124 14.333 186 43s110.667 67.667 146 117c90 128.667 135 244.667 135 348c0 68 -24.667 102 -74 102c-24.667 0 -45 -1.33301 -61 -4c-38 -65.333 -97 -98 -177 -98c-39.333 0 -79.666 10.5 -120.999 31.5
s-75.833 45.667 -103.5 74s-41.5 50.5 -41.5 66.5z" />
    <glyph glyph-name="dagger" unicode="&#x2020;" 
 />
    <glyph glyph-name="degree" unicode="&#xb0;" horiz-adv-x="213" 
d="M680 1974c-68.667 -34 -118 -95.332 -148 -183.999c-13.333 -24 -20 -54 -20 -90c0 -28 6.66699 -47.333 20 -58c59.333 59.333 101.5 104.666 126.5 135.999s37.5 69.333 37.5 114c0 28 -5.33301 55.333 -16 82zM319 1790c0 47.333 16 101 48 161s73.5 111 124.5 153
s104.167 63 159.5 63c50.667 0 100 -15 148 -45c87.333 -34.667 131 -105.667 131 -213c0 -58 -13.333 -118.167 -40 -180.5s-57 -111.5 -91 -147.5c-54.667 -54.667 -121.667 -82 -201 -82c-66.667 0 -128.167 26 -184.5 78s-87.833 123 -94.5 213z" />
    <glyph glyph-name="cent" unicode="&#xa2;" 
 />
    <glyph glyph-name="sterling" unicode="&#xa3;" horiz-adv-x="2941" 
d="M1221 659c120 -7.33301 248.004 -24.5029 384.004 -51.5029s271.167 -57.833 405.5 -92.5l432 -107.5c153.667 -37 273.5 -62.167 359.5 -75.5c-58 -44.667 -130.167 -110.667 -216.5 -198s-155.833 -150 -208.5 -188s-110.334 -57 -173.001 -57h-29
c-71.333 4.66699 -216.5 31.334 -435.5 80.001s-412.667 87.167 -581 115.5s-345.5 42.5 -531.5 42.5h-115c-47.333 -32 -114.333 -64.5 -201 -97.5s-159 -49.5 -217 -49.5c-62.667 0 -94 21.667 -94 65l8 21c40 84 100.833 190.833 182.5 320.5
s158.834 200.167 231.501 211.5c34.667 6 85.834 12.667 153.501 20l179.5 19.5c52 5.66699 98 12.834 138 21.501l266 332c-27.333 5.33301 -76.333 8 -147 8c-30.667 0 -79.334 -1.33301 -146.001 -4s-116.334 -4 -149.001 -4c42.667 87.333 83.167 144.666 121.5 171.999
s89.166 41 152.499 41c19.333 0 64 -1.33301 134 -4s130.667 -4 182 -4l688 868l160.5 202c73.667 91.333 159.834 189.833 258.5 295.5c98.667 105.667 178.667 176.167 240 211.5c107.333 74 203 111 287 111c72.667 0 129 -30.667 169 -92s60 -134.666 60 -219.999
c0 -87.333 -13.667 -158.333 -41 -213c-16.667 -32 -63.334 -110.5 -140 -235.5l-182 -300.5c-44.667 -75.333 -76.334 -135.666 -95 -180.999c25.333 -4 44.5 -13 57.5 -27s19.5 -28 19.5 -42c0 -42.667 -44.833 -100.167 -134.5 -172.5s-209.834 -159.5 -360.5 -261.5
c-38.667 -24.667 -71.667 -37 -99 -37c-62.667 0 -94 46.333 -94 139c0 56 14.667 126.5 44 211.5s74.666 177.833 136 278.5c61.333 100.667 136.666 201 226 301c92.667 100 139 172.333 139 217c0 13.333 -4 20 -12 20c-21.333 0 -57.333 -19.167 -108 -57.5
s-99.334 -87.5 -146.001 -147.5l-738 -897c97.333 -32.667 170.833 -71.167 220.5 -115.5s74.5 -84.833 74.5 -121.5c0 -21.333 -8.16699 -39 -24.5 -53s-38.166 -21 -65.499 -21c-2.66699 0 -7.33398 1.33301 -14.001 4s-11.334 4 -14.001 4l-357 99z" />
    <glyph glyph-name="section" unicode="&#xa7;" 
 />
    <glyph glyph-name="bullet" unicode="&#x2022;" horiz-adv-x="213" 
d="M-422 1946c8 48.667 38.001 73 90.001 73c25.333 0 62.166 -7.5 110.499 -22.5s79.833 -22.5 94.5 -22.5c384 -126.667 584.667 -197.667 602 -213c74 -78 111 -135.333 111 -172c0 -9.33301 -7.5 -17.833 -22.5 -25.5s-32.167 -11.5 -51.5 -11.5
c-32.667 0 -73 5.83301 -121 17.5s-101.333 26.5 -160 44.5s-89.334 27.333 -92.001 28c-68.667 18.667 -135.667 30.667 -201 36s-133.666 8 -204.999 8s-119.833 2.33301 -145.5 7s-38.5 16.667 -38.5 36z" />
    <glyph glyph-name="paragraph" unicode="&#xb6;" 
 />
    <glyph glyph-name="germandbls" unicode="&#xdf;" horiz-adv-x="3228" 
d="M2195 1085l-1065 -687.999c-455.333 -300 -752.666 -450 -891.999 -450c-36.667 0 -67.334 7 -92.001 21s-61 39.667 -109 77c-24.667 17.333 -37 44.666 -37 81.999c0 66 38 144.833 114 236.5s169.833 170.667 281.5 237s218.834 99.5 321.501 99.5
c123.333 0 219 -43.667 287 -131l999 590c-96 -48 -235.167 -107.833 -417.5 -179.5s-334.166 -107.5 -455.499 -107.5c-9.33301 0 -22.833 2.83301 -40.5 8.5s-31.167 8.5 -40.5 8.5c-2 0 -9.33301 -1.33301 -22 -4s-20.334 -4 -23.001 -4
c-50.667 0 -99.334 22.333 -146.001 67s-84.667 105.834 -114 183.501s-44 161.834 -44 252.501c0 132 38.333 274 115 426c121.333 201.333 279.333 370 474 506s399.834 236 615.501 300s421.834 96 618.5 96c114 0 219.667 -13 317 -39s173.333 -62.333 228 -109
s82 -100 82 -160c0 -4 -1.33301 -13 -4 -27s-4 -25.333 -4 -34l-124 -94.5c-56.667 -42.333 -116.5 -84.333 -179.5 -126s-106.833 -63.834 -131.5 -66.5c-6 0 -14.333 -1.33301 -25 -4s-17.334 -4 -20 -4c-73.333 0 -110 19 -110 57c0 15.333 5.66699 33.166 17 53.5
c11.333 20.333 20.666 35.5 27.999 45.5c-46.667 24.667 -113.667 37 -201 37c-90 0 -178.833 -12.833 -266.5 -38.5s-151.834 -47.167 -192.501 -64.5c-124.667 -41.333 -232.667 -90 -324 -146s-155.333 -98.667 -192 -128c-130 -114.667 -218.5 -227.334 -265.5 -338.001
s-70.5 -193.334 -70.5 -248.001h9c8 -46 30.5 -82.167 67.5 -108.5s81.167 -39.5 132.5 -39.5c119.333 0 313.333 61.667 582 185c98.667 45.333 207.834 115.5 327.501 210.5s219 180.167 298 255.5l169.5 165c12 8 31 12 57 12c51.333 0 99 -32.167 143 -96.5
s66 -137.5 66 -219.5c0 -72 -20.667 -153.667 -62 -245l-479 -754c-68 -130.667 -102 -219.334 -102 -266.001c0 -30 12.333 -45 37 -45c46 0 134.667 42.333 266 127c127.333 83.333 208.333 139.833 243 169.5s101 95.834 199 198.501l53 -192
c-348 -483.333 -683.667 -725 -1007 -725c-65.333 0 -136.333 12.333 -213 37c-65.333 56 -98 125.667 -98 209c0 76 19.5 158.333 58.5 247s85.667 179 140 271s82.166 143 83.499 153z" />
    <glyph glyph-name="registered" unicode="&#xae;" horiz-adv-x="2859" 
d="M745 2122h771c102 0 190 -22.667 264 -68s129.667 -103.333 167 -174s56 -143 56 -217c0 -102.667 -32.333 -191.167 -97 -265.5s-152.667 -111.5 -264 -111.5l295 -569h-393l-295 569h-147v-569h-357v1405zM1102 1847l-0.000976562 -294.999h385
c44.667 0 80.334 13.333 107.001 40s40 58.667 40 96c0 41.333 -18 78.166 -54 110.499s-87.667 48.5 -155 48.5h-323zM-90.001 1376l0.000976562 45.001c0 203.333 58.167 410.666 174.5 621.999s279.833 385.833 490.5 523.5s447.667 206.5 711 206.5h53
c190.667 0 373.167 -37.667 547.5 -113s328 -179.833 461 -313.5s237.167 -289.5 312.5 -467.5s113 -366 113 -564c-7.33301 -280 -83.166 -526.5 -227.499 -739.5s-325.333 -375.833 -543 -488.5s-431.834 -169 -642.501 -169h-53c-128.667 0 -269.334 27.333 -422.001 82
s-301 140.5 -445 257.5s-264.5 269.167 -361.5 456.5s-153.167 408 -168.5 662zM295 1348c0 -4 -1.33203 -12.3311 -3.99902 -24.998s-4 -19.334 -4 -20.001c0 -121.333 29 -242 87 -362s137.167 -228.167 237.5 -324.5s214 -172.666 341 -228.999
s255.833 -84.5 386.5 -84.5c138 0 286.167 35.167 444.5 105.5s295 181.666 410 333.999s177.167 343.166 186.5 572.499v37c0 131.333 -30.5 261.5 -91.5 390.5s-142 244 -243 345s-213.833 181.167 -338.5 240.5s-247.334 89 -368.001 89
c-243.333 -9.33301 -441.333 -65.5 -594 -168.5s-263 -232.333 -331 -388s-107.667 -326.5 -119 -512.5z" />
    <glyph glyph-name="copyright" unicode="&#xa9;" horiz-adv-x="2867" 
d="M1716 1614c-25.333 64 -71.832 117.499 -139.499 160.499s-137.167 64.5 -208.5 64.5c-95.333 0 -175.833 -40.5 -241.5 -121.5s-98.5 -204.167 -98.5 -369.5c0 -149.333 34 -261.166 102 -335.499s150 -111.5 246 -111.5c76.667 0 149.667 23 219 69
s109.666 102.333 120.999 169h352c-17.333 -190 -89.833 -338.667 -217.5 -446s-276.167 -161 -445.5 -161c-127.333 0 -251 31.667 -371 95s-217.833 156.5 -293.5 279.5s-113.5 267.167 -113.5 432.5c0 3.33301 1.33301 9.66602 4 18.999s4 15.333 4 18
c4.66699 186 41.334 341.333 110.001 466s157 216.167 265 274.501c108 58.333 224.667 87.5 350 87.5c119.333 0 233.666 -25.167 342.999 -75.5s197.5 -120.5 264.5 -210.5s100.5 -191.333 100.5 -304h-352zM2789 1376l0.00390625 -98.001
c0 -177.333 -38.333 -348 -115 -512s-182.167 -310.167 -316.5 -438.5s-286.333 -228.666 -456 -300.999s-342.167 -108.5 -517.5 -108.5c-172.667 0 -342.834 31.833 -510.501 95.5s-319.334 157.5 -455.001 281.5s-244.834 277.333 -327.501 460s-128 389.667 -136 621v45
c0 232.667 62.667 453.334 188 662.001s291 375.834 497 501.5c206 125.667 421.333 188.5 646 188.5h98c232.667 -10.667 452.167 -65.667 658.5 -165s377.666 -252.333 513.999 -459s213.833 -464.334 232.5 -773.001zM2425 1348
c0 130.667 -25.6631 258.33 -76.9961 382.997s-125 237 -221 337s-207.667 178.333 -335 235s-263.333 85 -408 85c-172 0 -324.5 -29.167 -457.5 -87.5s-243.333 -136.333 -331 -234s-154.834 -205.667 -201.501 -324s-74.334 -240.5 -83.001 -366.5
c0 -141.333 26.5 -276.5 79.5 -405.5s129.167 -244 228.5 -345s217.166 -180 353.499 -237s283.166 -85.5 440.499 -85.5c116.667 0 234.5 22.833 353.5 68.5s228.5 112.834 328.5 201.501s180 198.834 240 330.501s90 279.834 90 444.501z" />
    <glyph glyph-name="trademark" unicode="&#x2122;" 
 />
    <glyph glyph-name="acute" unicode="&#xb4;" horiz-adv-x="213" 
d="M1479 1790c5.33301 -16.667 7.99902 -41.333 7.99902 -74c0 -60 -37 -90 -111 -90c-16 0 -39.667 2.66699 -71 8s-52.666 8 -63.999 8c-91.333 0 -184.5 -8.66699 -279.5 -26s-189.833 -38.333 -284.5 -63s-149.667 -37 -165 -37c-3.33301 0 -6.5 1 -9.5 3
s-5.16699 3.66699 -6.5 5c-14 18.667 -21 35 -21 49c0 40 27.333 78.667 82 116s120.334 71.333 197.001 102s161.167 61.334 253.5 92.001s151.166 51.667 176.499 63c8.66699 1.33301 34.167 7.66602 76.5 18.999s72.833 17 91.5 17c84.667 0 127 -64 127 -192z" />
    <glyph glyph-name="dieresis" unicode="&#xa8;" horiz-adv-x="213" 
d="M586 2003c19.333 42 51.833 81.834 97.5 119.501s101.834 56.5 168.501 56.5c122.667 -10.667 184 -64 184 -160c0 -24.667 -10.667 -72.334 -32 -143.001l-29 -45.5c-11.333 -17.667 -25.333 -35.5 -42 -53.5s-36.834 -32.667 -60.501 -44s-50.834 -17 -81.501 -17
c-3.33301 0 -33.666 4.33301 -90.999 13c-49.333 10.667 -86.833 24.5 -112.5 41.5s-38.5 45.167 -38.5 84.5c0 42.667 12.333 92 37 148zM1450 1729c-20.667 6.66699 -40.833 13.502 -60.5 20.502s-38.5 15.333 -56.5 25s-33 22.5 -45 38.5s-18 35.667 -18 59
c0 20 11 54 33 102c42.667 136.667 131.334 205 266.001 205c117.333 0 176 -53.333 176 -160c0 -34.667 -9.66699 -82.334 -29 -143.001c-14.667 -40.667 -39.834 -78.834 -75.501 -114.501s-74.5 -53.5 -116.5 -53.5c-5.33301 0 -11.5 0.833008 -18.5 2.5
s-17.5 5 -31.5 10s-22 7.83301 -24 8.5z" />
    <glyph glyph-name="AE" unicode="&#xc6;" horiz-adv-x="4006" 
d="M2019 664c-26 218 -77.6699 327 -155.003 327c-46.667 0 -116.334 -57.333 -209.001 -172l-322.5 -400c-122.333 -152 -255.666 -287.167 -399.999 -405.5s-299.5 -196.5 -465.5 -234.5h-45c-66 0 -129.5 44.5 -190.5 133.5s-111.5 189.667 -151.5 302
s-60 188.166 -60 227.499v17c0 54.667 15.333 82 46 82c24.667 0 85.334 -25 182.001 -75s169.667 -82.333 219 -97c128 25.333 248.833 84 362.5 176s245 219.667 394 383s264.333 281 346 353s161.834 108 240.501 108c104.667 0 199 -68.333 283 -205
c-24 214 -62 386.167 -114 516.5s-112.667 224.166 -182 281.499s-144 86 -224 86c-66.667 0 -146.667 -28.167 -240 -84.5s-189.5 -125.166 -288.5 -206.499l-237.5 -196c45.333 0 96.666 1.33301 153.999 4s92 4 104 4c60 0 90 -12.333 90 -37v-45
c0 -25.333 -7.66699 -42.166 -23 -50.499s-42.666 -15.166 -81.999 -20.499s-67 -10.333 -83 -15c-93.333 -28.667 -201.666 -75.334 -324.999 -140.001s-199.333 -97 -228 -97c-38.667 0 -58 36.667 -58 110v480l-8 8c0 68.667 78 168.334 234 299.001s343 253 561 367
s411.667 185.333 581 214c116 0 210.833 -79.5 284.5 -238.5s127.667 -352.5 162 -580.5s57.833 -472.333 70.5 -733c49.333 113.333 97.666 240.166 145 380.499c47.333 140.333 94.166 289 140.5 446l107 360.5c25 83.333 41.5 131.333 49.5 144
c15.333 32 43.166 66.5 83.5 103.5c40.333 37 86.5 68 138.5 93s103.667 37.5 155 37.5c90 0 162.333 -28.667 217 -86l-668 -1184c135.333 135.333 337.333 303.333 606 504l672 532c9.33301 5.33301 43.666 26.5 103 63.5c59.333 37 100 55.5 122 55.5
c27.334 0 41 -17.667 41 -53c0 -28.667 -4 -61.667 -12 -99c-28 -104 -66 -185.167 -114 -243.5s-92 -87.5 -132 -87.5c-14 0 -29 8 -45 24l-839 -680c-33.333 -20.667 -59.5 -48.5 -78.5 -83.5s-28.5 -67.167 -28.5 -96.5c0 -32.667 15 -64 45 -94l799 -807
c68 -32 102 -123.333 102 -274c0 -63.333 -10.667 -116.166 -32 -158.499s-51.666 -63.5 -91 -63.5c-48.667 0 -100.334 27.333 -155 82l-963 815c-16 28.667 -29.333 103.834 -40 225.501s-22 194.167 -34 217.5c-73.333 -216 -110 -414 -110 -594
c0 -58.667 12.333 -132.334 37 -221.001h45c38 0 57 -12.333 57 -37c0 -32.667 -32.333 -82.834 -97 -150.501s-137.5 -128.5 -218.5 -182.5s-145.167 -81 -192.5 -81c-18.667 0 -31 2.66699 -37 8c-5.33301 4.66699 -26 18.167 -62 40.5s-62 45 -78 68s-24 55.167 -24 96.5
c0 108 54.667 285.667 164 533z" />
    <glyph glyph-name="Oslash" unicode="&#xd8;" horiz-adv-x="4043" 
d="M1233 516c-93.333 -80 -196.837 -160.172 -310.504 -240.505s-217.167 -146.333 -310.5 -198s-156.666 -77.5 -189.999 -77.5l-8 8c-134.667 0 -236 32.5 -304 97.5s-102 148.5 -102 250.5c0 71.333 17.667 150.833 53 238.5s82 168.167 140 241.5l893 1081
c43.333 47.333 65 81.333 65 102c0 19.333 -12.333 29 -37 29c-31.333 0 -78.5 -11.167 -141.5 -33.5s-142.5 -53.833 -238.5 -94.5l-173 -73c-95.333 -38 -168.333 -70.833 -219 -98.5s-88.667 -54.5 -114 -80.5s-60.333 -70 -105 -132c68.667 22 143.667 33 225 33
c42.667 0 81.334 -5 116.001 -15s52 -20 52 -30c0 -10.667 -10.333 -23.334 -31 -38.001s-49.667 -26.667 -87 -36c-331.333 -73.333 -562.333 -143 -693 -209c-53.333 -13.333 -77.666 -20 -72.999 -20c-71.333 0 -107 51.667 -107 155c0 58 10.5 125.333 31.5 202
s47.833 147.667 80.5 213s65 108.666 97 129.999c40.667 31.333 124.5 81.166 251.5 149.499l421.5 216l417 198c124 56.333 208.333 91.166 253 104.5c136.667 24.667 236.334 37 299.001 37c108.667 0 193.334 -24.667 254.001 -74s91 -121.666 91 -217
c0 -15.333 -0.833008 -32.666 -2.5 -51.999s-2.5 -33.333 -2.5 -42c-14 -75.333 -59 -169.5 -135 -282.5s-178.5 -247.333 -307.5 -403l-328 -393.5c-89.667 -106.667 -150.834 -185.334 -183.501 -236.001c-122.667 -178.667 -184 -294.667 -184 -348
c0 -19.333 9.33301 -29 28 -29c30.667 0 82.667 21.667 156 65c136 82.667 265.667 174.334 389 275.001c144 124.667 282.5 256.5 415.5 395.5s255.167 278.333 366.5 418s201.666 266.834 271 381.501c69.333 114.667 113 209 131 283c3.33301 0 69.5 14.5 198.5 43.5
s223.833 43.5 284.5 43.5c74 0 111 -19.333 111 -58v-29c0 -33.333 -39.833 -103.833 -119.5 -211.5s-169.667 -221.167 -270 -340.5l-436 -509l-358.5 -417c-79.333 -79.333 -119 -143.666 -119 -192.999c0 -48.667 34.333 -73 103 -73c50 0 111.5 17.333 184.5 52
s139.833 81.334 200.5 140.001c142 114.667 286.5 244.5 433.5 389.5l419 429l403 428c136.333 144.333 237.833 243.5 304.5 297.5c56.667 44 108.667 66 156 66c48 0 87.333 -25.167 118 -75.5s46 -107.166 46 -170.499c0 -48 -8.33301 -86.333 -25 -115
c-54 -82.667 -127.333 -188 -220 -316l-292 -404.5c-102 -141.667 -187.5 -268.5 -256.5 -380.5s-121.167 -213.333 -156.5 -304c-63.333 -98 -95 -174.333 -95 -229c0 -70.667 45 -106 135 -106c88 0 203.5 39.167 346.5 117.5s273.5 179.5 391.5 303.5l65 -155
c-51.333 -51.333 -122.833 -114.166 -214.5 -188.499s-184.667 -142 -279 -203s-175.5 -102.5 -243.5 -124.5c-154.667 -54.667 -292.667 -82 -414 -82c-169.333 0 -254 73.667 -254 221c0 200.667 168 558.334 504 1073c-66.667 -60 -157.334 -158.833 -272.001 -296.5
l-380.5 -455c-139 -165.667 -262 -296.167 -369 -391.5s-195.167 -143 -264.5 -143h-29c-93.333 0 -174.166 21.333 -242.499 64s-120 97.834 -155 165.501s-52.5 138.5 -52.5 212.5c0 8.66699 0.666992 21.667 2 39s2 29 2 35z" />
    <glyph glyph-name="plusminus" unicode="&#xb1;" 
 />
    <glyph glyph-name="yen" unicode="&#xa5;" 
 />
    <glyph glyph-name="mu" unicode="&#xb5;" 
 />
    <glyph glyph-name="ordfeminine" unicode="&#xaa;" 
 />
    <glyph glyph-name="ordmasculine" unicode="&#xba;" horiz-adv-x="213" 
d="M-246 1552h1102v-147h-1102v147zM348 2331c-121.333 -54 -211 -113.831 -269 -179.498s-87 -124.834 -87 -177.501c0 -54.667 27.333 -82 82 -82c56 0 127 37 213 111c-32.667 9.33301 -49 29.666 -49 60.999c0 20 5.66699 43.833 17 71.5s29 65.667 53 114
s37.333 75.5 40 81.5zM-213 2032c0 218 156.999 395.333 470.999 532c60 24.667 124.333 37 193 37c46.667 0 87.667 -8.33301 123 -25s53 -37 53 -61c0 -20.667 -12.333 -44 -37 -70c46 -10.667 69 -48.667 69 -114c0 -70.667 -32.667 -170.334 -98 -299
c50 18 103.5 45.167 160.5 81.5s92.167 69.166 105.5 98.5l29 -148c-41.333 -42.667 -77 -76 -107 -100s-70.167 -44.667 -120.5 -62s-112.5 -26 -186.5 -26c-58 -53.333 -122.5 -97.333 -193.5 -132s-134.833 -52 -191.5 -52c-73.333 0 -135.166 29 -185.499 87
s-78.5 142.333 -84.5 253z" />
    <glyph glyph-name="ae" unicode="&#xe6;" horiz-adv-x="3355" 
d="M1352 815c15.333 20.667 35.833 90.6611 61.5 209.994s55 223.166 88 311.499s82.833 157.5 149.5 207.5c55.333 60 138.666 90 249.999 90c56 0 106.833 -9.83301 152.5 -29.5s68.5 -42.5 68.5 -68.5c0 -20 -7 -36.333 -21 -49c-73.333 -92 -136 -183.167 -188 -273.5
l-162.5 -284.5c-56.333 -99.333 -115.5 -187.666 -177.5 -264.999c59.333 51.333 120.166 100.666 182.499 147.999l261.5 195.5l260 196.5c9.33301 5.33301 52.333 32.5 129 81.5s143.834 87.333 201.5 115c57.667 27.667 112.834 41.5 165.5 41.5h37
c117.333 -47.333 176 -126.666 176 -237.999c0 -64 -20 -131.333 -60 -202s-78.667 -123.334 -116 -158.001c-64.667 -44 -126 -66 -184 -66c-32 0 -58.5 8 -79.5 24s-31.5 34 -31.5 54c0 2.66699 1.33301 8.33398 4 17.001s4 14 4 16c74 54 111 95 111 123
c0 16 -8.33301 24 -25 24c-48 0 -132.667 -29.833 -254 -89.5s-257.666 -143.167 -409 -250.5c8.66699 0 22.667 -5.33301 42 -16s34 -16 44 -16c21.333 -19.333 41.666 -38.666 61 -57.999c72.667 -117.333 177.667 -176 315 -176c115.333 0 241.666 33.167 379 99.5
c137.333 66.333 252.666 141.166 346 224.499l70 -176c-158 -135.333 -297 -246.333 -417 -333s-222.167 -149.167 -306.5 -187.5s-157.166 -57.5 -218.5 -57.5c-66 0 -124.167 19.667 -174.5 59s-101.333 93.666 -153 162.999l-196.5 265h-13
c-26.667 0 -64.167 -28.333 -112.5 -85s-85.833 -136 -112.5 -238c-84.667 -153.333 -168 -230 -250 -230c-62.667 0 -94 61.667 -94 185c0 62.667 16.333 170.334 49 323.001c-20 58.667 -44.5 103.5 -73.5 134.5s-56.167 46.5 -81.5 46.5
c-38.667 0 -74.834 -20.5 -108.501 -61.5s-89 -117.167 -166 -228.5s-144 -194.666 -201 -249.999s-117.167 -83 -180.5 -83c-16.667 0 -40 -1.33301 -70 -4s-49 -4 -57 -4c-78 0 -137 13.833 -177 41.5s-60 60.167 -60 97.5c0 39.333 15 76.5 45 111.5s62.667 52.5 98 52.5
c10.667 10.667 84.5 97.334 221.5 260.001s235.167 274 294.5 334c34 0 75.167 -7 123.5 -21s96.833 -30.333 145.5 -49l144.5 -53c47.667 -16.667 81.834 -25 102.501 -25c0 70.667 -20.333 153.834 -61 249.501s-94 160.167 -160 193.5c-17.333 32.667 -54.333 49 -111 49
c-40.667 0 -85.334 -11.667 -134.001 -35s-113.5 -58.5 -194.5 -105.5s-146.333 -81.833 -196 -104.5s-94.5 -34 -134.5 -34c-3.33301 0 -9.66602 1.5 -18.999 4.5s-16.666 4.5 -21.999 4.5c0 91.333 18.333 169.333 55 234s67.334 109.334 92.001 134.001
c42 0 106 25.667 192 77s152.667 88.166 200 110.499s113.333 33.5 198 33.5c70 0 129.333 -22.667 178 -68s88.5 -103.166 119.5 -173.499s54.5 -135.166 70.5 -194.499s41 -159.666 75 -300.999z" />
    <glyph glyph-name="oslash" unicode="&#xf8;" horiz-adv-x="3027" 
d="M918 516c-38 -30 -107.005 -90.5049 -207.005 -181.505s-178.5 -158.5 -235.5 -202.5s-102.167 -66 -135.5 -66l-8 8c-95.333 18.667 -171.166 64.834 -227.499 138.501s-84.5 161.167 -84.5 262.5c0 115.333 36.167 243.833 108.5 385.5s176.833 280.834 313.5 417.501
l57 51.5c19.333 17 38 29.167 56 36.5s43.833 13 77.5 17s79.5 6 137.5 6c122.667 0 184 -22 184 -66c0 -29.333 -32.667 -85.333 -98 -168c-42 -54.667 -97.333 -112.834 -166 -174.501l-186.5 -167.5c-55.667 -50 -99.5 -97.167 -131.5 -141.5s-48 -90.833 -48 -139.5
c0 -5.33301 1.33301 -12.666 4 -21.999s4 -17 4 -23l8 -8c20 0 66.5 20 139.5 60s163.833 101.5 272.5 184.5s225.334 187.167 350.001 312.5c224.667 214.667 399.334 362.334 524.001 443.001c21.333 10.667 36.333 16 45 16c26.667 0 47 -20 61 -60s21 -84 21 -132
c0 -54.667 -2.66699 -85 -8 -91c-12.667 -20.667 -67.167 -84.667 -163.5 -192s-177.166 -205.666 -242.499 -294.999c-108.667 -114 -163 -190.333 -163 -229c0 -36 36.667 -54 110 -54l-8 -8l8 -4c18.667 0 66.5 24.5 143.5 73.5s170.833 118.833 281.5 209.5
s228.334 198.334 353.001 323.001c57.333 57.333 142.5 135 255.5 233s202.833 168 269.5 210c16 10.667 31 16 45 16c26 0 45.5 -19.5 58.5 -58.5s19.5 -83.5 19.5 -133.5c0 -54.667 -1.66699 -85 -5 -91c-16.667 -24.667 -59.167 -75.167 -127.5 -151.5l-150 -169
c-31.667 -36.333 -75.5 -91.833 -131.5 -166.5c-79.333 -109.333 -119 -191.333 -119 -246c0 -43.333 23.333 -65 70 -65c102.667 0 304.667 113.333 606 340l29 -168c-130.667 -135.333 -254 -247.166 -370 -335.499s-221.167 -153.5 -315.5 -195.5s-174.5 -63 -240.5 -63
c-68.667 0 -122.667 22.5 -162 67.5s-59 104.5 -59 178.5c0 75.333 21.667 168 65 278c-122 -124.667 -235.833 -229.5 -341.5 -314.5s-197.667 -147.333 -276 -187s-142.833 -59.5 -193.5 -59.5s-90.667 19 -120 57s-44 88.667 -44 152c0 87.333 30.333 204.666 91 351.999
z" />
    <glyph glyph-name="questiondown" unicode="&#xbf;" horiz-adv-x="1602" 
d="M844 1073c38 26 67.333 56.834 88 92.501s31 63.5 31 83.5c0 11.333 -12.333 17 -37 17c-43.333 0 -110.333 -39.167 -201 -117.5s-189 -194.833 -295 -349.5c181.333 79.333 319.333 170.666 414 273.999zM397 1847c23.333 47.333 57.5 89.999 102.5 127.999
s99.833 57 164.5 57c125.333 -11.333 188 -64.666 188 -159.999c0 -37.333 -11 -85 -33 -143c-52 -106.667 -123 -160 -213 -160c-26.667 0 -56.667 4 -90 12c-104 20 -156 62.333 -156 127c0 32 12.333 78.333 37 139zM1384 2032c61.333 0 106.166 -16.334 134.499 -49.001
s42.5 -72.334 42.5 -119.001c0 -32 -9.66699 -77 -29 -135c-14 -39.333 -39 -77.166 -75 -113.499s-75.333 -54.5 -118 -54.5c-15.333 0 -39.666 6.66699 -72.999 20c-66 24.667 -112.667 45.167 -140 61.5s-41 43.5 -41 81.5c0 12.667 11 44.334 33 95.001
c42 142 130.667 213 266 213zM1057 888.999c-142.667 -99.333 -362.664 -198.999 -659.997 -298.999c9.33301 -177.333 84.666 -266 225.999 -266c170.667 0 443.667 148.667 819 446l28 -147c-166.667 -206 -340.334 -362.667 -521.001 -470s-344 -161 -490 -161
c-130 0 -235.667 41 -317 123s-122 196.667 -122 344c0 69.333 18 173 54 311c28.667 119.333 107 243.333 235 372s266.667 223 416 283c120 49.333 233.333 74 340 74c86 0 153.167 -21 201.5 -63s72.5 -94.667 72.5 -158c0 -62.667 -24.333 -128.834 -73 -198.501
s-118.334 -133.167 -209.001 -190.5z" />
    <glyph glyph-name="exclamdown" unicode="&#xa1;" horiz-adv-x="2372" 
d="M1864 2626l147.002 0.00195312c360.667 0 541 -54.667 541 -164c0 -2.66699 2 -25 6 -67s6 -75.667 6 -101c0 -112 -41 -176.333 -123 -193c-43.333 0 -104.666 -16.167 -183.999 -48.5s-146.333 -70.833 -201 -115.5c-70 -48.667 -134 -73 -192 -73
c-30 0 -45 6.66699 -45 20c0 51.333 88.667 140 266 266c-178 0 -367.167 -21.167 -567.5 -63.5s-370.333 -98 -510 -167s-214.834 -139.5 -225.501 -211.5c0 -26.667 46.167 -51.167 138.5 -73.5s205.5 -40.166 339.5 -53.499s261.333 -20 382 -20c26.667 0 62.667 2 108 6
s75 6 89 6h90c123.333 0 185 -28.667 185 -86c0 -43.333 -34.833 -96.5 -104.5 -159.5s-118.167 -94.5 -145.5 -94.5c-200 -16.667 -386.833 -50.5 -560.5 -101.5s-324.834 -109.5 -453.501 -175.5s-232 -132.333 -310 -199s-125.667 -123.667 -143 -171l-4 -17
c0 -23.333 34.5 -44.166 103.5 -62.499s157.5 -27.5 265.5 -27.5c94 0 200.5 8.5 319.5 25.5s244.833 44.167 377.5 81.5s264.5 86 395.5 146s254.167 131.333 369.5 214c11.333 -52.667 17 -95 17 -127c0 -161.333 -75.833 -301.5 -227.5 -420.5s-342.167 -209 -571.5 -270
s-456 -91.5 -680 -91.5c-174.667 0 -325.834 20.667 -453.501 62s-205.834 99.666 -234.501 174.999c-38.667 86 -58 165.333 -58 238c0 107.333 37 203.166 111 287.499s171 158.666 291 222.999s261.667 127.666 425 189.999l464 176.5
c-22 0 -47.833 -0.833008 -77.5 -2.5s-50.5 -2.5 -62.5 -2.5c-258 0 -455.5 38.333 -592.5 115s-205.5 173.667 -205.5 291c0 111.333 59.833 226.333 179.5 345s293.834 223 522.501 313s493 149.333 793 178zM1249 2826c-103.333 16.667 -155.003 57.667 -155.003 123
c0 29.333 12 78.666 36 148c21.333 44 55 85 101 123s101.333 57 166 57c122.667 -15.333 184 -70 184 -164c0 -36.667 -9.66699 -83 -29 -139l-27 -45.5c-11.333 -19 -25.666 -37.667 -42.999 -56s-38.166 -33.333 -62.499 -45s-51.166 -17.5 -80.499 -17.5
c-21.333 0 -51.333 5.33301 -90 16zM1847 3068c44.667 139.333 133.668 209 267.001 209c120 0 180 -54.667 180 -164c0 -42 -11 -88.333 -33 -139c-12 -42 -35.833 -81.167 -71.5 -117.5s-76.167 -54.5 -121.5 -54.5c-4 0 -10.667 1.33301 -20 4s-17.833 5.66699 -25.5 9
s-16.834 7 -27.501 11c-65.333 22 -111 40.333 -137 55s-39 43 -39 85c0 10.667 9.33301 44.667 28 102z" />
    <glyph glyph-name="logicalnot" unicode="&#xac;" 
 />
    <glyph glyph-name="florin" unicode="&#x192;" 
 />
    <glyph glyph-name="guillemotleft" unicode="&#xab;" horiz-adv-x="1438" 
d="M1036 1700c40.667 -40.667 75.5029 -91.6689 104.503 -153.002s43.5 -108.666 43.5 -141.999v-21c0 -26.667 -10 -54.334 -30 -83.001s-51.833 -68.667 -95.5 -120s-76.834 -93 -99.501 -125s-36.334 -63 -41.001 -93l-9 -25c0 -30 14 -53.833 42 -71.5
s73.833 -39.5 137.5 -65.5s112.5 -52.833 146.5 -80.5s51 -63.167 51 -106.5c0 -11.333 -5.33301 -35.666 -16 -72.999c-22.667 -66 -66.334 -99 -131.001 -99c-63.333 0 -136.5 31.5 -219.5 94.5s-154.667 136.5 -215 220.5s-90.5 152.667 -90.5 206c0 18 14 50.333 42 97
s75 119.834 141 219.501s119 183.5 159 251.5s66.667 124.333 80 169zM406.003 1700c42.667 -40.667 77.8311 -91.502 105.498 -152.502s41.5 -108.5 41.5 -142.5v-21c0 -26 -9.83301 -53.5 -29.5 -82.5s-52 -70.5 -97 -124.5s-78.167 -95.833 -99.5 -125.5
s-34.666 -59.167 -39.999 -88.5l-4 -25c0 -30 14 -53.833 42 -71.5s73.667 -39.667 137 -66s112 -53.166 146 -80.499s51 -62.666 51 -105.999c0 -11.333 -5.33301 -35.666 -16 -72.999c-10 -30.667 -27.833 -54.834 -53.5 -72.501s-51.5 -26.5 -77.5 -26.5
c-61.333 0 -133.333 31.667 -216 95s-154 136.833 -214 220.5s-90 152.167 -90 205.5c0 19.333 13.333 51.333 40 96s72.334 116.167 137.001 214.5s117.167 182.5 157.5 252.5s66.833 128 79.5 174z" />
    <glyph glyph-name="guillemotright" unicode="&#xbb;" horiz-adv-x="1196" 
d="M762 451c-84.667 84.667 -127.001 167.67 -127.001 249.003c0 59.333 13.5 110.666 40.5 153.999s68 99.666 123 168.999s82.5 117.333 82.5 144c0 48.667 -15 83.5 -45 104.5s-76.167 42.167 -138.5 63.5s-108.833 44.333 -139.5 69s-46 64.667 -46 120
c0 4 0.666992 13.667 2 29s2 24.666 2 27.999c7.33301 38.667 22.333 68.167 45 88.5s47.334 30.5 74.001 30.5c59.333 0 131.833 -30.667 217.5 -92s161 -130.333 226 -207s97.5 -134 97.5 -172c0 -61.333 -14.667 -121.5 -44 -180.5s-84.833 -150 -166.5 -273
s-149.5 -231.167 -203.5 -324.5zM548.999 1229c0 -62.667 -14.998 -123.501 -44.998 -182.501s-87.333 -151.5 -172 -277.5s-151.667 -232 -201 -318c-82 94.667 -123 177.667 -123 249c0 58.667 13.5 110.167 40.5 154.5s67.333 101 121 170s80.5 116.5 80.5 142.5
c0 48.667 -14.167 83.334 -42.5 104.001s-72.333 41.834 -132 63.501s-104.167 45 -133.5 70s-44 64.833 -44 119.5v57c8 79.333 44.667 119 110 119c57.333 0 128.666 -30.5 213.999 -91.5s161.166 -130.333 227.499 -208s99.5 -134.834 99.5 -171.501z" />
    <glyph glyph-name="ellipsis" unicode="&#x2026;" 
 />
    <glyph glyph-name="Agrave" unicode="&#xc0;" horiz-adv-x="2986" 
d="M1827 1315l569 61l533 865zM516 66c-158.667 -158.667 -291.001 -238.001 -397.001 -238.001c-60 0 -90 30 -90 90c0 8 5.33301 28.667 16 62c41.333 126.667 149.333 253.334 324 380.001c70.667 72 159.334 122.667 266.001 152l328 324
c-32.667 0 -69.5 -1.5 -110.5 -4.5s-68.5 -4.5 -82.5 -4.5c-120 0 -180 24.667 -180 74c0 8 5.33301 28.667 16 62c42.667 72 100.5 144.333 173.5 217s152.833 133.167 239.5 181.5s169 72.5 247 72.5c112 0 168 -15 168 -45c0 -27.333 -37 -41 -111 -41
c-44.667 -3.33301 -83.167 -11.166 -115.5 -23.499s-48.5 -22.5 -48.5 -30.5c0 -18.667 37 -28 111 -28c18 0 75.333 6.66699 172 20l680 590l149.5 119.5l215 171l250.5 191.5c88 65.333 171 124.333 249 177c110.667 68.667 207.667 103 291 103
c47.333 0 85.833 -12.5 115.5 -37.5s44.5 -56.167 44.5 -93.5c0 -49.333 -9.66699 -89 -29 -119l-569 -1012l176 29l155 -29c-99.333 -125.333 -189.333 -275.333 -270 -450l-299 -33l-205 -352c-24.667 -57.333 -37 -90.333 -37 -99c0 -24 12.333 -36 37 -36
c28 0 75.5 20.667 142.5 62s136.833 94.333 209.5 159l91 -115c-170 -168 -321.667 -292 -455 -372s-242.666 -120 -328 -120c-69.333 0 -122.833 22.5 -160.5 67.5s-56.5 99.167 -56.5 162.5c0 35.333 15 92.666 45 171.999l238 442l-799 -28z" />
    <glyph glyph-name="Atilde" unicode="&#xc3;" horiz-adv-x="1151" 
d="M864 1995c-66.667 -14 -131.668 -33.8359 -195.001 -59.5029s-134.666 -58 -213.999 -97s-135.333 -64.833 -168 -77.5c100 -3.33301 181 -16.166 243 -38.499s93 -42.166 93 -59.499c0 -32.667 -87.667 -49 -263 -49c-74 0 -196.667 9.33301 -368 28
c-38.667 0 -58 34.333 -58 103c0 40 9.66699 118 29 234s29 193.667 29 233c0 55.333 53.333 106.5 160 153.5s241.667 87 405 120s334 58.5 512 76.5s332.333 27 463 27c120.667 -5.33301 230.5 -16 329.5 -32s190 -34.333 273 -55l243 -58c79 -18 143.833 -27 194.5 -27
c11.333 0 58 8 140 24c10 0 39.5 6.83301 88.5 20.5s86.167 20.5 111.5 20.5c66 0 99 -38.333 99 -115c-60.667 -142.667 -107.334 -246.667 -140 -312c-32.667 -65.333 -66.334 -113 -101 -143c-34.667 -30 -75 -48.333 -121 -55s-123.333 -10 -232 -10
c-96 17.333 -222.5 55.5 -379.5 114.5s-263.167 97.667 -318.5 116s-123 27.5 -203 27.5c-71.333 0 -141 -12.333 -209 -37c-6.66699 -35.333 -29.834 -97.5 -69.501 -186.5s-96.5 -209.833 -170.5 -362.5l-208.5 -422.5l-141.5 -281.5c35.333 2.66699 80.333 4 135 4
c42 0 74.333 -7.5 97 -22.5s34 -33.5 34 -55.5c0 -69.333 -60.5 -167.666 -181.5 -294.999s-254 -245.833 -399 -355.5s-236.833 -164.5 -275.5 -164.5c-8 8 -25 21.167 -51 39.5s-45.167 35.666 -57.5 51.999s-18.5 37.833 -18.5 64.5c0 54 37 146.667 111 278
c66.667 84 137.334 186 212.001 306s141.167 234.5 199.5 343.5s98.5 191.5 120.5 247.5l75.5 189.5c21 53.667 42.333 111.5 64 173.5s40.667 126.833 57 194.5s24.5 127.834 24.5 180.501z" />
    <glyph glyph-name="Otilde" unicode="&#xd5;" horiz-adv-x="2540" 
d="M459 229c-146 -133.333 -261.999 -200.002 -347.999 -200.002c-63.333 0 -95 32.667 -95 98c0 54 25.333 119.167 76 195.5s127.5 154.333 230.5 234s227.5 148.167 373.5 205.5l688 627l29 798c-140 -33.333 -324.833 -92.166 -554.5 -176.5
c-229.667 -84.333 -392.834 -160.5 -489.501 -228.5c30.667 0 67.334 1.33301 110.001 4s70 4 82 4c65.333 0 98 -8.33301 98 -25c0 -17.333 -71.167 -48.666 -213.5 -93.999s-236.166 -72.666 -281.499 -81.999c-82 -24.667 -130 -37 -144 -37c-51.333 0 -77 27.333 -77 82
c0 57.333 26.167 135.5 78.5 234.5s99.833 176.5 142.5 232.5c50.667 68 164.167 141.333 340.5 220s369.166 144.334 578.499 197c209.333 52.667 387.666 79 534.999 79c92.667 0 166.334 -13.167 221.001 -39.5s82 -63.833 82 -112.5v-4l-57 -659l618 598
c75.333 68 138.333 102 189 102c20.667 0 38 -10.667 52 -32s21 -47.333 21 -78c0 -76 -31.167 -155.167 -93.5 -237.5s-137.5 -123.5 -225.5 -123.5c-2 0 -6.66699 1.33301 -14 4s-12.333 4 -15 4l-561 -549l-61 -909c0 -92.667 30 -139 90 -139
c67.333 0 214.666 86 441.999 258l90 -119c-79.333 -108 -178.5 -203.5 -297.5 -286.5s-231.5 -148.167 -337.5 -195.5s-172.667 -71 -200 -71l-25 -8c-147.333 -0 -221 150.333 -221 451c0 76.667 6.16699 180 18.5 310s18.5 216.333 18.5 259z" />
    <glyph glyph-name="OE" unicode="&#x152;" 
 />
    <glyph glyph-name="oe" unicode="&#x153;" 
 />
    <glyph glyph-name="emdash" unicode="&#x2013;" 
 />
    <glyph glyph-name="endash" unicode="&#x2014;" 
 />
    <glyph glyph-name="quotedblleft" unicode="&#x201c;" horiz-adv-x="213" 
d="M-872 2298h-357v299h1073v-299h-356v-950h-360v950zM680 2003l209 594h508v-1249h-361v864l-266 -864h-180l-303 864v-864h-353v1249h541z" />
    <glyph glyph-name="quotedblright" unicode="&#x201d;" 
 />
    <glyph glyph-name="quoteleft" unicode="&#x2018;" horiz-adv-x="3273" 
d="M3023 541c70.667 -16 106 -61.002 106 -135.002c0 -54 -20.333 -119 -61 -195s-84.334 -143.667 -131 -203c-26 -24.667 -74 -37 -144 -37c-85.333 0 -156.333 22 -213 66c-24 19.333 -36 49.333 -36 90c0 52.667 17 112.334 51 179.001s81 123.834 141 171.501
s127 71.5 201 71.5c6 0 20 -1.33301 42 -4s36.667 -4 44 -4zM1655 7.99805c-21.333 -24.667 -67.666 -37 -138.999 -37c-91.333 0 -165.333 22 -222 66c-24.667 16.667 -37 46.667 -37 90c0 52 17.833 111.5 53.5 178.5s83.667 124.333 144 172s127.166 71.5 200.499 71.5
c8 0 23.333 -1.33301 46 -4s37.334 -4 44.001 -4c68 -15.333 102 -60.333 102 -135c0 -54 -20.333 -119 -61 -195s-84.334 -143.667 -131.001 -203zM45 36.998c-24.667 16 -37.001 45.998 -37.001 89.998c0 52.667 17 112.334 51 179.001s80.833 123.834 140.5 171.501
s125.5 71.5 197.5 71.5c8.66699 0 24.334 -1.33301 47.001 -4s37 -4 43 -4c74 -16.667 111 -61.667 111 -135c0 -52 -21.5 -116.833 -64.5 -194.5s-88.5 -145.5 -136.5 -203.5c-20.667 -24.667 -67 -37 -139 -37c-86 0 -157 22 -213 66z" />
    <glyph glyph-name="quoteright" unicode="&#x2019;" horiz-adv-x="213" 
d="M287 2093c-98.667 11.333 -147.999 63.335 -147.999 156.002c0 52 20.167 107.667 60.5 167s92.833 109.166 157.5 149.5c64.667 40.333 132.667 60.5 204 60.5c90 0 135 -45.333 135 -136c0 -78.667 -35.333 -182.334 -106 -311.001
c-60.667 -95.333 -132.334 -180.666 -215.001 -255.999s-161.334 -113 -236.001 -113c-2.66699 0 -7 1.5 -13 4.5s-11 4.5 -15 4.5c5.33301 11.333 33.333 51.166 84 119.499s81.334 119.833 92.001 154.499z" />
    <glyph glyph-name="divide" unicode="&#xf7;" horiz-adv-x="1765" 
d="M1049 1110c-219.333 -218.667 -391.674 -328.005 -517.007 -328.005c-26.667 0 -51 11 -73 33c-33.333 -63.333 -90.666 -144.333 -171.999 -243s-149.666 -169.334 -204.999 -212.001l-62 152c119.333 86 208.333 174.667 267 266c-68.667 30 -103 76.667 -103 140
c0 74.667 40.5 164.667 121.5 270s163.5 187.333 247.5 246c13.333 14.667 35 28.5 65 41.5s57.333 19.5 82 19.5c52 0 78 -20.333 78 -61c0 -71.333 -57.333 -179.333 -172 -324c6.66699 0 17 -1.33301 31 -4s23 -4 27 -4c78.667 0 140.834 16.833 186.501 50.5
s123.334 97.834 233.001 192.501s186.834 142 231.501 142c66.667 0 121.334 -42.333 164.001 -127c0 -6.66699 1.33301 -19.667 4 -39s4 -33.666 4 -42.999c0 -68 -20.333 -133.167 -61 -195.5s-83 -113.666 -127 -153.999s-115.333 -101.5 -214 -183.5
c-24.667 -24.667 -54 -69 -88 -133s-51 -117.667 -51 -161c0 -60.667 37 -91 111 -91c58.667 0 148.167 40.5 268.5 121.5s210.833 159.5 271.5 235.5l29 -148c-106 -127.333 -209.667 -235.666 -311 -324.999s-194 -155.666 -278 -198.999s-158 -65 -222 -65
c-65.333 0 -121.166 22.333 -167.499 67s-77.833 111 -94.5 199c0 0.666992 -0.666992 3.33398 -2 8.00098s-2 8.66699 -2 12c0 96 60.333 237.333 181 424s227 326.667 319 420z" />
    <glyph glyph-name="ydieresis" unicode="&#xff;" horiz-adv-x="2290" 
d="M1581 606l-650.997 -385.002c-172 -102 -312.333 -179 -421 -231s-197.834 -87.833 -267.501 -107.5s-132.5 -29.5 -188.5 -29.5c-30 7.33301 -45 29 -45 65c0 42.667 26.833 98.834 80.5 168.501s119.167 130.667 196.5 183s150.333 78.5 219 78.5
c57.333 0 103.666 -17.667 138.999 -53l819 356c-60 -27.333 -145.833 -61.5 -257.5 -102.5s-203.167 -61.5 -274.5 -61.5c-4 0 -11.167 1.5 -21.5 4.5s-16.833 4.5 -19.5 4.5c-3.33301 0 -9 -1.5 -17 -4.5s-13.333 -4.5 -16 -4.5c-48 0 -90.667 28 -128 84
s-56 122.333 -56 199c0 86 23 166.667 69 242c111.333 171.333 264.833 299.5 460.5 384.5s386.5 127.5 572.5 127.5c112 0 204.167 -15.667 276.5 -47s108.5 -73 108.5 -125v-37c-35.333 -26.667 -83 -60 -143 -100s-101.333 -60 -124 -60
c-2.66699 0 -8.66699 -1.33301 -18 -4s-15.666 -4 -18.999 -4c-43.333 0 -65 9.66699 -65 29c0 8 4.66699 18 14 30s17 21 23 27c-11.333 5.33301 -33.333 8 -66 8c-101.333 0 -240.833 -52.5 -418.5 -157.5s-312.5 -219.167 -404.5 -342.5c8.66699 -65.333 51 -98 127 -98
c72 0 178.333 32.667 319 98c86 32.667 177 87.167 273 163.5s167.667 136.5 215 180.5c2.66699 6 15 9 37 9c29.333 0 56.5 -17.667 81.5 -53s37.5 -76.333 37.5 -123c0 -49.333 -11 -94.666 -33 -135.999l-242 -561l106 65c67.333 41.333 115.666 73 144.999 95
s61.666 50.667 96.999 86l29 -111c-70.667 -98 -161.5 -189.333 -272.5 -274s-224.833 -127 -341.5 -127c-48 0 -92 8.33301 -132 25c-40.667 31.333 -61 68 -61 110c0 39.333 11 81.833 33 127.5s50.667 96.5 86 152.5s53 88.333 53 97z" />
    <glyph glyph-name="Ydieresis" unicode="&#x178;" horiz-adv-x="2290" 
d="M1581 606l-650.997 -385.002c-172 -102 -312.333 -179 -421 -231s-197.834 -87.833 -267.501 -107.5s-132.5 -29.5 -188.5 -29.5c-30 7.33301 -45 29 -45 65c0 42.667 26.833 98.834 80.5 168.501s119.167 130.667 196.5 183s150.333 78.5 219 78.5
c57.333 0 103.666 -17.667 138.999 -53l819 356c-60 -27.333 -145.833 -61.5 -257.5 -102.5s-203.167 -61.5 -274.5 -61.5c-4 0 -11.167 1.5 -21.5 4.5s-16.833 4.5 -19.5 4.5c-3.33301 0 -9 -1.5 -17 -4.5s-13.333 -4.5 -16 -4.5c-48 0 -90.667 28 -128 84
s-56 122.333 -56 199c0 86 23 166.667 69 242c111.333 171.333 264.833 299.5 460.5 384.5s386.5 127.5 572.5 127.5c112 0 204.167 -15.667 276.5 -47s108.5 -73 108.5 -125v-37c-35.333 -26.667 -83 -60 -143 -100s-101.333 -60 -124 -60
c-2.66699 0 -8.66699 -1.33301 -18 -4s-15.666 -4 -18.999 -4c-43.333 0 -65 9.66699 -65 29c0 8 4.66699 18 14 30s17 21 23 27c-11.333 5.33301 -33.333 8 -66 8c-101.333 0 -240.833 -52.5 -418.5 -157.5s-312.5 -219.167 -404.5 -342.5c8.66699 -65.333 51 -98 127 -98
c72 0 178.333 32.667 319 98c86 32.667 177 87.167 273 163.5s167.667 136.5 215 180.5c2.66699 6 15 9 37 9c29.333 0 56.5 -17.667 81.5 -53s37.5 -76.333 37.5 -123c0 -49.333 -11 -94.666 -33 -135.999l-242 -561l106 65c67.333 41.333 115.666 73 144.999 95
s61.666 50.667 96.999 86l29 -111c-70.667 -98 -161.5 -189.333 -272.5 -274s-224.833 -127 -341.5 -127c-48 0 -92 8.33301 -132 25c-40.667 31.333 -61 68 -61 110c0 39.333 11 81.833 33 127.5s50.667 96.5 86 152.5s53 88.333 53 97z" />
    <glyph glyph-name="fraction" unicode="&#x2044;" horiz-adv-x="1032" 
d="M1855 2957c36 -55.333 54 -122 54 -200c0 -72.667 -16.167 -141.667 -48.5 -207s-85.833 -159 -160.5 -281c-92 -163.333 -224.5 -380.166 -397.5 -650.499l-401 -642c-94.333 -157.667 -185.833 -332.834 -274.5 -525.501c-146 -302 -235 -538.333 -267 -709
c0 -44 -38 -66 -114 -66c-56 0 -106.167 21.667 -150.5 65s-66.5 105 -66.5 185c0 64 21.667 150 65 258c58.667 138 127.5 287.167 206.5 447.5s165.5 327.333 259.5 501l250 446c72.667 123.667 142.667 236.5 210 338.5l289 382.5l310.5 390.5
c97.667 118.667 176.167 207.667 235.5 267z" />
    <glyph glyph-name="currency" unicode="&#x20ac;" 
 />
    <glyph glyph-name="guilsinglleft" unicode="&#x2039;" 
 />
    <glyph glyph-name="guilsinglright" unicode="&#x203a;" 
 />
    <glyph glyph-name="fi" unicode="&#xfb01;" 
 />
    <glyph glyph-name="fl" unicode="&#xfb02;" 
 />
    <glyph glyph-name="daggerdbl" unicode="&#x2021;" 
 />
    <glyph glyph-name="periodcentered" unicode="&#xb7;" horiz-adv-x="1278" 
d="M29 926c-32.667 24.667 -49.002 73.665 -49.002 146.998c0 76 16.5 164.667 49.5 266s62.833 182 89.5 242c58 136.667 148.333 248.667 271 336s264.334 131 425.001 131c90 0 185.667 -15 287 -45c101.333 -31.333 175.833 -87 223.5 -167s71.5 -174.667 71.5 -284
c0 -106.667 -23.167 -218.667 -69.5 -336s-108.5 -221.666 -186.5 -312.999s-160.667 -153.333 -248 -186c-57.333 -24.667 -131 -37 -221 -37c-123.333 0 -249.166 23.333 -377.499 70s-216.833 105.334 -265.5 176.001z" />
    <glyph glyph-name="quotesinglbase" unicode="&#x201a;" 
 />
    <glyph glyph-name="quotedblbase" unicode="&#x201e;" 
 />
    <glyph glyph-name="perthousand" unicode="&#x2030;" 
 />
    <glyph glyph-name="Acircumflex" unicode="&#xc2;" horiz-adv-x="2327" 
d="M1176 451c232 55.333 402.667 134.333 512 237c32.667 43.333 49 74.666 49 93.999c0 54.667 -50.5 98.5 -151.5 131.5s-224.667 59.833 -371 80.5l-395.5 55l-270 -304c-49.333 -54 -74 -103 -74 -147c0 -59.333 40.667 -107.666 122 -144.999s176 -56 284 -56
c84 0 182.333 18 295 54zM1266 1524c234 28 428.498 71.1709 583.498 129.504s278.5 132.5 370.5 222.5c32.667 36 49 71.333 49 106c0 55.333 -38.5 102 -115.5 140s-154.5 57 -232.5 57c-117.333 0 -236.666 -11.333 -357.999 -34s-275.5 -58.167 -462.5 -106.5
s-309.5 -79.166 -367.5 -92.499c19.333 -23.333 29 -48 29 -74c0 -39.333 -30.333 -68.5 -91 -87.5s-158.167 -41.5 -292.5 -67.5s-226.5 -51 -276.5 -75c-72 -35.333 -121 -53 -147 -53c-49.333 0 -74 27.333 -74 82c0 56.667 23.667 130.667 71 222
s108.666 178.333 183.999 260.999c75.333 82.667 153 141.667 233 177c125.333 50.667 272 98.667 440 144s339.667 81.833 515 109.5s334.666 41.5 477.999 41.5c200.667 0 390.167 -32.5 568.5 -97.5s267.5 -181.5 267.5 -349.5
c0 -199.333 -87.167 -361.833 -261.5 -487.5s-378.5 -217.5 -612.5 -275.5s-479.333 -101.333 -736 -130l-61 -57c286.667 -22 520.334 -58.667 701.001 -110s310.334 -111 389.001 -179s118 -139.667 118 -215c0 -112 -67 -225.833 -201 -341.5
s-281.333 -201.167 -442 -256.5c-323.333 -109.333 -602 -164 -836 -164c-139.333 0 -260 17.333 -362 52s-179.833 82.167 -233.5 142.5s-80.5 127.833 -80.5 202.5c0 68.667 27.333 148 82 238l328 483c-86 0 -162.167 14.5 -228.5 43.5s-99.5 63.833 -99.5 104.5
c0 46 54.333 91.833 163 137.5s274.334 77.5 497.001 95.5c24.667 21.333 71 68.666 139 141.999s131.167 135.5 189.5 186.5s132.833 99.167 223.5 144.5s194.667 77.666 312 96.999c0 -34.667 -19.333 -80.334 -58 -137.001s-96 -129.334 -172 -218.001
s-119.333 -139.667 -130 -153z" />
    <glyph glyph-name="Ecircumflex" unicode="&#xca;" horiz-adv-x="2867" 
d="M1929 2212l-265.998 -393.002l1102 540c26.667 10 66.834 26.333 120.5 49c53.667 22.667 98.5 40 134.5 52s67 18 93 18c38 0 57 -20.333 57 -61c0 -27.333 -6.66699 -56 -20 -86c-42.667 -98.667 -99.834 -176.667 -171.5 -234c-71.667 -57.333 -137.5 -86 -197.5 -86
c-10 0 -23.333 3.16699 -40 9.5s-28 10.166 -34 11.499l-1318 -656c-98.667 -50.667 -148 -108 -148 -172c0 -37.333 20.667 -68.666 62 -93.999l1257 -778c48 -15.333 84.5 -42.666 109.5 -81.999s37.5 -100.666 37.5 -183.999c0 -131.333 -49 -197 -147 -197
c-71.333 0 -153.333 26 -246 78l-1396 831l-295 -356c-21.333 -88 -59.833 -164.167 -115.5 -228.5s-116.334 -112.666 -182.001 -144.999s-125.167 -48.5 -178.5 -48.5c-78.667 0 -118 30 -118 90c0 32 17.667 73 53 123l598 750c-44 68 -66 123.667 -66 167
c0 69.333 47 139.666 141 210.999s256 162.333 486 273l365 536c-114.667 -10 -245.334 -42.333 -392.001 -97s-327.334 -131.5 -542.001 -230.5s-378.167 -171.5 -490.5 -217.5s-200.166 -69 -263.499 -69c-62.667 0 -94 30 -94 90l-8 16c0 79.333 21.167 176 63.5 290
s79.833 186.667 112.5 218c18.667 18.667 59.667 49.667 123 93s111 82 143 116c80.667 63.333 147.667 95 201 95c18.667 0 28 -9.66699 28 -29c0 -42 -46.333 -103.333 -139 -184c27.333 10 129 51.667 305 125s336.5 132.666 481.5 178c145 45.333 281.5 72.666 409.5 82
c16 0 36.333 1.33301 61 4s41.334 4 50.001 4c67.333 0 114.666 -11 141.999 -33s62 -63 104 -123c38 -51.333 57 -103.333 57 -156c0 -40.667 -9.66699 -77.334 -29 -110z" />
    <glyph glyph-name="Aacute" unicode="&#xc1;" horiz-adv-x="2290" 
d="M827 1995c-66.667 -14 -131.672 -33.833 -195.005 -59.5s-134.666 -58 -213.999 -97s-135.333 -64.833 -168 -77.5c100 -3.33301 181 -16.166 243 -38.499s93 -42.166 93 -59.499c0 -32.667 -87.333 -49 -262 -49c-74.667 0 -197.667 9.33301 -369 28
c-38 0 -57 34.333 -57 103c0 44 9.5 123 28.5 237s28.5 190.667 28.5 230c0 55.333 53.333 106.5 160 153.5s241.667 87 405 120s334 58.5 512 76.5s332.333 27 463 27c120.667 -5.33301 230.5 -16 329.5 -32s190 -34.333 273 -55l243 -58c79 -18 143.833 -27 194.5 -27
c11.333 0 58 8 140 24c10 0 39.5 6.83301 88.5 20.5s86.167 20.5 111.5 20.5c66 0 99 -38.333 99 -115c-60 -139.333 -107.167 -242.666 -141.5 -310c-34.333 -67.333 -68.666 -115.833 -103 -145.5c-34.333 -29.667 -74.333 -47.834 -120 -54.501s-122.167 -10 -229.5 -10
c-76.667 14 -145.667 31.5 -207 52.5s-142.666 51.167 -243.999 90.5s-185.333 68.333 -252 86.999c-66.667 18.667 -132.667 28 -198 28c-71.333 0 -141 -12.333 -209 -37c-6.66699 -35.333 -29.834 -97.5 -69.501 -186.5s-96.5 -209.833 -170.5 -362.5l-208.5 -422.5
l-141.5 -281.5l209 223.5c114 122.333 206.5 217.5 277.5 285.5s149.333 135 235 201s178.167 127 277.5 183c108.667 60 182.667 90 222 90c44.667 0 99 -30 163 -90c131.333 -130.667 197 -256.334 197 -377.001c0 -80.667 -9.66699 -154.334 -29 -221.001
c-35.333 -124 -70.166 -225.333 -104.5 -304c-34.333 -78.667 -82.166 -174.167 -143.499 -286.5s-101.333 -187.166 -120 -224.499c-37.333 -74 -85.166 -138.833 -143.499 -194.5s-115.666 -98.667 -171.999 -129s-98.833 -45.5 -127.5 -45.5
c-54.667 -5.33301 -136.334 -8 -245.001 -8c-136.667 0 -290.667 15 -462 45s-283.666 45 -336.999 45c-94 0 -189.667 -27.333 -287 -82c-60 60 -90 128.333 -90 205c0 82 24.667 158.333 74 229c66.667 84 137.334 186 212.001 306s141.167 234.5 199.5 343.5
s98.5 191.5 120.5 247.5l75.5 189.5c21 53.667 42.333 111.5 64 173.5s40.667 126.833 57 194.5s24.5 127.834 24.5 180.501zM1495 1110c-92.667 -46 -201.667 -122.331 -327 -228.998s-247 -222.334 -365 -347.001s-208.333 -229 -271 -313c26.667 -18.667 69 -28 127 -28
c86.667 0 196.667 17 330 51s253 75.667 359 125c88 106.667 152.5 197 193.5 271s67 134.167 78 180.5s16.5 90.666 16.5 132.999s2 69.833 6 82.5z" />
    <glyph glyph-name="Edieresis" unicode="&#xcb;" horiz-adv-x="3596" 
d="M3518 2032c-385.333 -514 -642.002 -895.006 -770.002 -1143.01c-136 -234 -204 -402 -204 -504c0 -54.667 24.333 -82 73 -82c50.667 0 120.334 30 209 90c76 48.667 147.333 103.834 214 165.501s139.334 136.334 218 224.001c78.667 87.667 134 147.834 166 180.501
l29 -218c-72 -105.333 -177.5 -233.666 -316.5 -384.999s-285.333 -284 -439 -398s-288.167 -171 -403.5 -171c-65.333 0 -125.333 23.333 -180 70c-82 72.667 -123 161.334 -123 266.001c0 171.333 105 400.666 315 687.999l741 959c57.333 72 86 133.333 86 184
c0 49.333 -27 74 -81 74c-50 0 -116.667 -21.5 -200 -64.5s-178 -111 -284 -204s-218 -212.5 -336 -358.5c-49.333 -65.333 -94.5 -129.333 -135.5 -192l-198.5 -310.5l-234.5 -365c-65 -99 -121.167 -179.833 -168.5 -242.5c-111.333 -93.333 -199.666 -161 -264.999 -203
s-123 -63 -173 -63c-41.333 0 -86.833 14.167 -136.5 42.5s-98 62.333 -145 102l-296.5 256.5c-70.667 44 -154 120.5 -250 229.5s-179.333 226.5 -250 352.5s-106 235 -106 327c0 109.333 47.667 180.333 143 213c142 54.667 247.333 82 316 82
c73.333 0 130.666 -24.333 171.999 -73c65.333 -36.667 128 -88 188 -154s90 -116 90 -150c0 -18.667 -13.667 -28 -41 -28c-24 0 -112.667 28.667 -266 86c11.333 -68.667 50.333 -147.667 117 -237s145.834 -177.166 237.501 -263.499s179.834 -161.166 264.501 -224.499
c10.667 -27.333 31 -41 61 -41c38 0 87.5 27.833 148.5 83.5s124.833 141.167 191.5 256.5c87.333 87.333 177.5 197.666 270.5 330.999l291 438c101 158.667 159.5 246.334 175.5 263.001c325.333 500 638 750 938 750c15.333 0 33.333 -1.5 54 -4.5s35.667 -4.5 45 -4.5
c134.667 -24.667 237.167 -56 307.5 -94s105.5 -92.667 105.5 -164c0 -87.333 -54.667 -211.333 -164 -372z" />
    <glyph glyph-name="Egrave" unicode="&#xc8;" horiz-adv-x="2986" 
d="M1974 1286l-356.498 -335.499l-506 -470c-139 -125.667 -272.833 -237.167 -401.5 -334.5s-218 -146 -268 -146l-12 8c-135.333 0 -237.5 32.5 -306.5 97.5s-103.5 148.5 -103.5 250.5c0 71.333 17.667 150.833 53 238.5s82 168.167 140 241.5l897 1081
c44 48 66 82 66 102c0 14 -15.333 21 -46 21c-69.333 0 -250.666 -64.333 -543.999 -193c-142 -56 -236.833 -101.667 -284.5 -137s-99.167 -93.333 -154.5 -174c65.333 22 142 33 230 33c42.667 0 80.667 -6.16699 114 -18.5s50 -23.833 50 -34.5
c0 -24.667 -39.667 -46.667 -119 -66c-327.333 -72.667 -559.333 -142.334 -696 -209.001l-17.5 -6c-11.667 -4 -21.834 -7.33301 -30.501 -10s-17.334 -4 -26.001 -4c-62.667 0 -94 51.667 -94 155c0 90 21.667 195 65 315s87 196.667 131 230
c41.333 32 122.833 80.667 244.5 146s261.167 136.666 418.5 214l425.5 201.5c126.333 57 212.833 92.5 259.5 106.5c118 30 219 45 303 45c106.667 0 188.667 -25.833 246 -77.5s86 -125.5 86 -221.5v-94c-16.667 -95.333 -80.334 -218.166 -191.001 -368.499
s-255.834 -330.833 -435.501 -541.5s-289.167 -345.667 -328.5 -405c-122.667 -184.667 -184 -300.667 -184 -348c0 -19.333 9.66699 -29 29 -29c64.667 0 205.334 86 422.001 258c142.667 114.667 291.667 246.5 447 395.5l531.5 530.5l418 427
c79.667 80 151.834 146.333 216.5 199c58.667 49.333 110.667 74 156 74c48 0 86.667 -26.167 116 -78.5s44 -110.833 44 -175.5c0 -52.667 -7 -91 -21 -115c-54 -82.667 -123.833 -183.167 -209.5 -301.5l-293 -404.5c-109.667 -151.333 -199.167 -283.833 -268.5 -397.5
s-120.666 -214.167 -154 -301.5c-52 -114.667 -78 -203.334 -78 -266.001c0 -84.667 36.667 -127 110 -127c81.333 0 194.5 46.333 339.5 139s280.5 206 406.5 340l29 -147v-12c0 -49.333 -67 -127.833 -201 -235.5s-281.5 -206.667 -442.5 -297
s-274.5 -135.5 -340.5 -135.5c-262 0 -393 94.333 -393 283c0 69.333 18.167 154.833 54.5 256.5s92.333 221.167 168 358.5s172.167 294 289.5 470z" />
    <glyph glyph-name="Iacute" unicode="&#xcd;" horiz-adv-x="2785" 
d="M983 1110l659.001 708.996c142 138.667 213 242.334 213 311.001c0 40 -12 67.333 -36 82c-11.333 5.33301 -36 8 -74 8c-82.667 0 -208 -23.833 -376 -71.5s-337.667 -101.5 -509 -161.5s-298.333 -106.667 -381 -140c17.333 -5.33301 32 -14.333 44 -27
s18 -22.667 18 -30c0 -28.667 -69.667 -68.334 -209 -119.001c-50.667 -18.667 -96.334 -38 -137.001 -58s-89.834 -45.667 -147.501 -77l-137.5 -74c-77.333 -43.333 -130.666 -65 -159.999 -65c-39.333 0 -69 16.5 -89 49.5s-30 75.167 -30 126.5
c0 80.667 15.833 173.5 47.5 278.5s59.5 165.167 83.5 180.5c136.667 76.667 291.667 150.667 465 222s354.666 135.166 543.999 191.5c189.333 56.333 375.5 100.5 558.5 132.5s352.833 48 509.5 48h98c108.667 0 191.167 -32.667 247.501 -98
c56.333 -65.333 84.5 -146 84.5 -242c0 -76.667 -16 -154.334 -48 -233.001s-77.333 -147.334 -136 -206.001l-590 -651l533 61l655 836c46.667 61.333 106.834 122.333 180.5 183c73.667 60.667 124.167 91 151.5 91c16 0 24 -2.66699 24 -8
c24.667 -43.333 37 -82.666 37 -117.999c0 -64 -52 -172 -156 -324l-532 -660c98 0 183 -6.33301 255 -19s155 -45.667 249 -99l-220 -182.5c-46 -39.667 -95.333 -88.167 -148 -145.5s-98 -118.666 -136 -183.999c-57.333 24.667 -121.666 37 -193 37
c-26.667 0 -56.334 -0.833008 -89.001 -2.5s-58.667 -2.5 -78 -2.5c-44 -44 -89.833 -111.667 -137.5 -203s-71.5 -152 -71.5 -182l57 -237h-37c-20 0 -42.833 -4.16699 -68.5 -12.5s-66.5 -23.166 -122.5 -44.499s-96 -35.666 -120 -42.999s-47.333 -11 -70 -11
c-60 0 -90 42.333 -90 127c0 1.33301 1.33301 8.33301 4 21s4 19.334 4 20.001c0 40.667 5.33301 82 16 124s25.667 83 45 123s46.333 90.333 81 151l96 167l-688 -90l-414 -475c-55.333 -125.333 -127.666 -188 -216.999 -188c-48 0 -93.5 21.167 -136.5 63.5
s-64.5 83.833 -64.5 124.5c0 22.667 8.33301 43.334 25 62.001l332 385l-60 -11.5c-22 -4.33301 -41.167 -7.66602 -57.5 -9.99902s-29.166 -3.5 -38.499 -3.5c-84.667 0 -148.834 17.667 -192.501 53s-65.5 77.666 -65.5 126.999c0 62 26.5 124 79.5 186s108.5 93 166.5 93
c11.333 0 37 -4 77 -12z" />
    <glyph glyph-name="Icircumflex" unicode="&#xce;" horiz-adv-x="2372" 
d="M2064 2093h36.9961c130.667 0 224.834 -36.167 282.5 -108.5c57.667 -72.333 86.5 -167.166 86.5 -284.499c0 -140 -37 -308 -111 -504c-92.667 -210 -229 -407.333 -409 -592s-377.667 -331.5 -593 -440.5s-420.666 -163.5 -615.999 -163.5
c-78.667 0 -166 12.333 -262 37c-143.333 46 -255.666 137 -336.999 273s-122 289.333 -122 460c0 137.333 35.667 290.333 107 459c105.333 200 247.333 386.167 426 558.5s375.834 322.333 591.501 449.999c215.667 127.667 430.834 226.834 645.501 297.5
c94 24.667 158 37 192 37c122.667 0 239 -71 349 -213c24 -33.333 36 -66 36 -98c0 -17.333 -6.83301 -32.666 -20.5 -46c-13.667 -13.333 -33.667 -26.166 -60 -38.5c-26.333 -12.333 -55.833 -24.166 -88.5 -35.5zM835.996 1315
c-100 -85.333 -189.166 -203.166 -267.499 -353.499s-117.5 -241.5 -117.5 -273.5c-14 -82.667 -21 -137.334 -21 -164.001c0 -58 11.833 -107.5 35.5 -148.5s58.167 -65.167 103.5 -72.5c6 0 15 -1.33301 27 -4s21 -4 27 -4c136.667 0 306.167 51.5 508.5 154.5
s382.166 250.833 539.499 443.5c48 50.667 103.333 115.5 166 194.5s118.667 160.333 168 244s78.666 157.167 87.999 220.5c8 54 12 99.333 12 136c0 117.333 -56 176 -168 176c-100.667 0 -232.5 -43.5 -395.5 -130.5s-306.833 -186.833 -431.5 -299.5
c-16.667 -10 -49 -52.167 -97 -126.5s-82.667 -111.5 -104 -111.5c-29.333 0 -53.666 39.667 -72.999 119z" />
    <glyph glyph-name="Idieresis" unicode="&#xcf;" horiz-adv-x="2785" 
d="M2626 963l0.00292969 -222c-72 -106 -174.833 -234.333 -308.5 -385s-274.834 -282.5 -423.501 -395.5s-280.334 -169.5 -395.001 -169.5c-62.667 0 -121.334 23.333 -176.001 70c-68 58.667 -102 139 -102 241c0 82.667 17 173 51 271s75.167 198.333 123.5 301
s73.166 156.667 74.499 162l377 680c19.333 34.667 29 68.667 29 102c0 35.333 -12.833 62.166 -38.5 80.499s-63.667 35.833 -114 52.5s-85.333 30.334 -105 41.001s-29.5 29 -29.5 55c66.667 33.333 144.834 54 234.501 62s208.167 12 355.5 12
c54.667 0 82 -46.333 82 -139c0 -195.333 -125.667 -517.666 -377 -966.999c-79.333 -158.667 -119 -287 -119 -385c0 -74 30 -111 90 -111c36.667 0 95.667 24.667 177 74c78 49.333 149.167 104.166 213.5 164.499s134 133 209 218s132.167 147.5 171.5 187.5zM1073 1995
c-22 -5.33301 -111.166 -40.6699 -267.499 -106.003l-309.5 -128c96.667 -3.33301 176 -16 238 -38s93 -42 93 -60c0 -32.667 -86 -49 -258 -49c-74 0 -196.667 9.33301 -368 28c-46.667 0 -70 34.333 -70 103c0 24 4.5 62.833 13.5 116.5s18 102.834 27 147.501
s16.167 83 21.5 115s8 61.333 8 88c0 71.333 88.167 136 264.5 194s387 103 632 135s458.167 48 639.5 48c121.333 -5.33301 232.333 -16.166 333 -32.5c100.667 -16.333 192.167 -34.666 274.5 -54.999l242 -57.5c79 -18 143.833 -27 194.5 -27
c9.33301 0 22.5 1.33301 39.5 4s32.833 5.66699 47.5 9s32 7 52 11c10 0 39.167 6.83301 87.5 20.5s86.166 20.5 113.499 20.5c62.667 0 94 -38.333 94 -115c-64 -152 -111.333 -258.333 -142 -319s-63.167 -106 -97.5 -136s-74.333 -48.333 -120 -55
s-122.167 -10 -229.5 -10c-80.667 14.667 -150.5 33.334 -209.5 56.001s-130 54 -213 94s-152.5 69.5 -208.5 88.5s-112 28.5 -168 28.5c-60.667 0 -125 -12.333 -193 -37c-12 -63.333 -120.5 -313 -325.5 -749l-530.5 -1107c-75.333 -94 -142.333 -168 -201 -222
s-125.334 -81 -200.001 -81c-65.333 0 -129.666 27.333 -192.999 82c-128 180 -192 305.667 -192 377c0 65.333 39.667 98 119 98c51.333 0 125 -11 221 -33c53.333 0 112.5 33.167 177.5 99.5s130 149.5 195 249.5s143.833 231.333 236.5 394l243 429
c112 199.333 168 326.333 168 381c0 40.667 -19.333 61 -58 61c-34 0 -107.667 -20.333 -221 -61z" />
    </font>
</defs>
</svg>
