<?xml version="1.0" encoding="UTF-8" standalone="no"?>
<svg width="17px" height="17px" viewBox="0 0 17 17" version="1.1" xmlns="http://www.w3.org/2000/svg" xmlns:xlink="http://www.w3.org/1999/xlink">
    <!-- Generator: sketchtool 3.8.3 (29802) - http://www.bohemiancoding.com/sketch -->
    <title>786E24D7-9236-4474-8E8A-3AE426C736EB</title>
    <desc>Created with sketchtool.</desc>
    <defs></defs>
    <g id="Page-1" stroke="none" stroke-width="1" fill="none" fill-rule="evenodd">
        <g id="001_new_head" transform="translate(-954.000000, -23.000000)" fill="#0085CF">
            <g id="currency" transform="translate(954.000000, 21.000000)">
                <g id="Group-7" transform="translate(0.000000, 2.000000)">
                    <path d="M8.00000074,11.4749723 C7.22601509,11.3491982 6.4520346,10.995521 5.67804502,10.4139356 L4.75743958,11.8199512 C5.30980561,12.2551487 5.92214158,12.5885161 6.59446589,12.8200635 C7.06641654,12.9826025 7.53492562,13.088092 8.00000001,13.1365332 L8,15 L9,15 L9,13.1526407 C9.80362417,13.093201 10.4747431,12.8540166 11.013372,12.435083 C11.6410606,11.9468807 11.9549003,11.2452748 11.9549003,10.3302442 C11.9549003,10.0122153 11.8963169,9.71929833 11.7791483,9.4514845 C11.6619798,9.18367067 11.5197058,8.96189067 11.3523222,8.78613785 C11.1849385,8.61038502 10.9659482,8.44579357 10.6953446,8.29235857 C10.4247411,8.13892356 10.1764591,8.01757224 9.95049116,7.92830096 C9.72452324,7.83902969 9.45531858,7.74697006 9.14286911,7.65211933 C9.12613075,7.64653988 9.09683905,7.63817082 9.05499314,7.62701191 C9.03328296,7.62122253 9.01495196,7.61618408 9,7.61189654 L9,5.50283494 C9.59517449,5.61381163 10.2370031,5.87830506 10.925496,6.2963186 L11.7456718,4.8233499 C11.2602592,4.49974152 10.7246396,4.24727498 10.1387968,4.0659427 C9.75315149,3.94657629 9.37355419,3.8664984 9,3.82570825 L9,2 L8,2 L8,3.81238099 C7.26031459,3.8786495 6.63279416,4.12357709 6.11742489,4.54716827 C5.50647459,5.0493192 5.20100402,5.71884373 5.20100402,6.55576195 C5.20100402,6.89610869 5.25958742,7.20436894 5.37675597,7.48055195 C5.49392452,7.75673497 5.63619848,7.9826995 5.80358212,8.15845232 C5.97096577,8.33420515 6.19135093,8.49879659 6.46474421,8.6522316 C6.73813749,8.80566661 6.98641951,8.9228334 7.2095977,9.00373549 C7.42589852,9.08214454 7.68936344,9.16710345 7.99999994,9.25861463 L8,11.4749723 L8.00000074,11.4749723 Z M9,11.5044967 C9.27327679,11.4677295 9.4980454,11.3859705 9.67430953,11.2592188 C9.92259526,11.0806763 10.0467363,10.8323942 10.0467363,10.5143653 C10.0467363,10.3860379 10.0146549,10.2702659 9.95049116,10.167046 C9.88632743,10.0638261 9.80263686,9.97595099 9.69941695,9.90341808 C9.59619703,9.83088517 9.46508181,9.75974819 9.30606735,9.690005 C9.20461215,9.64550711 9.10259012,9.60498429 9,9.56843607 L9,11.5044967 L9,11.5044967 Z M8,5.47189316 C7.77600379,5.50999092 7.58925437,5.58533464 7.43974906,5.69792506 C7.21378114,5.86809844 7.10079888,6.09545781 7.10079888,6.38001 C7.10079888,6.48044019 7.12032667,6.57389465 7.15938286,6.6603762 C7.19843904,6.74685775 7.26957602,6.82775863 7.37279594,6.90308127 C7.47601585,6.97840391 7.56947031,7.04256668 7.65316214,7.0955715 C7.72884835,7.1435061 7.84445999,7.19828458 8,7.25990832 L8,5.47189316 L8,5.47189316 Z M8.5,17 C13.1944204,17 17,13.1944204 17,8.5 C17,3.80557963 13.1944204,0 8.5,0 C3.80557963,0 0,3.80557963 0,8.5 C0,13.1944204 3.80557963,17 8.5,17 L8.5,17 Z" id="dollar"></path>
                </g>
            </g>
        </g>
    </g>
</svg>