<?xml version="1.0" encoding="UTF-8"?>
<svg width="24px" height="24px" viewBox="0 0 24 24" version="1.1" xmlns="http://www.w3.org/2000/svg" xmlns:xlink="http://www.w3.org/1999/xlink">
    <!-- Generator: sketchtool 40.1 (33804) - http://www.bohemiancoding.com/sketch -->
    <title>F20E7992-319A-436D-929D-E813C31F682B</title>
    <desc>Created with sketchtool.</desc>
    <defs></defs>
    <g id="Page-1" stroke="none" stroke-width="1" fill="none" fill-rule="evenodd">
        <g id="001_new_head_hot" transform="translate(-1236.000000, -97.000000)" fill="#FFFFFF">
            <path d="M1236,106 C1236,101.029437 1240.02944,97 1245,97 C1249.97056,97 1254,101.029437 1254,106 C1254,108.058384 1253.30899,109.955374 1252.14628,111.471646 C1256.30652,115.459839 1259.45361,118.608521 1259.45361,118.608521 L1257.69067,120.339722 C1257.69067,120.339722 1254.78467,117.563354 1250.39784,113.202282 C1248.89402,114.33114 1247.02512,115 1245,115 C1240.02944,115 1236,110.970563 1236,106 Z M1252,106 C1252,102.134007 1248.86599,99 1245,99 C1241.13401,99 1238,102.134007 1238,106 C1238,109.865993 1241.13401,113 1245,113 C1248.86599,113 1252,109.865993 1252,106 Z" id="Combined-Shape"></path>
        </g>
    </g>
</svg>