<?xml version="1.0" encoding="UTF-8" standalone="no"?>
<svg width="17px" height="17px" viewBox="0 0 17 17" version="1.1" xmlns="http://www.w3.org/2000/svg" xmlns:xlink="http://www.w3.org/1999/xlink">
    <!-- Generator: sketchtool 3.8.3 (29802) - http://www.bohemiancoding.com/sketch -->
    <title>7A54C734-5C58-4FF8-A1BF-18E0E58A3643</title>
    <desc>Created with sketchtool.</desc>
    <defs></defs>
    <g id="Page-1" stroke="none" stroke-width="1" fill="none" fill-rule="evenodd">
        <g id="001_new_head" transform="translate(-1032.000000, -23.000000)" fill="#0085CF">
            <g id="currency" transform="translate(954.000000, 21.000000)">
                <g id="Group-7-Copy" transform="translate(78.000000, 2.000000)">
                    <path d="M3.82790865,9 C3.81159451,8.83251049 3.80343747,8.66218834 3.80343747,8.48903336 C3.80343747,8.32363438 3.81107728,8.16062331 3.82635696,8 L3,8 L3,7 L4.02992654,7 C4.12521925,6.70164407 4.25058215,6.41268465 4.40601557,6.13312036 C4.80773632,5.41058097 5.36985796,4.8345109 6.09239735,4.40489288 C6.81493675,3.97527487 7.61697134,3.76046908 8.49852519,3.76046908 C9.30754614,3.76046908 10.000783,3.89437399 10.5782566,4.16218781 C11.1557301,4.43000164 11.6704271,4.81497825 12.122363,5.31712918 L10.8335153,6.70640647 C10.4820097,6.33816246 10.1249299,6.05779906 9.76226538,5.86530787 C9.39960082,5.67281668 8.97277893,5.57657253 8.48178691,5.57657253 C7.73413997,5.57657253 7.11343494,5.85833077 6.61965319,6.4218557 C6.46200157,6.60177451 6.32951734,6.79448905 6.22220028,7 L9,7 L9,8 L5.91062789,8 C5.88953212,8.15764741 5.87898427,8.32065847 5.87898427,8.48903336 C5.87898427,8.66528186 5.89077143,8.835604 5.91434581,9 L9,9 L9,10 L6.24165118,10 C6.35120181,10.2006701 6.48557154,10.3888633 6.64476061,10.5645802 C7.15528072,11.1281051 7.80388261,11.4098633 8.59058574,11.4098633 C9.04810103,11.4098633 9.46376418,11.3122243 9.83758765,11.1169434 C10.2114111,10.9216625 10.5768599,10.6399043 10.933945,10.2716603 L12.1893161,11.510293 C11.6983241,12.062659 11.1640993,12.4839016 10.5866257,12.7740332 C10.0091521,13.0641649 9.30754622,13.2092285 8.48178691,13.2092285 C7.60023306,13.2092285 6.80098815,12.9972124 6.08402821,12.5731738 C5.36706827,12.1491353 4.80773632,11.5772497 4.40601557,10.8575001 C4.25218772,10.5818918 4.12781237,10.2960589 4.03288918,10 L3,10 L3,9 L3.82790865,9 L3.82790865,9 Z M8.5,17 C13.1944204,17 17,13.1944204 17,8.5 C17,3.80557963 13.1944204,0 8.5,0 C3.80557963,0 0,3.80557963 0,8.5 C0,13.1944204 3.80557963,17 8.5,17 L8.5,17 Z" id="euro"></path>
                </g>
            </g>
        </g>
    </g>
</svg>