<svg xmlns="http://www.w3.org/2000/svg" viewBox="999 1114 13.889 24"><defs><style>.a{fill:#abd71e;}</style></defs><g transform="translate(955.169 1114)"><path class="a" d="M54.975.046a1.013,1.013,0,0,1,1.254.575,6.727,6.727,0,0,1,1.487,2.562.5.5,0,0,1-.263.5,3.275,3.275,0,0,0-.775.714,2.713,2.713,0,0,1-2.023.9s-.173-.019-.538.827a10.388,10.388,0,0,1-1.063,1.582,6.93,6.93,0,0,0-.612,1.345,4.332,4.332,0,0,0-.044,2.169s.6,1.412.758,2.039a5.032,5.032,0,0,1,.148,2.042c-.013.115-.091.565-.12.831a4.155,4.155,0,0,0,.117,1.528,3.857,3.857,0,0,1,.677,1.558c.119.874-.133,2.139-.036,2.9a1.738,1.738,0,0,0,1.064,1.423s.776.188.428.451a4.711,4.711,0,0,1-1.419-.159s-.894.071-1.011-.261a1.343,1.343,0,0,1,.1-.471,5.579,5.579,0,0,0-.837-2.156c-.462-.617-.562-.874-.327-3.087a3.557,3.557,0,0,1-1.161-2.127c-.126-.49-.321-1.335-.478-1.963a10.249,10.249,0,0,0-1.025,3.533,11.273,11.273,0,0,1,.6,1.672,3.983,3.983,0,0,1-.118,1.586,6.371,6.371,0,0,0,.312,2.369s.29.783-.272.765c0,0-.972-.122-1.283.105a5.456,5.456,0,0,1-1.34.034s-.37-.138.252-.417c0,0,.662-.018.893-.435a3.186,3.186,0,0,1,.388-.4,24.3,24.3,0,0,1-.8-2.49c-.15-.567-.251-1.874-.343-2.451a14.182,14.182,0,0,0,.017-1.555,4.686,4.686,0,0,1-.04-3.866s.4-.937.622-1.464a5.055,5.055,0,0,0,0-3.083,4.154,4.154,0,0,1-.7-1.845s.079-.591-.875-.574c0,0-.718.157-1.9-.943l-.7-.521s-.37-.183.017-1.2A11.42,11.42,0,0,1,45.039.936l.252-.525s.224-.583,1.186-.329c0,0,.553.079.465.408,0,0,.136,1.035-.193.905a.433.433,0,0,1-.194-.3s-.486-.024-.594-.165a5.234,5.234,0,0,1-.378.932A5.524,5.524,0,0,1,45.6,3.224a1.3,1.3,0,0,1,1.653.393s1.243-.374,1.739.3c0,0,.846.638.98-.131l-.018-.463a2.4,2.4,0,0,1-.146-.479s-.214.131-.283-.445c0,0-.125-.375.137-.314A1.056,1.056,0,0,1,50.42.628a1.119,1.119,0,0,1,1.418,1.341s.564-.132,0,.853c0,0-.167-.038-.136.037.02.044.05.514.05.514s.038.74.679.618c0,0,1.145-.8,1.7-.349a1.438,1.438,0,0,1,1.711-.434.36.36,0,0,0,.4-.218,2.071,2.071,0,0,1-.466-1.855s-.048-.479-.264-.367L55.3.809s-.047.351-.679.318c0,0,.022.122-.008.147a.683.683,0,0,1-.545,0A.653.653,0,0,1,54.375.2Z" transform="translate(0 0)"/></g></svg>