<?xml version="1.0" encoding="UTF-8"?>
<svg width="102px" height="102px" viewBox="0 0 102 102" version="1.1" xmlns="http://www.w3.org/2000/svg" xmlns:xlink="http://www.w3.org/1999/xlink">
    <!-- Generator: Sketch 54.1 (76490) - https://sketchapp.com -->
    <title>a14-1</title>
    <desc>Created with Sketch.</desc>
    <defs>
        <linearGradient x1="76.260693%" y1="11.2327284%" x2="22.3691856%" y2="89.6824494%" id="linearGradient-1">
            <stop stop-color="#FAE857" offset="0%"></stop>
            <stop stop-color="#F2CD2C" offset="100%"></stop>
        </linearGradient>
    </defs>
    <g id="Design" stroke="none" stroke-width="1" fill="none" fill-rule="evenodd">
        <g id="cpa-97_design" transform="translate(-192.000000, -8468.000000)">
            <g id="✅-art14" transform="translate(0.000000, 8169.000000)">
                <g id="content" transform="translate(160.000000, 267.000000)">
                    <g id="1">
                        <g id="Group-11" transform="translate(32.000000, 32.000000)">
                            <g id="a14-1">
                                <circle id="Oval" fill="url(#linearGradient-1)" cx="51" cy="51" r="51"></circle>
                                <path d="M27.648,83 L25.248,83 L22.336,79.368 L22.336,83 L20.272,83 L20.272,75 L22.336,75 L22.336,78.52 L25.088,75 L27.552,75 L24.336,78.952 L27.648,83 Z M34.752,75 L36.816,75 L36.816,83 L34.752,83 L34.752,82.056 C34.1333302,82.8346706 33.2640056,83.224 32.144,83.224 C31.077328,83.224 30.1626705,82.8160041 29.4,82 C28.6373295,81.1839959 28.256,80.1840059 28.256,79 C28.256,77.8159941 28.6373295,76.8160041 29.4,76 C30.1626705,75.1839959 31.077328,74.776 32.144,74.776 C33.2640056,74.776 34.1333302,75.1653294 34.752,75.944 L34.752,75 Z M30.944,80.632 C31.3600021,81.0480021 31.8879968,81.256 32.528,81.256 C33.1680032,81.256 33.6986646,81.0453354 34.12,80.624 C34.5413354,80.2026646 34.752,79.6613366 34.752,79 C34.752,78.3386634 34.5413354,77.7973354 34.12,77.376 C33.6986646,76.9546646 33.1680032,76.744 32.528,76.744 C31.8879968,76.744 31.3600021,76.9546646 30.944,77.376 C30.5279979,77.7973354 30.32,78.3386634 30.32,79 C30.32,79.6613366 30.5279979,80.2053312 30.944,80.632 Z M46,75 L46,83 L43.936,83 L43.936,76.936 L40.752,76.936 L40.752,83 L38.688,83 L38.688,75 L46,75 Z M51.696,83.224 C50.4906606,83.224 49.4853374,82.8186707 48.68,82.008 C47.8746626,81.1973293 47.472,80.1946726 47.472,79 C47.472,77.8053274 47.8746626,76.8026707 48.68,75.992 C49.4853374,75.1813293 50.4906606,74.776 51.696,74.776 C52.4746706,74.776 53.1839968,74.9626648 53.824,75.336 C54.4640032,75.7093352 54.9493317,76.2106635 55.28,76.84 L53.504,77.88 C53.3439992,77.5493317 53.101335,77.288001 52.776,77.096 C52.450665,76.903999 52.0853354,76.808 51.68,76.808 C51.0613302,76.808 50.5493354,77.0133313 50.144,77.424 C49.7386646,77.8346687 49.536,78.3599968 49.536,79 C49.536,79.6293365 49.7386646,80.1493313 50.144,80.56 C50.5493354,80.9706687 51.0613302,81.176 51.68,81.176 C52.0960021,81.176 52.466665,81.0826676 52.792,80.896 C53.117335,80.7093324 53.3599992,80.4506683 53.52,80.12 L55.312,81.144 C54.9599982,81.7733365 54.4640032,82.2773314 53.824,82.656 C53.1839968,83.0346686 52.4746706,83.224 51.696,83.224 Z M61.68,75 L63.888,75 L60.976,83 C60.1653293,85.2506779 58.7573434,86.3173339 56.752,86.2 L56.752,84.28 C57.2960027,84.2906667 57.7253318,84.1893344 58.04,83.976 C58.3546682,83.7626656 58.607999,83.4053358 58.8,82.904 L55.568,75 L57.76,75 L59.904,80.376 L61.68,75 Z M71.728,75 L71.728,83 L69.664,83 L69.664,76.984 L67.456,76.984 L67.456,79.656 C67.456,82.130679 66.3306779,83.2453346 64.08,83 L64.08,81.064 C64.5066688,81.1706672 64.8319989,81.0986679 65.056,80.848 C65.2800011,80.5973321 65.392,80.1626698 65.392,79.544 L65.392,75 L71.728,75 Z M79.68,75 L81.744,75 L81.744,83 L79.68,83 L79.68,82.056 C79.0613302,82.8346706 78.1920056,83.224 77.072,83.224 C76.005328,83.224 75.0906705,82.8160041 74.328,82 C73.5653295,81.1839959 73.184,80.1840059 73.184,79 C73.184,77.8159941 73.5653295,76.8160041 74.328,76 C75.0906705,75.1839959 76.005328,74.776 77.072,74.776 C78.1920056,74.776 79.0613302,75.1653294 79.68,75.944 L79.68,75 Z M75.872,80.632 C76.2880021,81.0480021 76.8159968,81.256 77.456,81.256 C78.0960032,81.256 78.6266646,81.0453354 79.048,80.624 C79.4693354,80.2026646 79.68,79.6613366 79.68,79 C79.68,78.3386634 79.4693354,77.7973354 79.048,77.376 C78.6266646,76.9546646 78.0960032,76.744 77.456,76.744 C76.8159968,76.744 76.2880021,76.9546646 75.872,77.376 C75.4559979,77.7973354 75.248,78.3386634 75.248,79 C75.248,79.6613366 75.4559979,80.2053312 75.872,80.632 Z" id="капсула" fill="#000000" fill-rule="nonzero"></path>
                                <polygon id="1" fill="#000000" fill-rule="nonzero" points="49.09 20 56.29 20 56.29 62 48.01 62 48.01 28.76 40.09 30.98 38.05 23.9"></polygon>
                            </g>
                        </g>
                    </g>
                </g>
            </g>
        </g>
    </g>
</svg>