<?xml version="1.0" encoding="UTF-8"?>
<svg width="102px" height="102px" viewBox="0 0 102 102" version="1.1" xmlns="http://www.w3.org/2000/svg" xmlns:xlink="http://www.w3.org/1999/xlink">
    <!-- Generator: Sketch 54.1 (76490) - https://sketchapp.com -->
    <title>a16-1</title>
    <desc>Created with Sketch.</desc>
    <g id="Design" stroke="none" stroke-width="1" fill="none" fill-rule="evenodd">
        <g id="cpa-97_design" transform="translate(-237.000000, -9371.000000)">
            <g id="✅-art16" transform="translate(0.000000, 9064.000000)">
                <g id="content" transform="translate(160.000000, 267.000000)">
                    <g id="1">
                        <g id="a16-1" transform="translate(77.000000, 40.000000)">
                            <circle id="Oval" fill="#DAF7FF" cx="51" cy="51" r="51"></circle>
                            <g id="ecommerce" transform="translate(32.000000, 20.000000)" fill="#000000" fill-rule="nonzero">
                                <path d="M13.2530697,35.7757813 C13.105601,35.6303906 12.9009375,35.546875 12.6923077,35.546875 C12.4836779,35.546875 12.2790144,35.6303906 12.1314663,35.7757813 C11.9839183,35.9211719 11.8990385,36.1226562 11.8990385,36.328125 C11.8990385,36.5335938 11.9838389,36.7351562 12.1314663,36.8803906 C12.2790144,37.0257031 12.4836779,37.109375 12.6923077,37.109375 C12.9009375,37.109375 13.105601,37.0257813 13.2530697,36.8803906 C13.4006971,36.7351562 13.4855769,36.5335938 13.4855769,36.328125 C13.4855769,36.1226562 13.4006971,35.9210938 13.2530697,35.7757813 Z" id="Path"></path>
                                <path d="M23.9079447,2.17945312 L18.9285937,2.17945312 C18.4905505,2.17945312 18.1353245,2.52921875 18.1353245,2.96070312 C18.1353245,3.3921875 18.4905505,3.74195312 18.9285937,3.74195312 L23.9079447,3.74195312 C24.345988,3.74195312 24.7012139,3.3921875 24.7012139,2.96070312 C24.7012139,2.52921875 24.345988,2.17945312 23.9079447,2.17945312 Z" id="Path"></path>
                                <path d="M32.2067308,17.65625 C32.644774,17.65625 33,17.3064844 33,16.875 L33,2.82453125 C33,1.26703125 31.7133966,0 30.1320144,0 L12.704524,0 C11.1231418,0 9.83653846,1.26703125 9.83653846,2.82453125 L9.83653846,8.2190625 C7.54676683,10.0477344 5.65902404,12.3796094 4.36504327,14.9873438 C3.01370913,17.7107031 2.29944952,20.7524219 2.29944952,23.7835938 L2.29944952,31.953125 L1.58653846,31.953125 C0.711721154,31.953125 0,32.6540625 0,33.515625 L0,39.21875 C0,39.6501563 0.355225962,40 0.793269231,40 C1.2313125,40 1.58653846,39.6501563 1.58653846,39.21875 L1.58653846,33.515625 L15.6616731,33.515625 L15.6616731,39.21875 C15.6616731,39.6501563 16.016899,40 16.4549423,40 C16.8929856,40 17.2482115,39.6501563 17.2482115,39.21875 L17.2482115,35.78125 L30.1320144,35.78125 C31.7133966,35.78125 33,34.5141406 33,32.9567188 L33,23.3694531 C33,22.9380469 32.644774,22.5882031 32.2067308,22.5882031 C31.7686875,22.5882031 31.4134615,22.9380469 31.4134615,23.3694531 L31.4134615,29.140625 L19.5202933,29.140625 L22.0431274,25.6395312 C22.6449014,24.8044531 22.7223245,23.7205469 22.2450938,22.8107031 C21.767863,21.9008594 20.8255385,21.335625 19.7857212,21.335625 C19.1940216,21.335625 18.6067644,21.5273438 18.1319928,21.8755469 L13.121863,25.5514844 C12.9395697,25.6852344 12.7138846,25.7589062 12.4865337,25.7589062 C11.9000697,25.7589062 11.4230769,25.2890625 11.4230769,24.7115625 L11.4230769,23.75 L11.4230769,5.94078125 L31.4134615,5.94078125 L31.4134615,16.875 C31.4134615,17.3064844 31.7686875,17.65625 32.2067308,17.65625 Z M31.4134615,30.703125 L31.4134615,32.9567187 L31.4134615,32.9567187 C31.4134615,33.6525781 30.8385793,34.21875 30.1320144,34.21875 L17.2482115,34.21875 L17.2482115,33.515625 C17.2482115,33.0027344 16.9948413,32.548125 16.6061394,32.263125 C17.2666947,31.838125 17.8638678,31.3133594 18.372274,30.7015625 C18.3828245,30.7019531 18.3932163,30.703125 18.4038462,30.703125 L31.4134615,30.703125 Z M12.4865337,27.3214062 C13.0531659,27.3214062 13.6153558,27.1378125 14.0697404,26.8045313 L19.0797909,23.1285938 C19.2824712,22.98 19.5331442,22.898125 19.7856418,22.898125 C20.2362187,22.898125 20.628649,23.1335156 20.835375,23.5278125 C21.042101,23.9220313 21.0098942,24.3733594 20.7491466,24.7352344 L17.4016298,29.3808594 C16.2409976,30.9914844 14.3507957,31.953125 12.3454111,31.953125 L3.88598798,31.953125 L3.88598798,23.7835938 C3.88598798,18.6033594 6.0357476,13.7699219 9.83653846,10.2854687 L9.83653846,23.75 L9.83653846,24.7115625 C9.83653846,26.150625 11.0253317,27.3214062 12.4865337,27.3214062 Z M11.4230769,4.37828125 L11.4230769,2.82453125 C11.4230769,2.12867188 11.9979591,1.5625 12.704524,1.5625 L30.1319351,1.5625 C30.8385793,1.5625 31.4134615,2.12867188 31.4134615,2.82453125 L31.4134615,4.37828125 L11.4230769,4.37828125 Z" id="Shape"></path>
                                <path d="M21.9790312,31.8421875 C21.8315625,31.696875 21.626899,31.6132031 21.4182692,31.6132031 C21.2096394,31.6132031 21.004976,31.6967969 20.8574279,31.8421875 C20.7098798,31.9874219 20.625,32.1889844 20.625,32.3944531 C20.625,32.6007812 20.7098005,32.8014844 20.8574279,32.9467969 C21.004976,33.0929687 21.2096394,33.1757031 21.4182692,33.1757031 C21.626899,33.1757031 21.8315625,33.0928906 21.9790312,32.9467969 C22.1265793,32.8014844 22.2115385,32.6007031 22.2115385,32.3944531 C22.2115385,32.1889844 22.1266587,31.9874219 21.9790312,31.8421875 Z" id="Path"></path>
                                <path d="M27.3967428,12.4052344 C27.0630938,12.0021094 26.5688077,11.7708594 26.0407284,11.7708594 L23.8731202,11.7708594 L23.2014591,10.625 C22.9824375,10.2513281 22.497274,10.1233594 22.1178534,10.3390625 C21.7384327,10.5547656 21.6084159,11.0325781 21.8275168,11.40625 L22.0412236,11.7708594 L20.7953942,11.7708594 L21.009101,11.40625 C21.2282019,11.0325781 21.0981851,10.5547656 20.7187644,10.3390625 C20.3391851,10.1232813 19.8543389,10.2513281 19.6351587,10.625 L18.9634183,11.7708594 L16.7958101,11.7708594 C16.2677308,11.7708594 15.7734447,12.0020313 15.4397957,12.4052344 C15.1061466,12.8084375 14.9758125,13.3317188 15.0822692,13.8411719 L16.1258149,18.8330469 C16.2925601,19.63 17.0131659,20.2083594 17.8392764,20.2083594 L24.997262,20.2083594 C25.8233726,20.2083594 26.5439784,19.63 26.7108029,18.8329688 L27.7542692,13.8411719 C27.860726,13.3317188 27.7303918,12.8083594 27.3967428,12.4052344 Z M26.2003341,13.5260937 L25.1569471,18.5177344 C25.141399,18.5920312 25.0742885,18.6459375 24.9973413,18.6459375 L17.8393558,18.6459375 C17.7624087,18.6459375 17.6953774,18.5920312 17.6798293,18.5178906 L16.636363,13.5261719 C16.6234327,13.4644531 16.6473894,13.4194531 16.669601,13.3925 C16.6918918,13.3655469 16.7319519,13.3334375 16.7958894,13.3334375 L18.0475096,13.3334375 L17.5971707,14.1016406 C17.3780697,14.4753125 17.5080865,14.953125 17.8875072,15.1688281 C18.0124471,15.2398437 18.1488101,15.2735937 18.2833486,15.2735937 C18.5575024,15.2735937 18.8241202,15.1335156 18.971113,14.8828906 L19.8794856,13.3334375 L22.9572115,13.3334375 L22.9572115,13.3333594 L23.8655841,14.8828125 C24.0125769,15.1334375 24.2791154,15.2735156 24.5533486,15.2735156 C24.687887,15.2735156 24.8243293,15.2397656 24.9491899,15.16875 C25.3286106,14.9530469 25.4586274,14.4752344 25.2395264,14.1015625 L24.7891875,13.3333594 L26.0408077,13.3333594 C26.1047452,13.3333594 26.1448053,13.3654687 26.1670962,13.3924219 C26.1893077,13.419375 26.2132644,13.4644531 26.2003341,13.5260937 Z" id="Shape"></path>
                                <path d="M32.7674928,19.4476563 C32.620024,19.3023437 32.4153606,19.21875 32.2067308,19.21875 C31.998101,19.21875 31.7934375,19.3023437 31.6458894,19.4476563 C31.4983413,19.5929688 31.4134615,19.7945312 31.4134615,20 C31.4134615,20.2054687 31.498262,20.4070312 31.6458894,20.5522656 C31.7934375,20.6975781 31.998101,20.78125 32.2067308,20.78125 C32.4153606,20.78125 32.620024,20.6976563 32.7674928,20.5522656 C32.9151202,20.4070312 33,20.2054687 33,20 C33,19.7945312 32.9151202,19.5929688 32.7674928,19.4476563 Z" id="Path"></path>
                            </g>
                            <path d="M30.032,76.208 C31.098672,76.7733362 31.632,77.6586606 31.632,78.864 C31.632,79.8666717 31.2533371,80.6773302 30.496,81.296 C29.7386629,81.9146698 28.7626726,82.224 27.568,82.224 C25.4879896,82.224 24.0960035,81.3440088 23.392,79.584 L25.296,78.512 C25.637335,79.6000054 26.3946608,80.144 27.568,80.144 C28.176003,80.144 28.6399984,80.0160013 28.96,79.76 C29.2800016,79.5039987 29.44,79.1573355 29.44,78.72 C29.44,78.2826645 29.2826682,77.9360013 28.968,77.68 C28.6533318,77.4239987 28.2026696,77.296 27.616,77.296 L26.224,77.296 L26.224,75.328 L27.28,75.328 C27.8346694,75.328 28.2666651,75.2080012 28.576,74.968 C28.8853349,74.7279988 29.04,74.4000021 29.04,73.984 C29.04,73.5679979 28.906668,73.2400012 28.64,73 C28.373332,72.7599988 27.9786693,72.64 27.456,72.64 C26.4959952,72.64 25.8240019,73.1093286 25.44,74.048 L23.568,72.96 C24.3253371,71.3706587 25.6213242,70.576 27.456,70.576 C28.5653389,70.576 29.4719965,70.8746637 30.176,71.472 C30.8800035,72.0693363 31.232,72.8586618 31.232,73.84 C31.232,74.8426717 30.832004,75.6319971 30.032,76.208 Z M39.056,74 L41.12,74 L41.12,82 L39.056,82 L39.056,81.056 C38.4373302,81.8346706 37.5680056,82.224 36.448,82.224 C35.381328,82.224 34.4666705,81.8160041 33.704,81 C32.9413295,80.1839959 32.56,79.1840059 32.56,78 C32.56,76.8159941 32.9413295,75.8160041 33.704,75 C34.4666705,74.1839959 35.381328,73.776 36.448,73.776 C37.5680056,73.776 38.4373302,74.1653294 39.056,74.944 L39.056,74 Z M35.248,79.632 C35.6640021,80.0480021 36.1919968,80.256 36.832,80.256 C37.4720032,80.256 38.0026646,80.0453354 38.424,79.624 C38.8453354,79.2026646 39.056,78.6613366 39.056,78 C39.056,77.3386634 38.8453354,76.7973354 38.424,76.376 C38.0026646,75.9546646 37.4720032,75.744 36.832,75.744 C36.1919968,75.744 35.6640021,75.9546646 35.248,76.376 C34.8319979,76.7973354 34.624,77.3386634 34.624,78 C34.624,78.6613366 34.8319979,79.2053312 35.248,79.632 Z M49.408,74 L49.408,82 L47.392,82 L47.392,79.504 L46.672,79.504 L44.832,82 L42.448,82 L44.448,79.264 C43.9359974,79.0506656 43.5280015,78.7120023 43.224,78.248 C42.9199985,77.7839977 42.768,77.285336 42.768,76.752 C42.768,76.0053296 43.034664,75.3600027 43.568,74.816 C44.101336,74.2719973 44.7999957,74 45.664,74 L49.408,74 Z M45.824,75.84 C45.5253318,75.84 45.2773343,75.9279991 45.08,76.104 C44.8826657,76.2800009 44.784,76.5173318 44.784,76.816 C44.784,77.1040014 44.8826657,77.3333325 45.08,77.504 C45.2773343,77.6746675 45.5253318,77.76 45.824,77.76 L47.392,77.76 L47.392,75.84 L45.824,75.84 Z M57.056,77.904 C57.8026704,78.2666685 58.176,78.8746624 58.176,79.728 C58.176,80.4000034 57.9440023,80.9466646 57.48,81.368 C57.0159977,81.7893354 56.3573376,82 55.504,82 L51.296,82 L51.296,74 L55.184,74 C56.0266709,74 56.6799977,74.2079979 57.144,74.624 C57.6080023,75.0400021 57.84,75.5839966 57.84,76.256 C57.84,76.9600035 57.5786693,77.5093314 57.056,77.904 Z M54.992,75.696 L53.232,75.696 L53.232,77.136 L54.992,77.136 C55.5786696,77.136 55.872,76.8960024 55.872,76.416 C55.872,75.9359976 55.5786696,75.696 54.992,75.696 Z M55.264,80.256 C55.8613363,80.256 56.16,80.0000026 56.16,79.488 C56.16,79.2639989 56.0800008,79.0880006 55.92,78.96 C55.7599992,78.8319994 55.5413347,78.768 55.264,78.768 L53.232,78.768 L53.232,80.256 L55.264,80.256 Z M66.848,82 L64.448,82 L61.536,78.368 L61.536,82 L59.472,82 L59.472,74 L61.536,74 L61.536,77.52 L64.288,74 L66.752,74 L63.536,77.952 L66.848,82 Z M73.952,74 L76.016,74 L76.016,82 L73.952,82 L73.952,81.056 C73.3333302,81.8346706 72.4640056,82.224 71.344,82.224 C70.277328,82.224 69.3626705,81.8160041 68.6,81 C67.8373295,80.1839959 67.456,79.1840059 67.456,78 C67.456,76.8159941 67.8373295,75.8160041 68.6,75 C69.3626705,74.1839959 70.277328,73.776 71.344,73.776 C72.4640056,73.776 73.3333302,74.1653294 73.952,74.944 L73.952,74 Z M70.144,79.632 C70.5600021,80.0480021 71.0879968,80.256 71.728,80.256 C72.3680032,80.256 72.8986646,80.0453354 73.32,79.624 C73.7413354,79.2026646 73.952,78.6613366 73.952,78 C73.952,77.3386634 73.7413354,76.7973354 73.32,76.376 C72.8986646,75.9546646 72.3680032,75.744 71.728,75.744 C71.0879968,75.744 70.5600021,75.9546646 70.144,76.376 C69.7279979,76.7973354 69.52,77.3386634 69.52,78 C69.52,78.6613366 69.7279979,79.2053312 70.144,79.632 Z" id="Заявка" fill="#000000" fill-rule="nonzero"></path>
                        </g>
                    </g>
                </g>
            </g>
        </g>
    </g>
</svg>