<?xml version="1.0" encoding="UTF-8"?>
<svg width="102px" height="102px" viewBox="0 0 102 102" version="1.1" xmlns="http://www.w3.org/2000/svg" xmlns:xlink="http://www.w3.org/1999/xlink">
    <!-- Generator: Sketch 54.1 (76490) - https://sketchapp.com -->
    <title>a2-3</title>
    <desc>Created with Sketch.</desc>
    <g id="Design" stroke="none" stroke-width="1" fill="none" fill-rule="evenodd">
        <g id="cpa-97_design" transform="translate(-813.000000, -1316.000000)">
            <g id="✅-art2" transform="translate(160.000000, 1174.000000)">
                <g id="content" transform="translate(0.000000, 102.000000)">
                    <g id="3" transform="translate(576.000000, 0.000000)">
                        <g id="a2-3" transform="translate(77.000000, 40.000000)">
                            <circle id="Oval" fill="#DAF7FF" cx="51" cy="51" r="51"></circle>
                            <path d="M33.92,76 L33.92,84 L31.856,84 L31.856,77.984 L29.648,77.984 L29.648,80.656 C29.648,83.130679 28.5226779,84.2453346 26.272,84 L26.272,82.064 C26.6986688,82.1706672 27.0239989,82.0986679 27.248,81.848 C27.4720011,81.5973321 27.584,81.1626698 27.584,80.544 L27.584,76 L33.92,76 Z M43.072,75.776 C44.2560059,75.776 45.2586626,76.1839959 46.08,77 C46.9013374,77.8160041 47.312,78.8159941 47.312,80 C47.312,81.1840059 46.9013374,82.1839959 46.08,83 C45.2586626,83.8160041 44.2560059,84.224 43.072,84.224 C42.0693283,84.224 41.1946704,83.920003 40.448,83.312 C39.7013296,82.703997 39.2213344,81.9200048 39.008,80.96 L37.856,80.96 L37.856,84 L35.792,84 L35.792,76 L37.856,76 L37.856,79.024 L39.024,79.024 C39.2373344,78.0746619 39.7173296,77.296003 40.464,76.688 C41.2106704,76.079997 42.079995,75.776 43.072,75.776 Z M41.52,81.584 C41.9360021,82.0000021 42.4533302,82.208 43.072,82.208 C43.6906698,82.208 44.2079979,82.0000021 44.624,81.584 C45.0400021,81.1679979 45.248,80.6400032 45.248,80 C45.248,79.3599968 45.0400021,78.8320021 44.624,78.416 C44.2079979,77.9999979 43.6906698,77.792 43.072,77.792 C42.4533302,77.792 41.9386687,77.9999979 41.528,78.416 C41.1173313,78.8320021 40.912,79.3599968 40.912,80 C40.912,80.6400032 41.1146646,81.1679979 41.52,81.584 Z M55.968,82.064 L57.024,82.064 L57.024,86.144 L55.008,86.144 L55.008,84 L50.048,84 L50.048,86.144 L48.032,86.144 L48.032,82.064 L49.008,82.064 C49.466669,81.3813299 49.696,80.4373394 49.696,79.232 L49.696,76 L55.968,76 L55.968,82.064 Z M51.216,82.064 L53.952,82.064 L53.952,77.856 L51.712,77.856 L51.712,79.232 C51.712,80.3626723 51.5466683,81.3066629 51.216,82.064 Z M60.08,80.848 C60.3573347,81.8506717 61.1093272,82.352 62.336,82.352 C63.1253373,82.352 63.7226646,82.085336 64.128,81.552 L65.792,82.512 C65.0026627,83.653339 63.8400077,84.224 62.304,84.224 C60.9813267,84.224 59.920004,83.824004 59.12,83.024 C58.319996,82.223996 57.92,81.2160061 57.92,80 C57.92,78.7946606 58.3146627,77.7893374 59.104,76.984 C59.8933373,76.1786626 60.9066605,75.776 62.144,75.776 C63.3173392,75.776 64.2853295,76.1813293 65.048,76.992 C65.8106705,77.8026707 66.192,78.8053274 66.192,80 C66.192,80.266668 66.1653336,80.5493318 66.112,80.848 L60.08,80.848 Z M60.048,79.248 L64.128,79.248 C64.0106661,78.7039973 63.7680018,78.298668 63.4,78.032 C63.0319982,77.765332 62.6133357,77.632 62.144,77.632 C61.5893306,77.632 61.1306685,77.7733319 60.768,78.056 C60.4053315,78.3386681 60.1653339,78.7359974 60.048,79.248 Z M68.976,74.976 L68.976,73.184 L73.616,73.184 L73.616,74.976 L68.976,74.976 Z M73.408,76 L74.944,76 L74.944,84 L72.928,84 L72.928,79.456 L69.168,84 L67.632,84 L67.632,76 L69.648,76 L69.648,80.544 L73.408,76 Z" id="людей" fill="#000000" fill-rule="nonzero"></path>
                            <path d="M30.88,37.04 C33.7200142,37.8800042 36.0299911,39.3499895 37.81,41.45 C39.5900089,43.5500105 40.48,46.0799852 40.48,49.04 C40.48,53.3600216 39.0300145,56.7399878 36.13,59.18 C33.2299855,61.6200122 29.680021,62.84 25.48,62.84 C22.1999836,62.84 19.2700129,62.0900075 16.69,60.59 C14.1099871,59.0899925 12.2400058,56.8800146 11.08,53.96 L18.16,49.88 C19.2000052,53.1200162 21.6399808,54.74 25.48,54.74 C27.6000106,54.74 29.2499941,54.2300051 30.43,53.21 C31.6100059,52.1899949 32.2,50.8000088 32.2,49.04 C32.2,47.3199914 31.6100059,45.9400052 30.43,44.9 C29.2499941,43.8599948 27.6000106,43.34 25.48,43.34 L23.68,43.34 L20.5,38.54 L28.78,27.74 L12.34,27.74 L12.34,20 L38.74,20 L38.74,26.84 L30.88,37.04 Z M62.44,36.14 C60.5199904,38.0200094 58.1200144,38.96 55.24,38.96 C52.3599856,38.96 49.9500097,38.0000096 48.01,36.08 C46.0699903,34.1599904 45.1,31.8200138 45.1,29.06 C45.1,26.2999862 46.0699903,23.9600096 48.01,22.04 C49.9500097,20.1199904 52.3599856,19.16 55.24,19.16 C58.1200144,19.16 60.5199904,20.1099905 62.44,22.01 C64.3600096,23.9100095 65.32,26.259986 65.32,29.06 C65.32,31.860014 64.3600096,34.2199904 62.44,36.14 Z M49.36,55.64 L76.72,25.22 L80.38,27.26 L52.96,57.74 L49.36,55.64 Z M52.48,31.82 C53.2000036,32.5400036 54.0999946,32.9 55.18,32.9 C56.2600054,32.9 57.1599964,32.5300037 57.88,31.79 C58.6000036,31.0499963 58.96,30.1400054 58.96,29.06 C58.96,27.9799946 58.6000036,27.0800036 57.88,26.36 C57.1599964,25.6399964 56.2600054,25.28 55.18,25.28 C54.0999946,25.28 53.2100035,25.6399964 52.51,26.36 C51.8099965,27.0800036 51.46,27.9799946 51.46,29.06 C51.46,30.1400054 51.7999966,31.0599962 52.48,31.82 Z M82.72,59.84 C80.7999904,61.7600096 78.4000144,62.72 75.52,62.72 C72.6399856,62.72 70.2400096,61.7600096 68.32,59.84 C66.3999904,57.9199904 65.44,55.5800138 65.44,52.82 C65.44,50.0599862 66.3999904,47.7200096 68.32,45.8 C70.2400096,43.8799904 72.6399856,42.92 75.52,42.92 C78.4000144,42.92 80.7999904,43.8799904 82.72,45.8 C84.6400096,47.7200096 85.6,50.0599862 85.6,52.82 C85.6,55.5800138 84.6400096,57.9199904 82.72,59.84 Z M72.82,55.58 C73.5400036,56.3000036 74.4399946,56.66 75.52,56.66 C76.6000054,56.66 77.4899965,56.2800038 78.19,55.52 C78.8900035,54.7599962 79.24,53.8600052 79.24,52.82 C79.24,51.7399946 78.8900035,50.8300037 78.19,50.09 C77.4899965,49.3499963 76.6000054,48.98 75.52,48.98 C74.4399946,48.98 73.5500035,49.3499963 72.85,50.09 C72.1499965,50.8300037 71.8,51.7399946 71.8,52.82 C71.8,53.9000054 72.1399966,54.8199962 72.82,55.58 Z" id="3%" fill="#000000" fill-rule="nonzero"></path>
                        </g>
                    </g>
                </g>
            </g>
        </g>
    </g>
</svg>