<svg xmlns="http://www.w3.org/2000/svg" width="41" height="33" viewBox="0 0 41 33"><path fill="#53a34f" d="M27.24 18.92c.4 0 .83-.04 1.27-.13 2.13-.4 4.41-1.79 6.78-4.12C40.22 9.84 40.97 1.15 41 .8a.72.72 0 0 0-.2-.58.75.75 0 0 0-.59-.2c-.37.02-9.14.74-14.07 5.58-2.37 2.33-3.8 4.56-4.23 6.65a5.35 5.35 0 0 0 .91 4.47 88.02 88.02 0 0 1-12.68 8.28c.52-1.1 1.11-2.69 1.56-4.84 2.7-.1 5.46-2.69 5.82-8.45.34-5.43-4.4-10.02-4.6-10.22a.75.75 0 0 0-.95-.06c-.23.17-5.5 4.14-5.85 9.58-.34 5.33 1.7 8.2 4.11 8.95a23.36 23.36 0 0 1-.8 2.88 11 11 0 0 1-1.63 3.25c-.17.19-.36.34-.59.45a89.36 89.36 0 0 1-5.75 2.7.73.73 0 0 0 .29 1.4c.1 0 .19-.02.28-.06.04-.02 4.43-1.83 9.99-4.94.82-.47 1.7-.97 2.6-1.52.53.4 2.35 1.64 6.07 2.5.08 2.42 2.41 4.92 7.68 5.36l.71.03c4.7 0 8.61-3.77 8.79-3.94.25-.25.29-.65.08-.94-.15-.2-3.7-5.01-8.7-5.43-2.38-.2-4.44.12-5.97.92a4.72 4.72 0 0 0-2.36 2.55 16.58 16.58 0 0 1-4.93-1.89 82.47 82.47 0 0 0 7.86-5.51 5.35 5.35 0 0 0 3.4 1.16zM8.57 16.74c-.8-1.39-1.13-3.34-.98-5.65.24-3.84 3.48-6.99 4.75-8.09 1.12 1.25 3.94 4.77 3.7 8.6-.15 2.32-.73 4.22-1.7 5.5a3.66 3.66 0 0 1-2.37 1.56c.32-1.98.51-4.37.48-7.21 0-.4-.34-.73-.75-.72-.4 0-.73.33-.73.74a40.8 40.8 0 0 1-.48 7.04 3.76 3.76 0 0 1-1.92-1.77zm20.14 9.27c-2.5-.03-4.6-.24-6.33-.55.27-.63.81-1.16 1.58-1.56 1.28-.67 3.06-.93 5.16-.76 3.42.29 6.2 3.14 7.2 4.32-1.2 1-4.41 3.35-7.83 3.06-2.1-.18-3.82-.73-4.96-1.6a3.23 3.23 0 0 1-1.34-2.01c1.8.31 3.95.53 6.5.56h.01c.4 0 .74-.32.74-.72 0-.4-.32-.74-.73-.74zm-5.36-13.48c.37-1.77 1.7-3.82 3.82-5.9 3.67-3.6 9.93-4.76 12.25-5.07-.32 2.3-1.5 8.48-5.17 12.08-2.13 2.09-4.2 3.38-6.02 3.72A4.15 4.15 0 0 1 25 16.8a51.3 51.3 0 0 0 4.65-4.39c.29-.3.25-.8-.08-1.06a.76.76 0 0 0-1.03.1 50.11 50.11 0 0 1-4.6 4.33c-.66-.91-.86-2-.6-3.25z"/></svg>