<svg xmlns="http://www.w3.org/2000/svg" width="25" height="37" viewBox="0 0 25 37"><path fill="#53a34f" d="M22.16 13.04A6.92 6.92 0 0 0 25 7.61c0-.4-.32-.72-.72-.72H6.76c-.4 0-.72.32-.72.72 0 2.06 1 4 2.83 5.43a10.3 10.3 0 0 0 4.68 2.02v7.77a129 129 0 0 0-2.71-.13c-5.27-.13-9.4-4.2-9.4-9.28a9.3 9.3 0 0 1 4.73-8.06c.35-.2.47-.64.27-.98a.73.73 0 0 0-.99-.26A10.73 10.73 0 0 0 0 13.42c0 2.85 1.13 5.52 3.17 7.53a11.23 11.23 0 0 0 7.63 3.18l2.75.13v5.46c-.88.07-1.8.11-2.73.11-.4 0-.72.32-.72.72 0 .4.32.71.72.71.92 0 1.84-.03 2.73-.1v1.2a3.77 3.77 0 0 0-1.84 3.22v.7c0 .4.32.72.72.72h6.18c.4 0 .72-.32.72-.72v-.7c0-1.36-.74-2.57-1.85-3.23V30.6c3.06-.7 5.26-1.9 5.26-3.6 0-1.57-1.86-2.84-5.26-3.6v-8.33c1.76-.3 3.38-.99 4.68-2.02zm-4.28 22.53h-4.72a2.35 2.35 0 0 1 2.36-2.32 2.36 2.36 0 0 1 2.36 2.32zm-1.84-4.7v.98a3.95 3.95 0 0 0-1.04 0V31l1.04-.14zM15 29.57V15.2a12.53 12.53 0 0 0 1.04 0v14.2l-1.04.16zm6.29-2.59c0 .44-.73 1.19-2.78 1.84a15 15 0 0 1-1.03.29v-4.25c2.78.68 3.81 1.62 3.81 2.12zm-5.77-13.2c-4.12 0-7.52-2.39-7.98-5.46H23.5c-.47 3.07-3.87 5.47-7.98 5.47zM13.72 1c-1.95 0-3.47 1.06-3.47 2.42 0 1.36 1.53 2.42 3.47 2.42 1.94 0 3.46-1.06 3.46-2.42 0-1.36-1.52-2.42-3.46-2.42zm0 3.41c-1.23 0-2.02-.59-2.02-.99s.79-.99 2.02-.99 2.01.59 2.01 1c0 .4-.78.98-2.01.98zm-4.3-.9a.72.72 0 0 0-.87-.55c-.25.05-.5.12-.75.2a.72.72 0 0 0 .2 1.4l.21-.03c.22-.07.44-.12.66-.17a.72.72 0 0 0 .55-.86z"/></svg>