<?xml version="1.0" encoding="UTF-8" standalone="no"?>
<svg
   xmlns:dc="http://purl.org/dc/elements/1.1/"
   xmlns:cc="http://creativecommons.org/ns#"
   xmlns:rdf="http://www.w3.org/1999/02/22-rdf-syntax-ns#"
   xmlns:svg="http://www.w3.org/2000/svg"
   xmlns="http://www.w3.org/2000/svg"
   xmlns:sodipodi="http://sodipodi.sourceforge.net/DTD/sodipodi-0.dtd"
   xmlns:inkscape="http://www.inkscape.org/namespaces/inkscape"
   width="34"
   height="40"
   viewBox="0 0 34 40"
   version="1.1"
   id="svg4"
   sodipodi:docname="head3 (1).svg"
   inkscape:version="0.92.1 r15371">
  <metadata
     id="metadata10">
    <rdf:RDF>
      <cc:Work
         rdf:about="">
        <dc:format>image/svg+xml</dc:format>
        <dc:type
           rdf:resource="http://purl.org/dc/dcmitype/StillImage" />
      </cc:Work>
    </rdf:RDF>
  </metadata>
  <defs
     id="defs8" />
  <sodipodi:namedview
     pagecolor="#ffffff"
     bordercolor="#666666"
     borderopacity="1"
     objecttolerance="10"
     gridtolerance="10"
     guidetolerance="10"
     inkscape:pageopacity="0"
     inkscape:pageshadow="2"
     inkscape:window-width="1520"
     inkscape:window-height="916"
     id="namedview6"
     showgrid="false"
     inkscape:zoom="5.9"
     inkscape:cx="-14.610169"
     inkscape:cy="20"
     inkscape:window-x="0"
     inkscape:window-y="30"
     inkscape:window-maximized="0"
     inkscape:current-layer="svg4" />
  <path
     fill="#53a34f"
     d="M33.38 7.73a67.1 67.1 0 0 1-15.95-6.62.87.87 0 0 0-.86 0A65.15 65.15 0 0 1 .62 7.73a.82.82 0 0 0-.62.8v8.38c0 8.63 4.07 14.34 7.49 17.62C11.16 38.05 15.45 40 17 40c1.55 0 5.84-1.95 9.51-5.47A23.86 23.86 0 0 0 34 16.9V8.53c0-.37-.25-.7-.62-.8zm-1.06 9.18c0 8.06-3.79 13.4-6.98 16.44-3.62 3.47-7.48 5-8.34 5-.86 0-4.72-1.53-8.34-5a22.26 22.26 0 0 1-6.98-16.44V9.15A66.82 66.82 0 0 0 17 2.77a69.02 69.02 0 0 0 15.32 6.38zM9.57 9.06a.85.85 0 0 0-1.09-.47c-1.5.58-3.04 1.11-4.57 1.58a.82.82 0 0 0-.59.79v3.16c0 .46.38.83.84.83.46 0 .84-.37.84-.83v-2.56c1.37-.44 2.75-.92 4.09-1.44a.82.82 0 0 0 .48-1.06zm1.59.15c.11 0 .23-.02.34-.07h.01a.8.8 0 0 0 .43-1.08.85.85 0 0 0-1.11-.42h-.01a.81.81 0 0 0-.43 1.08c.14.3.45.5.77.5zm15.83 18.24a.85.85 0 0 0-1.16.24 19.87 19.87 0 0 1-2.41 2.95c-.75.75-1.56 1.46-2.4 2.09a.8.8 0 0 0-.16 1.15c.16.21.41.32.66.32.18 0 .36-.05.51-.17a23.07 23.07 0 0 0 5.21-5.44.81.81 0 0 0-.25-1.14zm-7.92 6.57l-.05.02a.81.81 0 0 0 .42 1.53c.14 0 .29-.03.42-.1l.06-.04c.4-.23.53-.73.3-1.12a.85.85 0 0 0-1.15-.3zm-7.79-15.2c-.51-.5-1.2-.78-1.92-.78-.73 0-1.42.28-1.93.79a2.62 2.62 0 0 0 0 3.77l4.95 4.84c.51.5 1.2.78 1.93.78s1.41-.27 1.93-.78l10.33-10.11a2.62 2.62 0 0 0 0-3.77c-.51-.5-1.2-.78-1.92-.78-.73 0-1.42.27-1.93.78l-8.41 8.22zm12.62-4.1c.2-.2.46-.3.75-.3.28 0 .54.1.74.3.41.4.41 1.05 0 1.45L15.05 26.28c-.2.2-.46.3-.74.3-.28 0-.55-.1-.74-.3l-4.96-4.84a1.01 1.01 0 0 1 0-1.45c.2-.2.46-.3.75-.3.28 0 .54.1.74.3l3.61 3.53a.86.86 0 0 0 1.19 0z"
     id="path2"
     style="fill:#f1ca0f;fill-opacity:0.94117647" />
</svg>
